<?xml version="1.0" encoding="UTF-8" standalone="no"?>
<!DOCTYPE svg PUBLIC "-//W3C//DTD SVG 1.1//EN" "http://www.w3.org/Graphics/SVG/1.1/DTD/svg11.dtd">
<svg width="100%" height="100%" viewBox="0 0 47 47" version="1.1" xmlns="http://www.w3.org/2000/svg" xmlns:xlink="http://www.w3.org/1999/xlink" xml:space="preserve" xmlns:serif="http://www.serif.com/" style="fill-rule:evenodd;clip-rule:evenodd;stroke-linecap:round;stroke-linejoin:round;">
    <g id="Group-41" transform="matrix(1,0,0,1,-3.9,5.84894)">
        <path id="Oval" d="M31.6,31.2C39.6,27.7 44.2,19.3 41.9,12.5C39.6,5.7 31.2,2.8 23.2,6.3C21.5,7 18.6,9.1 17,12.4C15,16.3 14.6,19.3 11.9,23.4C9.4,27 4.4,26 4.4,26C5.1,28.1 10.3,32.1 13.2,33.4C18.3,35.6 26.1,33.6 31.6,31.2Z" style="fill:rgb(104,206,246);stroke:rgb(51,51,51);stroke-width:1px;"/>
        <path id="Path-35" d="M41.2,10.7L45.4,8.8L42.4,13.9" style="fill:rgb(251,247,84);stroke:rgb(51,51,51);stroke-width:1px;"/>
        <path d="M44.1,9.4L45.4,8.8L42.4,13.8L42,12.8L44.1,9.4Z" style="fill:rgb(238,234,52);"/>
        <g>
            <path d="M41.2,10.7L45.4,8.8L42.4,13.9" style="fill:none;fill-rule:nonzero;stroke:rgb(51,51,51);stroke-width:1px;"/>
            <path id="Path-35-Copy" d="M42.8,15.3L45.7,15.4L42.4,17.7" style="fill:rgb(238,234,52);stroke:rgb(51,51,51);stroke-width:1px;"/>
            <g transform="matrix(1.03901,0.0931964,-0.205571,2.29182,10.9924,-47.6314)">
                <path id="Path-36" d="M23.7,34L23.7,35.8C23.6,36.4 23.3,36.6 22.9,36.4" style="fill:none;fill-rule:nonzero;stroke:rgb(51,51,51);stroke-width:0.73px;"/>
                <g id="Path-361" serif:id="Path-36" transform="matrix(-1,0,0,1,47.6507,0.0664729)">
                    <path d="M23.7,34L23.7,35.8C23.6,36.4 23.3,36.6 22.9,36.4" style="fill:none;fill-rule:nonzero;stroke:rgb(51,51,51);stroke-width:0.73px;"/>
                </g>
            </g>
            <g transform="matrix(1.1497,-0.350205,0.581397,1.9087,-23.775,-14.9038)">
                <path id="Path-36-Copy-2" d="M34,29.8L34,32.1C34,33.1 33.7,33.6 33.2,33.3" style="fill:none;fill-rule:nonzero;stroke:rgb(51,51,51);stroke-width:0.73px;"/>
                <g id="Path-36-Copy-21" serif:id="Path-36-Copy-2" transform="matrix(-1,0,0,1,68.1224,0.0920183)">
                    <path d="M34,29.8L34,32.1C34,33.1 33.7,33.6 33.2,33.3" style="fill:none;fill-rule:nonzero;stroke:rgb(51,51,51);stroke-width:0.73px;"/>
                </g>
            </g>
        </g>
        <path id="Path" d="M39.3,24.3C37,20.8 32.3,19.5 27,21.6C21.1,24.4 16.2,29.6 14.5,34L18.4,34.4L22.9,34L30.2,31.8L35.7,28.6L38.8,25.7L39.3,24.3Z" style="fill:rgb(228,255,255);"/>
        <path d="M12.2,31.4C13.2,31.8 14.2,32.1 15.3,32.2C20.1,32.8 26.1,31.1 30.6,29.1C33.7,27.7 36.4,25.6 38.2,23.1C41.1,19.2 42.2,14.5 40.8,10.4C40.8,10.3 40.7,10.2 40.7,10C41.2,10.7 41.5,11.5 41.8,12.4C43.2,16.4 42.1,20.9 39.5,24.7C37.6,27.4 34.9,29.7 31.5,31.1C26.5,33.3 19.6,35.2 14.5,33.8C14,33.7 13.6,33.5 13.1,33.3C10.2,32 5,28.1 4.3,25.9C4.3,25.9 4.5,25.9 4.7,26C6.7,28.1 10.1,30.5 12.2,31.4Z" style="fill:rgb(60,176,221);"/>
        <path d="M15.3,32.2C20.1,32.8 26.1,31.1 30.6,29.1C33.7,27.7 36.4,25.6 38.2,23.1C38.1,23 39.5,24.5 39.5,24.7C37.6,27.4 34.9,29.7 31.5,31.1C26.5,33.3 19.6,35.2 14.5,33.8C14.5,33.9 15.3,32.2 15.3,32.2Z" style="fill:rgb(183,233,233);"/>
        <path d="M31.6,31.2C39.6,27.7 44.2,19.3 41.9,12.5C39.6,5.7 31.2,2.8 23.2,6.3C21.5,7 18.6,9.1 17,12.4C15,16.3 14.6,19.3 11.9,23.4C9.4,27 4.4,26 4.4,26C5.1,28.1 10.3,32.1 13.2,33.4C18.3,35.6 26.1,33.6 31.6,31.2Z" style="fill:none;fill-rule:nonzero;stroke:rgb(51,51,51);stroke-width:1px;"/>
        <path d="M31.6,31.2C39.6,27.7 44.2,19.3 41.9,12.5C39.6,5.7 31.2,2.8 23.2,6.3C21.5,7 18.6,9.1 17,12.4C15,16.3 14.6,19.3 11.9,23.4C9.4,27 4.4,26 4.4,26C5.1,28.1 10.3,32.1 13.2,33.4C18.3,35.6 26.1,33.6 31.6,31.2Z" style="fill:none;fill-rule:nonzero;stroke:rgb(51,51,51);stroke-width:1px;"/>
        <path d="M39.3,24.3C37,20.8 32.3,19.5 27,21.6C21.3,24.4 16.4,29.4 14.6,33.7" style="fill:none;fill-rule:nonzero;stroke:rgb(51,51,51);stroke-width:1px;"/>
        <path d="M31.5,13.2C31.6,15 33.1,16.4 34.9,16.3C36.7,16.2 38.1,14.7 38.1,13" style="fill:none;fill-rule:nonzero;stroke:rgb(51,51,51);stroke-width:1px;"/>
    </g>
    <g id="Group-42" transform="matrix(0.94,-0.342,0.342,0.94,36.945,2.93694)">
        <g transform="matrix(-1,0,0,-1,3.967,13.677)">
            <ellipse cx="2" cy="6.8" rx="2" ry="1" style="fill:rgb(255,148,205);stroke:rgb(51,51,51);stroke-width:1px;"/>
        </g>
        <path d="M0.4,6.2C0.7,6.6 1.4,6.9 2.3,6.9C2.9,6.9 3.5,6.8 3.9,6.5C3.9,6.6 4,6.7 4,6.8C4,7.4 3.1,7.8 2,7.8C0.9,7.8 0,7.3 0,6.8C0,6.6 0.2,6.4 0.4,6.2Z" style="fill:rgb(242,130,189);"/>
        <g>
            <g transform="matrix(-1,0,0,-1,3.967,13.677)">
                <ellipse cx="2" cy="6.8" rx="2" ry="1" style="fill:none;stroke:rgb(51,51,51);stroke-width:1px;"/>
            </g>
            <path id="Path-46" d="M4,6.6L7.4,0.1" style="fill:none;fill-rule:nonzero;stroke:rgb(51,51,51);stroke-width:1px;"/>
            <path d="M5.5,7C7.1,6 7.8,5.3 7.8,4.8C7.8,4.3 7.7,2.9 7.4,0.4" style="fill:none;fill-rule:nonzero;stroke:rgb(51,51,51);stroke-width:1px;"/>
        </g>
    </g>
</svg>
