<svg fill="none" height="512" viewBox="0 0 25 24" width="512" xmlns="http://www.w3.org/2000/svg" xmlns:xlink="http://www.w3.org/1999/xlink"><linearGradient id="lg1"><stop offset="0" stop-color="#138bd7"/><stop offset="1" stop-color="#62aafb"/></linearGradient><linearGradient id="paint0_linear_3397_3875" gradientUnits="userSpaceOnUse" x1="12" x2="12" xlink:href="#lg1" y1="4.25" y2="19.75"/><linearGradient id="paint1_linear_3397_3875" gradientUnits="userSpaceOnUse" x1="18.5" x2="18.5" xlink:href="#lg1" y1="15" y2="22"/><linearGradient id="paint2_linear_3397_3875" gradientUnits="userSpaceOnUse" x1="5.47" x2="5.47" xlink:href="#lg1" y1="2" y2="9"/><path d="m11.9999 19.75h-2.67996c-1.16 0-2.17-.7-2.57-1.78-.41-1.08-.11-2.27.76-3.04l7.98996-6.99c.48-.42.49-.99.35-1.38-.15-.39-.53-.81-1.17-.81h-2.68c-.41 0-.75-.34-.75-.75s.34-.75.75-.75h2.68c1.16 0 2.17.7 2.57 1.78.41 1.08.11 2.27-.76 3.04l-7.98996 6.99c-.48.42-.49.99-.35 1.38.15.39.53.81 1.17.81h2.67996c.41 0 .75.34.75.75s-.34.75-.75.75z" fill="url(#paint0_linear_3397_3875)"/><path d="m20 15h-3c-1.1 0-2 .9-2 2v3c0 1.1.9 2 2 2h3c1.1 0 2-.9 2-2v-3c0-1.1-.9-2-2-2zm-1.49 4.5c-.55 0-1-.45-1-1s.44-1 1-1h.01c.55 0 1 .45 1 1s-.45 1-1.01 1z" fill="url(#paint1_linear_3397_3875)"/><path d="m5.46997 2c-1.93 0-3.5 1.57-3.5 3.5s1.57 3.5 3.5 3.5 3.5-1.57 3.5-3.5-1.56-3.5-3.5-3.5zm.04 4.5c-.55 0-1-.45-1-1s.44-1 1-1h.01c.55 0 1 .45 1 1s-.45 1-1.01 1z" fill="url(#paint2_linear_3397_3875)"/></svg>