<?xml version="1.0" encoding="UTF-8" standalone="no"?>
<!DOCTYPE svg PUBLIC "-//W3C//DTD SVG 1.1//EN" "http://www.w3.org/Graphics/SVG/1.1/DTD/svg11.dtd">
<svg width="100%" height="100%" viewBox="0 0 60 60" version="1.1" xmlns="http://www.w3.org/2000/svg" xmlns:xlink="http://www.w3.org/1999/xlink" xml:space="preserve" xmlns:serif="http://www.serif.com/" style="fill-rule:evenodd;clip-rule:evenodd;stroke-linecap:round;stroke-linejoin:round;stroke-miterlimit:1.5;">
    <path d="M56,24L50.12,24C49.709,22.618 49.159,21.282 48.48,20.01L52.63,15.86C53.792,14.697 53.792,12.783 52.63,11.62L48.38,7.37C47.217,6.208 45.303,6.208 44.14,7.37L39.99,11.52C38.719,10.839 37.382,10.289 36,9.88L36,4C36,2.354 34.646,1 33,1L27,1C25.354,1 24,2.354 24,4L24,9.88C22.618,10.289 21.281,10.839 20.01,11.52L15.86,7.37C14.697,6.208 12.783,6.208 11.62,7.37L7.37,11.62C6.208,12.783 6.208,14.697 7.37,15.86L11.52,20.01C10.841,21.282 10.291,22.618 9.88,24L4,24C2.354,24 1,25.354 1,27L1,33C1,34.646 2.354,36 4,36L9.88,36C10.289,37.382 10.839,38.719 11.52,39.99L7.37,44.14C6.208,45.303 6.208,47.217 7.37,48.38L11.62,52.63C12.783,53.792 14.697,53.792 15.86,52.63L20.01,48.48C21.281,49.161 22.618,49.711 24,50.12L24,56C24,57.646 25.354,59 27,59L33,59C34.646,59 36,57.646 36,56L36,50.12C37.382,49.711 38.719,49.161 39.99,48.48L44.14,52.63C45.303,53.792 47.217,53.792 48.38,52.63L52.63,48.38C53.792,47.217 53.792,45.303 52.63,44.14L48.48,39.99C49.161,38.719 49.711,37.382 50.12,36L56,36C57.646,36 59,34.646 59,33L59,27C59,25.354 57.646,24 56,24ZM30,44C22.32,44 16,37.68 16,30C16,22.32 22.32,16 30,16C37.68,16 44,22.32 44,30C44,37.68 37.68,44 30,44Z" style="fill:rgb(135,177,211);fill-rule:nonzero;"/>
    <circle cx="30" cy="30" r="8" style="fill:rgb(135,177,211);"/>
    <path d="M56,23L50.852,23C50.533,22.041 50.148,21.106 49.7,20.2L53.335,16.565C54.886,15.013 54.886,12.461 53.335,10.909L49.092,6.666C47.519,5.163 45.009,5.163 43.436,6.666L39.8,10.3C38.894,9.852 37.959,9.467 37,9.148L37,4C37,1.806 35.194,0 33,0L27,0C24.806,0 23,1.806 23,4L23,9.148C22.041,9.467 21.106,9.852 20.2,10.3L16.564,6.666C14.991,5.163 12.481,5.163 10.908,6.666L6.666,10.908C5.115,12.46 5.115,15.012 6.666,16.564L10.3,20.2C9.852,21.106 9.467,22.041 9.148,23L4,23C1.806,23 -0,24.806 0,27L0,33C0,35.194 1.806,37 4,37L9.148,37C9.467,37.959 9.852,38.894 10.3,39.8L6.666,43.436C5.115,44.988 5.115,47.54 6.666,49.092L10.908,53.334C12.481,54.837 14.991,54.837 16.564,53.334L20.2,49.7C21.106,50.148 22.041,50.533 23,50.852L23,56C23,58.194 24.806,60 27,60L33,60C35.194,60 37,58.194 37,56L37,50.852C37.959,50.533 38.894,50.148 39.8,49.7L43.435,53.335C45.008,54.838 47.518,54.838 49.091,53.335L53.333,49.093C54.884,47.541 54.884,44.989 53.333,43.437L49.7,39.8C50.148,38.894 50.533,37.959 50.852,37L56,37C58.194,37 60,35.194 60,33L60,27C60,24.806 58.194,23 56,23ZM58,33C58,34.097 57.097,35 56,35L50.119,35C49.678,35 49.287,35.292 49.161,35.714C48.771,37.031 48.247,38.304 47.596,39.514C47.386,39.902 47.456,40.385 47.768,40.697L51.92,44.85C52.696,45.626 52.696,46.902 51.92,47.678L47.678,51.92C46.892,52.671 45.636,52.671 44.85,51.92L40.7,47.768C40.388,47.456 39.905,47.386 39.517,47.596C38.307,48.247 37.034,48.771 35.717,49.161C35.295,49.287 35.003,49.678 35.003,50.119L35.003,56C35.003,57.097 34.1,58 33.003,58L27,58C25.903,58 25,57.097 25,56L25,50.119C25,49.678 24.708,49.287 24.286,49.161C22.969,48.771 21.696,48.247 20.486,47.596C20.098,47.386 19.615,47.456 19.303,47.768L15.15,51.92C14.364,52.671 13.108,52.671 12.322,51.92L8.08,47.678C7.304,46.902 7.304,45.626 8.08,44.85L12.232,40.7C12.544,40.388 12.614,39.905 12.404,39.517C11.753,38.307 11.229,37.034 10.839,35.717C10.714,35.293 10.323,35 9.881,35L4,35C2.903,35 2,34.097 2,33L2,27C2,25.903 2.903,25 4,25L9.881,25C10.322,25 10.713,24.708 10.839,24.286C11.229,22.969 11.753,21.696 12.404,20.486C12.614,20.098 12.544,19.615 12.232,19.303L8.08,15.15C7.304,14.374 7.304,13.098 8.08,12.322L12.322,8.08C13.108,7.329 14.364,7.329 15.15,8.08L19.3,12.232C19.611,12.546 20.096,12.616 20.483,12.404C21.693,11.753 22.966,11.229 24.283,10.839C24.707,10.714 25,10.323 25,9.881L25,4C25,2.903 25.903,2 27,2L33,2C34.097,2 35,2.903 35,4L35,9.881C35,10.322 35.292,10.713 35.714,10.839C37.031,11.229 38.304,11.753 39.514,12.404C39.902,12.614 40.385,12.544 40.697,12.232L44.85,8.08C45.636,7.329 46.892,7.329 47.678,8.08L51.92,12.322C52.696,13.098 52.696,14.374 51.92,15.15L47.768,19.3C47.456,19.612 47.386,20.095 47.596,20.483C48.247,21.693 48.771,22.966 49.161,24.283C49.287,24.705 49.678,24.997 50.119,24.997L56,24.997C57.097,24.997 58,25.9 58,26.997L58,33Z" style="fill:rgb(55,55,55);fill-rule:nonzero;"/>
    <path d="M39,30C39,25.063 34.937,21 30,21C25.063,21 21,25.063 21,30C21,34.937 25.063,39 30,39C34.935,38.995 38.995,34.935 39,30ZM23,30C23,26.16 26.16,23 30,23C33.84,23 37,26.16 37,30C37,33.84 33.84,37 30,37C26.162,36.995 23.005,33.838 23,30Z" style="fill:rgb(55,55,55);fill-rule:nonzero;"/>
    <g transform="matrix(1.08309,0,0,1.08309,11.3002,12.9347)">
        <circle cx="17.176" cy="15.809" r="12.926" style="fill:none;stroke:rgb(55,55,55);stroke-width:1.85px;"/>
    </g>
</svg>
