<svg fill="none" height="512" viewBox="0 0 24 24" width="512" xmlns="http://www.w3.org/2000/svg"><g clip-rule="evenodd" fill-rule="evenodd"><path d="m8.17886 3.30233c0-1.27154.98279-2.30233 2.19514-2.30233h3.252c1.2123 0 2.1951 1.03079 2.1951 2.30233v6.79327h3.9838c1.2123 0 2.1951 1.0308 2.1951 2.3023v8.2998c0 1.2715-.9828 2.3023-2.1951 2.3023h-15.60978c-1.21233 0-2.19512-1.0308-2.19512-2.3023v-10.5737c0-1.27151.98279-2.30229 2.19512-2.30229h3.98374z" fill="#78a6ff"/><path d="m8.17886 3.30233c0-1.27154.98279-2.30233 2.19514-2.30233h3.252c1.2123 0 2.1951 1.03079 2.1951 2.30233v6.79327h3.9838c1.2123 0 2.1951 1.0308 2.1951 2.3023v8.2998c0 1.2715-.9828 2.3023-2.1951 2.3023h-15.60978c-1.21233 0-2.19512-1.0308-2.19512-2.3023v-10.5737c0-1.27151.98279-2.30229 2.19512-2.30229h3.98374zm0 6.05426h-3.98374c-.40411 0-.73171.3436-.73171.76741v10.5737c0 .4238.3276.7674.73171.7674h3.98374zm1.46342 12.10851h4.71542v-18.16277c0-.42385-.3276-.76745-.7317-.76745h-3.252c-.40413 0-.73172.3436-.73172.76745zm6.17882 0h3.9838c.4041 0 .7317-.3436.7317-.7674v-8.2998c0-.4238-.3276-.7674-.7317-.7674h-3.9838z" fill="#000"/></g></svg>