<?xml version="1.0" encoding="UTF-8" standalone="no"?>
<!DOCTYPE svg PUBLIC "-//W3C//DTD SVG 1.1//EN" "http://www.w3.org/Graphics/SVG/1.1/DTD/svg11.dtd">
<svg width="100%" height="100%" viewBox="0 0 512 512" version="1.1" xmlns="http://www.w3.org/2000/svg" xmlns:xlink="http://www.w3.org/1999/xlink" xml:space="preserve" xmlns:serif="http://www.serif.com/" style="fill-rule:evenodd;clip-rule:evenodd;stroke-linejoin:round;stroke-miterlimit:2;">
    <g id="Layer_x0020_1" transform="matrix(300.001,0,0,300.001,0,0)">
        <path d="M0.315,0.796C0.316,0.794 0.318,0.793 0.32,0.791L0.315,0.796ZM0.586,0.767L1.162,0.767C1.183,0.767 1.208,0.762 1.225,0.747C1.237,0.736 1.242,0.72 1.242,0.703L1.242,0.591C1.242,0.543 1.281,0.505 1.328,0.505C1.375,0.505 1.414,0.543 1.414,0.591L1.414,0.703C1.414,0.769 1.389,0.83 1.34,0.874C1.291,0.919 1.227,0.939 1.162,0.939L0.586,0.939L0.5,0.853L0.586,0.767ZM0.32,0.916C0.305,0.902 0.296,0.884 0.293,0.864C0.296,0.882 0.304,0.9 0.318,0.914L0.32,0.916Z" style="fill:rgb(35,108,241);"/>
        <g id="_373568368">
            <path id="_373568464" d="M0.293,1.391C0.293,1.343 0.331,1.305 0.379,1.305L0.953,1.305L1.04,1.392L0.956,1.477L0.379,1.477C0.331,1.477 0.293,1.438 0.293,1.391ZM1.212,1.321C1.233,1.336 1.248,1.362 1.248,1.391L1.248,1.391C1.247,1.369 1.239,1.348 1.222,1.331L1.212,1.321Z" style="fill:rgb(181,199,236);"/>
            <path id="_373568440" d="M0.293,0.316C0.293,0.269 0.331,0.23 0.379,0.23L0.954,0.23L1.04,0.316L0.954,0.402L0.379,0.402C0.331,0.402 0.293,0.363 0.293,0.316Z" style="fill:rgb(181,199,236);"/>
        </g>
        <g id="_373568104">
            <path id="_373567552" d="M1.222,0.377L0.993,0.606C0.96,0.64 0.905,0.64 0.872,0.606C0.838,0.573 0.838,0.518 0.872,0.485L1.04,0.316L0.872,0.147C0.838,0.114 0.838,0.059 0.872,0.026C0.905,-0.008 0.96,-0.008 0.993,0.026L1.223,0.255C1.256,0.289 1.256,0.344 1.222,0.377L1.222,0.377L1.222,0.377Z" style="fill:rgb(35,108,241);"/>
            <path id="_373567480" d="M1.222,1.331L0.993,1.102C0.96,1.069 0.905,1.069 0.872,1.102C0.838,1.136 0.838,1.19 0.872,1.224L1.04,1.392L0.872,1.561C0.838,1.594 0.838,1.649 0.872,1.682C0.905,1.716 0.96,1.716 0.993,1.682L1.222,1.453C1.256,1.419 1.256,1.364 1.222,1.331Z" style="fill:rgb(35,108,241);"/>
        </g>
        <path d="M0.319,0.792L0.547,0.563C0.581,0.53 0.635,0.53 0.669,0.563C0.702,0.597 0.702,0.651 0.669,0.685L0.5,0.853L0.669,1.022C0.702,1.056 0.702,1.11 0.669,1.143C0.635,1.177 0.581,1.177 0.547,1.143L0.318,0.914C0.284,0.88 0.284,0.826 0.318,0.792L0.319,0.792L0.319,0.792Z" style="fill:rgb(35,108,241);"/>
    </g>
</svg>
