<svg id="Layer_1" enable-background="new 0 0 48 48" viewBox="0 0 48 48" xmlns="http://www.w3.org/2000/svg"><g><path d="m2 30.2h29.6v3.3h-29.6z" fill="#ffcada"/><path d="m46 35-2.2 1.7-12.2-9.4v-3.3z" fill="#ffcada"/><path d="m31.6 39.8h-29.6v-6.3h29.6v-6.2l12.2 9.4-12.2 9.3z" fill="#ff99b0"/><path d="m16.4 8.2h29.6v3.3h-29.6z" fill="#edf6ff"/><path d="m16.4 2v3.3l-12.2 9.4-2.2-1.7z" fill="#edf6ff"/><path d="m46 11.5v6.3h-29.6v6.2l-12.2-9.3 12.2-9.4v6.2z" fill="#c1e5ff"/><g fill="#6c6caa"><path d="m46.9 33.8-14.4-11c-.5-.3-1.1-.4-1.6-.2-.5.3-.8.8-.8 1.3v4.7h-28.1c-.8 0-1.5.7-1.5 1.5v9.6c0 .8.7 1.5 1.5 1.5h28.1v4.8c0 .6.3 1.1.8 1.3.2.1.4.2.7.2s.6-.1.9-.3l14.4-11c.4-.3.6-.7.6-1.2 0-.4-.2-.9-.6-1.2zm-13.8 9.2v-3.2c0-.8-.7-1.5-1.5-1.5h-28.1v-6.6h28.1c.8 0 1.5-.7 1.5-1.5v-3.2l10.4 8z"/><path d="m46 6.7h-28.1v-4.7c0-.6-.3-1.1-.8-1.3-.5-.3-1.1-.2-1.6.2l-14.4 11c-.4.3-.6.7-.6 1.2s.2.9.6 1.2l14.4 11c.3.2.6.3.9.3.2 0 .5-.1.7-.2.5-.3.8-.8.8-1.3v-4.7h28.1c.8 0 1.5-.7 1.5-1.5v-9.7c0-.8-.7-1.5-1.5-1.5zm-1.5 9.6h-28.1c-.8 0-1.5.7-1.5 1.5v3.2l-10.4-8 10.4-8v3.2c0 .8.7 1.5 1.5 1.5h28.1z"/></g></g></svg>