<?xml version="1.0" encoding="UTF-8" standalone="no"?>
<!DOCTYPE svg PUBLIC "-//W3C//DTD SVG 1.1//EN" "http://www.w3.org/Graphics/SVG/1.1/DTD/svg11.dtd">
<svg width="100%" height="100%" viewBox="0 0 534 534" version="1.1" xmlns="http://www.w3.org/2000/svg" xmlns:xlink="http://www.w3.org/1999/xlink" xml:space="preserve" xmlns:serif="http://www.serif.com/" style="fill-rule:evenodd;clip-rule:evenodd;stroke-linejoin:round;stroke-miterlimit:2;">
    <g transform="matrix(1,0,0,1,-1315.07,-2509.39)">
        <g id="bird15" transform="matrix(1,0,0,1,1315.07,2509.39)">
            <rect x="0" y="0" width="533.333" height="533.333" style="fill:none;"/>
            <g transform="matrix(0.940404,0,0,0.940404,-1614.14,-1144.06)">
                <path d="M2119,1315.38C2118.35,1316.08 2115.98,1318.14 2116.45,1315.4C2118.42,1304.12 2109.87,1297.63 2105.49,1289.24C2105.28,1288.83 2105.16,1288.37 2104.99,1287.93C2104.25,1287.01 2103.33,1286.19 2102.78,1285.17C2100.82,1281.56 2095.27,1279.52 2098.39,1273.71C2102.07,1266.85 2106.3,1260.72 2114.07,1258.15C2117.08,1257.15 2118.98,1259.29 2120.64,1261.34C2126.2,1268.18 2129.13,1276.01 2129.19,1284.87C2131.01,1296.78 2126.99,1306.76 2119,1315.38ZM2106.14,1304.45C2102.11,1306.59 2097.98,1308.23 2093.31,1308.01C2085.25,1307.93 2084.23,1306.15 2087.79,1298.84C2089.76,1294.8 2091.63,1290.71 2093.23,1286.52C2094.61,1282.9 2096.11,1283.44 2097.88,1286.02C2101.1,1290.7 2104.17,1295.48 2107.45,1300.11C2109.03,1302.34 2108.13,1303.38 2106.14,1304.45ZM2087.08,1324.49C2095.21,1344.4 2093.37,1364.71 2089.61,1385C2082.13,1425.4 2060.02,1457.18 2030.26,1484.33C2029.4,1485.11 2028.6,1486.57 2027.41,1486.12C2025.94,1485.57 2027.15,1484.11 2027.1,1483.05C2027.01,1481.18 2027.41,1478.55 2024.88,1478.6C2022.15,1478.66 2023.34,1481.51 2023,1483.19C2022.57,1485.29 2022.25,1487.41 2021.89,1489.52C2020.68,1496.68 2014.88,1502.54 2007.91,1503.54C2004.7,1504 2002.28,1502.37 2000.78,1499.81C1999.06,1496.89 1998.1,1496.83 1995.7,1499.42C1991.48,1503.97 1985.78,1506.74 1980.73,1510.29C1978.34,1511.97 1977.95,1510.9 1978.28,1508.5C1979.22,1501.66 1980.64,1495.72 1986.46,1490.44C2009.62,1469.4 2031.07,1446.67 2047.06,1419.51C2058.74,1399.66 2065.29,1378.18 2064.41,1354.86C2064.04,1345.02 2062.35,1335.46 2057.46,1326.7C2048.98,1311.49 2029.9,1304.56 2013.63,1310.7C2011.49,1311.5 2009.68,1312.34 2009.1,1314.73C2011.44,1316.63 2013.62,1314.96 2015.8,1314.36C2034.44,1309.22 2049.45,1316.77 2056.41,1334.87C2057.34,1337.31 2057.83,1339.92 2058.78,1342.35C2064.51,1357.03 2055.79,1366.47 2046.73,1375.79C2044.27,1378.32 2042.03,1377.24 2039.97,1375.13C2037.25,1372.33 2035.93,1373.8 2035.24,1376.74C2034.44,1380.22 2033.82,1383.74 2032.33,1387.02C2031.04,1389.83 2029.85,1390.45 2028.37,1387.08C2027.85,1385.9 2027.7,1383.92 2025.87,1384.08C2023.91,1384.25 2023.61,1386.22 2023.03,1387.75C2022.52,1389.09 2022.11,1390.47 2021.43,1391.72C2020.55,1393.34 2019.86,1395.5 2017.44,1395.14C2015.4,1394.83 2015.36,1392.76 2014.87,1391.25C2014.43,1389.9 2014.4,1388.15 2012.66,1387.98C2010.95,1387.8 2010.48,1389.43 2009.83,1390.71C2009.07,1392.19 2008.23,1393.64 2007.32,1395.03C2003.41,1400.97 2003.29,1401.08 1997.86,1396.3C1995.18,1393.93 1994.66,1396.24 1993.8,1397.75C1991.33,1402.12 1988.71,1406.38 1984.93,1409.76C1983.17,1411.34 1981.3,1413.23 1978.64,1411.97C1975.81,1410.63 1976.18,1408.4 1977.25,1405.94C1977.79,1404.7 1978.22,1402.99 1976.32,1402.39C1974.68,1401.87 1973.79,1403.16 1972.93,1404.36C1969.6,1409 1966.66,1413.96 1962.5,1417.93C1961.04,1419.33 1959.5,1421.74 1957.2,1420.48C1955.03,1419.29 1955.82,1416.58 1956.14,1414.58C1956.74,1410.84 1957.78,1407.16 1958.59,1403.45C1959.27,1400.3 1958.56,1398.19 1954.74,1398.57C1952.32,1401.17 1949.98,1403.84 1947.47,1406.35C1945.51,1408.31 1943.68,1410.88 1940.23,1408.78C1939.18,1408.14 1937.88,1408 1937.49,1409.68C1937.1,1411.33 1938.02,1412.43 1939.43,1413.04C1943.64,1414.89 1946.66,1412.46 1949.69,1410.1C1950.55,1409.43 1951.26,1408.12 1952.49,1408.77C1952.81,1408.93 1952.43,1410.5 1952.32,1411.42C1951.71,1416.35 1950.14,1422.41 1955.42,1424.89C1961.31,1427.67 1964.75,1421.82 1967.99,1417.98C1970.86,1414.58 1972.77,1411.41 1977.43,1416.08C1979.58,1418.23 1982.84,1416.5 1985.34,1414.95C1988.22,1413.17 1990.45,1410.71 1992.33,1407.96C1994.41,1404.91 1995.75,1401.45 2000.74,1404.68C2003.39,1406.4 2006.4,1403.93 2007.76,1401.36C2010.53,1396.11 2013.2,1397 2016.24,1400.9C2018.73,1400.66 2020.76,1399.52 2022.41,1397.69C2024.51,1395.39 2025.34,1390.9 2030.32,1394.41C2031.84,1395.48 2034.09,1392.85 2034.99,1390.84C2036.16,1388.25 2036.96,1385.49 2038.11,1382.89C2038.57,1381.85 2038.58,1379.59 2040.83,1380.89C2045.36,1383.51 2047.9,1380.18 2050.6,1377.61C2052.32,1375.97 2053.67,1373.95 2055.35,1372.27C2056.61,1371.01 2056.87,1368.62 2059.3,1368.61C2059.22,1370.47 2059.31,1372.36 2059.03,1374.19C2056.18,1393.14 2048.77,1410.31 2038.11,1426.06C2023.76,1447.26 2006.68,1466.14 1988.01,1483.61C1982,1489.23 1975.25,1493.54 1967.23,1495.66C1965.42,1496.14 1962.82,1497.64 1961.89,1496.28C1960.76,1494.62 1963.6,1493.49 1964.66,1492.13C1969.38,1486.15 1974.28,1480.32 1979,1474.34C1980.02,1473.05 1982.52,1471.48 1979.93,1469.72C1977.85,1468.29 1976.53,1470.23 1975.42,1471.85C1969.48,1480.52 1962.79,1488.58 1955.12,1495.78C1949.71,1500.87 1943.93,1505.43 1936.54,1507.38C1933.57,1508.17 1930.14,1509.67 1927.9,1506.78C1925.44,1503.62 1927.48,1500.54 1929.62,1497.77C1932.09,1494.56 1934.49,1491.3 1936.77,1487.95C1937.64,1486.68 1939.13,1485.01 1937.17,1483.6C1935,1482.04 1934.31,1484.32 1933.52,1485.59C1930.34,1490.65 1926.87,1495.45 1922.69,1499.75C1919.24,1503.31 1915,1505.41 1910.25,1506.29C1906.32,1507.02 1903.59,1505.74 1904.27,1500.96C1905.45,1492.66 1907.95,1484.71 1911.23,1477.07C1912.67,1473.7 1916.64,1472.58 1919.42,1470.38C1920.93,1469.19 1922.73,1467.6 1920.95,1465.73C1919.4,1464.1 1918.04,1466.07 1916.8,1467.05C1913.85,1469.39 1910.37,1473.7 1907.19,1471.87C1903.58,1469.8 1907.03,1465.01 1907.47,1461.46C1907.99,1457.24 1909.22,1453.09 1910.3,1448.95C1911.45,1444.5 1910.82,1437.7 1919.05,1441.82C1919.37,1441.98 1919.95,1441.52 1920.41,1441.51C1923.17,1441.43 1925.82,1437.72 1928,1439.8C1929.34,1441.06 1928.22,1444.79 1928.41,1447.39C1929.05,1455.95 1933.79,1459.3 1941.94,1456.54C1944.57,1455.65 1946.02,1454.99 1947.29,1458.27C1949,1462.69 1952.78,1463.09 1956.82,1461.82C1958.39,1461.32 1959.92,1460.56 1961.33,1459.69C1965.87,1456.89 1968.8,1451.86 1976.3,1455.15C1981.17,1457.28 1986.09,1451.47 1989.81,1447.4C1991.83,1445.2 1993.01,1442.6 1995.91,1446.82C1997.8,1449.58 2001.03,1448.77 2003.61,1447.01C2006.39,1445.12 2008.74,1442.69 2010.49,1439.84C2012.45,1436.66 2013.88,1433.07 2017.51,1438.54C2018.44,1439.94 2020.53,1439.63 2022.14,1438.76C2027.82,1435.72 2031.54,1430.83 2034.6,1425.37C2035.22,1424.28 2035.17,1422.84 2034.12,1422.11C2032.93,1421.27 2031.9,1422.29 2031.16,1423.21C2028.64,1426.36 2026.89,1430.12 2023.72,1432.75C2022.42,1433.83 2020.93,1435.17 2019.29,1434.16C2018.03,1433.39 2018.44,1431.56 2018.48,1430.15C2018.5,1429.43 2018.68,1428.72 2018.64,1428.01C2018.54,1426.44 2019.47,1424.27 2017.39,1423.63C2015.31,1422.98 2014.73,1425.2 2014.01,1426.56C2011.78,1430.77 2009.57,1434.96 2006.06,1438.29C2005.04,1439.6 2004.17,1441.06 2002.96,1442.17C2000.14,1444.77 1997.9,1444.8 1997.13,1440.38C1996.86,1438.86 1997.49,1436.75 1995.03,1436.56C1993.05,1436.42 1992.3,1438.23 1991.26,1439.46C1988.03,1443.27 1984.73,1447.02 1980.57,1449.87C1978.73,1451.13 1976.57,1452.07 1974.58,1450.77C1972.49,1449.4 1974.76,1447.89 1975.08,1446.45C1975.32,1445.34 1975.02,1444.58 1974.09,1444.12C1973.09,1443.63 1972.25,1444.19 1971.56,1444.87C1969.85,1446.53 1968.19,1448.23 1966.51,1449.91C1963.99,1452.44 1961.44,1455 1958.2,1456.56C1955.94,1457.65 1953.25,1459.44 1951.13,1456.57C1949.23,1453.99 1949.72,1451.16 1951.73,1448.7C1953.39,1446.68 1955.27,1444.83 1956.8,1442.73C1957.68,1441.53 1959.34,1439.89 1957.27,1438.5C1955.81,1437.52 1954.67,1438.99 1953.72,1440.03C1951.15,1442.83 1948.64,1445.68 1946.05,1448.46C1944.42,1450.21 1942.54,1451.66 1940.31,1452.6C1935.97,1454.41 1933.39,1453.09 1932.74,1448.48C1932.12,1443.96 1932.89,1439.46 1933.45,1434.98C1933.75,1432.59 1935.36,1431.39 1937.32,1430.26C1939.14,1429.21 1940.83,1427.82 1942.34,1426.34C1943.24,1425.46 1944.6,1424.16 1943.15,1422.79C1942.19,1421.87 1940.92,1422.44 1939.91,1423.19C1938.38,1424.31 1936.98,1425.67 1935.33,1426.56C1930.85,1428.98 1927.85,1427.51 1927.36,1422.51C1927.06,1419.45 1927.24,1416.32 1927.53,1413.25C1928,1408.34 1929.63,1403.55 1927.29,1398.57C1926.41,1396.7 1927.84,1394.42 1928.65,1392.44C1932.96,1381.9 1936.89,1371.19 1942.08,1361.02C1948.6,1345.06 1957.83,1330.88 1969.96,1318.6C1972.94,1315.58 1975.82,1312.45 1978.74,1309.38C1987.69,1286.15 1998.79,1264.05 2017.35,1246.98C2040.1,1226.05 2067.19,1221.77 2096.34,1229.96C2105.41,1232.5 2112.84,1238.36 2116.8,1247.51C2118.32,1251 2118.72,1253.41 2113.31,1254.04C2107.43,1254.71 2103.2,1259 2099.66,1263.63C2097.95,1265.87 2096.41,1268.24 2094.79,1270.55C2090.84,1280.74 2087.4,1291.14 2082.14,1300.79C2080.78,1303.3 2079.87,1305.88 2081.23,1308.93C2082.58,1311.96 2081.74,1313.39 2077.84,1313.56C2062.03,1314.27 2040,1297.59 2042.58,1277.32C2043.04,1273.75 2043.04,1270.19 2042.06,1266.68C2041.22,1263.71 2041.55,1262.34 2045.32,1263.28C2051.07,1264.72 2056.97,1265.58 2062.8,1266.68C2064.59,1266.42 2066.09,1265.85 2066.05,1263.64C2059.44,1262.11 2052.82,1260.62 2046.22,1259.04C2044.45,1258.61 2043.18,1258.09 2044.84,1255.73C2051.09,1246.87 2064.46,1241.36 2075.13,1243.72C2081.96,1245.23 2086.45,1249.59 2088.66,1256.12C2090.36,1261.13 2088.79,1263.7 2083.55,1264.96C2079.31,1265.97 2075.03,1265.33 2070.76,1264.92C2068.99,1265.17 2067.47,1265.7 2067.49,1267.91C2076.47,1270.75 2085.15,1270.87 2093.16,1265.02C2094.48,1245.78 2079.64,1234.66 2060.08,1240.11C2052.86,1242.12 2047.14,1246.38 2042.77,1252.11C2039.68,1256.15 2036.83,1259.28 2031.23,1258.41C2029.77,1258.18 2027.47,1258.47 2027.41,1260.65C2027.34,1263.14 2029.68,1262.79 2031.16,1262.64C2036.31,1262.13 2037.88,1265.23 2038.26,1269.45C2038.52,1272.29 2038.55,1275.16 2038.47,1278.01C2037.93,1298.9 2056.66,1318.43 2077.54,1317.75C2083.42,1317.55 2085.2,1319.87 2087.08,1324.49ZM2030.91,1496.01C2032.28,1495.72 2033.72,1495.71 2035.18,1495.58C2042.15,1496.2 2048.7,1497.84 2053.62,1503.36C2054.2,1504.01 2055.05,1505.3 2054.81,1505.67C2054.03,1506.88 2053.17,1505.66 2052.49,1505.22C2045.96,1501 2038.69,1499.17 2031.06,1498.37C2030.17,1498.27 2028.51,1499 2028.59,1497.22C2028.62,1496.77 2030.05,1496.19 2030.91,1496.01ZM2049.78,1513.54C2049.21,1513.27 2048.53,1513.12 2048.07,1512.71C2041.3,1506.66 2032.91,1505.22 2024.32,1504.3C2022.98,1504.15 2020.97,1504.27 2021.06,1502.42C2021.16,1500.29 2023.03,1501.13 2023.31,1501.17C2030.83,1502.63 2037.58,1502.46 2043.85,1505.15C2046.95,1506.48 2049.05,1508.36 2049.94,1511.55C2050.1,1512.16 2049.84,1512.88 2049.78,1513.54ZM2009.27,1511.08C2008.48,1510.74 2008.09,1510.58 2007.7,1510.41C2007.96,1510.02 2008.15,1509.55 2008.5,1509.25C2010.83,1507.23 2013.26,1505.37 2016.41,1504.84C2016.58,1504.81 2017.12,1505.69 2017.05,1505.78C2014.92,1508.42 2011.19,1508.53 2009.27,1511.08ZM1973.21,1512.32C1969.46,1544.95 1964.63,1577.42 1959.65,1609.88C1957.23,1625.63 1954.89,1641.4 1951.65,1657.01C1950.63,1661.91 1949.09,1666.67 1946.34,1670.92C1945.84,1671.7 1944.95,1672.53 1943.97,1672.12C1942.96,1671.7 1943.31,1670.56 1943.42,1669.66C1946.3,1646.76 1949.22,1623.87 1952.05,1600.96C1954.79,1578.76 1957.45,1556.55 1960.1,1534.34C1960.78,1528.67 1961.61,1523.03 1962.06,1517.33C1962.6,1510.66 1969.29,1508.3 1973.03,1503.85C1973.94,1502.77 1974.26,1504.39 1974.15,1505.25C1973.87,1507.61 1973.53,1509.97 1973.21,1512.32ZM1937.31,1682.36C1936.58,1693.94 1933.85,1705.19 1931.65,1716.52C1931.48,1717.4 1931.52,1718.36 1930.56,1718.86C1930.41,1717.95 1930.06,1717.01 1930.16,1716.13C1931.38,1705.12 1932.66,1694.13 1933.93,1683.13C1937.54,1651.19 1941.15,1619.25 1944.77,1587.31C1941.98,1585.97 1940.43,1586.8 1940.16,1589.91C1939.98,1591.94 1940.12,1594.02 1939.13,1595.91C1938.09,1616.38 1934.5,1636.57 1932.47,1656.93C1930.11,1680.6 1927.12,1704.21 1924.4,1727.85C1922.84,1741.39 1920.18,1754.65 1914.21,1767.02C1912.84,1769.85 1911.58,1774.43 1907.74,1773.35C1904.33,1772.39 1905.62,1767.93 1905.86,1765C1909.17,1724.43 1913.41,1683.97 1920.82,1643.9C1923.33,1630.36 1924.95,1616.64 1928.57,1603.31C1923.91,1600.04 1923.92,1604.44 1923.46,1606.76C1921.21,1617.93 1919.12,1629.14 1917.22,1640.37C1914.65,1655.59 1912.3,1670.85 1909.85,1686.09C1909.7,1687.04 1909.5,1688.53 1908.68,1688.45C1906.94,1688.28 1907.98,1686.72 1908.01,1685.82C1908.94,1656.56 1913.47,1627.66 1916.76,1598.63C1918.18,1586.13 1919.47,1573.61 1921.71,1561.21C1920.91,1553.59 1923.4,1547.92 1929.75,1542.97C1938.29,1536.3 1945.85,1528.39 1953.85,1521.04C1954.67,1520.29 1955.4,1518.79 1956.68,1519.42C1957.84,1520 1957.34,1521.55 1957.17,1522.59C1956.17,1528.83 1956.56,1535.27 1954.62,1541.38C1953.26,1557.24 1951.73,1573.08 1949.08,1588.79C1945.84,1620.07 1942.07,1651.28 1937.31,1682.36ZM1879.08,1580.05C1876.89,1581.74 1873.58,1585.33 1872.35,1584.14C1870.37,1582.23 1873.34,1579.07 1874.5,1576.62C1884.96,1554.47 1897.47,1533.47 1910.4,1512.69C1912.68,1509.14 1916.92,1509.27 1920.16,1507.52C1921,1507.06 1922.23,1506.68 1922.76,1507.57C1927.77,1515.8 1934.81,1511.55 1941.3,1510.7C1945.25,1508.56 1949.21,1506.48 1952.58,1503.39C1957.05,1499.26 1963.13,1501.71 1968.28,1499.92C1970.53,1499.14 1969.47,1501.07 1968.8,1501.86C1967.72,1503.12 1966.53,1504.3 1965.3,1505.41C1937.14,1530.97 1909.25,1556.83 1879.08,1580.05ZM1915.31,1432.19C1916.92,1424.54 1920.01,1417.36 1922.29,1409.92C1922.54,1409.08 1923.33,1408.4 1923.88,1407.64C1923.88,1408.57 1924.01,1409.51 1923.87,1410.41C1923.65,1411.8 1923.25,1413.16 1923.02,1414.15C1922.92,1420.41 1921.79,1426.51 1927.29,1430.91C1927.61,1431.17 1928.02,1431.56 1928.05,1431.92C1928.16,1433.13 1920.76,1437.83 1918.72,1437.69C1915.17,1437.45 1914.68,1435.21 1915.31,1432.19ZM2121.99,1253.83C2122.68,1243.87 2116.88,1237.3 2109.45,1232.02C2098.54,1224.27 2086.03,1221.87 2069.14,1221.97C2043.71,1222.42 2019.76,1233.16 2002.22,1257.16C1991.77,1271.46 1983.18,1286.77 1976.29,1303.02C1974.67,1306.87 1972.53,1310.03 1969.6,1312.93C1957.12,1325.26 1947.11,1339.3 1939.79,1355.34C1931.89,1372.67 1924.76,1390.27 1918.57,1408.28C1912,1427.41 1905.88,1446.68 1902.28,1466.64C1901.7,1469.82 1899.95,1473.83 1903.4,1475.84C1906.95,1477.92 1905.46,1479.75 1904.71,1482.22C1902.79,1488.58 1900.39,1494.85 1899.97,1501.58C1899.8,1504.2 1899.36,1507.57 1902.07,1508.67C1907.08,1510.69 1905.16,1512.97 1903.33,1515.94C1892.65,1533.4 1882.36,1551.08 1873.1,1569.34C1870.3,1574.86 1868.12,1580.65 1866.25,1586.55C1865.8,1587.95 1865.59,1589.42 1866.89,1590.49C1868.16,1591.54 1869.57,1591.25 1870.86,1590.45C1874.09,1588.44 1877.51,1586.67 1880.47,1584.31C1891.28,1575.71 1901.92,1566.9 1912.65,1558.19C1913.89,1557.19 1915.16,1555.16 1916.69,1555.87C1918.39,1556.66 1917.22,1558.84 1917.04,1560.33C1914.98,1577.83 1912.69,1595.31 1910.72,1612.82C1908.13,1635.78 1904.58,1658.64 1904.18,1681.8C1904.09,1686.81 1903.78,1691.92 1905.64,1696.66C1907.94,1702.48 1907.24,1708.26 1906.61,1714.2C1904.86,1730.78 1903.26,1747.38 1901.76,1763.99C1901.49,1767.02 1901.18,1770.16 1902.39,1773.17C1904.69,1778.9 1909.06,1779.95 1913.4,1775.64C1917.03,1772.03 1919.08,1767.43 1920.8,1762.73C1922.67,1757.59 1923.41,1751.86 1926.13,1747.26C1930.87,1739.26 1932.84,1730.58 1934.89,1721.78C1937.8,1709.24 1939.85,1696.56 1941.76,1683.84C1942.1,1681.54 1941.81,1678.56 1944.13,1677.4C1952.55,1673.23 1954.45,1665.19 1955.88,1657.3C1963.8,1613.47 1970.22,1569.41 1976.06,1525.26C1976.45,1522.28 1975.81,1518.9 1978.89,1516.83C1984.81,1512.84 1990.81,1508.97 1996.66,1504.88C1999.31,1503.04 2000.6,1505.31 2002.16,1506.4C2004.49,1508.04 2002.17,1509.25 2001.35,1510.38C1999.23,1513.31 1997.6,1516.44 1996.63,1519.92C1995.96,1522.32 1995.41,1524.96 1998.03,1526.27C2001.25,1527.87 2001.85,1524.65 2003.09,1522.79C2008.69,1514.39 2016.14,1508.33 2026.56,1509.03C2037.23,1509.75 2047.62,1512.28 2050.33,1525.29C2050.54,1526.34 2051.15,1526.93 2052.25,1527.01C2053.68,1527.11 2054.49,1526.38 2054.69,1525.04C2055.17,1521.73 2055.15,1518.4 2054.73,1515.07C2054.62,1514.17 2054.8,1513.24 2054.84,1512.32C2056.07,1512.42 2056.03,1513.56 2056.51,1514.29C2057.23,1515.36 2057.48,1517.36 2059.44,1516.53C2061,1515.87 2060.72,1514.14 2060.79,1512.79C2061.27,1503.4 2053.72,1494.82 2042.83,1492.8C2039.12,1492.11 2035.24,1492.3 2031.44,1492.02C2030.63,1491.96 2029.43,1492.84 2029.07,1491.56C2028.77,1490.51 2029.89,1490.01 2030.6,1489.43C2031.34,1488.83 2032.08,1488.22 2032.79,1487.59C2066.81,1457.26 2089.76,1420.74 2095.58,1374.75C2097.71,1357.87 2098.69,1341.01 2091.7,1324.8C2090.19,1321.31 2088.81,1317.76 2087.53,1314.18C2087.14,1313.09 2086.23,1310.83 2088.83,1311.53C2096.08,1313.49 2102.41,1310.99 2108.7,1308.03C2111.1,1306.9 2112.16,1307.43 2112.07,1310.2C2111.93,1314.01 2111.83,1317.78 2111.06,1321.56C2110.48,1324.36 2111.96,1325.76 2114.82,1324.16C2116.47,1323.23 2118.04,1322.12 2119.5,1320.91C2136.47,1306.76 2139.05,1278.43 2125.11,1259.91C2123.73,1258.08 2121.78,1256.76 2121.99,1253.83Z" style="fill:rgb(16,18,15);fill-rule:nonzero;"/>
                <path d="M2077.54,1317.75C2056.66,1318.43 2037.93,1298.9 2038.47,1278.01C2038.55,1275.16 2038.52,1272.29 2038.26,1269.45C2037.88,1265.23 2036.31,1262.13 2031.16,1262.64C2029.68,1262.79 2027.34,1263.14 2027.41,1260.65C2027.47,1258.47 2029.77,1258.18 2031.23,1258.41C2036.83,1259.28 2039.68,1256.15 2042.77,1252.11C2047.14,1246.38 2052.86,1242.12 2060.08,1240.11C2079.64,1234.66 2094.48,1245.78 2093.16,1265.02C2095.18,1266.42 2094.46,1268.64 2094.79,1270.55C2096.41,1268.24 2097.95,1265.87 2099.66,1263.63C2103.2,1259 2107.43,1254.71 2113.31,1254.04C2118.72,1253.41 2118.32,1251 2116.8,1247.51C2112.84,1238.36 2105.41,1232.5 2096.34,1229.96C2067.19,1221.77 2040.1,1226.05 2017.35,1246.98C1998.79,1264.05 1987.69,1286.15 1978.74,1309.38C1982.82,1313.34 1988.79,1313.86 1993.16,1317.3C1994.23,1318.14 1995.71,1318.49 1996.14,1320.02C1999.48,1319.26 2001.02,1313.35 2005.79,1316.63C2007.22,1316.58 2008.46,1316.17 2009.1,1314.73C2009.68,1312.34 2011.49,1311.5 2013.63,1310.7C2029.9,1304.56 2048.98,1311.49 2057.46,1326.7C2062.35,1335.46 2064.04,1345.02 2064.41,1354.86C2065.29,1378.18 2058.74,1399.66 2047.06,1419.51C2031.07,1446.67 2009.62,1469.4 1986.46,1490.44C1980.64,1495.72 1979.22,1501.66 1978.28,1508.5C1977.95,1510.9 1978.34,1511.97 1980.73,1510.29C1985.78,1506.74 1991.48,1503.97 1995.7,1499.42C1998.1,1496.83 1999.06,1496.89 2000.78,1499.81C2002.28,1502.37 2004.7,1504 2007.91,1503.54C2014.88,1502.54 2020.68,1496.68 2021.89,1489.52C2022.25,1487.41 2022.57,1485.29 2023,1483.19C2023.34,1481.51 2022.15,1478.66 2024.88,1478.6C2027.41,1478.55 2027.01,1481.18 2027.1,1483.05C2027.15,1484.11 2025.94,1485.57 2027.41,1486.12C2028.6,1486.57 2029.4,1485.11 2030.26,1484.33C2060.02,1457.18 2082.13,1425.4 2089.61,1385C2093.37,1364.71 2095.21,1344.4 2087.08,1324.49C2085.2,1319.87 2083.42,1317.55 2077.54,1317.75Z" style="fill:rgb(240,179,55);fill-rule:nonzero;"/>
                <path d="M2005.79,1316.63C2001.75,1322.41 1995.41,1326.17 1991.89,1332.42C1991.37,1333.35 1990.3,1333.76 1989.5,1333.22C1988.14,1332.32 1988,1330.68 1988.85,1329.48C1991.16,1326.24 1993.69,1323.16 1996.14,1320.02C1995.71,1318.49 1994.23,1318.14 1993.16,1317.3C1988.79,1313.86 1982.82,1313.34 1978.74,1309.38C1975.82,1312.45 1972.94,1315.58 1969.96,1318.6C1957.83,1330.88 1948.6,1345.06 1942.08,1361.02C1946.85,1364.4 1949.29,1368.81 1948.81,1374.84C1948.44,1379.43 1950.95,1383.43 1952.21,1387.67C1953.27,1391.26 1954.72,1394.74 1954.74,1398.57C1958.56,1398.19 1959.27,1400.3 1958.59,1403.45C1957.78,1407.16 1956.74,1410.84 1956.14,1414.58C1955.82,1416.58 1955.03,1419.29 1957.2,1420.48C1959.5,1421.74 1961.04,1419.33 1962.5,1417.93C1966.66,1413.96 1969.6,1409 1972.93,1404.36C1973.79,1403.16 1974.68,1401.87 1976.32,1402.39C1978.22,1402.99 1977.79,1404.7 1977.25,1405.94C1976.18,1408.4 1975.81,1410.63 1978.64,1411.97C1981.3,1413.23 1983.17,1411.34 1984.93,1409.76C1988.71,1406.38 1991.33,1402.12 1993.8,1397.75C1994.66,1396.24 1995.18,1393.93 1997.86,1396.3C2003.29,1401.08 2003.41,1400.97 2007.32,1395.03C2008.23,1393.64 2009.07,1392.19 2009.83,1390.71C2010.48,1389.43 2010.95,1387.8 2012.66,1387.98C2014.4,1388.15 2014.43,1389.9 2014.87,1391.25C2015.36,1392.76 2015.4,1394.83 2017.44,1395.14C2019.86,1395.5 2020.55,1393.34 2021.43,1391.72C2022.11,1390.47 2022.52,1389.09 2023.03,1387.75C2023.61,1386.22 2023.91,1384.25 2025.87,1384.08C2027.7,1383.92 2027.85,1385.9 2028.37,1387.08C2029.85,1390.45 2031.04,1389.83 2032.33,1387.02C2033.82,1383.74 2034.44,1380.22 2035.24,1376.74C2035.93,1373.8 2037.25,1372.33 2039.97,1375.13C2042.03,1377.24 2044.27,1378.32 2046.73,1375.79C2055.79,1366.47 2064.51,1357.03 2058.78,1342.35C2057.83,1339.92 2057.34,1337.31 2056.41,1334.87C2049.45,1316.77 2034.44,1309.22 2015.8,1314.36C2013.62,1314.96 2011.44,1316.63 2009.1,1314.73C2008.46,1316.17 2007.22,1316.58 2005.79,1316.63Z" style="fill:rgb(238,137,69);fill-rule:nonzero;"/>
                <path d="M2006.06,1438.29C2009.57,1434.96 2011.78,1430.77 2014.01,1426.56C2014.73,1425.2 2015.31,1422.98 2017.39,1423.63C2019.47,1424.27 2018.54,1426.44 2018.64,1428.01C2018.68,1428.72 2018.5,1429.43 2018.48,1430.15C2018.44,1431.56 2018.03,1433.39 2019.29,1434.16C2020.93,1435.17 2022.42,1433.83 2023.72,1432.75C2026.89,1430.12 2028.64,1426.36 2031.16,1423.21C2031.9,1422.29 2032.93,1421.27 2034.12,1422.11C2035.17,1422.84 2035.22,1424.28 2034.6,1425.37C2031.54,1430.83 2027.82,1435.72 2022.14,1438.76C2020.53,1439.63 2018.44,1439.94 2017.51,1438.54C2013.88,1433.07 2012.45,1436.66 2010.49,1439.84C2008.74,1442.69 2006.39,1445.12 2003.61,1447.01C2001.03,1448.77 1997.8,1449.58 1995.91,1446.82C1993.01,1442.6 1991.83,1445.2 1989.81,1447.4C1986.09,1451.47 1981.17,1457.28 1976.3,1455.15C1968.8,1451.86 1965.87,1456.89 1961.33,1459.69C1959.92,1460.56 1958.39,1461.32 1956.82,1461.82C1952.78,1463.09 1949,1462.69 1947.29,1458.27C1946.02,1454.99 1944.57,1455.65 1941.94,1456.54C1933.79,1459.3 1929.05,1455.95 1928.41,1447.39C1928.22,1444.79 1929.34,1441.06 1928,1439.8C1925.82,1437.72 1923.17,1441.43 1920.41,1441.51C1919.95,1441.52 1919.37,1441.98 1919.05,1441.82C1910.82,1437.7 1911.45,1444.5 1910.3,1448.95C1909.22,1453.09 1907.99,1457.24 1907.47,1461.46C1907.03,1465.01 1903.58,1469.8 1907.19,1471.87C1910.37,1473.7 1913.85,1469.39 1916.8,1467.05C1918.04,1466.07 1919.4,1464.1 1920.95,1465.73C1922.73,1467.6 1920.93,1469.19 1919.42,1470.38C1916.64,1472.58 1912.67,1473.7 1911.23,1477.07C1907.95,1484.71 1905.45,1492.66 1904.27,1500.96C1903.59,1505.74 1906.32,1507.02 1910.25,1506.29C1915,1505.41 1919.24,1503.31 1922.69,1499.75C1926.87,1495.45 1930.34,1490.65 1933.52,1485.59C1934.31,1484.32 1935,1482.04 1937.17,1483.6C1939.13,1485.01 1937.64,1486.68 1936.77,1487.95C1934.49,1491.3 1932.09,1494.56 1929.62,1497.77C1927.48,1500.54 1925.44,1503.62 1927.9,1506.78C1930.14,1509.67 1933.57,1508.17 1936.54,1507.38C1943.93,1505.43 1949.71,1500.87 1955.12,1495.78C1962.79,1488.58 1969.48,1480.52 1975.42,1471.85C1976.53,1470.23 1977.85,1468.29 1979.93,1469.72C1982.52,1471.48 1980.02,1473.05 1979,1474.34C1974.28,1480.32 1969.38,1486.15 1964.66,1492.13C1963.6,1493.49 1960.76,1494.62 1961.89,1496.28C1962.82,1497.64 1965.42,1496.14 1967.23,1495.66C1975.25,1493.54 1982,1489.23 1988.01,1483.61C2006.68,1466.14 2023.76,1447.26 2038.11,1426.06C2048.77,1410.31 2056.18,1393.14 2059.03,1374.19C2059.31,1372.36 2059.22,1370.47 2059.3,1368.61C2056.87,1368.62 2056.61,1371.01 2055.35,1372.27C2053.67,1373.95 2052.32,1375.97 2050.6,1377.61C2047.9,1380.18 2045.36,1383.51 2040.83,1380.89C2038.58,1379.59 2038.57,1381.85 2038.11,1382.89C2036.96,1385.49 2036.16,1388.25 2034.99,1390.84C2034.09,1392.85 2031.84,1395.48 2030.32,1394.41C2025.34,1390.9 2024.51,1395.39 2022.41,1397.69C2020.76,1399.52 2018.73,1400.66 2016.24,1400.9C2015.26,1411.32 2012.14,1421.21 2008.68,1431C2007.82,1433.43 2006.26,1435.62 2006.06,1438.29Z" style="fill:rgb(68,157,194);fill-rule:nonzero;"/>
                <path d="M1948.81,1374.84C1949.29,1368.81 1946.85,1364.4 1942.08,1361.02C1936.89,1371.19 1932.96,1381.9 1928.65,1392.44C1927.84,1394.42 1926.41,1396.7 1927.29,1398.57C1929.63,1403.55 1928,1408.34 1927.53,1413.25C1927.24,1416.32 1927.06,1419.45 1927.36,1422.51C1927.85,1427.51 1930.85,1428.98 1935.33,1426.56C1936.98,1425.67 1938.38,1424.31 1939.91,1423.19C1940.92,1422.44 1942.19,1421.87 1943.15,1422.79C1944.6,1424.16 1943.24,1425.46 1942.34,1426.34C1940.83,1427.82 1939.14,1429.21 1937.32,1430.26C1935.36,1431.39 1933.75,1432.59 1933.45,1434.98C1932.89,1439.46 1932.12,1443.96 1932.74,1448.48C1933.39,1453.09 1935.97,1454.41 1940.31,1452.6C1942.54,1451.66 1944.42,1450.21 1946.05,1448.46C1948.64,1445.68 1951.15,1442.83 1953.72,1440.03C1954.67,1438.99 1955.81,1437.52 1957.27,1438.5C1959.34,1439.89 1957.68,1441.53 1956.8,1442.73C1955.27,1444.83 1953.39,1446.68 1951.73,1448.7C1949.72,1451.16 1949.23,1453.99 1951.13,1456.57C1953.25,1459.44 1955.94,1457.65 1958.2,1456.56C1961.44,1455 1963.99,1452.44 1966.51,1449.91C1968.19,1448.23 1969.85,1446.53 1971.56,1444.87C1972.25,1444.19 1973.09,1443.63 1974.09,1444.12C1975.02,1444.58 1975.32,1445.34 1975.08,1446.45C1974.76,1447.89 1972.49,1449.4 1974.58,1450.77C1976.57,1452.07 1978.73,1451.13 1980.57,1449.87C1984.73,1447.02 1988.03,1443.27 1991.26,1439.46C1992.3,1438.23 1993.05,1436.42 1995.03,1436.56C1997.49,1436.75 1996.86,1438.86 1997.13,1440.38C1997.9,1444.8 2000.14,1444.77 2002.96,1442.17C2004.17,1441.06 2005.04,1439.6 2006.06,1438.29C2006.26,1435.62 2007.82,1433.43 2008.68,1431C2012.14,1421.21 2015.26,1411.32 2016.24,1400.9C2013.2,1397 2010.53,1396.11 2007.76,1401.36C2006.4,1403.93 2003.39,1406.4 2000.74,1404.68C1995.75,1401.45 1994.41,1404.91 1992.33,1407.96C1990.45,1410.71 1988.22,1413.17 1985.34,1414.95C1982.84,1416.5 1979.58,1418.23 1977.43,1416.08C1972.77,1411.41 1970.86,1414.58 1967.99,1417.98C1964.75,1421.82 1961.31,1427.67 1955.42,1424.89C1950.14,1422.41 1951.71,1416.35 1952.32,1411.42C1952.43,1410.5 1952.81,1408.93 1952.49,1408.77C1951.26,1408.12 1950.55,1409.43 1949.69,1410.1C1946.66,1412.46 1943.64,1414.89 1939.43,1413.04C1938.02,1412.43 1937.1,1411.33 1937.49,1409.68C1937.88,1408 1939.18,1408.14 1940.23,1408.78C1943.68,1410.88 1945.51,1408.31 1947.47,1406.35C1949.98,1403.84 1952.32,1401.17 1954.74,1398.57C1954.72,1394.74 1953.27,1391.26 1952.21,1387.67C1950.95,1383.43 1948.44,1379.43 1948.81,1374.84Z" style="fill:rgb(241,181,55);fill-rule:nonzero;"/>
                <path d="M1920.82,1643.9C1913.41,1683.97 1909.17,1724.43 1905.86,1765C1905.62,1767.93 1904.33,1772.39 1907.74,1773.35C1911.58,1774.43 1912.84,1769.85 1914.21,1767.02C1920.18,1754.65 1922.84,1741.39 1924.4,1727.85C1927.12,1704.21 1930.11,1680.6 1932.47,1656.93C1934.5,1636.57 1938.09,1616.38 1939.13,1595.91C1935.78,1598.63 1932.9,1602.01 1928.57,1603.31C1924.95,1616.64 1923.33,1630.36 1920.82,1643.9Z" style="fill:rgb(244,183,55);fill-rule:nonzero;"/>
                <path d="M1968.8,1501.86C1969.47,1501.07 1970.53,1499.14 1968.28,1499.92C1963.13,1501.71 1957.05,1499.26 1952.58,1503.39C1949.21,1506.48 1945.25,1508.56 1941.3,1510.7C1941.98,1512.18 1943.1,1513.59 1940.97,1514.95C1932.73,1520.21 1918.46,1519.19 1910.4,1512.69C1897.47,1533.47 1884.96,1554.47 1874.5,1576.62C1873.34,1579.07 1870.37,1582.23 1872.35,1584.14C1873.58,1585.33 1876.89,1581.74 1879.08,1580.05C1909.25,1556.83 1937.14,1530.97 1965.3,1505.41C1966.53,1504.3 1967.72,1503.12 1968.8,1501.86Z" style="fill:rgb(69,158,195);fill-rule:nonzero;"/>
                <path d="M1954.62,1541.38C1952.68,1535.91 1950.41,1540.44 1949.25,1541.6C1943.61,1547.25 1937.12,1551.82 1930.88,1556.7C1928.22,1558.79 1925.66,1561.56 1921.71,1561.21C1919.47,1573.61 1918.18,1586.13 1916.76,1598.63C1913.47,1627.66 1908.94,1656.56 1908.01,1685.82C1907.98,1686.72 1906.94,1688.28 1908.68,1688.45C1909.5,1688.53 1909.7,1687.04 1909.85,1686.09C1912.3,1670.85 1914.65,1655.59 1917.22,1640.37C1919.12,1629.14 1921.21,1617.93 1923.46,1606.76C1923.92,1604.44 1923.91,1600.04 1928.57,1603.31C1932.9,1602.01 1935.78,1598.63 1939.13,1595.91C1940.12,1594.02 1939.98,1591.94 1940.16,1589.91C1940.43,1586.8 1941.98,1585.97 1944.77,1587.31C1946.42,1587.17 1947.74,1588.02 1949.08,1588.79C1951.73,1573.08 1953.26,1557.24 1954.62,1541.38Z" style="fill:rgb(69,157,195);fill-rule:nonzero;"/>
                <path d="M2067.49,1267.91C2065.79,1268.03 2064.12,1268.01 2062.8,1266.68C2056.97,1265.58 2051.07,1264.72 2045.32,1263.28C2041.55,1262.34 2041.22,1263.71 2042.06,1266.68C2043.04,1270.19 2043.04,1273.75 2042.58,1277.32C2040,1297.59 2062.03,1314.27 2077.84,1313.56C2081.74,1313.39 2082.58,1311.96 2081.23,1308.93C2079.87,1305.88 2080.78,1303.3 2082.14,1300.79C2087.4,1291.14 2090.84,1280.74 2094.79,1270.55C2094.46,1268.64 2095.18,1266.42 2093.16,1265.02C2085.15,1270.87 2076.47,1270.75 2067.49,1267.91Z" style="fill:rgb(253,253,253);fill-rule:nonzero;"/>
                <path d="M1973.03,1503.85C1969.29,1508.3 1962.6,1510.66 1962.06,1517.33C1961.61,1523.03 1960.78,1528.67 1960.1,1534.34C1957.45,1556.55 1954.79,1578.76 1952.05,1600.96C1949.22,1623.87 1946.3,1646.76 1943.42,1669.66C1943.31,1670.56 1942.96,1671.7 1943.97,1672.12C1944.95,1672.53 1945.84,1671.7 1946.34,1670.92C1949.09,1666.67 1950.63,1661.91 1951.65,1657.01C1954.89,1641.4 1957.23,1625.63 1959.65,1609.88C1964.63,1577.42 1969.46,1544.95 1973.21,1512.32C1973.53,1509.97 1973.87,1507.61 1974.15,1505.25C1974.26,1504.39 1973.94,1502.77 1973.03,1503.85Z" style="fill:rgb(71,154,197);fill-rule:nonzero;"/>
                <path d="M2114.07,1258.15C2106.3,1260.72 2102.07,1266.85 2098.39,1273.71C2095.27,1279.52 2100.82,1281.56 2102.78,1285.17C2103.33,1286.19 2104.25,1287.01 2104.99,1287.93C2109.57,1287.3 2113.96,1286.13 2118.79,1287.72C2122.31,1288.88 2126.21,1287.63 2129.19,1284.87C2129.13,1276.01 2126.2,1268.18 2120.64,1261.34C2118.98,1259.29 2117.08,1257.15 2114.07,1258.15Z" style="fill:rgb(242,189,110);fill-rule:nonzero;"/>
                <path d="M1949.25,1541.6C1950.41,1540.44 1952.68,1535.91 1954.62,1541.38C1956.56,1535.27 1956.17,1528.83 1957.17,1522.59C1957.34,1521.55 1957.84,1520 1956.68,1519.42C1955.4,1518.79 1954.67,1520.29 1953.85,1521.04C1945.85,1528.39 1938.29,1536.3 1929.75,1542.97C1923.4,1547.92 1920.91,1553.59 1921.71,1561.21C1925.66,1561.56 1928.22,1558.79 1930.88,1556.7C1937.12,1551.82 1943.61,1547.25 1949.25,1541.6Z" style="fill:rgb(59,130,162);fill-rule:nonzero;"/>
                <path d="M2064.1,1253.43C2065.84,1250.19 2067.4,1246.95 2071.55,1246.61C2074.25,1246.39 2076.14,1248.14 2077.04,1250.42C2078.49,1254.09 2078.79,1257.93 2075.75,1261.07C2074.3,1262.56 2072.44,1263.65 2070.76,1264.92C2075.03,1265.33 2079.31,1265.97 2083.55,1264.96C2088.79,1263.7 2090.36,1261.13 2088.66,1256.12C2086.45,1249.59 2081.96,1245.23 2075.13,1243.72C2064.46,1241.36 2051.09,1246.87 2044.84,1255.73C2043.18,1258.09 2044.45,1258.61 2046.22,1259.04C2052.82,1260.62 2059.44,1262.11 2066.05,1263.64C2066.18,1260.1 2061.9,1257.52 2064.1,1253.43Z" style="fill:rgb(251,251,251);fill-rule:nonzero;"/>
                <path d="M1944.77,1587.31C1941.15,1619.25 1937.54,1651.19 1933.93,1683.13C1936.01,1687.11 1936.11,1682.3 1937.31,1682.36C1942.07,1651.28 1945.84,1620.07 1949.08,1588.79C1947.74,1588.02 1946.42,1587.17 1944.77,1587.31Z" style="fill:rgb(233,184,72);fill-rule:nonzero;"/>
                <path d="M2118.79,1287.72C2113.96,1286.13 2109.57,1287.3 2104.99,1287.93C2105.16,1288.37 2105.28,1288.83 2105.49,1289.24C2109.87,1297.63 2118.42,1304.12 2116.45,1315.4C2115.98,1318.14 2118.35,1316.08 2119,1315.38C2126.99,1306.76 2131.01,1296.78 2129.19,1284.87C2126.21,1287.63 2122.31,1288.88 2118.79,1287.72Z" style="fill:rgb(243,176,70);fill-rule:nonzero;"/>
                <path d="M2097.88,1286.02C2096.11,1283.44 2094.61,1282.9 2093.23,1286.52C2091.63,1290.71 2089.76,1294.8 2087.79,1298.84C2084.23,1306.15 2085.25,1307.93 2093.31,1308.01C2097.98,1308.23 2102.11,1306.59 2106.14,1304.45C2108.13,1303.38 2109.03,1302.34 2107.45,1300.11C2104.17,1295.48 2101.1,1290.7 2097.88,1286.02Z" style="fill:rgb(233,172,67);fill-rule:nonzero;"/>
                <path d="M1940.97,1514.95C1943.1,1513.59 1941.98,1512.18 1941.3,1510.7C1934.81,1511.55 1927.77,1515.8 1922.76,1507.57C1922.23,1506.68 1921,1507.06 1920.16,1507.52C1916.92,1509.27 1912.68,1509.14 1910.4,1512.69C1918.46,1519.19 1932.73,1520.21 1940.97,1514.95Z" style="fill:rgb(61,126,156);fill-rule:nonzero;"/>
                <path d="M2070.73,1256.32C2069.38,1256.17 2068.79,1255.13 2068.98,1253.79C2069.16,1252.53 2069.99,1251.81 2071.18,1251.48C2072.31,1252.05 2073.1,1252.93 2072.98,1254.22C2072.87,1255.48 2072.08,1256.46 2070.73,1256.32ZM2067.49,1267.91C2067.47,1265.7 2068.99,1265.17 2070.76,1264.92C2072.44,1263.65 2074.3,1262.56 2075.75,1261.07C2078.79,1257.93 2078.49,1254.09 2077.04,1250.42C2076.14,1248.14 2074.25,1246.39 2071.55,1246.61C2067.4,1246.95 2065.84,1250.19 2064.1,1253.43C2061.9,1257.52 2066.18,1260.1 2066.05,1263.64C2066.09,1265.85 2064.59,1266.42 2062.8,1266.68C2064.12,1268.01 2065.79,1268.03 2067.49,1267.91Z" style="fill:rgb(32,33,33);fill-rule:nonzero;"/>
                <path d="M1918.72,1437.69C1920.76,1437.83 1928.16,1433.13 1928.05,1431.92C1928.02,1431.56 1927.61,1431.17 1927.29,1430.91C1921.79,1426.51 1922.92,1420.41 1923.02,1414.15C1923.25,1413.16 1923.65,1411.8 1923.87,1410.41C1924.01,1409.51 1923.88,1408.57 1923.88,1407.64C1923.33,1408.4 1922.54,1409.08 1922.29,1409.92C1920.01,1417.36 1916.92,1424.54 1915.31,1432.19C1914.68,1435.21 1915.17,1437.45 1918.72,1437.69Z" style="fill:rgb(59,141,183);fill-rule:nonzero;"/>
                <path d="M2043.85,1505.15C2037.58,1502.46 2030.83,1502.63 2023.31,1501.17C2023.03,1501.13 2021.16,1500.29 2021.06,1502.42C2020.97,1504.27 2022.98,1504.15 2024.32,1504.3C2032.91,1505.22 2041.3,1506.66 2048.07,1512.71C2048.53,1513.12 2049.21,1513.27 2049.78,1513.54C2049.84,1512.88 2050.1,1512.16 2049.94,1511.55C2049.05,1508.36 2046.95,1506.48 2043.85,1505.15Z" style="fill:rgb(219,164,68);fill-rule:nonzero;"/>
                <path d="M1933.93,1683.13C1932.66,1694.13 1931.38,1705.12 1930.16,1716.13C1930.06,1717.01 1930.41,1717.95 1930.56,1718.86C1931.52,1718.36 1931.48,1717.4 1931.65,1716.52C1933.85,1705.19 1936.58,1693.94 1937.31,1682.36C1936.11,1682.3 1936.01,1687.11 1933.93,1683.13Z" style="fill:rgb(111,156,157);fill-rule:nonzero;"/>
                <path d="M2028.59,1497.22C2028.51,1499 2030.17,1498.27 2031.06,1498.37C2038.69,1499.17 2045.96,1501 2052.49,1505.22C2053.17,1505.66 2054.03,1506.88 2054.81,1505.67C2055.05,1505.3 2054.2,1504.01 2053.62,1503.36C2048.7,1497.84 2042.15,1496.2 2035.18,1495.58C2033.72,1495.71 2032.28,1495.72 2030.91,1496.01C2030.05,1496.19 2028.62,1496.77 2028.59,1497.22Z" style="fill:rgb(205,151,65);fill-rule:nonzero;"/>
                <path d="M2008.5,1509.25C2008.15,1509.55 2007.96,1510.02 2007.7,1510.41C2008.09,1510.58 2008.48,1510.74 2009.27,1511.08C2011.19,1508.53 2014.92,1508.42 2017.05,1505.78C2017.12,1505.69 2016.58,1504.81 2016.41,1504.84C2013.26,1505.37 2010.83,1507.23 2008.5,1509.25Z" style="fill:rgb(184,122,48);fill-rule:nonzero;"/>
                <path d="M1988.85,1329.48C1988,1330.68 1988.14,1332.32 1989.5,1333.22C1990.3,1333.76 1991.37,1333.35 1991.89,1332.42C1995.41,1326.17 2001.75,1322.41 2005.79,1316.63C2001.02,1313.35 1999.48,1319.26 1996.14,1320.02C1993.69,1323.16 1991.16,1326.24 1988.85,1329.48Z" style="fill:rgb(23,21,18);fill-rule:nonzero;"/>
                <path d="M2072.98,1254.22C2073.1,1252.93 2072.31,1252.05 2071.18,1251.48C2069.99,1251.81 2069.16,1252.53 2068.98,1253.79C2068.79,1255.13 2069.38,1256.17 2070.73,1256.32C2072.08,1256.46 2072.87,1255.48 2072.98,1254.22Z" style="fill:rgb(199,197,198);fill-rule:nonzero;"/>
            </g>
        </g>
    </g>
</svg>
