<?xml version="1.0" encoding="UTF-8" standalone="no"?>
<!DOCTYPE svg PUBLIC "-//W3C//DTD SVG 1.1//EN" "http://www.w3.org/Graphics/SVG/1.1/DTD/svg11.dtd">
<svg width="100%" height="100%" viewBox="0 0 534 534" version="1.1" xmlns="http://www.w3.org/2000/svg" xmlns:xlink="http://www.w3.org/1999/xlink" xml:space="preserve" xmlns:serif="http://www.serif.com/" style="fill-rule:evenodd;clip-rule:evenodd;stroke-linejoin:round;stroke-miterlimit:2;">
    <g transform="matrix(1,0,0,1,-629.842,-1.82965e-13)">
        <g id="bird02" transform="matrix(1,0,0,1,629.842,1.82965e-13)">
            <rect x="0" y="0" width="533.333" height="533.333" style="fill:none;"/>
            <clipPath id="_clip1">
                <rect x="0" y="0" width="533.333" height="533.333"/>
            </clipPath>
            <g clip-path="url(#_clip1)">
                <g transform="matrix(3.19326,0,0,3.19326,-54.1695,-923.401)">
                    <g transform="matrix(1,0,0,1,100.199,326.449)">
                        <path d="M0,85.589C-0.086,85.615 -0.206,85.618 -0.262,85.68C-0.328,85.751 -0.387,85.888 -0.363,85.972C-0.205,86.544 0.123,86.995 0.669,87.256C0.766,87.303 0.911,87.327 1.005,87.29C1.266,87.185 1.357,86.961 1.211,86.723C0.916,86.239 0.628,85.731 0,85.589M6.077,72.948C5.571,72.455 4.905,72.329 4.25,72.247C3.958,72.211 3.603,72.343 3.341,72.504C3.122,72.639 3.602,73.215 4.126,73.296C4.669,73.379 5.228,73.367 5.781,73.374C5.872,73.375 5.982,73.271 6.05,73.189C6.091,73.137 6.07,73.034 6.077,72.948M-23.747,47.855C-23.808,47.949 -23.909,48.039 -23.922,48.141C-24.028,48.97 -23.865,49.717 -23.137,50.22C-23.009,50.308 -22.755,50.242 -22.571,50.199C-22.509,50.185 -22.437,50.018 -22.443,49.926C-22.502,49.109 -22.826,48.416 -23.473,47.897C-23.536,47.847 -23.654,47.866 -23.747,47.855M-21.265,15.397C-21.299,15.292 -21.302,15.13 -21.373,15.092C-21.849,14.834 -22.331,14.582 -22.829,14.371C-23.156,14.233 -23.477,14.305 -23.695,14.619C-23.91,14.93 -23.602,15.414 -23.109,15.58C-22.573,15.76 -22.039,15.818 -21.504,15.594C-21.413,15.556 -21.344,15.464 -21.265,15.397M-25.607,50.313C-25.822,49.508 -25.941,48.949 -26.133,48.417C-26.187,48.27 -26.447,48.149 -26.632,48.111C-26.92,48.052 -27.216,48.509 -27.097,48.847C-26.834,49.591 -26.565,50.335 -26.24,51.054C-26.177,51.193 -25.85,51.212 -25.644,51.286C-25.586,51.093 -25.474,50.897 -25.485,50.707C-25.498,50.489 -25.619,50.276 -25.607,50.313M-19.385,62.213C-19.443,62.309 -19.576,62.434 -19.551,62.496C-18.934,64.053 -17.73,64.985 -16.22,65.578C-16.13,65.613 -15.995,65.577 -15.896,65.536C-15.594,65.41 -15.566,65.242 -15.787,65.044C-16.789,64.145 -17.78,63.233 -18.796,62.35C-18.931,62.233 -19.186,62.255 -19.385,62.213M-28.785,48.47C-28.765,48.468 -28.746,48.466 -28.726,48.464C-28.83,47.789 -28.914,47.11 -29.055,46.444C-29.083,46.311 -29.318,46.203 -29.479,46.126C-29.521,46.105 -29.693,46.223 -29.714,46.302C-30.105,47.777 -30.073,49.223 -29.306,50.582C-29.231,50.715 -28.944,50.742 -28.748,50.779C-28.714,50.785 -28.59,50.59 -28.597,50.494C-28.646,49.818 -28.719,49.145 -28.785,48.47M-32.378,15.347C-32.415,15.444 -32.478,15.542 -32.482,15.642C-32.486,15.749 -32.469,15.891 -32.403,15.963C-31.375,17.074 -30.165,17.902 -28.682,18.285C-28.591,18.309 -28.395,18.259 -28.389,18.222C-28.359,18.028 -28.29,17.735 -28.388,17.646C-29.496,16.649 -30.74,15.852 -32.109,15.257C-32.173,15.23 -32.287,15.315 -32.378,15.347M-24.556,16.426C-25.471,15.664 -26.339,14.759 -27.553,14.326C-27.707,14.272 -28.016,14.42 -28.136,14.568C-28.24,14.697 -28.263,15.012 -28.175,15.156C-27.463,16.338 -26.283,16.744 -25.013,16.968C-24.924,16.984 -24.795,16.917 -24.724,16.848C-24.659,16.784 -24.647,16.667 -24.556,16.426M13.248,84.8C13.166,84.879 13.047,84.945 13.013,85.041C12.983,85.124 13.018,85.271 13.079,85.34C14.2,86.615 15.641,87.147 17.308,87.093C17.47,87.088 17.641,86.856 17.772,86.699C17.801,86.665 17.709,86.47 17.627,86.409C16.421,85.506 15.032,85.039 13.575,84.743C13.474,84.723 13.357,84.779 13.248,84.8M-3.044,73.03C-3.122,73.113 -3.275,73.209 -3.264,73.276C-3.226,73.49 -3.184,73.752 -3.042,73.893C-1.962,74.953 -0.607,75.505 0.831,75.862C0.991,75.902 1.217,75.691 1.401,75.577C1.411,75.571 1.338,75.37 1.265,75.301C0.19,74.276 -1.026,73.461 -2.419,72.937C-2.591,72.872 -2.834,72.994 -3.044,73.03M-22.744,61.092C-22.804,61.297 -22.954,61.524 -22.91,61.703C-22.542,63.199 -21.765,64.471 -20.652,65.527C-20.412,65.755 -20.081,65.893 -19.777,66.043C-19.689,66.087 -19.501,66.072 -19.446,66.009C-19.328,65.873 -19.15,65.61 -19.201,65.535C-20.035,64.292 -20.897,63.068 -21.763,61.845C-21.955,61.574 -22.172,61.319 -22.406,61.084C-22.46,61.029 -22.627,61.086 -22.744,61.092M9.657,85.292C9.579,85.36 9.439,85.424 9.435,85.497C9.42,85.702 9.379,86.004 9.493,86.105C10.792,87.253 12.228,88.193 13.872,88.776C14.189,88.888 14.544,88.902 14.884,88.932C14.974,88.94 15.147,88.843 15.153,88.782C15.169,88.589 15.195,88.269 15.094,88.211C13.406,87.237 11.7,86.295 9.994,85.354C9.899,85.301 9.77,85.311 9.657,85.292M-22.663,66.754C-22.577,66.657 -22.419,66.513 -22.435,66.491C-23.86,64.481 -24.725,62.202 -25.598,59.927C-25.677,59.719 -25.802,59.52 -25.946,59.351C-25.999,59.288 -26.177,59.291 -26.279,59.323C-26.368,59.352 -26.497,59.471 -26.491,59.54C-26.263,62.145 -25.435,64.493 -23.525,66.366C-23.365,66.523 -23.152,66.631 -22.95,66.735C-22.866,66.778 -22.745,66.75 -22.663,66.754M-32.89,46.637C-32.609,48.423 -32.517,49.825 -31.822,51.07C-31.73,51.235 -31.453,51.305 -31.25,51.391C-31.227,51.401 -31.061,51.219 -31.073,51.145C-31.577,48.07 -31.989,44.992 -31.652,41.865C-31.643,41.78 -31.761,41.651 -31.853,41.596C-31.901,41.567 -32.062,41.63 -32.1,41.693C-32.329,42.082 -32.689,42.471 -32.726,42.884C-32.849,44.266 -32.854,45.657 -32.89,46.637M-8.821,72.639C-8.921,72.685 -9.025,72.724 -9.121,72.778C-9.375,72.923 -9.453,73.146 -9.277,73.373C-8.858,73.914 -8.49,74.533 -7.963,74.943C-6.686,75.94 -5.336,76.845 -3.998,77.762C-3.721,77.952 -3.375,78.047 -3.051,78.159C-2.962,78.19 -2.826,78.152 -2.737,78.102C-2.495,77.965 -2.484,77.763 -2.693,77.534C-4.338,75.733 -6.149,74.117 -8.168,72.743C-8.333,72.631 -8.601,72.669 -8.821,72.639M-14.756,72.693C-14.819,72.895 -15,73.168 -14.928,73.285C-13.5,75.603 -11.451,77.286 -9.22,78.775C-9.132,78.833 -8.992,78.841 -8.88,78.827C-8.786,78.817 -8.679,78.761 -8.615,78.691C-8.549,78.616 -8.465,78.463 -8.497,78.41C-9.97,75.991 -12.106,74.252 -14.412,72.693C-14.49,72.64 -14.639,72.692 -14.756,72.693M5.074,90.355C4.261,90.339 3.447,90.355 2.637,90.302C-0.772,90.081 -3.997,89.221 -6.961,87.481C-7.662,87.068 -8.383,86.688 -9.051,86.229C-14.84,82.249 -19.952,77.586 -23.892,71.703C-25.897,68.708 -27.704,65.606 -29.388,62.424C-31.362,58.694 -32.602,54.703 -33.414,50.6C-35.377,40.674 -36.463,30.638 -36.923,20.532C-36.938,20.189 -36.892,19.842 -36.873,19.496C-36.857,19.219 -36.45,18.831 -36.17,18.87C-35.712,18.934 -35.253,19.119 -34.806,19.089C-34.515,19.069 -34.111,18.818 -33.999,18.565C-33.888,18.316 -33.981,17.843 -34.167,17.627C-34.459,17.29 -34.891,17.062 -35.289,16.832C-36.494,16.137 -37.721,15.478 -38.923,14.776C-41.995,12.981 -44.314,10.402 -46.334,7.53C-46.506,7.287 -46.575,6.862 -46.496,6.574C-46.346,6.021 -45.984,5.524 -45.838,4.969C-45.547,3.86 -44.861,3.118 -43.84,2.715C-40.376,1.344 -37.171,-0.541 -33.88,-2.253C-31.39,-3.549 -28.83,-4.599 -25.99,-4.807C-25.645,-4.833 -25.296,-4.898 -24.962,-4.991C-20.938,-6.104 -16.885,-5.627 -12.857,-5.116C-9.218,-4.656 -6.842,-2.335 -5.084,0.715C-4.665,1.443 -4.583,2.266 -4.668,3.082C-4.824,4.589 -5.167,6.051 -5.85,7.424C-6.625,8.983 -7.353,10.565 -8.123,12.126C-9.152,14.215 -9.926,16.401 -10.635,18.613C-11.568,21.522 -11.792,24.524 -11.818,27.55C-11.823,28.128 -11.792,28.716 -11.689,29.284C-10.762,34.455 -9.293,39.401 -6.372,43.881C-2.699,49.514 1.907,54.208 7.413,57.985C11.813,61.003 16.338,63.853 20.911,66.606C27.174,70.378 33.538,73.984 39.849,77.678C40.442,78.025 41.119,78.384 41.493,78.921C43.081,81.205 44.574,83.556 46.081,85.896C46.182,86.053 46.115,86.326 46.106,86.545C46.094,86.828 45.7,86.887 45.214,86.672C44.79,86.485 44.361,86.304 43.948,86.093C43.018,85.617 42.093,85.132 41.173,84.638C40.764,84.418 40.399,84.038 39.97,83.95C38.288,83.607 37.125,82.512 35.969,81.378C35.893,81.303 35.768,81.278 35.666,81.23C35.607,81.441 35.429,81.73 35.508,81.849C36.273,83.004 37.077,84.133 37.88,85.263C38.282,85.828 38.729,86.363 39.105,86.945C39.191,87.077 39.094,87.352 39.032,87.545C39.005,87.63 38.855,87.736 38.765,87.733C38.19,87.708 37.58,87.767 37.049,87.592C35.62,87.122 34.225,86.547 32.813,86.02C32.489,85.899 32.162,85.751 31.825,85.709C31.63,85.685 31.36,85.796 31.22,85.941C31.078,86.085 30.954,86.373 31,86.551C31.114,86.987 31.306,87.408 31.511,87.813C31.826,88.433 32.201,89.023 32.508,89.646C32.967,90.574 32.51,91.249 31.479,91.18C30.902,91.142 30.322,91.094 29.75,91C28.364,90.773 26.992,90.756 25.597,91.001C24.458,91.201 23.292,91.263 22.135,91.36C18.196,91.693 14.52,90.848 11.118,88.842C9.718,88.017 8.354,87.134 6.964,86.293C6.572,86.056 6.152,85.863 5.736,85.671C5.64,85.626 5.437,85.616 5.403,85.669C5.285,85.851 5.108,86.101 5.157,86.263C5.287,86.693 5.437,87.172 5.734,87.485C6.447,88.24 7.26,88.901 8.003,89.628C8.128,89.75 8.131,90.019 8.141,90.223C8.144,90.275 7.957,90.385 7.858,90.384C6.93,90.377 6.002,90.353 5.074,90.333L5.074,90.355" style="fill:white;fill-rule:nonzero;"/>
                    </g>
                    <g transform="matrix(1,0,0,1,111.548,330.749)">
                        <path d="M0,25.211C0.246,25.129 0.762,25.093 1.09,24.826C2.407,23.753 3.199,22.38 3.054,20.619C3.028,20.307 2.808,19.979 2.594,19.727C2.505,19.622 2.052,19.629 2.018,19.703C1.73,20.324 1.563,21.008 1.241,21.607C0.58,22.836 -0.088,23.645 -1.819,22.784C-2.021,22.684 -2.256,22.641 -2.481,22.591C-3.057,22.466 -3.491,22.762 -3.733,23.461C-3.808,23.677 -3.807,23.918 -3.879,24.136C-4.003,24.508 -4.344,24.619 -4.699,24.404C-5.292,24.046 -5.864,23.651 -6.466,23.31C-7.288,22.844 -8.051,23.351 -8.079,24.368C-8.085,24.598 -8.042,24.829 -8.006,25.058C-7.952,25.399 -7.881,25.733 -8.169,26.022C-8.366,26.218 -9.041,26.137 -9.439,25.765C-10.282,24.979 -11.079,24.144 -11.908,23.343C-12.234,23.027 -12.592,22.744 -12.948,22.463C-12.998,22.424 -13.151,22.448 -13.207,22.499C-13.287,22.572 -13.394,22.726 -13.366,22.794C-12.694,24.447 -11.584,25.755 -10.104,26.728C-9.632,27.038 -9.072,27.26 -8.521,27.397C-7.812,27.572 -7.212,27.4 -6.736,26.715C-6.108,25.81 -6.049,25.84 -5.426,26.106C-5.108,26.241 -4.81,26.426 -4.493,26.568C-3.528,27.001 -2.772,26.924 -2.222,25.769C-1.939,25.175 -1.604,24.828 -0.899,25.086C-0.687,25.164 -0.443,25.153 0,25.211M-33.518,-11.429C-34.727,-11.222 -35.41,-11.081 -36.101,-11.013C-36.202,-11.002 -36.469,-11.366 -36.436,-11.501C-36.186,-12.51 -35.829,-13.486 -36.238,-14.553C-36.424,-15.034 -37.038,-15.625 -36.391,-16.064C-35.966,-16.353 -35.298,-16.36 -34.74,-16.357C-33.932,-16.354 -33.117,-16.276 -32.318,-16.146C-28.181,-15.471 -24,-15.419 -19.828,-15.273C-19.142,-15.249 -18.426,-15.314 -17.768,-15.495C-17.233,-15.642 -16.521,-15.902 -16.309,-16.324C-15.594,-17.746 -14.552,-17.539 -13.365,-17.215C-11.204,-16.625 -9.313,-15.507 -7.453,-14.311C-6.744,-13.855 -6.26,-13.213 -5.857,-12.504C-4.768,-10.588 -3.642,-8.689 -2.633,-6.731C-1.252,-4.051 0.044,-1.326 1.355,1.39C1.707,2.118 2,2.877 2.271,3.64C2.333,3.814 2.208,4.067 2.125,4.266C2.105,4.315 1.901,4.328 1.802,4.295C0.925,4 0.059,3.675 -0.821,3.389C-2.395,2.875 -4.002,2.781 -5.629,3.08C-5.732,3.099 -5.896,3.213 -5.895,3.28C-5.892,3.478 -5.877,3.794 -5.764,3.85C-5.245,4.1 -4.698,4.297 -4.148,4.475C-2.824,4.903 -1.483,5.279 -0.168,5.732C1.51,6.309 3.055,7.216 4.132,8.593C5.223,9.988 6.626,10.967 7.906,12.117C9.199,13.28 10.452,14.496 11.641,15.765C14.426,18.736 16.872,21.972 19.048,25.416C19.633,26.341 19.872,27.308 19.876,28.379C19.882,29.659 19.262,30.158 18.187,29.646C17.245,29.196 16.342,28.666 15.399,28.218C13.62,27.371 11.847,26.501 10.023,25.758C9.203,25.423 8.188,25.01 7.453,25.921C6.854,26.664 7.323,27.47 7.642,28.206C8.286,29.696 8.951,31.178 9.617,32.658C9.95,33.399 10.313,34.125 10.646,34.865C10.865,35.356 10.822,36.031 10.535,36.157C10.24,36.285 9.892,36.378 9.576,36.356C8.156,36.255 6.878,35.701 5.66,35.005C4.753,34.487 3.89,33.886 2.959,33.418C2.137,33.006 1.265,32.666 0.381,32.415C-0.029,32.298 -0.532,32.417 -0.971,32.521C-1.452,32.633 -2.032,33.391 -1.962,33.824C-1.725,35.309 -1.436,36.784 -1.178,38.265C-0.98,39.402 -0.776,40.539 -0.624,41.684C-0.554,42.21 -1.126,42.857 -1.675,42.87C-2.597,42.892 -3.541,42.957 -4.438,42.797C-6.042,42.511 -7.577,41.941 -9.007,41.154C-9.606,40.824 -10.187,40.394 -10.649,39.892C-12.612,37.764 -14.583,35.638 -16.443,33.421C-17.781,31.826 -18.997,30.121 -20.165,28.396C-20.529,27.857 -20.682,27.099 -20.722,26.428C-20.91,23.292 -20.871,20.168 -19.921,17.121C-19.753,16.581 -19.736,15.993 -19.649,15.428C-20.568,14.306 -19.95,13.225 -19.501,12.188C-18.395,9.633 -17.238,7.101 -16.081,4.568C-15.453,3.193 -14.921,1.801 -14.607,0.307C-14.065,-2.281 -14.673,-4.485 -16.407,-6.469C-18.709,-9.103 -21.404,-10.879 -25.014,-11.172C-28.026,-11.417 -31.026,-11.605 -33.518,-11.429" style="fill:rgb(80,140,160);fill-rule:nonzero;"/>
                    </g>
                    <g transform="matrix(1,0,0,1,63.7373,311.998)">
                        <path d="M0,-7.402C-0.077,-7.464 -0.159,-7.529 -0.241,-7.594C-0.454,-7.099 -0.674,-6.608 -0.869,-6.106C-0.892,-6.047 -0.794,-5.916 -0.722,-5.853C-0.688,-5.824 -0.543,-5.856 -0.513,-5.903C-0.216,-6.354 0.15,-6.787 0,-7.402M19.364,-12.525C19.944,-12.774 20.547,-13.026 21.14,-13.298C21.197,-13.324 21.239,-13.492 21.211,-13.566C21.175,-13.66 21.07,-13.781 20.981,-13.794C20.29,-13.893 19.663,-13.709 19.11,-13.288C19.035,-13.23 18.953,-13.067 18.983,-13.007C19.06,-12.851 19.198,-12.726 19.364,-12.525M4.336,-10.343C4.167,-10.204 3.939,-10.096 3.839,-9.917C3.393,-9.118 3.219,-8.242 3.249,-7.331C3.251,-7.251 3.397,-7.126 3.489,-7.114C3.581,-7.101 3.724,-7.177 3.783,-7.259C4.387,-8.108 4.64,-9.061 4.561,-10.096C4.554,-10.184 4.414,-10.261 4.336,-10.343M7.969,-10.588C7.778,-10.598 7.516,-10.695 7.407,-10.606C6.571,-9.923 6.229,-8.975 6.091,-7.942C6.083,-7.878 6.235,-7.762 6.333,-7.722C6.422,-7.687 6.584,-7.678 6.638,-7.733C7.348,-8.459 7.823,-9.325 8.096,-10.299C8.117,-10.377 8.015,-10.489 7.969,-10.588M28.651,-9.507C27.937,-9.198 27.302,-8.931 26.678,-8.64C26.603,-8.605 26.56,-8.444 26.552,-8.338C26.547,-8.267 26.633,-8.125 26.675,-8.126C27.931,-8.162 29.187,-8.208 30.443,-8.269C30.503,-8.272 30.587,-8.418 30.604,-8.507C30.625,-8.613 30.614,-8.811 30.564,-8.83C29.931,-9.071 29.288,-9.287 28.651,-9.507M-15.514,10.712C-15.403,9.679 -15.311,8.641 -15.176,7.609C-14.89,5.404 -14.234,3.31 -13.261,1.31C-9.346,-6.735 -3.473,-13.01 4.021,-17.819C4.704,-18.256 5.416,-18.657 6.146,-19.006C6.76,-19.299 7.468,-19.718 8.098,-19.231C8.624,-18.825 8.176,-18.164 8.171,-17.616C8.167,-17.155 8.122,-16.694 8.123,-16.232C8.125,-15.611 8.854,-15.164 9.344,-15.501C12.533,-17.694 16.024,-19.229 19.75,-20.226C20.975,-20.554 22.246,-20.716 23.5,-20.929C24.004,-21.015 24.401,-20.507 24.212,-20.043C23.908,-19.294 23.571,-18.558 23.265,-17.81C23.055,-17.298 23.355,-16.509 23.866,-16.359C24.975,-16.033 26.087,-15.681 27.223,-15.488C29.237,-15.144 30.943,-14.206 32.497,-12.953C32.938,-12.596 33.292,-12.116 33.625,-11.649C33.901,-11.264 33.992,-10.804 33.792,-10.334C33.7,-10.12 33.63,-9.894 33.512,-9.697C32.961,-8.78 33.111,-7.957 33.736,-7.124C35.34,-4.988 36.85,-2.788 38.13,-0.439C38.293,-0.139 38.411,0.189 38.522,0.513C38.552,0.598 38.499,0.733 38.444,0.82C38.393,0.902 38.268,1.024 38.214,1.006C37.334,0.717 36.456,0.422 35.587,0.103C34.476,-0.304 33.333,-0.433 32.161,-0.343C31.442,-0.289 30.758,-0.087 30.42,0.609C30.069,1.331 29.485,1.596 28.755,1.653C28.178,1.698 27.595,1.749 27.018,1.727C23.426,1.589 19.824,1.649 16.256,1.084C15.229,0.921 14.178,0.907 13.143,0.786C11.027,0.537 8.991,0.844 6.964,1.469C3.722,2.469 0.643,3.778 -2.033,5.904C-4.757,8.07 -7.483,10.235 -10.157,12.463C-10.912,13.093 -11.592,13.613 -12.635,13.358C-12.964,13.278 -13.329,13.329 -13.677,13.337C-14.354,13.352 -14.747,12.968 -14.967,12.387C-15.171,11.849 -15.327,11.292 -15.514,10.712" style="fill:white;fill-rule:nonzero;"/>
                    </g>
                    <g transform="matrix(1,0,0,1,93.998,409.378)">
                        <path d="M0,-42.848C-0.007,-43.076 -0.014,-43.292 -0.021,-43.509C0.154,-43.479 0.395,-43.51 0.492,-43.408C1.205,-42.649 1.989,-41.928 2.561,-41.07C3.406,-39.799 4.41,-38.697 5.493,-37.64C6.239,-36.912 6.917,-36.115 7.614,-35.337C9.877,-32.809 12.482,-30.693 15.365,-28.913C17.884,-27.359 20.626,-26.494 23.574,-26.288C25.233,-26.172 26.442,-27.015 26.978,-28.655C27.193,-29.316 27.36,-29.993 27.562,-30.659C27.653,-30.956 28.135,-31.225 28.396,-31.121C29.259,-30.783 30.125,-30.45 30.974,-30.077C32.256,-29.514 33.571,-29.095 34.972,-28.928C36.266,-28.774 37.23,-29.255 37.959,-30.293C38.637,-31.257 39.05,-32.324 39.303,-33.476C39.6,-34.835 39.946,-36.188 40.348,-37.52C40.557,-38.214 41.068,-38.711 41.837,-38.823C42.434,-38.909 43.004,-38.826 43.416,-38.329C43.71,-37.972 43.987,-37.596 44.234,-37.205C46.895,-32.983 49.549,-28.756 52.202,-24.53C52.572,-23.94 52.948,-23.352 53.286,-22.744C55.874,-18.076 58.459,-13.407 61.03,-8.729C61.363,-8.124 61.62,-7.477 61.892,-6.841C61.926,-6.76 61.861,-6.614 61.803,-6.523C61.771,-6.475 61.616,-6.437 61.585,-6.466C59.903,-8.06 58.222,-9.655 56.553,-11.262C53.708,-14.002 50.977,-16.85 48.432,-19.873C48.276,-20.059 48.042,-20.543 47.729,-20.156C47.603,-19.998 47.763,-19.504 47.921,-19.241C49.48,-16.639 51.412,-14.318 53.447,-12.086C56.184,-9.084 58.994,-6.148 61.737,-3.151C62.673,-2.129 63.505,-1.014 64.375,0.066C64.433,0.138 64.46,0.341 64.426,0.363C64.242,0.476 64.007,0.662 63.838,0.622C63.167,0.459 62.463,0.314 61.86,-0.004C59.292,-1.359 56.538,-2.289 53.938,-3.569C52.36,-4.345 50.923,-5.296 49.629,-6.484C44.659,-11.042 39.942,-15.837 35.797,-21.174C34.877,-22.359 34.064,-23.647 32.814,-24.54C32.766,-24.576 32.624,-24.547 32.578,-24.498C32.503,-24.42 32.406,-24.276 32.434,-24.202C32.552,-23.88 32.679,-23.554 32.861,-23.267C35.605,-18.944 38.735,-14.915 42.195,-11.141C42.352,-10.97 42.531,-10.817 42.665,-10.63C42.836,-10.39 43.253,-10.19 42.945,-9.831C42.868,-9.743 42.499,-9.818 42.32,-9.918C41.003,-10.655 39.694,-11.404 38.396,-12.172C31.301,-16.37 24.207,-20.566 17.291,-25.059C13.668,-27.411 10.351,-30.118 7.272,-33.13C4.346,-35.994 1.987,-39.288 0,-42.848" style="fill:rgb(125,128,139);fill-rule:nonzero;"/>
                    </g>
                    <g transform="matrix(1,0,0,1,107.96,364.495)">
                        <path d="M0,10.819C1.172,10.946 2.088,10.945 2.992,10.624C3.906,10.298 4.547,9.509 4.583,8.552C4.641,7.027 4.336,5.552 3.953,4.088C3.718,3.192 3.494,2.293 3.305,1.387C3.263,1.183 3.338,0.787 3.448,0.751C3.752,0.652 4.165,0.575 4.425,0.706C5.354,1.175 6.233,1.745 7.141,2.258C7.949,2.715 8.747,3.197 9.589,3.581C10.975,4.214 12.431,4.563 13.979,4.483C15.79,4.389 16.797,3.08 16.203,1.43C15.81,0.343 15.271,-0.69 14.798,-1.747C14.279,-2.91 13.748,-4.065 13.263,-5.241C13.204,-5.385 13.381,-5.648 13.493,-5.827C13.525,-5.88 13.724,-5.869 13.826,-5.832C14.261,-5.678 14.705,-5.537 15.115,-5.329C16.254,-4.753 17.372,-4.134 18.509,-3.555C19.439,-3.082 20.369,-2.6 21.33,-2.198C22.747,-1.606 24.046,-1.668 25.042,-3.052C25.113,-3.152 25.542,-3.163 25.617,-3.069C26.845,-1.507 27.707,0.258 28.358,2.123C28.456,2.402 28.33,2.813 28.192,3.11C27.952,3.63 27.682,4.166 27.06,4.353C25.68,4.768 25.032,5.817 24.671,7.111C24.36,8.229 24.086,9.358 23.742,10.465C23.468,11.346 23.156,12.222 22.779,13.064C22.402,13.907 21.606,14.309 20.781,14.043C19.459,13.617 18.161,13.117 16.868,12.609C16.004,12.268 15.167,11.877 14.214,11.822C13.229,11.765 12.316,12.288 12.02,13.185C11.729,14.064 11.525,14.973 11.207,15.841C11.044,16.284 10.636,16.603 10.142,16.627C9.453,16.659 8.743,16.699 8.07,16.577C5.998,16.202 4.022,15.506 2.244,14.367C0.881,13.493 -0.422,12.523 -1.73,11.567C-1.837,11.488 -1.804,11.177 -1.779,10.981C-1.771,10.911 -1.595,10.812 -1.494,10.81C-0.916,10.8 -0.336,10.816 0,10.819" style="fill:white;fill-rule:nonzero;"/>
                    </g>
                    <g transform="matrix(1,0,0,1,138.064,447.009)">
                        <path d="M0,-30.127C0.005,-30.102 -0.13,-30.358 -0.058,-30.523C0.009,-30.677 0.292,-30.748 0.492,-30.823C0.593,-30.861 0.722,-30.84 0.836,-30.828C2.017,-30.705 3.164,-30.659 3.973,-31.792C4.038,-31.883 4.393,-31.831 4.578,-31.757C4.784,-31.675 4.961,-31.505 5.132,-31.352C9.772,-27.16 14.411,-22.968 19.048,-18.773C20.24,-17.694 21.631,-16.784 22.008,-15.042C22.075,-14.732 22.36,-14.441 22.604,-14.203C24.207,-12.634 25.172,-10.651 26.208,-8.711C27.026,-7.18 27.917,-5.686 28.687,-4.132C29.458,-2.576 30.134,-0.972 30.137,0.822C30.138,1.338 29.712,1.756 29.264,1.603C28.829,1.456 28.382,1.322 27.974,1.118C25.254,-0.245 22.855,-2.07 20.743,-4.232C17.02,-8.043 13.416,-11.972 10.217,-16.241C6.817,-20.78 3.491,-25.375 0,-30.127" style="fill:rgb(80,140,160);fill-rule:nonzero;"/>
                    </g>
                    <g transform="matrix(1,0,0,1,145.666,441.889)">
                        <path d="M0,-34.393C0.216,-34.376 0.458,-34.415 0.646,-34.332C2.663,-33.442 4.668,-32.523 6.686,-31.631C7.555,-31.247 8.305,-30.715 8.876,-29.96C10.418,-27.927 11.962,-25.895 13.468,-23.834C14.768,-22.054 15.966,-20.198 17.298,-18.443C19.824,-15.114 22.397,-11.82 24.986,-8.539C26.352,-6.808 27.799,-5.141 29.193,-3.433C29.924,-2.538 30.75,-1.7 31.105,-0.555C31.132,-0.466 31.107,-0.292 31.048,-0.258C30.868,-0.154 30.599,0.022 30.471,-0.042C29.644,-0.458 28.794,-0.86 28.049,-1.4C26.83,-2.287 25.639,-3.223 24.517,-4.229C17.083,-10.897 9.668,-17.587 2.257,-24.281C1.749,-24.739 1.285,-25.253 0.854,-25.786C0.659,-26.028 0.801,-26.239 1.087,-26.261C1.546,-26.297 2.008,-26.307 2.462,-26.375C2.918,-26.444 3.234,-26.943 3.229,-27.383C3.222,-28.109 2.966,-28.74 2.595,-29.339C1.682,-30.817 0.763,-32.29 -0.145,-33.771C-0.199,-33.859 -0.21,-33.998 -0.185,-34.101C-0.159,-34.207 -0.064,-34.296 0,-34.393" style="fill:rgb(80,140,160);fill-rule:nonzero;"/>
                    </g>
                    <g transform="matrix(1,0,0,1,158.819,418.239)">
                        <path d="M0,29.915C0.078,30.9 -0.586,31.368 -1.141,31.137C-1.46,31.003 -1.782,30.87 -2.091,30.714C-3.662,29.923 -5.038,28.851 -6.183,27.535C-8.005,25.44 -9.764,23.291 -11.506,21.129C-12.231,20.229 -12.864,19.254 -13.501,18.288C-16.946,13.073 -20.347,7.828 -23.842,2.647C-24.592,1.536 -24.515,0.553 -24.069,-0.549C-23.984,-0.76 -23.922,-0.986 -23.803,-1.177C-23.64,-1.438 -23.423,-1.453 -23.24,-1.24C-22.562,-0.453 -21.845,0.307 -21.222,1.136C-19.069,4.005 -16.874,6.848 -14.833,9.797C-11.196,15.051 -7.029,19.858 -2.626,24.463C-1.285,25.866 -0.444,27.424 -0.067,29.28C0.002,29.618 0.005,29.969 0,29.915" style="fill:white;fill-rule:nonzero;"/>
                    </g>
                    <g transform="matrix(1,0,0,1,70.6553,324.533)">
                        <path d="M0,-4.246C-0.111,-4.058 -0.177,-3.764 -0.338,-3.694C-4.718,-1.834 -8.66,0.869 -12.97,2.86C-13.601,3.152 -14.224,3.461 -14.864,3.732C-16.106,4.257 -16.775,3.921 -17.207,2.584C-17.356,2.122 -17.383,1.652 -17.043,1.282C-16.654,0.858 -16.226,0.457 -15.769,0.106C-13.381,-1.732 -10.977,-3.548 -8.584,-5.379C-7.103,-6.514 -5.484,-7.411 -3.786,-8.165C-3.372,-8.349 -2.9,-8.432 -2.447,-8.483C-2.278,-8.503 -1.917,-8.286 -1.925,-8.202C-2.051,-6.775 -1.09,-5.86 -0.388,-4.822C-0.258,-4.631 -0.129,-4.438 0,-4.246" style="fill:rgb(80,140,160);fill-rule:nonzero;"/>
                    </g>
                    <g transform="matrix(1,0,0,1,49.0771,327.027)">
                        <path d="M0,5.72C-2.169,5.827 -4.001,5.682 -5.814,5.295C-6.435,5.163 -7.002,4.785 -6.86,4.578C-6.677,4.312 -6.479,4.026 -6.219,3.847C-5.082,3.063 -3.911,2.328 -2.769,1.55C-1.607,0.757 -0.333,0.261 1.043,0.008C1.675,-0.107 2.473,0.303 2.755,0.92C4.254,4.194 3.472,5.375 0.027,5.717C-0.087,5.729 -0.202,5.74 0,5.72" style="fill:rgb(125,128,139);fill-rule:nonzero;"/>
                    </g>
                    <g transform="matrix(1,0,0,1,49.0771,412.578)">
                        <path d="M0,-79.831C-0.202,-79.811 -0.087,-79.822 0.027,-79.834C3.472,-80.176 4.254,-81.357 2.755,-84.631C2.473,-85.248 1.675,-85.658 1.043,-85.543C-0.333,-85.29 -1.607,-84.794 -2.769,-84.001C-3.911,-83.223 -5.082,-82.488 -6.219,-81.704C-6.479,-81.525 -6.677,-81.239 -6.86,-80.973C-7.002,-80.766 -6.435,-80.388 -5.814,-80.256C-4.001,-79.869 -2.169,-79.724 0,-79.831M21.578,-92.292C21.449,-92.483 21.32,-92.676 21.19,-92.867C20.488,-93.905 19.527,-94.82 19.653,-96.247C19.661,-96.331 19.3,-96.548 19.131,-96.528C18.678,-96.477 18.207,-96.393 17.792,-96.21C16.094,-95.456 14.476,-94.559 12.994,-93.424C10.602,-91.593 8.197,-89.777 5.81,-87.939C5.353,-87.588 4.924,-87.187 4.535,-86.763C4.195,-86.393 4.222,-85.923 4.371,-85.461C4.803,-84.124 5.472,-83.788 6.714,-84.313C7.354,-84.584 7.978,-84.893 8.608,-85.185C12.918,-87.176 16.86,-89.879 21.24,-91.739C21.401,-91.809 21.467,-92.102 21.578,-92.292M109.742,35.576C109.747,35.63 109.744,35.279 109.675,34.941C109.298,33.085 108.457,31.527 107.116,30.124C102.713,25.52 98.546,20.712 94.91,15.458C92.869,12.509 90.673,9.666 88.52,6.797C87.897,5.968 87.181,5.208 86.502,4.421C86.319,4.208 86.103,4.224 85.939,4.484C85.82,4.675 85.758,4.901 85.673,5.112C85.228,6.214 85.15,7.197 85.9,8.309C89.396,13.489 92.796,18.734 96.241,23.949C96.878,24.915 97.511,25.891 98.236,26.79C99.978,28.952 101.737,31.102 103.56,33.196C104.705,34.512 106.08,35.584 107.651,36.375C107.96,36.531 108.282,36.664 108.601,36.798C109.156,37.029 109.82,36.562 109.742,35.576M96.589,-5.082C96.525,-4.985 96.431,-4.896 96.404,-4.79C96.379,-4.687 96.391,-4.548 96.444,-4.46C97.353,-2.979 98.271,-1.506 99.185,-0.028C99.555,0.571 99.811,1.202 99.818,1.928C99.823,2.368 99.507,2.867 99.052,2.936C98.598,3.004 98.135,3.014 97.676,3.05C97.39,3.072 97.249,3.283 97.444,3.525C97.874,4.058 98.338,4.572 98.846,5.03C106.258,11.724 113.672,18.414 121.106,25.082C122.228,26.088 123.419,27.024 124.639,27.911C125.383,28.451 126.233,28.853 127.06,29.269C127.188,29.333 127.457,29.157 127.638,29.053C127.697,29.019 127.722,28.845 127.694,28.756C127.34,27.611 126.514,26.773 125.783,25.878C124.388,24.17 122.941,22.503 121.575,20.773C118.987,17.491 116.414,14.197 113.887,10.868C112.555,9.113 111.357,7.257 110.057,5.477C108.552,3.416 107.007,1.384 105.466,-0.649C104.895,-1.404 104.145,-1.936 103.275,-2.32C101.258,-3.212 99.252,-4.131 97.235,-5.021C97.047,-5.104 96.806,-5.065 96.589,-5.082M88.987,4.304C92.479,9.056 95.805,13.65 99.205,18.19C102.403,22.459 106.007,26.388 109.73,30.198C111.842,32.36 114.241,34.186 116.961,35.549C117.37,35.753 117.816,35.887 118.251,36.034C118.699,36.187 119.125,35.769 119.124,35.253C119.121,33.459 118.445,31.855 117.674,30.299C116.904,28.745 116.014,27.251 115.196,25.72C114.159,23.779 113.194,21.797 111.591,20.228C111.347,19.989 111.063,19.698 110.996,19.389C110.618,17.647 109.227,16.736 108.036,15.658C103.398,11.463 98.76,7.271 94.119,3.079C93.949,2.926 93.771,2.756 93.565,2.674C93.38,2.6 93.025,2.548 92.96,2.639C92.151,3.772 91.004,3.726 89.823,3.603C89.709,3.591 89.58,3.569 89.479,3.607C89.279,3.683 88.996,3.754 88.93,3.907C88.857,4.072 88.992,4.329 88.987,4.304M58.883,-37.264C58.547,-37.267 57.968,-37.282 57.39,-37.272C57.289,-37.27 57.113,-37.172 57.104,-37.102C57.079,-36.905 57.046,-36.595 57.153,-36.516C58.461,-35.56 59.764,-34.59 61.127,-33.716C62.906,-32.576 64.881,-31.881 66.953,-31.506C67.626,-31.384 68.336,-31.424 69.025,-31.456C69.519,-31.479 69.928,-31.799 70.09,-32.241C70.408,-33.109 70.613,-34.018 70.903,-34.897C71.199,-35.795 72.113,-36.317 73.097,-36.261C74.05,-36.206 74.887,-35.814 75.751,-35.474C77.044,-34.966 78.343,-34.466 79.664,-34.04C80.49,-33.773 81.286,-34.176 81.663,-35.018C82.039,-35.86 82.351,-36.736 82.625,-37.617C82.97,-38.725 83.243,-39.853 83.554,-40.972C83.915,-42.266 84.563,-43.314 85.943,-43.729C86.565,-43.917 86.835,-44.453 87.076,-44.973C87.213,-45.269 87.339,-45.681 87.242,-45.96C86.59,-47.824 85.728,-49.59 84.5,-51.151C84.425,-51.246 83.997,-51.234 83.925,-51.135C82.93,-49.751 81.63,-49.688 80.213,-50.28C79.252,-50.683 78.323,-51.165 77.393,-51.638C76.255,-52.217 75.137,-52.836 73.998,-53.412C73.588,-53.62 73.144,-53.761 72.709,-53.915C72.607,-53.952 72.409,-53.963 72.376,-53.91C72.264,-53.73 72.087,-53.468 72.146,-53.323C72.631,-52.147 73.163,-50.992 73.681,-49.83C74.154,-48.772 74.693,-47.739 75.086,-46.652C75.681,-45.003 74.673,-43.693 72.862,-43.6C71.314,-43.519 69.858,-43.869 68.472,-44.502C67.63,-44.886 66.832,-45.368 66.024,-45.824C65.117,-46.338 64.238,-46.907 63.308,-47.377C63.048,-47.508 62.636,-47.431 62.332,-47.332C62.222,-47.296 62.146,-46.899 62.188,-46.695C62.377,-45.79 62.601,-44.891 62.836,-43.995C63.22,-42.53 63.524,-41.056 63.466,-39.53C63.43,-38.573 62.789,-37.784 61.875,-37.459C60.971,-37.138 60.056,-37.137 58.883,-37.264M44.921,-46.048C46.908,-42.488 49.267,-39.193 52.193,-36.33C55.271,-33.317 58.589,-30.611 62.211,-28.259C69.127,-23.766 76.222,-19.57 83.316,-15.372C84.615,-14.603 85.924,-13.854 87.241,-13.118C87.42,-13.018 87.789,-12.942 87.866,-13.031C88.174,-13.39 87.757,-13.59 87.585,-13.83C87.452,-14.017 87.272,-14.17 87.116,-14.341C83.656,-18.115 80.526,-22.143 77.782,-26.467C77.6,-26.754 77.473,-27.08 77.354,-27.401C77.327,-27.476 77.424,-27.62 77.499,-27.698C77.544,-27.747 77.687,-27.775 77.735,-27.74C78.985,-26.847 79.798,-25.559 80.718,-24.374C84.863,-19.037 89.58,-14.242 94.55,-9.684C95.844,-8.496 97.281,-7.545 98.858,-6.768C101.458,-5.489 104.213,-4.559 106.781,-3.204C107.384,-2.886 108.087,-2.741 108.759,-2.578C108.928,-2.538 109.163,-2.724 109.347,-2.837C109.381,-2.858 109.354,-3.061 109.296,-3.134C108.426,-4.214 107.594,-5.329 106.658,-6.351C103.915,-9.348 101.105,-12.284 98.368,-15.286C96.333,-17.518 94.401,-19.839 92.842,-22.44C92.684,-22.704 92.524,-23.198 92.65,-23.355C92.963,-23.743 93.197,-23.259 93.353,-23.073C95.898,-20.05 98.629,-17.202 101.474,-14.462C103.143,-12.854 104.824,-11.26 106.506,-9.666C106.537,-9.637 106.692,-9.675 106.724,-9.723C106.782,-9.813 106.847,-9.96 106.813,-10.041C106.541,-10.677 106.284,-11.324 105.951,-11.929C103.38,-16.606 100.795,-21.275 98.207,-25.943C97.869,-26.552 97.493,-27.14 97.123,-27.729C94.47,-31.956 91.816,-36.183 89.155,-40.405C88.908,-40.796 88.631,-41.172 88.336,-41.529C87.925,-42.025 87.355,-42.108 86.758,-42.022C85.989,-41.911 85.478,-41.414 85.269,-40.72C84.867,-39.388 84.521,-38.035 84.224,-36.676C83.971,-35.523 83.558,-34.457 82.88,-33.493C82.151,-32.455 81.187,-31.974 79.893,-32.128C78.492,-32.295 77.177,-32.714 75.895,-33.277C75.046,-33.649 74.18,-33.982 73.317,-34.321C73.056,-34.425 72.574,-34.156 72.483,-33.858C72.281,-33.192 72.114,-32.516 71.898,-31.854C71.363,-30.215 70.154,-29.372 68.495,-29.488C65.547,-29.694 62.805,-30.559 60.286,-32.113C57.403,-33.893 54.798,-36.009 52.535,-38.537C51.838,-39.314 51.16,-40.112 50.414,-40.84C49.331,-41.896 48.327,-42.999 47.481,-44.269C46.91,-45.128 46.126,-45.849 45.413,-46.607C45.315,-46.71 45.075,-46.679 44.9,-46.709C44.907,-46.492 44.914,-46.275 44.921,-46.048M-0.854,-89.868C-0.667,-89.288 -0.511,-88.731 -0.307,-88.193C-0.087,-87.612 0.306,-87.228 0.983,-87.243C1.332,-87.251 1.696,-87.303 2.025,-87.223C3.068,-86.968 3.748,-87.487 4.503,-88.117C7.177,-90.346 9.903,-92.511 12.627,-94.677C15.303,-96.803 18.382,-98.111 21.624,-99.111C23.651,-99.736 25.687,-100.043 27.803,-99.795C28.838,-99.674 29.889,-99.659 30.917,-99.496C34.484,-98.932 38.086,-98.991 41.678,-98.853C42.255,-98.831 42.838,-98.883 43.416,-98.928C44.146,-98.984 44.729,-99.249 45.08,-99.972C45.418,-100.667 46.103,-100.869 46.821,-100.924C47.993,-101.014 49.136,-100.885 50.247,-100.477C51.116,-100.158 51.995,-99.863 52.875,-99.574C52.928,-99.557 53.053,-99.679 53.104,-99.761C53.159,-99.848 53.212,-99.982 53.183,-100.067C53.071,-100.392 52.954,-100.72 52.79,-101.019C51.51,-103.368 50,-105.568 48.396,-107.704C47.771,-108.537 47.622,-109.36 48.172,-110.277C48.291,-110.475 48.36,-110.7 48.452,-110.914C48.652,-111.385 48.561,-111.845 48.286,-112.229C47.952,-112.696 47.598,-113.177 47.157,-113.533C45.604,-114.786 43.897,-115.725 41.883,-116.068C40.747,-116.262 39.635,-116.613 38.526,-116.939C38.016,-117.09 37.715,-117.879 37.925,-118.391C38.231,-119.139 38.568,-119.874 38.873,-120.623C39.062,-121.088 38.664,-121.596 38.16,-121.51C36.906,-121.297 35.635,-121.135 34.41,-120.807C30.685,-119.81 27.193,-118.274 24.004,-116.081C23.515,-115.744 22.785,-116.191 22.783,-116.812C22.782,-117.274 22.827,-117.735 22.831,-118.196C22.836,-118.744 23.284,-119.405 22.758,-119.811C22.128,-120.299 21.42,-119.88 20.807,-119.587C20.076,-119.237 19.364,-118.837 18.682,-118.399C11.188,-113.591 5.314,-107.315 1.399,-99.27C0.426,-97.27 -0.229,-95.177 -0.516,-92.972C-0.651,-91.939 -0.743,-90.901 -0.854,-89.868M28.953,-93.258C31.445,-93.435 34.445,-93.246 37.457,-93.001C41.067,-92.708 43.762,-90.933 46.064,-88.298C47.798,-86.314 48.406,-84.11 47.864,-81.522C47.55,-80.028 47.018,-78.636 46.39,-77.261C45.233,-74.728 44.076,-72.196 42.97,-69.642C42.521,-68.604 41.903,-67.523 42.822,-66.401C42.735,-65.836 42.718,-65.248 42.55,-64.708C41.6,-61.661 41.562,-58.537 41.75,-55.401C41.79,-54.73 41.942,-53.973 42.307,-53.434C43.475,-51.708 44.69,-50.003 46.028,-48.408C47.889,-46.191 49.859,-44.065 51.822,-41.937C52.285,-41.435 52.865,-41.005 53.464,-40.675C54.894,-39.888 56.429,-39.318 58.033,-39.032C58.931,-38.872 59.875,-38.937 60.796,-38.959C61.345,-38.973 61.917,-39.619 61.848,-40.145C61.695,-41.29 61.491,-42.427 61.293,-43.564C61.036,-45.045 60.747,-46.52 60.509,-48.005C60.439,-48.438 61.019,-49.196 61.5,-49.309C61.939,-49.412 62.442,-49.531 62.853,-49.414C63.736,-49.163 64.608,-48.823 65.43,-48.411C66.361,-47.943 67.225,-47.342 68.131,-46.824C69.35,-46.128 70.627,-45.574 72.047,-45.474C72.363,-45.451 72.711,-45.544 73.006,-45.672C73.293,-45.798 73.336,-46.474 73.117,-46.964C72.785,-47.704 72.421,-48.431 72.088,-49.171C71.422,-50.651 70.757,-52.133 70.113,-53.623C69.794,-54.359 69.325,-55.165 69.924,-55.908C70.659,-56.819 71.674,-56.406 72.495,-56.071C74.318,-55.328 76.091,-54.458 77.871,-53.611C78.813,-53.163 79.716,-52.633 80.658,-52.184C81.733,-51.671 82.354,-52.17 82.348,-53.45C82.343,-54.521 82.104,-55.488 81.52,-56.413C79.343,-59.857 76.897,-63.093 74.112,-66.064C72.923,-67.333 71.67,-68.549 70.377,-69.712C69.097,-70.862 67.694,-71.841 66.603,-73.236C65.526,-74.613 63.981,-75.52 62.303,-76.098C60.988,-76.55 59.647,-76.926 58.323,-77.354C57.773,-77.532 57.226,-77.729 56.708,-77.979C56.594,-78.035 56.579,-78.352 56.576,-78.549C56.575,-78.616 56.739,-78.73 56.842,-78.749C58.469,-79.048 60.076,-78.954 61.65,-78.44C62.53,-78.154 63.396,-77.829 64.273,-77.534C64.372,-77.501 64.577,-77.515 64.597,-77.563C64.679,-77.762 64.804,-78.016 64.742,-78.189C64.471,-78.952 64.178,-79.711 63.826,-80.439C62.515,-83.155 61.219,-85.88 59.838,-88.56C58.83,-90.519 57.704,-92.417 56.614,-94.333C56.211,-95.042 55.728,-95.685 55.019,-96.141C53.158,-97.336 51.268,-98.454 49.106,-99.044C47.919,-99.368 46.877,-99.575 46.163,-98.153C45.951,-97.731 45.238,-97.471 44.704,-97.324C44.045,-97.143 43.329,-97.078 42.643,-97.102C38.471,-97.248 34.291,-97.3 30.153,-97.976C29.354,-98.105 28.539,-98.184 27.731,-98.186C27.173,-98.189 26.505,-98.183 26.081,-97.893C25.434,-97.454 26.047,-96.863 26.233,-96.382C26.643,-95.315 26.286,-94.339 26.036,-93.33C26.002,-93.195 26.27,-92.831 26.371,-92.842C27.061,-92.91 27.744,-93.051 28.953,-93.258M56.196,4.226L56.196,4.204C57.124,4.224 58.052,4.248 58.98,4.255C59.079,4.256 59.266,4.146 59.263,4.094C59.253,3.89 59.25,3.621 59.125,3.499C58.382,2.772 57.569,2.111 56.856,1.357C56.56,1.043 56.409,0.565 56.279,0.134C56.23,-0.028 56.407,-0.278 56.525,-0.46C56.559,-0.513 56.762,-0.503 56.858,-0.458C57.274,-0.266 57.694,-0.073 58.086,0.164C59.476,1.005 60.84,1.888 62.24,2.713C65.642,4.719 69.318,5.564 73.257,5.232C74.414,5.134 75.58,5.072 76.719,4.872C78.114,4.627 79.486,4.644 80.873,4.871C81.444,4.965 82.024,5.013 82.602,5.051C83.632,5.12 84.089,4.445 83.63,3.517C83.323,2.894 82.948,2.304 82.633,1.684C82.428,1.279 82.236,0.858 82.123,0.422C82.076,0.244 82.2,-0.044 82.342,-0.188C82.482,-0.333 82.752,-0.444 82.947,-0.42C83.284,-0.378 83.611,-0.23 83.936,-0.109C85.347,0.418 86.742,0.993 88.171,1.463C88.702,1.638 89.313,1.579 89.887,1.604C89.978,1.607 90.127,1.501 90.154,1.416C90.216,1.223 90.313,0.948 90.228,0.816C89.851,0.234 89.404,-0.301 89.002,-0.866C88.199,-1.996 87.395,-3.125 86.63,-4.28C86.551,-4.399 86.729,-4.688 86.788,-4.899C86.89,-4.851 87.015,-4.826 87.091,-4.751C88.247,-3.617 89.41,-2.522 91.092,-2.179C91.521,-2.091 91.886,-1.711 92.295,-1.491C93.215,-0.997 94.14,-0.512 95.07,-0.036C95.483,0.175 95.912,0.356 96.336,0.543C96.822,0.758 97.216,0.699 97.228,0.416C97.237,0.197 97.304,-0.076 97.203,-0.233C95.696,-2.573 94.203,-4.924 92.615,-7.208C92.241,-7.745 91.564,-8.104 90.971,-8.451C84.66,-12.145 78.296,-15.751 72.033,-19.523C67.46,-22.276 62.936,-25.126 58.535,-28.144C53.029,-31.921 48.423,-36.615 44.75,-42.248C41.829,-46.728 40.36,-51.674 39.433,-56.845C39.331,-57.413 39.299,-58.001 39.304,-58.579C39.331,-61.605 39.554,-64.607 40.487,-67.516C41.196,-69.728 41.97,-71.914 42.999,-74.003C43.769,-75.564 44.497,-77.146 45.272,-78.705C45.956,-80.078 46.298,-81.54 46.454,-83.047C46.539,-83.863 46.458,-84.686 46.038,-85.414C44.28,-88.464 41.904,-90.785 38.265,-91.245C34.237,-91.756 30.184,-92.233 26.16,-91.12C25.826,-91.027 25.478,-90.962 25.132,-90.936C22.292,-90.727 19.732,-89.678 17.242,-88.382C13.951,-86.67 10.746,-84.785 7.282,-83.414C6.261,-83.011 5.575,-82.269 5.284,-81.16C5.138,-80.605 4.776,-80.108 4.626,-79.555C4.547,-79.267 4.616,-78.842 4.788,-78.599C6.808,-75.727 9.127,-73.148 12.199,-71.352C13.401,-70.651 14.628,-69.992 15.833,-69.297C16.231,-69.067 16.663,-68.839 16.955,-68.502C17.141,-68.286 17.234,-67.813 17.124,-67.564C17.011,-67.31 16.607,-67.06 16.316,-67.04C15.869,-67.01 15.41,-67.195 14.952,-67.259C14.672,-67.298 14.265,-66.91 14.249,-66.633C14.23,-66.287 14.184,-65.94 14.199,-65.597C14.659,-55.491 15.745,-45.455 17.708,-35.529C18.52,-31.426 19.76,-27.435 21.734,-23.705C23.418,-20.523 25.225,-17.421 27.23,-14.426C31.17,-8.543 36.282,-3.88 42.071,0.1C42.739,0.559 43.46,0.94 44.161,1.352C47.125,3.092 50.35,3.952 53.759,4.173C54.569,4.226 55.383,4.21 56.196,4.226M12.357,21.484C10.463,20.632 8.663,20.609 6.878,20.629C6.34,20.635 5.814,21.022 5.266,21.179C5.075,21.233 4.71,21.194 4.645,21.076C4.497,20.806 4.357,20.421 4.44,20.154C4.704,19.313 5.318,18.772 6.222,18.74C7.029,18.713 7.853,18.729 8.648,18.856C11.883,19.374 15.137,19.162 18.385,19.184C19.001,19.188 19.522,18.94 19.892,18.454C24.673,12.167 29.897,6.226 34.463,-0.228C34.73,-0.606 34.99,-0.996 35.185,-1.412C35.265,-1.581 35.242,-1.9 35.128,-2.038C34.76,-2.481 34.354,-2.902 33.917,-3.28C29.832,-6.809 26.535,-10.987 23.75,-15.586C22.849,-17.075 21.999,-18.596 21.124,-20.102C17.805,-25.81 15.96,-32.004 15.085,-38.514C14.421,-43.464 13.729,-48.41 13.112,-53.366C12.695,-56.71 12.441,-60.07 12.546,-63.447C12.564,-64.026 12.553,-64.61 12.505,-65.188C12.409,-66.333 12.754,-67.631 12.037,-68.573C11.43,-69.369 10.436,-69.88 9.584,-70.476C7.952,-71.618 6.53,-72.975 5.322,-74.556C4.617,-75.477 3.907,-76.398 3.249,-77.354C2.794,-78.015 2.193,-78.224 1.453,-78.122C-1.94,-77.655 -5.259,-78.306 -8.587,-78.79C-9.035,-78.855 -9.462,-79.076 -9.892,-79.245C-10.249,-79.385 -10.458,-80.119 -10.284,-80.461C-9.737,-81.533 -8.838,-82.276 -7.89,-82.941C-6.656,-83.806 -5.347,-84.561 -4.108,-85.419C-3.361,-85.936 -2.128,-85.973 -1.902,-86.938C-1.736,-87.648 -2.234,-88.492 -2.32,-89.288C-2.418,-90.207 -2.49,-91.15 -2.396,-92.064C-2.097,-94.972 -1.343,-97.757 -0.034,-100.394C3.887,-108.297 9.706,-114.486 16.99,-119.36C17.759,-119.876 18.57,-120.35 19.413,-120.729C20.251,-121.108 21.136,-121.425 22.032,-121.627C23.785,-122.02 24.501,-121.397 24.648,-119.485C24.657,-119.37 24.601,-119.198 24.658,-119.148C24.805,-119.021 25.052,-118.825 25.164,-118.874C25.797,-119.152 26.406,-119.489 27.017,-119.816C30.112,-121.474 33.404,-122.57 36.835,-123.279C37.769,-123.472 38.678,-123.459 39.581,-123.145C40.458,-122.841 41.034,-121.85 40.87,-120.919C40.85,-120.805 40.825,-120.691 40.81,-120.576C40.707,-119.817 39.833,-119.121 40.461,-118.326C40.917,-117.749 41.729,-117.835 42.408,-117.718C44.652,-117.333 46.533,-116.214 48.273,-114.812C48.454,-114.667 48.635,-114.519 48.797,-114.353C50.016,-113.119 50.735,-111.734 50.05,-109.962C49.818,-109.359 49.933,-108.843 50.309,-108.343C54.512,-102.75 57.625,-96.495 61.079,-90.452C62.861,-87.333 64.321,-84.029 65.907,-80.8C66.367,-79.862 66.778,-78.9 67.178,-77.935C67.711,-76.649 68.007,-75.209 68.779,-74.093C69.689,-72.775 70.962,-71.694 72.142,-70.578C76.986,-65.994 81.044,-60.801 84.382,-55.029C86.068,-52.114 87.832,-49.243 89.182,-46.15C89.505,-45.409 89.935,-44.627 89.948,-43.857C89.968,-42.611 90.471,-41.638 91.094,-40.649C93.075,-37.507 95.043,-34.355 97.006,-31.2C97.803,-29.919 98.604,-28.639 99.345,-27.324C102.365,-21.965 105.352,-16.587 108.374,-11.227C109.462,-9.297 110.4,-7.326 110.832,-5.122C111.007,-4.229 111.498,-3.401 111.804,-2.529C112.122,-1.623 111.486,-0.596 110.503,-0.456C109.934,-0.375 109.348,-0.417 108.77,-0.39C108.399,-0.371 108.189,0.045 108.385,0.341C113.336,7.792 118.703,14.94 124.176,22.011C124.958,23.021 125.828,23.961 126.606,24.974C127.313,25.892 127.996,26.835 128.597,27.824C128.887,28.303 129.003,28.901 129.127,29.461C129.278,30.146 128.614,30.905 127.938,30.847C127.481,30.808 127.013,30.759 126.579,30.623C124.773,30.057 123.245,28.995 121.799,27.816C120.271,26.569 118.784,25.272 117.267,24.01C117.031,23.814 116.818,23.874 116.74,24.094C116.703,24.198 116.656,24.323 116.682,24.422C116.768,24.756 116.845,25.102 116.996,25.408C117.354,26.138 117.798,26.826 118.123,27.569C118.773,29.057 119.409,30.555 119.972,32.077C120.458,33.394 120.667,34.77 120.549,36.187C120.457,37.298 119.421,38.12 118.339,37.789C117.235,37.451 116.148,37.028 115.103,36.537C114.267,36.145 113.506,35.593 112.71,35.114C111.804,34.569 111.47,34.731 111.436,35.703C111.411,36.394 111.41,37.092 111.294,37.769C111.159,38.564 110.201,39.117 109.413,38.921C107.7,38.495 106.152,37.719 104.732,36.678C103.225,35.573 101.91,34.265 100.68,32.864C98.377,30.24 96.291,27.45 94.375,24.537C91.059,19.491 87.785,14.418 84.495,9.356C84.242,8.966 84.001,8.568 83.755,8.175C83.171,7.243 82.406,6.686 81.249,6.527C79.967,6.353 78.787,6.321 77.492,6.676C73.391,7.801 69.25,7.997 65.139,6.604C64.593,6.418 64.025,6.209 63.462,6.191C63.042,6.179 62.584,6.412 62.213,6.647C62.137,6.694 62.336,7.25 62.47,7.544C62.66,7.964 62.969,8.338 63.114,8.771C63.338,9.436 63.383,10.098 62.96,10.763C61.277,13.407 59.683,16.108 57.96,18.727C55.535,22.414 53.027,26.048 50.549,29.7C50.027,30.47 49.479,31.221 48.949,31.983C48.688,32.361 48.379,32.798 48.621,33.224C48.708,33.378 49.277,33.331 49.604,33.265C50.627,33.058 51.632,32.757 52.658,32.566C54.059,32.305 54.952,32.81 55.735,34.255C55.909,34.574 55.863,34.939 55.568,35.194C55.294,35.433 54.951,35.562 54.632,35.306C53.633,34.504 52.546,34.513 51.347,34.755C49.987,35.029 48.598,35.19 47.213,35.301C46.137,35.387 45.152,35.645 44.298,36.303C41.611,38.373 38.54,39.777 35.576,41.366C34.353,42.022 33.033,42.513 32.021,43.527C31.909,43.639 31.49,43.641 31.395,43.532C31.188,43.297 30.974,42.95 30.994,42.665C31.017,42.358 31.235,41.971 31.49,41.794C32.058,41.401 32.699,41.111 33.317,40.793C35.586,39.625 37.861,38.468 40.124,37.288C40.297,37.197 40.395,36.962 40.528,36.793C40.355,36.704 40.174,36.524 40.012,36.54C38.857,36.654 37.696,36.752 36.558,36.963C34.16,37.406 31.777,37.928 29.383,38.393C28.558,38.553 27.848,38.893 27.238,39.468C26.988,39.704 26.722,39.942 26.421,40.1C26.258,40.186 25.993,40.148 25.8,40.086C25.522,39.996 25.411,39.453 25.559,39.173C26.124,38.103 26.912,37.264 28.12,36.989C30.158,36.526 32.204,36.086 34.26,35.717C36.199,35.369 38.155,35.125 40.099,34.746C38.299,34.648 36.505,34.693 34.71,34.815C33.436,34.9 32.156,35.044 30.884,35.001C29.095,34.941 27.413,35.107 25.982,36.318C25.759,36.508 25.511,36.45 25.387,36.189C25.295,35.995 25.184,35.736 25.241,35.558C25.546,34.604 26.278,34.044 27.166,33.685C27.482,33.556 27.841,33.505 28.186,33.478C33.167,33.085 38.154,32.846 43.151,32.855C43.611,32.855 44.071,32.97 44.53,33.04C45.296,33.157 45.836,32.909 46.258,32.213C48.004,29.334 49.741,26.446 51.579,23.626C53.545,20.61 55.624,17.668 57.648,14.69C58.105,14.018 58.578,13.352 58.981,12.648C60.969,9.175 60.772,9.724 58.258,7.143C57.826,6.699 57.289,6.517 56.694,6.491C55.418,6.438 54.14,6.434 52.866,6.351C48.342,6.055 44.292,4.416 40.546,1.939C39.676,1.363 38.814,0.773 37.926,0.23C37.778,0.139 37.46,0.177 37.305,0.28C37.022,0.468 36.772,0.727 36.561,0.996C32.19,6.573 27.826,12.155 23.467,17.742C23.184,18.107 22.957,18.515 22.71,18.906C22.531,19.191 22.687,19.663 23.031,19.703C24.202,19.841 24.96,20.447 25.241,21.585C25.319,21.9 25.247,22.264 25.198,22.598C25.156,22.879 24.949,22.951 24.664,22.924C24.138,22.875 23.876,22.49 23.591,22.138C23.188,21.641 22.676,21.437 22.06,21.568C21.268,21.736 20.47,21.901 19.699,22.144C17.484,22.84 15.31,23.68 13.067,24.262C11.138,24.763 9.349,25.555 7.526,26.311C6.665,26.668 6.295,27.27 6.063,28.088C6.021,28.238 5.723,28.368 5.521,28.412C5.078,28.508 4.915,28.143 4.817,27.826C4.447,26.625 4.685,26.052 5.737,25.566C6.789,25.081 7.858,24.631 8.903,24.131C9.06,24.056 9.125,23.792 9.233,23.615C9.12,23.591 9.003,23.536 8.893,23.548C7.738,23.665 6.584,23.787 5.431,23.919C4.739,23.998 3.969,23.937 3.384,24.233C2.812,24.524 2.436,25.195 1.96,25.687C1.889,25.76 1.694,25.826 1.643,25.786C1.484,25.661 1.278,25.497 1.251,25.324C1.2,24.991 1.206,24.629 1.283,24.301C1.514,23.326 2.014,22.648 3.131,22.53C6.134,22.218 9.132,21.854 12.357,21.484" style="fill-rule:nonzero;"/>
                    </g>
                    <g transform="matrix(1,0,0,1,85.4438,405.236)">
                        <path d="M0,-6.093C0.116,-6.095 0.266,-6.147 0.344,-6.093C2.649,-4.534 4.785,-2.795 6.258,-0.376C6.291,-0.323 6.207,-0.17 6.14,-0.096C6.077,-0.026 5.969,0.03 5.875,0.041C5.764,0.054 5.623,0.047 5.535,-0.012C3.304,-1.5 1.255,-3.184 -0.172,-5.501C-0.245,-5.618 -0.063,-5.892 0,-6.093" style="fill-rule:nonzero;"/>
                    </g>
                    <g transform="matrix(1,0,0,1,91.3784,404.632)">
                        <path d="M0,-5.545C0.22,-5.514 0.488,-5.552 0.653,-5.44C2.672,-4.066 4.482,-2.45 6.127,-0.649C6.336,-0.42 6.326,-0.218 6.083,-0.081C5.995,-0.03 5.859,0.007 5.77,-0.024C5.446,-0.136 5.1,-0.231 4.823,-0.421C3.485,-1.338 2.135,-2.243 0.857,-3.239C0.331,-3.649 -0.038,-4.269 -0.457,-4.81C-0.632,-5.037 -0.554,-5.26 -0.3,-5.404C-0.205,-5.459 -0.1,-5.498 0,-5.545" style="fill-rule:nonzero;"/>
                    </g>
                    <g transform="matrix(1,0,0,1,67.3096,372.78)">
                        <path d="M0,0.306C0.036,-0.673 0.041,-2.065 0.164,-3.447C0.2,-3.86 0.561,-4.249 0.79,-4.637C0.828,-4.701 0.989,-4.764 1.037,-4.735C1.129,-4.68 1.247,-4.55 1.238,-4.465C0.9,-1.339 1.313,1.74 1.817,4.814C1.829,4.888 1.663,5.07 1.64,5.06C1.437,4.974 1.16,4.905 1.068,4.74C0.373,3.494 0.281,2.092 0,0.306" style="fill-rule:nonzero;"/>
                    </g>
                    <g transform="matrix(1,0,0,1,77.5366,385.761)">
                        <path d="M0,7.442C-0.083,7.438 -0.203,7.466 -0.287,7.423C-0.489,7.319 -0.703,7.211 -0.863,7.054C-2.772,5.181 -3.601,2.833 -3.829,0.228C-3.834,0.159 -3.705,0.04 -3.617,0.011C-3.515,-0.021 -3.336,-0.024 -3.283,0.039C-3.139,0.208 -3.015,0.407 -2.935,0.615C-2.063,2.89 -1.198,5.169 0.228,7.179C0.243,7.201 0.085,7.345 0,7.442" style="fill-rule:nonzero;"/>
                    </g>
                    <g transform="matrix(1,0,0,1,109.856,415.388)">
                        <path d="M0,-3.647C0.113,-3.628 0.242,-3.638 0.337,-3.585C2.043,-2.644 3.749,-1.702 5.437,-0.728C5.538,-0.67 5.513,-0.35 5.496,-0.157C5.491,-0.096 5.317,0 5.228,-0.007C4.888,-0.038 4.532,-0.051 4.215,-0.164C2.571,-0.747 1.135,-1.686 -0.164,-2.835C-0.277,-2.935 -0.236,-3.237 -0.222,-3.442C-0.217,-3.515 -0.078,-3.58 0,-3.647" style="fill-rule:nonzero;"/>
                    </g>
                    <g transform="matrix(1,0,0,1,77.4556,392.474)">
                        <path d="M0,-4.933C0.116,-4.939 0.284,-4.995 0.338,-4.941C0.571,-4.705 0.789,-4.451 0.98,-4.18C1.846,-2.957 2.708,-1.733 3.543,-0.49C3.593,-0.415 3.416,-0.152 3.298,-0.016C3.243,0.047 3.055,0.062 2.967,0.018C2.663,-0.132 2.332,-0.27 2.091,-0.498C0.979,-1.554 0.202,-2.826 -0.166,-4.322C-0.21,-4.501 -0.06,-4.728 0,-4.933" style="fill-rule:nonzero;"/>
                    </g>
                    <g transform="matrix(1,0,0,1,97.1553,402.193)">
                        <path d="M0,-2.714C0.21,-2.75 0.453,-2.872 0.625,-2.808C2.018,-2.283 3.234,-1.468 4.309,-0.443C4.382,-0.374 4.455,-0.173 4.445,-0.167C4.261,-0.054 4.035,0.158 3.875,0.118C2.437,-0.239 1.082,-0.791 0.002,-1.852C-0.14,-1.992 -0.182,-2.254 -0.22,-2.469C-0.231,-2.535 -0.078,-2.631 0,-2.714" style="fill-rule:nonzero;"/>
                    </g>
                    <g transform="matrix(1,0,0,1,113.447,413.519)">
                        <path d="M0,-2.27C0.109,-2.291 0.226,-2.347 0.327,-2.327C1.784,-2.031 3.173,-1.564 4.38,-0.661C4.461,-0.6 4.554,-0.405 4.524,-0.371C4.393,-0.214 4.223,0.018 4.06,0.023C2.394,0.077 0.952,-0.455 -0.168,-1.73C-0.23,-1.799 -0.264,-1.946 -0.235,-2.029C-0.201,-2.124 -0.082,-2.191 0,-2.27" style="fill-rule:nonzero;"/>
                    </g>
                    <g transform="matrix(1,0,0,1,75.6431,341.279)">
                        <path d="M0,1.596C-0.091,1.837 -0.103,1.954 -0.168,2.018C-0.239,2.087 -0.368,2.154 -0.457,2.138C-1.727,1.914 -2.907,1.508 -3.619,0.326C-3.707,0.182 -3.684,-0.133 -3.58,-0.261C-3.459,-0.41 -3.151,-0.558 -2.997,-0.504C-1.783,-0.071 -0.915,0.834 0,1.596" style="fill-rule:nonzero;"/>
                    </g>
                    <g transform="matrix(1,0,0,1,67.8213,344.641)">
                        <path d="M0,-2.845C0.091,-2.877 0.205,-2.962 0.269,-2.935C1.638,-2.34 2.882,-1.543 3.99,-0.546C4.088,-0.457 4.019,-0.163 3.989,0.03C3.983,0.067 3.787,0.117 3.696,0.093C2.213,-0.289 1.003,-1.117 -0.025,-2.229C-0.091,-2.301 -0.108,-2.443 -0.104,-2.55C-0.1,-2.65 -0.037,-2.747 0,-2.845" style="fill-rule:nonzero;"/>
                    </g>
                    <g transform="matrix(1,0,0,1,71.4146,374.869)">
                        <path d="M0,0.05C0.065,0.725 0.138,1.399 0.187,2.074C0.194,2.17 0.071,2.365 0.037,2.36C-0.159,2.322 -0.446,2.295 -0.521,2.162C-1.288,0.803 -1.32,-0.642 -0.929,-2.118C-0.908,-2.197 -0.737,-2.315 -0.694,-2.294C-0.534,-2.217 -0.298,-2.109 -0.27,-1.975C-0.129,-1.309 -0.045,-0.631 0.059,0.044C0.039,0.046 0.02,0.048 0,0.05" style="fill-rule:nonzero;"/>
                    </g>
                    <g transform="matrix(1,0,0,1,80.8145,392.062)">
                        <path d="M0,-3.4C0.199,-3.358 0.454,-3.38 0.589,-3.263C1.605,-2.38 2.596,-1.468 3.598,-0.569C3.819,-0.371 3.791,-0.203 3.488,-0.077C3.39,-0.036 3.254,0 3.165,-0.035C1.655,-0.628 0.451,-1.56 -0.166,-3.117C-0.191,-3.179 -0.059,-3.304 0,-3.4" style="fill-rule:nonzero;"/>
                    </g>
                    <g transform="matrix(1,0,0,1,74.5923,375.475)">
                        <path d="M0,1.287C-0.012,1.251 0.109,1.464 0.122,1.682C0.133,1.871 0.021,2.067 -0.037,2.261C-0.243,2.186 -0.57,2.167 -0.633,2.028C-0.958,1.309 -1.228,0.565 -1.49,-0.179C-1.609,-0.517 -1.313,-0.974 -1.025,-0.914C-0.84,-0.877 -0.58,-0.756 -0.526,-0.609C-0.334,-0.076 -0.215,0.482 0,1.287" style="fill-rule:nonzero;"/>
                    </g>
                    <g transform="matrix(1,0,0,1,78.9346,341.103)">
                        <path d="M0,0.743C-0.079,0.81 -0.148,0.902 -0.24,0.94C-0.774,1.164 -1.308,1.106 -1.844,0.927C-2.337,0.761 -2.645,0.276 -2.43,-0.034C-2.212,-0.349 -1.892,-0.421 -1.564,-0.282C-1.066,-0.071 -0.584,0.181 -0.108,0.438C-0.038,0.476 -0.034,0.639 0,0.743" style="fill-rule:nonzero;"/>
                    </g>
                    <g transform="matrix(1,0,0,1,76.4521,376.749)">
                        <path d="M0,-2.445C0.093,-2.433 0.211,-2.453 0.274,-2.403C0.921,-1.883 1.245,-1.191 1.304,-0.374C1.31,-0.282 1.238,-0.115 1.176,-0.1C0.992,-0.057 0.738,0.008 0.61,-0.08C-0.118,-0.583 -0.281,-1.33 -0.175,-2.159C-0.162,-2.26 -0.061,-2.35 0,-2.445" style="fill-rule:nonzero;"/>
                    </g>
                    <g transform="matrix(1,0,0,1,106.276,399.091)">
                        <path d="M0,0.306C-0.007,0.392 0.014,0.494 -0.027,0.546C-0.095,0.628 -0.206,0.733 -0.296,0.732C-0.849,0.725 -1.408,0.737 -1.951,0.654C-2.476,0.573 -2.955,-0.004 -2.736,-0.138C-2.475,-0.299 -2.119,-0.431 -1.827,-0.395C-1.172,-0.313 -0.506,-0.187 0,0.306" style="fill-rule:nonzero;"/>
                    </g>
                    <g transform="matrix(1,0,0,1,100.199,413.776)">
                        <path d="M0,-1.738C0.628,-1.596 0.916,-1.088 1.211,-0.604C1.357,-0.366 1.266,-0.142 1.005,-0.037C0.911,0 0.766,-0.024 0.669,-0.071C0.123,-0.332 -0.205,-0.783 -0.363,-1.355C-0.387,-1.439 -0.328,-1.576 -0.262,-1.647C-0.206,-1.709 -0.086,-1.712 0,-1.738" style="fill-rule:nonzero;"/>
                    </g>
                    <g transform="matrix(1,0,0,1,111.548,352.732)">
                        <path d="M0,3.228C-0.443,3.17 -0.687,3.181 -0.899,3.103C-1.604,2.845 -1.939,3.192 -2.222,3.786C-2.772,4.941 -3.528,5.018 -4.493,4.585C-4.81,4.443 -5.108,4.258 -5.426,4.123C-6.049,3.857 -6.108,3.827 -6.736,4.732C-7.212,5.417 -7.812,5.589 -8.521,5.414C-9.072,5.277 -9.632,5.055 -10.104,4.745C-11.584,3.772 -12.694,2.464 -13.366,0.811C-13.394,0.743 -13.287,0.589 -13.207,0.516C-13.151,0.465 -12.998,0.441 -12.948,0.48C-12.592,0.761 -12.234,1.044 -11.908,1.36C-11.079,2.161 -10.282,2.996 -9.439,3.782C-9.041,4.154 -8.366,4.235 -8.169,4.039C-7.881,3.75 -7.952,3.416 -8.006,3.075C-8.042,2.846 -8.085,2.615 -8.079,2.385C-8.051,1.368 -7.288,0.861 -6.466,1.327C-5.864,1.668 -5.292,2.063 -4.699,2.421C-4.344,2.636 -4.003,2.525 -3.879,2.153C-3.807,1.935 -3.808,1.694 -3.733,1.478C-3.491,0.779 -3.057,0.483 -2.481,0.608C-2.256,0.658 -2.021,0.701 -1.819,0.801C-0.088,1.662 0.58,0.853 1.241,-0.376C1.563,-0.975 1.73,-1.659 2.018,-2.28C2.052,-2.354 2.505,-2.361 2.594,-2.256C2.808,-2.004 3.028,-1.676 3.054,-1.364C3.199,0.397 2.407,1.77 1.09,2.843C0.762,3.11 0.246,3.146 0,3.228" style="fill-rule:nonzero;"/>
                    </g>
                    <g transform="matrix(1,0,0,1,92.3882,303.873)">
                        <path d="M0,-1.383C0.637,-1.162 1.28,-0.946 1.914,-0.705C1.963,-0.687 1.974,-0.488 1.953,-0.383C1.936,-0.293 1.852,-0.148 1.792,-0.145C0.537,-0.083 -0.72,-0.037 -1.976,-0.001C-2.018,0 -2.104,-0.143 -2.099,-0.213C-2.091,-0.32 -2.048,-0.481 -1.973,-0.516C-1.349,-0.807 -0.714,-1.073 0,-1.383" style="fill-rule:nonzero;"/>
                    </g>
                    <g transform="matrix(1,0,0,1,71.7061,304.212)">
                        <path d="M0,-2.802C0.046,-2.703 0.148,-2.591 0.127,-2.514C-0.146,-1.539 -0.621,-0.673 -1.331,0.052C-1.384,0.107 -1.546,0.098 -1.635,0.063C-1.734,0.023 -1.886,-0.092 -1.877,-0.156C-1.739,-1.19 -1.398,-2.138 -0.562,-2.821C-0.453,-2.909 -0.19,-2.813 0,-2.802" style="fill-rule:nonzero;"/>
                    </g>
                    <g transform="matrix(1,0,0,1,68.0732,304.896)">
                        <path d="M0,-3.242C0.078,-3.16 0.218,-3.083 0.225,-2.995C0.304,-1.96 0.051,-1.007 -0.553,-0.158C-0.612,-0.076 -0.755,0 -0.847,-0.013C-0.938,-0.024 -1.084,-0.149 -1.087,-0.229C-1.117,-1.14 -0.943,-2.016 -0.497,-2.815C-0.397,-2.995 -0.169,-3.102 0,-3.242" style="fill-rule:nonzero;"/>
                    </g>
                    <g transform="matrix(1,0,0,1,83.1016,298.105)">
                        <path d="M0,1.368C-0.166,1.167 -0.304,1.042 -0.381,0.886C-0.411,0.826 -0.33,0.663 -0.254,0.605C0.298,0.184 0.925,0 1.617,0.099C1.706,0.112 1.811,0.233 1.847,0.327C1.875,0.401 1.833,0.569 1.776,0.596C1.183,0.867 0.58,1.119 0,1.368" style="fill-rule:nonzero;"/>
                    </g>
                    <g transform="matrix(1,0,0,1,63.7373,305.982)">
                        <path d="M0,-1.386C0.15,-0.771 -0.216,-0.338 -0.513,0.113C-0.543,0.16 -0.688,0.192 -0.722,0.163C-0.794,0.1 -0.892,-0.031 -0.869,-0.09C-0.674,-0.592 -0.454,-1.083 -0.241,-1.578C-0.159,-1.513 -0.077,-1.448 0,-1.386" style="fill-rule:nonzero;"/>
                    </g>
                    <g transform="matrix(1,0,0,1,94.0234,342.003)">
                        <path d="M0,4.608C0.852,3.167 1.884,1.835 3.005,0.576C4.142,-0.668 5.388,-1.837 6.822,-2.795C8.245,-3.754 9.886,-4.515 11.709,-4.699C13.56,-4.843 15.285,-4.331 16.89,-3.715C18.484,-3.048 19.962,-2.194 21.386,-1.271C22.789,-0.317 24.131,0.712 25.395,1.828C27.903,4.069 30.208,6.577 31.934,9.451C29.726,6.944 27.261,4.735 24.672,2.701C22.059,0.715 19.312,-1.136 16.341,-2.371C14.867,-2.972 13.304,-3.411 11.819,-3.331C10.311,-3.258 8.812,-2.625 7.421,-1.838C6.033,-1.025 4.73,-0.019 3.504,1.079C2.271,2.171 1.108,3.358 0,4.608" style="fill:white;fill-rule:nonzero;"/>
                    </g>
                    <g transform="matrix(1,0,0,1,115.054,340.765)">
                        <path d="M0,5.147C-1.645,4.466 -3.044,3.606 -4.454,2.752C-5.157,2.328 -5.849,1.895 -6.545,1.453C-7.246,1.015 -7.949,0.591 -8.698,0.091C-7.804,0 -6.915,0.162 -6.071,0.414C-5.234,0.686 -4.438,1.062 -3.695,1.514C-2.956,1.972 -2.266,2.501 -1.637,3.099C-1.016,3.704 -0.434,4.358 0,5.147" style="fill:white;fill-rule:nonzero;"/>
                    </g>
                    <g transform="matrix(1,0,0,1,109.61,344.241)">
                        <path d="M0,5.148C-1.645,4.467 -3.045,3.607 -4.454,2.752C-5.158,2.329 -5.849,1.896 -6.546,1.453C-7.247,1.015 -7.949,0.592 -8.698,0.092C-7.804,0 -6.916,0.163 -6.071,0.414C-5.235,0.686 -4.439,1.063 -3.696,1.515C-2.957,1.973 -2.266,2.502 -1.637,3.099C-1.016,3.705 -0.434,4.358 0,5.148" style="fill:white;fill-rule:nonzero;"/>
                    </g>
                </g>
            </g>
        </g>
    </g>
</svg>
