<?xml version="1.0" encoding="UTF-8" standalone="no"?>
<!DOCTYPE svg PUBLIC "-//W3C//DTD SVG 1.1//EN" "http://www.w3.org/Graphics/SVG/1.1/DTD/svg11.dtd">
<svg width="100%" height="100%" viewBox="0 0 534 534" version="1.1" xmlns="http://www.w3.org/2000/svg" xmlns:xlink="http://www.w3.org/1999/xlink" xml:space="preserve" xmlns:serif="http://www.serif.com/" style="fill-rule:evenodd;clip-rule:evenodd;stroke-linejoin:round;stroke-miterlimit:2;">
    <g transform="matrix(1,0,0,1,-1344.2,-3218.43)">
        <g id="bird18" transform="matrix(1,0,0,1,1344.2,3218.43)">
            <rect x="0" y="0" width="533.333" height="533.333" style="fill:none;"/>
            <clipPath id="_clip1">
                <rect x="0" y="0" width="533.333" height="533.333"/>
            </clipPath>
            <g clip-path="url(#_clip1)">
                <g transform="matrix(0.95869,0,0,0.95869,-352.649,-1171.49)">
                    <path d="M896.392,1378.35C894.735,1378.35 894.033,1378.44 893.366,1378.33C888.523,1377.51 883.379,1379.94 878.738,1376.98C882.855,1373.01 886.962,1369.03 891.099,1365.09C892.195,1364.04 893.514,1363.84 894.845,1364.61C896.029,1365.3 897.14,1366.11 898.29,1366.85C903.253,1370.06 909.429,1371.63 912.535,1377.36C906.921,1379.26 901.112,1377.81 896.392,1378.35ZM879.255,1397.97C877.816,1410.38 873.497,1421.99 868.964,1433.53C867.706,1436.73 866.33,1439.92 865.401,1443.22C862.465,1453.67 861.529,1454.2 851.11,1452.4C838.416,1450.21 826.622,1445.56 815.317,1439.63C804.839,1434.13 793.642,1431.04 782.169,1428.57C776.815,1427.42 772.01,1430.19 766.851,1430.04C765.569,1436.81 767.817,1442.98 770.473,1448.94C778.008,1465.84 774.653,1480.94 763.373,1494.88C751.978,1513.68 733.969,1524.88 714.093,1530.37C701.183,1533.94 686.068,1530.95 673.032,1524.42C670.851,1523.32 668.276,1520.93 668.963,1518.92C669.805,1516.46 672.387,1519.31 674.307,1519.21C676.942,1519.07 677.92,1517.64 678.255,1515.35C671.994,1511.25 663.957,1510.28 658.931,1503.86C656.25,1500.43 656.709,1499.27 660.851,1498.81C663.918,1498.47 666.987,1497.98 669.989,1497.28C672.011,1496.81 674.156,1495.85 673.535,1493.16C672.915,1490.46 670.787,1490.63 668.61,1491.09C665.929,1491.65 663.237,1492.41 660.523,1492.54C646.841,1493.22 638.197,1483.61 640.09,1470.01C640.956,1463.79 638.724,1461.91 632.181,1464.19C624.378,1466.91 616.793,1470.25 609.064,1473.19C607.607,1473.74 605.638,1474.51 604.563,1472.8C604.286,1472.36 605.81,1470.55 606.759,1469.62C618.856,1457.81 630.984,1446.03 643.147,1434.28C645.142,1432.36 647.479,1430.89 650.191,1430.09C674.984,1422.68 700.161,1418.01 725.401,1426.6C742.454,1432.39 754.071,1425.68 764.301,1413.55C767.349,1409.94 769.562,1405.91 774.964,1409.75C802.649,1419.79 828.28,1417.42 851.299,1397.6C855.699,1393.82 861.036,1391.12 865.899,1387.86C870.445,1384.81 874.729,1387.09 878.628,1388.95C883.3,1391.19 879.607,1394.94 879.255,1397.97ZM835.62,1580.87C801.539,1616.25 758.944,1635.43 710.462,1642C704.597,1642.8 699.541,1642.53 696.24,1636.7C695.462,1635.33 693.748,1635.88 692.395,1635.92C693.195,1641.4 691.525,1644.57 685.308,1643.54C684.634,1643.43 683.853,1643.28 683.256,1643.5C673.951,1646.99 669.725,1632.52 658.01,1637.77C650.351,1641.21 639.888,1633.61 630.875,1630.29C621.805,1626.95 613.128,1622.77 604.727,1618.03C596.309,1613.29 588.495,1607.63 581.034,1601.5C575.699,1597.12 571.44,1591.54 566.328,1587.08C562.226,1583.5 567.157,1577.44 561.556,1575.31C536.453,1591.73 511.245,1608 486.278,1624.62C463.013,1640.12 439.958,1655.94 415.087,1668.81C405.004,1674.03 394.802,1679.25 383.019,1679.47C380.292,1679.52 376.619,1680.04 375.831,1676.9C375.081,1673.9 378.542,1672.59 380.797,1671.09C431.092,1637.61 482.7,1606.26 534.511,1575.21C542.852,1570.21 551.093,1572.09 559.504,1571.6C604.416,1566.74 649.05,1560.41 692.272,1546.56C693.518,1546.16 694.968,1546.4 696.322,1546.34C705.079,1542.29 713.799,1538.15 722.601,1534.19C739.528,1526.59 754.984,1516.91 766.481,1502.03C780.107,1484.39 785.133,1465.38 775.343,1443.94C771.421,1435.35 772.913,1433.72 782.347,1434.66C792.84,1435.71 802.292,1439.96 811.657,1444.49C827.601,1452.21 843.868,1459.06 862.035,1458.75C867.712,1458.66 867.767,1462.46 868.519,1466.14C877.518,1510.11 866.534,1548.78 835.62,1580.87ZM759.641,1652.87C769.111,1665.12 781.729,1663.3 794.408,1662.19C795.755,1662.07 797.042,1661.37 798.391,1661.14C799.775,1660.9 801.23,1660.88 800.351,1663.24C800.209,1664.64 794.333,1665.25 799.573,1667.69C801.74,1668.7 804.132,1669.22 806.324,1670.18C807.325,1670.62 809.199,1670.79 808.552,1672.56C808.39,1673 806.551,1673.24 805.684,1672.96C792.506,1668.65 779.156,1665.65 765.144,1666.94C764.225,1667.02 762.404,1666.41 762.417,1666.2C763.214,1653.37 750.479,1652.88 744.37,1646.41C743.305,1645.28 740.707,1644.69 741.723,1642.92C742.673,1641.27 744.969,1642.29 746.364,1643.23C750.92,1646.3 756.427,1648.71 759.641,1652.87ZM752.742,1662.58C750.3,1669.32 742.548,1674.57 734.286,1674.62C730.383,1675.5 727.352,1673.54 724.728,1670.47C722.49,1667.86 719.954,1665.48 717.904,1662.73C714.508,1658.18 708.416,1655.49 707.637,1649.29C707.392,1647.34 730.874,1646.07 734.102,1648.12C739.614,1651.61 745.073,1655.19 750.454,1658.88C751.617,1659.68 753.629,1660.13 752.742,1662.58ZM744.812,1687.9C746.242,1688.8 747.531,1689.92 748.882,1690.94C746.806,1692.68 744.972,1691.28 743.345,1690.27C729.739,1681.84 715.635,1684.75 701.496,1688.3C700.227,1688.62 698.53,1689.89 697.919,1688.36C697.505,1687.32 699.393,1686.31 700.737,1685.88C705.007,1684.51 709.254,1683.21 713.859,1683.31C715.853,1683.35 718.053,1682.69 717.834,1679.25C713.988,1674.9 710.093,1670.07 705.743,1665.69C701.862,1661.78 697.427,1658.43 693.346,1654.71C691.912,1653.41 689.353,1651.82 690.938,1649.73C692.777,1647.3 695.47,1648.58 697.258,1650.39C704.552,1657.76 712.256,1664.82 718.751,1672.85C723.295,1678.47 727.307,1682.3 735.014,1679.67C737.507,1678.82 740.514,1679.28 743.269,1679.44C745.464,1679.57 749.013,1678.38 749.142,1681.71C749.24,1684.27 745.974,1683.24 744.103,1683.57C743.185,1683.73 741.565,1684.1 741.541,1684.47C741.395,1686.62 743.387,1687 744.812,1687.9ZM559.527,1600.98C522.771,1623.36 485.965,1645.67 449.102,1667.87C442.897,1671.61 436.237,1674.46 429.303,1675.27C426.933,1674.92 424.084,1676.07 423.299,1673.85C422.17,1670.65 425.852,1670.18 427.573,1669.08C446.119,1657.18 464.858,1645.58 483.421,1633.71C506.338,1619.05 529.331,1604.5 551.862,1589.26C557.784,1585.26 559.95,1587.55 563.29,1591.83C567.745,1597.54 562.69,1599.05 559.527,1600.98ZM556.439,1559.22C580.14,1556.59 603.224,1551.26 625.738,1543.5C638.113,1539.24 650.348,1534.56 662.619,1530C665.153,1529.06 667.26,1527.53 670.263,1529.49C677.384,1534.12 685.571,1535.43 693.891,1536.05C694.891,1536.12 696.714,1536.41 696.725,1536.67C696.798,1538.3 695.295,1538.82 694.1,1539.39C687.825,1542.39 680.983,1543.52 674.328,1545.26C635.621,1555.4 596.409,1562.51 556.831,1565.22C551.542,1563.92 546.274,1566.85 541.648,1563.42C545.651,1558.79 551.321,1559.78 556.439,1559.22ZM547.265,1549.48C549.048,1545.4 552.562,1544.89 556.584,1544.37C590.607,1540.01 623.812,1532.33 655.694,1519.4C657.931,1518.49 660.846,1515.39 662.727,1519.33C664.608,1523.28 661.28,1524.76 658.236,1525.9C633.967,1534.94 609.461,1543.19 584.184,1549.05C573.039,1551.64 561.691,1552.62 550.551,1554.53C548.971,1554.13 546.79,1555.56 546.149,1553.35C545.831,1552.26 546.72,1550.73 547.265,1549.48ZM556.566,1533.82C558.81,1530.59 559.693,1526.37 565.062,1525.85C591.497,1523.3 615.729,1513.33 639.788,1502.92C648.131,1499.31 652.698,1501.13 655.851,1509.69C657.536,1514.27 653.149,1513.83 651.218,1514.59C629.036,1523.3 606.07,1529.36 582.765,1534.17C575.01,1535.76 567.183,1537.02 559.389,1538.43C555.221,1538.8 554.136,1537.32 556.566,1533.82ZM568.104,1516.24C572.514,1510.36 575.711,1504.37 585.461,1504.31C598.51,1504.24 610.784,1498.62 622.693,1493.13C626.431,1491.4 630.174,1489.62 634.065,1488.31C637.882,1487.02 639.743,1490.23 641.336,1492.72C643.031,1495.37 640.423,1496 638.609,1496.91C617.253,1507.62 594.338,1513.65 571.31,1519.33C570.98,1519.41 570.626,1519.4 570.284,1519.43C567.767,1519.59 565.829,1519.28 568.104,1516.24ZM584.675,1494.47C590.236,1487.22 594.801,1479.15 606.289,1479.87C612.368,1480.25 618.041,1476.5 623.695,1473.97C626.188,1472.85 629.608,1469.46 631.569,1473.41C633.057,1476.41 633.706,1480.93 629.249,1483.37C615.898,1490.68 601.9,1496.17 587.015,1498.4C582.913,1498.77 582.521,1497.28 584.675,1494.47ZM659.352,1415.47C669.941,1405.05 680.609,1394.7 691.389,1384.47C696.404,1379.71 701.846,1375.36 705.745,1369.58C708.846,1364.97 713.721,1363.18 718.355,1360.91C732.468,1354.01 747.239,1349.6 761.266,1348.96C774.235,1348.99 785.031,1351.5 795.44,1355.22C804.983,1358.63 815.892,1358.09 824.137,1365.55C826.203,1367.41 830.262,1368.13 833.035,1366.26C843.898,1358.94 856.451,1362.51 868.101,1360.41C870.477,1359.98 872.924,1359.56 875.311,1359.68C878.723,1359.84 883.527,1356.27 885.221,1360.99C886.533,1364.64 881.651,1366.23 879.021,1368.21C868.632,1376.01 858.806,1384.53 848.634,1392.59C827.203,1409.58 804.415,1414.55 778.957,1404.25C770.573,1400.86 765.338,1402.26 759.663,1409.69C751.479,1420.41 741.207,1426.04 726.318,1420.78C705.162,1413.31 683.357,1415.82 661.824,1420.5C659.635,1420.97 656.595,1423.18 655.446,1421C654.475,1419.16 657.707,1417.09 659.352,1415.47ZM834.016,1359.81C830.897,1361.94 827.127,1362.29 825.284,1357.56L825.056,1357.56C825.044,1357.47 825.066,1357.42 825.055,1357.33C821.841,1355.62 819.508,1352.99 821.977,1349.61C825.205,1345.19 829.615,1345 833.922,1348.65C836.791,1352.37 838.952,1356.45 834.016,1359.81ZM720.893,1346.31C743.522,1315 774.319,1298.74 812.79,1299.75C844.479,1300.59 866.942,1317.56 881.376,1345.47C883.786,1350.13 883.842,1352.87 877.316,1353.67C871.169,1354.44 865.105,1355.72 858.064,1355.33C850.819,1356.05 844.313,1355.83 839.648,1346.5C835.135,1337.47 821.931,1338.57 816.707,1347.71C813.849,1352.71 811.478,1353.47 806.241,1351.77C797.77,1349 788.968,1347.23 780.276,1345.16C761.058,1340.6 742.716,1344.12 724.788,1351.32C722.656,1352.18 720.096,1354.66 718.274,1352.28C716.485,1349.94 719.568,1348.14 720.893,1346.31ZM901.759,1362.21C895.486,1359.22 891.671,1355.06 888.922,1348.44C872.771,1309.54 838.612,1290.01 796.991,1294.46C761.569,1298.24 733.923,1315.64 714.663,1344.43C701.223,1364.53 685.94,1382.25 667.89,1397.98C663.208,1402.06 658.923,1406.64 654.758,1411.26C646.451,1420.48 639.06,1430.39 629.667,1438.79C594.635,1470.11 564.206,1505.31 541.921,1547.05C538.994,1552.53 533.922,1557.71 533.359,1563.38C532.705,1569.98 528.949,1571.69 524.708,1574.23C476.121,1603.37 427.543,1632.51 380.777,1664.55C377.092,1667.07 373.334,1669.73 370.377,1673.02C366.076,1677.8 367.357,1681.72 373.432,1684C381.349,1686.98 389.324,1685.34 396.878,1683.03C406.472,1680.09 415.466,1674.43 425.956,1680.34C427.718,1681.34 430.691,1680.32 433.082,1680.03C441.894,1678.99 449.425,1674.82 456.862,1670.32C492.352,1648.89 527.939,1627.62 563.327,1606.02C568.675,1602.76 572.138,1602.22 577.632,1606.55C604.074,1627.43 633.479,1642.1 667.384,1646.38C670.522,1646.77 673.489,1647.78 676.041,1649.61C686.443,1657.08 696.368,1665.13 705.537,1674.1C708.667,1677.16 708.933,1678.66 703.876,1679.67C696.319,1681.17 690.989,1686.03 687.511,1692.86C686.198,1695.44 682.882,1698.08 686.171,1701.02C689.451,1703.95 691.794,1700.94 693.929,1698.71C696.104,1696.43 698.442,1694.48 701.481,1693.4C721.418,1686.36 739.488,1691.21 756.606,1702.03C758.97,1703.53 760.221,1708.33 763.906,1705.59C766.401,1703.74 764.795,1700.56 763.559,1697.98C763.029,1696.87 761.468,1695.52 762.771,1694.34C764.609,1692.66 765.65,1694.85 766.838,1695.77C768.4,1696.98 769.778,1699.18 771.983,1697.04C773.91,1695.18 772.52,1693.22 771.599,1691.41C769.376,1687.02 766.275,1683.39 762.389,1680.35C760.578,1678.93 756.977,1678.04 757.512,1675.72C758.212,1672.67 762.046,1673.22 764.659,1672.66C777.773,1669.82 789.91,1674.92 802.345,1677.48C805.778,1678.19 808.817,1679.72 810.654,1683.09C811.83,1685.26 813.468,1687.31 816.407,1685.67C818.896,1684.28 817.308,1682.07 817.394,1680.14C817.458,1678.7 814.889,1676.3 818.51,1675.78C825.42,1674.8 826.968,1672.29 822.34,1667.34C816.269,1660.84 809.282,1654.83 799.429,1655.04C793.907,1655.16 788.395,1655.8 783.663,1656.14C771.742,1658.72 766.499,1649.29 758.964,1644.42C753.432,1640.84 753.551,1638.58 759.992,1636.19C776.874,1629.93 792.989,1621.93 808.055,1612.12C855.295,1581.34 891.793,1528.09 872.094,1455.06C870.547,1449.32 870.918,1444.33 873.075,1439C878.518,1425.53 883.575,1411.91 885.677,1397.45C886.392,1392.53 888.838,1390.95 893.683,1390.06C902.479,1388.43 911.027,1385.49 919.71,1383.22C925.528,1381.7 925.083,1378.84 921.569,1375.28C915.9,1369.52 908.914,1365.61 901.759,1362.21Z" style="fill:rgb(16,17,16);fill-rule:nonzero;"/>
                    <path d="M862.035,1458.75C843.868,1459.06 827.601,1452.21 811.657,1444.49C802.292,1439.96 792.84,1435.71 782.347,1434.66C772.913,1433.72 771.421,1435.35 775.343,1443.94C785.133,1465.38 780.107,1484.39 766.481,1502.03C754.984,1516.91 739.528,1526.59 722.601,1534.19C713.799,1538.15 705.079,1542.29 696.322,1546.34C684.986,1559.53 669.287,1564.88 653.383,1569.11C636.469,1573.62 619.18,1576.52 601.468,1575.6C594.585,1575.25 587.664,1575.56 580.763,1575.7C579.628,1575.72 577.678,1574.89 577.615,1577.06C577.592,1577.81 578.622,1578.71 579.352,1579.33C598.902,1595.88 620.453,1609.14 644.174,1618.87C655.619,1623.56 667.109,1628.16 678.386,1633.23C682.969,1635.3 687.516,1636.11 692.395,1635.92C693.748,1635.88 695.462,1635.33 696.24,1636.7C699.541,1642.53 704.597,1642.8 710.462,1642C758.944,1635.43 801.539,1616.25 835.62,1580.87C866.534,1548.78 877.518,1510.11 868.519,1466.14C867.767,1462.46 867.712,1458.66 862.035,1458.75Z" style="fill:rgb(232,207,174);fill-rule:nonzero;"/>
                    <path d="M764.301,1413.55C754.071,1425.68 742.454,1432.39 725.401,1426.6C700.161,1418.01 674.984,1422.68 650.191,1430.09C647.479,1430.89 645.142,1432.36 643.147,1434.28C630.984,1446.03 618.856,1457.81 606.759,1469.62C605.81,1470.55 604.286,1472.36 604.563,1472.8C605.638,1474.51 607.607,1473.74 609.064,1473.19C616.793,1470.25 624.378,1466.91 632.181,1464.19C638.724,1461.91 640.956,1463.79 640.09,1470.01C638.197,1483.61 646.841,1493.22 660.523,1492.54C663.237,1492.41 665.929,1491.65 668.61,1491.09C670.787,1490.63 672.915,1490.46 673.535,1493.16C674.156,1495.85 672.011,1496.81 669.989,1497.28C666.987,1497.98 663.918,1498.47 660.851,1498.81C656.709,1499.27 656.25,1500.43 658.931,1503.86C663.957,1510.28 671.994,1511.25 678.255,1515.35C682.654,1522.09 689.407,1520.15 694.979,1518.77C717.569,1513.2 740.574,1508.53 760.329,1495.03C761.045,1494.55 762.346,1494.91 763.373,1494.88C774.653,1480.94 778.008,1465.84 770.473,1448.94C767.817,1442.98 765.569,1436.81 766.851,1430.04C766.731,1422.15 773.515,1417.02 774.964,1409.75C769.562,1405.91 767.349,1409.94 764.301,1413.55Z" style="fill:rgb(151,152,153);fill-rule:nonzero;"/>
                    <path d="M661.824,1420.5C683.357,1415.82 705.162,1413.31 726.318,1420.78C741.207,1426.04 751.479,1420.41 759.663,1409.69C765.338,1402.26 770.573,1400.86 778.957,1404.25C804.415,1414.55 827.203,1409.58 848.634,1392.59C858.806,1384.53 868.632,1376.01 879.021,1368.21C881.651,1366.23 886.533,1364.64 885.221,1360.99C883.527,1356.27 878.723,1359.84 875.311,1359.68C872.924,1359.56 870.477,1359.98 868.101,1360.41C856.451,1362.51 843.898,1358.94 833.035,1366.26C830.262,1368.13 826.203,1367.41 824.137,1365.55C815.892,1358.09 804.983,1358.63 795.44,1355.22C785.031,1351.5 774.235,1348.99 761.266,1348.96C747.239,1349.6 732.468,1354.01 718.355,1360.91C713.721,1363.18 708.846,1364.97 705.745,1369.58C701.846,1375.36 696.404,1379.71 691.389,1384.47C680.609,1394.7 669.941,1405.05 659.352,1415.47C657.707,1417.09 654.475,1419.16 655.446,1421C656.595,1423.18 659.635,1420.97 661.824,1420.5Z" style="fill:rgb(254,254,254);fill-rule:nonzero;"/>
                    <path d="M724.788,1351.32C742.716,1344.12 761.058,1340.6 780.276,1345.16C788.968,1347.23 797.77,1349 806.241,1351.77C811.478,1353.47 813.849,1352.71 816.707,1347.71C821.931,1338.57 835.135,1337.47 839.648,1346.5C844.313,1355.83 850.819,1356.05 858.064,1355.33C865.105,1355.72 871.169,1354.44 877.316,1353.67C883.842,1352.87 883.786,1350.13 881.376,1345.47C866.942,1317.56 844.479,1300.59 812.79,1299.75C774.319,1298.74 743.522,1315 720.893,1346.31C719.568,1348.14 716.485,1349.94 718.274,1352.28C720.096,1354.66 722.656,1352.18 724.788,1351.32Z" style="fill:rgb(87,87,88);fill-rule:nonzero;"/>
                    <path d="M878.628,1388.95C874.729,1387.09 870.445,1384.81 865.899,1387.86C861.036,1391.12 855.699,1393.82 851.299,1397.6C828.28,1417.42 802.649,1419.79 774.964,1409.75C773.515,1417.02 766.731,1422.15 766.851,1430.04C772.01,1430.19 776.815,1427.42 782.169,1428.57C793.642,1431.04 804.839,1434.13 815.317,1439.63C826.622,1445.56 838.416,1450.21 851.11,1452.4C861.529,1454.2 862.465,1453.67 865.401,1443.22C866.33,1439.92 867.706,1436.73 868.964,1433.53C873.497,1421.99 877.816,1410.38 879.255,1397.97C879.607,1394.94 883.3,1391.19 878.628,1388.95Z" style="fill:rgb(85,85,87);fill-rule:nonzero;"/>
                    <path d="M534.511,1575.21C482.7,1606.26 431.092,1637.61 380.797,1671.09C378.542,1672.59 375.081,1673.9 375.831,1676.9C376.619,1680.04 380.292,1679.52 383.019,1679.47C394.802,1679.25 405.004,1674.03 415.087,1668.81C439.958,1655.94 463.013,1640.12 486.278,1624.62C511.245,1608 536.453,1591.73 561.556,1575.31C560.871,1574.07 560.188,1572.83 559.504,1571.6C551.093,1572.09 542.852,1570.21 534.511,1575.21Z" style="fill:rgb(85,85,86);fill-rule:nonzero;"/>
                    <path d="M644.174,1618.87C620.453,1609.14 598.902,1595.88 579.352,1579.33C578.622,1578.71 577.592,1577.81 577.615,1577.06C577.678,1574.89 579.628,1575.72 580.763,1575.7C587.664,1575.56 594.585,1575.25 601.468,1575.6C619.18,1576.52 636.469,1573.62 653.383,1569.11C669.287,1564.88 684.986,1559.53 696.322,1546.34C694.968,1546.4 693.518,1546.16 692.272,1546.56C649.05,1560.41 604.416,1566.74 559.504,1571.6C560.188,1572.83 560.871,1574.07 561.556,1575.31C567.157,1577.44 562.226,1583.5 566.328,1587.08C571.44,1591.54 575.699,1597.12 581.034,1601.5C588.495,1607.63 596.309,1613.29 604.727,1618.03C613.128,1622.77 621.805,1626.95 630.875,1630.29C639.888,1633.61 650.351,1641.21 658.01,1637.77C669.725,1632.52 673.951,1646.99 683.256,1643.5C683.853,1643.28 684.634,1643.43 685.308,1643.54C691.525,1644.57 693.195,1641.4 692.395,1635.92C687.516,1636.11 682.969,1635.3 678.386,1633.23C667.109,1628.16 655.619,1623.56 644.174,1618.87Z" style="fill:rgb(189,163,131);fill-rule:nonzero;"/>
                    <path d="M551.862,1589.26C529.331,1604.5 506.338,1619.05 483.421,1633.71C464.858,1645.58 446.119,1657.18 427.573,1669.08C425.852,1670.18 422.17,1670.65 423.299,1673.85C424.084,1676.07 426.933,1674.92 429.303,1675.27C436.237,1674.46 442.897,1671.61 449.102,1667.87C485.965,1645.67 522.771,1623.36 559.527,1600.98C562.69,1599.05 567.745,1597.54 563.29,1591.83C559.95,1587.55 557.784,1585.26 551.862,1589.26Z" style="fill:rgb(77,77,77);fill-rule:nonzero;"/>
                    <path d="M556.831,1565.22C596.409,1562.51 635.621,1555.4 674.328,1545.26C680.983,1543.52 687.825,1542.39 694.1,1539.39C695.295,1538.82 696.798,1538.3 696.725,1536.67C696.714,1536.41 694.891,1536.12 693.891,1536.05C685.571,1535.43 677.384,1534.12 670.263,1529.49C667.26,1527.53 665.153,1529.06 662.619,1530C650.348,1534.56 638.113,1539.24 625.738,1543.5C603.224,1551.26 580.14,1556.59 556.439,1559.22C551.321,1559.78 545.651,1558.79 541.648,1563.42C546.274,1566.85 551.542,1563.92 556.831,1565.22Z" style="fill:rgb(108,108,110);fill-rule:nonzero;"/>
                    <path d="M559.389,1538.43C567.183,1537.02 575.01,1535.76 582.765,1534.17C606.07,1529.36 629.036,1523.3 651.218,1514.59C653.149,1513.83 657.536,1514.27 655.851,1509.69C652.698,1501.13 648.131,1499.31 639.788,1502.92C615.729,1513.33 591.497,1523.3 565.062,1525.85C559.693,1526.37 558.81,1530.59 556.566,1533.82C554.136,1537.32 555.221,1538.8 559.389,1538.43Z" style="fill:rgb(162,160,162);fill-rule:nonzero;"/>
                    <path d="M760.329,1495.03C740.574,1508.53 717.569,1513.2 694.979,1518.77C689.407,1520.15 682.654,1522.09 678.255,1515.35C677.92,1517.64 676.942,1519.07 674.307,1519.21C672.387,1519.31 669.805,1516.46 668.963,1518.92C668.276,1520.93 670.851,1523.32 673.032,1524.42C686.068,1530.95 701.183,1533.94 714.093,1530.37C733.969,1524.88 751.978,1513.68 763.373,1494.88C762.346,1494.91 761.045,1494.55 760.329,1495.03Z" style="fill:rgb(125,125,126);fill-rule:nonzero;"/>
                    <path d="M550.551,1554.53C561.691,1552.62 573.039,1551.64 584.184,1549.05C609.461,1543.19 633.967,1534.94 658.236,1525.9C661.28,1524.76 664.608,1523.28 662.727,1519.33C660.846,1515.39 657.931,1518.49 655.694,1519.4C623.812,1532.33 590.607,1540.01 556.584,1544.37C552.562,1544.89 549.048,1545.4 547.265,1549.48C546.72,1550.73 545.831,1552.26 546.149,1553.35C546.79,1555.56 548.971,1554.13 550.551,1554.53Z" style="fill:rgb(156,154,156);fill-rule:nonzero;"/>
                    <path d="M570.284,1519.43C570.626,1519.4 570.98,1519.41 571.31,1519.33C594.338,1513.65 617.253,1507.62 638.609,1496.91C640.423,1496 643.031,1495.37 641.336,1492.72C639.743,1490.23 637.882,1487.02 634.065,1488.31C630.174,1489.62 626.431,1491.4 622.693,1493.13C610.784,1498.62 598.51,1504.24 585.461,1504.31C575.711,1504.37 572.514,1510.36 568.104,1516.24C565.829,1519.28 567.767,1519.59 570.284,1519.43Z" style="fill:rgb(126,125,126);fill-rule:nonzero;"/>
                    <path d="M629.249,1483.37C633.706,1480.93 633.057,1476.41 631.569,1473.41C629.608,1469.46 626.188,1472.85 623.695,1473.97C618.041,1476.5 612.368,1480.25 606.289,1479.87C594.801,1479.15 590.236,1487.22 584.675,1494.47C582.521,1497.28 582.913,1498.77 587.015,1498.4C601.9,1496.17 615.898,1490.68 629.249,1483.37Z" style="fill:rgb(124,122,123);fill-rule:nonzero;"/>
                    <path d="M749.142,1681.71C749.013,1678.38 745.464,1679.57 743.269,1679.44C740.514,1679.28 737.507,1678.82 735.014,1679.67C727.307,1682.3 723.295,1678.47 718.751,1672.85C712.256,1664.82 704.552,1657.76 697.258,1650.39C695.47,1648.58 692.777,1647.3 690.938,1649.73C689.353,1651.82 691.912,1653.41 693.346,1654.71C697.427,1658.43 701.862,1661.78 705.743,1665.69C710.093,1670.07 713.988,1674.9 717.834,1679.25C718.053,1682.69 715.853,1683.35 713.859,1683.31C709.254,1683.21 705.007,1684.51 700.737,1685.88C699.393,1686.31 697.505,1687.32 697.919,1688.36C698.53,1689.89 700.227,1688.62 701.496,1688.3C715.635,1684.75 729.739,1681.84 743.345,1690.27C744.972,1691.28 746.806,1692.68 748.882,1690.94C747.531,1689.92 746.242,1688.8 744.812,1687.9C743.387,1687 741.395,1686.62 741.541,1684.47C741.565,1684.1 743.185,1683.73 744.103,1683.57C745.974,1683.24 749.24,1684.27 749.142,1681.71Z" style="fill:rgb(79,77,77);fill-rule:nonzero;"/>
                    <path d="M741.723,1642.92C740.707,1644.69 743.305,1645.28 744.37,1646.41C750.479,1652.88 763.214,1653.37 762.417,1666.2C762.404,1666.41 764.225,1667.02 765.144,1666.94C779.156,1665.65 792.506,1668.65 805.684,1672.96C806.551,1673.24 808.39,1673 808.552,1672.56C809.199,1670.79 807.325,1670.62 806.324,1670.18C804.132,1669.22 801.74,1668.7 799.573,1667.69C794.333,1665.25 800.209,1664.64 800.351,1663.24C801.23,1660.88 799.775,1660.9 798.391,1661.14C797.042,1661.37 795.755,1662.07 794.408,1662.19C781.729,1663.3 769.111,1665.12 759.641,1652.87C756.427,1648.71 750.92,1646.3 746.364,1643.23C744.969,1642.29 742.673,1641.27 741.723,1642.92Z" style="fill:rgb(81,79,80);fill-rule:nonzero;"/>
                    <path d="M898.29,1366.85C897.14,1366.11 896.029,1365.3 894.845,1364.61C893.514,1363.84 892.195,1364.04 891.099,1365.09C886.962,1369.03 882.855,1373.01 878.738,1376.98C883.379,1379.94 888.523,1377.51 893.366,1378.33C894.033,1378.44 894.735,1378.35 896.392,1378.35C901.112,1377.81 906.921,1379.26 912.535,1377.36C909.429,1371.63 903.253,1370.06 898.29,1366.85Z" style="fill:rgb(89,86,86);fill-rule:nonzero;"/>
                    <path d="M825.284,1357.56C827.127,1362.29 830.897,1361.94 834.016,1359.81C838.952,1356.45 836.791,1352.37 833.922,1348.65C833.535,1349.05 833.148,1349.46 832.76,1349.86C835.206,1357.36 830.261,1357.48 825.284,1357.56Z" style="fill:rgb(145,142,144);fill-rule:nonzero;"/>
                    <path d="M821.977,1349.61C819.508,1352.99 821.841,1355.62 825.055,1357.33C824.353,1351.57 826.619,1348.78 832.76,1349.86C833.148,1349.46 833.535,1349.05 833.922,1348.65C829.615,1345 825.205,1345.19 821.977,1349.61Z" style="fill:rgb(145,142,144);fill-rule:nonzero;"/>
                    <path d="M832.76,1349.86C826.619,1348.78 824.353,1351.57 825.055,1357.33C825.066,1357.42 825.044,1357.47 825.056,1357.56L825.284,1357.56C830.261,1357.48 835.206,1357.36 832.76,1349.86Z" style="fill:rgb(25,25,25);fill-rule:nonzero;"/>
                </g>
            </g>
        </g>
    </g>
</svg>
