<?xml version="1.0" encoding="UTF-8" standalone="no"?>
<!DOCTYPE svg PUBLIC "-//W3C//DTD SVG 1.1//EN" "http://www.w3.org/Graphics/SVG/1.1/DTD/svg11.dtd">
<svg width="100%" height="100%" viewBox="0 0 534 534" version="1.1" xmlns="http://www.w3.org/2000/svg" xmlns:xlink="http://www.w3.org/1999/xlink" xml:space="preserve" xmlns:serif="http://www.serif.com/" style="fill-rule:evenodd;clip-rule:evenodd;stroke-linejoin:round;stroke-miterlimit:2;">
    <g transform="matrix(1,0,0,1,-629.804,-591.284)">
        <g id="bird05" transform="matrix(1,0,0,1,629.804,591.284)">
            <rect x="0" y="0" width="533.333" height="533.333" style="fill:none;"/>
            <g transform="matrix(2.51244,0,0,2.51244,-376.975,-599.336)">
                <g>
                    <g transform="matrix(1,0,0,1,286.373,356.599)">
                        <path d="M0,-24.272C0.344,-24.451 0.782,-24.589 1.107,-24.862C1.955,-25.575 2.755,-26.343 3.57,-27.093C5.54,-28.903 7.513,-30.709 9.473,-32.531C9.882,-32.911 10.234,-33.344 10.151,-33.976C10.107,-34.311 10.153,-34.619 10.488,-34.819C11.838,-35.626 12.301,-37.023 12.813,-38.376C12.869,-38.523 12.704,-38.758 12.621,-38.945C12.617,-38.955 12.409,-38.91 12.329,-38.847C10.135,-37.138 8.025,-35.309 5.449,-34.15C5.077,-33.982 4.743,-33.598 4.528,-33.234C2.89,-30.454 1.284,-27.655 -0.325,-24.857C-0.37,-24.779 -0.372,-24.64 -0.334,-24.559C-0.291,-24.471 -0.177,-24.418 0,-24.272M-10.022,-21.3C-8.48,-21.703 -6.448,-22.26 -4.4,-22.757C-3.482,-22.979 -2.792,-23.455 -2.254,-24.21C-0.512,-26.653 1.152,-29.144 2.56,-31.798C2.659,-31.987 2.754,-32.229 2.719,-32.421C2.689,-32.578 2.43,-32.835 2.325,-32.812C-0.161,-32.259 -2.645,-31.692 -5.117,-31.081C-5.68,-30.942 -5.99,-30.436 -6.229,-29.915C-7.2,-27.78 -8.521,-25.858 -9.893,-23.97C-10.478,-23.166 -11.143,-22.419 -11.759,-21.637C-11.815,-21.565 -11.816,-21.404 -11.776,-21.315C-11.737,-21.232 -11.607,-21.136 -11.521,-21.139C-11.193,-21.153 -10.868,-21.204 -10.022,-21.3M-8.261,-30.652C-10.745,-30.301 -13.062,-29.964 -15.381,-29.654C-16.201,-29.543 -16.821,-29.175 -17.343,-28.526C-19.883,-25.366 -22.971,-22.818 -26.322,-20.568C-26.871,-20.2 -27.376,-19.763 -27.886,-19.34C-27.947,-19.29 -27.959,-19.05 -27.922,-19.03C-27.745,-18.933 -27.534,-18.804 -27.353,-18.827C-23.926,-19.26 -20.505,-19.75 -17.073,-20.145C-15.777,-20.295 -14.769,-20.85 -13.84,-21.713C-11.363,-24.018 -9.474,-26.767 -7.747,-29.643C-7.642,-29.819 -7.556,-30.161 -7.646,-30.268C-7.823,-30.479 -8.133,-30.579 -8.261,-30.652M-40.624,-17.631C-40.62,-17.563 -40.617,-17.494 -40.613,-17.424C-38.288,-17.623 -35.964,-17.843 -33.637,-18.011C-32.603,-18.085 -31.699,-18.451 -30.837,-18.985C-28.092,-20.687 -25.39,-22.458 -22.948,-24.576C-21.526,-25.81 -20.235,-27.198 -18.909,-28.541C-18.797,-28.654 -18.844,-28.944 -18.856,-29.15C-18.86,-29.211 -19.001,-29.314 -19.079,-29.313C-20.967,-29.309 -22.856,-29.319 -24.743,-29.26C-25.159,-29.248 -25.614,-29.054 -25.969,-28.82C-26.708,-28.329 -27.414,-27.78 -28.096,-27.21C-31.456,-24.399 -35.22,-22.277 -39.271,-20.648C-41.024,-19.944 -42.796,-19.286 -44.559,-18.608C-44.964,-18.453 -45.307,-18.034 -45.126,-17.913C-44.968,-17.806 -44.796,-17.647 -44.628,-17.644C-43.293,-17.622 -41.958,-17.631 -40.624,-17.631M-85.794,-23.845C-85.542,-23.974 -85.235,-24.102 -84.959,-24.279C-82.993,-25.536 -81.073,-26.869 -79.064,-28.051C-75.806,-29.967 -72.485,-31.777 -69.202,-33.651C-67.949,-34.366 -66.723,-35.128 -65.492,-35.881C-65.176,-36.075 -65.126,-36.571 -65.391,-36.705C-66.68,-37.353 -67.971,-37.999 -69.256,-38.656C-70.049,-39.063 -70.748,-38.795 -71.466,-38.427C-76.715,-35.732 -81.823,-32.795 -86.683,-29.446C-87.683,-28.756 -88.612,-27.944 -89.488,-27.099C-90.469,-26.154 -90.291,-25.33 -89.027,-24.825C-88.103,-24.457 -87.131,-24.207 -86.179,-23.909C-86.074,-23.876 -85.961,-23.872 -85.794,-23.845M73.189,-46.237C73.199,-46.345 73.24,-46.461 73.216,-46.561C72.203,-50.597 70.092,-53.932 66.764,-56.443C64.806,-57.92 62.814,-59.362 60.764,-60.707C59.37,-61.622 57.855,-62.354 56.378,-63.136C56.103,-63.283 55.711,-63.412 55.438,-63.33C53.562,-62.759 51.987,-61.791 51.158,-59.888C50.783,-59.028 50.893,-58.041 51.643,-57.467C52.434,-56.862 53.271,-56.278 54.169,-55.858C56.693,-54.677 59.258,-53.584 61.81,-52.46C62.932,-51.967 64.064,-51.498 65.186,-51.001C67.961,-49.767 70.399,-48.011 72.732,-46.095C72.815,-46.028 72.945,-45.966 73.038,-45.983C73.102,-45.994 73.14,-46.147 73.189,-46.237M-52.999,-18.088C-51.544,-18.125 -50.109,-17.988 -48.677,-18.443C-44.208,-19.86 -39.797,-21.414 -35.591,-23.512C-32.979,-24.815 -30.586,-26.436 -28.374,-28.329C-28.239,-28.444 -28.205,-28.71 -28.181,-28.914C-28.146,-29.19 -28.315,-29.288 -28.601,-29.31C-31.045,-29.504 -33.5,-29.627 -35.928,-29.946C-37.466,-30.147 -38.76,-29.908 -39.981,-28.938C-40.673,-28.388 -41.489,-27.985 -42.275,-27.565C-46.999,-25.043 -51.79,-22.661 -56.78,-20.698C-57.711,-20.332 -58.632,-19.934 -59.542,-19.514C-59.707,-19.438 -59.791,-19.183 -59.912,-19.01C-59.821,-18.958 -59.735,-18.867 -59.64,-18.855C-57.427,-18.594 -55.213,-18.342 -52.999,-18.088M-76.824,-21.985C-76.322,-22.118 -75.772,-22.218 -75.257,-22.41C-73.593,-23.028 -71.917,-23.625 -70.289,-24.33C-66.518,-25.964 -62.77,-27.649 -59.02,-29.331C-57.602,-29.967 -56.203,-30.646 -54.8,-31.315C-54.4,-31.506 -53.992,-31.699 -53.636,-31.959C-53.407,-32.125 -53.241,-32.401 -53.115,-32.661C-53.095,-32.703 -53.413,-32.985 -53.608,-33.043C-56.587,-33.926 -59.573,-34.79 -62.555,-35.662C-63.14,-35.833 -63.654,-35.641 -64.139,-35.358C-66.439,-34.011 -68.729,-32.647 -71.029,-31.3C-73.906,-29.617 -76.804,-27.967 -79.663,-26.255C-80.801,-25.574 -81.862,-24.766 -82.952,-24.006C-83.034,-23.95 -83.132,-23.781 -83.104,-23.725C-83.008,-23.542 -82.887,-23.281 -82.725,-23.237C-81.442,-22.893 -80.151,-22.573 -78.854,-22.287C-78.206,-22.144 -77.539,-22.088 -76.824,-21.985M-65.108,-19.498C-64.312,-19.498 -63.963,-19.435 -63.646,-19.509C-62.889,-19.688 -62.133,-19.892 -61.4,-20.153C-54.657,-22.55 -48.195,-25.576 -41.896,-28.959C-41.602,-29.116 -41.312,-29.295 -41.064,-29.515C-40.922,-29.64 -40.775,-29.884 -40.804,-30.044C-40.835,-30.219 -41.044,-30.464 -41.213,-30.499C-43.943,-31.055 -46.681,-31.576 -49.414,-32.121C-50.456,-32.329 -51.366,-32.107 -52.276,-31.547C-54.656,-30.083 -57.206,-28.948 -59.752,-27.805C-63.926,-25.934 -68.078,-24.012 -72.239,-22.112C-72.34,-22.065 -72.471,-22.047 -72.54,-21.972C-72.675,-21.824 -72.869,-21.643 -72.867,-21.478C-72.864,-21.318 -72.673,-21.058 -72.519,-21.017C-71.442,-20.732 -70.359,-20.462 -69.266,-20.246C-67.735,-19.943 -66.194,-19.691 -65.108,-19.498M46.726,-61.7C46.729,-61.731 46.732,-61.762 46.736,-61.793C47.85,-61.793 48.965,-61.766 50.078,-61.802C50.896,-61.829 51.412,-62.867 50.968,-63.539C50.661,-64.004 50.355,-64.475 49.999,-64.902C46.298,-69.329 41.913,-72.895 36.657,-75.322C35.449,-75.88 34.166,-76.304 32.882,-76.665C31.001,-77.193 29.124,-77.071 27.31,-76.304C23.967,-74.892 22.694,-71.56 24.265,-68.284C25.17,-66.396 26.593,-65.032 28.55,-64.256C30.113,-63.636 31.74,-63.265 33.412,-63.074C34.741,-62.922 36.065,-62.713 37.397,-62.581C40.505,-62.271 43.616,-61.992 46.726,-61.7M-24.792,-30.766C-19.272,-30.502 -13.189,-31.338 -7.133,-32.365C-3.944,-32.905 -0.804,-33.664 2.278,-34.695C5.521,-35.779 8.307,-37.537 10.859,-39.765C13.545,-42.109 14.898,-45.03 14.966,-48.575C14.997,-50.251 14.99,-51.921 14.659,-53.578C14.353,-55.107 14.076,-56.642 13.813,-58.179C13.781,-58.372 13.909,-58.592 13.963,-58.799C14.114,-58.719 14.333,-58.677 14.404,-58.551C14.622,-58.165 14.829,-57.759 14.96,-57.336C16.124,-53.564 16.711,-49.723 16.159,-45.778C15.882,-43.796 15.511,-41.828 15.194,-39.851C15.181,-39.763 15.271,-39.617 15.353,-39.57C15.422,-39.531 15.576,-39.564 15.65,-39.621C16.655,-40.39 17.141,-41.542 17.789,-42.571C20.469,-46.828 23.231,-51.005 27.089,-54.345C28.882,-55.898 30.749,-57.253 33.015,-58.024C34.704,-58.597 36.374,-59.227 38.043,-59.859C38.21,-59.922 38.353,-60.154 38.425,-60.339C38.523,-60.59 38.37,-60.746 38.076,-60.773C37.076,-60.863 36.073,-60.927 35.078,-61.052C32.754,-61.343 30.406,-61.543 28.193,-62.381C24.648,-63.725 22.638,-66.364 21.907,-70.026C21.707,-71.028 21.816,-72.022 22.195,-72.986C23.52,-76.353 26.099,-78.038 29.59,-78.412C31.621,-78.629 33.583,-78.224 35.489,-77.488C41.688,-75.092 46.62,-70.987 50.952,-66.071C51.318,-65.655 51.589,-65.155 51.91,-64.699C52.038,-64.518 52.152,-64.292 52.332,-64.192C52.605,-64.041 52.956,-63.852 53.229,-63.907C53.99,-64.059 54.732,-64.315 55.474,-64.555C56.113,-64.763 56.5,-65.429 56.428,-66.142C56.405,-66.364 56.389,-66.587 56.349,-66.806C55.63,-70.74 54.154,-74.245 51.091,-77.012C48.652,-79.214 46.038,-81.021 42.89,-82.042C40.124,-82.937 37.336,-83.632 34.439,-84.029C28.795,-84.801 23.342,-84.287 17.941,-82.462C13.701,-81.031 10.148,-78.633 7.085,-75.455C5.131,-73.426 3.628,-71.083 2.602,-68.448C2.372,-67.858 2.583,-67.394 3.221,-67.133C3.841,-66.88 4.474,-66.66 5.09,-66.397C6.235,-65.908 7.236,-65.213 8.017,-64.229C8.076,-64.154 8.115,-63.961 8.074,-63.925C7.937,-63.803 7.719,-63.613 7.602,-63.653C6.973,-63.869 6.354,-64.121 5.753,-64.406C4.02,-65.228 2.205,-65.705 0.295,-65.906C-1.046,-66.046 -2.369,-66.124 -3.707,-65.92C-6.904,-65.435 -10.128,-65.088 -13.297,-64.463C-16.805,-63.773 -20.19,-62.587 -23.474,-61.177C-29.932,-58.403 -36.423,-55.691 -42.77,-52.676C-51.033,-48.751 -59.168,-44.555 -67.358,-40.475C-67.558,-40.376 -67.777,-40.287 -67.932,-40.136C-68.067,-40.005 -68.212,-39.784 -68.191,-39.623C-68.167,-39.431 -68.01,-39.177 -67.841,-39.095C-64.816,-37.636 -61.655,-36.529 -58.416,-35.674C-54.756,-34.71 -51.089,-33.745 -47.381,-32.997C-40.149,-31.537 -32.853,-30.565 -24.792,-30.766M-101.063,-8.694C-101.031,-8.643 -100.998,-8.591 -100.965,-8.54C-100.117,-9.071 -99.264,-9.594 -98.423,-10.136C-97.488,-10.739 -96.566,-11.363 -95.631,-11.965C-95.571,-12.003 -95.408,-11.961 -95.353,-11.902C-95.308,-11.852 -95.313,-11.694 -95.359,-11.63C-96.437,-10.17 -97.915,-9.152 -99.339,-8.084C-101.572,-6.41 -103.837,-4.78 -106.085,-3.126C-109.058,-0.939 -111.836,1.48 -114.515,4.011C-115.404,4.852 -116.234,5.764 -117.018,6.706C-117.438,7.209 -117.707,7.84 -118.028,8.423C-118.075,8.508 -118.075,8.698 -118.018,8.744C-117.866,8.87 -117.634,9.064 -117.501,9.021C-115.038,8.225 -112.833,6.904 -110.683,5.508C-106.839,3.015 -103.163,0.284 -99.708,-2.726C-95.326,-6.545 -90.658,-9.994 -85.989,-13.444C-85.541,-13.775 -85.083,-14.099 -84.605,-14.383C-84.447,-14.477 -84.186,-14.499 -84.012,-14.438C-83.803,-14.365 -83.832,-14.134 -84.03,-13.917C-84.33,-13.587 -84.601,-13.228 -84.927,-12.928C-86.24,-11.718 -87.569,-10.525 -88.894,-9.328C-89.555,-8.73 -90.227,-8.142 -90.882,-7.538C-91.261,-7.186 -91.168,-6.79 -90.657,-6.519C-89.77,-6.049 -88.874,-5.597 -87.991,-5.121C-84.452,-3.21 -80.824,-1.501 -77.047,-0.102C-73.804,1.098 -70.596,2.392 -67.366,3.626C-58.917,6.852 -50.399,9.846 -41.498,11.622C-34.892,12.939 -28.265,13.519 -21.527,12.858C-14.99,12.216 -8.827,10.333 -3.034,7.353C4.872,3.286 11.851,-2.079 17.958,-8.547C21.567,-12.371 24.732,-16.561 27.813,-20.808C31.422,-25.784 34.743,-30.936 37.405,-36.501C38.366,-38.509 39.516,-40.434 40.671,-42.342C43.41,-46.871 46.758,-50.877 50.993,-54.099C51.17,-54.233 51.396,-54.356 51.482,-54.539C51.553,-54.688 51.525,-55.015 51.415,-55.1C50.277,-55.979 49.134,-56.854 47.952,-57.673C46.204,-58.886 46.081,-58.965 44.306,-58.865C42.525,-58.763 40.756,-58.486 38.978,-58.342C37.613,-58.232 36.324,-57.847 35.163,-57.184C32.839,-55.857 30.554,-54.459 28.293,-53.026C26.663,-51.993 25.42,-50.6 24.582,-48.817C23.39,-46.28 21.735,-44.03 20.01,-41.827C18.216,-39.536 16.277,-37.377 14.176,-35.372C13.116,-34.36 12.171,-33.286 11.433,-32.02C11.096,-31.443 10.711,-30.89 10.309,-30.356C7.989,-27.277 5.169,-24.737 1.687,-23.085C-0.313,-22.134 -2.465,-21.434 -4.613,-20.874C-9.802,-19.519 -15.105,-18.762 -20.414,-18.028C-25.274,-17.356 -30.173,-16.959 -35.004,-16.06C-35.543,-15.959 -36.109,-15.984 -36.663,-15.985C-37.555,-15.986 -38.447,-16.045 -39.338,-16.026C-45.491,-15.895 -51.6,-16.606 -57.724,-16.995C-59.394,-17.101 -61.062,-17.301 -62.715,-17.553C-64.153,-17.773 -65.573,-18.042 -67.036,-17.799C-67.6,-17.706 -68.135,-17.861 -68.636,-18.151C-69.02,-18.373 -69.406,-18.649 -69.825,-18.741C-72.86,-19.405 -75.829,-20.46 -79.004,-20.334C-79.321,-20.321 -79.715,-20.376 -79.952,-20.558C-80.892,-21.282 -82.021,-21.339 -83.104,-21.578C-84.629,-21.913 -86.141,-22.312 -87.672,-22.611C-88.655,-22.803 -89.526,-23.617 -90.541,-23.362C-91.497,-23.122 -92.38,-22.585 -93.292,-22.173C-93.7,-21.99 -94.098,-21.787 -94.506,-21.607C-104.943,-17.032 -114.933,-11.568 -125.001,-6.261C-126.676,-5.378 -128.28,-4.351 -129.868,-3.317C-131.375,-2.336 -132.671,-1.107 -133.695,0.387C-134.078,0.945 -134.447,1.513 -134.267,2.237C-134.151,2.705 -133.18,2.852 -132.118,2.4C-130.067,1.526 -128.006,0.652 -126.042,-0.395C-122.597,-2.233 -119.232,-4.222 -115.812,-6.108C-113.662,-7.293 -111.478,-8.413 -109.296,-9.538C-108.913,-9.736 -108.47,-9.824 -108.047,-9.933C-107.972,-9.953 -107.833,-9.848 -107.772,-9.765C-107.734,-9.712 -107.755,-9.57 -107.803,-9.506C-108.682,-8.321 -109.89,-7.501 -111.081,-6.686C-113.567,-4.984 -116.086,-3.328 -118.609,-1.68C-121.324,0.091 -123.946,1.989 -126.414,4.089C-127.259,4.81 -128.046,5.609 -128.79,6.435C-129.225,6.918 -129.668,7.479 -129.476,8.228C-129.362,8.67 -128.347,8.788 -127.327,8.476C-125.28,7.85 -123.386,6.877 -121.626,5.695C-117.55,2.957 -113.516,0.155 -109.496,-2.666C-107.396,-4.14 -105.369,-5.72 -103.293,-7.23C-102.575,-7.752 -101.808,-8.209 -101.063,-8.694M-27.999,15.037C-33.28,15.08 -38.468,14.352 -43.589,13.138C-46.301,12.496 -48.983,11.724 -51.676,11C-52.645,10.74 -53.599,10.418 -54.575,10.189C-54.868,10.12 -55.283,10.17 -55.514,10.34C-55.801,10.552 -55.633,10.921 -55.456,11.198C-55.214,11.574 -54.97,11.947 -54.711,12.31C-49.911,19.035 -45.136,25.777 -40.295,32.472C-38.137,35.457 -35.857,38.353 -33.606,41.27C-33.274,41.7 -32.819,42.046 -32.386,42.384C-31.683,42.933 -30.926,43.415 -30.234,43.978C-29.589,44.505 -28.875,44.714 -28.063,44.665C-25.15,44.489 -22.27,44.83 -19.38,45.133C-17.162,45.366 -14.923,45.378 -12.694,45.502C-12.027,45.54 -11.353,45.565 -10.7,45.694C-9.49,45.933 -8.578,46.97 -8.445,48.28C-8.42,48.533 -8.699,48.866 -8.92,49.075C-9.036,49.184 -9.342,49.151 -9.541,49.101C-9.749,49.048 -9.959,48.927 -10.122,48.784C-11.109,47.916 -12.201,47.642 -13.528,47.842C-14.503,47.989 -15.526,47.806 -16.528,47.778C-17.305,47.756 -18.081,47.743 -18.856,47.74C-18.913,47.74 -19.021,47.86 -19.016,47.913C-19.002,48.013 -18.947,48.161 -18.869,48.194C-17.537,48.761 -16.206,49.332 -14.86,49.867C-11.92,51.035 -10.871,52.579 -10.943,55.73C-10.953,56.171 -11.021,56.62 -11.13,57.046C-11.171,57.207 -11.39,57.4 -11.555,57.43C-11.731,57.462 -12.025,57.378 -12.115,57.243C-12.293,56.977 -12.411,56.65 -12.473,56.332C-12.678,55.262 -13.245,54.595 -14.275,54.127C-17.731,52.556 -21.215,51.062 -24.796,49.8C-24.971,49.739 -25.255,49.81 -25.402,49.927C-25.478,49.987 -25.423,50.332 -25.321,50.472C-24.002,52.271 -22.723,54.104 -21.31,55.827C-20.381,56.958 -20.023,58.144 -20.294,59.549C-20.439,60.311 -20.559,61.083 -20.788,61.821C-20.862,62.059 -21.228,62.259 -21.503,62.357C-21.623,62.4 -21.913,62.178 -22.017,62.009C-22.367,61.442 -22.815,60.878 -22.959,60.251C-23.324,58.658 -24.301,57.446 -25.259,56.224C-27.326,53.589 -29.447,50.996 -31.525,48.369C-31.985,47.787 -32.544,47.49 -33.258,47.603C-35.13,47.901 -36.998,48.228 -38.862,48.571C-39.322,48.655 -39.664,48.962 -39.759,49.442C-39.846,49.878 -39.861,50.33 -39.935,50.769C-40.015,51.247 -40.277,51.49 -40.549,51.34C-40.824,51.189 -41.12,51.011 -41.3,50.767C-41.714,50.207 -41.77,49.529 -41.778,48.852C-41.792,47.792 -41.291,47.089 -40.314,46.925C-38.554,46.627 -36.785,46.377 -35.023,46.087C-34.83,46.055 -34.589,45.933 -34.492,45.778C-34.286,45.448 -34.489,45.143 -34.691,44.869C-34.757,44.779 -34.83,44.694 -34.907,44.613C-43.224,35.836 -50.536,26.261 -57.371,16.31C-58.255,15.023 -59.058,13.679 -59.869,12.343C-60.522,11.268 -61.039,10.166 -60.172,8.929C-60.105,8.832 -60.246,8.455 -60.387,8.374C-60.864,8.096 -61.374,7.866 -61.89,7.667C-68.037,5.311 -74.226,3.056 -80.325,0.582C-84.456,-1.094 -88.547,-2.914 -92.22,-5.514C-92.629,-5.804 -93.065,-5.824 -93.446,-5.521C-94.934,-4.342 -96.416,-3.157 -97.875,-1.945C-101.484,1.056 -105.219,3.889 -109.135,6.478C-111.279,7.897 -113.517,9.151 -115.858,10.221C-116.68,10.596 -117.507,10.888 -118.418,10.934C-119.498,10.988 -120.322,10.056 -120.099,8.973C-119.987,8.431 -119.81,7.902 -119.683,7.362C-119.664,7.279 -119.733,7.114 -119.802,7.084C-119.978,7.011 -120.226,6.899 -120.357,6.968C-121.542,7.591 -122.706,8.251 -123.878,8.897C-125.262,9.658 -126.732,10.183 -128.301,10.364C-128.838,10.426 -129.414,10.369 -129.943,10.242C-131.074,9.97 -131.766,8.697 -131.337,7.622C-131.009,6.801 -130.554,6.029 -130.12,5.254C-129.852,4.776 -129.511,4.337 -129.218,3.871C-129.178,3.807 -129.196,3.658 -129.246,3.597C-129.312,3.519 -129.453,3.429 -129.535,3.45C-130.718,3.746 -131.897,4.056 -133.076,4.37C-133.884,4.584 -134.628,4.38 -135.336,4.011C-135.996,3.667 -136.422,2.748 -136.312,2.024C-136.157,1.005 -135.701,0.118 -135.128,-0.716C-134.106,-2.205 -132.852,-3.481 -131.369,-4.499C-129.898,-5.508 -128.399,-6.489 -126.846,-7.365C-124.416,-8.734 -121.955,-10.055 -119.462,-11.307C-114.375,-13.861 -109.271,-16.383 -104.146,-18.861C-101.536,-20.123 -98.862,-21.255 -96.22,-22.454C-95.001,-23.006 -93.779,-23.553 -92.585,-24.159C-92.331,-24.288 -92.067,-24.635 -92.027,-24.914C-91.791,-26.585 -90.766,-27.759 -89.58,-28.792C-88.572,-29.668 -87.483,-30.462 -86.376,-31.212C-81.006,-34.847 -75.397,-38.071 -69.597,-40.969C-61.708,-44.91 -53.858,-48.927 -45.944,-52.815C-38.531,-56.457 -31.013,-59.882 -23.368,-63.013C-18.398,-65.048 -13.276,-66.561 -7.899,-67.177C-5.568,-67.444 -3.259,-67.839 -0.904,-67.761C-0.163,-67.737 0.388,-67.968 0.656,-68.715C2.634,-74.208 6.468,-78.157 11.203,-81.339C12.033,-81.897 12.923,-82.391 13.838,-82.793C19.762,-85.399 25.895,-86.672 32.42,-86.019C36.453,-85.615 40.354,-84.816 44.141,-83.398C47.334,-82.202 50.116,-80.4 52.376,-77.832C53.113,-76.994 53.811,-76.12 54.52,-75.257C56.725,-72.575 57.87,-69.498 57.956,-66.025C57.961,-65.802 57.987,-65.58 57.996,-65.357C58.019,-64.739 58.347,-64.305 58.861,-64.026C61.917,-62.369 64.617,-60.189 67.447,-58.202C70.849,-55.812 73.16,-52.578 74.462,-48.649C75.022,-46.958 75.418,-45.21 75.864,-43.482C76.072,-42.676 75.892,-41.937 75.347,-41.293C75.094,-40.995 74.385,-40.88 74.129,-41.141C73.742,-41.536 73.321,-41.918 73.023,-42.376C71.459,-44.78 69.275,-46.501 66.852,-47.924C65.41,-48.769 63.899,-49.507 62.375,-50.194C59.527,-51.477 56.645,-52.684 53.781,-53.935C53.325,-54.134 52.942,-54.1 52.555,-53.787C48.52,-50.517 45.221,-46.603 42.546,-42.171C41.048,-39.689 39.619,-37.158 38.277,-34.587C33.344,-25.134 27.335,-16.418 20.271,-8.447C15.81,-3.411 10.637,0.85 5.081,4.641C4.436,5.082 3.758,5.474 3.109,5.91C-2.138,9.429 -7.868,11.849 -13.968,13.438C-14.609,13.605 -15.23,13.857 -15.854,14.09C-16.115,14.188 -16.209,14.411 -16.072,14.621C-15.71,15.176 -15.374,15.762 -14.932,16.25C-12.908,18.485 -10.867,20.704 -8.806,22.904C-5.522,26.408 -2.147,29.827 0.793,33.636C1.68,34.785 2.53,35.964 3.47,37.067C3.721,37.362 4.249,37.585 4.636,37.566C5.519,37.521 6.41,37.369 7.269,37.145C9.104,36.667 10.915,36.1 12.745,35.602C14.359,35.162 15.982,34.752 17.608,34.356C18.282,34.192 18.935,34.332 19.553,34.647C20.975,35.371 22.13,36.401 23.038,37.703C23.124,37.827 23.056,38.152 22.944,38.295C22.828,38.447 22.535,38.611 22.387,38.563C21.765,38.358 21.039,38.216 20.584,37.798C19.084,36.418 17.443,36.29 15.612,36.901C14.133,37.394 12.635,37.836 11.149,38.313C11.056,38.342 10.915,38.52 10.929,38.541C11.032,38.697 11.148,38.921 11.3,38.956C11.84,39.081 12.393,39.175 12.945,39.214C14.171,39.302 15.4,39.329 16.625,39.422C17.289,39.473 17.963,39.551 18.604,39.723C20.433,40.214 21.299,41.326 21.52,43.349C21.567,43.79 21.184,44.487 20.907,44.407C20.619,44.323 20.323,44.154 20.116,43.939C19.891,43.705 19.746,43.384 19.594,43.087C19.093,42.113 18.308,41.566 17.212,41.49C14.43,41.295 11.647,41.106 8.864,40.923C8.763,40.916 8.563,41.014 8.566,41.035C8.601,41.225 8.611,41.505 8.737,41.581C9.882,42.27 11.055,42.914 12.207,43.59C13.071,44.098 13.945,44.598 14.76,45.177C15.104,45.422 15.456,45.828 15.553,46.221C15.896,47.631 16.05,49.072 15.587,50.493C15.537,50.647 15.269,50.792 15.082,50.824C14.889,50.855 14.634,50.794 14.474,50.679C14.308,50.559 14.162,50.34 14.112,50.138C13.98,49.599 13.882,49.048 13.811,48.497C13.704,47.666 13.313,46.999 12.62,46.567C10.727,45.387 8.84,44.189 6.888,43.113C5.425,42.307 3.855,41.708 2.562,40.594C2.268,40.341 1.714,40.223 1.319,40.288C0.221,40.465 -0.854,40.785 -1.944,41.023C-2.941,41.241 -3.453,41.85 -3.541,42.853C-3.55,42.952 -3.647,43.043 -3.709,43.136C-3.924,43.458 -4.25,43.521 -4.578,43.415C-4.763,43.355 -4.957,43.187 -5.052,43.014C-5.336,42.499 -5.24,41.939 -5.175,41.381C-5.07,40.505 -4.571,39.928 -3.771,39.681C-2.39,39.253 -0.981,38.916 0.404,38.5C0.542,38.458 0.726,38.088 0.672,37.971C0.488,37.573 0.257,37.172 -0.044,36.857C-2.047,34.756 -4.068,32.673 -6.094,30.594C-6.717,29.955 -7.388,29.362 -8.012,28.722C-12.3,24.328 -16.587,19.931 -20.855,15.518C-21.275,15.084 -21.714,14.842 -22.308,14.861C-24.205,14.921 -26.103,14.978 -27.999,15.037" style="fill-rule:nonzero;"/>
                    </g>
                    <g transform="matrix(1,0,0,1,285.863,320.561)">
                        <path d="M0,26.629C-0.076,26.575 -0.184,26.458 -0.223,26.478C-0.612,26.674 -0.91,26.959 -0.953,27.42C-0.96,27.492 -0.853,27.639 -0.79,27.643C-0.311,27.68 0.158,27.066 0,26.629M-42.489,33.461C-42.247,33.658 -42.136,33.801 -42.085,33.782C-41.792,33.674 -41.493,33.557 -41.24,33.379C-41.138,33.309 -41.15,33.076 -41.11,32.917C-41.31,32.911 -41.541,32.839 -41.703,32.914C-41.981,33.044 -42.218,33.266 -42.489,33.461M-34.774,37.417C-34.817,37.325 -34.844,37.219 -34.908,37.147C-34.965,37.082 -35.085,36.999 -35.143,37.021C-35.865,37.277 -36.53,37.63 -36.988,38.275C-37.033,38.338 -37.044,38.474 -37.006,38.533C-36.951,38.617 -36.841,38.705 -36.745,38.717C-35.886,38.824 -35.326,38.316 -34.814,37.735C-34.756,37.669 -34.785,37.525 -34.774,37.417M-56.531,37.572C-56.604,37.505 -56.693,37.369 -56.75,37.382C-57.548,37.558 -57.917,38.216 -58.322,38.827C-58.352,38.872 -58.311,39.012 -58.26,39.052C-58.192,39.105 -58.058,39.15 -57.993,39.117C-57.322,38.78 -56.761,38.33 -56.531,37.572M25.497,-7.644C25.527,-7.285 25.513,-7.167 25.551,-7.068C25.628,-6.87 25.733,-6.684 25.828,-6.491C25.999,-6.599 26.251,-6.667 26.326,-6.82C26.662,-7.51 27.003,-8.211 26.922,-9.013C26.912,-9.105 26.801,-9.252 26.725,-9.26C26.545,-9.278 26.241,-9.289 26.193,-9.196C25.9,-8.628 25.664,-8.03 25.497,-7.644M-51.72,39.424C-51.771,39.275 -51.778,39.166 -51.835,39.111C-51.901,39.049 -52.031,38.981 -52.099,39.006C-53.044,39.356 -53.693,40.09 -54.369,40.786C-54.432,40.852 -54.507,40.983 -54.481,41.037C-54.441,41.123 -54.302,41.239 -54.232,41.224C-53.128,40.974 -52.331,40.303 -51.72,39.424M28.96,-6.409C28.96,-6.751 29.001,-6.974 28.947,-7.17C28.899,-7.342 28.754,-7.6 28.634,-7.611C28.462,-7.626 28.198,-7.494 28.107,-7.345C27.761,-6.77 27.682,-6.151 28.117,-5.583C28.227,-5.439 28.477,-5.398 28.671,-5.336C28.689,-5.33 28.792,-5.504 28.813,-5.603C28.881,-5.912 28.928,-6.225 28.96,-6.409M31.127,-5.668C31.148,-5.573 31.087,-6.005 30.94,-6.404C30.891,-6.539 30.613,-6.68 30.457,-6.663C30.286,-6.644 30.015,-6.464 29.994,-6.323C29.877,-5.539 30.138,-4.843 30.639,-4.239C30.694,-4.172 30.86,-4.108 30.913,-4.142C31.065,-4.237 31.265,-4.365 31.299,-4.515C31.344,-4.708 31.248,-4.934 31.127,-5.668M-39.967,36.402C-39.049,36.184 -38.027,36.171 -37.333,35.325C-37.264,35.241 -37.175,35.051 -37.185,35.045C-37.358,34.931 -37.596,34.709 -37.721,34.759C-38.526,35.082 -39.311,35.46 -40.094,35.838C-40.166,35.873 -40.215,36.041 -40.202,36.138C-40.191,36.221 -40.074,36.288 -39.967,36.402M-50.99,43.228C-49.815,42.882 -48.726,42.366 -47.828,41.515C-47.707,41.4 -47.7,41.166 -47.64,40.987C-47.836,40.939 -48.1,40.783 -48.217,40.858C-49.238,41.507 -50.235,42.196 -51.232,42.882C-51.277,42.913 -51.298,43.071 -51.266,43.104C-51.196,43.171 -51.066,43.25 -50.99,43.228M1.164,31.051C2.479,30.166 3.377,29.145 4.106,27.625C4.175,27.483 4.01,27.231 3.953,27.029C3.779,27.092 3.537,27.102 3.441,27.225C2.569,28.35 1.72,29.491 0.875,30.637C0.832,30.694 0.866,30.848 0.917,30.922C0.963,30.989 1.079,31.01 1.164,31.051M-44.267,43.995C-42.891,43.449 -41.48,42.864 -40.299,41.856C-40.153,41.731 -40.103,41.479 -40.04,41.275C-39.945,40.97 -40.347,40.919 -40.86,41.223C-42.083,41.945 -43.294,42.689 -44.507,43.428C-44.766,43.586 -44.805,43.758 -44.62,43.884C-44.54,43.94 -44.427,43.947 -44.267,43.995M-30.528,44.531C-29.058,43.674 -27.664,42.663 -26.53,41.318C-26.467,41.242 -26.431,41.12 -26.432,41.02C-26.432,40.931 -26.479,40.815 -26.546,40.763C-26.618,40.706 -26.769,40.659 -26.831,40.697C-28.329,41.597 -29.517,42.865 -30.772,44.051C-30.833,44.108 -30.893,44.244 -30.864,44.296C-30.819,44.377 -30.7,44.418 -30.528,44.531M-10.151,37.275C-10.209,37.151 -10.231,37.013 -10.288,36.997C-10.482,36.944 -10.762,36.835 -10.878,36.923C-12.537,38.174 -14.176,39.452 -15.816,40.728C-16.058,40.915 -16.074,41.128 -15.841,41.216C-15.659,41.285 -15.394,41.329 -15.238,41.246C-13.592,40.372 -12.012,39.394 -10.695,38.051C-10.472,37.823 -10.322,37.523 -10.151,37.275M6.047,30.334C5.965,30.189 5.93,30.037 5.862,30.023C5.667,29.978 5.365,29.895 5.271,29.99C3.708,31.571 2.17,33.177 0.633,34.783C0.58,34.838 0.572,35.031 0.584,35.035C0.778,35.098 1.051,35.248 1.166,35.171C2.839,34.049 4.334,32.72 5.623,31.169C5.825,30.926 5.919,30.593 6.047,30.334M20.804,18.023C20.738,17.936 20.687,17.828 20.604,17.768C20.527,17.714 20.387,17.66 20.322,17.695C20.04,17.849 19.675,17.971 19.52,18.218C18.511,19.817 17.546,21.443 16.576,23.066C16.531,23.143 16.538,23.28 16.573,23.368C16.678,23.629 16.851,23.63 17.083,23.415C18.569,22.042 19.796,20.467 20.72,18.666C20.812,18.484 20.779,18.238 20.804,18.023M23.063,17.501C23.176,17.673 23.219,17.814 23.301,17.842C23.383,17.87 23.523,17.811 23.604,17.746C25.211,16.447 26.034,14.693 26.439,12.723C26.494,12.453 26.284,12.13 26.196,11.832C25.938,11.971 25.559,12.043 25.443,12.258C24.67,13.705 23.94,15.176 23.228,16.654C23.097,16.925 23.106,17.263 23.063,17.501M-10.564,40.681C-10.459,40.692 -10.337,40.743 -10.25,40.709C-7.854,39.754 -5.794,38.342 -4.245,36.247C-4.182,36.162 -4.146,36.046 -4.131,35.941C-4.118,35.853 -4.129,35.694 -4.171,35.678C-4.359,35.607 -4.646,35.465 -4.749,35.543C-6.754,37.081 -8.738,38.645 -10.722,40.21C-10.789,40.263 -10.848,40.414 -10.818,40.48C-10.781,40.567 -10.653,40.615 -10.564,40.681M7.955,30.471C8.153,30.425 8.412,30.444 8.541,30.324C10.314,28.662 11.979,26.901 13.275,24.828C13.388,24.649 13.497,24.429 13.496,24.229C13.496,24.035 13.399,23.771 13.254,23.671C13.122,23.58 12.805,23.59 12.675,23.691C11.575,24.552 8.392,28.805 7.747,30.245C7.73,30.281 7.883,30.394 7.955,30.471M27.829,11.888C27.931,12.293 27.968,12.508 28.044,12.708C28.072,12.783 28.186,12.853 28.271,12.871C28.375,12.895 28.564,12.898 28.591,12.845C29.771,10.526 30.236,8.059 30.073,5.473C30.063,5.317 29.793,5.166 29.625,5.037C29.374,4.845 29.046,5.086 28.967,5.522C28.572,7.704 28.186,9.887 27.829,11.888M-22.462,42.876C-20.735,42.347 -19.437,41.251 -18.429,39.79C-18.359,39.691 -18.517,39.41 -18.609,39.234C-18.639,39.18 -18.828,39.147 -18.896,39.186C-20.411,40.051 -21.741,41.126 -22.722,42.592C-23.169,42.872 -23.62,43.148 -24.061,43.438C-24.137,43.488 -24.173,43.6 -24.228,43.684C-24.042,43.75 -23.779,43.93 -23.683,43.864C-23.25,43.572 -22.864,43.212 -22.462,42.876M-36.019,43.377C-34.876,43.498 -34.214,42.775 -33.598,41.984C-33.559,41.935 -33.579,41.794 -33.624,41.733C-33.68,41.657 -33.818,41.554 -33.869,41.577C-34.762,41.976 -35.664,42.373 -35.961,43.441C-36.555,43.34 -36.986,43.631 -37.371,44.029C-37.445,44.106 -37.585,44.216 -37.568,44.265C-37.476,44.519 -37.265,44.603 -37.046,44.455C-36.629,44.172 -36.02,44.061 -36.019,43.377M-100.554,27.344C-101.298,27.829 -102.065,28.285 -102.783,28.808C-104.859,30.317 -106.886,31.898 -108.986,33.372C-113.006,36.192 -117.041,38.994 -121.116,41.733C-122.876,42.915 -124.771,43.888 -126.817,44.514C-127.837,44.825 -128.852,44.708 -128.966,44.266C-129.158,43.517 -128.715,42.956 -128.28,42.473C-127.537,41.647 -126.75,40.848 -125.904,40.127C-123.437,38.026 -120.814,36.129 -118.1,34.358C-115.576,32.71 -113.058,31.054 -110.571,29.352C-109.38,28.537 -108.172,27.717 -107.293,26.531C-107.246,26.468 -107.224,26.325 -107.263,26.273C-107.323,26.19 -107.462,26.085 -107.538,26.105C-107.96,26.214 -108.403,26.302 -108.787,26.5C-110.968,27.625 -113.152,28.745 -115.302,29.93C-118.723,31.816 -122.087,33.805 -125.533,35.643C-127.497,36.69 -129.558,37.564 -131.608,38.438C-132.67,38.89 -133.641,38.742 -133.757,38.275C-133.937,37.551 -133.568,36.983 -133.186,36.425C-132.161,34.931 -130.865,33.701 -129.358,32.721C-127.77,31.687 -126.166,30.659 -124.491,29.776C-114.423,24.47 -104.433,19.006 -93.997,14.431C-93.588,14.251 -93.19,14.048 -92.783,13.864C-91.87,13.453 -90.987,12.916 -90.031,12.676C-89.016,12.421 -88.145,13.234 -87.162,13.427C-85.631,13.726 -84.12,14.125 -82.595,14.46C-81.511,14.698 -80.382,14.756 -79.442,15.48C-79.206,15.661 -78.812,15.717 -78.495,15.704C-75.319,15.577 -72.351,16.633 -69.315,17.297C-68.896,17.389 -68.51,17.665 -68.126,17.887C-67.625,18.177 -67.09,18.332 -66.526,18.238C-65.063,17.996 -63.644,18.265 -62.206,18.484C-60.552,18.736 -58.884,18.937 -57.214,19.043C-51.09,19.432 -44.981,20.143 -38.829,20.012C-37.938,19.992 -37.045,20.052 -36.153,20.053C-35.599,20.054 -35.033,20.078 -34.494,19.978C-29.663,19.079 -24.765,18.682 -19.904,18.01C-14.596,17.275 -9.292,16.519 -4.104,15.164C-1.955,14.604 0.196,13.903 2.197,12.953C5.679,11.301 8.499,8.761 10.818,5.682C11.221,5.148 11.605,4.595 11.942,4.018C12.681,2.752 13.626,1.678 14.686,0.666C16.787,-1.34 18.726,-3.498 20.52,-5.789C22.245,-7.992 23.899,-10.242 25.092,-12.779C25.93,-14.562 27.173,-15.955 28.803,-16.988C31.063,-18.421 33.349,-19.819 35.673,-21.146C36.834,-21.809 38.123,-22.194 39.487,-22.305C41.266,-22.448 43.035,-22.725 44.815,-22.827C46.591,-22.928 46.714,-22.849 48.462,-21.636C49.644,-20.816 50.787,-19.941 51.925,-19.062C52.035,-18.977 52.063,-18.65 51.992,-18.501C51.905,-18.318 51.68,-18.195 51.503,-18.061C47.268,-14.84 43.92,-10.833 41.181,-6.305C40.025,-4.396 38.876,-2.472 37.915,-0.463C35.253,5.102 31.932,10.254 28.323,15.23C25.242,19.477 22.077,23.667 18.468,27.49C12.36,33.959 5.382,39.323 -2.524,43.391C-8.317,46.371 -14.48,48.254 -21.018,48.896C-27.755,49.557 -34.382,48.977 -40.988,47.659C-49.889,45.884 -58.407,42.89 -66.856,39.664C-70.086,38.43 -73.294,37.136 -76.537,35.936C-80.314,34.537 -83.942,32.828 -87.481,30.917C-88.364,30.441 -89.26,29.988 -90.147,29.519C-90.659,29.248 -90.751,28.852 -90.372,28.5C-89.717,27.896 -89.045,27.308 -88.384,26.71C-87.059,25.513 -85.73,24.319 -84.417,23.109C-84.091,22.81 -83.82,22.45 -83.521,22.121C-83.322,21.903 -83.293,21.673 -83.502,21.6C-83.676,21.539 -83.937,21.561 -84.095,21.654C-84.574,21.939 -85.031,22.263 -85.479,22.594C-90.148,26.044 -94.816,29.492 -99.199,33.312C-102.653,36.321 -106.329,39.053 -110.173,41.546C-112.324,42.941 -114.528,44.263 -116.991,45.059C-117.124,45.102 -117.356,44.907 -117.508,44.781C-117.565,44.735 -117.565,44.546 -117.519,44.461C-117.197,43.878 -116.928,43.247 -116.508,42.743C-115.725,41.802 -114.895,40.89 -114.005,40.049C-111.326,37.518 -108.548,35.099 -105.576,32.912C-103.328,31.258 -101.062,29.628 -98.829,27.954C-97.405,26.886 -95.927,25.867 -94.85,24.407C-94.803,24.344 -94.798,24.186 -94.843,24.136C-94.898,24.076 -95.062,24.034 -95.121,24.072C-96.057,24.675 -96.978,25.299 -97.913,25.901C-98.754,26.443 -99.607,26.967 -100.456,27.498C-100.488,27.446 -100.521,27.395 -100.554,27.344" style="fill:rgb(179,221,235);fill-rule:nonzero;"/>
                    </g>
                    <g transform="matrix(1,0,0,1,298.35,311.139)">
                        <path d="M0,-24.383C-0.185,-24.445 -0.442,-24.616 -0.54,-24.55C-1.064,-24.195 -1.554,-23.771 -1.48,-23.046C-1.468,-22.923 -1.189,-22.702 -1.105,-22.732C-0.467,-22.953 -0.083,-23.428 0.054,-24.091C0.072,-24.18 0.02,-24.284 0,-24.383M-34.435,6.419C-34.334,6.445 -34.225,6.511 -34.135,6.49C-33.275,6.296 -32.497,5.931 -31.843,5.332C-31.767,5.262 -31.697,5.144 -31.694,5.048C-31.691,4.963 -31.788,4.799 -31.839,4.799C-32.992,4.815 -33.836,5.453 -34.608,6.219C-34.612,6.222 -34.495,6.349 -34.435,6.419M-1.901,-25.293C-1.805,-25.311 -1.689,-25.3 -1.615,-25.351C-0.998,-25.775 -0.362,-26.179 0.21,-26.657C0.405,-26.821 0.502,-27.172 0.528,-27.448C0.556,-27.741 -0.196,-27.779 -0.616,-27.512C-1.261,-27.102 -1.804,-26.603 -2.083,-25.87C-2.118,-25.779 -2.111,-25.654 -2.081,-25.559C-2.049,-25.461 -1.963,-25.381 -1.901,-25.293M-25.077,5.582C-25.142,5.503 -25.194,5.406 -25.275,5.351C-25.35,5.3 -25.463,5.254 -25.546,5.27C-26.547,5.48 -27.129,6.325 -27.914,6.863C-27.969,6.9 -27.98,7.118 -27.931,7.166C-27.792,7.298 -27.595,7.491 -27.448,7.47C-26.439,7.319 -25.691,6.753 -25.163,5.891C-25.109,5.804 -25.104,5.685 -25.077,5.582M-19.852,7.19C-19.746,7.202 -19.631,7.248 -19.536,7.221C-18.534,6.932 -17.729,6.393 -17.26,5.424C-17.139,5.173 -17.159,4.975 -17.396,4.846C-17.475,4.803 -17.628,4.788 -17.687,4.836C-18.466,5.45 -19.236,6.076 -20,6.709C-20.07,6.767 -20.137,6.918 -20.109,6.988C-20.075,7.076 -19.942,7.125 -19.852,7.19M-0.544,-29.815C-0.456,-29.762 -0.357,-29.652 -0.265,-29.657C0.769,-29.721 1.669,-30.104 2.406,-30.837C2.477,-30.907 2.539,-31.105 2.503,-31.14C2.366,-31.276 2.156,-31.492 2.031,-31.459C1.066,-31.206 0.101,-30.928 -0.539,-30.07C-0.58,-30.015 -0.544,-29.904 -0.544,-29.815M-6.357,3.175C-6.425,3.096 -6.488,2.958 -6.562,2.951C-6.653,2.942 -6.778,3.023 -6.848,3.101C-7.878,4.256 -8.897,5.42 -9.929,6.572C-10.147,6.817 -10.13,6.971 -9.811,7.062C-9.715,7.09 -9.587,7.099 -9.503,7.058C-8.059,6.352 -7.007,5.255 -6.338,3.8C-6.26,3.631 -6.347,3.385 -6.357,3.175M-15.121,7.398C-15.031,7.462 -14.923,7.597 -14.855,7.58C-13.559,7.238 -12.399,6.619 -11.404,5.725C-11.185,5.527 -11.088,5.183 -10.963,4.894C-10.935,4.829 -11.009,4.695 -11.069,4.621C-11.132,4.545 -11.271,4.432 -11.316,4.456C-12.697,5.136 -13.985,5.952 -15.038,7.094C-15.102,7.163 -15.095,7.296 -15.121,7.398M-35.492,-3.983C-35.742,-3.393 -35.46,-2.789 -35.079,-2.216C-34.604,-1.502 -33.854,-1.26 -33.064,-1.182C-32.519,-1.128 -31.944,-1.133 -31.409,-1.241C-30.648,-1.395 -29.91,-1.659 -29.167,-1.892C-28.21,-2.192 -27.263,-2.52 -26.303,-2.808C-25.853,-2.944 -25.423,-2.838 -25.073,-2.507C-24.75,-2.201 -24.473,-1.835 -24.114,-1.583C-23.052,-0.835 -21.882,-0.596 -20.623,-1.021C-19.778,-1.306 -18.949,-1.641 -18.098,-1.904C-17.644,-2.043 -17.24,-1.897 -16.961,-1.458C-16.318,-0.448 -15.365,-0.337 -14.313,-0.612C-11.603,-1.317 -9.013,-2.323 -6.594,-3.746C-6.5,-3.801 -6.437,-3.905 -6.351,-3.974C-6.109,-4.163 -6.062,-4.332 -6.243,-4.446C-6.322,-4.496 -6.453,-4.524 -6.541,-4.496C-9.09,-3.693 -11.638,-2.887 -14.182,-2.066C-15.069,-1.779 -15.675,-2.058 -16.113,-2.867C-16.506,-3.591 -17.2,-3.597 -17.867,-3.405C-18.83,-3.129 -19.765,-2.754 -20.72,-2.449C-22.008,-2.038 -23.18,-2.154 -23.93,-3.43C-24.5,-4.402 -25.311,-4.445 -26.231,-4.172C-27.3,-3.856 -28.35,-3.479 -29.419,-3.165C-30.273,-2.915 -31.135,-2.64 -32.013,-2.535C-32.527,-2.474 -33.09,-2.692 -33.61,-2.851C-34.004,-2.971 -34.253,-3.628 -34.062,-3.969C-33.683,-4.647 -33.246,-5.294 -32.89,-5.983C-32.752,-6.249 -32.711,-6.596 -32.727,-6.902C-32.741,-7.183 -33.403,-7.288 -33.909,-7.094C-35.158,-6.614 -36.394,-6.096 -37.653,-5.648C-38.596,-5.313 -39.556,-4.996 -40.533,-4.796C-41.172,-4.666 -41.86,-4.703 -42.518,-4.765C-43.3,-4.839 -43.879,-5.642 -43.756,-6.468C-43.693,-6.891 -43.543,-7.337 -43.307,-7.688C-42.999,-8.144 -42.563,-8.512 -42.194,-8.927C-42.147,-8.98 -42.146,-9.162 -42.162,-9.168C-42.354,-9.231 -42.598,-9.368 -42.743,-9.302C-43.462,-8.973 -44.065,-8.486 -44.493,-7.805C-45.594,-6.053 -44.541,-3.721 -42.484,-3.482C-41.726,-3.393 -40.924,-3.469 -40.167,-3.609C-39.406,-3.749 -38.673,-4.051 -37.934,-4.302C-37.406,-4.481 -36.895,-4.704 -36.368,-4.887C-35.656,-5.135 -35.472,-4.964 -35.492,-3.983M-36.769,14.694C-44.829,14.895 -52.126,13.924 -59.357,12.464C-63.065,11.716 -66.733,10.751 -70.393,9.786C-73.631,8.931 -76.792,7.824 -79.817,6.365C-79.987,6.283 -80.144,6.029 -80.168,5.838C-80.189,5.677 -80.043,5.455 -79.909,5.324C-79.753,5.174 -79.534,5.085 -79.334,4.985C-71.145,0.905 -63.01,-3.29 -54.746,-7.216C-48.4,-10.231 -41.908,-12.943 -35.45,-15.717C-32.167,-17.127 -28.781,-18.313 -25.273,-19.003C-22.104,-19.628 -18.881,-19.975 -15.684,-20.46C-14.346,-20.663 -13.022,-20.586 -11.682,-20.445C-9.771,-20.244 -7.957,-19.768 -6.224,-18.946C-5.623,-18.66 -5.004,-18.408 -4.375,-18.193C-4.258,-18.153 -4.04,-18.343 -3.902,-18.465C-3.861,-18.501 -3.9,-18.694 -3.96,-18.769C-4.74,-19.753 -5.741,-20.447 -6.887,-20.937C-7.503,-21.199 -8.136,-21.42 -8.756,-21.673C-9.394,-21.934 -9.604,-22.398 -9.375,-22.987C-8.349,-25.622 -6.846,-27.966 -4.892,-29.994C-1.828,-33.173 1.725,-35.571 5.965,-37.002C11.365,-38.826 16.818,-39.341 22.463,-38.569C25.359,-38.172 28.147,-37.477 30.913,-36.581C34.062,-35.561 36.676,-33.754 39.114,-31.552C42.178,-28.784 43.653,-25.279 44.372,-21.346C44.412,-21.127 44.429,-20.904 44.451,-20.682C44.523,-19.969 44.137,-19.303 43.497,-19.095C42.756,-18.855 42.014,-18.599 41.252,-18.446C40.979,-18.392 40.629,-18.58 40.355,-18.732C40.176,-18.831 40.062,-19.058 39.934,-19.238C39.612,-19.695 39.342,-20.195 38.976,-20.611C34.644,-25.527 29.712,-29.632 23.513,-32.028C21.606,-32.764 19.645,-33.169 17.613,-32.951C14.122,-32.577 11.543,-30.893 10.219,-27.526C9.84,-26.562 9.73,-25.568 9.931,-24.566C10.661,-20.904 12.672,-18.265 16.217,-16.921C18.43,-16.082 20.777,-15.883 23.102,-15.592C24.097,-15.467 25.1,-15.403 26.1,-15.313C26.394,-15.285 26.547,-15.13 26.448,-14.879C26.376,-14.694 26.233,-14.462 26.066,-14.399C24.397,-13.767 22.728,-13.137 21.038,-12.564C18.772,-11.793 16.905,-10.438 15.112,-8.885C11.255,-5.545 8.492,-1.367 5.812,2.889C5.164,3.919 4.679,5.07 3.674,5.84C3.6,5.896 3.445,5.929 3.376,5.89C3.294,5.844 3.204,5.697 3.218,5.609C3.534,3.633 3.905,1.664 4.183,-0.318C4.734,-4.263 4.147,-8.104 2.983,-11.876C2.853,-12.299 2.646,-12.704 2.428,-13.091C2.356,-13.217 2.138,-13.259 1.986,-13.339C1.933,-13.132 1.805,-12.911 1.837,-12.719C2.1,-11.182 2.376,-9.647 2.683,-8.117C3.014,-6.461 3.021,-4.79 2.989,-3.114C2.922,0.43 1.568,3.351 -1.117,5.695C-3.67,7.924 -6.456,9.681 -9.698,10.765C-12.78,11.797 -15.921,12.555 -19.109,13.096C-25.166,14.122 -31.249,14.958 -36.769,14.694" style="fill:rgb(179,221,235);fill-rule:nonzero;"/>
                    </g>
                    <g transform="matrix(1,0,0,1,322.38,288.589)">
                        <path d="M0,-2.872C0.008,-3.633 -0.293,-4.303 -0.78,-4.614C-2.05,-5.427 -3.87,-5.032 -4.562,-3.752C-5.105,-2.747 -5.306,-1.666 -4.989,-0.539C-4.763,0.267 -4.254,0.819 -3.421,1.017C-2.61,1.209 -1.88,1.042 -1.281,0.44C-0.373,-0.476 0.032,-1.591 0,-2.872M10.719,6.311C7.609,6.019 4.498,5.739 1.391,5.43C0.059,5.297 -1.266,5.088 -2.595,4.937C-4.267,4.745 -5.894,4.374 -7.457,3.754C-9.414,2.979 -10.837,1.614 -11.742,-0.273C-13.313,-3.55 -12.04,-6.882 -8.697,-8.294C-6.883,-9.06 -5.006,-9.183 -3.125,-8.654C-1.841,-8.294 -0.558,-7.87 0.65,-7.311C5.906,-4.885 10.291,-1.318 13.992,3.108C14.349,3.535 14.654,4.006 14.961,4.472C15.405,5.144 14.89,6.182 14.071,6.208C12.958,6.244 11.843,6.217 10.729,6.217C10.726,6.248 10.723,6.279 10.719,6.311" style="fill:white;fill-rule:nonzero;"/>
                    </g>
                    <g transform="matrix(1,0,0,1,221.265,324.333)">
                        <path d="M0,12.769C-1.085,12.576 -2.626,12.324 -4.158,12.021C-5.25,11.804 -6.333,11.535 -7.411,11.249C-7.565,11.208 -7.756,10.949 -7.758,10.789C-7.761,10.623 -7.567,10.443 -7.431,10.294C-7.362,10.219 -7.232,10.202 -7.13,10.155C-2.969,8.254 1.182,6.332 5.356,4.461C7.903,3.319 10.453,2.184 12.833,0.719C13.743,0.16 14.652,-0.062 15.695,0.146C18.427,0.691 21.165,1.211 23.896,1.768C24.064,1.802 24.273,2.047 24.305,2.222C24.333,2.382 24.186,2.626 24.044,2.751C23.797,2.971 23.506,3.151 23.213,3.308C16.914,6.691 10.452,9.716 3.708,12.114C2.976,12.374 2.22,12.579 1.462,12.757C1.146,12.831 0.797,12.769 0,12.769" style="fill:rgb(125,128,139);fill-rule:nonzero;"/>
                    </g>
                    <g transform="matrix(1,0,0,1,209.549,320.766)">
                        <path d="M0,13.848C-0.715,13.744 -1.382,13.689 -2.03,13.546C-3.327,13.26 -4.618,12.94 -5.901,12.596C-6.062,12.552 -6.184,12.291 -6.279,12.108C-6.308,12.052 -6.209,11.883 -6.128,11.827C-5.038,11.067 -3.977,10.259 -2.839,9.577C0.021,7.866 2.918,6.216 5.795,4.533C8.095,3.186 10.385,1.822 12.686,0.475C13.17,0.192 13.685,0 14.269,0.171C17.251,1.043 20.237,1.907 23.216,2.79C23.411,2.848 23.729,3.13 23.709,3.172C23.583,3.432 23.417,3.708 23.188,3.874C22.833,4.134 22.424,4.327 22.024,4.518C20.622,5.187 19.223,5.866 17.804,6.502C14.055,8.184 10.306,9.869 6.536,11.503C4.908,12.208 3.231,12.805 1.567,13.423C1.052,13.615 0.502,13.715 0,13.848" style="fill:rgb(125,128,139);fill-rule:nonzero;"/>
                    </g>
                    <g transform="matrix(1,0,0,1,233.374,326.553)">
                        <path d="M0,11.958C-2.214,11.704 -4.428,11.452 -6.641,11.191C-6.736,11.18 -6.822,11.089 -6.913,11.036C-6.792,10.863 -6.708,10.608 -6.542,10.532C-5.633,10.112 -4.712,9.715 -3.781,9.349C1.209,7.386 6,5.004 10.724,2.481C11.51,2.062 12.326,1.658 13.018,1.108C14.239,0.139 15.533,-0.101 17.071,0.101C19.499,0.419 21.954,0.542 24.398,0.736C24.684,0.759 24.853,0.856 24.818,1.133C24.794,1.336 24.76,1.603 24.625,1.718C22.413,3.61 20.02,5.231 17.408,6.534C13.202,8.633 8.791,10.187 4.322,11.604C2.89,12.059 1.455,11.922 0,11.958" style="fill:rgb(125,128,139);fill-rule:nonzero;"/>
                    </g>
                    <g transform="matrix(1,0,0,1,200.579,317.536)">
                        <path d="M0,15.218C-0.167,15.192 -0.28,15.188 -0.385,15.155C-1.336,14.857 -2.308,14.607 -3.232,14.239C-4.497,13.734 -4.674,12.909 -3.693,11.964C-2.817,11.119 -1.889,10.307 -0.889,9.617C3.971,6.268 9.08,3.331 14.329,0.636C15.046,0.268 15.746,0 16.539,0.407C17.823,1.065 19.114,1.71 20.403,2.359C20.668,2.492 20.618,2.989 20.303,3.182C19.072,3.935 17.846,4.697 16.593,5.412C13.31,7.286 9.989,9.096 6.73,11.012C4.721,12.195 2.801,13.528 0.835,14.784C0.559,14.961 0.252,15.089 0,15.218" style="fill:rgb(125,128,139);fill-rule:nonzero;"/>
                    </g>
                    <g transform="matrix(1,0,0,1,245.749,327.487)">
                        <path d="M0,11.481C-1.334,11.481 -2.669,11.491 -4.004,11.468C-4.172,11.465 -4.344,11.306 -4.502,11.2C-4.683,11.079 -4.34,10.66 -3.935,10.504C-2.172,9.827 -0.4,9.168 1.353,8.464C5.404,6.835 9.168,4.713 12.528,1.903C13.21,1.333 13.916,0.784 14.655,0.293C15.01,0.058 15.465,-0.135 15.881,-0.148C17.768,-0.207 19.657,-0.197 21.545,-0.201C21.623,-0.202 21.764,-0.099 21.768,-0.038C21.78,0.168 21.827,0.459 21.715,0.572C20.389,1.915 19.098,3.302 17.676,4.537C15.234,6.655 12.532,8.425 9.787,10.127C8.925,10.662 8.021,11.027 6.987,11.101C4.66,11.269 2.336,11.49 0.011,11.688C0.007,11.619 0.004,11.549 0,11.481" style="fill:rgb(125,128,139);fill-rule:nonzero;"/>
                    </g>
                    <g transform="matrix(1,0,0,1,278.112,337.795)">
                        <path d="M0,-11.848C0.128,-11.775 0.437,-11.675 0.614,-11.464C0.705,-11.357 0.619,-11.015 0.514,-10.839C-1.213,-7.963 -3.103,-5.214 -5.579,-2.91C-6.508,-2.046 -7.517,-1.492 -8.813,-1.341C-12.244,-0.946 -15.665,-0.456 -19.092,-0.023C-19.273,0 -19.484,-0.129 -19.661,-0.226C-19.698,-0.246 -19.687,-0.486 -19.625,-0.536C-19.115,-0.959 -18.61,-1.396 -18.062,-1.764C-14.71,-4.014 -11.622,-6.562 -9.082,-9.722C-8.561,-10.371 -7.94,-10.74 -7.12,-10.85C-4.801,-11.161 -2.484,-11.497 0,-11.848" style="fill:rgb(125,128,139);fill-rule:nonzero;"/>
                    </g>
                    <g transform="matrix(1,0,0,1,276.351,323.928)">
                        <path d="M0,11.371C-0.846,11.468 -1.171,11.518 -1.498,11.532C-1.585,11.535 -1.715,11.439 -1.754,11.356C-1.794,11.267 -1.793,11.106 -1.736,11.034C-1.12,10.252 -0.455,9.506 0.13,8.701C1.501,6.813 2.822,4.892 3.794,2.757C4.032,2.235 4.343,1.729 4.905,1.591C7.378,0.979 9.861,0.412 12.348,-0.141C12.452,-0.164 12.712,0.094 12.741,0.25C12.776,0.442 12.682,0.684 12.582,0.873C11.175,3.527 9.511,6.018 7.769,8.462C7.23,9.217 6.54,9.692 5.622,9.914C3.574,10.411 1.542,10.969 0,11.371" style="fill:rgb(125,128,139);fill-rule:nonzero;"/>
                    </g>
                    <g transform="matrix(1,0,0,1,286.373,317.644)">
                        <path d="M0,14.683C-0.177,14.537 -0.291,14.484 -0.334,14.396C-0.372,14.315 -0.37,14.176 -0.325,14.098C1.284,11.3 2.89,8.501 4.528,5.721C4.743,5.357 5.077,4.973 5.449,4.805C8.025,3.646 10.135,1.817 12.329,0.108C12.409,0.045 12.617,0 12.621,0.01C12.704,0.197 12.869,0.432 12.813,0.579C12.301,1.932 11.838,3.329 10.488,4.136C10.153,4.336 10.107,4.644 10.151,4.979C10.234,5.611 9.882,6.044 9.473,6.424C7.513,8.246 5.54,10.052 3.57,11.862C2.755,12.612 1.955,13.38 1.107,14.093C0.782,14.366 0.344,14.504 0,14.683" style="fill:rgb(125,128,139);fill-rule:nonzero;"/>
                    </g>
                    <g transform="matrix(1,0,0,1,313.692,326.416)">
                        <path d="M0,6.033C0.356,4.032 0.743,1.849 1.138,-0.333C1.217,-0.769 1.545,-1.01 1.796,-0.818C1.964,-0.689 2.234,-0.537 2.244,-0.382C2.407,2.204 1.941,4.672 0.762,6.99C0.735,7.043 0.546,7.04 0.442,7.016C0.356,6.998 0.243,6.929 0.215,6.853C0.139,6.653 0.102,6.438 0,6.033" style="fill-rule:nonzero;"/>
                    </g>
                    <g transform="matrix(1,0,0,1,293.818,344.141)">
                        <path d="M0,6.891C-0.072,6.814 -0.225,6.702 -0.208,6.665C0.437,5.225 3.62,0.972 4.72,0.111C4.85,0.01 5.167,0 5.299,0.091C5.444,0.191 5.541,0.455 5.541,0.649C5.542,0.849 5.433,1.069 5.32,1.248C4.024,3.322 2.359,5.082 0.586,6.745C0.457,6.865 0.198,6.845 0,6.891" style="fill-rule:nonzero;"/>
                    </g>
                    <g transform="matrix(1,0,0,1,275.299,356.088)">
                        <path d="M0,5.154C-0.089,5.089 -0.217,5.041 -0.254,4.953C-0.283,4.887 -0.225,4.736 -0.157,4.683C1.826,3.118 3.811,1.554 5.815,0.016C5.918,-0.062 6.205,0.08 6.394,0.151C6.436,0.168 6.446,0.326 6.434,0.414C6.418,0.519 6.383,0.635 6.319,0.72C4.771,2.815 2.711,4.227 0.314,5.182C0.228,5.216 0.105,5.165 0,5.154" style="fill-rule:nonzero;"/>
                    </g>
                    <g transform="matrix(1,0,0,1,308.927,332.762)">
                        <path d="M0,5.3C0.043,5.062 0.033,4.724 0.164,4.453C0.877,2.975 1.606,1.504 2.38,0.057C2.495,-0.158 2.875,-0.23 3.133,-0.369C3.221,-0.071 3.431,0.252 3.376,0.522C2.971,2.492 2.147,4.246 0.54,5.545C0.46,5.61 0.319,5.669 0.237,5.641C0.155,5.612 0.112,5.472 0,5.3" style="fill-rule:nonzero;"/>
                    </g>
                    <g transform="matrix(1,0,0,1,306.668,343.829)">
                        <path d="M0,-5.245C-0.025,-5.029 0.008,-4.783 -0.085,-4.601C-1.009,-2.801 -2.235,-1.225 -3.722,0.148C-3.954,0.362 -4.127,0.361 -4.231,0.101C-4.267,0.013 -4.273,-0.125 -4.229,-0.201C-3.259,-1.824 -2.294,-3.451 -1.285,-5.05C-1.13,-5.297 -0.765,-5.419 -0.482,-5.572C-0.418,-5.607 -0.277,-5.554 -0.201,-5.5C-0.117,-5.439 -0.066,-5.332 0,-5.245" style="fill-rule:nonzero;"/>
                    </g>
                    <g transform="matrix(1,0,0,1,291.91,355.37)">
                        <path d="M0,-4.475C-0.128,-4.216 -0.222,-3.883 -0.424,-3.64C-1.713,-2.089 -3.208,-0.76 -4.881,0.362C-4.996,0.439 -5.269,0.289 -5.463,0.226C-5.475,0.222 -5.467,0.029 -5.414,-0.026C-3.877,-1.632 -2.339,-3.238 -0.776,-4.819C-0.682,-4.914 -0.38,-4.831 -0.185,-4.787C-0.117,-4.772 -0.082,-4.621 0,-4.475" style="fill-rule:nonzero;"/>
                    </g>
                    <g transform="matrix(1,0,0,1,275.712,361.452)">
                        <path d="M0,-3.616C-0.171,-3.368 -0.32,-3.067 -0.544,-2.84C-1.86,-1.497 -3.44,-0.518 -5.087,0.356C-5.242,0.439 -5.508,0.395 -5.689,0.325C-5.923,0.238 -5.906,0.025 -5.665,-0.163C-4.024,-1.438 -2.386,-2.717 -0.727,-3.968C-0.61,-4.055 -0.331,-3.946 -0.137,-3.893C-0.08,-3.878 -0.058,-3.739 0,-3.616" style="fill-rule:nonzero;"/>
                    </g>
                    <g transform="matrix(1,0,0,1,263.142,359.992)">
                        <path d="M0,3.161C0.98,1.695 2.311,0.62 3.825,-0.245C3.894,-0.284 4.083,-0.251 4.112,-0.196C4.205,-0.021 4.362,0.26 4.293,0.359C3.285,1.82 1.986,2.916 0.26,3.445C0.172,3.35 0.086,3.257 0,3.161" style="fill-rule:nonzero;"/>
                    </g>
                    <g transform="matrix(1,0,0,1,255.335,361.221)">
                        <path d="M0,3.872C-0.172,3.759 -0.291,3.718 -0.336,3.637C-0.364,3.585 -0.305,3.448 -0.244,3.392C1.012,2.206 2.199,0.937 3.697,0.038C3.76,0 3.91,0.047 3.982,0.103C4.05,0.155 4.097,0.271 4.097,0.36C4.098,0.461 4.062,0.583 3.998,0.659C2.864,2.004 1.471,3.015 0,3.872" style="fill-rule:nonzero;"/>
                    </g>
                    <g transform="matrix(1,0,0,1,241.597,361.481)">
                        <path d="M0,3.076C-0.161,3.028 -0.273,3.02 -0.354,2.965C-0.538,2.839 -0.499,2.667 -0.24,2.509C0.973,1.769 2.184,1.026 3.407,0.304C3.92,0 4.322,0.051 4.227,0.356C4.164,0.559 4.114,0.811 3.967,0.936C2.787,1.945 1.376,2.53 0,3.076" style="fill-rule:nonzero;"/>
                    </g>
                    <g transform="matrix(1,0,0,1,287.027,347.591)">
                        <path d="M0,4.021C-0.085,3.98 -0.201,3.959 -0.247,3.892C-0.298,3.818 -0.332,3.665 -0.289,3.607C0.556,2.461 1.405,1.32 2.277,0.195C2.373,0.072 2.615,0.062 2.789,0C2.846,0.201 3.011,0.454 2.942,0.595C2.213,2.115 1.314,3.136 0,4.021" style="fill-rule:nonzero;"/>
                    </g>
                    <g transform="matrix(1,0,0,1,234.873,361.367)">
                        <path d="M0,2.422C-0.076,2.444 -0.206,2.365 -0.275,2.298C-0.308,2.266 -0.287,2.108 -0.242,2.076C0.755,1.391 1.752,0.701 2.773,0.053C2.891,-0.022 3.154,0.133 3.35,0.182C3.291,0.36 3.283,0.595 3.162,0.709C2.265,1.561 1.175,2.076 0,2.422" style="fill-rule:nonzero;"/>
                    </g>
                    <g transform="matrix(1,0,0,1,245.896,355.271)">
                        <path d="M0,1.693C-0.107,1.579 -0.224,1.511 -0.235,1.428C-0.248,1.332 -0.198,1.164 -0.126,1.129C0.656,0.751 1.441,0.373 2.247,0.049C2.371,0 2.609,0.221 2.783,0.336C2.792,0.341 2.703,0.532 2.634,0.616C1.94,1.462 0.918,1.474 0,1.693" style="fill-rule:nonzero;"/>
                    </g>
                    <g transform="matrix(1,0,0,1,316.99,315.442)">
                        <path d="M0,-0.548C0.121,0.185 0.217,0.412 0.172,0.605C0.138,0.755 -0.062,0.883 -0.214,0.978C-0.267,1.012 -0.433,0.948 -0.488,0.881C-0.989,0.277 -1.25,-0.419 -1.133,-1.203C-1.112,-1.344 -0.841,-1.525 -0.67,-1.543C-0.514,-1.56 -0.236,-1.419 -0.187,-1.284C-0.04,-0.885 0.021,-0.453 0,-0.548" style="fill-rule:nonzero;"/>
                    </g>
                    <g transform="matrix(1,0,0,1,314.823,314.014)">
                        <path d="M0,0.138C-0.032,0.322 -0.079,0.635 -0.146,0.944C-0.168,1.043 -0.271,1.217 -0.289,1.211C-0.483,1.149 -0.733,1.108 -0.843,0.964C-1.278,0.396 -1.199,-0.223 -0.853,-0.798C-0.762,-0.947 -0.498,-1.079 -0.326,-1.064C-0.206,-1.053 -0.061,-0.795 -0.013,-0.623C0.041,-0.426 0,-0.204 0,0.138" style="fill-rule:nonzero;"/>
                    </g>
                    <g transform="matrix(1,0,0,1,234.144,361.357)">
                        <path d="M0,-1.372C-0.611,-0.493 -1.408,0.178 -2.513,0.428C-2.583,0.443 -2.721,0.327 -2.762,0.241C-2.788,0.187 -2.712,0.056 -2.649,-0.01C-1.973,-0.706 -1.325,-1.44 -0.379,-1.79C-0.311,-1.815 -0.181,-1.747 -0.116,-1.684C-0.058,-1.63 -0.051,-1.521 0,-1.372" style="fill-rule:nonzero;"/>
                    </g>
                    <g transform="matrix(1,0,0,1,311.36,312.425)">
                        <path d="M0,0.492C0.167,0.106 0.403,-0.491 0.696,-1.06C0.744,-1.153 1.048,-1.142 1.228,-1.123C1.304,-1.115 1.415,-0.969 1.425,-0.876C1.506,-0.074 1.165,0.627 0.829,1.316C0.754,1.47 0.502,1.538 0.331,1.645C0.236,1.453 0.131,1.266 0.054,1.068C0.016,0.97 0.03,0.851 0,0.492" style="fill-rule:nonzero;"/>
                    </g>
                    <g transform="matrix(1,0,0,1,229.332,359.509)">
                        <path d="M0,-1.375C-0.23,-0.617 -0.791,-0.167 -1.462,0.17C-1.527,0.203 -1.662,0.157 -1.729,0.104C-1.78,0.064 -1.821,-0.075 -1.791,-0.12C-1.386,-0.731 -1.018,-1.39 -0.219,-1.565C-0.163,-1.578 -0.074,-1.442 0,-1.375" style="fill-rule:nonzero;"/>
                    </g>
                    <g transform="matrix(1,0,0,1,251.089,358.967)">
                        <path d="M0,-0.989C-0.011,-0.881 0.019,-0.737 -0.04,-0.671C-0.552,-0.091 -1.111,0.418 -1.971,0.311C-2.066,0.299 -2.177,0.211 -2.231,0.127C-2.27,0.068 -2.258,-0.068 -2.214,-0.131C-1.756,-0.776 -1.091,-1.129 -0.369,-1.385C-0.311,-1.407 -0.191,-1.324 -0.133,-1.26C-0.069,-1.187 -0.043,-1.081 0,-0.989" style="fill-rule:nonzero;"/>
                    </g>
                    <g transform="matrix(1,0,0,1,249.902,362.173)">
                        <path d="M0,1.829C0.298,0.762 1.2,0.364 2.092,-0.034C2.143,-0.058 2.282,0.046 2.337,0.122C2.382,0.183 2.403,0.323 2.364,0.373C1.748,1.164 1.085,1.887 -0.058,1.766L0,1.829Z" style="fill-rule:nonzero;"/>
                    </g>
                    <g transform="matrix(1,0,0,1,243.374,353.74)">
                        <path d="M0,0.282C0.271,0.087 0.508,-0.135 0.787,-0.265C0.949,-0.34 1.179,-0.268 1.379,-0.262C1.339,-0.103 1.351,0.13 1.25,0.2C0.997,0.378 0.697,0.495 0.404,0.603C0.353,0.622 0.242,0.479 0,0.282" style="fill-rule:nonzero;"/>
                    </g>
                    <g transform="matrix(-0.638674,-0.769477,-0.769477,0.638674,284.868,347.603)">
                        <path d="M-0.319,-1.03C-0.756,-0.872 -0.929,-0.119 -0.594,0.226C-0.551,0.272 -0.369,0.26 -0.319,0.209C0.009,-0.119 0.038,-0.53 -0.06,-0.954C-0.069,-0.997 -0.228,-1.006 -0.319,-1.03" style="fill-rule:nonzero;"/>
                    </g>
                    <g transform="matrix(1,0,0,1,263.401,364.207)">
                        <path d="M0,-0.77C-0.402,-0.434 -0.788,-0.074 -1.221,0.218C-1.317,0.284 -1.58,0.104 -1.766,0.038C-1.711,-0.046 -1.675,-0.158 -1.599,-0.208C-1.158,-0.499 -0.707,-0.774 -0.26,-1.054C-0.174,-0.958 -0.088,-0.865 0,-0.77" style="fill-rule:nonzero;"/>
                    </g>
                    <g transform="matrix(1,0,0,1,249.844,365.127)">
                        <path d="M0,-1.189C0,-0.505 -0.61,-0.394 -1.027,-0.111C-1.246,0.037 -1.457,-0.047 -1.549,-0.301C-1.566,-0.35 -1.426,-0.46 -1.352,-0.537C-0.967,-0.935 -0.536,-1.226 0.058,-1.126L0,-1.189Z" style="fill-rule:nonzero;"/>
                    </g>
                    <g transform="matrix(1,0,0,1,262.857,305.416)">
                        <path d="M0,1.74C0.021,0.759 -0.164,0.588 -0.876,0.836C-1.402,1.018 -1.914,1.242 -2.441,1.421C-3.181,1.672 -3.914,1.973 -4.675,2.114C-5.432,2.254 -6.233,2.33 -6.992,2.241C-9.049,2.002 -10.102,-0.33 -9.001,-2.082C-8.573,-2.763 -7.97,-3.25 -7.251,-3.579C-7.105,-3.646 -6.861,-3.508 -6.67,-3.446C-6.653,-3.44 -6.655,-3.257 -6.702,-3.204C-7.071,-2.789 -7.507,-2.421 -7.814,-1.965C-8.051,-1.614 -8.201,-1.168 -8.264,-0.745C-8.387,0.081 -7.808,0.884 -7.025,0.958C-6.368,1.019 -5.68,1.056 -5.041,0.927C-4.063,0.726 -3.104,0.41 -2.161,0.075C-0.901,-0.373 0.334,-0.892 1.583,-1.371C2.089,-1.566 2.751,-1.46 2.766,-1.179C2.781,-0.873 2.74,-0.527 2.603,-0.26C2.246,0.428 1.81,1.076 1.431,1.754C1.239,2.094 1.488,2.752 1.882,2.872C2.402,3.031 2.965,3.249 3.479,3.187C4.357,3.083 5.219,2.807 6.073,2.557C7.143,2.244 8.192,1.867 9.261,1.551C10.182,1.278 10.992,1.321 11.563,2.293C12.313,3.569 13.484,3.684 14.772,3.273C15.728,2.969 16.662,2.594 17.625,2.317C18.292,2.126 18.986,2.132 19.379,2.855C19.817,3.665 20.423,3.943 21.311,3.657C23.854,2.836 26.402,2.03 28.951,1.226C29.039,1.199 29.17,1.226 29.249,1.276C29.431,1.39 29.383,1.559 29.142,1.749C29.055,1.817 28.992,1.922 28.898,1.976C26.479,3.399 23.89,4.406 21.18,5.111C20.127,5.386 19.174,5.274 18.531,4.264C18.252,3.826 17.849,3.679 17.395,3.819C16.543,4.082 15.714,4.417 14.869,4.702C13.61,5.127 12.44,4.887 11.378,4.139C11.02,3.887 10.742,3.521 10.419,3.216C10.069,2.885 9.64,2.779 9.189,2.915C8.229,3.203 7.282,3.531 6.325,3.831C5.582,4.063 4.844,4.328 4.083,4.481C3.548,4.59 2.974,4.594 2.428,4.541C1.639,4.463 0.889,4.22 0.413,3.507C0.032,2.933 -0.25,2.33 0,1.74" style="fill-rule:nonzero;"/>
                    </g>
                    <g transform="matrix(1,0,0,1,283.228,315.77)">
                        <path d="M0,2.767C0.026,2.664 0.02,2.532 0.083,2.462C1.136,1.321 2.424,0.504 3.805,-0.175C3.851,-0.199 3.989,-0.087 4.052,-0.01C4.112,0.064 4.187,0.198 4.158,0.263C4.033,0.552 3.937,0.896 3.717,1.094C2.722,1.988 1.562,2.607 0.266,2.949C0.198,2.966 0.09,2.83 0,2.767" style="fill-rule:nonzero;"/>
                    </g>
                    <g transform="matrix(1,0,0,1,291.993,318.006)">
                        <path d="M0,-3.693C0.01,-3.483 0.097,-3.237 0.019,-3.068C-0.65,-1.613 -1.702,-0.515 -3.146,0.191C-3.23,0.232 -3.358,0.222 -3.454,0.195C-3.773,0.104 -3.791,-0.05 -3.572,-0.296C-2.541,-1.448 -1.521,-2.612 -0.491,-3.766C-0.422,-3.844 -0.297,-3.925 -0.206,-3.917C-0.132,-3.91 -0.068,-3.772 0,-3.693" style="fill-rule:nonzero;"/>
                    </g>
                    <g transform="matrix(1,0,0,1,278.498,315.985)">
                        <path d="M0,2.344C-0.091,2.279 -0.224,2.23 -0.258,2.142C-0.285,2.072 -0.219,1.921 -0.148,1.863C0.615,1.23 1.386,0.604 2.164,-0.01C2.224,-0.058 2.377,-0.044 2.455,-0.001C2.692,0.129 2.713,0.326 2.592,0.577C2.122,1.547 1.317,2.086 0.315,2.374C0.221,2.402 0.105,2.356 0,2.344" style="fill-rule:nonzero;"/>
                    </g>
                    <g transform="matrix(1,0,0,1,273.272,318.302)">
                        <path d="M0,-1.581C-0.027,-1.477 -0.032,-1.359 -0.086,-1.271C-0.614,-0.41 -1.362,0.156 -2.371,0.307C-2.518,0.328 -2.715,0.135 -2.854,0.003C-2.903,-0.045 -2.892,-0.263 -2.837,-0.3C-2.052,-0.838 -1.47,-1.683 -0.469,-1.893C-0.386,-1.909 -0.272,-1.863 -0.198,-1.811C-0.117,-1.757 -0.064,-1.66 0,-1.581" style="fill-rule:nonzero;"/>
                    </g>
                    <g transform="matrix(1,0,0,1,296.448,283.361)">
                        <path d="M0,2.485C-0.062,2.397 -0.147,2.317 -0.18,2.219C-0.21,2.125 -0.217,2 -0.182,1.908C0.098,1.175 0.641,0.676 1.285,0.266C1.705,0 2.457,0.037 2.43,0.33C2.403,0.606 2.307,0.958 2.111,1.121C1.539,1.599 0.903,2.004 0.286,2.427C0.212,2.478 0.097,2.467 0,2.485" style="fill-rule:nonzero;"/>
                    </g>
                    <g transform="matrix(1,0,0,1,263.915,316.03)">
                        <path d="M0,1.528C-0.061,1.459 -0.178,1.332 -0.174,1.328C0.599,0.562 1.442,-0.076 2.596,-0.092C2.646,-0.092 2.743,0.072 2.74,0.157C2.737,0.254 2.668,0.371 2.592,0.441C1.937,1.041 1.159,1.405 0.3,1.599C0.21,1.62 0.101,1.554 0,1.528" style="fill-rule:nonzero;"/>
                    </g>
                    <g transform="matrix(1,0,0,1,298.35,288.203)">
                        <path d="M0,-1.446C0.02,-1.348 0.072,-1.244 0.054,-1.155C-0.083,-0.492 -0.467,-0.017 -1.105,0.204C-1.189,0.234 -1.468,0.013 -1.48,-0.11C-1.554,-0.835 -1.064,-1.259 -0.54,-1.614C-0.442,-1.68 -0.185,-1.508 0,-1.446" style="fill-rule:nonzero;"/>
                    </g>
                    <g transform="matrix(1,0,0,1,322.38,287.243)">
                        <path d="M0,-1.526C0.032,-0.245 -0.373,0.87 -1.281,1.786C-1.88,2.388 -2.61,2.555 -3.421,2.363C-4.254,2.165 -4.763,1.613 -4.989,0.807C-5.306,-0.32 -5.105,-1.401 -4.562,-2.406C-3.87,-3.686 -2.05,-4.081 -0.78,-3.268C-0.293,-2.957 0.008,-2.287 0,-1.526" style="fill-rule:nonzero;"/>
                    </g>
                    <g transform="matrix(1,0,0,1,297.56,308.903)">
                        <path d="M0,-11.2C-0.496,-11.832 -1.113,-12.351 -1.76,-12.81C-2.398,-13.284 -3.099,-13.667 -3.81,-14.014C-5.242,-14.695 -6.777,-15.124 -8.327,-15.414C-11.442,-15.965 -14.637,-15.9 -17.774,-15.505C-20.896,-15.067 -23.96,-14.26 -26.976,-13.208C-27.729,-12.946 -28.492,-12.723 -29.24,-12.444L-31.487,-11.62C-32.992,-11.09 -34.468,-10.47 -35.955,-9.888C-41.897,-7.525 -47.756,-4.933 -53.605,-2.317C-59.444,0.323 -65.275,2.993 -71.1,5.695C-65.523,2.511 -59.843,-0.491 -54.068,-3.303C-48.299,-6.128 -42.444,-8.783 -36.473,-11.183C-34.97,-11.761 -33.482,-12.373 -31.958,-12.899C-30.442,-13.445 -28.931,-14.004 -27.38,-14.463C-24.318,-15.451 -21.137,-16.262 -17.891,-16.584C-14.663,-16.895 -11.364,-16.81 -8.186,-16.08C-6.608,-15.677 -5.062,-15.134 -3.641,-14.341C-2.233,-13.548 -0.9,-12.541 0,-11.2" style="fill:white;fill-rule:nonzero;"/>
                    </g>
                    <g transform="matrix(0.0189126,-0.999821,-0.999821,-0.0189126,336.988,280.557)">
                        <path d="M-2.948,-2.502C-3.095,-1.556 -3.091,-0.652 -3.086,0.254C-3.066,1.162 -3.045,2.045 -2.948,2.997C-2.498,2.14 -2.386,1.174 -2.389,0.244C-2.418,-0.69 -2.548,-1.626 -2.948,-2.502" style="fill:white;fill-rule:nonzero;"/>
                    </g>
                    <g transform="matrix(1,0,0,1,334.721,278.615)">
                        <path d="M0,0.997C-0.835,0.965 -1.592,0.886 -2.37,0.788C-2.755,0.728 -3.144,0.681 -3.532,0.6C-3.921,0.523 -4.312,0.438 -4.712,0.291C-3.913,0.014 -3.087,0 -2.277,0.097C-1.873,0.158 -1.471,0.242 -1.084,0.387C-0.699,0.529 -0.317,0.711 0,0.997" style="fill:white;fill-rule:nonzero;"/>
                    </g>
                    <g transform="matrix(1,0,0,1,328.874,275.166)">
                        <path d="M0,0.511L-4.268,0.595C-4.976,0.597 -5.685,0.618 -6.397,0.604C-7.11,0.599 -7.825,0.585 -8.552,0.511C-7.158,0.089 -5.72,-0.07 -4.278,-0.102C-3.558,-0.107 -2.834,-0.086 -2.115,0.008C-1.398,0.099 -0.677,0.231 0,0.511" style="fill:white;fill-rule:nonzero;"/>
                    </g>
                    <g transform="matrix(1,0,0,1,319.81,275.473)">
                        <path d="M0,-2.065C-1.267,-1.636 -2.533,-1.356 -3.788,-1.042C-4.418,-0.897 -5.04,-0.733 -5.66,-0.566C-6.278,-0.388 -6.895,-0.216 -7.499,0.068C-7.064,-0.456 -6.453,-0.798 -5.848,-1.077C-5.236,-1.359 -4.597,-1.559 -3.952,-1.719C-3.305,-1.868 -2.652,-1.989 -1.992,-2.046C-1.333,-2.109 -0.668,-2.133 0,-2.065" style="fill:white;fill-rule:nonzero;"/>
                    </g>
                    <g transform="matrix(1,0,0,1,308.927,276.986)">
                        <path d="M0,-2.88C-0.823,-2.315 -1.665,-1.896 -2.488,-1.443C-3.322,-0.998 -4.113,-0.573 -4.923,0C-4.743,-0.473 -4.407,-0.871 -4.04,-1.208C-3.672,-1.554 -3.248,-1.817 -2.818,-2.059C-2.38,-2.287 -1.928,-2.481 -1.456,-2.62C-0.986,-2.763 -0.504,-2.868 0,-2.88" style="fill:white;fill-rule:nonzero;"/>
                    </g>
                </g>
                <g transform="matrix(1,0,0,1,359.562,293.458)">
                    <path d="M0,16.904C-0.05,16.994 -0.088,17.147 -0.151,17.158C-0.244,17.175 -0.374,17.113 -0.457,17.046C-2.79,15.13 -5.229,13.374 -8.004,12.14C-9.125,11.643 -10.258,11.174 -11.38,10.68C-13.932,9.557 -16.496,8.464 -19.021,7.283C-19.919,6.863 -20.756,6.279 -21.547,5.674C-22.297,5.1 -22.406,4.113 -22.031,3.253C-21.202,1.35 -19.628,0.382 -17.751,-0.189C-17.479,-0.271 -17.087,-0.142 -16.812,0.005C-15.334,0.787 -13.819,1.519 -12.426,2.434C-10.375,3.779 -8.384,5.22 -6.426,6.698C-3.098,9.209 -0.986,12.544 0.026,16.58C0.051,16.679 0.01,16.796 0,16.904" style="fill:rgb(227,129,73);fill-rule:nonzero;"/>
                </g>
            </g>
        </g>
    </g>
</svg>
