<?xml version="1.0" encoding="UTF-8" standalone="no"?>
<!DOCTYPE svg PUBLIC "-//W3C//DTD SVG 1.1//EN" "http://www.w3.org/Graphics/SVG/1.1/DTD/svg11.dtd">
<svg width="100%" height="100%" viewBox="0 0 534 534" version="1.1" xmlns="http://www.w3.org/2000/svg" xmlns:xlink="http://www.w3.org/1999/xlink" xml:space="preserve" xmlns:serif="http://www.serif.com/" style="fill-rule:evenodd;clip-rule:evenodd;stroke-linejoin:round;stroke-miterlimit:2;">
    <g transform="matrix(1,0,0,1,-3.77836,-1214.06)">
        <g id="bird07" transform="matrix(1,0,0,1,3.77836,1214.06)">
            <rect x="0" y="0" width="533.333" height="533.333" style="fill:none;"/>
            <g transform="matrix(0.958692,0,0,0.958692,-2948.78,-1944.75)">
                <path d="M3087.63,2477.09C3089.21,2475.35 3091,2473.77 3092.83,2472.29C3112.66,2456.2 3132.62,2440.28 3152.26,2423.97C3155.92,2420.93 3159.49,2420.23 3163.87,2420.22C3185.63,2420.18 3207.39,2419.97 3229.15,2419.82C3245.03,2416.92 3261.12,2418.52 3277.09,2417.48C3323.46,2414.45 3369.28,2408.75 3412.2,2389.45C3448.85,2372.97 3473.1,2344.98 3483.72,2306.42C3490.74,2280.95 3487.42,2256.59 3467.45,2236.86C3463.1,2232.56 3458.57,2228.07 3451.44,2229.84C3449.86,2234.89 3452.88,2237.54 3456.41,2240.39C3475.43,2255.76 3480.63,2276.43 3475.45,2299.03C3466.54,2338 3443.16,2367.28 3405.85,2380.74C3387.41,2387.4 3364.79,2387.21 3349.16,2368.36C3344.77,2363.07 3339.44,2366.51 3334.69,2367.03C3326.01,2367.98 3318.28,2368.94 3317.99,2356.5C3317.84,2350.4 3312.78,2350.92 3308.45,2351.26C3301.86,2351.77 3295.28,2352.5 3288.68,2352.78C3284.81,2352.95 3280.91,2352.11 3279.27,2347.94C3277.85,2344.33 3280.02,2341.7 3282.42,2339.21C3284.86,2336.68 3289.88,2334.96 3287.69,2330.43C3285.13,2325.14 3280.34,2328.22 3276.34,2328.84C3270.28,2329.79 3264.38,2331.91 3258.13,2331.44C3249.66,2330.79 3246.46,2325.43 3250.21,2317.96C3251.25,2315.89 3252.83,2313.92 3254.61,2312.44C3292.74,2280.64 3330.79,2248.83 3378.92,2232.38C3393.27,2227.47 3408.5,2226.47 3422.59,2220.93C3445.08,2212.91 3463.9,2217.31 3478.74,2234.09C3482.81,2238.7 3486.74,2243.43 3490.91,2247.95C3506.52,2264.86 3525.41,2271.88 3548.43,2267.63C3561.65,2265.18 3561.4,2265.66 3562.45,2279.12C3566.44,2330.21 3547.84,2371.11 3508.87,2404.13C3480.85,2427.88 3449.95,2446.7 3417.63,2463.58C3415.11,2464.9 3412.66,2466.83 3409.83,2464.76C3405.24,2461.39 3403.05,2465.31 3400.33,2467.66C3396.76,2470.75 3393.45,2474.21 3389.64,2476.96C3377.61,2485.65 3368.84,2484.81 3358.49,2474.32C3356.49,2472.3 3354.65,2470.13 3352.63,2468.14C3350.29,2465.84 3347.43,2462.07 3344.47,2463.67C3340.5,2465.81 3344.11,2469.15 3345.13,2472.15C3346.75,2476.86 3342.67,2476.32 3340.24,2475.98C3333.23,2475 3326.19,2473.95 3319.34,2472.24C3292.47,2465.57 3269.04,2450.67 3243.63,2440.57C3236.91,2437.91 3240.67,2427.95 3232.33,2428.45C3204.8,2448.42 3177.36,2468.53 3149.65,2488.25C3144.53,2491.9 3139.71,2497.21 3132.23,2495.93C3133.57,2488.56 3140.63,2486.78 3145.38,2482.9C3154.52,2475.43 3164.24,2468.67 3173.49,2461.34C3175.8,2459.5 3179.61,2457.18 3176.51,2453.31C3173.55,2449.61 3170.6,2452.28 3167.94,2454.21C3152.26,2465.6 3136.62,2477.04 3120.95,2488.44C3114.83,2492.89 3108.4,2496.88 3101.4,2499.79C3097.8,2501.28 3093.16,2502.05 3091.39,2498.06C3089.59,2493.98 3094.61,2492.96 3097.2,2491.55C3112.61,2483.16 3126.54,2472.57 3140.71,2462.35C3143.52,2460.32 3148.56,2458.13 3145.88,2453.72C3142.59,2448.3 3138.51,2452.31 3135.11,2454.64C3123.03,2462.93 3111.03,2471.34 3098.94,2479.61C3096.62,2481.2 3094.03,2482.4 3091.55,2483.75C3089.29,2484.99 3086.83,2485.42 3085.3,2483.02C3083.65,2480.41 3086.14,2478.73 3087.63,2477.09ZM3133.51,2407.17C3133.16,2405.04 3135.29,2404 3136.78,2403C3150.87,2393.52 3165.48,2383.2 3181.38,2379.29C3193.54,2376.3 3208.49,2381.16 3221.12,2385.61C3225.4,2387.11 3228.04,2396.19 3235.47,2397.05C3243.95,2398.03 3252.43,2397.59 3260.88,2396.58C3263.22,2396.3 3265.51,2395.65 3267.84,2395.33C3275.66,2394.26 3276.23,2401.54 3276.89,2405.49C3277.64,2410.04 3271.92,2408.16 3269.22,2408.19C3248.95,2408.45 3228.68,2408.33 3208.4,2408.33C3185.3,2410.64 3162.18,2412.19 3139.12,2409.64C3137.12,2409.41 3134.05,2410.4 3133.51,2407.17ZM3197.86,2360.34C3207.98,2348.38 3220.12,2338.57 3232.42,2328.96C3235.02,2326.93 3237.87,2324.04 3239.27,2329.92C3241.84,2340.74 3250.05,2341.95 3259.03,2341.38C3264.79,2341.01 3268.51,2341.18 3268.97,2348.89C3269.54,2358.5 3277.43,2361.99 3285.79,2363.11C3290.87,2363.79 3296.17,2363.11 3301.33,2362.62C3304.78,2362.3 3307.63,2361.55 3309.09,2366.13C3312.49,2376.86 3321.4,2378.49 3330.77,2377.46C3337.33,2376.73 3342.23,2377.44 3346.95,2382.75C3352.56,2389.05 3361.31,2389.31 3368.97,2391.5C3370.29,2391.88 3371.49,2392.65 3372.75,2393.24C3371.43,2393.7 3370.11,2394.21 3368.77,2394.61C3350.54,2399.98 3331.94,2402.91 3312.92,2403.33C3308.66,2403.33 3304.39,2403.08 3300.16,2403.39C3291.36,2404.03 3285.02,2401.21 3284.34,2391.59C3283.9,2385.46 3280.61,2385.13 3275.83,2385.51C3264.52,2386.42 3253.2,2387.16 3241.88,2387.69C3238.72,2387.84 3234.39,2387.85 3233.57,2384.24C3232.87,2381.13 3236.87,2380.21 3239.37,2379.04C3242.52,2377.56 3245.62,2375.85 3243.93,2371.7C3242.28,2367.65 3238.37,2368.85 3235.35,2369.2C3224.58,2370.44 3213.98,2373.31 3203.01,2372.44C3199.82,2372.18 3195.76,2373.27 3193.93,2370.01C3191.56,2365.8 3195.61,2363 3197.86,2360.34ZM3441.3,2186.35C3447.36,2168.99 3449.42,2150.62 3454.37,2132.97C3456.2,2111.2 3463.48,2091.61 3477.96,2075.02C3497.59,2052.53 3528.75,2045.15 3555.24,2056.61C3563.17,2060.04 3570.3,2064.65 3574.96,2072.16C3577.18,2075.74 3580.25,2079.61 3580.44,2083.47C3580.76,2089.97 3574.03,2086.63 3570.72,2088.37C3561.51,2093.23 3554.73,2106.27 3560.23,2116.22C3565.95,2126.57 3560.94,2130.3 3554.12,2135.06C3551.03,2137.22 3548.18,2139.72 3545.22,2142.07C3536.49,2155.02 3537.99,2168.96 3541.59,2182.93C3546.88,2203.47 3552.65,2223.88 3557.9,2244.43C3560.84,2255.9 3559.43,2257.15 3547.52,2258.36C3525.09,2260.64 3506.94,2253.77 3492.65,2235.74C3482.38,2222.78 3471.14,2210.66 3453.1,2207.87C3446.65,2206.87 3437.07,2211.15 3434.48,2204.31C3432.79,2199.84 3439.13,2192.57 3441.3,2186.35ZM3590.2,2103.05C3589.63,2104.95 3588.59,2106.4 3586.64,2107.08C3583.98,2108.03 3581.39,2109.29 3578.65,2109.91C3575.64,2110.58 3572.23,2113.47 3569.49,2110.14C3566.86,2106.95 3569.53,2103.73 3571.13,2101.09C3573.83,2096.59 3578.22,2094.99 3583.35,2096.31C3586.83,2097.21 3588.64,2100.07 3590.2,2103.05ZM3609.87,2120.33C3611.82,2122.16 3615.85,2123.27 3614.95,2126.19C3613.96,2129.43 3610.26,2127.04 3606.93,2127.47C3598.96,2126.23 3590.17,2124.94 3581.43,2123.41C3580.27,2123.21 3579.33,2121.79 3578.29,2120.93C3579.25,2120.17 3580.1,2119.12 3581.2,2118.7C3590.98,2114.87 3600.77,2111.77 3609.87,2120.33ZM3435.2,2515.99C3443.24,2516.24 3451.28,2516.62 3459.31,2516.55C3464.83,2516.51 3469.95,2519.09 3469.67,2523.86C3469.37,2528.78 3462.61,2528.92 3459.05,2527.74C3440.69,2521.63 3421.81,2523.33 3403.05,2522.93C3398.49,2522.83 3397.91,2521 3398.9,2516.68C3401.1,2507.03 3403.09,2497.28 3402.71,2487.25C3402.66,2485.85 3402.67,2484.31 3403.2,2483.06C3404.56,2479.88 3406.92,2476.95 3410.56,2477.76C3414.75,2478.71 3411.96,2482.38 3412.08,2484.83C3412.2,2487.18 3411.87,2489.54 3411.84,2490.09C3411.23,2514.49 3411.96,2515.26 3435.2,2515.99ZM3440.93,2540.7C3436.76,2542.89 3430.94,2543.97 3428.67,2547.4C3419.62,2561.11 3410.67,2554.94 3400.49,2549.24C3390.25,2543.51 3379.59,2537.99 3367.12,2538.94C3363.9,2539.18 3360.31,2538.25 3364.14,2534.8C3374.73,2525.27 3374.23,2513.08 3373.72,2500.69C3373.57,2497.08 3371.79,2492.33 3377.89,2492.37C3383.24,2492.4 3382.86,2496.97 3383.12,2500.75C3385.44,2534.8 3383.35,2532.61 3418.88,2533.57C3425.48,2533.75 3432.09,2534.16 3438.66,2534.83C3440.37,2535 3441.94,2536.57 3445.06,2538.35C3443.3,2539.36 3442.14,2540.07 3440.93,2540.7ZM3109.02,2506.79C3113.15,2505.05 3116.68,2501.16 3122.13,2503.68C3134.57,2509.42 3144.73,2504.51 3154.81,2496.93C3176,2481.01 3197.71,2465.79 3218.98,2449.98C3225.34,2445.26 3230.85,2443.82 3238.23,2448.22C3246.31,2453.04 3255.37,2456.17 3263.79,2460.45C3290.96,2474.26 3318.66,2486.17 3349.97,2485.96C3354.6,2485.93 3357.97,2487.81 3360.56,2491.79C3368.91,2504.68 3366.08,2521.35 3353.83,2530.39C3350.79,2532.63 3347.69,2534.85 3344.91,2537.39C3342.55,2539.56 3339.38,2541.83 3340.86,2545.7C3342.69,2550.49 3346.92,2549.46 3350.54,2548.63C3368.36,2544.56 3384.18,2549.73 3399.18,2558.88C3405.22,2562.57 3411.25,2566.26 3417.3,2569.94C3421.86,2572.72 3426.1,2572.19 3427.25,2566.75C3430.27,2552.5 3441.71,2550.61 3452.93,2548.54C3458.54,2547.51 3466.62,2550.53 3462.98,2539.26C3462.03,2536.32 3465.94,2536.35 3468.09,2536.34C3472.82,2536.31 3477.55,2536.61 3482.28,2536.78C3488.85,2537.01 3489.59,2533.72 3486.88,2528.78C3484.65,2524.73 3479.14,2522.37 3479.58,2517.05C3480.3,2508.31 3474.49,2508.32 3468.64,2508C3455.39,2507.28 3442.15,2506.23 3428.9,2506C3422.52,2505.9 3421.23,2503.48 3421.08,2497.53C3420.65,2480.05 3425.26,2467.48 3443.45,2459.74C3477.86,2445.1 3506.14,2421.05 3532.41,2394.83C3548.05,2379.23 3558.94,2360.65 3565.7,2339.41C3576.27,2306.18 3573.52,2273.11 3566.65,2239.79C3562.05,2217.5 3553.76,2196.21 3549.07,2174C3543.99,2149.92 3563.53,2129.79 3587.81,2133.43C3599.51,2135.18 3611.17,2137.13 3622.82,2139.16C3631.3,2140.64 3633.68,2137.84 3631.26,2129.48C3629.08,2121.99 3623.62,2117.09 3617.32,2114.1C3602.85,2107.22 3595.76,2094.87 3590.54,2080.95C3580.11,2053.13 3558.2,2043.19 3536.53,2041.81C3494.47,2041.67 3464.53,2063.76 3451.94,2100.29C3446.07,2117.33 3443.18,2135.12 3439.89,2152.8C3436.41,2171.53 3431.06,2189.57 3420.4,2205.7C3417.45,2210.17 3414.47,2213.93 3408.65,2214.9C3361.02,2222.8 3320.94,2246.35 3283.84,2275.79C3265.31,2290.5 3246.94,2305.41 3228.17,2319.83C3211.32,2332.78 3194.43,2346 3182.9,2364.49C3180.5,2368.33 3176.38,2369.81 3172.6,2371.73C3158.28,2379.02 3144.05,2386.52 3130.82,2395.68C3126.22,2398.87 3121.02,2402.56 3121.48,2409.03C3122,2416.28 3128.43,2417.09 3133.91,2418.47C3139.92,2419.99 3139,2421.89 3134.86,2425.23C3119.01,2438 3103.15,2450.78 3087.74,2464.07C3073.28,2476.54 3073.53,2476.82 3080.38,2494.68C3086.6,2510.92 3092.96,2513.53 3109.02,2506.79Z" style="fill:rgb(4,5,5);fill-rule:nonzero;"/>
                <path d="M3232.33,2428.45C3240.67,2427.95 3236.91,2437.91 3243.63,2440.57C3269.04,2450.67 3292.47,2465.57 3319.34,2472.24C3326.19,2473.95 3333.23,2475 3340.24,2475.98C3342.67,2476.32 3346.75,2476.86 3345.13,2472.15C3344.11,2469.15 3340.5,2465.81 3344.47,2463.67C3347.43,2462.07 3350.29,2465.84 3352.63,2468.14C3354.65,2470.13 3356.49,2472.3 3358.49,2474.32C3368.84,2484.81 3377.61,2485.65 3389.64,2476.96C3393.45,2474.21 3396.76,2470.75 3400.33,2467.66C3403.05,2465.31 3405.24,2461.39 3409.83,2464.76C3412.66,2466.83 3415.11,2464.9 3417.63,2463.58C3449.95,2446.7 3480.85,2427.88 3508.87,2404.13C3547.84,2371.11 3566.44,2330.21 3562.45,2279.12C3561.4,2265.66 3561.65,2265.18 3548.43,2267.63C3525.41,2271.88 3506.52,2264.86 3490.91,2247.95C3486.74,2243.43 3482.81,2238.7 3478.74,2234.09C3463.9,2217.31 3445.08,2212.91 3422.59,2220.93C3430.78,2221.66 3439.11,2220.43 3447.13,2223.76C3450.37,2225.11 3451.13,2227.02 3451.44,2229.84C3458.57,2228.07 3463.1,2232.56 3467.45,2236.86C3487.42,2256.59 3490.74,2280.95 3483.72,2306.42C3473.1,2344.98 3448.85,2372.97 3412.2,2389.45C3369.28,2408.75 3323.46,2414.45 3277.09,2417.48C3261.12,2418.52 3245.03,2416.92 3229.15,2419.82C3234.87,2420.98 3241.45,2421.83 3232.33,2428.45Z" style="fill:rgb(162,168,171);fill-rule:nonzero;"/>
                <path d="M3378.92,2232.38C3330.79,2248.83 3292.74,2280.64 3254.61,2312.44C3252.83,2313.92 3251.25,2315.89 3250.21,2317.96C3246.46,2325.43 3249.66,2330.79 3258.13,2331.44C3264.38,2331.91 3270.28,2329.79 3276.34,2328.84C3280.34,2328.22 3285.13,2325.14 3287.69,2330.43C3289.88,2334.96 3284.86,2336.68 3282.42,2339.21C3280.02,2341.7 3277.85,2344.33 3279.27,2347.94C3280.91,2352.11 3284.81,2352.95 3288.68,2352.78C3295.28,2352.5 3301.86,2351.77 3308.45,2351.26C3312.78,2350.92 3317.84,2350.4 3317.99,2356.5C3318.28,2368.94 3326.01,2367.98 3334.69,2367.03C3339.44,2366.51 3344.77,2363.07 3349.16,2368.36C3364.79,2387.21 3387.41,2387.4 3405.85,2380.74C3443.16,2367.28 3466.54,2338 3475.45,2299.03C3480.63,2276.43 3475.43,2255.76 3456.41,2240.39C3452.88,2237.54 3449.86,2234.89 3451.44,2229.84C3442.36,2225.14 3431.19,2227.21 3422.59,2220.93C3408.5,2226.47 3393.27,2227.47 3378.92,2232.38Z" style="fill:rgb(254,254,254);fill-rule:nonzero;"/>
                <path d="M3447.13,2223.76C3439.11,2220.43 3430.78,2221.66 3422.59,2220.93C3431.19,2227.21 3442.36,2225.14 3451.44,2229.84C3451.13,2227.02 3450.37,2225.11 3447.13,2223.76Z" style="fill:rgb(254,254,254);fill-rule:nonzero;"/>
                <path d="M3453.1,2207.87C3471.14,2210.66 3482.38,2222.78 3492.65,2235.74C3506.94,2253.77 3525.09,2260.64 3547.52,2258.36C3559.43,2257.15 3560.84,2255.9 3557.9,2244.43C3552.65,2223.88 3546.88,2203.47 3541.59,2182.93C3537.99,2168.96 3536.49,2155.02 3545.22,2142.07C3534.66,2141.87 3525.03,2137.67 3515.06,2134.96C3494.96,2129.5 3474.9,2124.4 3454.37,2132.97C3449.42,2150.62 3447.36,2168.99 3441.3,2186.35C3439.13,2192.57 3432.79,2199.84 3434.48,2204.31C3437.07,2211.15 3446.65,2206.87 3453.1,2207.87Z" style="fill:rgb(60,149,95);fill-rule:nonzero;"/>
                <path d="M3533.27,2079.03C3538.19,2079.26 3541.82,2081.54 3541.87,2086.53C3541.93,2091.89 3538.58,2095.6 3533.08,2095.66C3528.08,2095.71 3525.41,2092.25 3525.42,2087.33C3525.43,2082.32 3528.42,2079.68 3533.27,2079.03ZM3471.3,2124.95C3497.36,2124.11 3521.9,2130.66 3545.22,2142.07C3548.18,2139.72 3551.03,2137.22 3554.12,2135.06C3560.94,2130.3 3565.95,2126.57 3560.23,2116.22C3554.73,2106.27 3561.51,2093.23 3570.72,2088.37C3574.03,2086.63 3580.76,2089.97 3580.44,2083.47C3580.25,2079.61 3577.18,2075.74 3574.96,2072.16C3570.3,2064.65 3563.17,2060.04 3555.24,2056.61C3528.75,2045.15 3497.59,2052.53 3477.96,2075.02C3463.48,2091.61 3456.2,2111.2 3454.37,2132.97C3457.96,2126.01 3465.05,2125.15 3471.3,2124.95Z" style="fill:rgb(166,171,174);fill-rule:nonzero;"/>
                <path d="M3515.06,2134.96C3525.03,2137.67 3534.66,2141.87 3545.22,2142.07C3521.9,2130.66 3497.36,2124.11 3471.3,2124.95C3465.05,2125.15 3457.96,2126.01 3454.37,2132.97C3474.9,2124.4 3494.96,2129.5 3515.06,2134.96Z" style="fill:rgb(166,171,174);fill-rule:nonzero;"/>
                <path d="M3203.01,2372.44C3213.98,2373.31 3224.58,2370.44 3235.35,2369.2C3238.37,2368.85 3242.28,2367.65 3243.93,2371.7C3245.62,2375.85 3242.52,2377.56 3239.37,2379.04C3236.87,2380.21 3232.87,2381.13 3233.57,2384.24C3234.39,2387.85 3238.72,2387.84 3241.88,2387.69C3253.2,2387.16 3264.52,2386.42 3275.83,2385.51C3280.61,2385.13 3283.9,2385.46 3284.34,2391.59C3285.02,2401.21 3291.36,2404.03 3300.16,2403.39C3304.39,2403.08 3308.66,2403.33 3312.92,2403.33C3331.94,2402.91 3350.54,2399.98 3368.77,2394.61C3370.11,2394.21 3371.43,2393.7 3372.75,2393.24C3371.49,2392.65 3370.29,2391.88 3368.97,2391.5C3361.31,2389.31 3352.56,2389.05 3346.95,2382.75C3342.23,2377.44 3337.33,2376.73 3330.77,2377.46C3321.4,2378.49 3312.49,2376.86 3309.09,2366.13C3307.63,2361.55 3304.78,2362.3 3301.33,2362.62C3296.17,2363.11 3290.87,2363.79 3285.79,2363.11C3277.43,2361.99 3269.54,2358.5 3268.97,2348.89C3268.51,2341.18 3264.79,2341.01 3259.03,2341.38C3250.05,2341.95 3241.84,2340.74 3239.27,2329.92C3237.87,2324.04 3235.02,2326.93 3232.42,2328.96C3220.12,2338.57 3207.98,2348.38 3197.86,2360.34C3195.61,2363 3191.56,2365.8 3193.93,2370.01C3195.76,2373.27 3199.82,2372.18 3203.01,2372.44Z" style="fill:rgb(253,253,253);fill-rule:nonzero;"/>
                <path d="M3091.55,2483.75C3094.03,2482.4 3096.62,2481.2 3098.94,2479.61C3111.03,2471.34 3123.03,2462.93 3135.11,2454.64C3138.51,2452.31 3142.59,2448.3 3145.88,2453.72C3148.56,2458.13 3143.52,2460.32 3140.71,2462.35C3126.54,2472.57 3112.61,2483.16 3097.2,2491.55C3094.61,2492.96 3089.59,2493.98 3091.39,2498.06C3093.16,2502.05 3097.8,2501.28 3101.4,2499.79C3108.4,2496.88 3114.83,2492.89 3120.95,2488.44C3136.62,2477.04 3152.26,2465.6 3167.94,2454.21C3170.6,2452.28 3173.55,2449.61 3176.51,2453.31C3179.61,2457.18 3175.8,2459.5 3173.49,2461.34C3164.24,2468.67 3154.52,2475.43 3145.38,2482.9C3140.63,2486.78 3133.57,2488.56 3132.23,2495.93C3139.71,2497.21 3144.53,2491.9 3149.65,2488.25C3177.36,2468.53 3204.8,2448.42 3232.33,2428.45C3231.38,2425.53 3230.48,2422.6 3229.15,2419.82C3207.39,2419.97 3185.63,2420.18 3163.87,2420.22C3159.49,2420.23 3155.92,2420.93 3152.26,2423.97C3132.62,2440.28 3112.66,2456.2 3092.83,2472.29C3091,2473.77 3089.21,2475.35 3087.63,2477.09C3086.14,2478.73 3083.65,2480.41 3085.3,2483.02C3086.83,2485.42 3089.29,2484.99 3091.55,2483.75Z" style="fill:rgb(252,251,251);fill-rule:nonzero;"/>
                <path d="M3229.15,2419.82C3230.48,2422.6 3231.38,2425.53 3232.33,2428.45C3241.45,2421.83 3234.87,2420.98 3229.15,2419.82Z" style="fill:rgb(252,251,251);fill-rule:nonzero;"/>
                <path d="M3208.4,2408.33C3228.68,2408.33 3248.95,2408.45 3269.22,2408.19C3271.92,2408.16 3277.64,2410.04 3276.89,2405.49C3276.23,2401.54 3275.66,2394.26 3267.84,2395.33C3265.51,2395.65 3263.22,2396.3 3260.88,2396.58C3252.43,2397.59 3243.95,2398.03 3235.47,2397.05C3228.04,2396.19 3225.4,2387.11 3221.12,2385.61C3208.49,2381.16 3193.54,2376.3 3181.38,2379.29C3165.48,2383.2 3150.87,2393.52 3136.78,2403C3135.29,2404 3133.16,2405.04 3133.51,2407.17C3134.05,2410.4 3137.12,2409.41 3139.12,2409.64C3162.18,2412.19 3185.3,2410.64 3208.4,2408.33Z" style="fill:rgb(250,249,249);fill-rule:nonzero;"/>
                <path d="M3418.88,2533.57C3383.35,2532.61 3385.44,2534.8 3383.12,2500.75C3382.86,2496.97 3383.24,2492.4 3377.89,2492.37C3371.79,2492.33 3373.57,2497.08 3373.72,2500.69C3374.23,2513.08 3374.73,2525.27 3364.14,2534.8C3360.31,2538.25 3363.9,2539.18 3367.12,2538.94C3379.59,2537.99 3390.25,2543.51 3400.49,2549.24C3410.67,2554.94 3419.62,2561.11 3428.67,2547.4C3430.94,2543.97 3436.76,2542.89 3440.93,2540.7C3442.14,2540.07 3443.3,2539.36 3445.06,2538.35C3441.94,2536.57 3440.37,2535 3438.66,2534.83C3432.09,2534.16 3425.48,2533.75 3418.88,2533.57Z" style="fill:rgb(234,136,58);fill-rule:nonzero;"/>
                <path d="M3411.84,2490.09C3411.87,2489.54 3412.2,2487.18 3412.08,2484.83C3411.96,2482.38 3414.75,2478.71 3410.56,2477.76C3406.92,2476.95 3404.56,2479.88 3403.2,2483.06C3402.67,2484.31 3402.66,2485.85 3402.71,2487.25C3403.09,2497.28 3401.1,2507.03 3398.9,2516.68C3397.91,2521 3398.49,2522.83 3403.05,2522.93C3421.81,2523.33 3440.69,2521.63 3459.05,2527.74C3462.61,2528.92 3469.37,2528.78 3469.67,2523.86C3469.95,2519.09 3464.83,2516.51 3459.31,2516.55C3451.28,2516.62 3443.24,2516.24 3435.2,2515.99C3411.96,2515.26 3411.23,2514.49 3411.84,2490.09Z" style="fill:rgb(227,128,50);fill-rule:nonzero;"/>
                <path d="M3578.29,2120.93C3579.33,2121.79 3580.27,2123.21 3581.43,2123.41C3590.17,2124.94 3598.96,2126.23 3606.93,2127.47C3610.26,2127.04 3613.96,2129.43 3614.95,2126.19C3615.85,2123.27 3611.82,2122.16 3609.87,2120.33C3600.77,2111.77 3590.98,2114.87 3581.2,2118.7C3580.1,2119.12 3579.25,2120.17 3578.29,2120.93Z" style="fill:rgb(189,109,54);fill-rule:nonzero;"/>
                <path d="M3571.13,2101.09C3569.53,2103.73 3566.86,2106.95 3569.49,2110.14C3572.23,2113.47 3575.64,2110.58 3578.65,2109.91C3581.39,2109.29 3583.98,2108.03 3586.64,2107.08C3588.59,2106.4 3589.63,2104.95 3590.2,2103.05C3588.64,2100.07 3586.83,2097.21 3583.35,2096.31C3578.22,2094.99 3573.83,2096.59 3571.13,2101.09Z" style="fill:rgb(222,208,201);fill-rule:nonzero;"/>
                <path d="M3533.08,2095.66C3538.58,2095.6 3541.93,2091.89 3541.87,2086.53C3541.82,2081.54 3538.19,2079.26 3533.27,2079.03C3528.42,2079.68 3525.43,2082.32 3525.42,2087.33C3525.41,2092.25 3528.08,2095.71 3533.08,2095.66Z" style="fill:rgb(16,18,18);fill-rule:nonzero;"/>
            </g>
        </g>
    </g>
</svg>
