<?xml version="1.0" encoding="UTF-8" standalone="no"?>
<!DOCTYPE svg PUBLIC "-//W3C//DTD SVG 1.1//EN" "http://www.w3.org/Graphics/SVG/1.1/DTD/svg11.dtd">
<svg width="100%" height="100%" viewBox="0 0 534 534" version="1.1" xmlns="http://www.w3.org/2000/svg" xmlns:xlink="http://www.w3.org/1999/xlink" xml:space="preserve" xmlns:serif="http://www.serif.com/" style="fill-rule:evenodd;clip-rule:evenodd;stroke-linejoin:round;stroke-miterlimit:2;">
    <g transform="matrix(1,0,0,1,-619.158,-2509.39)">
        <g id="bird14" transform="matrix(1,0,0,1,619.158,2509.39)">
            <rect x="0" y="0" width="533.333" height="533.333" style="fill:none;"/>
            <clipPath id="_clip1">
                <rect x="0" y="0" width="533.333" height="533.333"/>
            </clipPath>
            <g clip-path="url(#_clip1)">
                <g transform="matrix(0.958686,0,0,0.958686,-2948.76,-410.711)">
                    <path d="M3621.49,561.113C3620.51,560.535 3619.57,559.87 3618.66,559.174C3610.73,553.081 3598.35,552.515 3593.23,544.742C3588.41,537.415 3591.09,526.164 3588.43,516.922C3586.08,508.795 3583.04,501.022 3578.15,494.037C3577.46,493.055 3575.43,491.866 3577.37,490.437C3577.76,490.144 3579.37,491.233 3580.26,491.897C3602.05,508.155 3618.56,528.003 3623.52,555.682C3623.72,556.806 3624.1,557.898 3624.47,559.255C3624.79,561.567 3624.01,562.594 3621.49,561.113ZM3613.77,567.834C3602.28,567.417 3591.07,569.946 3579.72,570.999C3578.61,571.102 3576.71,571.42 3576.51,571.005C3575.8,569.509 3576.89,568.303 3578.02,567.253C3579.42,565.961 3580.54,564.243 3582.13,563.296C3586.55,560.659 3587.49,552.438 3593.26,553.558C3601.41,555.141 3608.47,560.331 3615.42,565.042C3615.94,565.396 3616.14,566.216 3616.5,566.821C3615.95,568.118 3614.77,567.871 3613.77,567.834ZM3538.06,565.174C3531.12,563.381 3530.41,560.233 3535.4,555.035C3540.39,549.836 3546.73,545.858 3550.09,539.133C3551.72,535.867 3554.14,536.583 3556.82,537.813C3565.09,541.611 3573.41,545.281 3581.71,549C3583.48,549.66 3584.18,551.161 3583.02,552.465C3567,570.501 3558.13,575.938 3538.06,565.174ZM3542.86,522.604C3546.11,524.094 3547.89,527.193 3547.14,530.923C3546.04,536.396 3544.33,541.629 3539.07,544.747C3535.27,542.212 3530.74,541.014 3531.56,535.475C3532.25,530.808 3540.24,521.402 3542.86,522.604ZM3526,542.742C3532.07,546.909 3529.61,550.588 3526.26,554.757C3523.88,557.725 3521.27,560.722 3519.76,564.149C3515,575.034 3506.79,576.342 3496.39,574.015C3457.48,565.312 3426.63,546.014 3408.75,508.963C3406.43,504.147 3405.89,501.656 3411.48,498.482C3425.39,490.574 3438.34,480.965 3452.39,473.339C3470.69,463.409 3489.84,455.914 3511.48,461.818C3522.92,464.942 3531.98,471.638 3540.23,479.785C3544.99,484.489 3545.99,490.336 3545.7,496.645C3545.19,505.111 3544.71,513.104 3535.76,518.286C3530.19,521.51 3527.64,528.214 3525.29,534.335C3524.17,537.265 3523.04,540.71 3526,542.742ZM3522.35,612.054C3541.95,642.261 3552.26,674.612 3545.76,711.025C3537.91,754.932 3513.7,789.044 3481.16,817.822C3454.73,841.195 3423.5,856.339 3390.35,867.741C3387.88,868.589 3384.68,870.333 3382.9,868.731C3380.49,866.564 3384.14,864.14 3384.47,861.645C3385,857.55 3392.94,853.372 3387.69,850.443C3381.79,847.151 3380.76,855.43 3378.46,859.25C3374.28,866.176 3372.8,874.2 3370.09,881.729C3368.12,887.184 3367.09,894.155 3358.82,894.185C3349.24,898.951 3343.21,893.515 3339.23,886.125C3335.16,878.569 3330.04,876.205 3321.71,877.235C3315.01,878.065 3307.95,878.488 3301.34,875.682C3268.15,874.125 3236.88,864.674 3206.34,852.325C3204.76,851.684 3202.16,850.718 3203.17,848.732C3203.94,847.209 3206.84,847.395 3208.45,848.419C3226.54,859.936 3245.7,856.61 3265.07,853.044C3276.35,850.966 3287.15,850.844 3292.74,864.301C3294.23,867.888 3298.4,870.362 3301.34,873.348C3304.05,872.899 3307.28,875.2 3309.44,872.365C3310.49,870.992 3308.42,869.929 3307.64,868.79C3303.87,865.045 3299.1,861.88 3296.54,857.441C3290.35,846.722 3280.74,845.07 3270.03,845.865C3263.22,846.37 3256.43,847.441 3249.72,848.739C3237.01,851.199 3224.86,851.501 3213.99,842.736C3210.04,839.548 3205.28,840.789 3200.8,841.904C3182.73,846.399 3164.63,850.748 3146.63,855.487C3128.49,860.263 3110.54,858.146 3092.56,854.764C3091.14,854.495 3089.33,854.764 3088.86,852.85C3088.37,850.832 3090.16,850.34 3091.43,849.723C3109.66,840.891 3127.29,831.026 3144.15,819.788C3146.13,818.468 3148.4,818.036 3150.74,818.383C3186.12,823.62 3220.39,816.427 3254.58,808.878C3261.7,807.307 3268.72,806.011 3276.06,806.64C3290.25,807.854 3304.14,805.857 3317.84,802.225C3341.53,791.747 3363.83,778.999 3383.67,762.205C3393.96,750.911 3404.58,739.885 3413.06,727.079C3427.73,704.912 3436.26,681.374 3428.58,654.474C3427.01,648.98 3429.09,645.958 3433.61,643.284C3444.95,636.583 3457.06,632.15 3470,629.959C3487.08,627.068 3504.06,624.002 3516.61,610.396C3519.78,606.965 3520.81,609.693 3522.35,612.054ZM3420.45,869.026C3416.57,876.251 3409.86,878.169 3402.31,878.375C3399.23,878.375 3395.26,878.478 3394.68,875.102C3394.16,872.136 3398.29,872.14 3400.53,871.197C3405.73,869.002 3411,866.951 3416.3,865.001C3418.18,864.312 3420.14,861.742 3422.02,863.938C3422.65,864.671 3421.31,867.424 3420.45,869.026ZM3422.31,902.019C3436.52,928.877 3432.38,922.855 3457.82,923.634C3462.78,923.787 3467.92,924.476 3472.7,923.54C3485.44,921.05 3491.72,933.618 3502.41,935.614C3502.48,935.627 3505.32,936.72 3502.61,936.802C3495.94,937.004 3492.44,941.221 3489.1,946.026C3488.84,946.399 3487.75,946.195 3487.25,946.24C3482.49,944.311 3477.59,942.972 3473.36,940.487C3463.64,934.772 3453.26,933.734 3442.36,934.609C3431.32,935.495 3420.25,936.192 3409.18,936.764C3407.65,936.844 3405.13,938.182 3404.48,935.612C3404.05,933.903 3406.08,933.486 3407.42,932.78C3419.74,926.299 3420.08,925.383 3416.37,912.575C3414.23,905.137 3410.55,898.516 3406.34,892.081C3405.2,890.344 3400.69,888.424 3404.61,885.943C3407.25,884.278 3411.44,883.278 3413.84,887.081C3416.89,891.916 3419.63,896.959 3422.31,902.019ZM3378.26,880.482C3379.99,876.295 3383.95,875.865 3386.71,878.488C3398.8,890.005 3406.79,904.137 3411.46,918.753C3411.83,923.341 3409.62,924.591 3407.23,926.069C3392.71,935.061 3392.72,935.126 3383.61,920.098C3381.24,916.194 3379.52,911.825 3376.74,908.255C3369.09,898.41 3374.52,889.497 3378.26,880.482ZM3470.77,952.557C3468.81,954.874 3466.83,957.19 3465.04,959.647C3462.49,963.165 3464.52,970.046 3459.77,970.929C3455.8,971.667 3451.14,968.518 3446.75,967.223C3426.97,961.39 3407.24,955.387 3387.36,949.926C3380.81,948.128 3376.59,944.986 3374.63,938.364C3371.45,927.619 3365.62,918.205 3359.24,909.068C3357.92,907.181 3352.84,905.125 3357.42,902.148C3361.02,899.801 3365.32,899.011 3367.87,904.506C3370.12,909.352 3372.44,914.205 3375.24,918.747C3393.77,948.891 3391.06,943.938 3421.56,943.457C3431.5,943.3 3441.43,942.88 3451.36,942.41C3458.13,942.089 3464.1,944.476 3469.95,947.393C3471.21,948.021 3472.29,949.013 3473.61,949.95C3472.44,951.012 3471.5,951.697 3470.77,952.557ZM3126.66,805.892C3126.54,802.713 3130.75,802.146 3133.35,801.242C3155.45,793.559 3176.37,783.532 3196.13,770.999C3200.88,767.985 3204.92,765.498 3202.69,758.518C3200.8,752.612 3205.33,747.912 3208.98,744.524C3240.42,715.304 3263.8,678.805 3295.61,649.854C3316.94,630.449 3339.71,613.356 3364.67,599.174C3383.08,588.717 3382.76,588.779 3380.14,567.747C3377.42,545.958 3383.41,525.392 3392.21,505.634C3395.3,498.701 3398.21,501.547 3400.36,506.366C3407.94,523.351 3418.11,538.399 3432.37,550.565C3452.36,567.62 3475.49,577.63 3501.37,581.304C3506.05,581.968 3510.26,581.213 3510.95,588.019C3511.65,594.987 3518.8,601.62 3509.92,608.545C3499.28,616.837 3487.05,620.744 3474.19,622.487C3458.8,624.571 3444.24,628.866 3431.25,637.148C3416.64,646.466 3400.25,649.768 3383.77,652.398C3349.92,657.799 3319.22,670.296 3292.1,691.206C3288.27,694.158 3280.22,698.397 3284.1,703.018C3288.28,707.997 3291.53,699.425 3294.95,696.811C3320.3,677.418 3348.57,664.967 3380.01,659.506C3391.23,657.555 3402.8,656.761 3413.4,652.325C3419.8,649.648 3421.69,652.626 3422.85,657.749C3427.06,676.368 3424.91,694.618 3415.44,710.832C3396.96,742.478 3371.21,767.046 3338.76,784.531C3321.77,793.688 3304.03,800.072 3284.71,802.137C3260.96,796.194 3239.2,807.576 3216.39,810.193C3188.64,813.378 3161.07,816.331 3133.52,809.135C3130.92,808.454 3126.74,807.838 3126.66,805.892ZM3402.5,487.557C3431.68,443.294 3480.88,426.873 3527.34,453.2C3529.02,454.155 3530.5,455.335 3531.15,457.275C3537.19,461.206 3543.14,465.27 3547.31,471.305C3548.02,472.32 3549.49,473.858 3547.81,475.203C3546.3,476.409 3545.13,475.246 3544,474.182C3538.48,469.008 3533.28,463.472 3526.78,459.451C3526.4,459.461 3525.96,459.602 3525.64,459.465C3493.57,445.556 3465.48,457.361 3438.26,473.355C3428.09,479.331 3418.62,486.495 3408.74,492.964C3406.56,494.386 3403.34,495.95 3401.37,494.544C3398.42,492.443 3401.2,489.53 3402.5,487.557ZM3551.45,504.064C3551.71,497.982 3552.15,491.908 3552.56,485.832C3552.66,484.335 3552.83,482.526 3554.67,482.323C3557.1,482.052 3556.32,484.338 3556.45,485.482C3556.86,488.877 3556.94,492.312 3557.18,496.242C3557.09,498.015 3557.06,500.301 3556.87,502.574C3556.27,509.775 3554.67,516.695 3550.82,522.935C3547.05,516.518 3551.18,510.352 3551.45,504.064ZM3564.78,494.85C3563.5,491.008 3561.08,487.463 3561.6,483.132C3566.6,484.096 3568.37,488.545 3570.57,492.119C3579.09,505.913 3583.37,521.113 3584.56,537.23C3584.93,542.178 3583.2,542.627 3579.72,539.594C3578.96,539.598 3578.14,539.786 3577.45,539.578C3570.18,537.405 3559.46,535.866 3558.13,529.58C3556.54,522.103 3561.63,513.16 3564.12,504.941C3564.39,504.059 3566.62,503.771 3567.94,503.207C3566.88,500.424 3565.72,497.673 3564.78,494.85ZM3567.81,476.962C3561.54,473.762 3556.28,469.891 3551.54,464.721C3515.05,425.002 3454.53,423.101 3416.22,460.991C3385.85,491.028 3369.64,527.15 3374.55,570.608C3375.82,581.876 3372.49,587.629 3362.48,592.766C3337.88,605.398 3316.48,622.739 3295.49,640.714C3259.77,671.301 3234.91,711.715 3200.89,743.786C3198.12,746.397 3195.36,750.041 3196.07,753.85C3197.86,763.363 3191.45,766.521 3185.02,770.196C3165.72,781.224 3145.46,790.063 3124.54,797.5C3121.47,798.591 3117.46,799.435 3117.03,803.629C3116.55,808.25 3120.2,810.227 3123.59,812.077C3125.25,812.984 3127.04,813.731 3128.86,814.277C3134.73,816.043 3133.96,817.983 3129.44,820.88C3114.3,830.576 3098.65,839.344 3082.55,847.32C3079.92,848.621 3075.94,848.986 3075.84,852.631C3075.72,857.131 3080.33,857.359 3083.27,858.499C3091.51,861.695 3100.21,862.983 3108.98,864.042C3132.82,866.92 3155.39,861.225 3177.69,854.019C3184.71,851.748 3190.6,852.405 3197.34,855.443C3237.5,873.548 3279.46,884.154 3323.77,884.228C3326.42,884.233 3328.95,883.714 3331.01,886.317C3344.93,903.884 3362.32,919.033 3368.82,941.713C3370.7,948.285 3374.71,952.789 3381.78,954.889C3407.77,962.604 3433.64,970.716 3459.54,978.707C3464.9,980.36 3467.97,979.425 3469.18,973.027C3472.77,954.193 3476.01,952.69 3494.72,959.862C3496.51,960.548 3498.36,961.715 3500.05,960.265C3502.6,958.073 3500.26,956.278 3499.19,954.42C3497.46,951.412 3495.29,948.171 3498.38,945.038C3501.04,942.339 3504.6,942.571 3508.09,943.701C3510.26,944.406 3512.53,944.836 3514.69,945.581C3516.83,946.323 3519.26,947.959 3521.06,945.964C3523.34,943.434 3521.02,940.768 3519.63,938.821C3510.22,925.667 3499.68,914.371 3481.26,916.377C3476.72,916.871 3472.08,916.451 3467.48,916.451L3467.48,916.694C3459.83,916.694 3452.17,916.525 3444.52,916.761C3440.3,916.89 3437.02,915.858 3434.96,911.994C3430.45,903.577 3425.85,895.208 3421.5,886.712C3420.69,885.136 3419.94,882.237 3420.74,881.334C3429.02,871.924 3430.18,858.204 3443.74,851.415C3479.68,833.418 3508.26,806.51 3529.27,772.033C3561.59,719.02 3564.19,665.66 3530.68,611.993C3526.84,605.843 3523.06,599.593 3519.96,593.052C3515.53,583.683 3517.03,577.337 3524.07,570.24C3526.14,568.152 3527.61,566.852 3530.73,569.025C3545.96,579.604 3563.18,579.001 3580.51,577.268C3588.88,576.431 3597.21,575.209 3605.59,574.58C3612.59,574.056 3619.29,574.634 3624.02,581.228C3627.29,585.797 3629.89,583.763 3630.88,579.398C3632.6,571.853 3632.52,564.187 3631,556.605C3623.48,519.326 3600.9,493.858 3567.81,476.962Z" style="fill:rgb(18,20,19);fill-rule:nonzero;"/>
                    <path d="M3216.39,810.193C3239.2,807.576 3260.96,796.194 3284.71,802.137C3304.03,800.072 3321.77,793.688 3338.76,784.531C3371.21,767.046 3396.96,742.478 3415.44,710.832C3424.91,694.618 3427.06,676.368 3422.85,657.749C3421.69,652.626 3419.8,649.648 3413.4,652.325C3402.8,656.761 3391.23,657.555 3380.01,659.506C3348.57,664.967 3320.3,677.418 3294.95,696.811C3291.53,699.425 3288.28,707.997 3284.1,703.018C3280.22,698.397 3288.27,694.158 3292.1,691.206C3319.22,670.296 3349.92,657.799 3383.77,652.398C3400.25,649.768 3416.64,646.466 3431.25,637.148C3444.24,628.866 3458.8,624.571 3474.19,622.487C3487.05,620.744 3499.28,616.837 3509.92,608.545C3518.8,601.62 3511.65,594.987 3510.95,588.019C3510.26,581.213 3506.05,581.968 3501.37,581.304C3475.49,577.63 3452.36,567.62 3432.37,550.565C3418.11,538.399 3407.94,523.351 3400.36,506.366C3398.21,501.547 3395.3,498.701 3392.21,505.634C3383.41,525.392 3377.42,545.958 3380.14,567.747C3382.76,588.779 3383.08,588.717 3364.67,599.174C3339.71,613.356 3316.94,630.449 3295.61,649.854C3263.8,678.805 3240.42,715.304 3208.98,744.524C3205.33,747.912 3200.8,752.612 3202.69,758.518C3204.92,765.498 3200.88,767.985 3196.13,770.999C3176.37,783.532 3155.45,793.559 3133.35,801.242C3130.75,802.146 3126.54,802.713 3126.66,805.892C3126.74,807.838 3130.92,808.454 3133.52,809.135C3161.07,816.331 3188.64,813.378 3216.39,810.193Z" style="fill:rgb(74,74,74);fill-rule:nonzero;"/>
                    <path d="M3470,629.959C3457.06,632.15 3444.95,636.583 3433.61,643.284C3429.09,645.958 3427.01,648.98 3428.58,654.474C3436.26,681.374 3427.73,704.912 3413.06,727.079C3404.58,739.885 3393.96,750.911 3383.67,762.205C3382.14,777.922 3370.35,786.027 3358.93,793.576C3350.55,799.109 3340.69,802.39 3331.48,806.676C3329.24,808.267 3327,809.857 3324.75,811.448C3325.08,812.098 3325.25,812.963 3325.77,813.365C3328.64,815.589 3333.85,811.898 3334.98,815.113C3336.28,818.828 3331.46,821.33 3329.3,824.344C3325.51,829.616 3321.47,834.721 3317.86,840.113C3316.71,841.837 3314.47,844.121 3316.13,846.245C3317.67,848.217 3320.37,846.943 3322.62,846.636C3324.85,846.331 3328.24,845.255 3329.13,846.268C3330.93,848.319 3327.53,849.628 3326.63,851.419C3320.76,863.083 3333.88,852.814 3333.83,857.691C3333.83,858.019 3334.17,858.36 3334.13,858.673C3334.1,859.029 3333.82,859.36 3333.65,859.702C3339.93,865.574 3346.48,871.191 3352.4,877.402C3356.72,881.932 3361.21,886.873 3358.82,894.185C3367.09,894.155 3368.12,887.184 3370.09,881.729C3372.8,874.2 3374.28,866.176 3378.46,859.25C3380.76,855.43 3381.79,847.151 3387.69,850.443C3392.94,853.372 3385,857.55 3384.47,861.645C3384.14,864.14 3380.49,866.564 3382.9,868.731C3384.68,870.333 3387.88,868.589 3390.35,867.741C3423.5,856.339 3454.73,841.195 3481.16,817.822C3513.7,789.044 3537.91,754.932 3545.76,711.025C3552.26,674.612 3541.95,642.261 3522.35,612.054C3520.81,609.693 3519.78,606.965 3516.61,610.396C3504.06,624.002 3487.08,627.068 3470,629.959Z" style="fill:rgb(254,254,254);fill-rule:nonzero;"/>
                    <path d="M3502.95,501.588C3496.8,507.664 3498.48,509.827 3489.54,505.494C3480.01,500.882 3470.1,499.206 3459.67,499.517C3455.1,499.653 3450.53,499.705 3445.97,499.522C3444.24,499.453 3441.92,499.285 3441.78,496.77C3441.63,494.053 3443.97,493.99 3445.75,493.953C3451.83,493.825 3457.92,493.904 3464.01,493.904C3478.24,498.577 3485.61,490.455 3491.44,479.294C3492.67,476.948 3493.84,474.543 3495.36,472.395C3498.84,467.495 3502.11,467.438 3504.03,473.519C3506.99,482.864 3513.19,491.464 3502.95,501.588ZM3535.76,518.286C3544.71,513.104 3545.19,505.111 3545.7,496.645C3545.99,490.336 3544.99,484.489 3540.23,479.785C3531.98,471.638 3522.92,464.942 3511.48,461.818C3489.84,455.914 3470.69,463.409 3452.39,473.339C3438.34,480.965 3425.39,490.574 3411.48,498.482C3405.89,501.656 3406.43,504.147 3408.75,508.963C3426.63,546.014 3457.48,565.312 3496.39,574.015C3506.79,576.342 3515,575.034 3519.76,564.149C3521.27,560.722 3523.88,557.725 3526.26,554.757C3529.61,550.588 3532.07,546.909 3526,542.742C3523.04,540.71 3524.17,537.265 3525.29,534.335C3527.64,528.214 3530.19,521.51 3535.76,518.286Z" style="fill:rgb(254,254,254);fill-rule:nonzero;"/>
                    <path d="M3333.65,859.702C3333.82,859.36 3334.1,859.029 3334.13,858.673C3334.17,858.36 3333.83,858.019 3333.83,857.691C3333.88,852.814 3320.76,863.083 3326.63,851.419C3327.53,849.628 3330.93,848.319 3329.13,846.268C3328.24,845.255 3324.85,846.331 3322.62,846.636C3320.37,846.943 3317.67,848.217 3316.13,846.245C3314.47,844.121 3316.71,841.837 3317.86,840.113C3321.47,834.721 3325.51,829.616 3329.3,824.344C3331.46,821.33 3336.28,818.828 3334.98,815.113C3333.85,811.898 3328.64,815.589 3325.77,813.365C3325.25,812.963 3325.08,812.098 3324.75,811.448C3312.33,812.115 3307.58,822.193 3301.44,830.523C3300.8,831.391 3300.91,832.79 3300.32,833.72C3298.87,836.001 3298.95,840.97 3294.78,839.174C3290.66,837.396 3292.58,833.609 3293.95,830.304C3300.03,815.525 3310.51,806.459 3326.68,804.567C3323.89,803.199 3319.97,806.105 3317.84,802.225C3304.14,805.857 3290.25,807.854 3276.06,806.64C3268.72,806.011 3261.7,807.307 3254.58,808.878C3220.39,816.427 3186.12,823.62 3150.74,818.383C3148.4,818.036 3146.13,818.468 3144.15,819.788C3127.29,831.026 3109.66,840.891 3091.43,849.723C3090.16,850.34 3088.37,850.832 3088.86,852.85C3089.33,854.764 3091.14,854.495 3092.56,854.764C3110.54,858.146 3128.49,860.263 3146.63,855.487C3164.63,850.748 3182.73,846.399 3200.8,841.904C3205.28,840.789 3210.04,839.548 3213.99,842.736C3224.86,851.501 3237.01,851.199 3249.72,848.739C3256.43,847.441 3263.22,846.37 3270.03,845.865C3280.74,845.07 3290.35,846.722 3296.54,857.441C3299.1,861.88 3303.87,865.045 3307.64,868.79C3315.92,864.645 3325.91,865.385 3333.65,859.702Z" style="fill:rgb(74,74,75);fill-rule:nonzero;"/>
                    <path d="M3451.36,942.41C3441.43,942.88 3431.5,943.3 3421.56,943.457C3391.06,943.938 3393.77,948.891 3375.24,918.747C3372.44,914.205 3370.12,909.352 3367.87,904.506C3365.32,899.011 3361.02,899.801 3357.42,902.148C3352.84,905.125 3357.92,907.181 3359.24,909.068C3365.62,918.205 3371.45,927.619 3374.63,938.364C3376.59,944.986 3380.81,948.128 3387.36,949.926C3407.24,955.387 3426.97,961.39 3446.75,967.223C3451.14,968.518 3455.8,971.667 3459.77,970.929C3464.52,970.046 3462.49,963.165 3465.04,959.647C3466.83,957.19 3468.81,954.874 3470.77,952.557C3471.5,951.697 3472.44,951.012 3473.61,949.95C3472.29,949.013 3471.21,948.021 3469.95,947.393C3464.1,944.476 3458.13,942.089 3451.36,942.41Z" style="fill:rgb(231,142,72);fill-rule:nonzero;"/>
                    <path d="M3408.74,492.964C3418.62,486.495 3428.09,479.331 3438.26,473.355C3465.48,457.361 3493.57,445.556 3525.64,459.465C3525.96,459.602 3526.4,459.461 3526.78,459.451L3526.78,459.45C3527.67,457.593 3529.58,457.781 3531.15,457.275C3530.5,455.335 3529.02,454.155 3527.34,453.2C3480.88,426.873 3431.68,443.294 3402.5,487.557C3401.2,489.53 3398.42,492.443 3401.37,494.544C3403.34,495.95 3406.56,494.386 3408.74,492.964Z" style="fill:rgb(75,74,74);fill-rule:nonzero;"/>
                    <path d="M3404.61,885.943C3400.69,888.424 3405.2,890.344 3406.34,892.081C3410.55,898.516 3414.23,905.137 3416.37,912.575C3420.08,925.383 3419.74,926.299 3407.42,932.78C3406.08,933.486 3404.05,933.903 3404.48,935.612C3405.13,938.182 3407.65,936.844 3409.18,936.764C3420.25,936.192 3431.32,935.495 3442.36,934.609C3453.26,933.734 3463.64,934.772 3473.36,940.487C3477.59,942.972 3482.49,944.311 3487.25,946.24C3487.75,946.195 3488.84,946.399 3489.1,946.026C3492.44,941.221 3495.94,937.004 3502.61,936.802C3505.32,936.72 3502.48,935.627 3502.41,935.614C3491.72,933.618 3485.44,921.05 3472.7,923.54C3467.92,924.476 3462.78,923.787 3457.82,923.634C3432.38,922.855 3436.52,928.877 3422.31,902.019C3419.63,896.959 3416.89,891.916 3413.84,887.081C3411.44,883.278 3407.25,884.278 3404.61,885.943Z" style="fill:rgb(231,146,79);fill-rule:nonzero;"/>
                    <path d="M3623.52,555.682C3618.56,528.003 3602.05,508.155 3580.26,491.897C3579.37,491.233 3577.76,490.144 3577.37,490.437C3575.43,491.866 3577.46,493.055 3578.15,494.037C3583.04,501.022 3586.08,508.795 3588.43,516.922C3591.09,526.164 3588.41,537.415 3593.23,544.742C3598.35,552.515 3610.73,553.081 3618.66,559.174C3619.57,559.87 3620.51,560.535 3621.49,561.113C3624.01,562.594 3624.79,561.567 3624.47,559.255C3624.1,557.898 3623.72,556.806 3623.52,555.682Z" style="fill:rgb(229,64,67);fill-rule:nonzero;"/>
                    <path d="M3292.74,864.301C3287.15,850.844 3276.35,850.966 3265.07,853.044C3245.7,856.61 3226.54,859.936 3208.45,848.419C3206.84,847.395 3203.94,847.209 3203.17,848.732C3202.16,850.718 3204.76,851.684 3206.34,852.325C3236.88,864.674 3268.15,874.125 3301.34,875.682L3301.34,873.348C3298.4,870.362 3294.23,867.888 3292.74,864.301Z" style="fill:rgb(219,220,220);fill-rule:nonzero;"/>
                    <path d="M3352.4,877.402C3346.48,871.191 3339.93,865.574 3333.65,859.702C3325.91,865.385 3315.92,864.645 3307.64,868.79C3308.42,869.929 3310.49,870.992 3309.44,872.365C3307.28,875.2 3304.05,872.899 3301.34,873.348L3301.34,875.682C3307.95,878.488 3315.01,878.065 3321.71,877.235C3330.04,876.205 3335.16,878.569 3339.23,886.125C3343.21,893.515 3349.24,898.951 3358.82,894.185C3361.21,886.873 3356.72,881.932 3352.4,877.402Z" style="fill:rgb(216,215,214);fill-rule:nonzero;"/>
                    <path d="M3546.15,563.574C3557.44,566.298 3565.85,561.684 3573.31,553.988C3575.66,551.565 3577.89,548.937 3581.71,549C3573.41,545.281 3565.09,541.611 3556.82,537.813C3554.14,536.583 3551.72,535.867 3550.09,539.133C3546.73,545.858 3540.39,549.836 3535.4,555.035C3530.41,560.233 3531.12,563.381 3538.06,565.174C3540.12,561.592 3543.67,562.976 3546.15,563.574Z" style="fill:rgb(79,80,76);fill-rule:nonzero;"/>
                    <path d="M3326.68,804.567C3328.62,804.499 3331.25,802.841 3331.48,806.676C3340.69,802.39 3350.55,799.109 3358.93,793.576C3370.35,786.027 3382.14,777.922 3383.67,762.205C3363.83,778.999 3341.53,791.747 3317.84,802.225C3319.97,806.105 3323.89,803.199 3326.68,804.567Z" style="fill:rgb(219,219,220);fill-rule:nonzero;"/>
                    <path d="M3564.12,504.941C3561.63,513.16 3556.54,522.103 3558.13,529.58C3559.46,535.866 3570.18,537.405 3577.45,539.578C3578.14,539.786 3578.96,539.598 3579.72,539.594C3577.01,527.071 3575.02,514.314 3567.94,503.207C3566.62,503.771 3564.39,504.059 3564.12,504.941Z" style="fill:rgb(87,92,89);fill-rule:nonzero;"/>
                    <path d="M3593.26,553.558C3587.49,552.438 3586.55,560.659 3582.13,563.296C3580.54,564.243 3579.42,565.961 3578.02,567.253C3576.89,568.303 3575.8,569.509 3576.51,571.005C3576.71,571.42 3578.61,571.102 3579.72,570.999C3591.07,569.946 3602.28,567.417 3613.77,567.834C3614.77,567.871 3615.95,568.118 3616.5,566.821C3616.14,566.216 3615.94,565.396 3615.42,565.042C3608.47,560.331 3601.41,555.141 3593.26,553.558Z" style="fill:rgb(215,64,75);fill-rule:nonzero;"/>
                    <path d="M3584.56,537.23C3583.37,521.113 3579.09,505.913 3570.57,492.119C3568.37,488.545 3566.6,484.096 3561.6,483.132C3561.08,487.463 3563.5,491.008 3564.78,494.85C3565.72,497.673 3566.88,500.424 3567.94,503.207C3575.02,514.314 3577.01,527.071 3579.72,539.594C3583.2,542.627 3584.93,542.178 3584.56,537.23Z" style="fill:rgb(246,221,152);fill-rule:nonzero;"/>
                    <path d="M3583.02,552.465C3584.18,551.161 3583.48,549.66 3581.71,549C3577.89,548.937 3575.66,551.565 3573.31,553.988C3565.85,561.684 3557.44,566.298 3546.15,563.574C3543.67,562.976 3540.12,561.592 3538.06,565.174C3558.13,575.938 3567,570.501 3583.02,552.465Z" style="fill:rgb(236,207,131);fill-rule:nonzero;"/>
                    <path d="M3539.07,544.747C3544.33,541.629 3546.04,536.396 3547.14,530.923C3547.89,527.193 3546.11,524.094 3542.86,522.604C3540.24,521.402 3532.25,530.808 3531.56,535.475C3530.74,541.014 3535.27,542.212 3539.07,544.747Z" style="fill:rgb(230,160,61);fill-rule:nonzero;"/>
                    <path d="M3416.3,865.001C3411,866.951 3405.73,869.002 3400.53,871.197C3398.29,872.14 3394.16,872.136 3394.68,875.102C3395.26,878.478 3399.23,878.375 3402.31,878.375C3409.86,878.169 3416.57,876.251 3420.45,869.026C3421.31,867.424 3422.65,864.671 3422.02,863.938C3420.14,861.742 3418.18,864.312 3416.3,865.001Z" style="fill:rgb(227,217,215);fill-rule:nonzero;"/>
                    <path d="M3556.87,502.574C3557.06,500.301 3557.09,498.015 3557.18,496.242C3556.94,492.312 3556.86,488.877 3556.45,485.482C3556.32,484.338 3557.1,482.052 3554.67,482.323C3552.83,482.526 3552.66,484.335 3552.56,485.832C3552.15,491.908 3551.71,497.982 3551.45,504.064C3551.18,510.352 3547.05,516.518 3550.82,522.935C3554.67,516.695 3556.27,509.775 3556.87,502.574Z" style="fill:rgb(219,202,144);fill-rule:nonzero;"/>
                    <path d="M3526.78,459.45L3526.78,459.451C3533.28,463.472 3538.48,469.008 3544,474.182C3545.13,475.246 3546.3,476.409 3547.81,475.203C3549.49,473.858 3548.02,472.32 3547.31,471.305C3543.14,465.27 3537.19,461.206 3531.15,457.275C3529.58,457.781 3527.67,457.593 3526.78,459.45Z" style="fill:rgb(171,165,167);fill-rule:nonzero;"/>
                    <path d="M3326.68,804.567C3310.51,806.459 3300.03,815.525 3293.95,830.304C3292.58,833.609 3290.66,837.396 3294.78,839.174C3298.95,840.97 3298.87,836.001 3300.32,833.72C3300.91,832.79 3300.8,831.391 3301.44,830.523C3307.58,822.193 3312.33,812.115 3324.75,811.448C3327,809.857 3329.24,808.267 3331.48,806.676C3331.25,802.841 3328.62,804.499 3326.68,804.567Z" style="fill:rgb(19,23,22);fill-rule:nonzero;"/>
                    <path d="M3496.5,489.027C3495.68,488.539 3494.84,487.671 3494.55,486.796C3494.14,485.523 3495.2,484.956 3496.34,484.93C3498.22,484.887 3498.65,486.271 3498.9,487.764C3498.35,488.7 3497.71,489.748 3496.5,489.027ZM3495.36,472.395C3493.84,474.543 3492.67,476.948 3491.44,479.294C3485.61,490.455 3478.24,498.577 3464.01,493.904C3457.92,493.904 3451.83,493.825 3445.75,493.953C3443.97,493.99 3441.63,494.053 3441.78,496.77C3441.92,499.285 3444.24,499.453 3445.97,499.522C3450.53,499.705 3455.1,499.653 3459.67,499.517C3470.1,499.206 3480.01,500.882 3489.54,505.494C3498.48,509.827 3496.8,507.664 3502.95,501.588C3513.19,491.464 3506.99,482.864 3504.03,473.519C3502.11,467.438 3498.84,467.495 3495.36,472.395Z" style="fill:rgb(27,27,26);fill-rule:nonzero;"/>
                    <path d="M3496.34,484.93C3495.2,484.956 3494.14,485.523 3494.55,486.796C3494.84,487.671 3495.68,488.539 3496.5,489.027C3497.71,489.748 3498.35,488.7 3498.9,487.764C3498.65,486.271 3498.22,484.887 3496.34,484.93Z" style="fill:rgb(201,201,187);fill-rule:nonzero;"/>
                </g>
            </g>
        </g>
    </g>
</svg>
