<?xml version="1.0" encoding="UTF-8" standalone="no"?>
<!DOCTYPE svg PUBLIC "-//W3C//DTD SVG 1.1//EN" "http://www.w3.org/Graphics/SVG/1.1/DTD/svg11.dtd">
<svg width="100%" height="100%" viewBox="0 0 534 534" version="1.1" xmlns="http://www.w3.org/2000/svg" xmlns:xlink="http://www.w3.org/1999/xlink" xml:space="preserve" xmlns:serif="http://www.serif.com/" style="fill-rule:evenodd;clip-rule:evenodd;stroke-linejoin:round;stroke-miterlimit:2;">
    <g transform="matrix(1,0,0,1,-1315.07,0)">
        <g id="bird03" transform="matrix(1,0,0,1,1315.07,0)">
            <rect x="0" y="0" width="533.333" height="533.333" style="fill:none;"/>
            <clipPath id="_clip1">
                <rect x="0" y="0" width="533.333" height="533.333"/>
            </clipPath>
            <g clip-path="url(#_clip1)">
                <g transform="matrix(3.1621,0,0,3.1621,-940.596,-144.787)">
                    <g transform="matrix(1,0,0,1,379.779,96.4936)">
                        <path d="M0,26.46C-0.128,26.629 -0.225,26.708 -0.251,26.806C-0.277,26.904 -0.269,27.04 -0.218,27.126C0.317,28.034 1.216,28.397 2.163,28.674C2.24,28.696 2.365,28.617 2.441,28.554C2.494,28.509 2.547,28.374 2.521,28.34C1.851,27.468 0.966,26.901 0,26.46M-2.921,30.266C-3.001,30.064 -3.035,29.825 -3.168,29.669C-3.945,28.757 -4.744,27.865 -5.54,26.969C-5.611,26.889 -5.701,26.785 -5.793,26.772C-5.984,26.747 -6.246,26.702 -6.36,26.801C-6.486,26.91 -6.581,27.224 -6.513,27.361C-5.815,28.761 -4.701,29.772 -3.382,30.571C-3.316,30.611 -3.169,30.574 -3.095,30.523C-3.016,30.468 -2.978,30.354 -2.921,30.266M-7.909,30.464C-7.846,30.376 -7.711,30.268 -7.729,30.201C-8.188,28.492 -9.094,27.017 -10.176,25.644C-10.268,25.526 -10.61,25.447 -10.694,25.518C-10.832,25.635 -10.955,25.921 -10.906,26.081C-10.381,27.777 -9.366,29.176 -8.155,30.445C-8.112,30.489 -7.992,30.46 -7.909,30.464M-16.083,23.073C-16.157,23.38 -16.357,23.718 -16.284,23.98C-15.661,26.208 -14.548,28.177 -13.006,29.903C-12.936,29.982 -12.839,30.054 -12.741,30.085C-12.642,30.117 -12.491,30.137 -12.424,30.085C-12.283,29.975 -12.051,29.745 -12.083,29.683C-13.192,27.571 -14.326,25.472 -15.464,23.376C-15.509,23.293 -15.623,23.24 -15.715,23.194C-15.811,23.147 -15.919,23.125 -16.083,23.073M-17.395,28.172C-17.432,27.956 -17.441,27.731 -17.511,27.526C-18.292,25.243 -19.081,22.964 -19.873,20.686C-19.908,20.586 -19.978,20.477 -20.062,20.422C-20.231,20.314 -20.419,20.231 -20.608,20.167C-20.63,20.159 -20.759,20.341 -20.763,20.438C-20.778,20.871 -20.837,21.319 -20.755,21.738C-20.285,24.133 -19.331,26.341 -18.055,28.412C-17.998,28.503 -17.7,28.47 -17.521,28.446C-17.468,28.439 -17.436,28.268 -17.395,28.172M-23.082,21.809C-23.118,21.2 -23.158,20.327 -23.228,19.457C-23.286,18.705 -23.372,17.955 -23.464,17.207C-23.475,17.116 -23.588,16.988 -23.672,16.972C-23.756,16.955 -23.92,17.033 -23.952,17.11C-25.312,20.368 -24.772,23.466 -23.136,26.462C-23.105,26.519 -22.919,26.528 -22.824,26.498C-22.746,26.473 -22.636,26.352 -22.643,26.282C-22.771,24.878 -22.915,23.475 -23.082,21.809M10.99,20.801C10.959,20.445 10.975,20.107 10.894,19.794C10.455,18.09 9.905,16.428 8.854,14.986C8.776,14.88 8.541,14.869 8.377,14.861C8.336,14.859 8.232,15.051 8.249,15.136C8.443,16.1 8.649,17.061 8.865,18.021C8.961,18.448 9.103,18.866 9.189,19.295C9.275,19.718 9.432,20.196 9.056,20.535C8.677,20.876 8.254,20.677 7.862,20.468C6.799,19.9 5.736,19.331 4.667,18.774C3.934,18.392 3.209,18.376 2.492,18.847C2.131,19.085 1.759,19.418 1.362,19.467C0.781,19.539 0.41,19.02 0.028,18.638C-0.592,18.018 -1.175,17.359 -1.82,16.767C-2.22,16.401 -2.691,16.107 -3.154,15.821C-3.69,15.49 -4.604,15.679 -4.918,16.216C-5.302,16.873 -5.613,17.573 -5.958,18.253C-6.459,19.242 -7.257,19.391 -8.052,18.54C-9.022,17.501 -9.916,16.387 -10.821,15.289C-11.236,14.786 -11.597,14.238 -11.998,13.722C-12.051,13.656 -12.251,13.609 -12.294,13.649C-12.424,13.77 -12.632,13.988 -12.595,14.079C-11.692,16.244 -10.258,18.023 -8.514,19.564C-8.271,19.778 -7.964,19.924 -7.676,20.081C-6.971,20.466 -6.036,20.261 -5.633,19.607C-5.347,19.144 -5.119,18.644 -4.858,18.165C-4.214,16.981 -3.829,16.66 -2.668,17.844C-2.131,18.392 -1.646,18.99 -1.11,19.54C-0.652,20.009 -0.18,20.471 0.332,20.88C0.88,21.32 1.501,21.471 2.143,21.032C2.413,20.847 2.656,20.615 2.94,20.454C3.337,20.229 3.776,20.166 4.19,20.402C5.048,20.891 5.88,21.423 6.744,21.898C7.317,22.212 7.917,22.492 8.527,22.727C9.301,23.025 10.384,22.513 10.717,21.718C10.842,21.419 10.904,21.094 10.99,20.801M13.338,44.093C13.096,44.113 12.767,44.133 12.438,44.168C8.569,44.58 5.61,42.945 3.25,40.032C2.63,39.266 2.148,38.388 1.572,37.584C1.256,37.14 0.896,36.721 0.509,36.34C0.426,36.258 0.13,36.363 -0.052,36.427C-0.118,36.45 -0.191,36.619 -0.171,36.696C0.316,38.523 1.209,40.157 2.256,41.713C2.562,42.167 2.9,42.599 3.214,43.048C3.396,43.308 3.211,43.775 2.921,43.821C-0.401,44.341 -3.663,43.941 -6.867,43.058C-8.381,42.64 -9.634,41.711 -10.594,40.452C-11.327,39.491 -11.996,38.481 -12.713,37.507C-13.036,37.067 -13.384,36.64 -13.77,36.256C-13.856,36.17 -14.155,36.268 -14.342,36.327C-14.421,36.352 -14.526,36.506 -14.513,36.583C-14.435,37.012 -14.403,37.476 -14.209,37.853C-13.655,38.926 -13.071,39.988 -12.424,41.007C-11.47,42.51 -11.782,42.856 -13.471,43.069C-17.275,43.549 -20.94,43.088 -24.164,40.764C-25.501,39.799 -26.83,38.82 -28.114,37.787C-29.145,36.958 -30.044,35.987 -30.743,34.849C-31.684,33.319 -32.319,31.728 -32.078,29.863C-31.754,27.356 -31.733,24.789 -31.183,22.338C-29.821,16.276 -26.838,11.167 -22.024,7.074C-17.99,3.644 -13.427,1.405 -8.413,-0.071C-7.47,-0.349 -6.54,-0.672 -5.608,-0.986C-5.521,-1.016 -5.463,-1.134 -5.391,-1.211C-5.481,-1.274 -5.564,-1.376 -5.663,-1.393C-6.093,-1.466 -6.532,-1.488 -6.956,-1.583C-7.12,-1.62 -7.271,-1.785 -7.386,-1.925C-7.425,-1.973 -7.366,-2.161 -7.298,-2.227C-6.744,-2.76 -6.151,-3.255 -5.619,-3.808C-4.322,-5.154 -2.949,-6.443 -1.794,-7.903C0.415,-10.693 3.086,-12.962 5.862,-15.133C7.43,-16.358 9.133,-17.343 10.957,-18.149C12.688,-18.913 14.401,-19.515 16.357,-19.29C17.902,-19.111 19.415,-19.485 20.888,-19.988C21.461,-20.184 21.955,-19.921 22.22,-19.353C22.451,-18.855 22.651,-18.344 22.867,-17.839C23.555,-16.231 24.049,-14.497 25.687,-13.507C26.88,-11.506 28.503,-9.866 30.129,-8.228C30.19,-8.166 30.184,-8.032 30.202,-7.931C30.254,-7.647 30.13,-7.517 29.833,-7.512C29.615,-7.508 29.397,-7.464 29.18,-7.463C28.85,-7.462 28.52,-7.477 28.19,-7.496C24.734,-7.695 21.382,-7.083 18.132,-6.006C15.632,-5.177 13.188,-4.165 10.765,-3.132C9.768,-2.707 8.839,-2.072 7.97,-1.414C7.375,-0.963 6.793,-0.879 6.126,-0.995C5.476,-1.108 4.833,-1.262 4.185,-1.376C2.875,-1.606 1.559,-1.635 0.243,-1.436C0.046,-1.406 -0.305,-1.208 -0.297,-1.186C-0.175,-0.826 0.159,-0.752 0.484,-0.721C4.688,-0.322 8.667,0.882 12.503,2.612C14.518,3.521 16.385,4.659 18.146,5.998C22.393,9.227 25.951,13.118 28.941,17.497C31.545,21.308 33.968,25.245 36.384,29.18C39.57,34.366 41.641,40.051 43.592,45.781C43.736,46.205 43.306,46.644 42.852,46.58C41.278,46.358 39.879,45.738 38.777,44.599C37.557,43.336 36.42,41.991 35.246,40.683C34.809,40.195 34.384,39.696 33.924,39.23C33.721,39.023 33.51,39.085 33.406,39.315C33.363,39.412 33.287,39.527 33.31,39.613C33.418,40.029 33.513,40.459 33.69,40.847C34.431,42.467 35.678,43.739 36.689,45.174C36.771,45.29 36.718,45.524 36.677,45.691C36.664,45.744 36.479,45.797 36.385,45.781C34.753,45.497 33.189,44.989 31.692,44.284C29.852,43.417 28.428,42.061 27.298,40.395C26.434,39.122 25.641,37.8 24.78,36.524C24.415,35.982 23.978,35.485 23.529,35.009C23.428,34.901 23.08,34.882 22.962,34.973C22.823,35.079 22.739,35.358 22.761,35.548C22.798,35.866 22.891,36.197 23.041,36.479C24.285,38.803 25.428,41.19 27.181,43.204C27.394,43.448 27.573,43.796 27.268,44.061C27.035,44.262 26.674,44.471 26.396,44.44C22.229,43.975 18.44,42.726 15.87,39.109C15.043,37.945 14.289,36.729 13.466,35.562C13.293,35.318 12.975,35.161 12.697,35.011C12.478,34.891 12.241,35.02 12.24,35.295C12.238,35.72 12.247,36.176 12.395,36.565C13.299,38.966 14.655,41.078 16.53,42.848C16.669,42.978 16.693,43.23 16.768,43.426C16.858,43.667 16.559,43.88 16.059,43.923C15.73,43.951 15.401,43.975 15.072,43.995C14.523,44.028 13.974,44.057 13.338,44.093" style="fill:rgb(80,140,160);fill-rule:nonzero;"/>
                    </g>
                    <g transform="matrix(1,0,0,1,440.453,139.611)">
                        <path d="M0,21.303C-0.076,21.384 -0.199,21.453 -0.215,21.541C-0.367,22.389 0.167,22.951 0.642,23.535C0.717,23.457 0.839,23.388 0.858,23.298C1.04,22.442 0.461,21.904 0,21.303M-33.304,-44.498C-33.326,-44.603 -33.313,-44.754 -33.377,-44.805C-34.052,-45.335 -34.818,-45.676 -35.656,-45.847C-35.73,-45.863 -35.903,-45.759 -35.903,-45.711C-35.902,-45.532 -35.913,-45.284 -35.806,-45.187C-35.161,-44.602 -34.399,-44.264 -33.515,-44.269C-33.444,-44.269 -33.374,-44.418 -33.304,-44.498M-36.085,-43.199C-36.176,-43.391 -36.228,-43.618 -36.364,-43.769C-37.175,-44.664 -38.17,-45.312 -39.252,-45.832C-39.347,-45.877 -39.463,-45.927 -39.559,-45.912C-39.764,-45.879 -40.015,-45.858 -40.146,-45.73C-40.234,-45.642 -40.228,-45.319 -40.135,-45.206C-39.229,-44.09 -38.045,-43.351 -36.736,-42.796C-36.64,-42.755 -36.516,-42.733 -36.417,-42.757C-36.322,-42.779 -36.225,-42.857 -36.163,-42.937C-36.111,-43.005 -36.109,-43.11 -36.085,-43.199M-4.447,26.854C-4.414,26.649 -4.308,26.422 -4.36,26.242C-4.847,24.581 -5.545,23.012 -6.493,21.561C-6.606,21.388 -6.792,21.258 -6.958,21.125C-7.039,21.06 -7.222,20.979 -7.239,21.001C-7.358,21.149 -7.559,21.351 -7.525,21.484C-7.024,23.471 -6.294,25.358 -4.933,26.938C-4.869,27.011 -4.734,27.064 -4.641,27.054C-4.57,27.048 -4.512,26.925 -4.447,26.854M-0.491,26.658C-0.466,26.556 -0.396,26.441 -0.422,26.355C-0.875,24.886 -1.522,23.507 -2.416,22.255C-2.526,22.099 -2.771,22.029 -2.968,21.952C-3.048,21.921 -3.179,21.949 -3.258,21.998C-3.343,22.051 -3.464,22.171 -3.451,22.239C-3.112,24.006 -2.201,25.468 -0.993,26.763C-0.926,26.836 -0.786,26.89 -0.693,26.875C-0.616,26.862 -0.558,26.735 -0.491,26.658M-44.778,-45.981C-44.867,-45.917 -44.999,-45.869 -45.033,-45.783C-45.066,-45.7 -45.033,-45.543 -44.969,-45.477C-43.569,-44.045 -41.87,-43.079 -40.026,-42.351C-39.926,-42.311 -39.702,-42.515 -39.575,-42.645C-39.528,-42.693 -39.56,-42.88 -39.616,-42.958C-40.757,-44.531 -42.316,-45.506 -44.149,-46.064C-44.334,-46.12 -44.567,-46.013 -44.778,-45.981M-33.75,-49.099C-32.121,-48.939 -30.592,-48.765 -29.058,-48.646C-27.894,-48.556 -26.959,-48.062 -26.187,-47.213C-24.109,-44.931 -22.214,-42.508 -20.539,-39.917C-18.023,-36.027 -15.896,-31.934 -14.258,-27.599C-12.977,-24.207 -11.749,-20.794 -10.513,-17.384C-7.479,-9.015 -4.477,-0.634 -2.086,7.95C-0.671,13.031 0.536,18.157 1.58,23.333C3.037,30.554 5.053,37.638 7.646,44.541C9.002,48.155 10.781,51.557 13.097,54.675C14.998,57.235 16.764,59.891 18.277,62.708C18.716,63.524 18.856,64.35 18.717,65.249C18.638,65.757 18.124,66.227 17.58,66.265C16.517,66.339 15.646,66.107 15.15,65.011C13.188,60.667 10.407,56.837 7.462,53.136C5.893,51.163 4.102,49.368 2.403,47.499C2.2,47.276 1.999,47.31 1.896,47.548C1.857,47.637 1.814,47.774 1.854,47.841C2.41,48.782 2.924,49.756 3.558,50.643C5.283,53.059 7.04,55.453 8.823,57.826C10.484,60.036 11.783,62.454 13.012,64.915C13.607,66.11 13.947,67.381 13.976,68.72C13.982,69.043 13.906,69.369 13.856,69.692C13.798,70.07 13.148,70.402 12.813,70.214C12.338,69.946 11.831,69.709 11.416,69.365C9.365,67.666 7.661,65.656 6.382,63.323C4.579,60.033 2.46,56.959 0.172,53.999C-0.431,53.22 -1.079,52.46 -1.799,51.792C-2.497,51.144 -2.953,50.548 -2.631,49.507C-2.231,48.216 -2.416,46.907 -2.776,45.607C-3.95,41.371 -5.076,37.122 -6.247,32.885C-7.974,26.636 -9.674,20.378 -11.478,14.151C-13.68,6.547 -16.126,-0.979 -19.344,-8.227C-20.101,-9.932 -20.953,-11.601 -21.861,-13.23C-24.324,-17.651 -27.026,-21.93 -29.866,-26.114C-33.033,-30.78 -36.806,-34.901 -41.334,-38.324C-43.732,-40.137 -46.363,-41.456 -49.125,-42.565C-49.94,-42.892 -50.773,-43.174 -51.595,-43.485C-51.691,-43.521 -51.846,-43.664 -51.84,-43.673C-51.726,-43.855 -51.619,-44.061 -51.455,-44.191C-51.008,-44.542 -50.495,-44.756 -49.931,-44.516C-48.52,-43.914 -47.065,-43.4 -45.892,-42.339C-45.158,-41.676 -44.335,-41.113 -43.364,-40.842C-43.199,-40.796 -42.899,-40.89 -42.807,-41.021C-42.719,-41.147 -42.743,-41.468 -42.849,-41.595C-44.138,-43.146 -45.788,-44.204 -47.6,-45.045C-47.755,-45.117 -47.826,-45.394 -47.902,-45.59C-47.916,-45.624 -47.773,-45.757 -47.684,-45.79C-44.074,-47.104 -40.495,-48.527 -36.616,-48.873C-35.632,-48.961 -34.646,-49.029 -33.75,-49.099" style="fill:rgb(179,221,235);fill-rule:nonzero;"/>
                    </g>
                    <g transform="matrix(1,0,0,1,387.274,61.1297)">
                        <path d="M0,0.819C-0.193,0.968 -0.354,1.063 -0.468,1.198C-0.502,1.237 -0.434,1.439 -0.362,1.48C-0.09,1.638 0.191,1.809 0.491,1.878C0.652,1.916 0.944,1.805 1.019,1.673C1.079,1.563 0.961,1.245 0.83,1.157C0.578,0.989 0.26,0.919 0,0.819M-1.031,4.298C-1.597,3.4 -2.392,2.756 -3.499,2.564C-3.625,2.542 -3.813,2.76 -3.938,2.899C-3.993,2.962 -4.007,3.132 -3.962,3.204C-3.369,4.153 -2.548,4.745 -1.396,4.779C-1.31,4.782 -1.204,4.689 -1.139,4.614C-1.086,4.554 -1.081,4.454 -1.031,4.298M-8.151,4.089C-8.469,4.261 -8.642,4.354 -8.814,4.447C-8.761,4.543 -8.729,4.666 -8.65,4.73C-7.554,5.631 -6.462,6.538 -5.343,7.41C-5.011,7.669 -4.603,7.832 -4.218,8.016C-4.151,8.047 -4.015,7.977 -3.937,7.919C-3.868,7.868 -3.778,7.722 -3.799,7.694C-4.65,6.551 -5.546,5.441 -6.774,4.681C-7.224,4.403 -7.753,4.256 -8.151,4.089M-21.642,-13.62C-19.128,-13.777 -16.841,-13.552 -14.58,-12.996C-12.768,-12.55 -10.939,-12.161 -9.125,-11.722C-6.326,-11.044 -3.729,-9.868 -1.204,-8.509C2.591,-6.466 5.524,-3.498 7.507,0.261C9.605,4.241 11.378,8.394 13.29,12.472C13.337,12.57 13.35,12.683 13.384,12.788C13.507,13.166 13.226,13.69 12.828,13.842C11.041,14.525 9.216,14.733 7.322,14.373C5.044,13.94 2.832,13.264 0.704,12.376C-3.071,10.8 -7.024,9.858 -10.983,8.944C-14.01,8.246 -17.078,8.144 -20.156,8.687C-22.13,9.036 -23.936,9.819 -25.708,10.713C-27.08,11.404 -28.457,12.09 -29.854,12.73C-31.493,13.48 -33.226,13.721 -35.009,13.44C-36.418,13.218 -37.813,12.903 -39.224,12.69C-40.961,12.428 -42.702,12.177 -44.45,12.019C-46.128,11.868 -47.669,11.401 -49.117,10.539C-49.996,10.016 -50.266,9.269 -50.205,8.319C-50.105,6.749 -49.621,5.289 -48.815,3.959C-47.507,1.798 -46.169,-0.348 -44.769,-2.449C-44.226,-3.263 -43.533,-3.998 -42.816,-4.669C-40.313,-7.011 -37.583,-9.031 -34.401,-10.383C-33.593,-10.726 -32.8,-11.108 -31.998,-11.47C-28.646,-12.983 -25.171,-13.914 -21.642,-13.62" style="fill:rgb(80,140,160);fill-rule:nonzero;"/>
                    </g>
                    <g transform="matrix(1,0,0,1,366.714,102.48)">
                        <path d="M0,-28.806C-1.604,-28.783 -2.44,-28.085 -2.711,-26.575C-2.887,-25.6 -2.392,-24.905 -1.773,-24.269C-0.604,-23.068 0.786,-23.069 1.929,-24.248C2.761,-25.106 3.037,-26.102 2.608,-27.232C2.224,-28.244 1.222,-28.824 0,-28.806M-15.353,-26.303C-13.046,-25.777 -10.989,-26.043 -9.018,-26.843C-7.596,-27.419 -6.181,-28.051 -4.855,-28.817C-0.224,-31.494 4.698,-31.845 9.813,-30.795C13.264,-30.087 16.626,-29.084 19.884,-27.735C21.098,-27.232 22.342,-26.8 23.557,-26.3C23.717,-26.234 23.806,-25.962 23.891,-25.769C23.909,-25.727 23.787,-25.575 23.703,-25.542C20.601,-24.306 17.959,-22.352 15.391,-20.272C13.676,-18.885 12.111,-17.354 10.671,-15.685C9.594,-14.438 8.486,-13.217 7.359,-12.016C6,-10.569 4.455,-9.337 2.82,-8.212C1.917,-7.59 1.05,-6.915 0.143,-6.299C-0.305,-5.995 -0.782,-5.705 -1.287,-5.52C-5.494,-3.98 -8.964,-1.302 -12.312,1.569C-12.809,1.996 -13.297,2.432 -13.795,2.858C-14.008,3.039 -14.218,3.009 -14.363,2.767C-14.983,1.736 -15.616,0.712 -16.205,-0.337C-17.064,-1.868 -17.886,-3.419 -18.734,-4.956C-19.164,-5.736 -19.062,-6.07 -18.1,-6.385C-15.995,-7.073 -14.051,-8.08 -12.192,-9.262C-9.155,-11.193 -8.334,-14.17 -8.423,-17.517C-8.437,-18.01 -8.762,-18.584 -9.115,-18.958C-9.865,-19.753 -10.7,-20.475 -11.551,-21.164C-13.514,-22.755 -15.51,-24.304 -17.479,-25.886C-17.619,-25.999 -17.65,-26.25 -17.731,-26.436C-17.522,-26.484 -17.307,-26.592 -17.105,-26.569C-16.452,-26.495 -15.804,-26.374 -15.353,-26.303" style="fill:rgb(236,201,107);fill-rule:nonzero;"/>
                    </g>
                    <g transform="matrix(1,0,0,1,405.068,185.742)">
                        <path d="M0,-34.619C0.531,-34.712 1.045,-34.87 1.563,-34.494C5.277,-31.803 9.606,-31.11 14.015,-30.871C16.445,-30.739 18.789,-31.418 20.994,-32.489C21.254,-32.615 21.708,-32.414 21.818,-32.158C21.948,-31.856 22.105,-31.561 22.196,-31.247C22.378,-30.616 22.51,-29.97 22.686,-29.336C24.911,-21.309 27.147,-13.285 29.364,-5.256C29.802,-3.672 30.177,-2.072 30.554,-0.473C30.596,-0.294 30.508,0.063 30.397,0.102C30.118,0.2 29.763,0.251 29.489,0.163C29.079,0.03 28.702,-0.22 28.33,-0.451C26.181,-1.79 24.164,-3.315 22.405,-5.134C20.12,-7.498 17.827,-9.868 15.711,-12.381C13.313,-15.232 11.039,-18.196 8.834,-21.2C6.303,-24.648 3.802,-28.114 1.097,-31.432C-0.161,-32.975 -0.015,-32.351 0.089,-34.71L0,-34.619Z" style="fill:rgb(125,128,139);fill-rule:nonzero;"/>
                    </g>
                    <g transform="matrix(1,0,0,1,422.799,153.473)">
                        <path d="M0,39.85C-1.791,39.732 -3.222,39.167 -4.607,38.486C-8.187,36.725 -11.396,34.425 -14.286,31.685C-15.881,30.172 -17.385,28.566 -19.214,27.312C-19.752,26.944 -20.212,26.449 -20.664,25.971C-23.463,23.018 -26.252,20.057 -29.037,17.091C-29.563,16.53 -30.033,15.915 -30.567,15.362C-34.24,11.553 -37.323,7.254 -40.688,3.19C-41.115,2.676 -40.997,2.049 -40.437,1.896C-38.95,1.491 -37.471,1.091 -36.23,0.101C-36.104,0 -35.791,0.027 -35.618,0.108C-34.723,0.527 -33.819,0.94 -32.971,1.443C-32.513,1.714 -32.098,2.111 -31.767,2.533C-28.504,6.697 -24.867,10.513 -21.1,14.218C-18.434,16.838 -15.883,19.575 -13.294,22.272C-12.995,22.583 -12.671,22.936 -12.54,23.33C-12.096,24.661 -11.059,25.504 -10.099,26.39C-7.189,29.075 -4.221,31.695 -1.072,34.102C0.155,35.04 1.311,36.055 2.269,37.273C2.469,37.526 2.68,37.826 2.727,38.129C2.771,38.411 2.694,38.815 2.508,39.007C2.216,39.307 1.812,39.56 1.409,39.674C0.89,39.822 0.326,39.814 0,39.85" style="fill:rgb(125,128,139);fill-rule:nonzero;"/>
                    </g>
                    <g transform="matrix(1,0,0,1,309.577,74.9659)">
                        <path d="M0,21.977C-0.857,22.156 -1.714,22.341 -2.573,22.509C-2.667,22.527 -2.866,22.453 -2.867,22.419C-2.87,22.256 -2.88,22.008 -2.783,21.941C-2.062,21.445 -1.331,20.958 -0.575,20.516C2.745,18.574 5.975,16.497 9.112,14.269C11.978,12.234 14.919,10.306 17.783,8.269C21.451,5.66 25.095,3.013 28.706,0.324C29.568,-0.317 30.403,-0.55 31.452,-0.41C32.675,-0.246 33.812,0.025 34.789,0.839C35.204,1.185 35.721,1.414 36.207,1.668C38.064,2.64 39.77,3.834 41.388,5.162C42.743,6.273 44.116,7.363 45.475,8.471C45.714,8.666 45.598,9.144 45.311,9.245C38.986,11.466 32.529,13.216 26.002,14.722C24.399,15.092 22.827,15.596 21.246,16.054C15.448,17.734 9.655,19.433 3.852,21.096C2.587,21.458 1.289,21.703 0.006,22.001C0.004,21.993 0.002,21.985 0,21.977" style="fill:rgb(227,129,73);fill-rule:nonzero;"/>
                    </g>
                    <g transform="matrix(1,0,0,1,394.634,188.845)">
                        <path d="M0,-32.863C2.455,-32.748 4.819,-33.068 6.991,-34.328C7.464,-34.602 7.962,-34.862 8.481,-35.01C8.745,-35.086 9.147,-34.982 9.372,-34.809C9.711,-34.549 9.967,-34.17 10.226,-33.818C12.894,-30.188 15.587,-26.576 18.21,-22.914C21.478,-18.352 24.919,-13.934 28.73,-9.811C29.626,-8.843 30.526,-7.877 31.472,-6.959C34.17,-4.338 37.053,-1.987 40.704,-0.78C41.244,-0.602 41.422,0.03 41.15,0.568C40.897,1.071 40.569,1.502 40.033,1.724C39.315,2.022 38.573,2.223 37.788,2.13C36.243,1.946 34.809,1.578 33.592,0.452C32.633,-0.436 31.492,-1.139 30.388,-1.855C27.145,-3.956 24.192,-6.405 21.447,-9.117C19.492,-11.049 17.502,-12.943 15.547,-14.873C13.904,-16.494 12.292,-18.145 10.662,-19.778C9.808,-20.634 8.942,-21.477 8.084,-22.328C5.354,-25.038 2.618,-27.74 -0.095,-30.466C-0.633,-31.007 -1.094,-31.63 -1.555,-32.241C-1.655,-32.374 -1.624,-32.626 -1.604,-32.818C-1.599,-32.87 -1.415,-32.944 -1.315,-32.941C-0.877,-32.928 -0.438,-32.891 0,-32.863" style="fill:rgb(125,128,139);fill-rule:nonzero;"/>
                    </g>
                    <g transform="matrix(1,0,0,1,416.558,155.337)">
                        <path d="M0,38.486C-1.684,37.985 -3.262,37.526 -4.832,37.04C-5.143,36.944 -5.426,36.756 -5.715,36.598C-9.762,34.378 -13.806,32.153 -17.854,29.936C-19.595,28.982 -21.192,27.838 -22.727,26.571C-26.808,23.202 -30.548,19.492 -34.06,15.542C-36.105,13.241 -38.162,10.957 -39.952,8.44C-41.676,6.015 -43.185,3.465 -44.639,0.877C-44.737,0.703 -44.794,0.305 -44.74,0.278C-44.477,0.151 -44.142,0 -43.88,0.061C-41.934,0.512 -39.958,0.589 -37.979,0.543C-37.115,0.523 -36.53,0.87 -36.03,1.527C-34.765,3.188 -33.436,4.802 -32.198,6.485C-28.675,11.278 -24.624,15.622 -20.709,20.082C-19.477,21.486 -18.162,22.818 -16.885,24.182C-11.894,29.512 -6.275,34.062 0.025,37.762C0.12,37.818 0.233,37.867 0.292,37.952C0.384,38.088 0.437,38.25 0.507,38.401C0.297,38.436 0.087,38.472 0,38.486" style="fill:rgb(125,128,139);fill-rule:nonzero;"/>
                    </g>
                    <g transform="matrix(1,0,0,1,347.849,175.914)">
                        <path d="M0,-42.761C0.057,-43.056 0.097,-43.268 0.137,-43.48C0.318,-43.4 0.566,-43.371 0.671,-43.233C2.544,-40.752 4.845,-38.729 7.379,-36.962C8.039,-36.502 8.486,-35.911 8.812,-35.202C9.315,-34.105 9.799,-32.999 10.315,-31.908C12.359,-27.588 15.539,-24.34 19.771,-22.164C20.902,-21.583 21.792,-20.895 22.322,-19.741C22.506,-19.344 22.767,-18.984 22.972,-18.595C26.268,-12.329 30.504,-6.751 35.376,-1.636C35.979,-1.003 36.514,-0.304 37.069,0.372C37.098,0.407 37.047,0.552 36.992,0.598C36.92,0.658 36.793,0.719 36.716,0.696C36.512,0.635 36.3,0.558 36.128,0.435C33.722,-1.286 31.06,-2.636 28.824,-4.604C25.331,-6.337 22.64,-9.122 19.738,-11.615C14.792,-15.867 10.634,-20.828 7.143,-26.327C5.022,-29.666 3.253,-33.204 1.683,-36.836C1.292,-37.74 0.96,-38.678 0.696,-39.626C0.402,-40.681 0.217,-41.765 0,-42.761" style="fill:rgb(125,128,139);fill-rule:nonzero;"/>
                    </g>
                    <g transform="matrix(1,0,0,1,370.185,145.547)">
                        <path d="M0,4.282C-0.041,4.181 -0.063,4.066 -0.127,3.981C-1.488,2.136 -2.849,0.292 -4.236,-1.533C-4.298,-1.614 -4.676,-1.576 -4.784,-1.469C-4.903,-1.352 -4.96,-1.067 -4.908,-0.896C-4.175,1.533 -2.481,3.188 -0.444,4.553C-0.376,4.598 -0.227,4.587 -0.153,4.541C-0.078,4.493 -0.049,4.371 0,4.282M5.56,4.189C5.56,4.079 5.604,3.926 5.554,3.88C3.932,2.437 2.301,1.003 0.668,-0.429C0.453,-0.618 0.231,-0.609 0.14,-0.385C0.065,-0.202 -0.005,0.073 0.08,0.212C0.416,0.767 0.743,1.357 1.202,1.802C2.38,2.942 3.655,3.964 5.308,4.352C5.378,4.368 5.482,4.242 5.56,4.189M-8.772,-4.318C-5.956,-4.125 -3.437,-3.993 -0.989,-4.923C-0.621,-5.062 -0.086,-5.008 0.287,-4.847C3.485,-3.474 6.853,-3.107 10.283,-3.051C11.259,-3.035 11.508,-2.783 11.812,-1.696C11.841,-1.591 11.859,-1.482 11.885,-1.375C12.539,1.309 13.386,3.912 15.013,6.197C15.286,6.58 15.109,7.179 14.747,7.315C9.333,9.344 3.947,9.113 -1.32,6.883C-4.861,5.385 -7.521,2.761 -9.607,-0.437C-10.206,-1.355 -10.703,-2.342 -11.215,-3.314C-11.402,-3.671 -11.758,-4.102 -11.37,-4.469C-11.196,-4.634 -10.761,-4.561 -10.45,-4.532C-9.794,-4.47 -9.143,-4.367 -8.772,-4.318" style="fill:rgb(179,221,235);fill-rule:nonzero;"/>
                    </g>
                    <g transform="matrix(1,0,0,1,392.438,150.288)">
                        <path d="M0,-4.353C-0.13,-4.215 -0.225,-4.149 -0.269,-4.058C-0.308,-3.977 -0.331,-3.838 -0.288,-3.776C0.612,-2.478 1.981,-1.861 3.377,-1.289C3.452,-1.258 3.573,-1.322 3.667,-1.359C3.931,-1.461 3.941,-1.622 3.713,-1.84C2.61,-2.894 1.319,-3.658 0,-4.353M-4.066,-5.491C-4.138,-5.437 -4.25,-5.396 -4.271,-5.327C-4.333,-5.13 -4.455,-4.874 -4.382,-4.723C-3.484,-2.852 -2.141,-1.307 -0.696,0.154C-0.604,0.247 -0.347,0.194 -0.173,0.169C-0.132,0.164 -0.062,-0.036 -0.096,-0.098C-1.068,-1.901 -2.153,-3.631 -3.51,-5.176C-3.643,-5.327 -3.878,-5.388 -4.066,-5.491M12.719,0.744C11.149,1.494 9.597,2.283 8.007,2.987C4.067,4.731 0.272,4.009 -3.423,2.196C-5.062,1.392 -6.155,0.03 -7.025,-1.541C-7.888,-3.097 -8.292,-4.813 -8.816,-6.488C-8.979,-7.005 -9.213,-7.602 -8.749,-8.034C-8.173,-8.571 -7.404,-8.764 -6.628,-8.68C-6.203,-8.634 -5.791,-8.418 -5.388,-8.245C-3.618,-7.487 -1.78,-7.298 0.101,-7.639C1.937,-7.972 3.779,-8.298 5.586,-8.756C6.881,-9.084 7.96,-8.607 9.058,-8.13C9.322,-8.015 9.579,-7.679 9.665,-7.392C10.363,-5.065 11.324,-2.86 12.569,-0.774C12.874,-0.265 12.684,0.295 12.63,0.835L12.719,0.744Z" style="fill:rgb(179,221,235);fill-rule:nonzero;"/>
                    </g>
                    <g transform="matrix(1,0,0,1,315.006,85.805)">
                        <path d="M0,12.342C-0.269,12.342 -0.601,12.365 -0.927,12.332C-1.084,12.317 -1.231,12.196 -1.383,12.122C-1.302,12.053 -1.232,11.948 -1.14,11.921C1.07,11.261 3.28,10.601 5.496,9.96C8.979,8.951 12.46,7.94 15.951,6.962C18.277,6.309 20.62,5.717 22.953,5.09C27.197,3.949 31.447,2.828 35.679,1.643C36.943,1.288 38.146,0.717 39.396,0.3C39.904,0.131 40.459,0.09 40.996,0.019C41.317,-0.023 41.67,0.336 41.637,0.617C41.491,1.828 41.142,2.974 40.575,4.053C40.208,4.753 39.661,5.277 39.006,5.71C36.509,7.365 33.853,8.586 30.875,9.166C25.791,10.156 20.664,10.776 15.503,11.031C10.887,11.259 6.299,11.75 1.702,12.167C1.155,12.216 0.608,12.279 0,12.342" style="fill:rgb(227,129,73);fill-rule:nonzero;"/>
                    </g>
                    <g transform="matrix(1,0,0,1,419.355,142.016)">
                        <path d="M0,10.996C-3.098,11.017 -5.854,10.35 -8.556,9.418C-10.818,8.638 -12.569,7.227 -13.672,5.065C-14.314,3.804 -15.066,2.586 -15.302,1.16C-15.325,1.018 -15.134,0.714 -15.014,0.698C-14.479,0.625 -13.934,0.628 -13.393,0.606C-12.629,0.575 -11.753,0.775 -11.127,0.467C-9.973,-0.102 -9.055,0.234 -8.048,0.702C-6.235,1.546 -4.323,1.977 -2.317,1.873C-0.986,1.804 0.282,1.953 1.527,2.477C2.225,2.771 2.992,2.949 3.746,3.049C4.771,3.186 5.26,3.781 5.528,4.703C5.803,5.647 6.106,6.585 6.442,7.509C6.96,8.933 6.621,9.29 5.513,9.853C3.709,10.768 1.791,11.098 0,10.996" style="fill:rgb(179,221,235);fill-rule:nonzero;"/>
                    </g>
                    <g transform="matrix(1,0,0,1,430.75,211.592)">
                        <path d="M0,-18.387C0.062,-17.57 0.595,-16.991 1.031,-16.368C2.163,-14.752 3.318,-13.153 4.447,-11.535C6.465,-8.645 8.015,-5.504 9.394,-2.272C9.74,-1.46 10.019,-0.639 9.97,0.267C9.939,0.815 9.391,1.33 8.895,1.241C7.241,0.946 5.746,0.254 4.428,-0.744C3.209,-1.667 2.027,-2.664 0.958,-3.755C-2.581,-7.366 -5.57,-11.43 -8.527,-15.516C-8.826,-15.93 -8.633,-16.362 -8.119,-16.468C-7.797,-16.534 -7.474,-16.59 -7.148,-16.637C-5.304,-16.899 -3.805,-17.647 -3.043,-19.485C-2.991,-19.61 -2.675,-19.717 -2.506,-19.688C-1.503,-19.519 -0.666,-19.013 0.061,-18.314L0,-18.387Z" style="fill:rgb(179,221,235);fill-rule:nonzero;"/>
                    </g>
                    <g transform="matrix(1,0,0,1,430.81,209.217)">
                        <path d="M0,-15.939C0.551,-16.399 1.215,-16.364 1.872,-16.374C2.863,-16.389 3.82,-16.52 4.737,-16.964C5.293,-17.233 5.788,-17.932 6.48,-17.574C6.937,-17.337 7.295,-16.86 7.626,-16.435C10.382,-12.892 13.003,-9.255 15.253,-5.361C15.97,-4.119 16.554,-2.829 16.87,-1.432C16.989,-0.903 17.029,-0.352 17.054,0.192C17.107,1.422 16.263,1.993 15.144,1.47C12.395,0.183 10.155,-1.675 8.81,-4.452C6.979,-8.23 4.505,-11.556 1.729,-14.671C1.233,-15.228 0.787,-15.902 -0.061,-16.012L0,-15.939Z" style="fill:rgb(179,221,235);fill-rule:nonzero;"/>
                    </g>
                    <g transform="matrix(1,0,0,1,419.355,106.902)">
                        <path d="M0,46.11C1.791,46.212 3.709,45.882 5.513,44.967C6.621,44.404 6.96,44.047 6.442,42.623C6.106,41.699 5.803,40.761 5.528,39.817C5.26,38.895 4.771,38.3 3.746,38.163C2.992,38.063 2.225,37.885 1.527,37.591C0.282,37.067 -0.986,36.918 -2.317,36.987C-4.323,37.091 -6.235,36.66 -8.048,35.816C-9.055,35.348 -9.973,35.012 -11.127,35.581C-11.753,35.889 -12.629,35.689 -13.393,35.72C-13.934,35.742 -14.479,35.739 -15.014,35.812C-15.134,35.828 -15.325,36.132 -15.302,36.274C-15.066,37.7 -14.314,38.918 -13.672,40.179C-12.569,42.341 -10.818,43.752 -8.556,44.532C-5.854,45.464 -3.098,46.131 0,46.11M-104.35,-8.755C-103.741,-8.818 -103.194,-8.881 -102.647,-8.93C-98.051,-9.347 -93.463,-9.838 -88.847,-10.066C-83.686,-10.321 -78.559,-10.941 -73.475,-11.931C-70.497,-12.511 -67.841,-13.731 -65.344,-15.387C-64.688,-15.82 -64.142,-16.344 -63.774,-17.043C-63.208,-18.122 -62.858,-19.269 -62.713,-20.479C-62.68,-20.761 -63.032,-21.119 -63.354,-21.078C-63.891,-21.007 -64.445,-20.966 -64.953,-20.797C-66.203,-20.379 -67.406,-19.808 -68.671,-19.454C-72.902,-18.268 -77.152,-17.148 -81.396,-16.007C-83.729,-15.38 -86.072,-14.787 -88.398,-14.135C-91.89,-13.157 -95.371,-12.145 -98.854,-11.137C-101.069,-10.495 -103.279,-9.835 -105.489,-9.176C-105.582,-9.148 -105.651,-9.043 -105.732,-8.974C-105.581,-8.901 -105.434,-8.78 -105.276,-8.765C-104.95,-8.732 -104.618,-8.755 -104.35,-8.755M-57.943,34.327C-58.313,34.278 -58.965,34.175 -59.621,34.113C-59.932,34.084 -60.367,34.011 -60.541,34.176C-60.929,34.543 -60.573,34.974 -60.386,35.331C-59.874,36.303 -59.377,37.291 -58.778,38.209C-56.692,41.406 -54.032,44.03 -50.491,45.528C-45.224,47.758 -39.838,47.989 -34.424,45.961C-34.062,45.824 -33.885,45.225 -34.158,44.842C-35.785,42.557 -36.632,39.955 -37.286,37.271C-37.312,37.164 -37.33,37.055 -37.359,36.949C-37.663,35.862 -37.912,35.61 -38.888,35.594C-42.318,35.538 -45.686,35.172 -48.884,33.798C-49.257,33.638 -49.792,33.583 -50.16,33.723C-52.607,34.652 -55.127,34.52 -57.943,34.327M-71.507,26.251C-71.29,27.247 -71.104,28.331 -70.811,29.386C-70.547,30.335 -70.215,31.272 -69.824,32.176C-68.254,35.808 -66.484,39.346 -64.364,42.685C-60.873,48.184 -56.715,53.145 -51.769,57.397C-48.867,59.89 -46.176,62.675 -42.683,64.408C-40.447,66.376 -37.785,67.726 -35.379,69.447C-35.207,69.57 -34.995,69.647 -34.791,69.708C-34.714,69.731 -34.587,69.671 -34.515,69.61C-34.46,69.565 -34.409,69.419 -34.438,69.384C-34.993,68.708 -35.528,68.009 -36.131,67.376C-41.003,62.261 -45.239,56.683 -48.535,50.417C-48.74,50.028 -49.001,49.669 -49.185,49.271C-49.715,48.117 -50.604,47.429 -51.735,46.848C-55.968,44.673 -59.147,41.424 -61.191,37.104C-61.708,36.013 -62.191,34.907 -62.695,33.81C-63.021,33.101 -63.468,32.51 -64.128,32.05C-66.662,30.283 -68.963,28.26 -70.836,25.779C-70.94,25.641 -71.188,25.612 -71.37,25.532C-71.41,25.744 -71.45,25.956 -71.507,26.251M-2.798,86.922C-2.711,86.907 -2.501,86.872 -2.291,86.837C-2.361,86.686 -2.414,86.523 -2.506,86.388C-2.564,86.303 -2.678,86.253 -2.772,86.197C-9.073,82.497 -14.691,77.947 -19.683,72.617C-20.96,71.253 -22.274,69.922 -23.507,68.518C-27.422,64.058 -31.473,59.713 -34.996,54.92C-36.233,53.237 -37.563,51.623 -38.828,49.962C-39.328,49.305 -39.913,48.959 -40.776,48.979C-42.756,49.024 -44.731,48.948 -46.678,48.496C-46.939,48.436 -47.274,48.586 -47.538,48.714C-47.592,48.74 -47.535,49.138 -47.437,49.313C-45.982,51.9 -44.474,54.451 -42.75,56.875C-40.96,59.393 -38.903,61.677 -36.857,63.977C-33.346,67.927 -29.605,71.638 -25.524,75.007C-23.99,76.273 -22.393,77.418 -20.651,78.372C-16.604,80.589 -12.56,82.814 -8.513,85.033C-8.224,85.192 -7.94,85.38 -7.63,85.475C-6.06,85.961 -4.481,86.421 -2.798,86.922M-24.722,49.08C-25.16,49.052 -25.599,49.015 -26.037,49.002C-26.137,48.999 -26.32,49.073 -26.325,49.126C-26.346,49.318 -26.377,49.569 -26.276,49.702C-25.815,50.314 -25.354,50.936 -24.816,51.477C-22.104,54.203 -19.367,56.905 -16.638,59.615C-15.779,60.466 -14.914,61.31 -14.06,62.165C-12.43,63.798 -10.817,65.449 -9.175,67.07C-7.22,69.001 -5.229,70.895 -3.274,72.826C-0.529,75.538 2.423,77.987 5.666,80.089C6.771,80.804 7.911,81.507 8.87,82.395C10.087,83.521 11.521,83.889 13.066,84.073C13.852,84.166 14.594,83.965 15.312,83.668C15.848,83.445 16.176,83.014 16.429,82.511C16.7,81.973 16.522,81.341 15.982,81.163C12.331,79.957 9.448,77.606 6.75,74.985C5.805,74.066 4.904,73.1 4.009,72.132C0.197,68.009 -3.244,63.591 -6.512,59.029C-9.135,55.367 -11.828,51.755 -14.496,48.125C-14.755,47.773 -15.011,47.395 -15.35,47.134C-15.574,46.961 -15.977,46.858 -16.24,46.933C-16.76,47.081 -17.258,47.341 -17.73,47.615C-19.902,48.876 -22.267,49.195 -24.722,49.08M-109.778,-9.959C-109.776,-9.951 -109.774,-9.943 -109.772,-9.934C-108.489,-10.233 -107.191,-10.477 -105.927,-10.84C-100.123,-12.503 -94.33,-14.202 -88.532,-15.882C-86.951,-16.34 -85.379,-16.844 -83.776,-17.214C-77.249,-18.72 -70.792,-20.47 -64.468,-22.691C-64.181,-22.792 -64.064,-23.269 -64.304,-23.465C-65.662,-24.573 -67.035,-25.662 -68.391,-26.774C-70.009,-28.101 -71.714,-29.296 -73.571,-30.268C-74.058,-30.522 -74.574,-30.751 -74.989,-31.097C-75.967,-31.911 -77.104,-32.182 -78.326,-32.346C-79.375,-32.486 -80.21,-32.253 -81.072,-31.612C-84.684,-28.923 -88.327,-26.276 -91.995,-23.667C-94.859,-21.63 -97.801,-19.702 -100.666,-17.667C-103.804,-15.439 -107.033,-13.362 -110.354,-11.42C-111.109,-10.978 -111.84,-10.491 -112.562,-9.994C-112.658,-9.928 -112.648,-9.68 -112.646,-9.517C-112.645,-9.483 -112.445,-9.409 -112.352,-9.427C-111.492,-9.595 -110.636,-9.78 -109.778,-9.959M3.443,86.422C3.77,86.386 4.333,86.394 4.853,86.246C5.255,86.131 5.659,85.879 5.951,85.579C6.138,85.387 6.214,84.983 6.17,84.7C6.123,84.397 5.912,84.098 5.712,83.844C4.754,82.627 3.599,81.612 2.371,80.673C-0.777,78.266 -3.746,75.646 -6.655,72.961C-7.615,72.075 -8.652,71.232 -9.097,69.902C-9.228,69.507 -9.552,69.155 -9.851,68.844C-12.439,66.147 -14.99,63.409 -17.656,60.789C-21.424,57.084 -25.061,53.268 -28.323,49.105C-28.654,48.683 -29.069,48.285 -29.527,48.014C-30.376,47.512 -31.279,47.099 -32.175,46.68C-32.348,46.599 -32.66,46.571 -32.787,46.672C-34.027,47.662 -35.507,48.062 -36.993,48.467C-37.554,48.62 -37.672,49.247 -37.245,49.762C-33.88,53.826 -30.797,58.124 -27.124,61.933C-26.59,62.487 -26.12,63.102 -25.594,63.663C-22.809,66.629 -20.02,69.59 -17.221,72.542C-16.769,73.02 -16.309,73.515 -15.771,73.883C-13.941,75.137 -12.438,76.744 -10.843,78.257C-7.953,80.997 -4.743,83.297 -1.164,85.057C0.222,85.739 1.652,86.304 3.443,86.422M-67.994,-30.725C-68.445,-30.796 -69.094,-30.917 -69.747,-30.991C-69.948,-31.014 -70.164,-30.906 -70.373,-30.858C-70.292,-30.672 -70.261,-30.421 -70.12,-30.308C-68.151,-28.725 -66.155,-27.177 -64.192,-25.586C-63.342,-24.897 -62.507,-24.175 -61.757,-23.38C-61.403,-23.006 -61.078,-22.432 -61.064,-21.939C-60.976,-18.592 -61.797,-15.615 -64.834,-13.684C-66.692,-12.502 -68.637,-11.495 -70.741,-10.807C-71.704,-10.492 -71.806,-10.158 -71.376,-9.378C-70.527,-7.841 -69.706,-6.289 -68.847,-4.759C-68.258,-3.71 -67.625,-2.686 -67.005,-1.655C-66.859,-1.412 -66.649,-1.383 -66.437,-1.564C-65.938,-1.99 -65.45,-2.426 -64.953,-2.852C-61.605,-5.724 -58.136,-8.402 -53.929,-9.942C-53.424,-10.127 -52.946,-10.417 -52.499,-10.721C-51.592,-11.337 -50.725,-12.012 -49.821,-12.634C-48.187,-13.759 -46.642,-14.991 -45.282,-16.438C-44.155,-17.639 -43.048,-18.86 -41.971,-20.107C-40.53,-21.776 -38.966,-23.307 -37.251,-24.694C-34.683,-26.774 -32.041,-28.728 -28.938,-29.964C-28.854,-29.997 -28.732,-30.149 -28.751,-30.191C-28.836,-30.384 -28.925,-30.656 -29.085,-30.722C-30.3,-31.222 -31.544,-31.654 -32.758,-32.157C-36.016,-33.506 -39.378,-34.509 -42.828,-35.217C-47.943,-36.266 -52.865,-35.916 -57.497,-33.239C-58.822,-32.473 -60.237,-31.841 -61.659,-31.265C-63.631,-30.465 -65.688,-30.199 -67.994,-30.725M-53.723,-59.392C-57.252,-59.686 -60.727,-58.755 -64.079,-57.242C-64.881,-56.88 -65.674,-56.498 -66.482,-56.155C-69.664,-54.803 -72.395,-52.783 -74.897,-50.441C-75.614,-49.77 -76.307,-49.035 -76.85,-48.221C-78.25,-46.119 -79.588,-43.974 -80.896,-41.813C-81.702,-40.483 -82.187,-39.023 -82.286,-37.453C-82.347,-36.503 -82.077,-35.756 -81.198,-35.233C-79.75,-34.371 -78.209,-33.904 -76.531,-33.753C-74.783,-33.595 -73.042,-33.344 -71.305,-33.082C-69.895,-32.869 -68.499,-32.554 -67.09,-32.332C-65.307,-32.051 -63.574,-32.292 -61.936,-33.042C-60.538,-33.682 -59.161,-34.368 -57.789,-35.059C-56.017,-35.953 -54.211,-36.736 -52.237,-37.085C-49.159,-37.628 -46.091,-37.526 -43.064,-36.828C-39.105,-35.914 -35.152,-34.972 -31.377,-33.396C-29.249,-32.508 -27.037,-31.832 -24.759,-31.399C-22.865,-31.039 -21.04,-31.247 -19.253,-31.93C-18.855,-32.082 -18.574,-32.606 -18.697,-32.984C-18.731,-33.089 -18.744,-33.202 -18.791,-33.3C-20.703,-37.378 -22.476,-41.531 -24.574,-45.511C-26.557,-49.27 -29.49,-52.238 -33.285,-54.281C-35.81,-55.64 -38.407,-56.816 -41.206,-57.494C-43.021,-57.933 -44.849,-58.322 -46.661,-58.768C-48.922,-59.324 -51.209,-59.549 -53.723,-59.392M-12.652,-16.39C-13.549,-16.32 -14.534,-16.252 -15.519,-16.164C-19.397,-15.818 -22.977,-14.395 -26.586,-13.081C-26.676,-13.048 -26.818,-12.915 -26.805,-12.881C-26.729,-12.685 -26.657,-12.408 -26.502,-12.336C-24.69,-11.495 -23.04,-10.437 -21.751,-8.887C-21.646,-8.76 -21.621,-8.438 -21.709,-8.312C-21.802,-8.181 -22.102,-8.087 -22.267,-8.133C-23.237,-8.404 -24.061,-8.967 -24.794,-9.63C-25.968,-10.691 -27.422,-11.205 -28.833,-11.807C-29.397,-12.047 -29.91,-11.833 -30.357,-11.482C-30.521,-11.352 -30.628,-11.146 -30.742,-10.964C-30.748,-10.955 -30.594,-10.812 -30.497,-10.776C-29.676,-10.465 -28.843,-10.183 -28.027,-9.856C-25.266,-8.747 -22.635,-7.429 -20.236,-5.615C-15.708,-2.192 -11.936,1.929 -8.769,6.595C-5.929,10.778 -3.227,15.058 -0.764,19.479C0.145,21.108 0.997,22.777 1.754,24.482C4.972,31.73 7.418,39.256 9.62,46.86C11.424,53.087 13.124,59.344 14.851,65.594C16.021,69.831 17.147,74.08 18.321,78.316C18.682,79.616 18.866,80.924 18.467,82.216C18.145,83.256 18.601,83.853 19.299,84.501C20.019,85.169 20.667,85.928 21.27,86.708C23.558,89.668 25.677,92.742 27.479,96.031C28.759,98.364 30.463,100.375 32.514,102.074C32.929,102.418 33.436,102.655 33.911,102.923C34.246,103.111 34.896,102.778 34.954,102.401C35.004,102.078 35.08,101.752 35.073,101.429C35.045,100.089 34.705,98.818 34.109,97.624C32.881,95.163 31.582,92.745 29.921,90.535C28.138,88.162 26.381,85.768 24.655,83.352C24.021,82.464 23.508,81.491 22.951,80.55C22.912,80.483 22.955,80.346 22.994,80.256C23.097,80.019 23.298,79.985 23.501,80.208C25.199,82.077 26.99,83.872 28.56,85.844C31.505,89.546 34.285,93.376 36.248,97.72C36.743,98.816 37.614,99.048 38.678,98.974C39.222,98.936 39.735,98.466 39.814,97.958C39.954,97.059 39.813,96.233 39.375,95.417C37.861,92.6 36.096,89.944 34.194,87.384C31.879,84.266 30.1,80.864 28.743,77.25C26.15,70.347 24.135,63.263 22.678,56.042C21.634,50.866 20.427,45.739 19.012,40.659C16.621,32.075 13.619,23.694 10.585,15.325C9.349,11.915 8.121,8.502 6.84,5.11C5.202,0.775 3.074,-3.318 0.559,-7.208C-1.116,-9.799 -3.012,-12.222 -5.089,-14.504C-5.861,-15.353 -6.796,-15.847 -7.96,-15.937C-9.494,-16.057 -11.023,-16.23 -12.652,-16.39M-26.238,33.685C-25.603,33.649 -25.053,33.62 -24.504,33.587C-24.175,33.567 -23.846,33.543 -23.518,33.515C-23.018,33.472 -22.718,33.259 -22.809,33.018C-22.883,32.821 -22.907,32.57 -23.046,32.44C-24.921,30.67 -26.277,28.558 -27.182,26.157C-27.329,25.768 -27.338,25.312 -27.336,24.887C-27.335,24.612 -27.099,24.483 -26.879,24.603C-26.602,24.753 -26.283,24.91 -26.11,25.154C-25.287,26.321 -24.533,27.537 -23.706,28.701C-21.136,32.318 -17.347,33.567 -13.18,34.032C-12.902,34.063 -12.541,33.854 -12.309,33.652C-12.003,33.388 -12.183,33.04 -12.396,32.796C-14.148,30.782 -15.291,28.395 -16.535,26.07C-16.686,25.789 -16.778,25.458 -16.815,25.14C-16.837,24.95 -16.753,24.671 -16.614,24.565C-16.496,24.474 -16.148,24.493 -16.047,24.601C-15.599,25.077 -15.161,25.574 -14.796,26.116C-13.936,27.392 -13.143,28.714 -12.278,29.987C-11.148,31.652 -9.725,33.008 -7.884,33.876C-6.387,34.581 -4.823,35.089 -3.191,35.373C-3.098,35.389 -2.912,35.336 -2.899,35.283C-2.858,35.116 -2.805,34.882 -2.887,34.766C-3.898,33.331 -5.146,32.059 -5.886,30.439C-6.063,30.05 -6.158,29.621 -6.267,29.205C-6.289,29.119 -6.213,29.004 -6.17,28.907C-6.066,28.676 -5.855,28.615 -5.652,28.822C-5.192,29.288 -4.768,29.787 -4.33,30.275C-3.156,31.583 -2.02,32.928 -0.799,34.191C0.303,35.33 1.702,35.95 3.275,36.172C3.729,36.235 4.16,35.797 4.016,35.373C2.064,29.643 -0.006,23.958 -3.192,18.772C-5.608,14.837 -8.031,10.9 -10.635,7.089C-13.625,2.71 -17.184,-1.182 -21.431,-4.411C-23.191,-5.749 -25.059,-6.888 -27.073,-7.796C-30.909,-9.526 -34.888,-10.73 -39.092,-11.129C-39.417,-11.16 -39.751,-11.234 -39.873,-11.594C-39.881,-11.616 -39.53,-11.814 -39.333,-11.844C-38.018,-12.043 -36.701,-12.015 -35.392,-11.785C-34.743,-11.67 -34.101,-11.516 -33.45,-11.403C-32.783,-11.287 -32.201,-11.371 -31.606,-11.822C-30.737,-12.48 -29.809,-13.115 -28.812,-13.54C-26.388,-14.574 -23.944,-15.585 -21.444,-16.414C-18.194,-17.492 -14.842,-18.103 -11.386,-17.904C-11.057,-17.885 -10.727,-17.87 -10.396,-17.871C-10.179,-17.872 -9.961,-17.916 -9.743,-17.92C-9.446,-17.925 -9.322,-18.056 -9.374,-18.339C-9.393,-18.44 -9.386,-18.574 -9.447,-18.636C-11.073,-20.274 -12.696,-21.914 -13.89,-23.915C-15.527,-24.905 -16.021,-26.639 -16.709,-28.247C-16.925,-28.752 -17.125,-29.264 -17.356,-29.761C-17.621,-30.329 -18.115,-30.592 -18.688,-30.396C-20.161,-29.893 -21.674,-29.519 -23.219,-29.698C-25.175,-29.923 -26.889,-29.321 -28.619,-28.557C-30.443,-27.751 -32.146,-26.766 -33.714,-25.541C-36.49,-23.37 -39.161,-21.101 -41.37,-18.311C-42.525,-16.851 -43.898,-15.562 -45.195,-14.216C-45.728,-13.663 -46.32,-13.168 -46.874,-12.635C-46.942,-12.569 -47.001,-12.381 -46.962,-12.333C-46.848,-12.193 -46.696,-12.028 -46.532,-11.992C-46.108,-11.896 -45.669,-11.874 -45.239,-11.801C-45.141,-11.785 -45.058,-11.682 -44.967,-11.619C-45.039,-11.542 -45.097,-11.424 -45.185,-11.394C-46.116,-11.08 -47.046,-10.757 -47.989,-10.479C-53.003,-9.003 -57.566,-6.765 -61.601,-3.334C-66.414,0.759 -69.397,5.868 -70.759,11.93C-71.31,14.381 -71.33,16.948 -71.654,19.455C-71.896,21.32 -71.26,22.911 -70.319,24.441C-69.62,25.579 -68.721,26.55 -67.69,27.379C-66.406,28.412 -65.077,29.391 -63.74,30.356C-60.517,32.68 -56.852,33.141 -53.047,32.661C-51.358,32.448 -51.046,32.102 -52,30.599C-52.647,29.58 -53.231,28.518 -53.785,27.444C-53.979,27.068 -54.011,26.604 -54.089,26.175C-54.103,26.098 -53.997,25.944 -53.918,25.919C-53.731,25.86 -53.433,25.762 -53.346,25.848C-52.96,26.232 -52.612,26.659 -52.289,27.099C-51.572,28.073 -50.903,29.083 -50.17,30.044C-49.21,31.303 -47.957,32.232 -46.443,32.65C-43.239,33.533 -39.978,33.933 -36.655,33.413C-36.365,33.367 -36.181,32.9 -36.362,32.64C-36.676,32.191 -37.015,31.759 -37.32,31.305C-38.367,29.749 -39.26,28.115 -39.747,26.288C-39.768,26.211 -39.694,26.042 -39.628,26.019C-39.446,25.955 -39.15,25.85 -39.067,25.932C-38.68,26.313 -38.32,26.732 -38.004,27.175C-37.428,27.98 -36.946,28.858 -36.326,29.624C-33.966,32.537 -31.007,34.172 -27.138,33.76C-26.81,33.725 -26.48,33.705 -26.238,33.685M-14.287,44.221C-14.233,43.681 -14.043,43.121 -14.348,42.611C-15.593,40.526 -16.554,38.32 -17.252,35.994C-17.338,35.707 -17.595,35.371 -17.859,35.256C-18.957,34.779 -20.036,34.301 -21.331,34.63C-23.138,35.088 -24.98,35.414 -26.816,35.747C-28.697,36.088 -30.535,35.899 -32.305,35.141C-32.708,34.968 -33.12,34.752 -33.545,34.706C-34.321,34.622 -35.09,34.815 -35.666,35.352C-36.13,35.784 -35.896,36.381 -35.733,36.898C-35.209,38.572 -34.805,40.289 -33.942,41.845C-33.072,43.416 -31.979,44.777 -30.34,45.582C-26.645,47.395 -22.85,48.117 -18.91,46.373C-17.32,45.669 -15.768,44.88 -14.198,44.13C-14.302,46.489 -14.448,45.865 -13.19,47.407C-10.485,50.726 -7.984,54.192 -5.453,57.64C-3.248,60.644 -0.975,63.608 1.424,66.459C3.54,68.972 5.833,71.342 8.118,73.706C9.877,75.525 11.894,77.05 14.043,78.389C14.415,78.62 14.792,78.87 15.202,79.003C15.476,79.091 15.831,79.04 16.11,78.942C16.221,78.902 16.309,78.546 16.267,78.367C15.89,76.768 15.515,75.168 15.077,73.584C12.86,65.555 10.624,57.531 8.398,49.504C8.223,48.87 8.091,48.224 7.909,47.592C7.818,47.278 7.661,46.984 7.531,46.682C7.421,46.426 6.967,46.225 6.707,46.351C4.502,47.422 2.158,48.101 -0.272,47.969C-4.681,47.73 -9.01,47.037 -12.724,44.346C-13.242,43.97 -13.756,44.128 -14.287,44.221M11.455,86.376C10.729,85.677 9.892,85.171 8.889,85.002C8.72,84.973 8.403,85.08 8.352,85.205C7.59,87.043 6.091,87.791 4.246,88.053C3.921,88.1 3.598,88.155 3.275,88.222C2.762,88.328 2.568,88.76 2.867,89.173C5.824,93.259 8.813,97.324 12.353,100.935C13.422,102.026 14.604,103.023 15.822,103.945C17.141,104.944 18.636,105.636 20.289,105.931C20.785,106.02 21.334,105.505 21.364,104.957C21.413,104.051 21.135,103.23 20.788,102.418C19.409,99.186 17.859,96.045 15.842,93.155C14.713,91.537 13.558,89.938 12.426,88.322C11.989,87.699 11.456,87.12 11.395,86.303C12.242,86.413 12.688,87.087 13.185,87.644C15.96,90.759 18.435,94.085 20.265,97.863C21.61,100.64 23.85,102.498 26.599,103.785C27.718,104.308 28.562,103.737 28.509,102.507C28.484,101.964 28.444,101.412 28.325,100.883C28.009,99.486 27.425,98.196 26.708,96.954C24.458,93.06 21.837,89.423 19.081,85.88C18.75,85.455 18.393,84.978 17.936,84.741C17.243,84.383 16.748,85.082 16.192,85.351C15.275,85.795 14.318,85.926 13.327,85.941C12.67,85.951 12.006,85.916 11.455,86.376M-54.735,78.533C-54.955,78.533 -55.178,78.555 -55.395,78.529C-56.834,78.361 -57.992,78.688 -58.578,80.189C-58.735,80.59 -59.038,80.936 -59.288,81.298C-59.595,81.741 -60.036,81.937 -60.38,81.801C-60.764,81.649 -60.967,81.179 -60.788,80.709C-60.477,79.891 -60.174,79.063 -59.78,78.283C-59.129,76.991 -58.095,76.333 -56.583,76.421C-55.381,76.492 -54.171,76.434 -52.964,76.422C-52.885,76.421 -52.761,76.338 -52.738,76.267C-52.709,76.174 -52.722,76 -52.783,75.958C-53.323,75.583 -53.905,75.262 -54.419,74.855C-54.658,74.665 -54.893,74.33 -54.915,74.044C-54.935,73.786 -54.719,73.344 -54.507,73.271C-54.12,73.137 -53.623,73.101 -53.236,73.225C-51.459,73.796 -49.705,74.437 -47.942,75.051C-47.536,75.193 -47.002,74.916 -46.92,74.498C-46.394,71.802 -45.869,69.107 -45.357,66.409C-45.175,65.445 -45.562,64.772 -46.339,64.148C-48.74,62.222 -51.129,60.275 -53.427,58.228C-58.047,54.113 -62.112,49.499 -65.479,44.297C-67.996,40.409 -70.045,36.27 -71.771,31.981C-73.013,28.894 -73.544,25.651 -73.62,22.317C-73.697,19.002 -73.321,15.723 -72.874,12.459C-72.47,9.503 -71.478,6.696 -69.99,4.088C-69.392,3.037 -68.768,2.001 -68.171,0.949C-68.014,0.671 -67.865,0.376 -68.056,0.029C-69.325,-2.281 -70.582,-4.598 -71.857,-6.905C-72.122,-7.385 -72.472,-7.818 -72.744,-8.295C-73.48,-9.582 -74.474,-10.089 -76.016,-9.799C-80.125,-9.025 -84.286,-8.674 -88.464,-8.45C-92.306,-8.243 -96.14,-7.877 -99.978,-7.595C-103.487,-7.336 -106.998,-7.096 -110.508,-6.846C-112.489,-6.705 -114.437,-7.092 -116.398,-7.243C-116.695,-7.266 -117.047,-7.495 -117.041,-7.884C-117.037,-8.19 -116.998,-8.554 -116.829,-8.786C-116.577,-9.131 -116.228,-9.431 -115.865,-9.666C-114.206,-10.743 -112.561,-11.846 -110.851,-12.836C-107.613,-14.711 -104.453,-16.701 -101.382,-18.838C-96.417,-22.291 -91.419,-25.697 -86.453,-29.149C-84.92,-30.215 -83.44,-31.361 -81.945,-32.482C-81.573,-32.762 -81.548,-33.34 -81.872,-33.615C-82.123,-33.828 -82.379,-34.037 -82.648,-34.225C-83.988,-35.162 -84.316,-36.494 -84.073,-38.006C-83.793,-39.754 -83.295,-41.436 -82.293,-42.93C-81.252,-44.481 -80.287,-46.09 -79.163,-47.578C-76.346,-51.308 -72.884,-54.331 -68.809,-56.632C-67.948,-57.118 -67.024,-57.491 -66.16,-57.971C-61.062,-60.809 -55.522,-61.486 -49.858,-60.94C-44.034,-60.38 -38.403,-58.939 -33.119,-56.282C-28.109,-53.764 -24.444,-49.949 -21.987,-44.973C-19.311,-39.553 -16.75,-34.074 -14.639,-28.4C-13.582,-25.563 -11.891,-23.144 -9.724,-21.077C-7.896,-19.334 -5.959,-17.704 -4.053,-16.045C-3.052,-15.174 -2.117,-14.282 -1.566,-13.021C-1.265,-12.328 -0.763,-11.714 -0.301,-11.102C3.297,-6.331 6.187,-1.161 8.345,4.404C9.974,8.605 11.495,12.847 13.066,17.07C16.595,26.552 19.732,36.162 22.269,45.957C23.397,50.318 24.373,54.718 25.345,59.117C26.629,64.924 28.37,70.592 30.426,76.164C31.686,79.58 33.353,82.795 35.483,85.765C37.278,88.267 39.016,90.813 40.462,93.537C40.975,94.502 41.425,95.518 41.754,96.559C42.148,97.804 41.792,98.946 40.897,99.905C40.434,100.402 39.878,100.748 39.195,100.827C38.76,100.877 38.316,100.849 37.879,100.887C37.367,100.931 37.053,101.196 36.958,101.664C36.849,102.202 36.808,102.756 36.669,103.286C36.303,104.691 34.814,105.373 33.559,104.722C33.17,104.521 32.779,104.302 32.445,104.024C31.854,103.533 31.309,102.988 30.741,102.47C30.448,102.203 30.131,102.281 30.024,102.649C29.872,103.173 29.79,103.728 29.572,104.222C29.079,105.339 28.046,105.782 26.847,105.503C25.643,105.223 24.638,104.544 23.591,103.945C23.305,103.782 22.931,103.971 22.897,104.291C22.841,104.836 22.837,105.39 22.737,105.927C22.572,106.807 21.764,107.475 20.881,107.536C19.992,107.596 19.136,107.471 18.281,107.21C16.678,106.72 15.217,105.944 13.951,104.879C12.609,103.75 11.315,102.544 10.131,101.252C7.977,98.901 5.964,96.424 4.141,93.8C3.324,92.627 2.481,91.471 1.679,90.289C0.845,89.062 0.392,88.415 -1.634,89.333C-2.663,89.799 -3.523,89.818 -4.431,89.285C-6.238,88.223 -8.233,87.561 -10.092,86.621C-12.737,85.282 -15.398,83.934 -17.889,82.335C-25.013,77.763 -32.444,73.681 -39.386,68.82C-40.011,68.382 -40.709,68.047 -41.375,67.668C-41.599,67.54 -41.782,67.608 -41.924,67.847C-42.035,68.035 -42.195,68.205 -42.263,68.407C-42.993,70.596 -43.716,72.787 -44.424,74.982C-44.593,75.508 -44.194,76.155 -43.658,76.236C-43.118,76.319 -42.57,76.367 -42.024,76.398C-40.891,76.463 -40.221,77.132 -39.82,78.109C-39.438,79.04 -39.344,80.021 -39.461,81.025C-39.521,81.536 -40.036,82.363 -40.313,82.309C-40.778,82.218 -41.076,81.89 -41.262,81.478C-41.576,80.781 -41.87,80.075 -42.159,79.368C-42.461,78.631 -42.849,78.391 -43.684,78.446C-44.456,78.497 -45.199,78.597 -45.885,79.029C-47.743,80.201 -49.627,81.333 -51.497,82.487C-51.965,82.776 -52.418,83.087 -52.882,83.383C-54.293,84.286 -55.49,85.384 -56.229,86.929C-56.364,87.212 -56.635,87.431 -56.849,87.674C-56.995,87.841 -57.584,87.754 -57.737,87.582C-58.271,86.983 -58.512,86.255 -58.642,85.493C-58.803,84.551 -58.548,83.732 -57.704,83.206C-55.933,82.101 -54.138,81.033 -52.371,79.921C-52.116,79.761 -51.949,79.451 -51.771,79.191C-51.731,79.131 -51.784,78.93 -51.852,78.889C-52.026,78.782 -52.232,78.67 -52.429,78.663C-53.197,78.638 -53.967,78.653 -54.735,78.653L-54.735,78.533Z" style="fill-rule:nonzero;"/>
                    </g>
                    <g transform="matrix(1,0,0,1,390.769,112.327)">
                        <path d="M0,4.967C-0.086,5.26 -0.148,5.585 -0.273,5.884C-0.606,6.679 -1.689,7.192 -2.463,6.893C-3.073,6.658 -3.673,6.379 -4.246,6.064C-5.11,5.589 -5.942,5.057 -6.8,4.568C-7.214,4.332 -7.653,4.395 -8.05,4.62C-8.334,4.781 -8.577,5.013 -8.848,5.198C-9.489,5.637 -10.11,5.487 -10.658,5.047C-11.17,4.637 -11.643,4.175 -12.101,3.706C-12.636,3.156 -13.121,2.558 -13.658,2.01C-14.819,0.826 -15.204,1.148 -15.849,2.331C-16.109,2.81 -16.337,3.31 -16.623,3.773C-17.026,4.427 -17.961,4.633 -18.666,4.247C-18.954,4.09 -19.261,3.945 -19.504,3.73C-21.248,2.19 -22.683,0.41 -23.585,-1.755C-23.622,-1.845 -23.414,-2.064 -23.284,-2.185C-23.241,-2.225 -23.041,-2.178 -22.988,-2.112C-22.587,-1.596 -22.227,-1.048 -21.812,-0.545C-20.906,0.553 -20.013,1.667 -19.042,2.706C-18.247,3.557 -17.449,3.408 -16.948,2.419C-16.604,1.739 -16.292,1.039 -15.908,0.382C-15.595,-0.155 -14.681,-0.344 -14.145,-0.012C-13.682,0.274 -13.21,0.567 -12.811,0.933C-12.165,1.525 -11.582,2.184 -10.962,2.804C-10.58,3.186 -10.209,3.705 -9.628,3.633C-9.231,3.584 -8.859,3.251 -8.498,3.013C-7.781,2.542 -7.057,2.558 -6.323,2.94C-5.254,3.497 -4.191,4.066 -3.128,4.634C-2.736,4.843 -2.313,5.042 -1.935,4.701C-1.559,4.362 -1.715,3.884 -1.801,3.461C-1.888,3.032 -2.029,2.614 -2.125,2.187C-2.341,1.227 -2.547,0.266 -2.741,-0.698C-2.758,-0.783 -2.654,-0.975 -2.613,-0.973C-2.449,-0.965 -2.214,-0.954 -2.137,-0.848C-1.085,0.594 -0.535,2.257 -0.097,3.961C-0.016,4.274 -0.031,4.611 0,4.967" style="fill-rule:nonzero;"/>
                    </g>
                    <g transform="matrix(1,0,0,1,356.697,118.168)">
                        <path d="M0,0.134C0.167,1.8 0.311,3.203 0.439,4.608C0.446,4.677 0.336,4.799 0.258,4.823C0.163,4.854 -0.023,4.844 -0.054,4.788C-1.69,1.791 -2.23,-1.307 -0.87,-4.564C-0.838,-4.641 -0.674,-4.72 -0.59,-4.703C-0.506,-4.687 -0.393,-4.558 -0.382,-4.468C-0.29,-3.72 -0.204,-2.97 -0.146,-2.218C-0.076,-1.347 -0.036,-0.475 0,0.134" style="fill-rule:nonzero;"/>
                    </g>
                    <g transform="matrix(1,0,0,1,362.385,116.984)">
                        <path d="M0,7.681C-0.041,7.777 -0.073,7.949 -0.126,7.955C-0.306,7.979 -0.604,8.013 -0.66,7.921C-1.937,5.85 -2.891,3.642 -3.36,1.247C-3.442,0.828 -3.384,0.38 -3.368,-0.053C-3.364,-0.15 -3.235,-0.332 -3.214,-0.324C-3.024,-0.26 -2.837,-0.177 -2.668,-0.069C-2.583,-0.014 -2.514,0.096 -2.479,0.195C-1.687,2.473 -0.897,4.752 -0.116,7.035C-0.047,7.24 -0.037,7.465 0,7.681" style="fill-rule:nonzero;"/>
                    </g>
                    <g transform="matrix(1,0,0,1,363.696,126.631)">
                        <path d="M0,-7.064C0.164,-7.012 0.272,-6.991 0.368,-6.943C0.46,-6.897 0.574,-6.844 0.619,-6.761C1.757,-4.665 2.891,-2.566 4,-0.454C4.032,-0.393 3.8,-0.163 3.659,-0.052C3.592,0 3.441,-0.02 3.342,-0.052C3.244,-0.083 3.147,-0.155 3.077,-0.234C1.535,-1.96 0.422,-3.929 -0.201,-6.158C-0.274,-6.419 -0.074,-6.757 0,-7.064" style="fill-rule:nonzero;"/>
                    </g>
                    <g transform="matrix(1,0,0,1,371.87,121.966)">
                        <path d="M0,4.992C-0.083,4.987 -0.203,5.017 -0.246,4.972C-1.457,3.703 -2.472,2.305 -2.997,0.608C-3.046,0.449 -2.923,0.162 -2.785,0.046C-2.701,-0.025 -2.358,0.054 -2.267,0.171C-1.185,1.545 -0.279,3.02 0.18,4.728C0.198,4.795 0.063,4.903 0,4.992" style="fill-rule:nonzero;"/>
                    </g>
                    <g transform="matrix(1,0,0,1,376.857,123.54)">
                        <path d="M0,3.219C-0.056,3.307 -0.094,3.422 -0.173,3.476C-0.247,3.528 -0.395,3.564 -0.46,3.525C-1.779,2.725 -2.894,1.714 -3.591,0.314C-3.659,0.177 -3.564,-0.136 -3.438,-0.246C-3.324,-0.345 -3.063,-0.3 -2.871,-0.275C-2.779,-0.262 -2.689,-0.158 -2.618,-0.078C-1.822,0.818 -1.023,1.711 -0.246,2.622C-0.113,2.778 -0.079,3.018 0,3.219" style="fill-rule:nonzero;"/>
                    </g>
                    <g transform="matrix(1,0,0,1,379.779,125.19)">
                        <path d="M0,-2.236C0.966,-1.795 1.851,-1.228 2.521,-0.356C2.547,-0.322 2.494,-0.187 2.441,-0.142C2.365,-0.079 2.24,0 2.163,-0.022C1.216,-0.299 0.317,-0.662 -0.218,-1.57C-0.269,-1.656 -0.277,-1.792 -0.251,-1.89C-0.225,-1.988 -0.128,-2.067 0,-2.236" style="fill-rule:nonzero;"/>
                    </g>
                    <g transform="matrix(1,0,0,1,395.675,97.1599)">
                        <path d="M0,-3.531C0.211,-3.563 0.444,-3.67 0.629,-3.614C2.462,-3.055 4.021,-2.08 5.162,-0.508C5.219,-0.429 5.25,-0.242 5.203,-0.195C5.076,-0.065 4.853,0.139 4.752,0.1C2.908,-0.628 1.209,-1.594 -0.19,-3.027C-0.255,-3.092 -0.288,-3.25 -0.255,-3.333C-0.221,-3.419 -0.089,-3.466 0,-3.531" style="fill-rule:nonzero;"/>
                    </g>
                    <g transform="matrix(1,0,0,1,439.963,161.763)">
                        <path d="M0,4.506C-0.067,4.582 -0.126,4.71 -0.203,4.722C-0.296,4.738 -0.436,4.684 -0.503,4.611C-1.711,3.316 -2.622,1.854 -2.961,0.087C-2.974,0.019 -2.853,-0.102 -2.768,-0.154C-2.688,-0.203 -2.558,-0.232 -2.478,-0.201C-2.281,-0.123 -2.036,-0.053 -1.926,0.102C-1.032,1.355 -0.385,2.734 0.068,4.203C0.095,4.289 0.024,4.404 0,4.506" style="fill-rule:nonzero;"/>
                    </g>
                    <g transform="matrix(1,0,0,1,436.006,160.799)">
                        <path d="M0,5.666C-0.064,5.737 -0.123,5.859 -0.193,5.866C-0.287,5.875 -0.422,5.823 -0.485,5.75C-1.847,4.17 -2.577,2.283 -3.078,0.295C-3.111,0.163 -2.911,-0.04 -2.792,-0.188C-2.774,-0.209 -2.592,-0.128 -2.511,-0.063C-2.345,0.07 -2.159,0.2 -2.046,0.373C-1.098,1.824 -0.399,3.393 0.087,5.054C0.14,5.234 0.033,5.461 0,5.666" style="fill-rule:nonzero;"/>
                    </g>
                    <g transform="matrix(1,0,0,1,404.368,94.1491)">
                        <path d="M0,2.262C-0.024,2.351 -0.026,2.457 -0.078,2.524C-0.14,2.604 -0.237,2.682 -0.332,2.705C-0.431,2.728 -0.555,2.707 -0.651,2.666C-1.96,2.111 -3.144,1.371 -4.05,0.256C-4.143,0.142 -4.149,-0.181 -4.061,-0.268C-3.93,-0.397 -3.679,-0.418 -3.474,-0.45C-3.378,-0.466 -3.262,-0.416 -3.167,-0.37C-2.085,0.15 -1.09,0.797 -0.279,1.693C-0.143,1.843 -0.091,2.071 0,2.262" style="fill-rule:nonzero;"/>
                    </g>
                    <g transform="matrix(1,0,0,1,407.149,93.9823)">
                        <path d="M0,1.13C-0.07,1.21 -0.141,1.359 -0.211,1.359C-1.096,1.364 -1.857,1.026 -2.502,0.442C-2.609,0.344 -2.599,0.096 -2.6,-0.083C-2.6,-0.131 -2.427,-0.234 -2.353,-0.219C-1.515,-0.048 -0.748,0.294 -0.073,0.823C-0.009,0.875 -0.022,1.026 0,1.13" style="fill-rule:nonzero;"/>
                    </g>
                    <g transform="matrix(-0.961035,0.276427,0.276427,0.961035,441.421,163.009)">
                        <path d="M0.351,-2.282C0.074,-1.577 -0.333,-0.899 0.078,-0.127C0.121,-0.046 0.258,-0.013 0.351,0.041C0.646,-0.652 1.004,-1.339 0.624,-2.112C0.584,-2.192 0.447,-2.225 0.351,-2.282" style="fill-rule:nonzero;"/>
                    </g>
                    <g transform="matrix(1,0,0,1,379.123,69.1768)">
                        <path d="M0,-3.958C0.398,-3.791 0.928,-3.644 1.377,-3.366C2.605,-2.606 3.501,-1.496 4.353,-0.353C4.373,-0.325 4.283,-0.179 4.215,-0.128C4.137,-0.07 4,0 3.934,-0.031C3.549,-0.215 3.141,-0.378 2.809,-0.637C1.689,-1.509 0.598,-2.416 -0.499,-3.317C-0.578,-3.381 -0.609,-3.504 -0.663,-3.6C-0.49,-3.693 -0.317,-3.786 0,-3.958" style="fill-rule:nonzero;"/>
                    </g>
                    <g transform="matrix(1,0,0,1,386.243,64.1542)">
                        <path d="M0,1.274C-0.05,1.429 -0.055,1.53 -0.107,1.589C-0.173,1.665 -0.278,1.757 -0.364,1.755C-1.517,1.72 -2.338,1.128 -2.931,0.18C-2.976,0.107 -2.962,-0.062 -2.906,-0.125C-2.782,-0.265 -2.594,-0.483 -2.468,-0.461C-1.36,-0.269 -0.565,0.376 0,1.274" style="fill-rule:nonzero;"/>
                    </g>
                    <g transform="matrix(1,0,0,1,387.274,63.0457)">
                        <path d="M0,-1.097C0.26,-0.997 0.578,-0.927 0.83,-0.759C0.961,-0.671 1.079,-0.353 1.019,-0.243C0.944,-0.111 0.652,0 0.491,-0.038C0.191,-0.107 -0.09,-0.278 -0.362,-0.436C-0.434,-0.477 -0.502,-0.679 -0.468,-0.718C-0.354,-0.853 -0.193,-0.948 0,-1.097" style="fill-rule:nonzero;"/>
                    </g>
                    <g transform="matrix(1,0,0,1,366.714,79.3938)">
                        <path d="M0,-5.72C1.222,-5.738 2.224,-5.158 2.608,-4.146C3.037,-3.016 2.761,-2.02 1.929,-1.162C0.786,0.017 -0.604,0.018 -1.773,-1.183C-2.392,-1.819 -2.887,-2.514 -2.711,-3.489C-2.44,-4.999 -1.604,-5.697 0,-5.72" style="fill-rule:nonzero;"/>
                    </g>
                    <g transform="matrix(1,0,0,1,375.744,145.108)">
                        <path d="M0,4.628C-0.077,4.681 -0.182,4.807 -0.252,4.791C-1.904,4.403 -3.18,3.38 -4.357,2.24C-4.816,1.796 -5.144,1.206 -5.479,0.651C-5.564,0.511 -5.494,0.236 -5.42,0.054C-5.328,-0.17 -5.106,-0.179 -4.892,0.01C-3.259,1.441 -1.628,2.876 -0.006,4.319C0.045,4.365 0,4.518 0,4.628" style="fill-rule:nonzero;"/>
                    </g>
                    <g transform="matrix(1,0,0,1,370.185,144.249)">
                        <path d="M0,5.58C-0.049,5.669 -0.078,5.791 -0.153,5.839C-0.227,5.885 -0.376,5.896 -0.444,5.851C-2.481,4.486 -4.175,2.831 -4.908,0.402C-4.96,0.231 -4.903,-0.054 -4.784,-0.171C-4.676,-0.278 -4.298,-0.316 -4.236,-0.235C-2.849,1.59 -1.488,3.434 -0.127,5.279C-0.063,5.364 -0.041,5.479 0,5.58" style="fill-rule:nonzero;"/>
                    </g>
                    <g transform="matrix(1,0,0,1,388.373,150.534)">
                        <path d="M0,-5.738C0.187,-5.635 0.423,-5.574 0.556,-5.423C1.912,-3.878 2.997,-2.148 3.97,-0.344C4.003,-0.282 3.934,-0.083 3.893,-0.077C3.719,-0.052 3.461,0 3.369,-0.092C1.925,-1.554 0.581,-3.098 -0.316,-4.97C-0.39,-5.121 -0.268,-5.377 -0.206,-5.574C-0.185,-5.643 -0.072,-5.684 0,-5.738" style="fill-rule:nonzero;"/>
                    </g>
                    <g transform="matrix(1,0,0,1,392.438,149.03)">
                        <path d="M0,-3.095C1.319,-2.4 2.61,-1.636 3.713,-0.582C3.941,-0.364 3.931,-0.203 3.667,-0.101C3.573,-0.064 3.452,0 3.377,-0.031C1.981,-0.603 0.612,-1.22 -0.288,-2.518C-0.331,-2.58 -0.308,-2.719 -0.269,-2.8C-0.225,-2.891 -0.13,-2.957 0,-3.095" style="fill-rule:nonzero;"/>
                    </g>
                    <g transform="matrix(1,0,0,1,356.096,115.824)">
                        <path d="M0,-8.97C2.18,-10.91 4.643,-12.519 7.204,-13.943C9.786,-15.331 12.53,-16.464 15.412,-17.16C18.285,-17.873 21.304,-18.111 24.28,-17.754C27.263,-17.393 30.123,-16.39 32.769,-15.079C38.08,-12.446 42.77,-8.792 46.971,-4.718C49.064,-2.668 51.063,-0.522 52.872,1.78C53.766,2.94 54.64,4.113 55.44,5.337C56.262,6.545 56.979,7.825 57.602,9.141C56.104,6.641 54.292,4.368 52.356,2.214C50.444,0.038 48.363,-1.982 46.236,-3.935C44.102,-5.884 41.856,-7.706 39.518,-9.385C37.201,-11.096 34.728,-12.579 32.167,-13.844C29.618,-15.137 26.9,-16.087 24.109,-16.467C21.315,-16.874 18.444,-16.684 15.647,-16.118C12.85,-15.535 10.119,-14.569 7.506,-13.344C4.878,-12.14 2.368,-10.664 0,-8.97" style="fill:white;fill-rule:nonzero;"/>
                    </g>
                    <g transform="matrix(1,0,0,1,313.623,77.1148)">
                        <path d="M0,17.437C2.167,15.743 4.406,14.164 6.67,12.625C8.93,11.079 11.232,9.601 13.543,8.136C15.867,6.693 18.201,5.265 20.577,3.904C22.948,2.537 25.346,1.21 27.815,0C25.649,1.695 23.411,3.275 21.146,4.814C18.887,6.359 16.585,7.837 14.273,9.301C11.947,10.742 9.614,12.17 7.238,13.531C4.866,14.898 2.47,16.225 0,17.437" style="fill:white;fill-rule:nonzero;"/>
                    </g>
                    <g transform="matrix(1,0,0,1,339.146,63.5705)">
                        <path d="M0,3.115C0.106,2.506 0.47,1.958 0.905,1.513C1.345,1.062 1.892,0.729 2.461,0.477C3.034,0.226 3.646,0.099 4.254,0.028C4.559,0 4.866,0.004 5.169,0.003C5.474,0.033 5.776,0.061 6.074,0.121C5.779,0.214 5.488,0.276 5.2,0.339L4.35,0.556C3.797,0.728 3.242,0.871 2.73,1.11C1.692,1.55 0.741,2.158 0,3.115" style="fill:white;fill-rule:nonzero;"/>
                    </g>
                    <g transform="matrix(1,0,0,1,343.387,58.1528)">
                        <path d="M0,0.854C0.579,0.568 1.195,0.385 1.819,0.249C2.443,0.11 3.081,0.037 3.724,0.009C4.365,0 5.013,0.032 5.648,0.159C6.282,0.29 6.908,0.503 7.449,0.854C6.809,0.772 6.199,0.72 5.586,0.691C4.971,0.677 4.359,0.676 3.744,0.696C2.512,0.73 1.283,0.832 0,0.854" style="fill:white;fill-rule:nonzero;"/>
                    </g>
                    <g transform="matrix(1,0,0,1,349.69,56.2528)">
                        <path d="M0,-0.913C0.624,-1.111 1.272,-1.194 1.92,-1.225C2.568,-1.26 3.22,-1.218 3.865,-1.133C5.146,-0.938 6.447,-0.506 7.447,0.347C6.814,0.176 6.216,0.005 5.604,-0.126C4.992,-0.247 4.385,-0.371 3.766,-0.453C2.531,-0.639 1.289,-0.746 0,-0.913" style="fill:white;fill-rule:nonzero;"/>
                    </g>
                    <g transform="matrix(-0.242337,0.970192,0.970192,0.242337,359.394,50.1356)">
                        <path d="M2.401,-2.8C1.99,-2.066 1.851,-1.249 1.826,-0.438C1.824,0.369 1.952,1.215 2.401,1.929C2.486,1.098 2.494,0.348 2.514,-0.429C2.516,-1.204 2.525,-1.975 2.401,-2.8" style="fill:white;fill-rule:nonzero;"/>
                    </g>
                    <g transform="matrix(1,0,0,1,362.385,51.0899)">
                        <path d="M0,-0.793C0.924,-1.032 1.854,-1.017 2.774,-0.902C3.233,-0.829 3.693,-0.732 4.137,-0.565C4.57,-0.397 5.041,-0.169 5.314,0.239C4.873,0.068 4.443,0.026 4.003,-0.045L2.679,-0.222C1.791,-0.355 0.9,-0.49 0,-0.793" style="fill:white;fill-rule:nonzero;"/>
                    </g>
                    <g transform="matrix(-0.308515,0.95122,0.95122,0.308515,374.095,48.9821)">
                        <path d="M2.373,-3.055C1.961,-2.303 1.814,-1.474 1.779,-0.645C1.772,0.178 1.889,1.056 2.373,1.774C2.422,0.925 2.444,0.167 2.467,-0.63C2.478,-1.422 2.496,-2.211 2.373,-3.055" style="fill:white;fill-rule:nonzero;"/>
                    </g>
                    <g transform="matrix(1,0,0,1,413.01,121.985)">
                        <path d="M0,-28.223C1.706,-26.2 3.188,-24.004 4.573,-21.756C5.96,-19.508 7.226,-17.187 8.395,-14.818C9.538,-12.437 10.627,-10.029 11.544,-7.551C12.492,-5.088 13.289,-2.564 13.924,0C12.75,-2.371 11.683,-4.765 10.556,-7.133C9.446,-9.506 8.314,-11.865 7.16,-14.213C6.027,-16.571 4.826,-18.895 3.642,-21.231L0,-28.223Z" style="fill:white;fill-rule:nonzero;"/>
                    </g>
                    <g transform="matrix(1,0,0,1,412.265,113.463)">
                        <path d="M0,-12.052C0.839,-11.252 1.541,-10.352 2.185,-9.418C2.827,-8.483 3.41,-7.509 3.924,-6.498C4.439,-5.488 4.875,-4.434 5.241,-3.356C5.599,-2.274 5.873,-1.155 5.959,0C5.33,-0.974 4.789,-1.948 4.257,-2.928C3.718,-3.905 3.196,-4.884 2.697,-5.877C2.192,-6.866 1.714,-7.872 1.254,-8.893C0.793,-9.914 0.356,-10.951 0,-12.052" style="fill:white;fill-rule:nonzero;"/>
                    </g>
                </g>
            </g>
        </g>
    </g>
</svg>
