<?xml version="1.0" encoding="UTF-8" standalone="no"?>
<!DOCTYPE svg PUBLIC "-//W3C//DTD SVG 1.1//EN" "http://www.w3.org/Graphics/SVG/1.1/DTD/svg11.dtd">
<svg width="100%" height="100%" viewBox="0 0 534 534" version="1.1" xmlns="http://www.w3.org/2000/svg" xmlns:xlink="http://www.w3.org/1999/xlink" xml:space="preserve" xmlns:serif="http://www.serif.com/" style="fill-rule:evenodd;clip-rule:evenodd;stroke-linejoin:round;stroke-miterlimit:2;">
    <g transform="matrix(1,0,0,1,-3.77836,-591.284)">
        <g id="bird04" transform="matrix(1,0,0,1,3.77836,591.284)">
            <rect x="0" y="0" width="533.333" height="533.333" style="fill:none;"/>
            <clipPath id="_clip1">
                <rect x="0" y="0" width="533.333" height="533.333"/>
            </clipPath>
            <g clip-path="url(#_clip1)">
                <g transform="matrix(3.24586,0,0,3.24586,-448.686,-388.446)">
                    <g transform="matrix(1,0,0,1,297.806,279.809)">
                        <path d="M0,1.515C0,1.425 -0.036,1.315 0.005,1.26C0.645,0.402 1.61,0.123 2.575,-0.13C2.7,-0.163 2.91,0.054 3.047,0.19C3.083,0.225 3.021,0.422 2.95,0.493C2.213,1.226 1.312,1.609 0.279,1.672C0.187,1.678 0.088,1.568 0,1.515" style="fill-rule:nonzero;"/>
                    </g>
                    <g transform="matrix(1,0,0,1,187.308,175.044)">
                        <path d="M0,52.357C-0.051,52.268 -0.081,52.126 -0.155,52.097C-1.281,51.655 -2.339,51.58 -3.421,52.351C-8.044,55.642 -12.397,59.257 -16.504,63.17C-17.226,63.856 -18.165,64.391 -18.414,65.479C-17.111,65.939 -16.236,64.978 -15.276,64.454C-13.86,63.681 -12.497,62.795 -11.18,61.859C-8.825,60.186 -6.584,58.345 -4.174,56.758C-2.499,55.654 -1.468,53.986 -0.044,52.678C0.017,52.622 -0.013,52.466 0,52.357M89.926,-32.867C89.987,-32.595 90.032,-32.247 90.142,-31.923C90.533,-30.769 91.672,-30.113 92.869,-30.275C94.038,-30.434 95.104,-30.859 96.098,-31.464C98.17,-32.727 100.21,-34.042 102.292,-35.287C105.38,-37.134 108.191,-39.347 110.915,-41.68C111.087,-41.829 111.239,-42.006 111.378,-42.186C111.446,-42.271 111.527,-42.448 111.491,-42.493C111.376,-42.634 111.181,-42.854 111.066,-42.828C108.48,-42.24 105.886,-41.673 103.323,-40.996C100.533,-40.26 97.763,-39.441 95,-38.606C94.123,-38.34 93.263,-37.966 92.454,-37.533C90.633,-36.561 89.913,-34.94 89.926,-32.867M-5.5,48.083C-5.619,47.886 -5.682,47.626 -5.833,47.555C-7.069,46.981 -8.254,47.003 -9.451,47.767C-11.304,48.949 -13.187,50.087 -15.091,51.186C-20.725,54.436 -25.91,58.316 -30.917,62.44C-32.431,63.688 -33.808,65.106 -35.21,66.483C-35.614,66.88 -35.916,67.393 -36.207,67.887C-36.305,68.053 -36.3,68.373 -36.201,68.537C-36.107,68.692 -35.815,68.833 -35.632,68.811C-34.117,68.626 -32.753,67.981 -31.393,67.338C-27.404,65.455 -23.688,63.111 -20.024,60.672C-16.557,58.365 -13.05,56.118 -9.559,53.846C-8.783,53.341 -7.997,52.851 -7.225,52.34C-7.036,52.214 -6.836,52.059 -6.729,51.868C-6.633,51.699 -6.557,51.39 -6.645,51.265C-7.337,50.286 -6.955,49.537 -6.204,48.833C-5.953,48.597 -5.73,48.331 -5.5,48.083M-11.015,45.157C-10.938,44.939 -10.845,44.724 -10.785,44.501C-10.638,43.944 -10.85,43.679 -11.476,43.647C-12.055,43.618 -12.636,43.628 -13.214,43.587C-13.916,43.537 -14.594,43.389 -15.112,42.854C-15.55,42.4 -15.555,41.824 -15.604,41.24C-15.65,40.694 -16.057,40.577 -16.544,40.91C-21.712,44.443 -26.89,47.961 -32.044,51.514C-34.907,53.488 -37.751,55.491 -40.562,57.539C-42.721,59.113 -44.695,60.911 -46.52,62.864C-46.831,63.198 -47.065,63.607 -47.308,63.997C-47.351,64.066 -47.301,64.249 -47.232,64.322C-47.088,64.477 -46.89,64.722 -46.739,64.705C-46.169,64.643 -45.594,64.54 -45.049,64.364C-42.397,63.507 -39.829,62.431 -37.369,61.127C-30.916,57.709 -24.47,54.274 -18.053,50.79C-16.018,49.685 -14.08,48.4 -12.094,47.204C-11.569,46.887 -11.221,46.466 -11.154,45.836C-11.13,45.607 -11.063,45.383 -11.015,45.157M28.258,19.503C27.774,19.786 27.273,20.076 26.773,20.37C22.856,22.672 18.699,24.42 14.376,25.802C6.731,28.245 -1.084,29.902 -9.057,30.769C-12.168,31.107 -15.304,31.209 -18.398,30.443C-19.069,30.277 -19.776,30.261 -20.465,30.171C-21.675,30.013 -22.703,30.283 -23.672,31.118C-26.484,33.54 -29.366,35.879 -32.213,38.26C-32.475,38.48 -32.69,38.758 -32.899,39.031C-32.954,39.104 -32.935,39.272 -32.891,39.368C-32.848,39.461 -32.739,39.557 -32.641,39.584C-32.039,39.744 -31.443,39.616 -31.021,39.208C-27.629,35.929 -23.441,33.937 -19.284,31.892C-19.205,31.853 -19.056,31.878 -18.976,31.93C-18.772,32.063 -18.799,32.262 -19.053,32.449C-20.263,33.342 -21.465,34.244 -22.692,35.113C-24.486,36.382 -26.303,37.618 -28.09,38.897C-28.206,38.979 -28.17,39.304 -28.16,39.514C-28.156,39.587 -28.026,39.702 -27.939,39.718C-24.077,40.449 -20.31,40.063 -16.691,38.569C-15.198,37.954 -13.8,37.102 -12.371,36.336C-11.657,35.953 -10.992,35.472 -10.258,35.139C-10.018,35.029 -9.62,35.218 -9.321,35.339C-9.275,35.357 -9.303,35.796 -9.42,35.944C-9.849,36.489 -10.318,37.003 -10.793,37.51C-11.506,38.272 -12.256,39 -12.949,39.779C-13.25,40.119 -13.455,40.547 -13.691,40.942C-13.927,41.336 -13.587,41.875 -13.114,41.936C-11.191,42.181 -9.435,41.59 -7.733,40.827C-4.235,39.259 -0.878,37.434 2.261,35.217C3.205,34.552 4.205,33.965 5.195,33.369C5.365,33.267 5.618,33.279 5.831,33.285C5.905,33.287 6.053,33.475 6.037,33.502C5.808,33.894 5.602,34.315 5.301,34.648C4.371,35.676 3.392,36.66 2.462,37.688C2.333,37.83 2.277,38.173 2.36,38.334C2.44,38.487 2.739,38.586 2.951,38.603C4.167,38.704 5.21,38.133 6.253,37.649C11.968,34.996 17.186,31.562 22.021,27.536C24.35,25.598 26.397,23.39 28.266,21.012C28.481,20.739 28.705,20.463 28.856,20.155C28.939,19.985 28.956,19.689 28.858,19.554C28.784,19.452 28.482,19.515 28.258,19.503M37.898,-8.66C37.767,-11.577 37.662,-14.01 37.545,-16.443C37.523,-16.905 37.452,-17.364 37.413,-17.824C37.387,-18.124 36.885,-18.373 36.636,-18.207C36.252,-17.953 35.853,-17.714 35.498,-17.422C18.818,-3.742 2.143,9.942 -14.531,23.629C-16.233,25.027 -17.921,26.442 -19.601,27.867C-19.758,28 -19.89,28.27 -19.875,28.465C-19.864,28.616 -19.63,28.819 -19.454,28.878C-18.121,29.329 -16.737,29.446 -15.339,29.472C-12.433,29.524 -9.56,29.262 -6.676,28.875C-1.612,28.194 3.396,27.273 8.332,25.963C12.706,24.803 17.022,23.465 21.135,21.548C24.721,19.877 28.121,17.906 31.185,15.374C32.286,14.464 33.121,13.408 33.736,12.129C35.099,9.297 36.15,6.359 36.89,3.306C37.884,-0.792 37.898,-4.966 37.898,-8.66M42.143,65.786C43.072,65.786 44.001,65.776 44.93,65.787C51.887,65.87 58.518,64.478 64.857,61.571C70.218,59.113 74.696,55.463 78.967,51.505C79.312,51.186 79.466,50.712 79.334,50.225C78.902,48.622 78.984,47.016 79.2,45.389C79.321,44.475 79.331,43.533 79.275,42.61C79.162,40.734 78.267,39.704 76.43,39.092C75.18,38.677 73.919,38.64 72.649,38.894C70.812,39.26 69.062,39.897 67.49,40.916C66.422,41.607 65.42,42.409 64.435,43.216C63.358,44.099 62.362,45.081 61.279,45.956C59.793,47.155 58.1,47.791 56.153,47.845C50.738,47.997 47.029,44.024 46.132,40.252C45.999,39.69 45.917,39.116 45.814,38.546C45.761,38.249 45.579,38.133 45.304,38.284C44.494,38.727 43.677,39.161 42.898,39.654C40.24,41.338 37.433,42.687 34.483,43.799C30.237,45.4 25.884,46.598 21.472,47.623C16.706,48.731 11.86,49.222 6.991,49.521C5.956,49.584 4.902,49.489 3.866,49.384C2.018,49.196 0.188,48.898 -1.598,48.351C-2.436,48.095 -3.202,48.318 -3.796,49C-3.873,49.087 -4.007,49.228 -3.982,49.279C-3.893,49.461 -3.776,49.715 -3.617,49.761C-2.839,49.989 -2.035,50.124 -1.259,50.357C-0.376,50.623 0.503,50.917 1.352,51.275C2.051,51.572 2.288,52.205 2.12,52.996C1.813,54.442 1.905,54.653 3.006,55.122C5.46,56.165 7.918,57.196 10.362,58.262C12.485,59.188 14.654,60.037 16.687,61.133C19.068,62.417 21.576,63.238 24.188,63.821C30.1,65.141 36.066,65.964 42.143,65.786M39.652,-7.45C39.848,-2.239 39.21,2.803 37.625,7.721C37.452,8.257 37.274,8.875 37.376,9.4C37.573,10.42 37.31,11.287 36.681,11.99C34.957,13.915 33.801,16.201 32.48,18.382C30.297,21.987 27.663,25.215 24.473,27.974C19.347,32.407 13.66,35.995 7.602,39C6.465,39.564 5.234,39.951 4.023,40.347C2.598,40.813 1.271,40.71 0.244,39.427C-0.095,39.004 -0.523,38.998 -0.985,39.247C-2.212,39.909 -3.408,40.643 -4.681,41.198C-6.229,41.873 -7.382,42.965 -8.416,44.238C-8.634,44.505 -8.483,44.821 -8.042,45.013C-7.724,45.15 -7.42,45.352 -7.089,45.424C-5.065,45.861 -2.989,46.104 -1.189,47.285C-0.823,47.525 -0.304,47.533 0.146,47.646C2.188,48.158 4.265,48.303 6.365,48.304C9.748,48.304 13.099,47.913 16.414,47.341C22.488,46.294 28.412,44.66 34.168,42.411C38.097,40.876 41.661,38.731 45.102,36.336C45.999,35.712 46.565,34.915 46.935,33.887C48.042,30.81 49.66,27.992 51.436,25.257C52.575,23.504 53.689,21.736 54.805,19.967C57.938,14.998 59.195,9.528 59.136,3.708C59.109,1.021 58.648,-1.608 58.065,-4.218C57.534,-6.597 56.976,-8.971 56.395,-11.338C55.443,-15.214 55.212,-19.155 55.532,-23.105C56.229,-31.709 59.706,-38.97 66.302,-44.64C68.266,-46.327 70.472,-47.602 73.025,-48.163C77.273,-49.095 81.527,-49.197 85.778,-48.144C85.942,-48.104 86.146,-48.226 86.332,-48.273C86.244,-48.348 86.167,-48.444 86.067,-48.496C82.45,-50.362 75.413,-51.655 71.502,-51.05C69.327,-50.713 67.153,-50.276 65.031,-49.693C60.237,-48.379 56.132,-45.706 52.313,-42.656C46.257,-37.819 42.357,-31.38 39.456,-24.307C38.756,-22.601 38.596,-20.768 38.84,-18.851C39.323,-15.054 39.795,-11.241 39.652,-7.45M96.782,-3.352C97.021,-3.747 97.316,-4.12 97.492,-4.541C98.255,-6.375 98.606,-8.316 98.909,-10.267C99.934,-16.866 99.445,-23.46 98.856,-30.055C98.828,-30.372 98.364,-30.676 98.105,-30.547C97.485,-30.239 96.889,-29.872 96.25,-29.609C95.183,-29.17 94.109,-28.726 93.001,-28.415C92.218,-28.195 91.385,-28.281 90.631,-28.683C88.733,-29.695 87.719,-31.843 88.069,-33.952C88.501,-36.556 89.828,-38.456 92.285,-39.504C93.031,-39.822 93.799,-40.087 94.551,-40.392C95.16,-40.637 95.244,-41.248 94.731,-41.767C94.161,-42.344 93.588,-42.921 92.983,-43.461C91.945,-44.388 90.988,-45.477 89.795,-46.134C88.829,-46.665 87.568,-46.662 86.438,-46.895C86.097,-46.966 85.751,-47.017 85.416,-47.107C83.371,-47.657 81.293,-47.719 79.199,-47.544C78.042,-47.448 76.882,-47.376 75.733,-47.221C72.416,-46.772 69.502,-45.425 67.087,-43.099C65.918,-41.973 64.811,-40.778 63.748,-39.553C61.982,-37.521 60.683,-35.213 59.672,-32.71C57.063,-26.246 56.85,-19.614 58.203,-12.877C58.819,-9.808 59.689,-6.789 60.267,-3.714C61.061,0.514 61.505,4.758 60.758,9.081C60.058,13.13 58.917,16.979 56.72,20.477C55.918,21.754 55.127,23.039 54.327,24.317C53.342,25.89 52.339,27.452 51.367,29.033C50.085,31.119 49.108,33.352 48.37,35.679C47.797,37.486 47.621,39.36 48.394,41.138C50.292,45.504 56.283,48.017 60.56,44.254C61.605,43.335 62.641,42.403 63.695,41.493C65.737,39.73 68.015,38.378 70.583,37.52C72.5,36.878 74.452,36.77 76.424,37.112C79.152,37.585 80.75,39.165 81.208,41.902C81.36,42.806 81.346,43.748 81.312,44.669C81.278,45.593 81.103,46.512 81.038,47.437C81.014,47.771 81.083,48.136 81.209,48.445C81.261,48.57 81.598,48.664 81.776,48.628C81.984,48.587 82.185,48.413 82.346,48.253C91.017,39.598 95.337,28.908 96.765,16.943C97.148,13.731 97.129,10.451 97.047,7.208C96.975,4.327 97.125,1.41 96.398,-1.432C96.316,-1.755 96.413,-2.124 96.427,-2.472L96.782,-3.352ZM74.375,-52.866C78.03,-52.446 81.725,-52.156 85.246,-50.784C87.772,-49.798 90.072,-48.499 92.007,-46.601C93.499,-45.14 94.959,-43.645 96.385,-42.12C96.92,-41.546 97.445,-41.327 98.216,-41.534C102.252,-42.614 106.292,-43.676 110.337,-44.722C111.347,-44.983 112.371,-45.206 113.402,-45.351C113.835,-45.413 114.307,-45.242 114.755,-45.149C115.154,-45.067 115.342,-44.684 115.177,-44.384C114.33,-42.837 113.182,-41.549 111.841,-40.41C109.183,-38.153 106.489,-35.951 103.495,-34.139C102.502,-33.539 101.537,-32.888 100.597,-32.208C100.221,-31.936 100.017,-31.504 100.1,-30.987C100.249,-30.07 100.364,-29.148 100.513,-28.231C101.298,-23.389 101.356,-18.508 101.068,-13.635C100.869,-10.274 100.344,-6.931 98.948,-3.813C98.503,-2.823 98.335,-1.836 98.412,-0.773C98.495,0.385 98.505,1.549 98.607,2.706C99.054,7.813 99.032,12.911 98.381,18.003C97.493,24.97 95.63,31.646 92.409,37.91C90.862,40.918 88.929,43.673 86.763,46.265C85.944,47.246 85.105,48.209 84.264,49.171C83.87,49.622 83.644,50.099 83.638,50.73C83.633,51.199 83.323,51.621 82.802,51.702C81.841,51.852 81.107,52.354 80.393,52.987C78.569,54.605 76.732,56.211 74.841,57.751C68.953,62.545 62.156,65.402 54.784,66.974C52.975,67.359 51.134,67.596 49.309,67.913C49.014,67.963 48.924,68.177 49.062,68.451C49.216,68.756 49.355,69.081 49.566,69.345C54.368,75.32 59.178,81.289 63.986,87.258C64.059,87.348 64.13,87.44 64.208,87.527C64.637,88.005 65.232,88.171 65.771,87.922C66.507,87.581 67.227,87.201 67.961,86.854C70.491,85.659 73.138,84.801 75.851,84.142C76.3,84.033 76.765,83.972 77.226,83.94C77.964,83.889 78.586,84.172 79.084,84.715C79.724,85.413 80.204,86.202 80.342,87.151C80.371,87.35 80.258,87.589 80.159,87.784C80.032,88.033 79.462,88.098 79.225,87.898C78.784,87.524 78.334,87.156 77.929,86.745C77.38,86.186 76.752,86.057 76.025,86.275C75.247,86.508 74.46,86.716 73.698,86.991C73.547,87.045 73.478,87.35 73.401,87.551C73.389,87.582 73.53,87.72 73.61,87.73C74.069,87.788 74.536,87.885 74.991,87.853C77.667,87.664 79.326,89.166 80.636,91.23C80.809,91.502 80.827,91.88 80.884,92.215C80.953,92.61 80.289,93.146 79.95,92.958C79.45,92.679 78.889,92.433 78.512,92.027C76.593,89.963 76.435,90.053 73.617,90.052C72.348,90.051 71.079,90.173 69.81,90.254C69.753,90.257 69.669,90.394 69.661,90.476C69.649,90.581 69.667,90.749 69.733,90.792C70.123,91.041 70.52,91.281 70.932,91.489C71.866,91.959 72.825,92.378 73.745,92.872C75.214,93.66 75.579,94.584 75.184,96.367C75.161,96.474 75.064,96.564 75.013,96.667C74.894,96.911 74.267,97.005 74.104,96.791C73.619,96.152 73.259,95.346 72.639,94.9C71.708,94.231 70.625,93.752 69.559,93.302C68.174,92.718 66.743,92.243 65.331,91.722C64.792,91.523 64.206,91.406 63.722,91.117C62.786,90.557 61.772,90.405 60.724,90.324C59.998,90.267 59.357,90.392 58.826,90.959C58.6,91.201 58.273,91.463 57.974,91.486C57.706,91.507 57.266,91.281 57.157,91.045C56.62,89.882 57.547,88.258 58.754,88.07C59.324,87.982 59.909,87.995 60.487,87.951C60.832,87.924 61.097,87.495 60.926,87.244C60.601,86.765 60.29,86.273 59.929,85.822C55.502,80.29 51.068,74.765 46.636,69.238C46.49,69.057 46.335,68.883 46.197,68.697C45.827,68.199 45.334,67.941 44.716,67.932C43.555,67.914 42.393,67.868 41.232,67.891C35.512,68.001 29.88,67.291 24.299,66.094C23.735,65.973 23.156,65.922 22.582,65.852C22.242,65.81 21.93,66.212 22.079,66.505C22.499,67.33 22.928,68.15 23.36,68.97C24.82,71.742 26.304,74.502 27.74,77.286C29.923,81.515 32.074,85.761 34.241,89.999C34.346,90.205 34.484,90.394 34.595,90.597C34.892,91.138 35.328,91.489 35.949,91.564C37.792,91.789 39.631,92.076 41.481,92.207C44.74,92.438 47.91,93.152 51.09,93.821C51.541,93.916 51.987,94.079 52.403,94.277C52.708,94.422 53.053,94.619 53.219,94.891C53.821,95.878 54.434,96.886 54.291,98.119C54.267,98.32 54.107,98.587 53.938,98.664C53.766,98.742 53.408,98.703 53.298,98.573C52.78,97.961 52.319,97.3 51.839,96.656C51.553,96.271 51.195,95.984 50.714,95.909C47.506,95.407 44.351,94.545 41.081,94.471C40.906,94.467 40.727,94.628 40.55,94.711C40.68,94.892 40.77,95.144 40.945,95.242C42.972,96.371 45.01,97.478 47.049,98.585C47.763,98.972 48.511,99.301 49.2,99.728C50.343,100.436 51.022,101.495 51.278,102.811C51.319,103.024 51.248,103.266 51.2,103.488C51.119,103.871 50.325,104.184 50.053,103.947C49.795,103.721 49.475,103.528 49.305,103.247C48.618,102.108 47.633,101.378 46.449,100.796C43.848,99.516 41.291,98.146 38.71,96.823C38.652,96.794 38.498,96.86 38.449,96.926C38.392,97.002 38.351,97.158 38.392,97.227C38.746,97.821 39.106,98.412 39.49,98.987C40.135,99.953 40.806,100.901 41.451,101.866C42.022,102.721 41.996,104.108 40.953,105.013C40.801,105.145 40.528,105.223 40.331,105.195C40.14,105.168 39.818,104.97 39.818,104.847C39.817,103.092 38.821,101.804 37.837,100.512C36.011,98.113 34.188,95.711 32.319,93.345C32.06,93.018 31.565,92.795 31.14,92.7C30.351,92.524 29.528,92.503 28.727,92.372C27.827,92.225 27.185,92.505 26.69,93.294C26.458,93.664 25.791,93.506 25.491,93.164C25.083,92.698 24.94,92.159 24.916,91.568C24.879,90.703 25.549,89.964 26.395,89.998C27.553,90.043 28.708,90.142 29.864,90.21C30.159,90.226 30.482,89.729 30.369,89.46C30.325,89.353 30.298,89.239 30.244,89.138C27.871,84.748 25.772,80.212 23.196,75.927C21.042,72.345 19.009,68.691 16.965,65.045C16.372,63.987 15.594,63.271 14.494,62.719C10.761,60.848 6.978,59.066 3.425,56.848C2.846,56.486 2.159,56.283 1.503,56.061C0.8,55.821 0.148,55.962 -0.459,56.417C-2.689,58.089 -4.899,59.792 -7.181,61.391C-9.46,62.989 -11.791,64.518 -14.148,65.999C-15.626,66.926 -17.238,67.607 -18.954,67.992C-19.403,68.093 -19.867,68.147 -20.327,68.175C-21.142,68.226 -21.879,67.19 -21.525,66.482C-21.268,65.967 -21.002,65.439 -20.643,64.997C-19.984,64.189 -19.242,63.448 -18.563,62.656C-18.456,62.53 -18.496,62.279 -18.467,62.086C-18.566,62.121 -18.675,62.141 -18.764,62.195C-19.753,62.8 -20.745,63.402 -21.726,64.021C-24.479,65.756 -27.272,67.422 -30.25,68.744C-31.625,69.354 -33.042,69.886 -34.473,70.353C-35.116,70.562 -35.842,70.593 -36.528,70.582C-37.784,70.563 -38.563,69.247 -38.113,68.084C-37.64,66.858 -36.831,65.878 -35.939,64.961C-34.809,63.797 -33.635,62.676 -32.485,61.531C-32.408,61.454 -32.382,61.325 -32.333,61.22C-32.539,61.146 -32.788,60.959 -32.943,61.018C-33.696,61.309 -34.438,61.638 -35.158,62.003C-37.75,63.315 -40.389,64.521 -43.131,65.484C-44.114,65.829 -45.12,66.14 -46.14,66.337C-46.682,66.442 -47.291,66.333 -47.844,66.207C-48.612,66.032 -49.211,65.096 -49.048,64.327C-48.93,63.773 -48.77,63.18 -48.453,62.727C-47.924,61.971 -47.32,61.241 -46.633,60.629C-44.815,59.007 -43.022,57.336 -41.062,55.901C-37.784,53.502 -34.385,51.268 -31.034,48.97C-27.686,46.674 -24.333,44.385 -20.988,42.085C-20.913,42.032 -20.88,41.872 -20.886,41.765C-20.889,41.701 -20.998,41.621 -21.076,41.59C-21.179,41.548 -21.306,41.514 -21.411,41.534C-23.845,42.003 -26.265,41.803 -28.683,41.41C-29.717,41.242 -30.75,41.174 -31.803,41.273C-33.227,41.407 -34.561,41.024 -35.796,40.33C-35.931,40.254 -36.04,39.843 -35.96,39.729C-35.633,39.264 -35.277,38.795 -34.843,38.435C-31.359,35.54 -27.838,32.69 -24.361,29.788C-11.701,19.218 0.939,8.624 13.603,-1.942C20.291,-7.523 27.012,-13.064 33.719,-18.622C34.434,-19.216 35.145,-19.814 35.869,-20.396C36.433,-20.849 36.83,-21.376 36.906,-22.13C37.059,-23.649 37.575,-25.07 38.18,-26.456C40.379,-31.492 43.159,-36.165 46.898,-40.224C49.272,-42.8 51.92,-45.049 54.993,-46.767C55.499,-47.05 56.018,-47.317 56.499,-47.641C60.85,-50.564 65.8,-51.77 70.863,-52.624C72.001,-52.816 73.176,-52.789 74.375,-52.866" style="fill-rule:nonzero;"/>
                    </g>
                    <g transform="matrix(1,0,0,1,277.551,149.786)">
                        <path d="M0,51.463C-0.06,51.527 -0.175,51.594 -0.185,51.674C-0.263,52.315 0.221,53.012 0.81,53.105C0.878,53.116 1.029,53.002 1.038,52.933C1.115,52.303 0.608,51.589 0,51.463M-35.319,60.305C-35.407,60.367 -35.576,60.438 -35.571,60.49C-35.506,61.085 -35.161,61.482 -34.623,61.712C-34.542,61.746 -34.402,61.723 -34.331,61.671C-34.268,61.624 -34.21,61.475 -34.239,61.412C-34.464,60.917 -34.651,60.372 -35.319,60.305M-0.551,57.546C-0.753,57.122 -0.974,56.637 -1.219,56.165C-1.259,56.087 -1.416,56.013 -1.502,56.03C-1.588,56.046 -1.689,56.167 -1.719,56.262C-1.893,56.822 -1.796,57.349 -1.392,57.77C-1.282,57.885 -1.022,57.878 -0.83,57.88C-0.768,57.881 -0.703,57.735 -0.551,57.546M-7.164,26.675C-7.251,26.614 -7.331,26.522 -7.427,26.499C-7.527,26.476 -7.708,26.479 -7.744,26.538C-8.097,27.118 -8.443,27.704 -8.744,28.312C-8.786,28.396 -8.587,28.627 -8.46,28.75C-8.418,28.791 -8.229,28.743 -8.154,28.68C-7.618,28.233 -7.187,27.711 -7.099,26.985C-7.087,26.886 -7.141,26.779 -7.164,26.675M-2.909,63.016C-3.002,62.448 -3.054,61.762 -3.249,61.119C-3.319,60.888 -3.733,60.761 -3.99,60.587C-4.105,60.882 -4.356,61.203 -4.309,61.469C-4.169,62.243 -3.917,62.997 -3.688,63.752C-3.665,63.827 -3.497,63.89 -3.393,63.898C-3.317,63.902 -3.195,63.823 -3.162,63.75C-3.071,63.551 -3.016,63.336 -2.909,63.016M-36.651,63.588C-36.75,62.558 -37.174,61.624 -37.656,60.713C-37.69,60.648 -37.91,60.602 -37.972,60.647C-38.125,60.757 -38.366,60.945 -38.348,61.068C-38.192,62.093 -37.938,63.091 -37.128,63.83C-37.072,63.881 -36.928,63.908 -36.87,63.872C-36.781,63.817 -36.731,63.698 -36.651,63.588M-4.746,28.873C-4.637,28.838 -4.508,28.828 -4.421,28.763C-3.578,28.13 -2.977,27.303 -2.524,26.36C-2.477,26.261 -2.434,26.129 -2.459,26.03C-2.515,25.821 -2.565,25.549 -2.717,25.446C-2.839,25.362 -3.17,25.417 -3.295,25.533C-4.146,26.327 -4.736,27.299 -5.098,28.406C-5.123,28.484 -5.054,28.612 -4.993,28.691C-4.934,28.769 -4.83,28.814 -4.746,28.873M-0.596,28.63C-0.5,28.585 -0.376,28.559 -0.297,28.485C0.971,27.313 1.966,25.955 2.459,24.28C2.509,24.111 2.39,23.811 2.248,23.695C2.139,23.605 1.788,23.63 1.686,23.738C0.499,24.995 -0.31,26.482 -0.88,28.104C-0.91,28.19 -0.863,28.32 -0.814,28.41C-0.768,28.497 -0.672,28.557 -0.596,28.63M-6.491,66.072L-6.512,66.072C-6.512,66.412 -6.511,66.752 -6.512,67.092C-6.513,67.318 -6.52,67.545 -6.518,67.772C-6.511,68.555 -6.251,68.97 -5.963,68.698C-5.736,68.484 -5.441,68.211 -5.412,67.939C-5.306,66.931 -5.275,65.913 -5.261,64.899C-5.255,64.44 -5.437,64.049 -5.893,63.804C-6.262,63.604 -6.477,63.917 -6.49,64.713C-6.498,65.166 -6.491,65.619 -6.491,66.072M-17.507,-5.963C-17.506,-7.115 -17.616,-8.023 -18.008,-8.888C-19.036,-11.158 -21.604,-11.727 -23.244,-9.482C-24.217,-8.149 -24.46,-6.728 -23.786,-5.235C-23.055,-3.616 -21.716,-2.797 -19.947,-2.7C-18.876,-2.641 -17.84,-3.441 -17.675,-4.457C-17.582,-5.026 -17.545,-5.605 -17.507,-5.963M6.185,22.787C6.17,23.134 6.073,23.504 6.155,23.827C6.882,26.669 6.732,29.586 6.805,32.467C6.887,35.71 6.905,38.989 6.522,42.202C5.095,54.167 0.774,64.857 -7.896,73.511C-8.058,73.671 -8.259,73.846 -8.467,73.887C-8.645,73.923 -8.981,73.829 -9.033,73.704C-9.16,73.395 -9.229,73.03 -9.205,72.696C-9.14,71.771 -8.965,70.852 -8.931,69.928C-8.896,69.006 -8.883,68.065 -9.034,67.161C-9.492,64.423 -11.091,62.843 -13.818,62.371C-15.791,62.029 -17.742,62.137 -19.659,62.778C-22.228,63.637 -24.506,64.989 -26.548,66.752C-27.602,67.662 -28.638,68.593 -29.683,69.513C-33.959,73.275 -39.951,70.763 -41.849,66.397C-42.622,64.619 -42.446,62.745 -41.873,60.938C-41.135,58.61 -40.158,56.378 -38.876,54.292C-37.904,52.711 -36.901,51.149 -35.916,49.576C-35.115,48.297 -34.325,47.013 -33.522,45.735C-31.326,42.237 -30.185,38.389 -29.485,34.34C-28.737,30.017 -29.182,25.773 -29.976,21.545C-30.553,18.47 -31.424,15.451 -32.04,12.382C-33.393,5.645 -33.18,-0.987 -30.57,-7.452C-29.56,-9.954 -28.26,-12.263 -26.495,-14.294C-25.432,-15.519 -24.324,-16.714 -23.155,-17.84C-20.74,-20.166 -17.827,-21.514 -14.51,-21.962C-13.36,-22.117 -12.2,-22.189 -11.044,-22.286C-8.949,-22.46 -6.872,-22.398 -4.827,-21.848C-4.491,-21.758 -4.146,-21.707 -3.805,-21.637C-2.675,-21.403 -1.414,-21.407 -0.447,-20.875C0.745,-20.218 1.702,-19.129 2.74,-18.203C3.346,-17.662 3.918,-17.085 4.488,-16.508C5.001,-15.99 4.917,-15.378 4.309,-15.133C3.557,-14.829 2.788,-14.563 2.042,-14.245C-0.415,-13.198 -1.741,-11.297 -2.174,-8.693C-2.523,-6.584 -1.51,-4.436 0.389,-3.424C1.143,-3.022 1.976,-2.936 2.759,-3.156C3.866,-3.468 4.94,-3.911 6.008,-4.35C6.646,-4.613 7.242,-4.98 7.862,-5.288C8.121,-5.417 8.585,-5.113 8.613,-4.796C9.202,1.798 9.691,8.393 8.666,14.992C8.363,16.943 8.013,18.884 7.249,20.717C7.073,21.139 6.778,21.511 6.539,21.906C6.45,21.338 6.396,20.76 6.252,20.206C6.212,20.048 5.925,19.936 5.73,19.846C5.678,19.822 5.5,19.938 5.466,20.024C4.707,21.961 3.953,23.901 3.219,25.848C3.141,26.055 3.162,26.307 3.175,26.536C3.181,26.636 3.263,26.754 3.346,26.821C3.403,26.868 3.567,26.885 3.604,26.844C3.903,26.503 4.242,26.177 4.461,25.786C5.022,24.779 5.375,23.653 6.185,22.787" style="fill:rgb(227,129,73);fill-rule:nonzero;"/>
                    </g>
                    <g transform="matrix(1,0,0,1,223.528,139.127)">
                        <path d="M0,68.483C-0.086,68.432 -0.175,68.337 -0.268,68.332C-0.886,68.303 -1.286,68.707 -1.689,69.089C-1.73,69.127 -1.731,69.271 -1.692,69.315C-1.626,69.391 -1.518,69.465 -1.421,69.474C-0.797,69.532 -0.388,69.149 -0.006,68.737C0.037,68.691 0,68.571 0,68.483M11.539,40.804C11.46,40.829 11.335,40.831 11.31,40.882C10.911,41.698 11.052,42.434 11.676,43.08C11.751,43.158 11.883,43.236 11.979,43.226C12.071,43.216 12.233,43.075 12.223,43.019C12.096,42.351 11.95,41.685 11.787,41.025C11.765,40.936 11.624,40.877 11.539,40.804M14.562,13.866C14.562,13.643 14.609,13.405 14.546,13.201C14.499,13.047 14.325,12.915 14.178,12.819C14.126,12.787 13.958,12.87 13.888,12.943C13.374,13.479 13.245,14.109 13.547,14.785C13.624,14.956 13.851,15.085 14.037,15.176C14.268,15.291 14.448,15.163 14.485,14.869C14.527,14.537 14.537,14.2 14.562,13.866M5.444,41.878C5.482,42.37 5.499,42.706 5.542,43.039C5.555,43.143 5.678,43.329 5.69,43.324C5.864,43.255 6.142,43.19 6.173,43.067C6.366,42.305 6.524,41.532 6.644,40.755C6.673,40.566 6.531,40.341 6.433,40.15C6.397,40.079 6.266,40.033 6.172,40.021C6.064,40.007 5.86,40.021 5.851,40.06C5.69,40.71 5.554,41.365 5.444,41.878M8.346,41.916C8.407,42.252 8.456,42.587 8.534,42.914C8.555,43 8.705,43.14 8.733,43.126C8.926,43.033 9.227,42.936 9.262,42.785C9.392,42.239 9.463,41.673 9.484,41.111C9.489,40.957 9.273,40.737 9.105,40.647C8.856,40.512 8.646,40.641 8.573,40.917C8.488,41.244 8.422,41.577 8.346,41.916M10.418,12.039C10.501,12.262 10.565,12.642 10.659,12.649C11.022,12.677 11.137,12.366 11.247,12.056C11.548,11.205 11.883,10.366 12.198,9.519C12.275,9.31 12.389,9.083 12.368,8.877C12.349,8.688 12.199,8.402 12.054,8.366C11.882,8.323 11.586,8.441 11.462,8.589C10.622,9.588 10.281,10.752 10.418,12.039M4.943,68.767C4.868,68.685 4.807,68.563 4.714,68.53C4.617,68.497 4.461,68.508 4.38,68.567C3.275,69.383 2.176,70.208 1.08,71.036C0.804,71.245 0.825,71.42 1.12,71.521C1.222,71.556 1.341,71.623 1.434,71.599C2.801,71.25 3.998,70.623 4.8,69.41C4.913,69.239 4.899,68.983 4.943,68.767M8.19,69.279C8.072,69.015 7.894,68.988 7.651,69.195C6.433,70.229 5.213,71.261 3.999,72.3C3.917,72.371 3.817,72.501 3.832,72.586C3.845,72.67 4.014,72.812 4.078,72.795C5.901,72.296 7.36,71.314 8.232,69.584C8.27,69.508 8.207,69.382 8.19,69.279M13.073,3.04C13.033,2.959 13.013,2.851 12.949,2.804C12.863,2.743 12.742,2.698 12.637,2.7C11.358,2.721 10.477,3.513 9.739,4.392C8.47,5.905 7.556,7.647 6.945,9.531C6.887,9.71 6.99,9.982 7.098,10.163C7.211,10.352 7.437,10.291 7.593,10.035C8.259,8.953 8.939,7.879 9.569,6.775C10.386,5.346 11.358,4.081 12.852,3.296C12.945,3.247 13,3.127 13.073,3.04M3.433,28.467C3.575,24.676 3.103,20.863 2.62,17.066C2.376,15.149 2.536,13.316 3.236,11.61C6.137,4.537 10.037,-1.902 16.094,-6.739C19.912,-9.788 24.018,-12.462 28.811,-13.776C30.933,-14.359 33.107,-14.796 35.283,-15.133C39.193,-15.738 46.23,-14.445 49.847,-12.579C49.947,-12.527 50.024,-12.431 50.112,-12.356C49.926,-12.309 49.722,-12.187 49.558,-12.227C45.307,-13.28 41.053,-13.178 36.805,-12.246C34.252,-11.685 32.046,-10.41 30.083,-8.723C23.486,-3.053 20.01,4.208 19.312,12.812C18.993,16.762 19.224,20.703 20.175,24.579C20.756,26.946 21.314,29.32 21.846,31.699C22.429,34.309 22.889,36.938 22.916,39.625C22.975,45.445 21.718,50.915 18.585,55.884C17.47,57.653 16.355,59.421 15.216,61.174C13.44,63.909 11.822,66.727 10.715,69.804C10.346,70.832 9.779,71.629 8.882,72.253C5.441,74.648 1.877,76.793 -2.052,78.328C-7.808,80.577 -13.731,82.211 -19.806,83.258C-23.121,83.83 -26.472,84.221 -29.854,84.221C-31.955,84.22 -34.032,84.075 -36.074,83.563C-36.523,83.45 -37.043,83.442 -37.409,83.202C-39.209,82.021 -41.285,81.778 -43.309,81.341C-43.64,81.269 -43.943,81.067 -44.262,80.93C-44.703,80.738 -44.854,80.422 -44.636,80.155C-43.602,78.882 -42.448,77.79 -40.9,77.115C-39.627,76.56 -38.432,75.826 -37.205,75.164C-36.743,74.915 -36.315,74.921 -35.976,75.344C-34.948,76.627 -33.622,76.73 -32.196,76.264C-30.985,75.868 -29.754,75.481 -28.618,74.917C-22.56,71.912 -16.873,68.324 -11.747,63.891C-8.557,61.132 -5.922,57.904 -3.739,54.299C-2.418,52.118 -1.263,49.832 0.461,47.907C1.09,47.204 1.354,46.337 1.156,45.317C1.054,44.792 1.232,44.174 1.405,43.638C2.991,38.72 3.628,33.678 3.433,28.467" style="fill:rgb(179,221,235);fill-rule:nonzero;"/>
                    </g>
                    <g transform="matrix(1,0,0,1,231.944,218.529)">
                        <path d="M0,17.127C0,16.854 0.034,16.726 -0.007,16.628C-0.09,16.431 -0.213,16.25 -0.319,16.061C-0.461,16.191 -0.709,16.308 -0.726,16.452C-0.778,16.899 -0.775,17.36 -0.724,17.807C-0.705,17.966 -0.486,18.102 -0.358,18.248C-0.284,18.161 -0.165,18.084 -0.143,17.985C-0.068,17.651 -0.029,17.31 0,17.127M-4.232,17.133C-4.268,16.716 -4.258,16.361 -4.344,16.03C-4.377,15.904 -4.621,15.815 -4.786,15.754C-4.825,15.74 -4.97,15.903 -5.001,16.005C-5.214,16.693 -5.18,17.373 -4.862,18.026C-4.813,18.127 -4.718,18.207 -4.644,18.296C-4.571,18.22 -4.457,18.155 -4.433,18.067C-4.346,17.739 -4.289,17.403 -4.232,17.133M-19.942,14.507C-19.136,14.081 -18.466,13.542 -18.371,12.547C-18.364,12.473 -18.496,12.358 -18.588,12.308C-18.667,12.266 -18.792,12.26 -18.877,12.292C-19.673,12.59 -20.147,13.161 -20.268,14.006C-20.281,14.098 -20.228,14.212 -20.174,14.295C-20.121,14.377 -20.027,14.432 -19.942,14.507M-8.279,15.486C-8.465,15.604 -8.712,15.68 -8.827,15.847C-9.242,16.455 -9.191,17.153 -9.106,17.842C-9.093,17.945 -8.967,18.128 -8.933,18.119C-8.756,18.075 -8.484,18.017 -8.442,17.896C-8.22,17.251 -8.034,16.591 -7.896,15.923C-7.873,15.809 -8.143,15.633 -8.279,15.486M-13.924,16.404C-13.924,16.853 -13.951,16.975 -13.919,17.08C-13.854,17.294 -13.758,17.5 -13.675,17.709C-13.522,17.545 -13.323,17.406 -13.223,17.215C-12.85,16.504 -12.465,15.786 -12.594,14.937C-12.609,14.838 -12.714,14.675 -12.773,14.677C-12.958,14.683 -13.257,14.7 -13.305,14.806C-13.581,15.423 -13.798,16.067 -13.924,16.404M23.508,12.298C23.602,12.298 23.744,12.343 23.813,12.291C24.684,11.634 25.153,10.75 25.227,9.665C25.233,9.579 25.117,9.453 25.026,9.403C24.94,9.357 24.778,9.341 24.709,9.392C23.816,10.051 23.519,11.048 23.25,12.052C23.237,12.104 23.408,12.206 23.508,12.298M31.967,5.072C31.862,4.902 31.802,4.805 31.743,4.708C31.647,4.77 31.51,4.81 31.462,4.898C30.856,5.999 30.424,7.153 30.492,8.438C30.496,8.514 30.626,8.628 30.713,8.644C30.813,8.662 31.002,8.618 31.027,8.553C31.353,7.709 31.685,6.865 31.952,6.002C32.046,5.695 31.967,5.335 31.967,5.072M-17.422,16.669C-17.359,16.763 -17.311,16.912 -17.228,16.934C-17.146,16.957 -16.996,16.88 -16.932,16.801C-16.437,16.191 -15.946,15.578 -15.479,14.948C-15.35,14.773 -15.254,14.538 -15.238,14.323C-15.224,14.124 -15.277,13.848 -15.41,13.73C-15.516,13.636 -15.859,13.652 -15.975,13.756C-16.749,14.453 -17.196,15.354 -17.462,16.349C-17.488,16.445 -17.437,16.562 -17.422,16.669M27.069,10.079C27.005,10.364 26.952,10.477 26.965,10.583C26.977,10.681 27.044,10.835 27.115,10.852C27.305,10.898 27.594,10.973 27.696,10.878C28.627,10.007 29.215,8.937 29.416,7.668C29.431,7.567 29.416,7.447 29.374,7.354C29.33,7.259 29.25,7.154 29.159,7.112C29.065,7.069 28.904,7.048 28.831,7.1C27.74,7.868 27.603,9.185 27.069,10.079M-25.503,9.534C-24.263,8.687 -22.817,8.034 -21.676,6.917C-21.46,6.706 -21.476,6.506 -21.696,6.378C-21.786,6.325 -21.907,6.251 -21.992,6.273C-23.566,6.675 -24.828,7.582 -25.896,8.772C-25.993,8.879 -25.919,9.163 -25.88,9.356C-25.868,9.415 -25.706,9.443 -25.503,9.534M-19.788,9.31C-19.989,9.227 -20.22,9.035 -20.389,9.079C-22.396,9.605 -23.6,11.103 -24.669,12.734C-24.744,12.848 -24.617,13.198 -24.479,13.313C-24.373,13.402 -24.041,13.368 -23.915,13.263C-22.96,12.461 -22.024,11.635 -21.096,10.802C-20.678,10.427 -20.285,10.023 -19.893,9.619C-19.825,9.548 -19.821,9.415 -19.788,9.31M-2.493,22.301C-8.569,22.479 -14.536,21.656 -20.448,20.336C-23.06,19.753 -25.568,18.932 -27.949,17.648C-29.982,16.552 -32.15,15.703 -34.273,14.777C-36.717,13.711 -39.176,12.68 -41.629,11.637C-42.731,11.169 -42.822,10.957 -42.516,9.511C-42.348,8.72 -42.584,8.087 -43.284,7.791C-44.133,7.432 -45.012,7.138 -45.895,6.872C-46.67,6.639 -47.475,6.504 -48.253,6.276C-48.412,6.23 -48.529,5.976 -48.618,5.794C-48.643,5.743 -48.508,5.603 -48.432,5.515C-47.838,4.833 -47.071,4.61 -46.234,4.866C-44.447,5.413 -42.618,5.711 -40.77,5.899C-39.733,6.004 -38.68,6.099 -37.645,6.036C-32.776,5.737 -27.93,5.246 -23.164,4.138C-18.752,3.113 -14.399,1.916 -10.152,0.315C-7.203,-0.798 -4.396,-2.147 -1.738,-3.831C-0.959,-4.324 -0.142,-4.758 0.668,-5.201C0.943,-5.352 1.125,-5.236 1.179,-4.938C1.281,-4.369 1.363,-3.795 1.497,-3.233C2.394,0.54 6.103,4.512 11.518,4.36C13.464,4.306 15.158,3.67 16.643,2.471C17.726,1.596 18.722,0.614 19.799,-0.269C20.785,-1.076 21.787,-1.878 22.854,-2.569C24.426,-3.588 26.176,-4.225 28.013,-4.591C29.284,-4.845 30.544,-4.808 31.794,-4.393C33.631,-3.781 34.526,-2.751 34.639,-0.874C34.695,0.048 34.685,0.99 34.564,1.904C34.348,3.531 34.266,5.137 34.699,6.74C34.831,7.228 34.676,7.701 34.332,8.02C30.06,11.978 25.583,15.628 20.221,18.086C13.882,20.993 7.251,22.385 0.294,22.302C-0.635,22.292 -1.564,22.301 -2.493,22.301" style="fill:white;fill-rule:nonzero;"/>
                    </g>
                    <g transform="matrix(1,0,0,1,198.851,174.835)">
                        <path d="M0,11.57C0.093,11.548 0.583,11.533 0.956,11.318C1.853,10.801 2.688,10.177 3.571,9.635C3.682,9.567 4.06,9.684 4.096,9.789C4.204,10.109 4.17,10.473 4.253,10.804C4.439,11.542 5.158,11.924 5.842,11.668C6.165,11.547 6.5,11.437 6.788,11.254C7.373,10.883 7.927,10.463 8.497,10.068C8.827,9.838 9.11,9.902 9.327,10.235C9.453,10.428 9.543,10.65 9.688,10.826C10.317,11.594 11.024,11.732 11.78,11.172C13.933,9.58 15.78,7.678 17.36,5.52C17.45,5.399 17.333,5.126 17.313,4.924C17.114,4.972 16.865,4.961 16.724,5.079C15.838,5.822 14.978,6.595 14.106,7.356C13.323,8.041 12.548,8.735 11.746,9.396C11.598,9.517 11.272,9.604 11.149,9.523C11.013,9.433 10.936,9.117 10.975,8.928C11.043,8.594 11.229,8.287 11.344,7.96C11.42,7.743 11.511,7.509 11.495,7.29C11.48,7.081 11.388,6.816 11.234,6.697C11.094,6.588 10.754,6.544 10.628,6.639C9.706,7.331 8.822,8.074 7.911,8.781C7.457,9.134 6.974,9.452 6.496,9.773C6.415,9.828 6.213,9.86 6.204,9.84C6.114,9.644 5.941,9.388 6.004,9.237C6.311,8.493 6.705,7.786 7.011,7.042C7.077,6.883 6.966,6.573 6.833,6.429C6.701,6.287 6.375,6.147 6.243,6.215C5.734,6.477 5.248,6.796 4.79,7.142C3.59,8.048 2.417,8.989 1.211,9.886C1.079,9.985 0.739,9.968 0.612,9.863C0.486,9.759 0.405,9.417 0.482,9.281C1.403,7.662 2.642,6.287 3.895,4.924C4.359,4.419 4.79,3.882 5.22,3.347C5.269,3.285 5.24,3.061 5.213,3.054C5.02,3.007 4.747,2.903 4.628,2.99C2.367,4.672 0.622,6.816 -0.805,9.224C-1.029,9.602 -1.078,10.094 -1.161,10.542C-1.23,10.916 -0.73,11.51 0,11.57M26.355,-8.451C26.355,-4.756 26.342,-0.583 25.348,3.516C24.607,6.569 23.557,9.507 22.194,12.339C21.579,13.618 20.744,14.674 19.643,15.583C16.578,18.115 13.178,20.086 9.593,21.758C5.48,23.675 1.163,25.013 -3.21,26.173C-8.146,27.482 -13.154,28.403 -18.218,29.084C-21.102,29.471 -23.976,29.733 -26.881,29.681C-28.279,29.656 -29.664,29.538 -30.997,29.088C-31.172,29.028 -31.407,28.826 -31.418,28.674C-31.433,28.48 -31.301,28.21 -31.144,28.076C-29.464,26.652 -27.775,25.237 -26.073,23.839C-9.4,10.152 7.276,-3.533 23.955,-17.213C24.31,-17.504 24.709,-17.743 25.093,-17.998C25.343,-18.163 25.845,-17.914 25.87,-17.615C25.909,-17.154 25.98,-16.695 26.003,-16.234C26.119,-13.801 26.225,-11.367 26.355,-8.451" style="fill:rgb(179,221,235);fill-rule:nonzero;"/>
                    </g>
                    <g transform="matrix(1,0,0,1,215.566,217.174)">
                        <path d="M0,-22.627C0.224,-22.615 0.526,-22.678 0.6,-22.576C0.698,-22.441 0.682,-22.145 0.598,-21.975C0.447,-21.667 0.223,-21.391 0.008,-21.118C-1.861,-18.74 -3.908,-16.532 -6.236,-14.594C-11.072,-10.568 -16.29,-7.134 -22.004,-4.481C-23.048,-3.997 -24.091,-3.426 -25.307,-3.527C-25.519,-3.544 -25.818,-3.643 -25.898,-3.796C-25.981,-3.957 -25.925,-4.3 -25.796,-4.442C-24.866,-5.47 -23.887,-6.454 -22.957,-7.482C-22.656,-7.815 -22.45,-8.236 -22.221,-8.628C-22.205,-8.655 -22.353,-8.843 -22.427,-8.845C-22.64,-8.851 -22.893,-8.863 -23.063,-8.761C-24.053,-8.165 -25.053,-7.578 -25.997,-6.913C-29.136,-4.696 -32.493,-2.871 -35.991,-1.303C-37.693,-0.54 -39.449,0.051 -41.372,-0.194C-41.845,-0.255 -42.185,-0.794 -41.949,-1.188C-41.713,-1.583 -41.508,-2.011 -41.207,-2.351C-40.514,-3.13 -39.764,-3.858 -39.051,-4.62C-38.576,-5.127 -38.106,-5.641 -37.678,-6.186C-37.561,-6.334 -37.533,-6.773 -37.579,-6.791C-37.877,-6.912 -38.275,-7.101 -38.516,-6.991C-39.25,-6.658 -39.915,-6.177 -40.629,-5.794C-42.058,-5.028 -43.456,-4.176 -44.949,-3.561C-48.568,-2.067 -52.334,-1.681 -56.197,-2.412C-56.284,-2.428 -56.414,-2.543 -56.418,-2.616C-56.428,-2.826 -56.463,-3.151 -56.348,-3.233C-54.561,-4.512 -52.744,-5.748 -50.95,-7.017C-49.723,-7.886 -48.521,-8.788 -47.311,-9.681C-47.057,-9.868 -47.03,-10.067 -47.234,-10.2C-47.314,-10.252 -47.463,-10.277 -47.542,-10.238C-51.699,-8.193 -55.887,-6.201 -59.279,-2.922C-59.701,-2.514 -60.296,-2.386 -60.898,-2.546C-60.997,-2.573 -61.106,-2.669 -61.148,-2.762C-61.193,-2.858 -61.212,-3.026 -61.157,-3.099C-60.948,-3.372 -60.732,-3.65 -60.471,-3.87C-57.624,-6.251 -54.742,-8.59 -51.93,-11.012C-50.961,-11.847 -49.933,-12.117 -48.723,-11.959C-48.034,-11.869 -47.327,-11.853 -46.656,-11.687C-43.562,-10.921 -40.426,-11.023 -37.314,-11.361C-29.342,-12.228 -21.526,-13.885 -13.881,-16.328C-9.559,-17.71 -5.401,-19.458 -1.484,-21.76C-0.985,-22.054 -0.483,-22.344 0,-22.627" style="fill:rgb(125,128,139);fill-rule:nonzero;"/>
                    </g>
                    <g transform="matrix(1,0,0,1,176.293,235.186)">
                        <path d="M0,-14.984C-0.048,-14.758 -0.115,-14.534 -0.14,-14.305C-0.207,-13.675 -0.554,-13.254 -1.08,-12.938C-3.065,-11.741 -5.003,-10.456 -7.038,-9.351C-13.456,-5.867 -19.901,-2.433 -26.354,0.986C-28.814,2.289 -31.382,3.366 -34.035,4.223C-34.58,4.398 -35.155,4.502 -35.724,4.564C-35.875,4.58 -36.074,4.336 -36.218,4.181C-36.286,4.107 -36.336,3.925 -36.293,3.856C-36.05,3.466 -35.816,3.057 -35.505,2.723C-33.68,0.769 -31.706,-1.028 -29.547,-2.602C-26.737,-4.651 -23.892,-6.653 -21.029,-8.627C-15.875,-12.18 -10.697,-15.698 -5.53,-19.231C-5.042,-19.564 -4.635,-19.447 -4.589,-18.901C-4.54,-18.317 -4.536,-17.741 -4.098,-17.288C-3.58,-16.752 -2.901,-16.605 -2.199,-16.554C-1.622,-16.513 -1.041,-16.524 -0.461,-16.494C0.165,-16.462 0.377,-16.197 0.229,-15.641C0.17,-15.417 0.077,-15.203 0,-14.984" style="fill:rgb(125,128,139);fill-rule:nonzero;"/>
                    </g>
                    <g transform="matrix(1,0,0,1,181.808,242.774)">
                        <path d="M0,-19.647C-0.23,-19.399 -0.453,-19.133 -0.704,-18.897C-1.455,-18.193 -1.837,-17.444 -1.145,-16.465C-1.057,-16.34 -1.133,-16.031 -1.229,-15.862C-1.336,-15.671 -1.536,-15.516 -1.725,-15.39C-2.497,-14.879 -3.283,-14.389 -4.059,-13.884C-7.55,-11.612 -11.057,-9.365 -14.524,-7.058C-18.188,-4.619 -21.904,-2.275 -25.893,-0.392C-27.253,0.25 -28.617,0.895 -30.132,1.081C-30.315,1.103 -30.607,0.962 -30.701,0.807C-30.8,0.643 -30.805,0.323 -30.707,0.157C-30.416,-0.337 -30.114,-0.85 -29.71,-1.247C-28.308,-2.624 -26.931,-4.043 -25.417,-5.29C-20.41,-9.414 -15.225,-13.294 -9.591,-16.544C-7.687,-17.643 -5.804,-18.781 -3.951,-19.963C-2.754,-20.727 -1.569,-20.75 -0.333,-20.175C-0.182,-20.105 -0.119,-19.844 0,-19.647" style="fill:rgb(125,128,139);fill-rule:nonzero;"/>
                    </g>
                    <g transform="matrix(1,0,0,1,277.234,134.944)">
                        <path d="M0,7.234C-0.014,5.16 0.707,3.54 2.527,2.567C3.337,2.134 4.196,1.76 5.074,1.495C7.837,0.659 10.606,-0.159 13.396,-0.895C15.96,-1.572 18.554,-2.139 21.14,-2.727C21.255,-2.754 21.45,-2.533 21.564,-2.392C21.601,-2.348 21.52,-2.171 21.452,-2.085C21.312,-1.905 21.161,-1.728 20.988,-1.579C18.265,0.754 15.454,2.967 12.366,4.814C10.284,6.059 8.244,7.374 6.172,8.636C5.178,9.241 4.111,9.667 2.942,9.825C1.746,9.988 0.606,9.331 0.216,8.178C0.105,7.853 0.061,7.506 0,7.234" style="fill:rgb(125,128,139);fill-rule:nonzero;"/>
                    </g>
                    <g transform="matrix(1,0,0,1,187.308,240.206)">
                        <path d="M0,-12.805C-0.013,-12.696 0.017,-12.54 -0.044,-12.484C-1.468,-11.176 -2.499,-9.508 -4.174,-8.404C-6.584,-6.817 -8.825,-4.976 -11.18,-3.303C-12.497,-2.367 -13.86,-1.481 -15.276,-0.708C-16.236,-0.184 -17.111,0.777 -18.414,0.317C-18.165,-0.771 -17.226,-1.306 -16.504,-1.992C-12.397,-5.905 -8.044,-9.52 -3.421,-12.811C-2.339,-13.582 -1.281,-13.507 -0.155,-13.065C-0.081,-13.036 -0.051,-12.894 0,-12.805" style="fill:rgb(125,128,139);fill-rule:nonzero;"/>
                    </g>
                    <g transform="matrix(1,0,0,1,283.735,173.706)">
                        <path d="M0,-1.134C-0.81,-0.268 -1.162,0.858 -1.724,1.866C-1.942,2.257 -2.281,2.582 -2.581,2.924C-2.617,2.965 -2.781,2.948 -2.839,2.9C-2.922,2.833 -3.004,2.716 -3.01,2.615C-3.022,2.387 -3.044,2.134 -2.966,1.928C-2.231,-0.019 -1.478,-1.96 -0.719,-3.897C-0.685,-3.983 -0.507,-4.099 -0.454,-4.075C-0.26,-3.985 0.027,-3.873 0.067,-3.715C0.211,-3.16 0.266,-2.583 0.354,-2.014L0,-1.134Z" style="fill-rule:nonzero;"/>
                    </g>
                    <g transform="matrix(1,0,0,1,260.044,141.381)">
                        <path d="M0,2.442C-0.038,2.8 -0.075,3.379 -0.168,3.948C-0.333,4.963 -1.369,5.764 -2.44,5.705C-4.209,5.608 -5.548,4.789 -6.279,3.17C-6.953,1.677 -6.71,0.256 -5.737,-1.077C-4.098,-3.322 -1.529,-2.753 -0.501,-0.483C-0.109,0.382 0.001,1.29 0,2.442" style="fill-rule:nonzero;"/>
                    </g>
                    <g transform="matrix(1,0,0,1,271.06,216.288)">
                        <path d="M0,-0.43C0,-0.883 -0.007,-1.337 0.001,-1.79C0.015,-2.586 0.229,-2.898 0.599,-2.699C1.054,-2.453 1.236,-2.062 1.23,-1.604C1.216,-0.589 1.186,0.429 1.079,1.437C1.05,1.708 0.755,1.981 0.528,2.196C0.24,2.468 -0.02,2.053 -0.026,1.269C-0.028,1.043 -0.021,0.816 -0.021,0.59C-0.02,0.25 -0.021,-0.09 -0.021,-0.43L0,-0.43Z" style="fill-rule:nonzero;"/>
                    </g>
                    <g transform="matrix(1,0,0,1,276.955,173.39)">
                        <path d="M0,5.025C-0.076,4.952 -0.172,4.892 -0.219,4.805C-0.268,4.715 -0.314,4.585 -0.284,4.499C0.286,2.877 1.095,1.39 2.281,0.133C2.384,0.025 2.734,0 2.844,0.09C2.985,0.206 3.104,0.506 3.055,0.675C2.562,2.35 1.566,3.708 0.299,4.88C0.22,4.954 0.096,4.98 0,5.025" style="fill-rule:nonzero;"/>
                    </g>
                    <g transform="matrix(1,0,0,1,272.805,175.148)">
                        <path d="M0,3.511C-0.084,3.451 -0.187,3.407 -0.247,3.328C-0.308,3.25 -0.377,3.121 -0.352,3.044C0.01,1.937 0.6,0.965 1.451,0.171C1.576,0.055 1.907,0 2.029,0.084C2.181,0.187 2.231,0.459 2.287,0.668C2.313,0.766 2.27,0.899 2.222,0.998C1.77,1.941 1.168,2.768 0.325,3.401C0.238,3.466 0.109,3.475 0,3.511" style="fill-rule:nonzero;"/>
                    </g>
                    <g transform="matrix(1,0,0,1,240.899,210.708)">
                        <path d="M0,2.665C-0.08,2.775 -0.13,2.894 -0.219,2.95C-0.276,2.985 -0.42,2.959 -0.477,2.907C-1.287,2.168 -1.541,1.171 -1.696,0.145C-1.715,0.023 -1.474,-0.165 -1.32,-0.275C-1.258,-0.32 -1.039,-0.274 -1.004,-0.21C-0.523,0.701 -0.099,1.636 0,2.665" style="fill-rule:nonzero;"/>
                    </g>
                    <g transform="matrix(1,0,0,1,274.642,211.259)">
                        <path d="M0,1.543C-0.106,1.862 -0.162,2.078 -0.253,2.277C-0.286,2.35 -0.408,2.429 -0.483,2.424C-0.588,2.417 -0.756,2.354 -0.778,2.278C-1.008,1.523 -1.26,0.77 -1.399,-0.004C-1.447,-0.27 -1.196,-0.591 -1.081,-0.886C-0.824,-0.712 -0.41,-0.585 -0.34,-0.354C-0.145,0.289 -0.093,0.975 0,1.543" style="fill-rule:nonzero;"/>
                    </g>
                    <g transform="matrix(1,0,0,1,270.387,178.377)">
                        <path d="M0,-1.917C0.023,-1.813 0.077,-1.706 0.065,-1.606C-0.023,-0.881 -0.454,-0.359 -0.99,0.088C-1.065,0.151 -1.254,0.199 -1.296,0.158C-1.423,0.035 -1.622,-0.196 -1.58,-0.28C-1.279,-0.888 -0.933,-1.474 -0.58,-2.054C-0.544,-2.113 -0.363,-2.116 -0.263,-2.093C-0.167,-2.07 -0.087,-1.978 0,-1.917" style="fill-rule:nonzero;"/>
                    </g>
                    <g transform="matrix(1,0,0,1,277,206.137)">
                        <path d="M0,1.194C-0.152,1.383 -0.217,1.529 -0.279,1.528C-0.472,1.526 -0.731,1.533 -0.841,1.418C-1.245,0.997 -1.342,0.47 -1.168,-0.09C-1.139,-0.185 -1.037,-0.306 -0.951,-0.322C-0.865,-0.339 -0.708,-0.265 -0.668,-0.187C-0.423,0.285 -0.202,0.77 0,1.194" style="fill-rule:nonzero;"/>
                    </g>
                    <g transform="matrix(1,0,0,1,242.231,211.532)">
                        <path d="M0,-1.441C0.668,-1.374 0.855,-0.83 1.081,-0.334C1.109,-0.271 1.052,-0.123 0.988,-0.075C0.917,-0.023 0.777,0 0.697,-0.034C0.159,-0.264 -0.187,-0.661 -0.251,-1.256C-0.257,-1.308 -0.088,-1.379 0,-1.441" style="fill-rule:nonzero;"/>
                    </g>
                    <g transform="matrix(-0.896817,0.442401,0.442401,0.896817,278.724,202.628)">
                        <path d="M0.442,-1.756C-0.047,-1.374 -0.186,-0.51 0.162,0.021C0.2,0.079 0.386,0.115 0.442,0.075C0.929,-0.269 1.055,-1.108 0.702,-1.649C0.657,-1.716 0.525,-1.725 0.442,-1.756" style="fill-rule:nonzero;"/>
                    </g>
                    <g transform="matrix(1,0,0,1,236.601,149.137)">
                        <path d="M0,-6.97C-0.073,-6.883 -0.128,-6.762 -0.221,-6.714C-1.715,-5.929 -2.688,-4.663 -3.504,-3.234C-4.134,-2.131 -4.814,-1.057 -5.48,0.026C-5.637,0.281 -5.862,0.342 -5.975,0.154C-6.083,-0.028 -6.186,-0.3 -6.128,-0.479C-5.517,-2.363 -4.604,-4.104 -3.334,-5.617C-2.597,-6.496 -1.715,-7.289 -0.436,-7.31C-0.331,-7.312 -0.21,-7.267 -0.125,-7.205C-0.06,-7.158 -0.04,-7.051 0,-6.97" style="fill-rule:nonzero;"/>
                    </g>
                    <g transform="matrix(1,0,0,1,231.718,211.648)">
                        <path d="M0,-3.242C0.016,-3.139 0.08,-3.013 0.042,-2.937C-0.831,-1.207 -2.289,-0.224 -4.113,0.274C-4.177,0.291 -4.345,0.15 -4.359,0.065C-4.373,-0.02 -4.274,-0.15 -4.191,-0.221C-2.977,-1.26 -1.757,-2.292 -0.54,-3.326C-0.297,-3.533 -0.118,-3.506 0,-3.242" style="fill-rule:nonzero;"/>
                    </g>
                    <g transform="matrix(1,0,0,1,228.471,210.478)">
                        <path d="M0,-2.584C-0.044,-2.368 -0.03,-2.112 -0.144,-1.941C-0.945,-0.729 -2.143,-0.102 -3.51,0.248C-3.602,0.271 -3.721,0.205 -3.824,0.17C-4.119,0.068 -4.139,-0.106 -3.863,-0.315C-2.768,-1.144 -1.668,-1.968 -0.563,-2.784C-0.482,-2.843 -0.326,-2.855 -0.229,-2.821C-0.137,-2.788 -0.075,-2.667 0,-2.584" style="fill-rule:nonzero;"/>
                    </g>
                    <g transform="matrix(1,0,0,1,233.946,148.089)">
                        <path d="M0,3.077C-0.138,1.79 0.204,0.626 1.043,-0.373C1.167,-0.521 1.463,-0.639 1.636,-0.595C1.78,-0.559 1.93,-0.274 1.949,-0.085C1.97,0.121 1.857,0.348 1.779,0.557C1.465,1.404 1.129,2.243 0.828,3.094C0.718,3.405 0.604,3.716 0.24,3.687C0.147,3.68 0.083,3.3 0,3.077" style="fill-rule:nonzero;"/>
                    </g>
                    <g transform="matrix(1,0,0,1,231.874,180.863)">
                        <path d="M0,0.18C0.076,-0.159 0.142,-0.491 0.227,-0.819C0.299,-1.094 0.51,-1.224 0.759,-1.089C0.927,-0.999 1.143,-0.779 1.138,-0.624C1.117,-0.063 1.046,0.503 0.916,1.05C0.88,1.2 0.58,1.298 0.387,1.39C0.358,1.404 0.208,1.264 0.188,1.178C0.109,0.851 0.061,0.516 0,0.18" style="fill-rule:nonzero;"/>
                    </g>
                    <g transform="matrix(1,0,0,1,228.972,180.585)">
                        <path d="M0,0.42C0.11,-0.092 0.247,-0.748 0.407,-1.398C0.417,-1.437 0.62,-1.451 0.729,-1.436C0.822,-1.424 0.953,-1.379 0.989,-1.308C1.087,-1.117 1.229,-0.891 1.2,-0.702C1.08,0.075 0.922,0.848 0.729,1.609C0.698,1.732 0.42,1.798 0.247,1.866C0.234,1.871 0.111,1.686 0.098,1.581C0.055,1.249 0.039,0.912 0,0.42" style="fill-rule:nonzero;"/>
                    </g>
                    <g transform="matrix(1,0,0,1,238.089,153.339)">
                        <path d="M0,-0.346C-0.024,-0.012 -0.035,0.325 -0.077,0.657C-0.113,0.951 -0.293,1.079 -0.525,0.965C-0.711,0.873 -0.937,0.744 -1.014,0.573C-1.317,-0.102 -1.188,-0.733 -0.674,-1.269C-0.604,-1.342 -0.435,-1.425 -0.384,-1.392C-0.236,-1.297 -0.062,-1.164 -0.015,-1.011C0.048,-0.806 0,-0.569 0,-0.346" style="fill-rule:nonzero;"/>
                    </g>
                    <g transform="matrix(1,0,0,1,235.066,182.364)">
                        <path d="M0,-2.432C0.085,-2.359 0.227,-2.3 0.248,-2.212C0.411,-1.551 0.558,-0.886 0.685,-0.218C0.695,-0.161 0.532,-0.02 0.44,-0.01C0.344,0 0.212,-0.078 0.137,-0.156C-0.486,-0.802 -0.627,-1.538 -0.229,-2.354C-0.203,-2.405 -0.079,-2.407 0,-2.432" style="fill-rule:nonzero;"/>
                    </g>
                    <g transform="matrix(1,0,0,1,223.528,208.479)">
                        <path d="M0,-0.869C0,-0.781 0.037,-0.661 -0.006,-0.615C-0.388,-0.203 -0.797,0.18 -1.421,0.122C-1.518,0.113 -1.626,0.039 -1.692,-0.037C-1.731,-0.081 -1.73,-0.225 -1.689,-0.263C-1.286,-0.645 -0.886,-1.049 -0.268,-1.02C-0.175,-1.015 -0.086,-0.92 0,-0.869" style="fill-rule:nonzero;"/>
                    </g>
                    <g transform="matrix(1,0,0,1,212.156,231.656)">
                        <path d="M0,-3.817C-0.034,-3.712 -0.037,-3.578 -0.105,-3.507C-0.497,-3.104 -0.89,-2.7 -1.309,-2.325C-2.237,-1.491 -3.172,-0.666 -4.127,0.136C-4.253,0.242 -4.585,0.275 -4.691,0.186C-4.829,0.071 -4.956,-0.279 -4.881,-0.393C-3.812,-2.024 -2.609,-3.522 -0.601,-4.047C-0.432,-4.092 -0.202,-3.9 0,-3.817" style="fill-rule:nonzero;"/>
                    </g>
                    <g transform="matrix(1,0,0,1,206.44,224.78)">
                        <path d="M0,3.283C-0.203,3.192 -0.365,3.164 -0.376,3.106C-0.416,2.912 -0.489,2.629 -0.393,2.521C0.675,1.331 1.937,0.425 3.512,0.022C3.597,0 3.717,0.075 3.808,0.127C4.028,0.256 4.043,0.455 3.827,0.666C2.686,1.783 1.241,2.436 0,3.283" style="fill-rule:nonzero;"/>
                    </g>
                    <g transform="matrix(1,0,0,1,259.013,226.472)">
                        <path d="M0,2.136C0.534,1.242 0.671,-0.075 1.762,-0.843C1.835,-0.895 1.996,-0.874 2.09,-0.83C2.181,-0.788 2.261,-0.684 2.305,-0.589C2.347,-0.496 2.362,-0.376 2.347,-0.275C2.146,0.994 1.559,2.065 0.627,2.935C0.525,3.031 0.236,2.955 0.046,2.909C-0.024,2.893 -0.092,2.739 -0.104,2.64C-0.117,2.534 -0.063,2.421 0,2.136" style="fill-rule:nonzero;"/>
                    </g>
                    <g transform="matrix(1,0,0,1,214.521,232.453)">
                        <path d="M0,2.746C-0.015,2.639 -0.066,2.522 -0.04,2.425C0.226,1.431 0.673,0.529 1.447,-0.167C1.563,-0.271 1.907,-0.287 2.012,-0.194C2.146,-0.076 2.199,0.2 2.184,0.4C2.168,0.615 2.072,0.849 1.943,1.024C1.476,1.655 0.985,2.267 0.491,2.877C0.427,2.956 0.277,3.033 0.194,3.011C0.111,2.988 0.063,2.839 0,2.746" style="fill-rule:nonzero;"/>
                    </g>
                    <g transform="matrix(1,0,0,1,263.911,226.827)">
                        <path d="M0,-3.225C0,-2.962 0.079,-2.602 -0.016,-2.295C-0.282,-1.432 -0.614,-0.588 -0.94,0.255C-0.965,0.321 -1.154,0.364 -1.254,0.346C-1.341,0.331 -1.472,0.216 -1.476,0.14C-1.543,-1.144 -1.111,-2.299 -0.505,-3.4C-0.457,-3.488 -0.32,-3.527 -0.225,-3.589C-0.165,-3.492 -0.105,-3.395 0,-3.225" style="fill-rule:nonzero;"/>
                    </g>
                    <g transform="matrix(1,0,0,1,255.452,227.915)">
                        <path d="M0,2.912C-0.101,2.82 -0.271,2.718 -0.258,2.666C0.011,1.662 0.308,0.665 1.201,0.006C1.27,-0.045 1.432,-0.028 1.518,0.017C1.608,0.067 1.725,0.193 1.719,0.279C1.645,1.364 1.176,2.248 0.305,2.905C0.235,2.957 0.094,2.912 0,2.912" style="fill-rule:nonzero;"/>
                    </g>
                    <g transform="matrix(1,0,0,1,218.019,234.509)">
                        <path d="M0,0.425C0.126,0.088 0.343,-0.556 0.62,-1.173C0.667,-1.279 0.966,-1.297 1.151,-1.302C1.21,-1.304 1.315,-1.141 1.33,-1.043C1.459,-0.194 1.075,0.525 0.701,1.236C0.601,1.426 0.402,1.566 0.249,1.729C0.166,1.52 0.07,1.315 0.005,1.101C-0.026,0.996 0,0.874 0,0.425" style="fill-rule:nonzero;"/>
                    </g>
                    <g transform="matrix(1,0,0,1,223.665,236.658)">
                        <path d="M0,-2.642C0.136,-2.495 0.406,-2.32 0.383,-2.205C0.245,-1.538 0.059,-0.877 -0.164,-0.232C-0.205,-0.111 -0.477,-0.054 -0.654,-0.009C-0.688,0 -0.814,-0.183 -0.827,-0.287C-0.913,-0.975 -0.963,-1.674 -0.548,-2.282C-0.434,-2.449 -0.187,-2.524 0,-2.642" style="fill-rule:nonzero;"/>
                    </g>
                    <g transform="matrix(1,0,0,1,212.002,230.789)">
                        <path d="M0,2.247C-0.085,2.172 -0.179,2.117 -0.232,2.036C-0.286,1.953 -0.339,1.838 -0.326,1.746C-0.205,0.901 0.269,0.33 1.065,0.032C1.149,0 1.275,0.006 1.354,0.048C1.446,0.098 1.578,0.213 1.571,0.288C1.476,1.282 0.806,1.821 0,2.247" style="fill-rule:nonzero;"/>
                    </g>
                    <g transform="matrix(1,0,0,1,227.711,235.433)">
                        <path d="M0,0.23C-0.056,0.5 -0.113,0.836 -0.201,1.164C-0.225,1.252 -0.339,1.317 -0.412,1.393C-0.485,1.303 -0.581,1.224 -0.629,1.123C-0.947,0.469 -0.982,-0.21 -0.769,-0.898C-0.737,-1 -0.592,-1.163 -0.554,-1.149C-0.389,-1.089 -0.145,-0.999 -0.112,-0.873C-0.026,-0.542 -0.035,-0.187 0,0.23" style="fill-rule:nonzero;"/>
                    </g>
                    <g transform="matrix(1,0,0,1,231.944,235.711)">
                        <path d="M0,-0.055C-0.029,0.128 -0.068,0.469 -0.143,0.803C-0.165,0.902 -0.284,0.979 -0.358,1.066C-0.486,0.92 -0.705,0.784 -0.724,0.625C-0.775,0.178 -0.778,-0.283 -0.726,-0.73C-0.709,-0.874 -0.461,-0.991 -0.319,-1.121C-0.213,-0.932 -0.09,-0.751 -0.007,-0.554C0.034,-0.456 0,-0.328 0,-0.055" style="fill-rule:nonzero;"/>
                    </g>
                    <g transform="matrix(1,0,0,1,198.851,178.092)">
                        <path d="M0,8.313C-0.73,8.253 -1.23,7.659 -1.161,7.285C-1.078,6.837 -1.029,6.345 -0.805,5.967C0.622,3.559 2.367,1.415 4.628,-0.267C4.747,-0.354 5.02,-0.25 5.213,-0.203C5.24,-0.196 5.269,0.028 5.22,0.09C4.79,0.625 4.359,1.162 3.895,1.667C2.642,3.03 1.403,4.405 0.482,6.024C0.405,6.16 0.486,6.502 0.612,6.606C0.739,6.711 1.079,6.728 1.211,6.629C2.417,5.732 3.59,4.791 4.79,3.885C5.248,3.539 5.734,3.22 6.243,2.958C6.375,2.89 6.701,3.03 6.833,3.172C6.966,3.316 7.077,3.626 7.011,3.785C6.705,4.529 6.311,5.236 6.004,5.98C5.941,6.131 6.114,6.387 6.204,6.583C6.213,6.603 6.415,6.571 6.496,6.516C6.974,6.195 7.457,5.877 7.911,5.524C8.822,4.817 9.706,4.074 10.628,3.382C10.754,3.287 11.094,3.331 11.234,3.44C11.388,3.559 11.48,3.824 11.495,4.033C11.511,4.252 11.42,4.486 11.344,4.703C11.229,5.03 11.043,5.337 10.975,5.671C10.936,5.86 11.013,6.176 11.149,6.266C11.272,6.347 11.598,6.26 11.746,6.139C12.548,5.478 13.323,4.784 14.106,4.099C14.978,3.338 15.838,2.565 16.724,1.822C16.865,1.704 17.114,1.715 17.313,1.667C17.333,1.869 17.45,2.142 17.36,2.263C15.78,4.421 13.933,6.323 11.78,7.915C11.024,8.475 10.317,8.337 9.688,7.569C9.543,7.393 9.453,7.171 9.327,6.978C9.11,6.645 8.827,6.581 8.497,6.811C7.927,7.206 7.373,7.626 6.788,7.997C6.5,8.18 6.165,8.29 5.842,8.411C5.158,8.667 4.439,8.285 4.253,7.547C4.17,7.216 4.204,6.852 4.096,6.532C4.06,6.427 3.682,6.31 3.571,6.378C2.688,6.92 1.853,7.544 0.956,8.061C0.583,8.276 0.093,8.291 0,8.313" style="fill-rule:nonzero;"/>
                    </g>
                    <g transform="matrix(1,0,0,1,260.044,129.507)">
                        <path d="M0,-4.273C-1.492,-3.291 -3.012,-2.634 -4.52,-1.956L-6.78,-0.971C-7.537,-0.639 -8.279,-0.302 -9.093,0.084C-8.709,-0.736 -8.061,-1.392 -7.372,-1.948C-6.676,-2.504 -5.9,-2.928 -5.104,-3.285C-4.306,-3.64 -3.473,-3.898 -2.622,-4.079C-1.769,-4.247 -0.899,-4.357 0,-4.273" style="fill:white;fill-rule:nonzero;"/>
                    </g>
                    <g transform="matrix(1,0,0,1,248.772,133.314)">
                        <path d="M0,-5.447C-0.261,-4.828 -0.595,-4.318 -0.942,-3.826C-1.297,-3.343 -1.671,-2.89 -2.063,-2.461C-2.458,-2.033 -2.866,-1.627 -3.287,-1.229C-3.714,-0.829 -4.149,-0.461 -4.63,0C-4.72,-0.682 -4.482,-1.33 -4.21,-1.902C-3.924,-2.475 -3.555,-2.989 -3.134,-3.443C-2.713,-3.899 -2.246,-4.304 -1.729,-4.649C-1.208,-4.987 -0.655,-5.287 0,-5.447" style="fill:white;fill-rule:nonzero;"/>
                    </g>
                    <g transform="matrix(1,0,0,1,240.602,137.671)">
                        <path d="M0,-4.357C-0.181,-3.845 -0.399,-3.446 -0.624,-3.06C-0.851,-2.681 -1.088,-2.333 -1.338,-2.001C-1.59,-1.669 -1.84,-1.348 -2.124,-1.027C-2.414,-0.706 -2.688,-0.375 -3.092,0C-3.283,-0.507 -3.268,-1.042 -3.148,-1.533C-3.02,-2.021 -2.799,-2.481 -2.5,-2.871C-2.203,-3.264 -1.842,-3.601 -1.428,-3.865C-1.009,-4.119 -0.548,-4.327 0,-4.357" style="fill:white;fill-rule:nonzero;"/>
                    </g>
                    <g transform="matrix(1,0,0,1,221.807,182.738)">
                        <path d="M0,-2.085C0.445,-5.46 0.879,-8.837 1.053,-12.222C1.14,-13.908 1.207,-15.609 1.038,-17.25C0.998,-17.659 0.928,-18.059 0.84,-18.439C0.741,-18.798 0.616,-19.192 0.437,-19.373C0.395,-19.415 0.355,-19.428 0.324,-19.469C0.284,-19.471 0.262,-19.482 0.227,-19.495C0.179,-19.477 0.149,-19.489 0.09,-19.477L-0.121,-19.383C-0.254,-19.342 -0.457,-19.2 -0.622,-19.113C-0.795,-19.02 -0.969,-18.908 -1.144,-18.792C-3.924,-16.935 -6.632,-14.848 -9.318,-12.78C-12.011,-10.708 -14.695,-8.623 -17.364,-6.516L-33.438,6.06C-38.799,10.249 -44.206,14.386 -49.653,18.474C-44.563,13.948 -39.393,9.516 -34.148,5.176C-28.915,0.822 -23.613,-3.45 -18.259,-7.659C-15.569,-9.747 -12.876,-11.832 -10.146,-13.873C-7.394,-15.891 -4.688,-17.944 -1.734,-19.754C-1.551,-19.868 -1.363,-19.98 -1.159,-20.083C-0.943,-20.186 -0.796,-20.298 -0.525,-20.393L-0.141,-20.528C0.006,-20.559 0.193,-20.555 0.356,-20.553C0.525,-20.522 0.707,-20.453 0.86,-20.377C0.988,-20.278 1.128,-20.17 1.228,-20.056C1.613,-19.581 1.696,-19.116 1.817,-18.664C1.908,-18.213 1.957,-17.768 1.982,-17.33C2.078,-15.575 1.934,-13.866 1.758,-12.163C1.343,-8.766 0.768,-5.405 0,-2.085" style="fill:white;fill-rule:nonzero;"/>
                    </g>
                    <g transform="matrix(1,0,0,1,143.831,219.736)">
                        <path d="M0,16.913C1.92,15.254 3.921,13.715 5.95,12.217C7.974,10.711 10.045,9.276 12.126,7.855C14.222,6.456 16.328,5.072 18.481,3.758C20.629,2.437 22.806,1.159 25.064,0C23.145,1.66 21.144,3.201 19.115,4.698C17.091,6.203 15.02,7.638 12.938,9.058C10.841,10.455 8.735,11.839 6.582,13.153C4.433,14.474 2.257,15.753 0,16.913" style="fill:white;fill-rule:nonzero;"/>
                    </g>
                </g>
            </g>
        </g>
    </g>
</svg>
