<?xml version="1.0" encoding="UTF-8" standalone="no"?>
<!DOCTYPE svg PUBLIC "-//W3C//DTD SVG 1.1//EN" "http://www.w3.org/Graphics/SVG/1.1/DTD/svg11.dtd">
<svg width="100%" height="100%" viewBox="0 0 534 534" version="1.1" xmlns="http://www.w3.org/2000/svg" xmlns:xlink="http://www.w3.org/1999/xlink" xml:space="preserve" xmlns:serif="http://www.serif.com/" style="fill-rule:evenodd;clip-rule:evenodd;stroke-linejoin:round;stroke-miterlimit:2;">
    <rect id="bird01" x="0" y="0" width="533.333" height="533.333" style="fill:none;"/>
    <g id="bird011" serif:id="bird01">
        <g transform="matrix(2.87313,0,0,2.87313,-107.502,-49.7446)">
            <g transform="matrix(1,0,0,1,140.806,74.0427)">
                <path d="M0,17.239C0.195,17.163 0.41,17.117 0.58,17.004C0.875,16.805 0.963,16.226 0.732,16.177C0.557,16.14 0.337,16.166 0.178,16.244C-0.008,16.336 -0.148,16.518 -0.311,16.658C-0.542,16.856 -0.538,17.032 -0.286,17.167C-0.202,17.213 -0.096,17.216 0,17.239M-74.805,-20.022C-74.884,-20.104 -74.988,-20.266 -75.033,-20.251C-75.769,-20.007 -76.499,-19.746 -77.223,-19.47C-77.277,-19.449 -77.327,-19.267 -77.294,-19.203C-77.249,-19.114 -77.132,-19.026 -77.031,-19.003C-76.19,-18.812 -75.455,-18.953 -74.944,-19.723C-74.882,-19.817 -74.848,-19.928 -74.805,-20.022M-48.868,-14.461C-48.862,-14.561 -48.818,-14.68 -48.857,-14.758C-49.266,-15.558 -49.706,-16.337 -50.649,-16.619C-50.736,-16.645 -50.865,-16.599 -50.949,-16.546C-51.029,-16.494 -51.145,-16.372 -51.128,-16.313C-50.835,-15.258 -50.115,-14.609 -49.104,-14.261C-49.054,-14.244 -48.948,-14.39 -48.868,-14.461M-50.682,-12.502C-50.78,-12.46 -50.897,-12.438 -50.971,-12.369C-51.033,-12.312 -51.1,-12.174 -51.071,-12.117C-50.603,-11.159 -49.881,-10.45 -48.91,-10.007C-48.817,-9.965 -48.678,-9.973 -48.578,-10.009C-48.273,-10.115 -48.208,-10.306 -48.409,-10.511C-49.049,-11.165 -49.695,-11.814 -50.352,-12.451C-50.417,-12.514 -50.569,-12.487 -50.682,-12.502M-77.804,-14.518C-77.653,-14.518 -77.521,-14.481 -77.43,-14.526C-77.244,-14.619 -77.021,-14.72 -76.921,-14.884C-76.768,-15.135 -76.914,-15.304 -77.191,-15.411C-77.833,-15.657 -78.447,-15.979 -79.1,-16.181C-79.396,-16.273 -79.759,-16.167 -80.088,-16.12C-80.177,-16.107 -80.301,-15.995 -80.319,-15.91C-80.34,-15.813 -80.286,-15.675 -80.22,-15.589C-79.602,-14.782 -78.647,-14.73 -77.804,-14.518M-40.193,22.289C-40.313,22.355 -40.48,22.396 -40.49,22.461C-40.519,22.643 -40.559,22.914 -40.459,23.012C-39.413,24.048 -38.28,24.97 -36.859,25.455C-36.786,25.48 -36.65,25.396 -36.577,25.326C-36.526,25.279 -36.49,25.134 -36.522,25.093C-37.445,23.925 -38.587,23.016 -39.881,22.296C-39.968,22.247 -40.104,22.289 -40.193,22.289M-30.284,41.086C-29.999,41.065 -29.874,41.085 -29.775,41.043C-29.576,40.958 -29.392,40.84 -29.201,40.735C-29.348,40.576 -29.465,40.336 -29.646,40.269C-31.026,39.763 -32.368,39.115 -33.864,39.003C-33.945,38.996 -34.063,39.12 -34.117,39.21C-34.155,39.274 -34.15,39.417 -34.103,39.471C-33.047,40.682 -31.599,40.928 -30.284,41.086M-83.001,-14.575C-83.12,-14.466 -83.228,-14.403 -83.28,-14.309C-83.325,-14.227 -83.353,-14.077 -83.308,-14.014C-82.354,-12.674 -80.982,-11.953 -79.458,-11.471C-79.372,-11.444 -79.25,-11.508 -79.15,-11.546C-78.892,-11.645 -78.839,-11.863 -79.088,-12.053C-80.074,-12.805 -81.07,-13.545 -82.088,-14.252C-82.35,-14.433 -82.708,-14.476 -83.001,-14.575M-31.52,42.73C-31.574,42.627 -31.601,42.48 -31.686,42.428C-33.476,41.348 -35.397,40.561 -37.377,39.909C-37.439,39.888 -37.594,40.02 -37.64,40.113C-37.68,40.194 -37.667,40.36 -37.608,40.422C-36.311,41.79 -33.488,42.988 -31.742,42.913C-31.665,42.91 -31.593,42.794 -31.52,42.73M-6.195,23.714C-4.335,23.711 -2.866,22.725 -1.632,21.292C-1.574,21.225 -1.571,21.011 -1.625,20.968C-1.78,20.841 -2.011,20.652 -2.152,20.692C-2.802,20.88 -3.44,21.118 -4.067,21.377C-5.006,21.763 -5.941,22.164 -6.855,22.606C-7,22.676 -7.106,23.011 -7.075,23.198C-7.048,23.36 -6.813,23.502 -6.647,23.62C-6.563,23.68 -6.428,23.67 -6.195,23.714M-10.4,28.647C-7.962,28.595 -5.95,28.094 -4.029,27.208C-3.628,27.023 -3.343,26.577 -3.551,26.428C-3.721,26.306 -3.943,26.125 -4.114,26.152C-6.633,26.54 -9.147,26.952 -11.658,27.39C-11.814,27.417 -11.942,27.702 -12.053,27.885C-12.204,28.134 -11.887,28.467 -11.464,28.518C-11.005,28.573 -10.546,28.629 -10.4,28.647M-13.075,31.804L-13.075,31.87C-14.565,31.942 -16.056,32.012 -17.546,32.086C-17.775,32.097 -18.004,32.119 -18.232,32.14C-18.67,32.179 -19.028,32.557 -18.818,32.754C-18.593,32.965 -18.31,33.245 -18.042,33.257C-16.553,33.326 -15.054,33.427 -13.574,33.316C-11.864,33.187 -10.168,32.861 -8.472,32.585C-8.3,32.557 -8.168,32.283 -8.018,32.123C-8.213,32.017 -8.407,31.822 -8.604,31.818C-10.094,31.792 -11.584,31.804 -13.075,31.804M-35.419,32.105C-34.877,32.08 -33.826,32.096 -32.792,31.97C-30.954,31.744 -29.118,31.47 -27.296,31.138C-26.624,31.015 -25.981,30.699 -25.345,30.424C-24.759,30.17 -24.372,29.245 -24.569,28.652C-24.679,28.324 -24.819,28.005 -24.961,27.689C-25.675,26.097 -25.657,26.021 -24.136,25.478C-23.045,25.088 -21.936,24.749 -20.843,24.363C-20.079,24.093 -19.312,23.818 -18.578,23.479C-17.634,23.045 -17.233,22.281 -17.321,21.229C-17.34,21 -17.379,20.763 -17.459,20.549C-17.78,19.696 -17.279,19.251 -16.645,18.875C-15.55,18.225 -14.421,17.627 -13.36,16.927C-12.528,16.378 -12.274,15.362 -12.719,14.458C-13.02,13.845 -13.424,13.267 -13.871,12.75C-14.065,12.527 -14.476,12.47 -14.8,12.385C-15.156,12.292 -15.54,12.634 -15.459,12.943C-15.402,13.166 -15.337,13.388 -15.257,13.604C-14.759,14.941 -14.494,15.252 -16.069,16.141C-16.776,16.54 -17.522,16.881 -18.188,17.337C-18.751,17.723 -19.305,18.176 -19.718,18.712C-20.208,19.345 -19.764,20.041 -19.593,20.701C-19.564,20.812 -19.507,20.957 -19.551,21.04C-19.706,21.333 -19.835,21.725 -20.09,21.862C-20.698,22.187 -21.369,22.4 -22.021,22.636C-23.111,23.032 -24.228,23.362 -25.291,23.818C-25.917,24.087 -26.495,24.502 -27.034,24.929C-27.75,25.495 -27.846,26.364 -27.354,27.089C-27.289,27.184 -27.216,27.276 -27.141,27.364C-26.989,27.539 -26.82,27.701 -26.682,27.886C-26.008,28.781 -26.177,29.416 -27.175,29.634C-29.215,30.078 -31.262,30.443 -33.358,30.569C-35.554,30.701 -37.742,30.987 -39.93,31.233C-40.118,31.254 -40.307,31.461 -40.45,31.622C-40.583,31.773 -40.146,32.098 -39.745,32.101C-38.47,32.112 -37.195,32.105 -35.419,32.105M-49.567,32.665C-49.434,29.919 -49.168,27.75 -48.623,25.59C-47.625,21.639 -46.239,17.828 -44.794,14.032C-44.344,12.85 -43.723,11.739 -43.847,10.381C-43.896,9.839 -43.583,9.262 -43.422,8.705C-42.724,6.282 -42.779,3.878 -43.706,1.532C-44.951,-1.621 -46.579,-4.57 -48.867,-7.09C-51.931,-10.464 -55.781,-12.079 -60.35,-11.917C-63.277,-11.813 -66.091,-11.1 -68.87,-10.245C-73.541,-8.808 -78.081,-7.054 -82.337,-4.616C-84.561,-3.343 -86.93,-2.397 -89.383,-1.661C-89.808,-1.534 -90.396,-1.869 -90.456,-2.262C-90.698,-3.873 -90.806,-5.469 -90.562,-7.11C-89.901,-11.552 -88.329,-15.618 -85.889,-19.377C-84.849,-20.979 -83.518,-22.211 -81.825,-23.086C-78.606,-24.749 -75.271,-26.052 -71.656,-26.548C-69.933,-26.785 -68.218,-27.081 -66.492,-27.296C-65.329,-27.44 -64.206,-27.227 -63.065,-26.898C-55.11,-24.598 -49.032,-19.871 -44.717,-12.84C-43.563,-10.96 -42.455,-9.052 -41.346,-7.145C-40.523,-5.729 -39.647,-4.394 -38.156,-3.546C-37.57,-3.213 -37.133,-2.613 -36.643,-2.12C-34.623,-0.095 -32.18,1.182 -29.452,1.953C-29.005,2.079 -28.551,2.187 -28.094,2.267C-22.493,3.241 -16.952,4.551 -11.31,5.3C-10.62,5.391 -9.922,5.433 -9.226,5.466C-2.149,5.806 4.93,6.069 12.016,6.119C13.407,6.129 14.797,6.213 16.187,6.278C16.614,6.298 16.909,6.924 16.663,7.342C15.898,8.639 15.177,9.969 14.312,11.198C10.899,16.043 7.354,20.787 3.267,25.097C0.787,27.712 -1.836,30.173 -4.608,32.48C-10.037,36.998 -16.262,40.064 -22.822,42.521C-24.566,43.175 -26.37,43.599 -28.227,43.813C-29.841,43.999 -31.447,44.26 -33.059,44.468C-33.627,44.542 -34.223,44.679 -34.771,44.584C-38.802,43.885 -42.701,42.812 -46.082,40.359C-47.128,39.599 -48.091,38.754 -48.622,37.551C-48.947,36.816 -49.232,36.037 -49.363,35.25C-49.533,34.224 -49.532,33.171 -49.567,32.665" style="fill:rgb(138,179,134);fill-rule:nonzero;"/>
            </g>
            <g transform="matrix(1,0,0,1,137.854,104.82)">
                <path d="M0,22.855C-0.048,22.764 -0.084,22.604 -0.147,22.592C-0.948,22.448 -1.698,22.643 -2.387,23.033C-2.54,23.119 -2.629,23.414 -2.645,23.621C-2.666,23.894 -2.158,24.198 -1.888,24.076C-1.27,23.798 -0.664,23.493 -0.063,23.176C-0.003,23.145 -0.019,22.966 0,22.855M-5.002,27.711C-4.023,27.806 -3.189,27.457 -2.4,26.969C-2.315,26.916 -2.209,26.737 -2.237,26.687C-2.324,26.534 -2.46,26.315 -2.597,26.301C-3.513,26.205 -4.424,26.26 -5.264,26.685C-5.439,26.773 -5.575,26.998 -5.66,27.191C-5.765,27.43 -5.362,27.726 -5.002,27.711M-20.822,26.043C-20.859,25.961 -20.876,25.829 -20.937,25.804C-21.721,25.486 -22.504,25.617 -23.262,25.887C-23.415,25.941 -23.578,26.246 -23.561,26.418C-23.544,26.584 -23.327,26.815 -23.154,26.865C-22.468,27.062 -21.783,27.016 -21.184,26.591C-21.017,26.473 -20.939,26.23 -20.822,26.043M-40.639,21.619C-40.639,21.716 -40.676,21.836 -40.633,21.905C-39.912,23.063 -38.846,23.597 -37.499,23.586C-37.409,23.585 -37.298,23.468 -37.237,23.378C-37.191,23.309 -37.162,23.153 -37.203,23.11C-38.176,22.084 -39.232,21.518 -40.374,21.417C-40.456,21.41 -40.551,21.549 -40.639,21.619M-5.536,31.959C-5.077,31.883 -4.395,31.798 -3.731,31.636C-3.614,31.608 -3.551,31.268 -3.507,31.062C-3.491,30.982 -3.612,30.789 -3.646,30.795C-5.062,31.031 -6.376,30.331 -7.761,30.361C-8.204,30.371 -8.645,30.532 -9.081,30.645C-9.134,30.659 -9.183,30.807 -9.179,30.891C-9.175,31.002 -9.153,31.155 -9.078,31.215C-8.094,32.002 -6.891,31.779 -5.536,31.959M-45.324,20.747C-45.545,20.837 -45.66,20.856 -45.731,20.922C-45.805,20.99 -45.903,21.134 -45.877,21.193C-44.982,23.22 -42.71,24.89 -40.627,25.058C-40.527,25.065 -40.408,25.003 -40.32,24.941C-40.234,24.881 -40.149,24.789 -40.116,24.693C-40.083,24.599 -40.085,24.399 -40.122,24.386C-41.785,23.8 -42.952,22.505 -44.306,21.48C-44.658,21.213 -45.023,20.963 -45.324,20.747M-24.948,28.874C-25.232,28.874 -26.147,28.855 -27.061,28.891C-27.248,28.898 -27.427,29.116 -27.61,29.236C-27.49,29.417 -27.41,29.687 -27.242,29.765C-25.295,30.665 -23.274,30.733 -21.216,30.228C-21.112,30.202 -20.995,30.124 -20.939,30.035C-20.887,29.952 -20.898,29.822 -20.901,29.713C-20.903,29.608 -20.896,29.438 -20.952,29.409C-22.017,28.857 -23.188,29.059 -24.948,28.874M-28.111,30.853C-28.117,30.873 -28.123,30.894 -28.128,30.915C-28.352,30.865 -28.575,30.813 -28.8,30.768C-29.188,30.69 -29.594,30.922 -29.542,31.212C-29.506,31.41 -29.427,31.686 -29.28,31.765C-27.321,32.818 -25.234,33.367 -22.997,33.284C-22.572,33.268 -22.199,32.964 -22.366,32.745C-22.496,32.576 -22.617,32.324 -22.789,32.276C-24.558,31.782 -26.336,31.322 -28.111,30.853M-26.435,35.301C-26.015,35.268 -25.767,35.298 -25.562,35.217C-25.395,35.15 -25.17,34.951 -25.17,34.81C-25.169,34.621 -25.32,34.313 -25.476,34.26C-28.196,33.337 -30.965,32.557 -33.606,31.403C-33.755,31.338 -34.011,31.519 -34.218,31.585C-34.157,31.68 -34.116,31.798 -34.034,31.869C-31.785,33.798 -29.14,34.826 -26.435,35.301M-50.299,19.515C-50.536,19.678 -50.576,19.879 -50.423,20.123C-48.882,22.568 -47.028,24.736 -44.738,26.513C-44.473,26.719 -44.152,26.858 -43.846,27.005C-43.756,27.048 -43.614,27.044 -43.52,27.004C-43.272,26.9 -43.199,26.668 -43.394,26.454C-45.252,24.423 -47.118,22.398 -48.996,20.385C-49.303,20.056 -49.672,19.784 -50.027,19.502C-50.08,19.459 -50.207,19.508 -50.299,19.515M-25.998,37.254C-29.478,36.501 -32.46,35.552 -35.309,34.218C-36.885,33.48 -38.459,32.725 -39.966,31.859C-41.27,31.111 -42.578,30.313 -43.709,29.335C-47.67,25.907 -51.313,22.174 -54.202,17.764C-57.429,12.837 -59.566,7.501 -60.393,1.651C-60.652,-0.186 -60.927,-2.026 -61.309,-3.84C-61.827,-6.303 -62.205,-6.153 -59.468,-7.458C-58.003,-8.157 -56.516,-8.815 -55.009,-9.421C-52.188,-10.556 -49.596,-12.074 -47.199,-13.938C-46.65,-14.366 -46.086,-14.779 -45.5,-15.15C-45.371,-15.231 -45.105,-15.127 -44.918,-15.062C-44.863,-15.043 -44.818,-14.854 -44.844,-14.766C-45.004,-14.209 -45.152,-13.645 -45.368,-13.109C-46.715,-9.752 -47.481,-6.241 -48.186,-2.711C-48.575,-0.76 -48.633,1.213 -48.524,3.186C-48.341,6.499 -47.005,9.213 -44.26,11.187C-42.458,12.481 -40.567,13.581 -38.466,14.324C-35.722,15.296 -32.916,16.022 -30.045,16.466C-24.999,17.246 -19.946,17.976 -14.847,18.337C-13.104,18.461 -11.375,18.445 -9.633,18.306C-7.204,18.111 -4.767,18.022 -2.332,17.916C-2.009,17.902 -1.535,17.943 -1.378,18.147C-0.913,18.755 -0.677,18.787 -0.25,18.094C-0.042,17.756 0.483,17.546 0.907,17.423C1.907,17.132 2.944,16.966 3.946,16.681C6.573,15.932 8.902,14.708 10.489,12.373C10.851,11.841 11.375,11.649 11.979,11.64C14.196,11.605 16.39,11.391 18.479,10.606C19.193,10.338 19.762,10.436 20.458,10.681C21.199,10.941 22.044,10.97 22.846,10.981C24.469,11.003 26.094,10.942 27.718,10.926C27.823,10.924 27.929,11.016 28.035,11.063C27.955,11.237 27.918,11.509 27.788,11.568C27.153,11.849 26.505,12.11 25.841,12.312C23.17,13.123 20.601,14.188 18.065,15.347C16.904,15.877 15.711,16.327 15.068,17.583C14.943,17.827 14.443,17.856 14.169,18.057C14.036,18.154 13.937,18.443 13.981,18.602C14.035,18.799 14.223,19.05 14.406,19.106C15.177,19.343 15.97,19.511 16.752,19.714C17.1,19.805 17.283,20.294 17.084,20.553C16.944,20.736 16.843,20.955 16.681,21.113C16.267,21.519 15.825,21.897 15.399,22.291C14.294,23.317 13.158,24.312 12.093,25.379C6.084,31.403 -1.205,34.967 -9.462,36.726C-12.313,37.333 -15.21,37.514 -18.095,37.804C-20.894,38.086 -23.649,37.563 -25.998,37.254" style="fill:rgb(246,224,126);fill-rule:nonzero;"/>
            </g>
            <g transform="matrix(1,0,0,1,84.8311,72.284)">
                <path d="M0,16.444C0.118,16.566 0.249,16.806 0.363,16.798C0.677,16.775 1.007,16.692 1.282,16.542C1.388,16.484 1.383,16.182 1.382,15.992C1.381,15.937 1.212,15.832 1.126,15.838C0.676,15.871 0.25,15.974 0,16.444M-18.803,-1.898C-19.016,-1.883 -19.473,-1.866 -19.927,-1.813C-20.673,-1.727 -21.342,-0.985 -21.431,-0.172C-21.655,1.877 -19.516,3.59 -17.588,2.905C-15.797,2.27 -15.314,0.069 -16.669,-1.267C-17.198,-1.789 -17.854,-1.915 -18.803,-1.898M10.926,6.59C10.941,9.93 9.922,12.251 7.978,14.061C5.767,16.12 3.278,17.846 0.696,19.423C0.275,19.681 -0.185,19.703 -0.64,19.538C-1.859,19.098 -3.106,18.868 -4.4,19.038C-4.591,19.063 -4.774,19.24 -4.935,19.377C-5.114,19.53 -4.855,20.08 -4.529,20.229C-4.32,20.324 -4.097,20.389 -3.877,20.461C-3.66,20.533 -3.434,20.582 -3.222,20.668C-3.129,20.705 -2.993,20.821 -3.003,20.879C-3.021,20.978 -3.125,21.076 -3.215,21.144C-4.189,21.881 -5.266,22.198 -6.483,21.923C-6.936,21.819 -7.389,21.712 -7.845,21.628C-8.647,21.48 -8.95,21.706 -8.773,22.534C-8.628,23.215 -8.739,23.623 -9.343,23.951C-10.177,24.404 -11.033,24.67 -12.003,24.622C-13.891,24.527 -15.682,24.056 -17.367,23.24C-22.236,20.881 -26.516,17.737 -29.979,13.548C-30.495,12.925 -30.991,12.256 -31.34,11.533C-32.658,8.8 -33.679,5.968 -33.908,2.908C-33.943,2.449 -33.623,1.943 -33.216,1.812C-32.553,1.599 -31.887,1.396 -31.218,1.199C-28.869,0.509 -26.653,-0.479 -24.478,-1.605C-18.982,-4.45 -13.199,-6.516 -7.113,-7.683C-5.051,-8.078 -2.972,-8.226 -0.889,-7.727C1.799,-7.082 4.042,-5.709 5.837,-3.622C7.748,-1.4 9.213,1.111 10.287,3.823C10.707,4.881 10.811,6.065 10.926,6.59" style="fill:white;fill-rule:nonzero;"/>
            </g>
            <g transform="matrix(1,0,0,1,112.472,81.8377)">
                <path d="M0,37.777C0.779,37.135 1.726,37.076 2.595,36.948C4.57,36.658 6.423,36.005 8.265,35.291C8.806,35.082 9.334,34.838 9.878,34.636C18.664,31.377 25.974,25.943 32.469,19.309C37.037,14.645 40.98,9.478 44.661,4.103C45.71,2.572 46.774,1.044 47.458,-0.704C47.644,-1.179 48.038,-1.426 48.534,-1.441C49.345,-1.466 50.16,-1.483 50.97,-1.441C58.279,-1.062 65.561,-0.363 72.825,0.518C73.509,0.601 74.209,0.642 74.785,1.122C75.024,1.321 75.056,1.459 74.88,1.714C74.394,2.422 73.633,2.757 72.917,3.105C70.933,4.068 68.918,4.969 66.908,5.875C65.214,6.639 63.497,7.349 61.812,8.13C58.296,9.758 54.628,10.761 50.751,10.992C49.135,11.089 47.499,11.063 45.932,11.569C45.855,11.593 45.806,11.759 45.782,11.867C45.766,11.944 45.792,12.094 45.835,12.109C46.159,12.22 46.49,12.381 46.823,12.389C48.679,12.436 50.54,12.515 52.393,12.437C53.512,12.39 54.451,12.694 55.319,13.316C56.26,13.99 57.186,14.686 58.095,15.403C58.593,15.797 58.673,16.774 58.316,17.328C57.539,18.537 56.481,19.437 55.165,19.974C54.094,20.411 52.992,20.844 51.862,21.048C49.813,21.417 47.76,21.722 45.646,21.708C43.098,21.691 40.548,21.979 38.001,22.161C37.833,22.173 37.68,22.406 37.52,22.537C37.709,22.658 37.892,22.869 38.088,22.884C39.129,22.963 40.172,23.007 41.215,23.033C42.376,23.063 43.539,23.054 44.7,23.071C45.721,23.085 46.464,23.573 46.956,24.45C47.182,24.853 47.451,25.258 47.552,25.696C47.617,25.976 47.508,26.433 47.304,26.609C46.875,26.978 46.328,27.209 45.836,27.508C45.373,27.791 45.242,28.209 45.465,28.693C45.678,29.155 45.677,29.525 45.303,29.93C43.471,31.919 41.108,32.23 38.596,32.128C36.858,32.057 35.114,31.905 33.381,31.985C30.488,32.12 27.603,32.409 24.715,32.644C24.619,32.652 24.532,32.78 24.441,32.852C24.53,32.919 24.615,33.037 24.708,33.044C26.208,33.151 27.707,33.262 29.208,33.336C30.598,33.403 31.99,33.415 33.379,33.491C33.533,33.499 33.745,33.747 33.801,33.924C33.862,34.12 33.851,34.419 33.737,34.573C33.465,34.942 33.15,35.298 32.789,35.578C31.197,36.814 29.362,37.551 27.407,37.925C25.357,38.317 23.296,38.661 21.192,38.718C19.104,38.774 17.02,38.975 14.933,39.095C14.006,39.149 13.068,39.26 12.151,39.173C8.112,38.792 4.035,38.726 0,37.777" style="fill:rgb(125,128,139);fill-rule:nonzero;"/>
            </g>
            <g transform="matrix(1,0,0,1,203.102,113.97)">
                <path d="M0,-10.5C3.591,-10.714 7.179,-10.987 10.773,-11.112C12.148,-11.16 13.537,-10.879 14.917,-10.725C15.22,-10.691 15.316,-10.485 15.209,-10.258C15.161,-10.157 15.113,-10.036 15.029,-9.977C13.568,-8.952 11.858,-8.542 10.167,-8.188C8.016,-7.738 5.86,-7.31 3.656,-7.089C-0.614,-6.662 -4.862,-6.022 -9.126,-5.528C-10.621,-5.354 -12.135,-5.286 -13.641,-5.281C-16.437,-5.271 -19.192,-4.895 -21.95,-4.517C-22.06,-4.502 -22.205,-4.468 -22.26,-4.391C-22.382,-4.22 -22.54,-4.01 -22.529,-3.825C-22.518,-3.633 -22.355,-3.322 -22.207,-3.288C-21.654,-3.16 -21.081,-3.065 -20.515,-3.063C-15.641,-3.05 -10.766,-3.072 -5.892,-3.054C-4.268,-3.048 -2.642,-2.991 -1.021,-2.892C-0.337,-2.85 0.342,-2.663 1.01,-2.49C1.165,-2.45 1.276,-2.201 1.375,-2.03C1.39,-2.005 1.236,-1.845 1.137,-1.799C-1.096,-0.773 -3.475,-0.198 -5.875,0.183C-9.883,0.817 -13.912,1.343 -17.945,1.796C-24.643,2.548 -31.28,3.564 -37.736,5.579C-39.167,6.024 -40.659,6.274 -42.13,6.582C-42.272,6.612 -42.462,6.411 -42.631,6.316C-42.552,6.231 -42.49,6.103 -42.393,6.067C-41.197,5.627 -39.991,5.212 -38.796,4.767C-37.71,4.362 -36.618,3.968 -35.564,3.49C-35.048,3.257 -34.586,2.877 -34.147,2.507C-33.329,1.815 -33.475,0.691 -34.429,0.249C-34.849,0.055 -35.304,-0.06 -35.734,-0.234C-35.827,-0.271 -35.909,-0.399 -35.941,-0.502C-35.964,-0.573 -35.917,-0.716 -35.856,-0.755C-35.467,-0.999 -35.055,-1.208 -34.668,-1.457C-34.283,-1.704 -33.893,-1.955 -33.55,-2.256C-32.925,-2.808 -33.042,-3.922 -33.719,-4.387C-34.412,-4.863 -35.183,-5.091 -36.004,-5.14C-37.278,-5.216 -38.554,-5.248 -39.829,-5.313C-40.51,-5.347 -40.845,-5.631 -41.052,-6.32C-41.153,-6.653 -41.231,-6.993 -41.316,-7.331C-41.525,-8.163 -41.372,-8.444 -40.661,-8.585C-39.411,-8.834 -38.143,-9.021 -36.919,-9.369C-35.923,-9.651 -34.929,-10.035 -34.029,-10.542C-32.157,-11.595 -30.658,-13.038 -30.157,-15.224C-29.97,-16.037 -29.585,-16.477 -28.778,-16.442C-23.317,-16.21 -17.875,-16.705 -12.423,-16.821C-5.462,-16.969 1.502,-17.035 8.465,-17.095C10.433,-17.112 12.402,-16.987 14.371,-16.917C14.451,-16.915 14.603,-16.786 14.593,-16.755C14.53,-16.55 14.487,-16.258 14.336,-16.173C12.604,-15.193 10.725,-14.629 8.778,-14.255C3.643,-13.268 -1.537,-12.653 -6.756,-12.343C-8.494,-12.239 -10.231,-12.124 -11.964,-11.961C-12.406,-11.919 -12.85,-11.715 -13.252,-11.507C-13.401,-11.43 -13.517,-11.121 -13.497,-10.933C-13.477,-10.734 -13.317,-10.446 -13.149,-10.385C-12.729,-10.23 -12.268,-10.095 -11.827,-10.106C-8.464,-10.197 -5.103,-10.321 -1.74,-10.443C-1.161,-10.464 -0.583,-10.523 -0.004,-10.565C-0.002,-10.543 -0.001,-10.521 0,-10.5" style="fill:rgb(138,179,134);fill-rule:nonzero;"/>
            </g>
            <g transform="matrix(1,0,0,1,46.7207,76.3992)">
                <path d="M0,6.405C-0.578,6.405 -1.165,6.472 -1.73,6.39C-2.705,6.249 -3.831,6.732 -4.614,5.74C-4.452,4.738 -3.623,4.223 -2.971,3.622C-1.613,2.371 -0.181,1.201 1.234,0.013C1.639,-0.327 2.227,-0.195 2.344,0.25C2.844,2.141 3.328,4.036 3.814,5.931C3.891,6.231 3.762,6.398 3.453,6.399C2.302,6.403 1.151,6.401 0,6.401L0,6.405" style="fill:rgb(125,128,139);fill-rule:nonzero;"/>
            </g>
            <g transform="matrix(1,0,0,1,165.797,112.274)">
                <path d="M0,-1.052C-0.069,-0.971 -0.122,-0.847 -0.209,-0.814C-1.801,-0.21 -3.401,0.375 -5.103,0.594C-5.197,0.607 -5.306,0.524 -5.403,0.476C-5.644,0.356 -5.617,0.199 -5.465,-0.066C-4.918,-1.02 -4.189,-1.659 -3.021,-1.617C-2.115,-1.585 -1.208,-1.552 -0.303,-1.502C-0.207,-1.497 -0.094,-1.401 -0.03,-1.316C0.016,-1.255 -0.007,-1.142 0,-1.052" style="fill:rgb(246,224,126);fill-rule:nonzero;"/>
            </g>
            <g transform="matrix(1,0,0,1,165.797,108.372)">
                <path d="M0,2.85C-0.007,2.76 0.016,2.647 -0.03,2.586C-0.094,2.501 -0.207,2.405 -0.303,2.4C-1.208,2.35 -2.115,2.317 -3.021,2.285C-4.189,2.243 -4.918,2.882 -5.465,3.836C-5.617,4.101 -5.644,4.258 -5.403,4.378C-5.306,4.426 -5.197,4.509 -5.103,4.496C-3.401,4.277 -1.801,3.692 -0.209,3.088C-0.122,3.055 -0.069,2.931 0,2.85M-119.076,-25.567L-119.076,-25.572C-117.925,-25.572 -116.774,-25.57 -115.624,-25.573C-115.314,-25.575 -115.185,-25.742 -115.262,-26.042C-115.749,-27.936 -116.232,-29.832 -116.732,-31.723C-116.849,-32.167 -117.437,-32.3 -117.842,-31.96C-119.257,-30.772 -120.689,-29.601 -122.047,-28.351C-122.699,-27.75 -123.528,-27.234 -123.69,-26.232C-122.907,-25.241 -121.781,-25.724 -120.807,-25.582C-120.241,-25.501 -119.654,-25.567 -119.076,-25.567M-58.505,58.249C-56.011,58.34 -54.277,58.149 -52.319,57.555C-52.223,57.526 -52.136,57.403 -52.089,57.303C-52.073,57.267 -52.177,57.124 -52.245,57.109C-54.229,56.658 -56.157,55.544 -58.271,56.611C-58.497,56.725 -59.019,56.349 -59.054,56.075C-59.112,55.622 -59.202,55.159 -59.161,54.711C-59.04,53.395 -58.324,52.776 -57.114,52.915C-56.192,53.02 -55.274,53.165 -54.358,53.315C-50.127,54.009 -45.831,54.318 -41.682,55.495C-40.923,55.71 -40.337,55.361 -39.877,54.761C-38.608,53.103 -37.384,51.408 -36.054,49.8C-32.28,45.243 -28.458,40.723 -24.665,36.182C-24.37,35.829 -24.104,35.442 -23.901,35.033C-23.837,34.902 -23.967,34.537 -24.103,34.469C-24.718,34.161 -25.396,33.975 -25.997,33.644C-27.419,32.86 -28.791,32.86 -30.304,33.483C-32.994,34.591 -35.828,35.255 -38.7,35.684C-41.682,36.129 -44.675,36.577 -47.699,36.529C-49.433,36.501 -51.164,36.272 -52.896,36.135C-53.279,36.104 -53.402,36.301 -53.099,36.72C-52.598,37.414 -52.671,38.03 -53.232,38.577C-55.321,40.612 -57.001,42.979 -58.788,45.265C-60.788,47.823 -62.854,50.331 -64.899,52.855C-65.483,53.577 -66.107,54.266 -66.676,54.998C-66.876,55.256 -67.166,55.751 -67.071,55.873C-66.75,56.291 -66.239,56.096 -65.792,55.994C-65.679,55.968 -65.568,55.932 -65.459,55.891C-64.446,55.5 -63.521,55.759 -63.045,56.66C-62.408,57.864 -61.484,58.206 -60.243,58.155C-59.666,58.132 -59.085,58.215 -58.505,58.249M37.305,-4.901C37.303,-4.923 37.302,-4.945 37.301,-4.967C36.722,-4.925 36.144,-4.865 35.564,-4.844C32.202,-4.722 28.84,-4.598 25.478,-4.508C25.037,-4.496 24.576,-4.632 24.156,-4.786C23.988,-4.848 23.828,-5.135 23.808,-5.335C23.788,-5.523 23.904,-5.832 24.053,-5.909C24.455,-6.116 24.898,-6.321 25.341,-6.362C27.074,-6.525 28.811,-6.641 30.549,-6.744C35.768,-7.054 40.947,-7.67 46.083,-8.656C48.03,-9.03 49.909,-9.594 51.641,-10.574C51.792,-10.66 51.834,-10.951 51.898,-11.156C51.907,-11.187 51.755,-11.316 51.675,-11.319C49.707,-11.389 47.738,-11.514 45.77,-11.497C38.807,-11.436 31.843,-11.37 24.881,-11.222C19.43,-11.107 13.988,-10.612 8.527,-10.844C7.719,-10.879 7.334,-10.438 7.148,-9.625C6.646,-7.44 5.147,-5.996 3.276,-4.943C2.375,-4.436 1.381,-4.053 0.385,-3.77C-0.838,-3.423 -2.106,-3.235 -3.356,-2.987C-4.067,-2.846 -4.221,-2.564 -4.011,-1.732C-3.926,-1.394 -3.848,-1.054 -3.748,-0.721C-3.541,-0.033 -3.206,0.251 -2.524,0.286C-1.25,0.35 0.027,0.383 1.301,0.458C2.122,0.507 2.893,0.735 3.585,1.211C4.263,1.676 4.38,2.791 3.754,3.342C3.412,3.643 3.022,3.894 2.637,4.142C2.25,4.391 1.838,4.6 1.448,4.844C1.387,4.882 1.341,5.025 1.363,5.096C1.396,5.2 1.478,5.327 1.571,5.365C2,5.538 2.456,5.654 2.875,5.848C3.83,6.289 3.976,7.414 3.157,8.105C2.719,8.476 2.256,8.855 1.74,9.089C0.687,9.566 -0.406,9.961 -1.492,10.366C-2.686,10.811 -3.892,11.225 -5.088,11.666C-5.185,11.702 -5.248,11.83 -5.326,11.915C-5.158,12.009 -4.967,12.21 -4.825,12.181C-3.354,11.873 -1.862,11.623 -0.432,11.177C6.024,9.162 12.662,8.147 19.359,7.394C23.393,6.941 27.421,6.416 31.43,5.781C33.83,5.401 36.208,4.826 38.442,3.799C38.541,3.753 38.694,3.593 38.68,3.568C38.581,3.397 38.469,3.149 38.314,3.109C37.647,2.935 36.968,2.748 36.284,2.707C34.663,2.608 33.037,2.551 31.413,2.545C26.539,2.527 21.664,2.549 16.79,2.535C16.224,2.533 15.65,2.438 15.098,2.31C14.95,2.276 14.787,1.966 14.775,1.774C14.765,1.589 14.922,1.379 15.044,1.207C15.1,1.13 15.245,1.097 15.354,1.081C18.113,0.704 20.868,0.327 23.664,0.318C25.169,0.313 26.684,0.244 28.178,0.071C32.442,-0.423 36.69,-1.063 40.96,-1.49C43.165,-1.711 45.32,-2.14 47.472,-2.589C49.163,-2.943 50.873,-3.353 52.333,-4.378C52.418,-4.438 52.466,-4.559 52.514,-4.659C52.621,-4.887 52.524,-5.092 52.222,-5.127C50.842,-5.28 49.453,-5.562 48.078,-5.514C44.484,-5.389 40.896,-5.115 37.305,-4.901M-53.325,11.243C-49.29,12.192 -45.212,12.258 -41.174,12.64C-40.257,12.726 -39.318,12.615 -38.392,12.561C-36.305,12.441 -34.221,12.24 -32.132,12.184C-30.028,12.127 -27.968,11.783 -25.918,11.391C-23.963,11.017 -22.127,10.28 -20.536,9.044C-20.175,8.764 -19.859,8.408 -19.588,8.039C-19.474,7.885 -19.462,7.586 -19.524,7.39C-19.58,7.213 -19.792,6.965 -19.945,6.957C-21.334,6.881 -22.727,6.87 -24.116,6.802C-25.618,6.728 -27.117,6.617 -28.616,6.51C-28.709,6.503 -28.795,6.385 -28.884,6.318C-28.792,6.246 -28.706,6.118 -28.61,6.11C-25.722,5.875 -22.836,5.586 -19.943,5.452C-18.211,5.371 -16.467,5.523 -14.729,5.594C-12.216,5.696 -9.854,5.385 -8.021,3.396C-7.648,2.991 -7.647,2.621 -7.86,2.159C-8.083,1.675 -7.952,1.257 -7.489,0.975C-6.997,0.675 -6.45,0.444 -6.021,0.075C-5.816,-0.101 -5.708,-0.558 -5.772,-0.838C-5.874,-1.276 -6.143,-1.681 -6.369,-2.084C-6.861,-2.961 -7.604,-3.449 -8.625,-3.463C-9.786,-3.48 -10.948,-3.471 -12.109,-3.501C-13.152,-3.526 -14.196,-3.571 -15.236,-3.65C-15.433,-3.665 -15.616,-3.876 -15.805,-3.997C-15.645,-4.128 -15.492,-4.361 -15.324,-4.373C-12.777,-4.555 -10.227,-4.843 -7.679,-4.826C-5.564,-4.812 -3.511,-5.117 -1.462,-5.486C-0.333,-5.69 0.77,-6.123 1.84,-6.56C3.157,-7.097 4.214,-7.997 4.992,-9.206C5.348,-9.76 5.268,-10.737 4.77,-11.13C3.861,-11.848 2.935,-12.544 1.994,-13.218C1.126,-13.84 0.187,-14.144 -0.932,-14.097C-2.785,-14.019 -4.646,-14.098 -6.501,-14.145C-6.834,-14.153 -7.166,-14.314 -7.49,-14.425C-7.532,-14.44 -7.559,-14.59 -7.542,-14.667C-7.519,-14.775 -7.469,-14.941 -7.393,-14.965C-5.826,-15.471 -4.19,-15.445 -2.574,-15.542C1.304,-15.773 4.972,-16.776 8.487,-18.404C10.172,-19.185 11.89,-19.895 13.583,-20.659C15.594,-21.565 17.608,-22.466 19.592,-23.429C20.309,-23.777 21.069,-24.112 21.556,-24.819C21.731,-25.075 21.699,-25.212 21.46,-25.412C20.885,-25.892 20.184,-25.933 19.5,-26.016C12.236,-26.897 4.955,-27.596 -2.354,-27.975C-3.165,-28.017 -3.979,-28 -4.791,-27.975C-5.287,-27.96 -5.681,-27.712 -5.867,-27.238C-6.55,-25.49 -7.614,-23.962 -8.664,-22.431C-12.345,-17.056 -16.288,-11.889 -20.855,-7.225C-27.351,-0.591 -34.661,4.843 -43.446,8.102C-43.99,8.304 -44.519,8.548 -45.06,8.757C-46.902,9.471 -48.754,10.124 -50.729,10.414C-51.599,10.542 -52.545,10.601 -53.325,11.243M-70.04,-29.498C-70.155,-30.023 -70.259,-31.206 -70.679,-32.265C-71.753,-34.977 -73.218,-37.487 -75.129,-39.71C-76.924,-41.796 -79.167,-43.17 -81.855,-43.815C-83.938,-44.314 -86.017,-44.166 -88.079,-43.771C-94.165,-42.604 -99.948,-40.538 -105.443,-37.692C-107.619,-36.567 -109.835,-35.578 -112.184,-34.888C-112.853,-34.692 -113.519,-34.488 -114.182,-34.275C-114.588,-34.145 -114.909,-33.639 -114.874,-33.18C-114.645,-30.119 -113.624,-27.287 -112.306,-24.555C-111.957,-23.832 -111.46,-23.162 -110.945,-22.539C-107.481,-18.35 -103.202,-15.206 -98.333,-12.847C-96.648,-12.031 -94.856,-11.561 -92.969,-11.466C-91.999,-11.418 -91.143,-11.683 -90.309,-12.136C-89.705,-12.464 -89.594,-12.873 -89.739,-13.554C-89.916,-14.382 -89.613,-14.608 -88.811,-14.46C-88.354,-14.376 -87.902,-14.268 -87.449,-14.165C-86.231,-13.889 -85.155,-14.207 -84.181,-14.943C-84.09,-15.012 -83.986,-15.11 -83.969,-15.209C-83.958,-15.266 -84.095,-15.382 -84.188,-15.42C-84.399,-15.505 -84.625,-15.555 -84.843,-15.627C-85.063,-15.698 -85.286,-15.763 -85.495,-15.858C-85.821,-16.007 -86.08,-16.557 -85.901,-16.711C-85.74,-16.848 -85.557,-17.025 -85.366,-17.05C-84.072,-17.219 -82.825,-16.989 -81.606,-16.549C-81.15,-16.385 -80.691,-16.407 -80.27,-16.665C-77.688,-18.242 -75.199,-19.967 -72.988,-22.026C-71.044,-23.837 -70.024,-26.158 -70.04,-29.498M-53.94,33.702C-51.592,34.012 -48.836,34.534 -46.037,34.252C-43.152,33.962 -40.256,33.781 -37.405,33.174C-29.147,31.415 -21.858,27.851 -15.85,21.828C-14.785,20.76 -13.648,19.765 -12.543,18.739C-12.118,18.345 -11.676,17.967 -11.261,17.561C-11.099,17.403 -10.998,17.184 -10.858,17.001C-10.66,16.742 -10.842,16.253 -11.19,16.163C-11.973,15.959 -12.765,15.791 -13.536,15.555C-13.719,15.498 -13.907,15.247 -13.961,15.05C-14.005,14.892 -13.906,14.602 -13.773,14.505C-13.499,14.304 -12.999,14.275 -12.874,14.031C-12.231,12.775 -11.038,12.325 -9.877,11.795C-7.342,10.637 -4.772,9.571 -2.101,8.76C-1.437,8.558 -0.789,8.297 -0.155,8.016C-0.024,7.957 0.013,7.685 0.092,7.512C-0.013,7.464 -0.119,7.372 -0.225,7.374C-1.849,7.39 -3.473,7.451 -5.097,7.429C-5.898,7.418 -6.743,7.39 -7.484,7.129C-8.18,6.884 -8.75,6.786 -9.463,7.055C-11.552,7.839 -13.746,8.053 -15.963,8.088C-16.568,8.098 -17.092,8.289 -17.454,8.821C-19.041,11.156 -21.37,12.38 -23.997,13.129C-24.999,13.414 -26.035,13.58 -27.036,13.871C-27.459,13.994 -27.984,14.204 -28.192,14.542C-28.62,15.235 -28.855,15.204 -29.321,14.596C-29.477,14.391 -29.951,14.35 -30.274,14.364C-32.709,14.47 -35.146,14.559 -37.575,14.754C-39.318,14.893 -41.046,14.909 -42.79,14.786C-47.889,14.424 -52.941,13.694 -57.987,12.914C-60.858,12.471 -63.664,11.744 -66.408,10.772C-68.51,10.029 -70.4,8.929 -72.202,7.635C-74.948,5.662 -76.284,2.947 -76.467,-0.366C-76.576,-2.339 -76.518,-4.312 -76.128,-6.263C-75.423,-9.793 -74.657,-13.304 -73.31,-16.661C-73.095,-17.197 -72.947,-17.761 -72.786,-18.317C-72.76,-18.406 -72.806,-18.595 -72.861,-18.614C-73.047,-18.679 -73.313,-18.783 -73.442,-18.702C-74.029,-18.331 -74.592,-17.918 -75.142,-17.49C-77.539,-15.626 -80.13,-14.108 -82.952,-12.973C-84.458,-12.367 -85.945,-11.709 -87.411,-11.01C-90.147,-9.705 -89.77,-9.855 -89.251,-7.392C-88.869,-5.578 -88.594,-3.738 -88.335,-1.9C-87.508,3.949 -85.372,9.286 -82.145,14.212C-79.255,18.622 -75.612,22.355 -71.651,25.783C-70.521,26.762 -69.212,27.559 -67.909,28.308C-66.401,29.173 -64.827,29.929 -63.251,30.666C-60.403,32 -57.42,32.95 -53.94,33.702M-74.558,-1.664C-74.522,-1.158 -74.524,-0.105 -74.354,0.921C-74.223,1.708 -73.938,2.487 -73.613,3.222C-73.082,4.425 -72.119,5.27 -71.072,6.03C-67.691,8.483 -63.792,9.557 -59.762,10.255C-59.214,10.35 -58.618,10.213 -58.049,10.139C-56.438,9.931 -54.832,9.67 -53.217,9.484C-51.361,9.27 -49.557,8.846 -47.813,8.192C-41.252,5.735 -35.027,2.669 -29.599,-1.849C-26.827,-4.156 -24.204,-6.617 -21.724,-9.232C-17.636,-13.542 -14.091,-18.286 -10.679,-23.131C-9.814,-24.359 -9.092,-25.69 -8.328,-26.987C-8.082,-27.405 -8.376,-28.031 -8.804,-28.051C-10.194,-28.116 -11.584,-28.2 -12.975,-28.21C-20.061,-28.26 -27.14,-28.523 -34.217,-28.863C-34.913,-28.896 -35.61,-28.938 -36.3,-29.029C-41.942,-29.777 -47.483,-31.088 -53.084,-32.062C-53.542,-32.142 -53.996,-32.25 -54.442,-32.376C-57.171,-33.147 -59.614,-34.424 -61.633,-36.449C-62.124,-36.942 -62.561,-37.542 -63.146,-37.875C-64.638,-38.723 -65.514,-40.058 -66.337,-41.474C-67.446,-43.381 -68.554,-45.289 -69.708,-47.169C-74.022,-54.2 -80.101,-58.927 -88.056,-61.227C-89.196,-61.556 -90.32,-61.769 -91.483,-61.625C-93.208,-61.41 -94.924,-61.114 -96.647,-60.877C-100.262,-60.38 -103.597,-59.078 -106.815,-57.415C-108.509,-56.54 -109.839,-55.308 -110.879,-53.706C-113.32,-49.947 -114.892,-45.88 -115.553,-41.439C-115.797,-39.797 -115.688,-38.202 -115.446,-36.591C-115.387,-36.198 -114.798,-35.863 -114.374,-35.99C-111.921,-36.726 -109.552,-37.671 -107.328,-38.945C-103.072,-41.383 -98.532,-43.137 -93.861,-44.574C-91.082,-45.429 -88.268,-46.142 -85.341,-46.246C-80.772,-46.408 -76.922,-44.793 -73.857,-41.419C-71.569,-38.899 -69.941,-35.95 -68.696,-32.796C-67.77,-30.451 -67.714,-28.047 -68.413,-25.624C-68.574,-25.067 -68.887,-24.49 -68.838,-23.948C-68.714,-22.59 -69.335,-21.479 -69.785,-20.297C-71.229,-16.501 -72.615,-12.69 -73.613,-8.739C-74.159,-6.579 -74.425,-4.41 -74.558,-1.664M29.315,-12.966C31.868,-13.063 34.421,-13.162 36.974,-13.255C41.965,-13.437 46.957,-13.691 51.952,-13.426C52.873,-13.378 53.802,-13.254 54.698,-13.043C56.021,-12.73 56.349,-11.318 55.348,-10.348C54.935,-9.948 54.48,-9.57 53.99,-9.275C53.195,-8.797 52.347,-8.409 51.539,-7.952C51.381,-7.863 51.289,-7.645 51.2,-7.469C51.187,-7.442 51.347,-7.284 51.447,-7.252C52.222,-7.006 53.013,-6.809 53.775,-6.531C54.203,-6.376 54.604,-6.124 54.984,-5.865C55.505,-5.51 55.536,-4.406 55.058,-3.996C54.795,-3.771 54.535,-3.533 54.242,-3.354C52.447,-2.253 50.527,-1.442 48.478,-0.953C45.542,-0.252 42.604,0.446 39.574,0.616C39.269,0.633 39.163,0.8 39.284,1.098C39.324,1.197 39.398,1.314 39.488,1.353C39.801,1.492 40.137,1.582 40.447,1.725C40.864,1.918 41.287,2.11 41.667,2.362C42.376,2.83 42.336,3.986 41.595,4.421C39.065,5.908 36.319,6.845 33.465,7.433C31.079,7.926 28.672,8.346 26.258,8.668C21.885,9.251 17.499,9.741 13.118,10.262C9.305,10.715 5.556,11.501 1.856,12.507C-0.833,13.239 -3.506,14.025 -6.269,14.437C-7.005,14.547 -7.58,14.895 -8.004,15.481C-8.411,16.043 -8.887,16.59 -9.142,17.221C-9.725,18.668 -10.759,19.754 -11.783,20.863C-14.709,24.029 -17.854,26.943 -21.477,29.311C-21.96,29.627 -21.94,30.162 -21.477,30.379C-20.636,30.774 -19.783,31.142 -18.953,31.556C-18.648,31.707 -18.383,31.944 -18.116,32.162C-17.729,32.475 -17.605,33.368 -17.923,33.767C-18.28,34.217 -18.63,34.703 -19.082,35.041C-21.057,36.52 -22.627,38.376 -24.173,40.27C-26.67,43.329 -29.271,46.306 -31.705,49.414C-33.492,51.696 -35.093,54.125 -36.752,56.505C-37.182,57.121 -36.977,57.469 -36.15,57.662C-35.472,57.82 -34.783,57.938 -34.113,58.124C-32.212,58.654 -31.357,60.007 -31.618,62.082C-31.642,62.271 -31.866,62.454 -32.029,62.602C-32.254,62.806 -32.764,62.722 -32.979,62.478C-33.056,62.393 -33.175,62.328 -33.213,62.23C-33.746,60.821 -34.763,60.349 -36.231,60.501C-37.614,60.644 -39.015,60.613 -40.404,60.713C-41.26,60.774 -41.998,60.649 -42.625,59.997C-43.053,59.552 -43.647,59.506 -44.245,59.552C-45.645,59.661 -46.986,59.999 -48.313,60.454C-51.167,61.432 -54.035,62.369 -56.902,63.308C-57.393,63.469 -57.751,63.779 -57.76,64.264C-57.783,65.453 -58.312,66.467 -58.772,67.504C-58.845,67.667 -59.143,67.803 -59.347,67.818C-59.696,67.845 -60.063,67.714 -60.171,67.341C-60.604,65.859 -60.604,64.37 -60.088,62.907C-59.889,62.343 -59.474,61.942 -58.888,61.732C-58.25,61.504 -57.518,61.457 -57.066,60.851C-57.024,60.795 -57.038,60.637 -57.086,60.59C-57.165,60.516 -57.296,60.454 -57.401,60.459C-58.442,60.515 -59.489,60.533 -60.521,60.667C-61.365,60.777 -62.024,61.251 -62.392,62.062C-62.536,62.379 -62.672,62.701 -62.841,63.004C-63.159,63.578 -63.937,63.984 -64.216,63.72C-64.697,63.265 -64.679,62.687 -64.491,62.114C-64.239,61.341 -63.981,60.569 -63.674,59.817C-63.383,59.103 -64.395,58.267 -65.102,58.235C-65.328,58.225 -65.578,58.247 -65.784,58.334C-67.171,58.918 -68.559,59.502 -69.927,60.129C-71.718,60.948 -73.483,61.823 -75.276,62.638C-75.797,62.874 -76.371,63.104 -76.931,63.133C-78.47,63.212 -79.851,63.869 -81.317,64.201C-82.957,64.572 -84.019,65.43 -84.261,67.164C-84.29,67.371 -84.465,67.583 -84.624,67.74C-84.871,67.983 -85.18,68.18 -85.542,68.012C-85.736,67.921 -85.989,67.769 -86.041,67.594C-86.508,66.023 -85.931,64.221 -84.67,63.241C-84.219,62.89 -83.74,62.577 -83.286,62.229C-83.225,62.183 -83.19,62.002 -83.23,61.947C-83.29,61.864 -83.43,61.788 -83.531,61.794C-84.104,61.831 -84.684,61.858 -85.249,61.957C-86.331,62.146 -87.196,62.65 -87.687,63.705C-87.879,64.119 -88.139,64.534 -88.468,64.84C-88.683,65.04 -89.085,65.138 -89.392,65.116C-89.771,65.088 -89.988,64.709 -89.968,64.364C-89.854,62.358 -88.601,60.689 -86.812,60.259C-84.103,59.607 -81.376,59.032 -78.586,58.818C-78.403,58.804 -78.233,58.613 -78.058,58.505C-78.273,58.433 -78.487,58.305 -78.705,58.299C-79.4,58.281 -80.098,58.318 -80.794,58.314C-82.186,58.308 -83.581,58.335 -84.969,58.256C-85.815,58.207 -86.542,58.319 -87.268,58.805C-87.79,59.155 -88.451,58.698 -88.47,58.085C-88.513,56.687 -87.656,55.701 -86.392,55.919C-82.674,56.563 -78.979,56.08 -75.275,55.843C-74.466,55.791 -73.589,55.571 -72.857,55.797C-71.113,56.336 -70.142,55.663 -69.086,54.302C-66.168,50.541 -63.057,46.93 -60.33,43.019C-59.201,41.4 -58.067,39.785 -56.946,38.16C-56.677,37.769 -56.753,37.17 -57.089,36.901C-57.451,36.611 -57.876,36.387 -58.196,36.058C-59.521,34.695 -61.17,33.915 -62.89,33.175C-65.02,32.258 -67.101,31.211 -69.131,30.089C-70.445,29.363 -71.701,28.491 -72.857,27.532C-76.718,24.329 -80.135,20.692 -83.061,16.613C-87.212,10.822 -89.551,4.338 -90.401,-2.717C-90.609,-4.443 -90.92,-6.161 -91.253,-7.868C-91.396,-8.603 -91.94,-9.087 -92.707,-9.175C-99.915,-10.003 -105.395,-13.981 -110.353,-18.879C-111.671,-20.183 -112.916,-21.57 -113.875,-23.186C-114.109,-23.581 -114.454,-23.85 -115.025,-23.729C-115.813,-23.562 -116.627,-23.384 -117.422,-23.416C-120.089,-23.524 -122.753,-23.714 -125.417,-23.899C-125.753,-23.922 -126.084,-24.083 -126.408,-24.206C-126.856,-24.377 -127.231,-25.307 -126.99,-25.689C-126.683,-26.175 -126.383,-26.68 -125.997,-27.1C-124.105,-29.157 -121.975,-30.957 -119.833,-32.743C-119.12,-33.338 -118.399,-33.925 -117.696,-34.532C-117.32,-34.856 -117.146,-35.317 -117.241,-35.782C-117.644,-37.737 -117.536,-39.718 -117.539,-41.687C-117.543,-44.255 -117.113,-46.771 -116.313,-49.221C-115.875,-50.558 -115.307,-51.841 -114.444,-52.939C-112.726,-55.127 -110.964,-57.235 -108.473,-58.692C-106.068,-60.098 -103.795,-61.721 -101.147,-62.675C-100.492,-62.911 -99.848,-63.178 -99.188,-63.4C-93.472,-65.33 -87.993,-64.908 -82.787,-61.746C-81.2,-60.782 -79.563,-59.896 -78.002,-58.891C-73.831,-56.204 -70.476,-52.718 -67.957,-48.435C-66.662,-46.233 -65.3,-44.068 -64.064,-41.834C-61.597,-37.375 -57.865,-34.712 -52.884,-33.774C-50.488,-33.323 -48.067,-32.997 -45.684,-32.489C-37.918,-30.835 -30.069,-30.258 -22.141,-30.338C-16.451,-30.396 -10.757,-30.28 -5.067,-30.144C-1.469,-30.058 2.134,-29.89 5.719,-29.582C10.114,-29.204 14.497,-28.677 18.876,-28.138C20.135,-27.983 21.368,-27.589 22.598,-27.252C23.037,-27.131 23.441,-26.869 23.847,-26.647C24.308,-26.394 24.529,-25.532 24.224,-25.117C23.883,-24.654 23.569,-24.123 23.116,-23.8C21.89,-22.926 20.659,-22.023 19.318,-21.355C15.578,-19.491 11.792,-17.718 8.001,-15.958C6.85,-15.423 5.619,-15.062 4.442,-14.579C4.308,-14.524 4.26,-14.2 4.223,-13.991C4.209,-13.917 4.332,-13.801 4.413,-13.727C4.952,-13.235 5.585,-13.03 6.317,-13.028C10.034,-13.021 13.751,-12.962 17.468,-12.984C21.416,-13.008 25.363,-13.104 29.311,-13.168C29.312,-13.101 29.314,-13.033 29.315,-12.966" style="fill-rule:nonzero;"/>
            </g>
            <g transform="matrix(1,0,0,1,105.387,86.3409)">
                <path d="M0,19.807C-1.775,19.807 -3.05,19.813 -4.325,19.803C-4.726,19.8 -5.163,19.474 -5.03,19.324C-4.888,19.162 -4.698,18.956 -4.511,18.935C-2.322,18.688 -0.135,18.403 2.062,18.271C4.158,18.145 6.205,17.78 8.245,17.336C9.242,17.118 9.411,16.483 8.738,15.588C8.599,15.403 8.43,15.241 8.279,15.065C8.203,14.978 8.131,14.886 8.066,14.79C7.574,14.066 7.669,13.197 8.385,12.631C8.924,12.204 9.502,11.788 10.129,11.52C11.192,11.064 12.309,10.734 13.398,10.338C14.051,10.101 14.721,9.889 15.329,9.564C15.584,9.427 15.713,9.035 15.868,8.742C15.912,8.659 15.855,8.514 15.827,8.403C15.656,7.743 15.212,7.047 15.701,6.413C16.114,5.878 16.668,5.425 17.231,5.039C17.897,4.582 18.643,4.242 19.35,3.843C20.925,2.953 20.661,2.643 20.163,1.306C20.083,1.09 20.018,0.868 19.96,0.644C19.879,0.336 20.263,-0.006 20.619,0.087C20.944,0.172 21.354,0.228 21.548,0.452C21.995,0.969 22.399,1.547 22.701,2.16C23.146,3.064 22.892,4.079 22.06,4.628C20.998,5.328 19.87,5.927 18.774,6.577C18.14,6.953 17.64,7.397 17.96,8.251C18.041,8.465 18.079,8.702 18.099,8.931C18.186,9.982 17.785,10.746 16.842,11.181C16.107,11.519 15.341,11.794 14.577,12.064C13.484,12.451 12.375,12.79 11.283,13.18C9.762,13.723 9.744,13.799 10.458,15.39C10.601,15.706 10.741,16.026 10.85,16.354C11.048,16.947 10.661,17.871 10.074,18.125C9.438,18.401 8.795,18.717 8.124,18.84C6.301,19.172 4.466,19.446 2.627,19.672C1.594,19.798 0.542,19.782 0,19.807" style="fill-rule:nonzero;"/>
            </g>
            <g transform="matrix(1,0,0,1,127.731,107.459)">
                <path d="M0,-1.612C1.491,-1.612 2.981,-1.624 4.471,-1.598C4.668,-1.594 4.862,-1.399 5.057,-1.293C4.907,-1.133 4.775,-0.859 4.604,-0.831C2.907,-0.555 1.211,-0.229 -0.499,-0.1C-1.979,0.012 -3.478,-0.09 -4.966,-0.159C-5.235,-0.171 -5.518,-0.451 -5.743,-0.662C-5.953,-0.859 -5.595,-1.237 -5.157,-1.276C-4.929,-1.297 -4.7,-1.319 -4.471,-1.33C-2.981,-1.404 -1.49,-1.474 0,-1.546L0,-1.612Z" style="fill-rule:nonzero;"/>
            </g>
            <g transform="matrix(1,0,0,1,130.406,100.168)">
                <path d="M0,2.521C-0.146,2.503 -0.604,2.448 -1.063,2.392C-1.486,2.341 -1.804,2.008 -1.653,1.76C-1.542,1.577 -1.414,1.292 -1.257,1.264C1.253,0.826 3.768,0.415 6.286,0.026C6.457,0 6.679,0.18 6.85,0.303C7.057,0.451 6.772,0.897 6.372,1.082C4.45,1.968 2.438,2.469 0,2.521" style="fill-rule:nonzero;"/>
            </g>
            <g transform="matrix(1,0,0,1,134.611,94.6943)">
                <path d="M0,3.062C-0.233,3.018 -0.368,3.029 -0.452,2.969C-0.618,2.85 -0.853,2.708 -0.88,2.546C-0.911,2.359 -0.804,2.024 -0.66,1.955C0.254,1.512 1.189,1.112 2.128,0.725C2.755,0.467 3.394,0.229 4.043,0.041C4.185,0 4.416,0.189 4.57,0.316C4.624,0.36 4.621,0.574 4.563,0.641C3.329,2.073 1.86,3.06 0,3.062" style="fill-rule:nonzero;"/>
            </g>
            <g transform="matrix(1,0,0,1,109.287,114.189)">
                <path d="M0,2.584C-0.074,2.647 -0.146,2.764 -0.222,2.767C-1.968,2.842 -4.791,1.644 -6.089,0.276C-6.148,0.213 -6.161,0.048 -6.121,-0.034C-6.075,-0.126 -5.92,-0.258 -5.857,-0.237C-3.878,0.415 -1.957,1.202 -0.167,2.282C-0.082,2.334 -0.054,2.481 0,2.584" style="fill-rule:nonzero;"/>
            </g>
            <g transform="matrix(1,0,0,1,57.8052,62.5993)">
                <path d="M0,-3.132C0.292,-3.033 0.651,-2.99 0.913,-2.808C1.931,-2.102 2.927,-1.361 3.913,-0.609C4.162,-0.419 4.109,-0.202 3.851,-0.103C3.751,-0.065 3.629,0 3.542,-0.028C2.019,-0.51 0.647,-1.23 -0.307,-2.571C-0.352,-2.634 -0.324,-2.784 -0.279,-2.866C-0.227,-2.96 -0.119,-3.023 0,-3.132" style="fill-rule:nonzero;"/>
            </g>
            <g transform="matrix(1,0,0,1,110.522,113.039)">
                <path d="M0,2.089C-1.315,1.931 -2.763,1.686 -3.819,0.474C-3.866,0.42 -3.871,0.277 -3.833,0.214C-3.779,0.123 -3.662,0 -3.58,0.006C-2.084,0.119 -0.743,0.767 0.637,1.273C0.818,1.339 0.936,1.579 1.083,1.738C0.892,1.843 0.708,1.961 0.509,2.046C0.41,2.088 0.285,2.068 0,2.089" style="fill-rule:nonzero;"/>
            </g>
            <g transform="matrix(1,0,0,1,100.613,99.48)">
                <path d="M0,-3.148C0.089,-3.148 0.226,-3.19 0.312,-3.142C1.606,-2.421 2.749,-1.512 3.671,-0.345C3.704,-0.303 3.667,-0.158 3.616,-0.111C3.543,-0.042 3.408,0.042 3.334,0.018C1.913,-0.467 0.781,-1.39 -0.266,-2.425C-0.366,-2.523 -0.326,-2.794 -0.297,-2.976C-0.287,-3.042 -0.12,-3.083 0,-3.148" style="fill-rule:nonzero;"/>
            </g>
            <g transform="matrix(1,0,0,1,63.0024,57.8084)">
                <path d="M0,1.716C-0.843,1.504 -1.798,1.452 -2.416,0.645C-2.482,0.559 -2.536,0.421 -2.516,0.324C-2.497,0.239 -2.374,0.127 -2.284,0.114C-1.956,0.068 -1.592,-0.038 -1.296,0.053C-0.644,0.256 -0.029,0.577 0.612,0.823C0.89,0.93 1.036,1.099 0.883,1.35C0.783,1.514 0.56,1.615 0.374,1.708C0.283,1.754 0.15,1.716 0,1.716" style="fill-rule:nonzero;"/>
            </g>
            <g transform="matrix(1,0,0,1,90.1245,64.065)">
                <path d="M0,-2.524C0.112,-2.509 0.265,-2.537 0.33,-2.474C0.986,-1.837 1.632,-1.188 2.273,-0.534C2.474,-0.329 2.408,-0.138 2.104,-0.031C2.003,0.004 1.865,0.013 1.772,-0.029C0.8,-0.472 0.079,-1.181 -0.39,-2.139C-0.418,-2.196 -0.352,-2.335 -0.289,-2.392C-0.215,-2.46 -0.098,-2.482 0,-2.524" style="fill-rule:nonzero;"/>
            </g>
            <g transform="matrix(1,0,0,1,91.9385,57.614)">
                <path d="M0,1.968C-0.08,2.038 -0.186,2.184 -0.236,2.167C-1.247,1.82 -1.967,1.171 -2.26,0.116C-2.277,0.057 -2.162,-0.066 -2.081,-0.117C-1.998,-0.17 -1.869,-0.216 -1.782,-0.19C-0.838,0.092 -0.398,0.87 0.01,1.671C0.05,1.748 0.005,1.868 0,1.968" style="fill-rule:nonzero;"/>
            </g>
            <g transform="matrix(1,0,0,1,66.001,54.9865)">
                <path d="M0,-0.966C-0.043,-0.872 -0.077,-0.76 -0.139,-0.667C-0.649,0.103 -1.385,0.244 -2.226,0.053C-2.327,0.03 -2.443,-0.057 -2.489,-0.147C-2.521,-0.211 -2.472,-0.393 -2.417,-0.414C-1.693,-0.69 -0.963,-0.951 -0.228,-1.195C-0.183,-1.21 -0.079,-1.048 0,-0.966" style="fill-rule:nonzero;"/>
            </g>
            <g transform="matrix(1,0,0,1,140.806,90.1827)">
                <path d="M0,1.099C-0.096,1.076 -0.202,1.073 -0.286,1.027C-0.538,0.892 -0.542,0.716 -0.311,0.518C-0.148,0.378 -0.008,0.196 0.178,0.104C0.337,0.026 0.557,0 0.732,0.037C0.963,0.086 0.875,0.665 0.58,0.864C0.41,0.977 0.195,1.023 0,1.099" style="fill-rule:nonzero;"/>
            </g>
            <g transform="matrix(1,0,0,1,87.5552,131.813)">
                <path d="M0,-7.479C0.093,-7.485 0.219,-7.534 0.272,-7.491C0.627,-7.209 0.997,-6.937 1.304,-6.608C3.181,-4.595 5.047,-2.571 6.905,-0.54C7.101,-0.326 7.027,-0.093 6.779,0.011C6.686,0.05 6.543,0.055 6.453,0.011C6.147,-0.136 5.827,-0.275 5.562,-0.481C3.271,-2.257 1.417,-4.426 -0.124,-6.871C-0.277,-7.114 -0.237,-7.316 0,-7.479" style="fill-rule:nonzero;"/>
            </g>
            <g transform="matrix(1,0,0,1,111.419,136.159)">
                <path d="M0,3.962C-2.705,3.487 -5.35,2.46 -7.599,0.53C-7.681,0.459 -7.722,0.341 -7.783,0.246C-7.576,0.18 -7.32,0 -7.171,0.065C-4.53,1.218 -1.761,1.998 0.959,2.921C1.115,2.974 1.266,3.282 1.265,3.471C1.265,3.612 1.04,3.811 0.873,3.878C0.668,3.959 0.42,3.929 0,3.962" style="fill-rule:nonzero;"/>
            </g>
            <g transform="matrix(1,0,0,1,109.743,138.024)">
                <path d="M0,-2.352C1.775,-1.883 3.554,-1.423 5.322,-0.929C5.494,-0.88 5.615,-0.628 5.745,-0.459C5.913,-0.241 5.54,0.064 5.115,0.079C2.877,0.162 0.79,-0.387 -1.168,-1.44C-1.315,-1.519 -1.395,-1.794 -1.43,-1.992C-1.482,-2.283 -1.077,-2.514 -0.689,-2.437C-0.464,-2.392 -0.241,-2.339 -0.017,-2.29C-0.011,-2.31 -0.005,-2.331 0,-2.352" style="fill-rule:nonzero;"/>
            </g>
            <g transform="matrix(1,0,0,1,112.906,135.533)">
                <path d="M0,-1.839C1.76,-1.654 2.932,-1.856 3.997,-1.304C4.052,-1.275 4.045,-1.105 4.047,-1C4.05,-0.891 4.062,-0.761 4.009,-0.678C3.954,-0.589 3.836,-0.511 3.732,-0.485C1.674,0.02 -0.347,-0.048 -2.293,-0.948C-2.462,-1.027 -2.542,-1.296 -2.662,-1.477C-2.479,-1.597 -2.3,-1.815 -2.112,-1.822C-1.199,-1.859 -0.284,-1.839 0,-1.839" style="fill-rule:nonzero;"/>
            </g>
            <g transform="matrix(1,0,0,1,92.5303,129.885)">
                <path d="M0,-4.319C0.301,-4.103 0.666,-3.853 1.018,-3.586C2.373,-2.56 3.54,-1.265 5.202,-0.679C5.239,-0.667 5.242,-0.467 5.208,-0.373C5.175,-0.277 5.09,-0.185 5.004,-0.124C4.917,-0.063 4.797,0 4.697,-0.008C2.614,-0.176 0.342,-1.846 -0.553,-3.872C-0.579,-3.932 -0.48,-4.075 -0.407,-4.143C-0.335,-4.209 -0.221,-4.228 0,-4.319" style="fill-rule:nonzero;"/>
            </g>
            <g transform="matrix(1,0,0,1,132.318,135.194)">
                <path d="M0,1.585C-1.355,1.405 -2.558,1.628 -3.542,0.841C-3.617,0.781 -3.639,0.628 -3.643,0.517C-3.646,0.433 -3.598,0.285 -3.544,0.271C-3.108,0.158 -2.667,-0.003 -2.225,-0.013C-0.84,-0.043 0.475,0.657 1.89,0.421C1.924,0.415 2.045,0.608 2.029,0.688C1.985,0.894 1.922,1.234 1.805,1.262C1.141,1.424 0.459,1.509 0,1.585" style="fill-rule:nonzero;"/>
            </g>
            <g transform="matrix(1,0,0,1,97.2158,128.209)">
                <path d="M0,-1.77C0.088,-1.839 0.183,-1.978 0.265,-1.972C1.407,-1.871 2.462,-1.304 3.436,-0.279C3.477,-0.235 3.448,-0.08 3.401,-0.011C3.34,0.079 3.23,0.196 3.14,0.197C1.792,0.208 0.727,-0.326 0.006,-1.483C-0.038,-1.553 0,-1.672 0,-1.77" style="fill-rule:nonzero;"/>
            </g>
            <g transform="matrix(1,0,0,1,117.033,131.323)">
                <path d="M0,-0.46C-0.118,-0.274 -0.196,-0.031 -0.362,0.087C-0.961,0.513 -1.647,0.558 -2.333,0.361C-2.505,0.311 -2.723,0.08 -2.739,-0.086C-2.756,-0.258 -2.593,-0.563 -2.44,-0.617C-1.683,-0.886 -0.899,-1.018 -0.116,-0.7C-0.055,-0.675 -0.038,-0.543 0,-0.46" style="fill-rule:nonzero;"/>
            </g>
            <g transform="matrix(1,0,0,1,132.852,131.12)">
                <path d="M0,1.411C-0.36,1.426 -0.763,1.13 -0.658,0.891C-0.573,0.698 -0.437,0.473 -0.261,0.385C0.578,-0.04 1.489,-0.095 2.406,0.001C2.542,0.015 2.679,0.234 2.766,0.387C2.793,0.437 2.688,0.616 2.602,0.669C1.813,1.157 0.979,1.506 0,1.411" style="fill-rule:nonzero;"/>
            </g>
            <g transform="matrix(1,0,0,1,137.854,128.611)">
                <path d="M0,-0.936C-0.019,-0.825 -0.003,-0.646 -0.063,-0.615C-0.664,-0.298 -1.27,0.007 -1.888,0.285C-2.158,0.407 -2.666,0.103 -2.645,-0.17C-2.629,-0.377 -2.54,-0.672 -2.387,-0.758C-1.698,-1.148 -0.948,-1.343 -0.147,-1.199C-0.084,-1.187 -0.048,-1.027 0,-0.936" style="fill-rule:nonzero;"/>
            </g>
            <g transform="matrix(1,0,0,1,66.0278,75.8567)">
                <path d="M0,-5.471C0.949,-5.488 1.605,-5.362 2.134,-4.84C3.489,-3.503 3.006,-1.303 1.215,-0.667C-0.713,0.017 -2.852,-1.696 -2.627,-3.744C-2.539,-4.558 -1.87,-5.3 -1.124,-5.386C-0.67,-5.438 -0.212,-5.455 0,-5.471" style="fill-rule:nonzero;"/>
            </g>
            <g transform="matrix(1,0,0,1,84.8311,88.478)">
                <path d="M0,0.25C0.25,-0.22 0.676,-0.323 1.126,-0.356C1.212,-0.362 1.381,-0.257 1.382,-0.202C1.383,-0.012 1.388,0.29 1.282,0.348C1.007,0.498 0.677,0.581 0.363,0.604C0.249,0.612 0.118,0.372 0,0.25" style="fill-rule:nonzero;"/>
            </g>
            <g transform="matrix(1,0,0,1,51.6772,63.2261)">
                <path d="M0,3.31C-0.073,2.724 0.146,2.171 0.444,1.701C0.754,1.231 1.181,0.846 1.659,0.561C2.143,0.287 2.674,0.108 3.217,0.053C3.76,0 4.312,0.054 4.841,0.284C4.389,0.658 3.962,0.893 3.559,1.143L2.39,1.816L1.258,2.497C0.867,2.736 0.475,2.987 0,3.31" style="fill:white;fill-rule:nonzero;"/>
            </g>
            <g transform="matrix(1,0,0,1,54.582,56.2026)">
                <path d="M0,2.48C0.113,1.971 0.379,1.579 0.68,1.235C0.989,0.898 1.356,0.626 1.761,0.421C2.163,0.213 2.61,0.083 3.072,0.041C3.533,0 4.02,0.057 4.479,0.287C4.108,0.66 3.766,0.885 3.432,1.125C3.095,1.35 2.761,1.541 2.415,1.718C2.067,1.892 1.706,2.045 1.316,2.179C0.92,2.308 0.513,2.425 0,2.48" style="fill:white;fill-rule:nonzero;"/>
            </g>
            <g transform="matrix(1,0,0,1,59.0605,51.3231)">
                <path d="M0,1.778C0.105,1.25 0.486,0.869 0.881,0.587C1.289,0.311 1.754,0.15 2.221,0.078C2.69,0 3.162,0.038 3.616,0.142C4.067,0.264 4.502,0.456 4.887,0.809C4.422,1.059 4.005,1.175 3.601,1.283C3.2,1.393 2.813,1.452 2.438,1.514C2.06,1.571 1.687,1.607 1.298,1.646C0.905,1.685 0.51,1.707 0,1.778" style="fill:white;fill-rule:nonzero;"/>
            </g>
            <g transform="matrix(1,0,0,1,68.2598,49.6629)">
                <path d="M0,0.049C0.531,-0.338 1.118,-0.536 1.711,-0.675C2.307,-0.801 2.918,-0.847 3.531,-0.794C4.143,-0.739 4.757,-0.601 5.333,-0.335C5.9,-0.059 6.447,0.328 6.778,0.896L3.409,0.653C2.317,0.549 1.222,0.454 0,0.049" style="fill:white;fill-rule:nonzero;"/>
            </g>
            <g transform="matrix(1,0,0,1,97.2007,78.8665)">
                <path d="M0,15.863C0.8,13.402 1.767,11.002 2.79,8.618C3.87,6.259 4.969,3.901 6.625,1.768C7.057,1.244 7.507,0.716 8.21,0.314C8.302,0.266 8.39,0.217 8.487,0.174L8.815,0.076C9.033,0.022 9.188,0.043 9.377,0.025L9.922,0L10.419,0.023C11.084,0.049 11.739,0.093 12.383,0.158C13.034,0.211 13.68,0.275 14.322,0.346C16.898,0.625 19.456,0.969 22.017,1.284C27.132,1.959 32.241,2.624 37.359,3.191C39.918,3.465 42.479,3.711 45.047,3.877C47.615,4.061 50.184,4.108 52.768,3.964C47.654,4.818 42.413,4.658 37.26,4.32C32.093,3.981 26.954,3.374 21.831,2.724L14.163,1.708C13.524,1.62 12.888,1.541 12.253,1.472C11.615,1.391 10.984,1.331 10.36,1.291L9.891,1.257L9.468,1.265C9.338,1.273 9.162,1.254 9.068,1.281C9.023,1.295 8.978,1.307 8.93,1.315L8.773,1.389C8.337,1.603 7.886,2.041 7.488,2.495C6.679,3.421 5.985,4.497 5.316,5.58C4.647,6.667 4.028,7.792 3.427,8.928C2.197,11.188 1.103,13.525 0,15.863" style="fill:white;fill-rule:nonzero;"/>
            </g>
            <g transform="matrix(1,0,0,1,175.743,97.7541)">
                <path d="M0,1.826C2.783,1.374 5.573,1.065 8.367,0.806C11.159,0.539 13.957,0.356 16.755,0.189C19.555,0.05 22.355,-0.071 25.161,-0.108C27.965,-0.153 30.773,-0.148 33.588,0.002C30.806,0.456 28.015,0.766 25.222,1.024C22.429,1.291 19.632,1.474 16.833,1.639C14.034,1.777 11.233,1.898 8.428,1.934C5.623,1.979 2.815,1.974 0,1.826" style="fill:white;fill-rule:nonzero;"/>
            </g>
        </g>
    </g>
</svg>
