<?xml version="1.0" encoding="UTF-8" standalone="no"?>
<!DOCTYPE svg PUBLIC "-//W3C//DTD SVG 1.1//EN" "http://www.w3.org/Graphics/SVG/1.1/DTD/svg11.dtd">
<svg width="100%" height="100%" viewBox="0 0 534 534" version="1.1" xmlns="http://www.w3.org/2000/svg" xmlns:xlink="http://www.w3.org/1999/xlink" xml:space="preserve" xmlns:serif="http://www.serif.com/" style="fill-rule:evenodd;clip-rule:evenodd;stroke-linejoin:round;stroke-miterlimit:2;">
    <g transform="matrix(1,0,0,1,-1315.07,-591.284)">
        <g id="bird06" transform="matrix(1,0,0,1,1315.07,591.284)">
            <rect x="0" y="0" width="533.333" height="533.333" style="fill:none;"/>
            <clipPath id="_clip1">
                <rect x="0" y="0" width="533.333" height="533.333"/>
            </clipPath>
            <g clip-path="url(#_clip1)">
                <g transform="matrix(3.31957,0,0,3.31957,-1006.88,-981.024)">
                    <g transform="matrix(1,0,0,1,449.263,407.459)">
                        <path d="M0,-61.294C-0.008,-61.292 0.67,-61.409 1.344,-61.54C1.658,-61.602 1.887,-62.135 1.69,-62.353C1.075,-63.034 0.486,-63.744 -0.18,-64.372C-2.156,-66.24 -4.485,-67.448 -7.179,-67.893C-7.469,-67.94 -7.84,-67.772 -8.102,-67.596C-8.211,-67.523 -8.192,-67.148 -8.126,-66.943C-7.576,-65.242 -6.478,-63.932 -5.138,-62.791C-3.854,-61.696 -2.404,-61.097 0,-61.294M-116.895,20.59C-116.421,19.222 -116.173,18.572 -115.98,17.906C-115.925,17.714 -115.949,17.391 -116.074,17.274C-116.364,17.005 -116.679,17.202 -116.952,17.397C-117.141,17.533 -117.333,17.663 -117.514,17.808C-123.044,22.22 -128.784,26.337 -134.687,30.236C-136.615,31.51 -138.375,33.038 -140.191,34.476C-140.547,34.756 -140.817,35.149 -141.105,35.508C-141.16,35.576 -141.159,35.764 -141.104,35.83C-140.977,35.984 -140.802,36.206 -140.643,36.209C-140.068,36.217 -139.488,36.176 -138.917,36.1C-134.864,35.56 -131.018,34.293 -127.288,32.674C-124.526,31.475 -121.816,30.155 -119.076,28.907C-118.557,28.672 -118.008,28.485 -117.454,28.352C-117.29,28.313 -117.015,28.496 -116.876,28.652C-116.632,28.928 -116.589,29.302 -116.854,29.574C-117.255,29.985 -117.682,30.387 -118.155,30.706C-119.211,31.419 -120.302,32.08 -121.381,32.759C-123.738,34.241 -126.029,35.816 -128.125,37.656C-128.459,37.949 -128.726,38.337 -128.965,38.717C-129.115,38.957 -128.978,39.181 -128.702,39.267C-127.419,39.67 -126.176,39.285 -124.948,39.009C-121.533,38.24 -118.388,36.749 -115.249,35.254C-114.823,35.052 -114.468,34.72 -114.564,34.178C-114.859,32.522 -114.556,30.953 -113.928,29.425C-113.84,29.21 -113.753,28.995 -113.681,28.775C-113.429,28.015 -113.604,27.692 -114.343,27.591C-114.687,27.543 -115.041,27.564 -115.38,27.499C-116.395,27.3 -117.049,26.662 -117.232,25.668C-117.378,24.881 -117.462,24.052 -117.381,23.262C-117.264,22.118 -116.972,20.992 -116.895,20.59M9.83,-66.475C9.83,-67.402 9.864,-68.331 9.823,-69.257C9.694,-72.218 8.782,-74.949 7.263,-77.473C5.98,-79.605 4.252,-81.287 1.996,-82.389C0.278,-83.227 -2.56,-83.339 -4.404,-81.307C-6.4,-79.107 -7.777,-76.572 -8.317,-73.67C-8.976,-70.127 -8.698,-70.615 -6.026,-69.792C-5.693,-69.69 -5.354,-69.61 -5.021,-69.515C-3.211,-68.994 -1.608,-68.107 -0.151,-66.91C3.128,-64.214 5.728,-61.014 7.378,-57.073C7.5,-56.779 7.81,-56.565 8.031,-56.313C8.141,-56.507 8.283,-56.69 8.354,-56.897C9.407,-60.002 9.794,-63.215 9.83,-66.475M-58.741,-69.456C-58.818,-72.925 -57.369,-76.229 -54.585,-78.977C-53.653,-79.897 -52.561,-80.475 -51.281,-80.799C-49.222,-81.321 -47.146,-81.408 -45.061,-81.158C-42.874,-80.896 -40.699,-80.531 -38.519,-80.219C-37.945,-80.137 -37.369,-80.048 -36.792,-80.022C-36.06,-79.988 -35.439,-80.273 -34.934,-80.811C-33.868,-81.94 -33.241,-83.311 -32.866,-84.783C-32.523,-86.129 -32.289,-87.505 -32.043,-88.874C-31.589,-91.409 -30.848,-93.839 -29.414,-96.007C-27.855,-98.366 -25.637,-99.883 -22.867,-100.166C-18.316,-100.63 -13.818,-100.301 -9.629,-98.156C-8.803,-97.733 -7.965,-97.331 -7.108,-96.976C-6.805,-96.851 -6.43,-96.857 -6.091,-96.876C-5.874,-96.888 -5.578,-96.975 -5.477,-97.131C-5.379,-97.28 -5.416,-97.604 -5.517,-97.781C-6.637,-99.754 -8.239,-101.245 -10.264,-102.235C-11.511,-102.845 -12.809,-103.376 -14.128,-103.805C-17.991,-105.06 -21.891,-106.224 -25.908,-106.849C-30.175,-107.513 -34.463,-107.514 -38.726,-106.7C-42.87,-105.908 -46.697,-104.327 -50.37,-102.251C-56.686,-98.683 -61.063,-93.368 -64.096,-86.951C-66.63,-81.589 -68.302,-75.899 -69.354,-70.048C-69.455,-69.483 -69.476,-68.899 -69.478,-68.325C-69.485,-66.318 -69.479,-66.273 -67.418,-66.144C-64.49,-65.959 -61.692,-65.275 -58.988,-64.16C-58.523,-63.968 -58.036,-64.397 -58.182,-64.874C-58.589,-66.219 -58.811,-67.584 -58.741,-69.456M-115.659,24.197C-115.551,24.579 -115.471,24.913 -115.36,25.236C-115.239,25.592 -114.527,25.913 -114.185,25.774C-113.864,25.644 -113.527,25.532 -113.238,25.349C-112.047,24.593 -111.109,23.59 -110.285,22.44C-108.119,19.422 -105.881,16.457 -103.254,13.814C-102.965,13.523 -102.551,13.328 -102.161,13.175C-101.891,13.069 -101.984,13.702 -102.443,14.381C-104.2,16.976 -105.947,19.576 -107.725,22.155C-109.378,24.554 -110.74,27.111 -111.913,29.769C-112.332,30.718 -112.741,31.68 -112.784,32.756C-112.826,33.784 -112.03,34.521 -110.986,34.302C-110.541,34.209 -110.055,34.101 -109.697,33.846C-108.945,33.31 -108.203,32.731 -107.568,32.064C-106.129,30.553 -104.729,29 -103.364,27.421C-101.693,25.49 -100.108,23.486 -98.421,21.57C-97.35,20.354 -96.168,19.234 -95.014,18.094C-94.896,17.977 -94.63,18.009 -94.433,17.973C-94.407,18.178 -94.283,18.457 -94.372,18.579C-95.879,20.638 -97.416,22.675 -98.938,24.723C-100.255,26.491 -101.612,28.231 -102.855,30.051C-103.637,31.194 -104.253,32.453 -104.912,33.677C-104.999,33.838 -104.982,34.164 -104.872,34.292C-104.759,34.424 -104.421,34.513 -104.271,34.438C-103.442,34.035 -102.686,33.439 -101.823,33.163C-99.558,32.435 -97.727,31.008 -95.854,29.648C-91.247,26.303 -86.893,22.647 -82.747,18.743C-75.979,12.368 -69.618,5.612 -63.689,-1.552C-59.386,-6.752 -55.605,-12.311 -52.281,-18.182C-50.563,-21.215 -49.05,-24.347 -47.777,-27.593C-47.61,-28.02 -47.49,-28.475 -47.423,-28.927C-47.396,-29.107 -47.564,-29.321 -47.669,-29.506C-47.679,-29.523 -47.914,-29.467 -47.978,-29.39C-48.707,-28.496 -49.424,-27.592 -50.143,-26.69C-51.95,-24.422 -53.672,-22.077 -55.582,-19.899C-61.113,-13.593 -67.356,-8.056 -74.103,-3.075C-78.615,0.257 -83.546,2.816 -88.723,4.923C-90.984,5.844 -93.313,6.602 -95.74,6.902C-99.376,7.351 -102.917,7.068 -106.166,5.118C-107.18,4.51 -107.524,4.613 -108.045,5.638C-108.716,6.961 -109.703,8.181 -109.425,9.84C-109.382,10.095 -109.631,10.537 -109.87,10.676C-110.625,11.111 -111.046,11.774 -111.385,12.524C-112.197,14.321 -113.055,16.101 -113.806,17.923C-114.38,19.313 -114.854,20.748 -115.303,22.185C-115.508,22.84 -115.549,23.547 -115.659,24.197M-87.915,33.711C-83.817,33.953 -79.809,33.2 -75.785,32.642C-72.671,32.209 -69.639,31.423 -66.682,30.349C-65.045,29.754 -63.383,29.228 -61.756,28.609C-52.553,25.112 -44.788,19.547 -38.33,12.153C-35.731,9.177 -33.36,6.015 -31.152,2.734C-28.088,-1.818 -25.763,-6.743 -23.832,-11.863C-23.772,-12.021 -23.937,-12.276 -24.032,-12.468C-24.061,-12.523 -24.23,-12.556 -24.312,-12.529C-25.301,-12.21 -26.236,-11.681 -27.327,-11.771C-31.505,-12.114 -35.277,-13.378 -38.243,-16.519C-40.008,-18.388 -41.542,-20.413 -42.709,-22.715C-43.338,-23.954 -44.048,-25.152 -44.723,-26.369C-44.876,-26.647 -45.407,-26.639 -45.589,-26.369C-45.781,-26.083 -45.986,-25.803 -46.153,-25.501C-47.219,-23.569 -48.302,-21.647 -49.329,-19.694C-52.966,-12.782 -57.268,-6.314 -62.208,-0.269C-67.949,6.757 -74.097,13.405 -80.687,19.645C-84.911,23.645 -89.401,27.322 -94.073,30.783C-94.726,31.268 -95.384,31.746 -96.009,32.265C-96.129,32.364 -96.134,32.638 -96.136,32.832C-96.136,32.902 -95.979,33.012 -95.878,33.039C-93.263,33.729 -90.576,33.589 -87.915,33.711M-43.791,-44.899C-43.839,-45.906 -43.773,-47.317 -43.996,-48.681C-44.933,-54.423 -47.954,-58.548 -53.659,-60.261C-55.665,-60.862 -57.635,-61.504 -59.544,-62.347C-62.892,-63.824 -66.448,-64.265 -70.05,-64.49C-70.165,-64.497 -70.296,-64.522 -70.395,-64.48C-70.707,-64.347 -71.059,-64.242 -71.301,-64.023C-71.64,-63.715 -71.905,-63.323 -72.182,-62.952C-78.632,-54.29 -84.233,-45.069 -89.94,-35.919C-90.125,-35.624 -90.292,-35.318 -90.465,-35.017C-95.654,-25.956 -100.427,-16.676 -105.023,-7.306C-106.298,-4.708 -107.342,-1.996 -108.451,0.68C-108.835,1.603 -108.672,1.834 -107.432,2.216C-106.521,2.496 -105.713,2.898 -105.125,3.665C-104.523,4.448 -103.683,4.791 -102.76,5.012C-99.894,5.696 -97.026,5.867 -94.162,5.021C-92.829,4.628 -91.488,4.248 -90.186,3.768C-84.496,1.665 -79.188,-1.15 -74.308,-4.769C-69.452,-8.37 -64.875,-12.299 -60.644,-16.607C-54.609,-22.75 -49.045,-29.267 -45.329,-37.148C-44.235,-38.614 -43.956,-40.311 -43.917,-42.08C-43.898,-42.892 -43.846,-43.702 -43.791,-44.899M-0.454,-85.891C-0.985,-88.404 -1.901,-90.786 -2.944,-93.124C-3.3,-93.921 -3.934,-94.33 -4.751,-94.622C-6.717,-95.323 -8.691,-96.026 -10.59,-96.889C-14.192,-98.523 -17.985,-98.877 -21.837,-98.587C-24.799,-98.364 -27.105,-96.897 -28.5,-94.177C-29.139,-92.933 -29.675,-91.65 -29.921,-90.263C-30.145,-89.005 -30.337,-87.74 -30.6,-86.491C-30.839,-85.357 -31.093,-84.219 -31.454,-83.12C-31.893,-81.788 -32.587,-80.571 -33.527,-79.519C-34.612,-78.303 -35.958,-77.769 -37.591,-78.082C-38.959,-78.346 -40.321,-78.643 -41.693,-78.882C-44.339,-79.344 -47.006,-79.425 -49.681,-79.246C-51.521,-79.123 -52.985,-78.306 -54.167,-76.886C-56.283,-74.342 -57.228,-71.396 -56.944,-68.148C-56.737,-65.788 -55.935,-63.633 -53.57,-62.444C-53.033,-62.175 -52.518,-61.995 -51.932,-61.963C-51.462,-61.938 -51.07,-61.777 -50.67,-61.486C-49.643,-60.737 -48.571,-60.046 -47.488,-59.378C-45.881,-58.388 -44.505,-57.158 -43.472,-55.575C-42.318,-53.811 -41.509,-51.897 -41.052,-49.829C-40.185,-45.901 -40.163,-42.004 -41.262,-38.107C-42.051,-35.309 -42.909,-32.538 -44.068,-29.871C-44.382,-29.149 -44.301,-28.526 -43.935,-27.889C-42.894,-26.076 -41.868,-24.255 -40.805,-22.456C-39.672,-20.543 -38.23,-18.869 -36.622,-17.346C-34.065,-14.926 -30.96,-13.772 -27.489,-13.525C-26.532,-13.458 -25.644,-13.704 -24.896,-14.338C-22.93,-16.005 -21.12,-17.764 -20.58,-20.46C-20.307,-21.822 -19.833,-23.143 -19.495,-24.493C-18.816,-27.2 -18.34,-29.943 -18.008,-32.716C-17.913,-33.512 -17.641,-34.286 -17.449,-35.07C-16.126,-36.133 -16.168,-37.739 -15.821,-39.186C-14.073,-46.478 -11.331,-53.341 -7.08,-59.559C-6.885,-59.845 -6.739,-60.165 -6.562,-60.464C-6.348,-60.828 -6.5,-61.157 -6.712,-61.424C-7.217,-62.06 -7.788,-62.644 -8.288,-63.282C-9.85,-65.277 -10.559,-67.539 -10.538,-70.084C-10.504,-74.336 -8.998,-78.029 -6.408,-81.313C-5.246,-82.786 -3.727,-83.878 -2.07,-84.754C-1.786,-84.904 -1.393,-84.837 -1.059,-84.908C-0.502,-85.026 -0.333,-85.32 -0.454,-85.891M-85.522,36.263C-85.917,36.263 -86.85,36.319 -87.773,36.252C-91.595,35.975 -95.417,35.694 -99.231,35.337C-100.308,35.236 -101.294,35.266 -102.273,35.754C-102.893,36.062 -103.555,36.302 -104.219,36.503C-105.544,36.904 -106.192,36.639 -107.133,35.377C-107.593,34.761 -107.708,34.694 -108.198,35.037C-109.564,35.993 -111.006,36.616 -112.734,36.527C-113.269,36.5 -113.839,36.824 -114.365,37.05C-115.752,37.645 -117.135,38.252 -118.499,38.898C-120.72,39.949 -123.078,40.573 -125.454,41.113C-126.458,41.342 -127.525,41.325 -128.565,41.34C-129.013,41.347 -129.476,41.185 -129.91,41.036C-131.088,40.637 -131.603,39.208 -130.884,38.185C-130.288,37.339 -129.57,36.579 -128.917,35.772C-128.875,35.721 -128.89,35.561 -128.938,35.512C-129.007,35.443 -129.15,35.375 -129.23,35.401C-131.765,36.24 -134.288,37.1 -136.931,37.568C-138.426,37.834 -139.916,38.035 -141.43,37.904C-141.878,37.866 -142.327,37.694 -142.747,37.515C-143.306,37.275 -143.714,36.254 -143.462,35.718C-143.218,35.197 -142.984,34.633 -142.599,34.227C-141.723,33.302 -140.821,32.377 -139.813,31.606C-137.971,30.196 -136.086,28.831 -134.142,27.565C-128.782,24.076 -123.615,20.324 -118.58,16.39C-117.117,15.247 -115.737,13.997 -114.358,12.753C-113.759,12.212 -113.23,11.583 -112.72,10.953C-111.971,10.029 -111.511,8.997 -111.571,7.756C-111.717,4.79 -110.904,1.991 -109.842,-0.716C-108.782,-3.414 -107.615,-6.079 -106.333,-8.68C-101.867,-17.742 -97.313,-26.767 -92.183,-35.474C-86.758,-44.678 -81.164,-53.781 -74.929,-62.471C-74.185,-63.508 -73.439,-64.546 -72.712,-65.597C-72.311,-66.176 -72.093,-66.814 -72.026,-67.536C-71.352,-74.917 -68.866,-81.78 -65.984,-88.528C-61.339,-97.455 -54.436,-103.827 -44.899,-107.268C-37.688,-109.869 -30.351,-110.076 -22.943,-108.429C-19.661,-107.699 -16.442,-106.683 -13.205,-105.763C-12.427,-105.542 -11.69,-105.178 -10.93,-104.893C-7.635,-103.655 -5.193,-101.417 -3.433,-98.42C-1.064,-94.385 0.709,-90.111 1.475,-85.47C1.603,-84.695 1.956,-84.211 2.636,-83.888C8.617,-81.037 11.181,-75.875 11.835,-69.668C12.453,-63.794 11.367,-58.095 9.078,-52.648C8.771,-51.917 8.268,-51.249 7.765,-50.625C7.305,-50.055 6.608,-49.899 5.881,-49.906C5.23,-49.913 4.86,-50.452 5.14,-51.041C5.237,-51.246 5.487,-51.409 5.518,-51.613C5.861,-53.942 5.879,-56.243 4.59,-58.338C3.996,-59.305 3.069,-59.808 1.928,-59.623C0.231,-59.349 -1.577,-59.468 -3.05,-58.325C-4.38,-58.352 -5.2,-57.496 -5.875,-56.546C-6.746,-55.319 -7.609,-54.064 -8.273,-52.72C-11.06,-47.079 -13.163,-41.197 -14.536,-35.042C-15.597,-30.287 -16.834,-25.57 -18.061,-20.855C-18.467,-19.294 -18.896,-17.727 -19.878,-16.362C-20.34,-15.721 -20.532,-14.884 -20.833,-14.13C-21.781,-11.759 -22.707,-9.378 -23.672,-7.014C-24.859,-4.106 -26.226,-1.282 -27.871,1.393C-32.774,9.361 -38.46,16.668 -45.976,22.378C-47.73,23.71 -49.6,24.891 -51.413,26.146C-51.888,26.476 -52.373,26.797 -52.803,27.18C-52.923,27.287 -52.923,27.618 -52.865,27.814C-52.805,28.022 -52.629,28.209 -52.472,28.377C-51.046,29.904 -49.609,31.424 -48.185,32.952C-47.825,33.338 -47.421,33.409 -46.937,33.244C-45.728,32.831 -44.52,32.418 -43.303,32.028C-42.198,31.675 -41.093,31.311 -39.969,31.029C-39.185,30.832 -38.371,30.709 -37.564,30.654C-36.683,30.594 -35.925,30.997 -35.572,31.796C-35.158,32.733 -35.054,33.826 -34.557,34.705C-34.105,35.502 -33.447,36.184 -33.218,37.111C-33.19,37.225 -33.101,37.362 -33.138,37.443C-33.274,37.744 -33.407,38.072 -33.634,38.298C-33.755,38.418 -34.092,38.424 -34.285,38.354C-35.419,37.945 -36.154,37.016 -36.984,36.212C-37.59,35.625 -38.273,35.215 -39.152,35.291C-39.374,35.31 -39.658,35.352 -39.785,35.498C-39.885,35.611 -39.868,35.959 -39.764,36.098C-39.275,36.744 -38.696,37.324 -38.229,37.983C-37.557,38.935 -37.03,39.971 -36.993,41.171C-36.988,41.342 -37.196,41.538 -37.344,41.683C-37.395,41.731 -37.591,41.697 -37.674,41.637C-37.95,41.435 -38.255,41.243 -38.458,40.977C-38.951,40.333 -39.398,39.652 -39.854,38.98C-40.619,37.853 -41.649,37.274 -43.03,37.12C-45.461,36.847 -47.867,36.875 -50.29,37.2C-51.37,37.346 -52.331,37.585 -53.039,38.475C-53.179,38.65 -53.394,38.769 -53.583,38.901C-54.031,39.215 -54.795,38.856 -54.938,38.27C-55.156,37.383 -54.621,36.273 -53.796,35.984C-53.362,35.832 -52.9,35.76 -52.451,35.656C-51.664,35.475 -50.872,35.318 -50.094,35.108C-49.805,35.03 -49.722,34.751 -49.914,34.58C-51.649,33.047 -53.376,31.502 -55.154,30.019C-56.009,29.306 -56.982,29.18 -58.085,29.619C-60.671,30.651 -63.28,31.63 -65.903,32.565C-68.309,33.424 -70.743,34.198 -73.278,34.606C-73.731,34.679 -74.165,34.872 -74.605,35.017C-74.921,35.12 -75.146,35.569 -75.009,35.838C-74.587,36.663 -74.162,37.487 -73.725,38.305C-73.344,39.017 -72.704,39.251 -71.963,39.079C-69.345,38.47 -66.667,38.414 -64.01,38.155C-62.254,37.985 -60.533,38.197 -58.811,38.485C-57.948,38.63 -57.286,39.082 -56.859,39.81C-56.338,40.7 -55.693,41.562 -55.704,42.663C-55.706,42.839 -55.918,43.032 -56.071,43.177C-56.125,43.228 -56.301,43.185 -56.406,43.145C-57.343,42.792 -57.79,41.948 -58.314,41.194C-58.818,40.469 -59.506,40.078 -60.363,40.058C-61.87,40.022 -63.378,40.036 -64.885,40.053C-65.017,40.054 -65.146,40.227 -65.276,40.322C-65.185,40.386 -65.099,40.49 -64.999,40.507C-64.312,40.618 -63.619,40.696 -62.933,40.812C-62.103,40.952 -61.412,41.346 -60.859,41.992C-59.861,43.158 -59.092,44.438 -58.866,45.982C-58.839,46.176 -58.973,46.414 -59.084,46.601C-59.216,46.821 -59.802,46.774 -60.002,46.54C-60.379,46.1 -60.766,45.667 -61.113,45.204C-61.53,44.648 -61.885,44.043 -62.321,43.503C-62.529,43.246 -62.838,42.983 -63.146,42.909C-64.155,42.669 -65.186,42.51 -66.225,42.751C-66.31,42.771 -66.419,42.873 -66.435,42.953C-66.456,43.057 -66.428,43.202 -66.363,43.286C-66.224,43.466 -66.069,43.65 -65.883,43.775C-64.207,44.899 -63.889,46.516 -64.199,48.363C-64.248,48.649 -64.435,48.782 -64.694,48.714C-64.906,48.657 -65.146,48.6 -65.301,48.462C-65.466,48.316 -65.61,48.088 -65.651,47.874C-65.991,46.102 -67.253,45.19 -68.704,44.341C-72.678,42.016 -73.09,41.882 -77.603,42.433C-79.217,42.63 -80.824,42.882 -82.439,43.07C-82.765,43.108 -83.132,43.026 -83.439,42.899C-83.613,42.828 -83.785,42.563 -83.808,42.368C-83.83,42.182 -83.711,41.898 -83.56,41.788C-83.29,41.592 -82.962,41.43 -82.636,41.365C-81.042,41.05 -79.438,40.778 -77.842,40.477C-77.159,40.349 -76.96,39.763 -77.431,39.17C-80.529,35.273 -79.473,35.649 -84.296,36.118C-84.527,36.141 -84.758,36.172 -85.522,36.263" style="fill-rule:nonzero;"/>
                    </g>
                    <g transform="matrix(1,0,0,1,423.892,341.844)">
                        <path d="M0,18.895C-0.076,18.827 -0.146,18.712 -0.223,18.709C-0.323,18.704 -0.485,18.757 -0.521,18.833C-0.759,19.331 -0.992,19.832 -1.17,20.352C-1.21,20.471 -1.037,20.674 -0.935,20.818C-0.919,20.839 -0.693,20.777 -0.654,20.705C-0.349,20.133 0.161,19.631 0,18.895M4.422,21.629C4.296,22.191 4.228,22.409 4.208,22.629C4.201,22.71 4.298,22.866 4.366,22.877C4.561,22.91 4.862,22.971 4.948,22.872C5.807,21.877 6.074,20.702 5.889,19.416C5.875,19.32 5.73,19.156 5.688,19.167C5.511,19.219 5.247,19.287 5.196,19.418C4.873,20.255 4.599,21.111 4.422,21.629M1.675,22.48C1.876,22.4 2.133,22.372 2.269,22.229C2.992,21.469 3.355,20.548 3.352,19.495C3.352,19.397 3.284,19.286 3.219,19.205C3.153,19.124 3.06,19.051 2.963,19.015C2.863,18.978 2.684,18.94 2.646,18.987C1.947,19.857 1.324,20.777 1.066,21.88C1.031,22.034 1.237,22.262 1.368,22.427C1.416,22.488 1.569,22.464 1.675,22.48M9.24,-20.004C9.305,-21.434 9.016,-22.431 8.581,-23.394C8.094,-24.473 7.291,-24.924 6.073,-24.862C5.106,-24.813 4.201,-24.596 3.632,-23.754C2.18,-21.608 1.981,-18.743 3.479,-16.544C3.989,-15.793 5.012,-15.323 5.909,-15.588C6.449,-15.749 7.005,-16.003 7.434,-16.361C8.668,-17.387 9.125,-18.812 9.24,-20.004M24.917,-20.276C25.038,-19.706 24.869,-19.412 24.312,-19.293C23.979,-19.222 23.585,-19.29 23.301,-19.139C21.645,-18.263 20.125,-17.171 18.963,-15.698C16.373,-12.415 14.867,-8.721 14.833,-4.469C14.813,-1.924 15.521,0.337 17.083,2.333C17.583,2.971 18.154,3.555 18.659,4.191C18.871,4.457 19.023,4.787 18.809,5.151C18.632,5.45 18.486,5.77 18.291,6.056C14.04,12.274 11.298,19.137 9.55,26.429C9.203,27.875 9.245,29.482 7.922,30.544C7.73,31.329 7.458,32.103 7.363,32.899C7.031,35.671 6.555,38.415 5.876,41.122C5.538,42.472 5.064,43.792 4.791,45.155C4.251,47.851 2.441,49.61 0.476,51.277C-0.272,51.911 -1.161,52.157 -2.118,52.089C-5.589,51.843 -8.694,50.689 -11.251,48.269C-12.859,46.746 -14.301,45.072 -15.434,43.159C-16.497,41.36 -17.522,39.539 -18.563,37.726C-18.93,37.088 -19.011,36.465 -18.697,35.744C-17.538,33.077 -16.68,30.306 -15.891,27.508C-14.792,23.611 -14.813,19.713 -15.681,15.786C-16.138,13.718 -16.947,11.804 -18.101,10.04C-19.134,8.457 -20.51,7.227 -22.117,6.237C-23.2,5.569 -24.271,4.877 -25.299,4.128C-25.699,3.837 -26.091,3.677 -26.561,3.652C-27.146,3.62 -27.662,3.44 -28.199,3.17C-30.563,1.982 -31.366,-0.173 -31.573,-2.534C-31.856,-5.781 -30.912,-8.727 -28.796,-11.271C-27.614,-12.691 -26.149,-13.508 -24.31,-13.631C-21.635,-13.81 -18.968,-13.729 -16.322,-13.267C-14.95,-13.028 -13.588,-12.731 -12.22,-12.467C-10.587,-12.154 -9.241,-12.688 -8.156,-13.904C-7.216,-14.957 -6.521,-16.173 -6.083,-17.505C-5.722,-18.604 -5.468,-19.743 -5.229,-20.876C-4.966,-22.126 -4.773,-23.39 -4.55,-24.648C-4.304,-26.036 -3.768,-27.318 -3.129,-28.562C-1.734,-31.282 0.572,-32.75 3.534,-32.972C7.386,-33.262 11.179,-32.909 14.781,-31.274C16.68,-30.412 18.654,-29.709 20.62,-29.007C21.437,-28.715 22.071,-28.306 22.427,-27.509C23.47,-25.171 24.386,-22.79 24.917,-20.276" style="fill:rgb(227,129,73);fill-rule:nonzero;"/>
                    </g>
                    <g transform="matrix(1,0,0,1,373.281,362.215)">
                        <path d="M0,31.834C-0.019,31.411 0.015,31.169 -0.055,30.96C-0.102,30.818 -0.283,30.711 -0.427,30.623C-0.454,30.606 -0.625,30.741 -0.657,30.832C-0.891,31.479 -1.067,32.138 -0.874,32.828C-0.851,32.913 -0.726,33.006 -0.632,33.026C-0.529,33.049 -0.328,33.019 -0.311,32.966C-0.173,32.534 -0.068,32.093 0,31.834M6.473,12.98C6.41,12.543 6.323,11.876 6.212,11.212C6.196,11.116 6.067,11.039 5.99,10.954C5.914,11.031 5.81,11.096 5.765,11.188C5.122,12.513 5.422,13.873 5.65,15.223C5.671,15.346 5.895,15.448 6.043,15.522C6.07,15.535 6.246,15.371 6.257,15.278C6.335,14.595 6.389,13.909 6.473,12.98M9.478,11.7C9.601,12.472 9.707,13.369 9.905,14.245C9.972,14.542 10.264,14.793 10.471,15.05C10.537,15.131 10.679,15.222 10.76,15.202C10.84,15.182 10.925,15.033 10.94,14.931C11.17,13.448 10.824,12.035 10.389,10.638C10.364,10.557 10.207,10.486 10.104,10.473C10.035,10.463 9.911,10.545 9.881,10.615C9.751,10.92 9.646,11.235 9.478,11.7M-1.943,15.363C-1.872,15.692 -1.834,15.918 -1.772,16.137C-1.693,16.42 -1.503,16.518 -1.235,16.419C-1.146,16.386 -1.004,16.327 -0.997,16.268C-0.84,14.896 -0.695,13.522 -0.562,12.147C-0.553,12.052 -0.644,11.938 -0.707,11.845C-0.762,11.766 -0.844,11.649 -0.914,11.649C-1.019,11.649 -1.167,11.71 -1.219,11.793C-1.924,12.927 -1.729,14.235 -1.943,15.363M-5.167,14.657C-5.158,14.73 -5.133,15.068 -5.068,15.398C-5.051,15.492 -4.898,15.646 -4.849,15.632C-4.657,15.576 -4.362,15.501 -4.32,15.367C-3.803,13.707 -3.316,12.038 -2.841,10.366C-2.781,10.154 -2.805,9.911 -2.83,9.687C-2.842,9.584 -2.948,9.416 -3.019,9.412C-3.218,9.402 -3.485,9.394 -3.607,9.509C-3.854,9.742 -4.054,10.041 -4.214,10.344C-4.883,11.606 -4.984,13.007 -5.167,14.657M-5.559,35.041C-5.525,35.324 -5.55,35.466 -5.49,35.543C-5.382,35.685 -5.196,35.907 -5.093,35.884C-4.905,35.84 -4.643,35.666 -4.604,35.501C-4.238,33.951 -3.912,32.393 -3.581,30.835C-3.559,30.727 -3.558,30.599 -3.593,30.496C-3.661,30.301 -3.764,30.118 -3.852,29.93C-4.042,30.044 -4.318,30.112 -4.411,30.28C-5.249,31.814 -5.502,33.49 -5.559,35.041M-8.183,29.89C-8.266,29.824 -8.34,29.728 -8.434,29.704C-8.539,29.678 -8.726,29.675 -8.768,29.736C-10.03,31.591 -10.646,33.666 -10.803,35.888C-10.809,35.975 -10.68,36.14 -10.601,36.149C-10.398,36.173 -10.033,36.184 -10.005,36.104C-9.354,34.258 -8.733,32.4 -8.131,30.538C-8.068,30.348 -8.161,30.106 -8.183,29.89M-4.979,6.595C-4.969,6.515 -4.929,6.396 -4.949,6.288C-4.969,6.184 -5.042,6.015 -5.106,6.007C-5.284,5.986 -5.563,5.967 -5.639,6.068C-7.323,8.33 -8.284,10.864 -8.439,13.69C-8.445,13.8 -8.415,13.918 -8.373,14.02C-8.329,14.124 -8.228,14.302 -8.188,14.292C-8.003,14.248 -7.717,14.192 -7.671,14.066C-6.76,11.592 -5.878,9.108 -4.979,6.595M-15.113,36.431C-14.94,36.297 -14.688,36.199 -14.607,36.023C-13.795,34.258 -12.99,32.487 -12.227,30.7C-11.87,29.864 -11.589,28.995 -11.319,28.126C-11.282,28.004 -11.495,27.788 -11.625,27.646C-11.651,27.615 -11.853,27.693 -11.927,27.769C-12.166,28.008 -12.431,28.24 -12.603,28.526C-13.914,30.699 -14.736,33.073 -15.388,35.511C-15.441,35.712 -15.379,35.955 -15.33,36.169C-15.308,36.268 -15.189,36.344 -15.113,36.431M-14.977,26.15C-14.97,26.041 -14.937,25.924 -14.964,25.824C-14.993,25.718 -15.062,25.577 -15.147,25.544C-15.23,25.513 -15.403,25.565 -15.46,25.64C-17.662,28.515 -19.009,31.802 -20.058,35.23C-20.085,35.318 -20.029,35.45 -19.977,35.542C-19.852,35.762 -19.632,35.764 -19.472,35.49C-17.835,32.7 -16.54,29.741 -15.205,26.803C-15.11,26.594 -15.052,26.368 -14.977,26.15M23.401,2.946C23.107,3.388 22.616,4.173 22.074,4.921C21.693,5.446 20.843,5.639 20.171,5.389C19.625,5.185 19.11,4.918 18.833,4.354C18.526,3.73 18.243,3.095 17.901,2.491C17.568,1.901 16.699,1.636 16.077,1.825C15.054,2.138 14.229,2.76 13.399,3.403C12.86,3.822 12.269,4.201 11.647,4.483C10.846,4.848 9.922,4.397 9.694,3.607C9.503,2.942 9.353,2.267 9.159,1.602C9.032,1.167 8.365,0.907 8.018,1.156C7.171,1.761 6.37,2.437 5.491,2.986C5.021,3.28 4.437,3.454 3.883,3.54C3.07,3.666 2.193,2.78 2.386,2.032C2.703,0.803 3.067,-0.419 3.494,-1.614C3.843,-2.593 4.33,-3.52 4.712,-4.488C4.776,-4.652 4.616,-4.905 4.56,-5.117C4.473,-5.083 4.357,-5.074 4.302,-5.012C2.639,-3.172 1.562,-1.011 0.849,1.346C0.781,1.566 0.754,1.799 0.715,2.027C0.462,3.5 1.367,4.798 2.846,5.112C3.784,5.313 4.697,5.249 5.565,4.851C5.983,4.658 6.354,4.364 6.76,4.139C7.46,3.75 7.623,3.741 8.098,4.59C8.521,5.349 9.039,5.908 9.866,6.137C10.913,6.426 11.948,6.357 12.897,5.805C13.395,5.516 13.83,5.122 14.302,4.787C14.772,4.452 15.225,4.066 15.743,3.837C15.983,3.731 16.463,3.842 16.656,4.034C16.975,4.349 17.157,4.804 17.379,5.209C18,6.344 19.059,6.768 20.245,6.923C21.354,7.067 22.344,6.72 23.015,5.811C24.265,4.116 25.199,2.261 25.544,0.157C25.565,0.026 25.318,-0.268 25.18,-0.278C25.001,-0.292 24.709,-0.142 24.636,0.017C24.246,0.856 23.91,1.72 23.401,2.946M32.19,0.345C32.136,1.542 32.083,2.353 32.064,3.164C32.025,4.934 31.746,6.63 30.652,8.096C26.937,15.978 21.372,22.494 15.338,28.637C11.106,32.945 6.529,36.874 1.674,40.476C-3.206,44.094 -8.515,46.909 -14.204,49.012C-15.507,49.492 -16.848,49.872 -18.181,50.266C-21.045,51.111 -23.912,50.94 -26.778,50.256C-27.701,50.035 -28.542,49.692 -29.144,48.909C-29.731,48.143 -30.539,47.74 -31.45,47.46C-32.69,47.078 -32.854,46.848 -32.47,45.924C-31.36,43.248 -30.316,40.536 -29.042,37.938C-24.445,28.568 -19.673,19.288 -14.483,10.228C-14.311,9.926 -14.144,9.62 -13.959,9.325C-8.252,0.175 -2.65,-9.046 3.8,-17.708C4.076,-18.079 4.342,-18.471 4.681,-18.778C4.923,-18.998 5.274,-19.103 5.587,-19.235C5.686,-19.277 5.816,-19.253 5.932,-19.246C9.533,-19.02 13.09,-18.58 16.437,-17.103C18.347,-16.26 20.316,-15.618 22.322,-15.017C28.027,-13.304 31.049,-9.179 31.985,-3.437C32.208,-2.073 32.143,-0.662 32.19,0.345" style="fill:rgb(138,179,134);fill-rule:nonzero;"/>
                    </g>
                    <g transform="matrix(1,0,0,1,397.607,407.042)">
                        <path d="M0,8.142C0,8.374 -0.027,8.493 0.006,8.59C0.074,8.79 0.175,8.979 0.262,9.172C0.426,9.054 0.663,8.971 0.738,8.811C0.924,8.42 1.071,8.001 1.152,7.578C1.18,7.438 0.98,7.146 0.84,7.113C0.683,7.075 0.397,7.205 0.307,7.348C0.138,7.616 0.07,7.947 0,8.142M-1.698,5.963C-1.84,5.833 -1.91,5.726 -2.008,5.69C-2.109,5.653 -2.286,5.634 -2.344,5.693C-3.09,6.447 -3.623,7.294 -3.396,8.423C-3.374,8.527 -3.288,8.661 -3.198,8.696C-3.116,8.728 -2.968,8.672 -2.886,8.608C-2.014,7.918 -1.727,6.979 -1.698,5.963M-7.23,8.01C-7.129,7.981 -7.009,7.978 -6.93,7.918C-5.967,7.193 -5.324,6.27 -5.283,5.03C-5.278,4.883 -5.529,4.708 -5.691,4.586C-5.749,4.542 -5.942,4.577 -5.992,4.64C-6.717,5.549 -7.237,6.558 -7.409,7.72C-7.422,7.807 -7.294,7.913 -7.23,8.01M-6.994,3.227C-7.05,3.155 -7.104,3.037 -7.196,2.983C-7.266,2.943 -7.41,2.949 -7.477,2.996C-8.708,3.864 -9.696,4.958 -10.424,6.275C-10.492,6.399 -10.34,6.666 -10.245,6.843C-10.221,6.89 -10.002,6.892 -9.919,6.84C-8.636,6.033 -7.673,4.934 -7,3.58C-6.955,3.491 -6.994,3.358 -6.994,3.227M-36.26,34.128C-38.921,34.006 -41.607,34.147 -44.223,33.456C-44.324,33.429 -44.48,33.32 -44.48,33.249C-44.479,33.055 -44.474,32.782 -44.354,32.682C-43.729,32.163 -43.07,31.685 -42.418,31.201C-37.746,27.74 -33.256,24.063 -29.031,20.063C-22.441,13.823 -16.294,7.174 -10.553,0.149C-5.612,-5.896 -1.311,-12.365 2.326,-19.277C3.354,-21.229 4.437,-23.152 5.502,-25.084C5.669,-25.385 5.874,-25.666 6.066,-25.952C6.248,-26.221 6.779,-26.229 6.933,-25.952C7.607,-24.735 8.317,-23.537 8.946,-22.297C10.113,-19.996 11.647,-17.97 13.412,-16.101C16.378,-12.961 20.15,-11.697 24.328,-11.353C25.419,-11.263 26.354,-11.793 27.343,-12.112C27.425,-12.138 27.595,-12.106 27.623,-12.05C27.719,-11.859 27.883,-11.603 27.823,-11.446C25.893,-6.326 23.567,-1.401 20.503,3.152C18.295,6.432 15.924,9.594 13.325,12.571C6.867,19.964 -0.897,25.53 -10.101,29.027C-11.728,29.646 -13.39,30.171 -15.026,30.766C-17.983,31.84 -21.016,32.626 -24.13,33.059C-28.153,33.618 -32.162,34.371 -36.26,34.128" style="fill:rgb(138,179,134);fill-rule:nonzero;"/>
                    </g>
                    <g transform="matrix(1,0,0,1,333.603,388.26)">
                        <path d="M0,43.396C0.11,42.746 0.151,42.039 0.356,41.384C0.806,39.947 1.279,38.512 1.854,37.122C2.604,35.299 3.462,33.52 4.274,31.723C4.613,30.973 5.034,30.31 5.789,29.875C6.028,29.736 6.277,29.293 6.234,29.039C5.956,27.379 6.943,26.16 7.614,24.836C8.135,23.812 8.479,23.709 9.493,24.317C12.742,26.267 16.283,26.549 19.919,26.101C22.347,25.801 24.675,25.042 26.937,24.122C32.113,22.015 37.044,19.456 41.557,16.124C48.303,11.143 54.546,5.606 60.077,-0.701C61.987,-2.878 63.709,-5.223 65.517,-7.491C66.235,-8.393 66.952,-9.297 67.682,-10.191C67.745,-10.268 67.98,-10.324 67.99,-10.307C68.095,-10.123 68.263,-9.909 68.236,-9.728C68.169,-9.276 68.049,-8.821 67.882,-8.394C66.609,-5.148 65.096,-2.016 63.378,1.017C60.054,6.888 56.273,12.447 51.97,17.647C46.041,24.811 39.68,31.567 32.912,37.942C28.767,41.846 24.412,45.501 19.805,48.847C17.933,50.207 16.102,51.633 13.836,52.362C12.974,52.638 12.217,53.234 11.389,53.637C11.238,53.711 10.9,53.623 10.787,53.491C10.677,53.363 10.66,53.037 10.747,52.875C11.406,51.652 12.022,50.393 12.804,49.25C14.047,47.43 15.404,45.69 16.721,43.921C18.243,41.874 19.78,39.836 21.287,37.778C21.376,37.656 21.252,37.376 21.227,37.171C21.029,37.208 20.764,37.175 20.646,37.292C19.491,38.433 18.31,39.553 17.238,40.769C15.551,42.685 13.966,44.689 12.295,46.62C10.93,48.199 9.53,49.751 8.091,51.263C7.456,51.93 6.714,52.508 5.962,53.044C5.604,53.299 5.118,53.408 4.673,53.5C3.629,53.72 2.833,52.983 2.875,51.955C2.918,50.878 3.327,49.917 3.746,48.967C4.919,46.31 6.281,43.752 7.935,41.354C9.712,38.775 11.459,36.174 13.216,33.58C13.675,32.901 13.769,32.268 13.498,32.374C13.108,32.527 12.694,32.722 12.405,33.013C9.778,35.656 7.54,38.621 5.374,41.639C4.55,42.789 3.612,43.792 2.421,44.547C2.132,44.731 1.795,44.843 1.475,44.973C1.132,45.112 0.42,44.791 0.299,44.435C0.188,44.112 0.108,43.778 0,43.396" style="fill:rgb(246,224,126);fill-rule:nonzero;"/>
                    </g>
                    <g transform="matrix(1,0,0,1,406.937,325.356)">
                        <path d="M0,-7.276C0.09,-7.262 0.204,-7.206 0.265,-7.242C1.22,-7.801 1.602,-8.703 1.709,-9.751C1.718,-9.834 1.606,-9.955 1.521,-10.015C1.454,-10.061 1.314,-10.081 1.25,-10.043C0.308,-9.481 -0.164,-8.637 -0.191,-7.548C-0.193,-7.459 -0.067,-7.367 0,-7.276M3.468,-6.507C3.534,-6.279 3.594,-6.072 3.653,-5.865C3.824,-5.972 4.039,-6.045 4.159,-6.194C4.755,-6.939 4.879,-7.851 4.985,-8.758C4.994,-8.833 4.829,-9.005 4.779,-8.993C4.582,-8.944 4.281,-8.886 4.229,-8.75C3.938,-8.01 3.711,-7.246 3.468,-6.507M-7.281,-11.734C-7.361,-11.843 -7.41,-11.959 -7.497,-12.014C-7.568,-12.059 -7.697,-12.067 -7.778,-12.035C-8.526,-11.74 -9.059,-11.178 -9.496,-10.536C-9.574,-10.422 -9.471,-10.093 -9.348,-9.957C-9.223,-9.816 -8.907,-9.668 -8.783,-9.731C-7.967,-10.154 -7.363,-10.765 -7.281,-11.734M-2.42,-10.403C-2.494,-10.486 -2.557,-10.612 -2.646,-10.637C-2.741,-10.664 -2.869,-10.608 -2.972,-10.563C-3.985,-10.119 -4.159,-8.938 -4.952,-8.3C-5.27,-8.045 -5.266,-7.738 -5.085,-7.42C-4.889,-7.076 -4.317,-7.13 -3.963,-7.581C-3.407,-8.288 -2.881,-9.019 -2.386,-9.769C-2.292,-9.912 -2.403,-10.188 -2.42,-10.403M-16.416,12.647C-16.485,14.519 -16.264,15.884 -15.856,17.229C-15.711,17.706 -16.198,18.135 -16.663,17.943C-19.367,16.828 -22.165,16.144 -25.093,15.959C-27.154,15.829 -27.16,15.785 -27.152,13.778C-27.15,13.203 -27.13,12.62 -27.028,12.055C-25.977,6.203 -24.305,0.514 -21.771,-4.848C-18.737,-11.265 -14.36,-16.58 -8.045,-20.148C-4.372,-22.224 -0.545,-23.805 3.6,-24.597C7.862,-25.411 12.15,-25.41 16.417,-24.746C20.435,-24.121 24.334,-22.957 28.197,-21.702C29.517,-21.273 30.814,-20.742 32.062,-20.132C34.086,-19.142 35.688,-17.651 36.809,-15.678C36.909,-15.501 36.946,-15.177 36.849,-15.028C36.747,-14.872 36.451,-14.785 36.234,-14.773C35.896,-14.755 35.521,-14.748 35.217,-14.873C34.36,-15.228 33.522,-15.63 32.696,-16.053C28.507,-18.198 24.009,-18.527 19.458,-18.063C16.688,-17.78 14.47,-16.263 12.911,-13.904C11.478,-11.736 10.736,-9.306 10.282,-6.771C10.036,-5.402 9.802,-4.026 9.459,-2.68C9.084,-1.208 8.457,0.163 7.392,1.292C6.886,1.829 6.266,2.115 5.533,2.081C4.956,2.055 4.38,1.966 3.807,1.884C1.626,1.572 -0.549,1.207 -2.735,0.945C-4.821,0.695 -6.896,0.782 -8.956,1.304C-10.235,1.628 -11.328,2.206 -12.26,3.126C-15.044,5.874 -16.493,9.178 -16.416,12.647" style="fill:rgb(246,224,126);fill-rule:nonzero;"/>
                    </g>
                    <g transform="matrix(1,0,0,1,459.093,334.282)">
                        <path d="M0,6.702C-0.036,9.962 -0.423,13.175 -1.477,16.28C-1.547,16.487 -1.689,16.67 -1.799,16.864C-2.021,16.612 -2.33,16.397 -2.452,16.103C-4.103,12.163 -6.702,8.963 -9.981,6.266C-11.438,5.069 -13.041,4.182 -14.851,3.662C-15.185,3.566 -15.523,3.487 -15.856,3.385C-18.528,2.561 -18.806,3.05 -18.147,-0.493C-17.607,-3.396 -16.23,-5.931 -14.234,-8.13C-12.39,-10.162 -9.552,-10.05 -7.834,-9.212C-5.578,-8.111 -3.85,-6.428 -2.567,-4.296C-1.048,-1.773 -0.136,0.959 -0.007,3.92C0.034,4.846 0,5.774 0,6.702" style="fill:rgb(246,224,126);fill-rule:nonzero;"/>
                    </g>
                    <g transform="matrix(1,0,0,1,332.368,443.544)">
                        <path d="M0,-15.495C-0.077,-15.093 -0.369,-13.967 -0.486,-12.823C-0.567,-12.033 -0.483,-11.204 -0.338,-10.417C-0.154,-9.423 0.5,-8.785 1.515,-8.586C1.854,-8.52 2.208,-8.542 2.552,-8.494C3.29,-8.392 3.466,-8.07 3.214,-7.309C3.142,-7.09 3.055,-6.875 2.967,-6.66C2.339,-5.132 2.035,-3.562 2.33,-1.907C2.427,-1.365 2.071,-1.033 1.646,-0.831C-1.493,0.664 -4.639,2.155 -8.054,2.924C-9.281,3.2 -10.524,3.585 -11.808,3.182C-12.083,3.096 -12.221,2.872 -12.07,2.632C-11.831,2.252 -11.564,1.864 -11.23,1.571C-9.135,-0.268 -6.844,-1.844 -4.486,-3.326C-3.407,-4.005 -2.316,-4.666 -1.261,-5.379C-0.787,-5.698 -0.36,-6.099 0.04,-6.511C0.306,-6.783 0.263,-7.157 0.019,-7.432C-0.12,-7.589 -0.396,-7.771 -0.56,-7.732C-1.113,-7.599 -1.662,-7.413 -2.182,-7.178C-4.922,-5.93 -7.632,-4.61 -10.394,-3.411C-14.123,-1.792 -17.97,-0.524 -22.022,0.015C-22.594,0.091 -23.174,0.132 -23.748,0.124C-23.907,0.121 -24.082,-0.1 -24.21,-0.255C-24.265,-0.321 -24.266,-0.509 -24.211,-0.577C-23.923,-0.935 -23.652,-1.329 -23.297,-1.609C-21.48,-3.047 -19.721,-4.575 -17.793,-5.849C-11.89,-9.748 -6.149,-13.865 -0.619,-18.277C-0.438,-18.422 -0.246,-18.552 -0.058,-18.687C0.216,-18.883 0.53,-19.08 0.82,-18.81C0.945,-18.694 0.97,-18.371 0.914,-18.179C0.722,-17.513 0.474,-16.863 0,-15.495" style="fill:rgb(138,179,134);fill-rule:nonzero;"/>
                    </g>
                    <g transform="matrix(1,0,0,1,449.263,339.716)">
                        <path d="M0,6.449C-2.404,6.646 -3.854,6.047 -5.138,4.952C-6.478,3.811 -7.576,2.501 -8.126,0.8C-8.192,0.595 -8.211,0.22 -8.102,0.147C-7.84,-0.029 -7.469,-0.197 -7.179,-0.15C-4.485,0.295 -2.156,1.503 -0.18,3.371C0.486,3.999 1.075,4.709 1.69,5.39C1.887,5.608 1.658,6.141 1.344,6.203C0.67,6.334 -0.008,6.451 0,6.449" style="fill:rgb(246,224,126);fill-rule:nonzero;"/>
                    </g>
                    <g transform="matrix(1,0,0,1,433.132,321.602)">
                        <path d="M0,0.238C-0.115,1.43 -0.572,2.855 -1.807,3.882C-2.235,4.239 -2.791,4.494 -3.331,4.654C-4.229,4.92 -5.251,4.449 -5.762,3.698C-7.259,1.5 -7.061,-1.366 -5.608,-3.512C-5.039,-4.354 -4.134,-4.571 -3.167,-4.619C-1.949,-4.682 -1.146,-4.231 -0.659,-3.152C-0.225,-2.189 0.064,-1.192 0,0.238" style="fill-rule:nonzero;"/>
                    </g>
                    <g transform="matrix(1,0,0,1,425.566,360.792)">
                        <path d="M0,3.532C-0.105,3.516 -0.259,3.54 -0.307,3.479C-0.437,3.314 -0.644,3.086 -0.608,2.932C-0.351,1.829 0.272,0.909 0.971,0.039C1.009,-0.008 1.188,0.03 1.288,0.067C1.385,0.103 1.479,0.177 1.544,0.257C1.609,0.338 1.677,0.449 1.677,0.547C1.681,1.6 1.317,2.521 0.594,3.281C0.458,3.424 0.201,3.452 0,3.532" style="fill-rule:nonzero;"/>
                    </g>
                    <g transform="matrix(1,0,0,1,428.313,362.342)">
                        <path d="M0,1.132C0.177,0.613 0.451,-0.242 0.774,-1.079C0.825,-1.211 1.089,-1.278 1.267,-1.33C1.309,-1.342 1.453,-1.178 1.467,-1.082C1.652,0.204 1.385,1.38 0.526,2.374C0.44,2.474 0.139,2.412 -0.056,2.38C-0.124,2.368 -0.221,2.213 -0.214,2.132C-0.194,1.911 -0.126,1.694 0,1.132" style="fill-rule:nonzero;"/>
                    </g>
                    <g transform="matrix(1,0,0,1,423.892,362.492)">
                        <path d="M0,-1.753C0.161,-1.017 -0.349,-0.515 -0.654,0.057C-0.693,0.129 -0.919,0.191 -0.935,0.17C-1.037,0.026 -1.21,-0.177 -1.17,-0.296C-0.992,-0.816 -0.759,-1.317 -0.521,-1.815C-0.485,-1.891 -0.323,-1.944 -0.223,-1.939C-0.146,-1.936 -0.076,-1.821 0,-1.753" style="fill-rule:nonzero;"/>
                    </g>
                    <g transform="matrix(1,0,0,1,396.683,361.219)">
                        <path d="M0,3.942C0.509,2.715 0.845,1.852 1.234,1.012C1.308,0.854 1.6,0.704 1.778,0.717C1.917,0.728 2.164,1.022 2.143,1.153C1.798,3.256 0.863,5.112 -0.387,6.806C-1.058,7.715 -2.047,8.063 -3.156,7.919C-4.343,7.763 -5.401,7.339 -6.022,6.205C-6.244,5.799 -6.427,5.344 -6.745,5.03C-6.938,4.838 -7.418,4.727 -7.658,4.833C-8.177,5.062 -8.629,5.448 -9.1,5.783C-9.571,6.118 -10.007,6.511 -10.504,6.8C-11.453,7.353 -12.488,7.421 -13.535,7.132C-14.362,6.904 -14.88,6.344 -15.304,5.586C-15.778,4.737 -15.941,4.746 -16.642,5.134C-17.047,5.36 -17.418,5.654 -17.836,5.846C-18.704,6.245 -19.617,6.308 -20.556,6.108C-22.034,5.794 -22.939,4.496 -22.687,3.023C-22.647,2.795 -22.62,2.562 -22.553,2.341C-21.839,-0.015 -20.763,-2.176 -19.1,-4.016C-19.044,-4.079 -18.929,-4.087 -18.842,-4.121C-18.785,-3.91 -18.625,-3.657 -18.689,-3.493C-19.071,-2.525 -19.559,-1.597 -19.907,-0.619C-20.334,0.577 -20.698,1.798 -21.016,3.028C-21.208,3.776 -20.331,4.662 -19.519,4.536C-18.964,4.45 -18.381,4.276 -17.91,3.982C-17.031,3.432 -16.23,2.756 -15.384,2.152C-15.036,1.903 -14.369,2.163 -14.242,2.597C-14.049,3.262 -13.898,3.938 -13.707,4.603C-13.479,5.392 -12.556,5.843 -11.754,5.479C-11.133,5.197 -10.541,4.818 -10.002,4.399C-9.173,3.755 -8.348,3.133 -7.324,2.821C-6.702,2.631 -5.833,2.897 -5.5,3.487C-5.158,4.09 -4.875,4.726 -4.568,5.349C-4.291,5.914 -3.776,6.18 -3.23,6.384C-2.559,6.634 -1.708,6.442 -1.327,5.917C-0.785,5.169 -0.294,4.383 0,3.942" style="fill-rule:nonzero;"/>
                    </g>
                    <g transform="matrix(1,0,0,1,358.306,397.34)">
                        <path d="M0,-8.975C-0.076,-8.757 -0.135,-8.532 -0.229,-8.323C-1.564,-5.384 -2.859,-2.425 -4.496,0.365C-4.656,0.638 -4.876,0.636 -5.001,0.417C-5.054,0.325 -5.109,0.193 -5.082,0.104C-4.033,-3.324 -2.687,-6.611 -0.484,-9.486C-0.428,-9.56 -0.255,-9.613 -0.172,-9.581C-0.086,-9.548 -0.018,-9.408 0.012,-9.301C0.039,-9.202 0.006,-9.084 0,-8.975" style="fill-rule:nonzero;"/>
                    </g>
                    <g transform="matrix(1,0,0,1,358.168,389.83)">
                        <path d="M0,8.815C-0.076,8.728 -0.194,8.652 -0.217,8.553C-0.266,8.339 -0.328,8.096 -0.274,7.895C0.377,5.458 1.199,3.084 2.511,0.911C2.683,0.625 2.947,0.392 3.187,0.153C3.261,0.078 3.462,0 3.488,0.03C3.618,0.172 3.831,0.388 3.794,0.51C3.524,1.379 3.243,2.249 2.887,3.085C2.123,4.872 1.318,6.642 0.506,8.408C0.425,8.584 0.173,8.681 0,8.815" style="fill-rule:nonzero;"/>
                    </g>
                    <g transform="matrix(1,0,0,1,368.303,375.889)">
                        <path d="M0,-7.079C-0.899,-4.565 -1.781,-2.082 -2.692,0.393C-2.738,0.519 -3.024,0.574 -3.21,0.618C-3.249,0.628 -3.351,0.45 -3.395,0.346C-3.437,0.244 -3.467,0.126 -3.461,0.017C-3.306,-2.809 -2.345,-5.344 -0.66,-7.605C-0.585,-7.707 -0.306,-7.687 -0.128,-7.667C-0.063,-7.659 0.01,-7.49 0.029,-7.386C0.05,-7.278 0.01,-7.159 0,-7.079" style="fill-rule:nonzero;"/>
                    </g>
                    <g transform="matrix(1,0,0,1,365.1,398.183)">
                        <path d="M0,-6.079C0.021,-5.862 0.113,-5.621 0.051,-5.431C-0.552,-3.568 -1.173,-1.711 -1.823,0.135C-1.852,0.215 -2.217,0.204 -2.419,0.181C-2.498,0.171 -2.627,0.006 -2.621,-0.081C-2.464,-2.303 -1.849,-4.378 -0.586,-6.232C-0.544,-6.294 -0.357,-6.291 -0.252,-6.265C-0.158,-6.241 -0.084,-6.144 0,-6.079" style="fill-rule:nonzero;"/>
                    </g>
                    <g transform="matrix(1,0,0,1,367.723,393.011)">
                        <path d="M0,4.245C0.057,2.694 0.31,1.018 1.147,-0.516C1.24,-0.684 1.517,-0.752 1.707,-0.866C1.795,-0.678 1.897,-0.495 1.966,-0.3C2.001,-0.197 2,-0.069 1.978,0.039C1.646,1.597 1.32,3.155 0.955,4.705C0.916,4.87 0.653,5.044 0.466,5.088C0.362,5.111 0.177,4.889 0.068,4.747C0.009,4.67 0.033,4.528 0,4.245" style="fill-rule:nonzero;"/>
                    </g>
                    <g transform="matrix(1,0,0,1,368.114,372.596)">
                        <path d="M0,4.276C0.183,2.626 0.284,1.225 0.953,-0.037C1.113,-0.34 1.313,-0.639 1.56,-0.872C1.682,-0.988 1.949,-0.979 2.148,-0.969C2.219,-0.965 2.325,-0.797 2.337,-0.695C2.362,-0.47 2.386,-0.227 2.326,-0.015C1.851,1.657 1.364,3.326 0.847,4.986C0.805,5.12 0.51,5.195 0.318,5.251C0.269,5.264 0.116,5.111 0.099,5.017C0.034,4.687 0.009,4.349 0,4.276" style="fill-rule:nonzero;"/>
                    </g>
                    <g transform="matrix(1,0,0,1,371.338,375.018)">
                        <path d="M0,2.56C0.215,1.432 0.02,0.123 0.725,-1.01C0.776,-1.093 0.925,-1.154 1.029,-1.154C1.1,-1.154 1.182,-1.038 1.236,-0.959C1.3,-0.866 1.391,-0.752 1.381,-0.656C1.248,0.719 1.104,2.092 0.946,3.464C0.939,3.524 0.797,3.582 0.708,3.616C0.44,3.714 0.25,3.617 0.171,3.333C0.109,3.115 0.071,2.889 0,2.56" style="fill-rule:nonzero;"/>
                    </g>
                    <g transform="matrix(1,0,0,1,382.759,376.199)">
                        <path d="M0,-2.284C0.169,-2.749 0.273,-3.064 0.403,-3.369C0.434,-3.439 0.558,-3.521 0.626,-3.512C0.729,-3.498 0.887,-3.428 0.911,-3.346C1.347,-1.949 1.692,-0.536 1.463,0.946C1.447,1.049 1.362,1.197 1.282,1.218C1.201,1.237 1.06,1.147 0.993,1.066C0.786,0.809 0.494,0.558 0.428,0.261C0.229,-0.615 0.123,-1.513 0,-2.284" style="fill-rule:nonzero;"/>
                    </g>
                    <g transform="matrix(1,0,0,1,379.754,375.724)">
                        <path d="M0,-0.529C-0.084,0.4 -0.138,1.085 -0.216,1.769C-0.227,1.862 -0.402,2.026 -0.43,2.013C-0.578,1.939 -0.802,1.836 -0.822,1.713C-1.051,0.364 -1.351,-0.997 -0.708,-2.321C-0.663,-2.414 -0.559,-2.478 -0.482,-2.555C-0.405,-2.47 -0.276,-2.393 -0.261,-2.298C-0.149,-1.633 -0.062,-0.966 0,-0.529" style="fill-rule:nonzero;"/>
                    </g>
                    <g transform="matrix(1,0,0,1,373.281,394.036)">
                        <path d="M0,0.013C-0.068,0.272 -0.173,0.713 -0.311,1.145C-0.328,1.198 -0.529,1.228 -0.632,1.205C-0.726,1.185 -0.851,1.092 -0.874,1.007C-1.067,0.317 -0.891,-0.342 -0.657,-0.989C-0.625,-1.08 -0.454,-1.215 -0.427,-1.198C-0.283,-1.11 -0.102,-1.003 -0.055,-0.861C0.015,-0.652 -0.019,-0.41 0,0.013" style="fill-rule:nonzero;"/>
                    </g>
                    <g transform="matrix(1,0,0,1,390.613,413.65)">
                        <path d="M0,-3.381C0,-3.25 0.039,-3.117 -0.006,-3.027C-0.679,-1.674 -1.642,-0.575 -2.925,0.232C-3.008,0.284 -3.227,0.282 -3.251,0.235C-3.346,0.058 -3.498,-0.209 -3.43,-0.333C-2.702,-1.65 -1.714,-2.744 -0.482,-3.612C-0.416,-3.659 -0.271,-3.665 -0.202,-3.625C-0.11,-3.571 -0.056,-3.453 0,-3.381" style="fill-rule:nonzero;"/>
                    </g>
                    <g transform="matrix(1,0,0,1,390.377,411.584)">
                        <path d="M0,3.468C-0.063,3.371 -0.191,3.265 -0.179,3.178C-0.007,2.016 0.514,1.007 1.238,0.098C1.288,0.034 1.481,0 1.539,0.044C1.701,0.166 1.952,0.341 1.947,0.488C1.906,1.728 1.264,2.651 0.301,3.376C0.222,3.436 0.102,3.439 0,3.468" style="fill-rule:nonzero;"/>
                    </g>
                    <g transform="matrix(1,0,0,1,395.909,415.441)">
                        <path d="M0,-2.436C-0.028,-1.42 -0.315,-0.481 -1.187,0.209C-1.27,0.273 -1.418,0.329 -1.5,0.296C-1.59,0.261 -1.676,0.127 -1.697,0.024C-1.925,-1.105 -1.392,-1.953 -0.646,-2.707C-0.588,-2.765 -0.411,-2.747 -0.31,-2.709C-0.212,-2.673 -0.142,-2.566 0,-2.436" style="fill-rule:nonzero;"/>
                    </g>
                    <g transform="matrix(1,0,0,1,397.607,415.147)">
                        <path d="M0,0.037C0.07,-0.158 0.138,-0.489 0.307,-0.757C0.397,-0.9 0.683,-1.03 0.84,-0.992C0.98,-0.959 1.18,-0.667 1.152,-0.527C1.071,-0.104 0.924,0.315 0.738,0.706C0.663,0.866 0.426,0.949 0.262,1.067C0.175,0.874 0.074,0.685 0.006,0.485C-0.027,0.388 0,0.269 0,0.037" style="fill-rule:nonzero;"/>
                    </g>
                    <g transform="matrix(1,0,0,1,404.518,318.019)">
                        <path d="M0,-3.066C0.017,-2.851 0.128,-2.575 0.034,-2.432C-0.461,-1.682 -0.987,-0.951 -1.543,-0.244C-1.897,0.206 -2.469,0.261 -2.665,-0.083C-2.846,-0.401 -2.85,-0.708 -2.532,-0.963C-1.739,-1.601 -1.565,-2.782 -0.552,-3.226C-0.449,-3.271 -0.321,-3.327 -0.227,-3.3C-0.137,-3.275 -0.074,-3.149 0,-3.066" style="fill-rule:nonzero;"/>
                    </g>
                    <g transform="matrix(1,0,0,1,399.656,315.355)">
                        <path d="M0,-1.733C-0.082,-0.764 -0.686,-0.153 -1.502,0.27C-1.626,0.333 -1.941,0.185 -2.066,0.044C-2.189,-0.092 -2.293,-0.421 -2.215,-0.535C-1.777,-1.177 -1.245,-1.739 -0.497,-2.034C-0.416,-2.066 -0.287,-2.058 -0.216,-2.013C-0.129,-1.958 -0.08,-1.842 0,-1.733" style="fill-rule:nonzero;"/>
                    </g>
                    <g transform="matrix(1,0,0,1,410.405,316.994)">
                        <path d="M0,1.855C0.243,1.117 0.471,0.352 0.761,-0.387C0.813,-0.524 1.114,-0.582 1.312,-0.63C1.361,-0.643 1.526,-0.47 1.518,-0.396C1.411,0.511 1.287,1.423 0.691,2.168C0.571,2.318 0.356,2.39 0.186,2.498C0.126,2.291 0.066,2.084 0,1.855" style="fill-rule:nonzero;"/>
                    </g>
                    <g transform="matrix(1,0,0,1,406.937,315.345)">
                        <path d="M0,2.735C-0.067,2.644 -0.193,2.552 -0.191,2.463C-0.164,1.374 0.308,0.53 1.25,-0.032C1.314,-0.07 1.454,-0.05 1.521,-0.004C1.606,0.056 1.718,0.177 1.709,0.26C1.602,1.308 1.22,2.21 0.265,2.769C0.204,2.805 0.09,2.749 0,2.735" style="fill-rule:nonzero;"/>
                    </g>
                    <g transform="matrix(1,0,0,1,397.597,396.855)">
                        <path d="M0,-45.709C-3.006,-47.633 -6.224,-49.294 -9.645,-50.162C-11.343,-50.597 -13.106,-50.832 -14.798,-50.595C-15.64,-50.477 -16.457,-50.249 -17.207,-49.886C-17.601,-49.719 -17.899,-49.468 -18.227,-49.238C-18.531,-48.938 -18.858,-48.683 -19.146,-48.351C-20.33,-47.084 -21.397,-45.659 -22.435,-44.222C-23.475,-42.784 -24.463,-41.302 -25.44,-39.813C-27.392,-36.83 -29.283,-33.802 -31.131,-30.745C-34.857,-24.649 -38.465,-18.474 -42.109,-12.318L-47.589,-3.087L-50.387,1.498C-51.326,3.02 -52.256,4.557 -53.316,6.002C-51.519,2.909 -49.889,-0.278 -48.208,-3.438C-46.519,-6.593 -44.824,-9.746 -43.094,-12.88C-39.646,-19.155 -36.088,-25.371 -32.371,-31.5C-30.492,-34.553 -28.589,-37.593 -26.582,-40.572C-25.567,-42.056 -24.542,-43.532 -23.457,-44.974C-22.381,-46.42 -21.256,-47.837 -19.95,-49.143C-19.641,-49.478 -19.254,-49.771 -18.908,-50.084C-18.502,-50.362 -18.087,-50.662 -17.646,-50.834C-16.773,-51.224 -15.839,-51.452 -14.905,-51.536C-13.03,-51.711 -11.187,-51.377 -9.452,-50.844C-7.715,-50.297 -6.067,-49.537 -4.491,-48.67C-2.915,-47.804 -1.405,-46.82 0,-45.709" style="fill:white;fill-rule:nonzero;"/>
                    </g>
                    <g transform="matrix(1,0,0,1,345.854,409.997)">
                        <path d="M0,30.504C1.758,27.704 3.652,25.003 5.6,22.343C7.539,19.677 9.565,17.076 11.621,14.5C13.697,11.939 15.819,9.412 18.038,6.967C20.253,4.524 22.544,2.123 25.084,0C22.977,2.545 20.949,5.126 18.902,7.7L12.751,15.411C10.678,17.963 8.607,20.52 6.488,23.039C4.376,25.565 2.235,28.068 0,30.504" style="fill:white;fill-rule:nonzero;"/>
                    </g>
                    <g transform="matrix(1,0,0,1,338.107,415.746)">
                        <path d="M0,23.424C0.909,21.268 1.962,19.191 3.069,17.147C4.169,15.097 5.358,13.1 6.578,11.12C7.818,9.153 9.104,7.213 10.488,5.337C11.867,3.463 13.323,1.618 15.02,0L11.432,5.966C10.248,7.956 9.022,9.918 7.809,11.89C6.569,13.846 5.331,15.804 4.036,17.73C2.749,19.659 1.429,21.57 0,23.424" style="fill:white;fill-rule:nonzero;"/>
                    </g>
                    <g transform="matrix(1,0,0,1,335.203,415.052)">
                        <path d="M0,15.282C0.339,13.852 0.824,12.487 1.363,11.146C1.903,9.806 2.496,8.491 3.158,7.209C3.814,5.925 4.534,4.671 5.324,3.456C6.114,2.243 6.967,1.058 7.988,0C7.48,1.378 6.915,2.696 6.317,4.001C5.72,5.304 5.108,6.6 4.449,7.872C3.795,9.146 3.104,10.403 2.377,11.644C1.648,12.886 0.883,14.109 0,15.282" style="fill:white;fill-rule:nonzero;"/>
                    </g>
                    <g transform="matrix(0.542151,0.840281,0.840281,-0.542151,396.114,303.968)">
                        <path d="M4.69,-2.555C4.173,-0.736 3.984,1.146 3.946,3.024C3.936,4.9 4.094,6.809 4.69,8.607C4.663,6.722 4.644,4.887 4.672,3.033C4.687,1.179 4.741,-0.671 4.69,-2.555" style="fill:white;fill-rule:nonzero;"/>
                    </g>
                    <g transform="matrix(1,0,0,1,404.589,302.394)">
                        <path d="M0,5.145C1.429,3.666 3.164,2.515 5.002,1.595C5.925,1.139 6.892,0.769 7.882,0.482C8.869,0.187 9.901,0.041 10.924,0C9.946,0.319 8.996,0.643 8.064,1.018C7.139,1.406 6.215,1.791 5.321,2.248C4.419,2.684 3.533,3.158 2.647,3.641C1.77,4.135 0.884,4.625 0,5.145" style="fill:white;fill-rule:nonzero;"/>
                    </g>
                    <g transform="matrix(1,0,0,1,411.924,303.183)">
                        <path d="M0,3.569C1.532,2.343 3.326,1.487 5.181,0.863C6.112,0.556 7.069,0.319 8.041,0.177C9.008,0.011 9.999,0 10.973,0.059C10.018,0.281 9.08,0.478 8.154,0.733C7.23,0.983 6.312,1.242 5.408,1.551C3.588,2.141 1.812,2.843 0,3.569" style="fill:white;fill-rule:nonzero;"/>
                    </g>
                    <g transform="matrix(1,0,0,1,457.756,326.33)">
                        <path d="M0,17.975C-0.034,16.097 -0.198,14.265 -0.51,12.479C-0.834,10.698 -1.312,8.958 -2.075,7.364C-2.437,6.557 -2.877,5.788 -3.395,5.079C-3.896,4.356 -4.474,3.684 -5.117,3.071C-6.397,1.831 -7.95,0.864 -9.623,0C-7.768,0.286 -5.929,1.019 -4.383,2.206C-2.822,3.376 -1.583,4.982 -0.761,6.748C-0.361,7.639 -0.034,8.557 0.195,9.496C0.406,10.439 0.565,11.39 0.611,12.346C0.724,14.251 0.562,16.171 0,17.975" style="fill:white;fill-rule:nonzero;"/>
                    </g>
                </g>
            </g>
        </g>
    </g>
</svg>
