<?xml version="1.0" encoding="UTF-8" standalone="no"?>
<!DOCTYPE svg PUBLIC "-//W3C//DTD SVG 1.1//EN" "http://www.w3.org/Graphics/SVG/1.1/DTD/svg11.dtd">
<svg width="100%" height="100%" viewBox="0 0 534 534" version="1.1" xmlns="http://www.w3.org/2000/svg" xmlns:xlink="http://www.w3.org/1999/xlink" xml:space="preserve" xmlns:serif="http://www.serif.com/" style="fill-rule:evenodd;clip-rule:evenodd;stroke-linejoin:round;stroke-miterlimit:2;">
    <g transform="matrix(1,0,0,1,-3.77836,-1846.06)">
        <g id="bird10" transform="matrix(1,0,0,1,3.77836,1846.06)">
            <rect x="0" y="0" width="533.333" height="533.333" style="fill:none;"/>
            <g transform="matrix(0.948086,0,0,0.948086,-967.598,-1910.65)">
                <path d="M1303.73,2409.46C1304.09,2410.33 1304.38,2411.32 1304.52,2412.55C1304.04,2411.51 1303.38,2410.53 1303.73,2409.46Z" style="fill:rgb(23,21,17);fill-rule:nonzero;"/>
                <path d="M1297.07,2356.1C1297.12,2356.1 1297.17,2356.09 1297.22,2356.09C1297.2,2356.12 1297.2,2356.14 1297.18,2356.16C1297.15,2356.14 1297.11,2356.12 1297.07,2356.1Z" style="fill:rgb(23,21,17);fill-rule:nonzero;"/>
                <path d="M1103.49,2324.46C1104.42,2324.29 1105.35,2324.14 1106.29,2323.99C1106.29,2324.01 1106.3,2324.03 1106.3,2324.06C1111.89,2323.11 1117.5,2322.2 1123.08,2321.16C1124.23,2320.95 1125.68,2320.44 1125.56,2318.97C1125.51,2318.24 1124.56,2317.44 1123.84,2316.91C1119.04,2313.37 1114.21,2311.06 1108.85,2316.17C1106.82,2318.11 1104.27,2319.51 1102.09,2321.32C1100.91,2322.3 1100.02,2323.62 1099,2324.78C1100.56,2325.55 1102,2324.74 1103.49,2324.46ZM1115.42,2327.97C1122.6,2328.66 1127.23,2333.21 1131.77,2338.2C1142.93,2350.48 1158.36,2357.33 1170.57,2368.29C1173.07,2370.53 1174.93,2369.98 1176.61,2367.2C1180.53,2360.74 1184.56,2354.35 1184.88,2346.46C1185.31,2344.97 1185.95,2343.5 1186.15,2341.98C1188.41,2324.91 1178.52,2315.81 1161.62,2319.43C1157.99,2320.21 1154.41,2321.21 1150.81,2322.11C1146.92,2320.88 1143.09,2319.34 1139.11,2318.51C1136.43,2317.95 1132.73,2317.12 1130.98,2319.39C1126.97,2324.6 1121.25,2324.61 1115.81,2325.84C1114.85,2326.06 1113.37,2325.31 1113.07,2326.88C1113.03,2327.1 1114.57,2327.89 1115.42,2327.97ZM1157.44,2311.58C1158.5,2312.22 1160.25,2310.54 1161.19,2309.26C1163.09,2306.72 1163.39,2304.02 1161.09,2301.61C1159.58,2300.03 1157.69,2298.77 1155.29,2299.02C1154.8,2299.07 1154.35,2299.54 1153.71,2299.91C1154.49,2300.54 1155.23,2301.08 1155.91,2301.68C1157.38,2302.96 1158.07,2304.51 1158.27,2306.55C1158.45,2308.46 1154.55,2309.83 1157.44,2311.58ZM1146.53,2304.8C1146.64,2305.18 1147.62,2305.74 1147.82,2305.62C1149.61,2304.51 1149.06,2302.72 1149.04,2301.08C1149.07,2301.07 1149.1,2301.05 1149.14,2301.04C1149.21,2300.93 1149.29,2300.83 1149.37,2300.71C1149.61,2300.56 1149.85,2300.4 1150.09,2300.25C1149.92,2300.29 1149.7,2300.27 1149.6,2300.37C1149.5,2300.47 1149.44,2300.59 1149.37,2300.71C1149.25,2300.78 1149.14,2300.85 1149.03,2300.93C1149.03,2300.98 1149.04,2301.03 1149.04,2301.08C1147.14,2301.59 1145.91,2302.61 1146.53,2304.8ZM1187.8,2380.68C1223.4,2403.41 1262.76,2412.37 1304.52,2412.55C1322.23,2413.82 1339.96,2413.06 1357.68,2412.86C1357.56,2416.56 1354.82,2416.4 1352.3,2416.45C1344.72,2416.62 1337.15,2416.71 1329.57,2416.89C1328.09,2416.93 1326.05,2415.99 1325.26,2417.41C1324.27,2419.19 1326.53,2419.99 1327.54,2421C1331.77,2425.24 1336.2,2429.28 1340.42,2433.54C1367.35,2460.77 1390.57,2491.09 1413.55,2521.62C1415.43,2524.12 1416.91,2526.97 1419.58,2528.81C1420.31,2531.04 1421.42,2532.95 1423.75,2533.85C1423.74,2533.94 1423.81,2534 1423.8,2534.1C1423.85,2534.13 1423.93,2534.14 1424,2534.16C1424.16,2534.56 1424.32,2534.95 1424.48,2535.34C1425.52,2534.29 1424.56,2534.33 1424,2534.16C1423.98,2534.1 1423.95,2534.04 1423.93,2533.98C1423.85,2533.95 1423.82,2533.88 1423.75,2533.85C1423.84,2531.26 1422.6,2529.38 1420.54,2527.93C1413.48,2513.18 1404.05,2499.78 1396.28,2485.44C1387.25,2468.76 1377.34,2452.79 1361.28,2441.73C1360.16,2440.95 1358.18,2439.59 1359.13,2438.26C1360.35,2436.56 1361.9,2438.49 1363.1,2439.26C1367.92,2442.32 1371.7,2446.59 1375.93,2450.35C1377.9,2452.11 1380.61,2455.33 1382.94,2452.9C1385.11,2450.63 1381.88,2447.88 1380.25,2445.8C1374.45,2438.42 1368.5,2431.17 1362.58,2423.88C1361.85,2422.98 1360.36,2422.15 1361.18,2420.95C1361.98,2419.77 1363.52,2420.42 1364.62,2420.97C1371.45,2424.4 1377.64,2429.39 1385.74,2429.71C1385.8,2429.77 1385.86,2429.81 1385.92,2429.88C1385.97,2429.9 1386.02,2429.93 1386.07,2429.96C1386.02,2430.56 1386.23,2430.89 1386.83,2430.81C1386.8,2430.63 1386.83,2430.37 1386.72,2430.28C1386.53,2430.13 1386.3,2430.05 1386.07,2429.96C1386.08,2429.88 1386.04,2429.85 1386.06,2429.76C1385.95,2429.75 1385.85,2429.71 1385.74,2429.71C1381.51,2424.57 1375.42,2422.06 1370.01,2418.58C1368.89,2417.86 1366.71,2417.26 1367.89,2415.38C1368.67,2414.14 1370.2,2415.22 1371.21,2415.86C1376.8,2419.36 1382.7,2422.48 1387.82,2426.57C1394.06,2431.57 1400.92,2435.18 1408.28,2437.94C1435.91,2448.34 1463.59,2458.61 1491.28,2468.87C1492.59,2469.35 1494.07,2469.38 1495.49,2469.55C1495.58,2469.62 1495.68,2469.66 1495.76,2469.73C1495.84,2469.74 1495.92,2469.75 1496,2469.76C1496.36,2470.54 1496.98,2470.97 1497.84,2470.96C1498,2470.96 1498.17,2470.39 1498.33,2470.08C1497.56,2469.97 1496.78,2469.87 1496,2469.76C1495.97,2469.69 1495.91,2469.67 1495.88,2469.59C1495.75,2469.57 1495.62,2469.57 1495.49,2469.55C1485.45,2462.08 1473.64,2458.01 1462.57,2452.52C1432.1,2437.41 1400.8,2423.98 1371.35,2406.8C1361.67,2401.16 1353.03,2394.52 1345.78,2386.07C1338.76,2377.91 1330.59,2370.95 1322.84,2363.55C1321.2,2361.98 1319.54,2358.97 1316.84,2362.22C1311.6,2368.56 1304.32,2368.78 1297.03,2369.01C1282.43,2365.44 1267.74,2362.19 1254.01,2355.79C1251.17,2354.46 1248.14,2353.47 1245.47,2351.88C1243.92,2350.97 1240.18,2350.85 1241.9,2347.77C1243.13,2345.58 1245.24,2347.96 1246.74,2348.63C1254.48,2352.05 1262.27,2355.32 1270.35,2357.87C1280.55,2363.29 1291.81,2363.84 1302.93,2364.9C1305.01,2365.09 1307.23,2364.22 1309.33,2363.65C1312.23,2362.85 1314.63,2360.9 1315.17,2358.1C1315.8,2354.89 1312.93,2353.19 1310.5,2351.82C1306.77,2349.71 1303.48,2346.45 1298.69,2346.81C1292.94,2342.51 1287.18,2338.23 1281.46,2333.9C1280.76,2333.38 1279.71,2332.73 1280.19,2331.68C1280.98,2329.94 1282.34,2331.03 1283.18,2331.55C1288.98,2335.17 1293.96,2340.08 1300.57,2342.4C1306.75,2348.09 1314.12,2349.65 1322.21,2348.6C1325.29,2348.2 1327.83,2346.57 1328.26,2343.47C1328.81,2339.53 1325.27,2339.46 1322.66,2338.51C1315.3,2335.83 1307.99,2333.01 1300.67,2330.24C1296.38,2327.23 1290.94,2325.82 1287.92,2321.05C1293.76,2319.74 1297.02,2325.18 1301.9,2326.41C1303.41,2326.79 1304.83,2327.5 1306.29,2328.06C1315.11,2332.93 1324.03,2337.4 1334.64,2335.33C1337.47,2334.77 1340.59,2334.38 1340.64,2330.61C1340.68,2326.94 1337.72,2326.22 1334.87,2325.55C1327.25,2323.74 1319.63,2321.9 1312.01,2320.08C1308.17,2318.15 1304.35,2316.18 1300.47,2314.34C1299.28,2313.77 1297.74,2312.72 1298.13,2311.89C1299.03,2310.01 1300.59,2311.52 1301.94,2311.86C1306.72,2313.03 1310.87,2316.14 1315.94,2316.34C1326.45,2321.12 1337.19,2323.68 1348.66,2319.93C1350.46,2319.34 1352.3,2318.96 1353.74,2317.62C1355.23,2316.22 1355.92,2314.55 1355.21,2312.55C1354.53,2310.65 1352.74,2310.71 1351.25,2310.79C1340.8,2311.4 1330.57,2309.13 1320.21,2308.49C1317.43,2306.12 1313.63,2307.09 1310.62,2305.55C1308.64,2304.54 1304.38,2306.11 1304.81,2303.01C1305.27,2299.62 1308.72,2302.24 1310.82,2302.38C1313.26,2302.53 1315.68,2303.12 1318.11,2303.52C1329.94,2307.56 1342.17,2307.22 1354.4,2306.75C1356.25,2306.68 1358.09,2306.04 1359.89,2305.5C1363.53,2304.42 1368.05,2303.52 1367.08,2298.47C1366.04,2293.09 1361.41,2295.83 1358.55,2296.23C1348.1,2297.71 1337.78,2295.3 1327.39,2295.78C1324.04,2295.44 1320.68,2295.23 1317.36,2294.7C1315.98,2294.48 1313.69,2294.33 1313.79,2292.56C1313.91,2290.59 1316.1,2291.43 1317.39,2291.41C1320.75,2291.36 1324.12,2291.51 1327.48,2291.59C1344.39,2294.27 1361.14,2294.94 1377.23,2287.57C1380.07,2286.26 1383.07,2284.97 1384.63,2282.03C1386.2,2279.07 1384.72,2276.15 1381.83,2277.03C1364.51,2282.28 1346.41,2280.95 1328.85,2283.96C1326.09,2283.94 1323.3,2284.09 1320.56,2283.85C1318.47,2283.67 1314.73,2285.34 1314.72,2282.4C1314.71,2279.43 1318.68,2280.79 1320.9,2280.33C1323,2279.9 1325.17,2279.81 1327.31,2279.57C1351.77,2279.64 1375.76,2277.05 1398.36,2266.78C1404.11,2264.17 1409.71,2261.21 1414.12,2256.52C1414.9,2255.69 1415.75,2254.12 1415.47,2253.23C1414.85,2251.19 1412.95,2252.08 1411.56,2252.42C1399.32,2255.38 1387.1,2258.37 1374.88,2261.4C1359.87,2265.11 1344.41,2266.19 1329.28,2269.23C1328.53,2269.26 1327.78,2269.28 1327.03,2269.31C1325.64,2268.8 1323.68,2269.39 1323.12,2267.28C1326.41,2266.35 1329.69,2265.42 1332.98,2264.49C1346.57,2264.2 1359.65,2260.68 1372.93,2258.32C1407.66,2252.14 1440.17,2240.02 1470.87,2222.73C1481.29,2216.86 1492.23,2211.94 1502.9,2206.52C1504.63,2205.64 1507.87,2205.05 1507.3,2203.17C1506.86,2201.73 1504.01,2203.56 1502.32,2204.2C1494.37,2207.19 1486.38,2210.12 1478.51,2213.32C1436.06,2230.53 1392.04,2242.04 1347.01,2249.99C1344.22,2250.48 1341.48,2251.17 1338.71,2251.78L1338.5,2251.7C1343.36,2245.64 1350.5,2242.75 1356.82,2238.81C1388.32,2219.18 1417.22,2196.55 1440.76,2167.58C1441.36,2166.84 1442.12,2166.22 1442.58,2165.41C1443.13,2164.46 1444.67,2163.81 1443.73,2162.29C1442.77,2162.91 1441.69,2163.39 1440.85,2164.15C1423.96,2179.37 1405.96,2193.16 1386.51,2204.93C1372.01,2213.71 1357.16,2221.9 1342.47,2230.35C1313.06,2243.51 1283.44,2256.23 1254.32,2270C1236.97,2278.21 1224.81,2293.12 1211.86,2306.79C1208.64,2310.2 1205.31,2313.51 1202.04,2316.86C1198.29,2313.53 1202.57,2312.2 1203.72,2310.1C1204.15,2309.32 1205.21,2308.11 1205.04,2307.91C1203.78,2306.44 1202.91,2308.02 1201.94,2308.58C1201.41,2308.9 1201.05,2309.62 1200.51,2309.77C1198.07,2310.41 1196.87,2315.97 1194.15,2312.69C1192.71,2310.94 1197.01,2308.4 1199.11,2306.66C1204.45,2302.25 1211.32,2300.16 1216.48,2295.41C1218.51,2293.54 1219.29,2292.35 1216.1,2290.79C1200.82,2283.29 1185.62,2275.64 1167.87,2276.56C1158.32,2277.05 1149.23,2279.13 1141.04,2284.34C1131.3,2286.42 1125.39,2293.03 1121.17,2301.46C1117.66,2308.48 1119.12,2312.61 1126.67,2313.74C1134.7,2314.94 1142.84,2315.27 1150.63,2317.89C1151.36,2318.13 1152.34,2317.62 1153.2,2317.46C1152.46,2316.97 1151.69,2316.49 1150.97,2315.97C1140.07,2308.08 1139.71,2306.82 1145.6,2297.46C1149.89,2294.71 1154.39,2294.2 1159.06,2296.3C1166.7,2299.75 1168.14,2305.52 1163.05,2312.15C1162.17,2313.28 1161.16,2314.31 1160.21,2315.39C1161.8,2316.23 1163.26,2315.19 1164.79,2315.11C1174.51,2314.59 1182.68,2317.58 1188.46,2325.82C1191.52,2336.57 1189.69,2347.04 1186.57,2357.42C1185.41,2359.6 1184.21,2361.77 1183.08,2363.97C1177.78,2374.25 1177.77,2374.28 1187.8,2380.68ZM1300.5,2239.67C1299.49,2236.03 1296.15,2236.66 1293.39,2236.59C1286.9,2236.42 1281.15,2239.42 1275.22,2241.36C1265.36,2244.59 1255.78,2248.65 1246.06,2252.32C1243.79,2253.18 1240.33,2255.52 1239.34,2253.18C1238.23,2250.57 1242.32,2250.28 1244.41,2249.45C1256.39,2244.67 1268.29,2239.62 1280.77,2236.19C1287.79,2234.26 1292.19,2229.83 1294.42,2223.07C1295.2,2220.68 1295.96,2218.02 1294.12,2215.88C1292.02,2213.44 1289.39,2214.95 1287.09,2215.74C1272.08,2220.91 1258.66,2229.2 1245.02,2237.09C1241.37,2239.2 1238.42,2242.98 1233.51,2242.42C1234.69,2237.32 1239.81,2236.93 1243.2,2234.67C1253.7,2227.67 1264.66,2221.31 1276.31,2216.47C1286.84,2212.1 1289.78,2203.01 1292.39,2193.5C1293.32,2190.09 1291.52,2188.57 1288.21,2190C1285.93,2190.99 1283.81,2192.46 1281.78,2193.93C1264.17,2206.71 1245.68,2218.26 1228.8,2232.06C1227.79,2232.89 1226.4,2234.97 1225.12,2232.99C1224.17,2231.51 1226.08,2230.26 1227.23,2229.27C1239.48,2218.78 1252.62,2209.4 1266.26,2200.93C1279.28,2192.84 1285.88,2180.88 1290.55,2167.19C1291.15,2165.44 1291.28,2163.49 1291.45,2161.62C1291.74,2158.52 1290.45,2157.62 1287.56,2158.94C1284.28,2160.42 1282.02,2163.08 1279.63,2165.58C1261.08,2184.99 1239.43,2201.11 1221.16,2220.82C1220.2,2221.85 1218.97,2223.72 1217.42,2221.91C1216.09,2220.34 1217.67,2219.04 1218.78,2217.99C1233.49,2204.16 1247.73,2189.77 1263.09,2176.69C1280.11,2162.19 1289.34,2143.15 1297.7,2123.29C1298.2,2122.13 1299.04,2120.7 1297.82,2119.95C1297.27,2119.62 1295.6,2120.75 1294.67,2121.51C1289.77,2125.55 1285.93,2130.59 1281.97,2135.49C1262.46,2159.61 1239.39,2180.32 1217.79,2202.44C1216.92,2203.33 1215.86,2204.07 1214.8,2204.73C1214.1,2205.16 1213.18,2205.98 1212.41,2204.98C1211.8,2204.18 1212.1,2203.26 1212.84,2202.52C1214.62,2200.73 1216.35,2198.9 1218.15,2197.13C1236.36,2179.18 1254.74,2161.41 1271.84,2142.38C1285.89,2126.74 1292.08,2106.97 1300.8,2088.52C1301.24,2087.57 1302.27,2086.1 1300.59,2085.44C1299.18,2084.88 1298.4,2086.44 1297.6,2087.29C1284.18,2101.53 1270.51,2115.54 1257.5,2130.14C1241.35,2148.26 1224.93,2166.19 1210.26,2185.59C1209.51,2186.59 1208.48,2187.38 1207.56,2188.24C1206.77,2188.97 1205.81,2189.04 1205.09,2188.3C1204.35,2187.53 1204.6,2186.6 1205.25,2185.81C1208.44,2181.9 1211.64,2178 1214.82,2174.08C1233.71,2150.79 1253.74,2128.49 1273.57,2106.01C1286,2091.91 1292.35,2074.85 1297.89,2057.35C1298.27,2056.16 1299.19,2054.56 1298.09,2053.83C1296.46,2052.74 1295.41,2054.61 1294.42,2055.6C1279.91,2070.12 1266.31,2085.47 1253.6,2101.58C1237.19,2122.38 1221.16,2143.48 1205.99,2165.22C1204.72,2167.03 1203.42,2168.82 1202.06,2170.56C1201.3,2171.53 1200.26,2172.66 1199.04,2171.57C1197.81,2170.46 1198.97,2169.31 1199.66,2168.34C1208.63,2155.75 1217.45,2143.05 1226.64,2130.63C1237.31,2116.21 1248.3,2102.03 1259.15,2087.75C1267.56,2079.16 1269.89,2067.58 1274.06,2056.95C1275.97,2052.06 1276.91,2046.78 1278.3,2041.69C1279.49,2040.61 1279.8,2039.27 1279.51,2037.73C1279.7,2036.53 1279.89,2035.33 1280.08,2034.12C1282.26,2030.4 1282.27,2026.4 1281.61,2022.31C1277.4,2023.87 1276.52,2028.1 1274.58,2031.36C1250.69,2071.46 1225.7,2110.88 1200.33,2150.05C1198.78,2152.43 1197.31,2154.86 1195.77,2157.25C1190.91,2164.81 1186.38,2172.31 1192.83,2181.38C1194.21,2183.34 1194.36,2186.11 1194.29,2188.71C1194.23,2191.47 1190.2,2196.5 1197.97,2195.41C1199.26,2195.23 1199.65,2198.46 1200.01,2200.33C1202.21,2211.81 1198.59,2222.14 1193.69,2232.2C1193.18,2233.25 1192.38,2234.78 1190.96,2234.14C1189.44,2233.47 1190.31,2231.98 1190.77,2230.91C1193.39,2224.82 1195.7,2218.64 1196.81,2212.07C1197.17,2209.92 1197.64,2207.69 1197.45,2205.55C1197.27,2203.47 1197.34,2200.38 1195.13,2199.77C1192.14,2198.94 1192.2,2202.49 1191.35,2204.18C1188.64,2209.51 1186.42,2215.08 1183.87,2220.5C1183.15,2222.04 1182.25,2224.77 1180.24,2223.62C1178.36,2222.55 1180.05,2220.25 1180.83,2218.58C1184.42,2210.86 1187.84,2203.07 1189.43,2194.63C1189.78,2192.78 1190.36,2190.91 1190.32,2189.06C1190.24,2185.3 1190.06,2179.84 1187.28,2178.83C1183.65,2177.53 1182.46,2182.89 1181.55,2185.75C1180.17,2190.1 1174.81,2183.84 1173.92,2189.44C1173.37,2192.99 1170.58,2196.16 1168.94,2199.57C1167.31,2202.97 1165.99,2206.54 1164.31,2209.92C1153.6,2231.5 1160.36,2250.92 1171.44,2269.92C1172.96,2272.52 1175.22,2273.25 1177.68,2273.51C1192.4,2275.12 1205.57,2281.17 1218.48,2287.81C1221.86,2289.54 1223.96,2289.41 1226.59,2286.63C1236.46,2276.17 1248.45,2268.66 1261.3,2262.42C1262.55,2261.82 1263.63,2260.86 1264.78,2260.06C1263.56,2260.18 1262.32,2260.18 1261.12,2260.43C1256.19,2261.44 1251.27,2262.49 1246.37,2263.62C1245.16,2263.89 1243.61,2264.7 1243.1,2263.32C1242.55,2261.86 1244.19,2261.37 1245.41,2261.07C1253.03,2259.15 1260.45,2255.99 1268.36,2255.81C1278.56,2255.58 1287.11,2250.75 1296.1,2247.06C1299.21,2245.79 1301.53,2243.41 1300.5,2239.67ZM1108.05,2313.18C1112.67,2310.62 1115.61,2307.47 1117.28,2302.11C1120.09,2293.08 1126.29,2286.38 1134.89,2282.03C1141.97,2278.46 1149.38,2275.89 1157.17,2274.46C1168.35,2272.4 1168.28,2272.47 1163,2261.78C1158.65,2252.98 1155.1,2243.9 1154.76,2233.57C1154.78,2224.54 1157.64,2215.88 1161.3,2207.47C1169.5,2188.63 1180.84,2171.77 1192.37,2154.78C1221.23,2112.27 1248.06,2068.42 1274.61,2024.42C1276.83,2020.75 1278.63,2013.62 1283.73,2015.62C1288.21,2017.38 1285.75,2024.17 1285.16,2028.61C1283.32,2042.42 1278.9,2055.57 1273.8,2068.49C1273.27,2069.84 1271.94,2071.08 1273.2,2072.68C1274.16,2071.87 1275.21,2071.15 1276.06,2070.24C1282.11,2063.8 1288.03,2057.24 1294.18,2050.9C1296.29,2048.74 1298.93,2044.7 1301.62,2046.27C1304.8,2048.13 1302.78,2052.63 1301.99,2055.82C1300.11,2063.47 1297.34,2070.84 1294.27,2078.11C1293.11,2080.87 1289.52,2084.56 1291.72,2086.27C1293.75,2087.85 1296.27,2083.26 1298.59,2081.43C1300.61,2079.84 1302.78,2077.71 1305.24,2079.36C1307.52,2080.89 1305.7,2083.37 1305.13,2085.41C1302.21,2095.77 1297.01,2105.18 1292.67,2114.94C1292.18,2116.04 1291.01,2116.9 1291.94,2118.28C1292.85,2117.66 1293.77,2117.04 1294.67,2116.39C1294.92,2116.21 1295.09,2115.92 1295.34,2115.73C1297.53,2114.08 1299.89,2110.77 1302.41,2112.22C1306.04,2114.3 1303.12,2118.1 1302.26,2120.7C1299.01,2130.59 1294.16,2139.81 1289.38,2149.03C1287.76,2152.16 1285.48,2154.91 1291.95,2155.47C1296.05,2155.83 1295.27,2160.32 1294.85,2163.33C1293.96,2169.63 1291.22,2175.34 1288.49,2181.03C1287.3,2183.5 1286.06,2185.84 1290.76,2185.6C1295.14,2185.38 1295.82,2188.58 1295.8,2191.98C1295.77,2196.8 1294.24,2201.26 1292.27,2205.6C1291.41,2207.49 1290.07,2209.06 1292.81,2211.16C1300.13,2216.81 1300.43,2218.54 1296.64,2226.56C1295.06,2229.9 1291.72,2233.23 1299.15,2233.3C1302.34,2233.32 1304.39,2235.85 1304.2,2239.08C1303.9,2244.4 1306.52,2242.82 1309.21,2241.54C1328.27,2232.48 1347.39,2223.53 1365.83,2213.23C1401.04,2193.53 1432.51,2168.94 1460.99,2140.45C1463.89,2137.55 1466.97,2134.83 1470.08,2132.17C1470.83,2131.53 1472.11,2130.12 1473.07,2131.94C1473.43,2132.6 1473.3,2133.9 1472.86,2134.55C1471.28,2136.89 1469.57,2139.18 1467.72,2141.32C1455.56,2155.43 1443.4,2169.53 1431.16,2183.56C1420.32,2195.97 1408.33,2207.1 1394.79,2216.56C1383.94,2224.14 1373.25,2231.96 1362.53,2239.73C1361.03,2240.81 1359.75,2242.19 1358.37,2243.44C1360.16,2244.47 1361.85,2243.45 1363.56,2243.15C1407.51,2235.32 1449.64,2221.41 1491.02,2205.01C1504.49,2199.67 1517.94,2194.26 1531.87,2190.19C1533.74,2189.64 1536.48,2187.59 1537.55,2190.35C1538.52,2192.85 1535.28,2193.61 1533.58,2194.84C1533.07,2195.2 1532.48,2195.45 1531.91,2195.73C1496.62,2213.14 1462.24,2232.41 1425.93,2247.74C1423.91,2248.6 1420.96,2248.88 1420.45,2251C1417.47,2263.32 1406.88,2266.7 1397.27,2271.16C1393.03,2273.13 1388.39,2273.83 1389.23,2280.63C1389.64,2284.02 1386.03,2286.57 1382.83,2288.21C1380.03,2289.65 1375.62,2290.17 1374.57,2292.36C1370.81,2300.18 1364.66,2305.99 1359.9,2312.77C1356.59,2317.5 1354.74,2322.3 1348.66,2323.66C1346.51,2324.13 1343.89,2324.13 1344.46,2327.38C1345.77,2334.76 1341.24,2337.01 1335.41,2339.37C1329.97,2341.57 1331.89,2351.05 1324.41,2352.13C1324.1,2352.17 1323.79,2352.28 1323.48,2352.3C1316.54,2352.72 1320.13,2355.64 1322.31,2357.79C1327.91,2363.34 1334.21,2368.27 1339.28,2374.26C1357.05,2395.22 1379.75,2408.95 1404.22,2420.46C1447.23,2440.71 1490.11,2461.21 1533.01,2481.71C1539.53,2484.82 1545.81,2488.44 1552.18,2491.89C1552.91,2492.28 1554.07,2492.72 1553.71,2493.88C1553.22,2495.41 1552.01,2495.41 1550.7,2494.93C1549.52,2494.49 1548.3,2494.16 1547.13,2493.68C1499.3,2474.15 1449.92,2458.75 1402.07,2439.26C1398.3,2437.72 1394.31,2436.68 1390.34,2435.71C1385.26,2434.46 1380.1,2433.51 1374.98,2432.43C1377.93,2436.5 1381.13,2440.43 1383.76,2444.7C1386,2448.33 1390.12,2452.55 1387.23,2456.63C1384.57,2460.36 1386.5,2462.13 1387.94,2464.61C1389.68,2467.61 1391.6,2470.5 1393.37,2473.48C1411.6,2504.07 1430.22,2534.44 1445.94,2566.44C1446.66,2567.92 1448.81,2570.05 1446.81,2571.27C1444.75,2572.53 1443.88,2569.7 1442.93,2568.3C1425.08,2541.88 1405.61,2516.65 1385.97,2491.56C1367.29,2467.69 1347.82,2444.52 1325.42,2423.9C1319.66,2418.6 1313.89,2416.55 1306.11,2416.43C1264.5,2415.8 1224.24,2408.46 1188.79,2385.45C1166.9,2371.24 1145.35,2356.21 1126.4,2337.97C1122.6,2334.31 1118.46,2331.89 1113.19,2331.36C1107.56,2330.79 1102.06,2328.99 1096.3,2329.51C1094.9,2329.64 1093.09,2330.59 1092.37,2328.4C1091.79,2326.63 1093.09,2325.45 1094.02,2324.23C1097.73,2319.33 1102.82,2316.08 1108.05,2313.18Z" style="fill:rgb(23,21,17);fill-rule:nonzero;"/>
                <path d="M1229.42,2262.19C1228.12,2262.16 1227.54,2263.48 1227.04,2264.57C1226.89,2265.52 1227.16,2266.56 1228.06,2266.68C1229.29,2266.83 1230.35,2266.13 1230.64,2264.76C1230.88,2263.6 1231.02,2262.22 1229.42,2262.19ZM1222.54,2248.93C1220.48,2249.48 1220.26,2251.5 1219.49,2252.59C1219.34,2254.02 1219.66,2255.25 1220.51,2255.21C1222.82,2255.09 1223.29,2253.12 1223.4,2251.27C1223.45,2250.47 1222.63,2248.91 1222.54,2248.93ZM1214.74,2235.02C1213.84,2235.88 1212.96,2236.37 1212.61,2237.11C1211.84,2238.77 1211.03,2240.52 1210.8,2242.31C1210.49,2244.68 1206.25,2247.58 1210.02,2249.07C1212.16,2249.93 1213.19,2245.37 1214.17,2242.93C1214.85,2241.24 1215.32,2239.43 1215.62,2237.63C1215.73,2236.93 1215.13,2236.11 1214.74,2235.02ZM1206.23,2225.92C1202.13,2227.28 1203.92,2231.75 1201.99,2234.23C1202.35,2235.38 1202.62,2236.23 1202.89,2237.09C1206.1,2235.15 1206.53,2231.56 1207.82,2228.53C1208.3,2227.4 1207.51,2225.5 1206.23,2225.92ZM1296.1,2247.06C1287.11,2250.75 1278.56,2255.58 1268.36,2255.81C1260.45,2255.99 1253.03,2259.15 1245.41,2261.07C1244.19,2261.37 1242.55,2261.86 1243.1,2263.32C1243.61,2264.7 1245.16,2263.89 1246.37,2263.62C1251.27,2262.49 1256.19,2261.44 1261.12,2260.43C1262.32,2260.18 1263.56,2260.18 1264.78,2260.06C1263.63,2260.86 1262.55,2261.82 1261.3,2262.42C1248.45,2268.66 1236.46,2276.17 1226.59,2286.63C1223.96,2289.41 1221.86,2289.54 1218.48,2287.81C1205.57,2281.17 1192.4,2275.12 1177.68,2273.51C1175.22,2273.25 1172.96,2272.52 1171.44,2269.92C1160.36,2250.92 1153.6,2231.5 1164.31,2209.92C1165.99,2206.54 1167.31,2202.97 1168.94,2199.57C1170.58,2196.16 1173.37,2192.99 1173.92,2189.44C1174.81,2183.84 1180.17,2190.1 1181.55,2185.75C1182.46,2182.89 1183.65,2177.53 1187.28,2178.83C1190.06,2179.84 1190.24,2185.3 1190.32,2189.06C1190.36,2190.91 1189.78,2192.78 1189.43,2194.63C1187.84,2203.07 1184.42,2210.86 1180.83,2218.58C1180.05,2220.25 1178.36,2222.55 1180.24,2223.62C1182.25,2224.77 1183.15,2222.04 1183.87,2220.5C1186.42,2215.08 1188.64,2209.51 1191.35,2204.18C1192.2,2202.49 1192.14,2198.94 1195.13,2199.77C1197.34,2200.38 1197.27,2203.47 1197.45,2205.55C1197.64,2207.69 1197.17,2209.92 1196.81,2212.07C1195.7,2218.64 1193.39,2224.82 1190.77,2230.91C1190.31,2231.98 1189.44,2233.47 1190.96,2234.14C1192.38,2234.78 1193.18,2233.25 1193.69,2232.2C1198.59,2222.14 1202.21,2211.81 1200.01,2200.33C1199.65,2198.46 1199.26,2195.23 1197.97,2195.41C1190.2,2196.5 1194.23,2191.47 1194.29,2188.71C1194.36,2186.11 1194.21,2183.34 1192.83,2181.38C1186.38,2172.31 1190.91,2164.81 1195.77,2157.25C1197.31,2154.86 1198.78,2152.43 1200.33,2150.05C1225.7,2110.88 1250.69,2071.46 1274.58,2031.36C1276.52,2028.1 1277.4,2023.87 1281.61,2022.31C1282.27,2026.4 1282.26,2030.4 1280.08,2034.12C1279.46,2033.36 1279.02,2028.84 1277.97,2033.61C1275.86,2043.15 1271.15,2051.59 1267.25,2060.29C1263.26,2069.18 1260.56,2078.22 1259.15,2087.75C1248.3,2102.03 1237.31,2116.21 1226.64,2130.63C1217.45,2143.05 1208.63,2155.75 1199.66,2168.34C1198.97,2169.31 1197.81,2170.46 1199.04,2171.57C1200.26,2172.66 1201.3,2171.53 1202.06,2170.56C1203.42,2168.82 1204.72,2167.03 1205.99,2165.22C1221.16,2143.48 1237.19,2122.38 1253.6,2101.58C1266.31,2085.47 1279.91,2070.12 1294.42,2055.6C1295.41,2054.61 1296.46,2052.74 1298.09,2053.83C1299.19,2054.56 1298.27,2056.16 1297.89,2057.35C1292.35,2074.85 1286,2091.91 1273.57,2106.01C1253.74,2128.49 1233.71,2150.79 1214.82,2174.08C1211.64,2178 1208.44,2181.9 1205.25,2185.81C1204.6,2186.6 1204.35,2187.53 1205.09,2188.3C1205.81,2189.04 1206.77,2188.97 1207.56,2188.24C1208.48,2187.38 1209.51,2186.59 1210.26,2185.59C1224.93,2166.19 1241.35,2148.26 1257.5,2130.14C1270.51,2115.54 1284.18,2101.53 1297.6,2087.29C1298.4,2086.44 1299.18,2084.88 1300.59,2085.44C1302.27,2086.1 1301.24,2087.57 1300.8,2088.52C1292.08,2106.97 1285.89,2126.74 1271.84,2142.38C1254.74,2161.41 1236.36,2179.18 1218.15,2197.13C1216.35,2198.9 1214.62,2200.73 1212.84,2202.52C1212.1,2203.26 1211.8,2204.18 1212.41,2204.98C1213.18,2205.98 1214.1,2205.16 1214.8,2204.73C1215.86,2204.07 1216.92,2203.33 1217.79,2202.44C1239.39,2180.32 1262.46,2159.61 1281.97,2135.49C1285.93,2130.59 1289.77,2125.55 1294.67,2121.51C1295.6,2120.75 1297.27,2119.62 1297.82,2119.95C1299.04,2120.7 1298.2,2122.13 1297.7,2123.29C1289.34,2143.15 1280.11,2162.19 1263.09,2176.69C1247.73,2189.77 1233.49,2204.16 1218.78,2217.99C1217.67,2219.04 1216.09,2220.34 1217.42,2221.91C1218.97,2223.72 1220.2,2221.85 1221.16,2220.82C1239.43,2201.11 1261.08,2184.99 1279.63,2165.58C1282.02,2163.08 1284.28,2160.42 1287.56,2158.94C1290.45,2157.62 1291.74,2158.52 1291.45,2161.62C1291.28,2163.49 1291.15,2165.44 1290.55,2167.19C1285.88,2180.88 1279.28,2192.84 1266.26,2200.93C1252.62,2209.4 1239.48,2218.78 1227.23,2229.27C1226.08,2230.26 1224.17,2231.51 1225.12,2232.99C1226.4,2234.97 1227.79,2232.89 1228.8,2232.06C1245.68,2218.26 1264.17,2206.71 1281.78,2193.93C1283.81,2192.46 1285.93,2190.99 1288.21,2190C1291.52,2188.57 1293.32,2190.09 1292.39,2193.5C1289.78,2203.01 1286.84,2212.1 1276.31,2216.47C1264.66,2221.31 1253.7,2227.67 1243.2,2234.67C1239.81,2236.93 1234.69,2237.32 1233.51,2242.42C1238.42,2242.98 1241.37,2239.2 1245.02,2237.09C1258.66,2229.2 1272.08,2220.91 1287.09,2215.74C1289.39,2214.95 1292.02,2213.44 1294.12,2215.88C1295.96,2218.02 1295.2,2220.68 1294.42,2223.07C1292.19,2229.83 1287.79,2234.26 1280.77,2236.19C1268.29,2239.62 1256.39,2244.67 1244.41,2249.45C1242.32,2250.28 1238.23,2250.57 1239.34,2253.18C1240.33,2255.52 1243.79,2253.18 1246.06,2252.32C1255.78,2248.65 1265.36,2244.59 1275.22,2241.36C1281.15,2239.42 1286.9,2236.42 1293.39,2236.59C1296.15,2236.66 1299.49,2236.03 1300.5,2239.67C1301.53,2243.41 1299.21,2245.79 1296.1,2247.06Z" style="fill:rgb(96,132,202);fill-rule:nonzero;"/>
                <path d="M1282.12,2312.15C1283.61,2312.46 1284.19,2311.21 1284.79,2310.2C1285.62,2308.82 1284.29,2308.71 1283.57,2308.52C1282.13,2308.14 1281.34,2309.02 1280.88,2310.27C1280.37,2311.5 1281.25,2311.97 1282.12,2312.15ZM1291.93,2297.19C1292.37,2296.83 1292.82,2296.45 1293.26,2296.08C1292.79,2295.77 1292.33,2295.2 1291.85,2295.19C1291.05,2295.16 1290.03,2295.4 1290.31,2296.55C1290.39,2296.87 1291.35,2296.98 1291.93,2297.19ZM1299.1,2284.58C1300.64,2284.07 1301.94,2283.15 1301.94,2281.44C1301.94,2280.46 1300.81,2280.34 1299.85,2280.4C1298.7,2281.16 1296.9,2281.45 1296.71,2283.16C1296.53,2284.87 1297.76,2285.02 1299.1,2284.58ZM1306.53,2270.83C1308.74,2270.54 1310.58,2269.45 1311.46,2267.35C1311.82,2266.49 1311.23,2265.62 1309.82,2265.81C1307.92,2266.42 1305.83,2267.14 1304.99,2269.39C1304.55,2270.59 1305.69,2270.94 1306.53,2270.83ZM1317.24,2251.31C1317.52,2250.32 1316.4,2249.53 1315.58,2250.09C1313.61,2251.44 1311.85,2253.09 1310.05,2254.58C1310.93,2255.76 1311.78,2256.07 1312.65,2255.59C1314.54,2254.56 1316.6,2253.56 1317.24,2251.31ZM1304.47,2408.35C1305.92,2406.94 1309.43,2406.77 1308.47,2404.03C1307.93,2402.46 1305.07,2403.42 1303.27,2403.19C1264.04,2398.19 1227.5,2385.68 1194.09,2364.33C1191.15,2362.46 1188.06,2360.83 1186.57,2357.42C1189.69,2347.04 1191.52,2336.57 1188.46,2325.82C1191.6,2320.73 1196.07,2317.67 1202.04,2316.86C1205.31,2313.51 1208.64,2310.2 1211.86,2306.79C1224.81,2293.12 1236.97,2278.21 1254.32,2270C1283.44,2256.23 1313.06,2243.51 1342.47,2230.35C1342.79,2236.76 1337.28,2239.92 1334.51,2244.61C1333.26,2246.72 1329.79,2248.7 1330.86,2250.67C1332.17,2253.05 1335.82,2251.74 1338.5,2251.7L1338.71,2251.78C1339.55,2257.26 1336.27,2260.88 1332.98,2264.49C1329.69,2265.42 1326.41,2266.35 1323.12,2267.28C1321.6,2267.85 1321.51,2269.17 1322.42,2269.97C1323.99,2271.33 1325.69,2270.89 1327.03,2269.31C1327.78,2269.28 1328.53,2269.26 1329.28,2269.23C1329.39,2272.82 1329.18,2276.36 1327.31,2279.57C1325.17,2279.81 1323,2279.9 1320.9,2280.33C1318.68,2280.79 1314.71,2279.43 1314.72,2282.4C1314.73,2285.34 1318.47,2283.67 1320.56,2283.85C1323.3,2284.09 1326.09,2283.94 1328.85,2283.96C1327.78,2286.39 1327.53,2288.97 1327.48,2291.59C1324.12,2291.51 1320.75,2291.36 1317.39,2291.41C1316.1,2291.43 1313.91,2290.59 1313.79,2292.56C1313.69,2294.33 1315.98,2294.48 1317.36,2294.7C1320.68,2295.23 1324.04,2295.44 1327.39,2295.78C1325.68,2300.01 1323.53,2303.73 1318.11,2303.52C1315.68,2303.12 1313.26,2302.53 1310.82,2302.38C1308.72,2302.24 1305.27,2299.62 1304.81,2303.01C1304.38,2306.11 1308.64,2304.54 1310.62,2305.55C1313.63,2307.09 1317.43,2306.12 1320.21,2308.49C1318.79,2311.11 1317.37,2313.72 1315.94,2316.34C1310.87,2316.14 1306.72,2313.03 1301.94,2311.86C1300.59,2311.52 1299.03,2310.01 1298.13,2311.89C1297.74,2312.72 1299.28,2313.77 1300.47,2314.34C1304.35,2316.18 1308.17,2318.15 1312.01,2320.08C1310.1,2322.74 1308.19,2325.4 1306.29,2328.06C1304.83,2327.5 1303.41,2326.79 1301.9,2326.41C1297.02,2325.18 1293.76,2319.74 1287.92,2321.05C1290.94,2325.82 1296.38,2327.23 1300.67,2330.24C1300.64,2334.29 1300.6,2338.35 1300.57,2342.4C1293.96,2340.08 1288.98,2335.17 1283.18,2331.55C1282.34,2331.03 1280.98,2329.94 1280.19,2331.68C1279.71,2332.73 1280.76,2333.38 1281.46,2333.9C1287.18,2338.23 1292.94,2342.51 1298.69,2346.81C1297.64,2349.82 1299.69,2353.32 1297.22,2356.09C1297.17,2356.09 1297.12,2356.1 1297.07,2356.1C1288.06,2350.2 1277.9,2346.2 1269.47,2339.33C1268.53,2338.56 1267,2337.97 1266.28,2339.46C1265.71,2340.63 1266.67,2341.74 1267.73,2342.46C1271.86,2345.24 1276,2347.99 1280.14,2350.76C1280.21,2351.65 1280.44,2352.34 1281.57,2352C1282.23,2352.22 1282.89,2352.45 1283.55,2352.68C1281.31,2354.36 1278.71,2353.65 1276.31,2353.56C1273,2353.43 1271.24,2354.91 1270.35,2357.87C1262.27,2355.32 1254.48,2352.05 1246.74,2348.63C1245.24,2347.96 1243.13,2345.58 1241.9,2347.77C1240.18,2350.85 1243.92,2350.97 1245.47,2351.88C1248.14,2353.47 1251.17,2354.46 1254.01,2355.79C1267.74,2362.19 1282.43,2365.44 1297.03,2369.01C1299.94,2374.15 1304.73,2377.32 1309.6,2380.1C1324.63,2388.66 1338.13,2399.52 1352.82,2408.58C1354.68,2409.72 1356.64,2410.77 1357.68,2412.86C1339.96,2413.06 1322.23,2413.82 1304.52,2412.55C1304.38,2411.32 1304.09,2410.33 1303.73,2409.46C1303.85,2409.1 1304.08,2408.73 1304.47,2408.35Z" style="fill:rgb(254,254,254);fill-rule:nonzero;"/>
                <path d="M1495.76,2469.73C1495.68,2469.66 1495.58,2469.62 1495.49,2469.55C1495.62,2469.57 1495.75,2469.57 1495.88,2469.59L1495.76,2469.73Z" style="fill:rgb(95,131,203);fill-rule:nonzero;"/>
                <path d="M1385.92,2429.88C1385.86,2429.81 1385.8,2429.77 1385.74,2429.71C1385.85,2429.71 1385.95,2429.75 1386.06,2429.76L1385.92,2429.88Z" style="fill:rgb(95,131,203);fill-rule:nonzero;"/>
                <path d="M1352.82,2408.58C1338.13,2399.52 1324.63,2388.66 1309.6,2380.1C1304.73,2377.32 1299.94,2374.15 1297.03,2369.01C1304.32,2368.78 1311.6,2368.56 1316.84,2362.22C1319.54,2358.97 1321.2,2361.98 1322.84,2363.55C1330.59,2370.95 1338.76,2377.91 1345.78,2386.07C1353.03,2394.52 1361.67,2401.16 1371.35,2406.8C1400.8,2423.98 1432.1,2437.41 1462.57,2452.52C1473.64,2458.01 1485.45,2462.08 1495.49,2469.55C1494.07,2469.38 1492.59,2469.35 1491.28,2468.87C1463.59,2458.61 1435.91,2448.34 1408.28,2437.94C1400.92,2435.18 1394.06,2431.57 1387.82,2426.57C1382.7,2422.48 1376.8,2419.36 1371.21,2415.86C1370.2,2415.22 1368.67,2414.14 1367.89,2415.38C1366.71,2417.26 1368.89,2417.86 1370.01,2418.58C1375.42,2422.06 1381.51,2424.57 1385.74,2429.71C1377.64,2429.39 1371.45,2424.4 1364.62,2420.97C1363.52,2420.42 1361.98,2419.77 1361.18,2420.95C1360.36,2422.15 1361.85,2422.98 1362.58,2423.88C1368.5,2431.17 1374.45,2438.42 1380.25,2445.8C1381.88,2447.88 1385.11,2450.63 1382.94,2452.9C1380.61,2455.33 1377.9,2452.11 1375.93,2450.35C1371.7,2446.59 1367.92,2442.32 1363.1,2439.26C1361.9,2438.49 1360.35,2436.56 1359.13,2438.26C1358.18,2439.59 1360.16,2440.95 1361.28,2441.73C1377.34,2452.79 1387.25,2468.76 1396.28,2485.44C1404.05,2499.78 1413.48,2513.18 1420.54,2527.93C1420.22,2528.23 1419.9,2528.52 1419.58,2528.81C1416.91,2526.97 1415.43,2524.12 1413.55,2521.62C1390.57,2491.09 1367.35,2460.77 1340.42,2433.54C1336.2,2429.28 1331.77,2425.24 1327.54,2421C1326.53,2419.99 1324.27,2419.19 1325.26,2417.41C1326.05,2415.99 1328.09,2416.93 1329.57,2416.89C1337.15,2416.71 1344.72,2416.62 1352.3,2416.45C1354.82,2416.4 1357.56,2416.56 1357.68,2412.86C1356.64,2410.77 1354.68,2409.72 1352.82,2408.58Z" style="fill:rgb(95,131,203);fill-rule:nonzero;"/>
                <path d="M1188.46,2325.82C1182.68,2317.58 1174.51,2314.59 1164.79,2315.11C1163.26,2315.19 1161.8,2316.23 1160.21,2315.39C1161.16,2314.31 1162.17,2313.28 1163.05,2312.15C1168.14,2305.52 1166.7,2299.75 1159.06,2296.3C1154.39,2294.2 1149.89,2294.71 1145.6,2297.46C1146.15,2292.37 1144.06,2288.19 1141.04,2284.34C1149.23,2279.13 1158.32,2277.05 1167.87,2276.56C1185.62,2275.64 1200.82,2283.29 1216.1,2290.79C1219.29,2292.35 1218.51,2293.54 1216.48,2295.41C1211.32,2300.16 1204.45,2302.25 1199.11,2306.66C1197.01,2308.4 1192.71,2310.94 1194.15,2312.69C1196.87,2315.97 1198.07,2310.41 1200.51,2309.77C1201.05,2309.62 1201.41,2308.9 1201.94,2308.58C1202.91,2308.02 1203.78,2306.44 1205.04,2307.91C1205.21,2308.11 1204.15,2309.32 1203.72,2310.1C1202.57,2312.2 1198.29,2313.53 1202.04,2316.86C1196.07,2317.67 1191.6,2320.73 1188.46,2325.82Z" style="fill:rgb(89,129,202);fill-rule:nonzero;"/>
                <path d="M1186.57,2357.42C1188.06,2360.83 1191.15,2362.46 1194.09,2364.33C1227.5,2385.68 1264.04,2398.19 1303.27,2403.19C1305.07,2403.42 1307.93,2402.46 1308.47,2404.03C1309.43,2406.77 1305.92,2406.94 1304.47,2408.35C1304.08,2408.73 1303.85,2409.1 1303.73,2409.46C1303.38,2410.53 1304.04,2411.51 1304.52,2412.55C1262.76,2412.37 1223.4,2403.41 1187.8,2380.68C1177.77,2374.28 1177.78,2374.25 1183.08,2363.97C1184.21,2361.77 1185.41,2359.6 1186.57,2357.42Z" style="fill:rgb(236,201,158);fill-rule:nonzero;"/>
                <path d="M1347.01,2249.99C1392.04,2242.04 1436.06,2230.53 1478.51,2213.32C1486.38,2210.12 1494.37,2207.19 1502.32,2204.2C1504.01,2203.56 1506.86,2201.73 1507.3,2203.17C1507.87,2205.05 1504.63,2205.64 1502.9,2206.52C1492.23,2211.94 1481.29,2216.86 1470.87,2222.73C1440.17,2240.02 1407.66,2252.14 1372.93,2258.32C1359.65,2260.68 1346.57,2264.2 1332.98,2264.49C1336.27,2260.88 1339.55,2257.26 1338.71,2251.78C1341.48,2251.17 1344.22,2250.48 1347.01,2249.99Z" style="fill:rgb(95,129,205);fill-rule:nonzero;"/>
                <path d="M1330.86,2250.67C1329.79,2248.7 1333.26,2246.72 1334.51,2244.61C1337.28,2239.92 1342.79,2236.76 1342.47,2230.35C1357.16,2221.9 1372.01,2213.71 1386.51,2204.93C1405.96,2193.16 1423.96,2179.37 1440.85,2164.15C1441.69,2163.39 1442.77,2162.91 1443.73,2162.29C1444.67,2163.81 1443.13,2164.46 1442.58,2165.41C1442.12,2166.22 1441.36,2166.84 1440.76,2167.58C1417.22,2196.55 1388.32,2219.18 1356.82,2238.81C1350.5,2242.75 1343.36,2245.64 1338.5,2251.7C1335.82,2251.74 1332.17,2253.05 1330.86,2250.67Z" style="fill:rgb(93,128,205);fill-rule:nonzero;"/>
                <path d="M1115.81,2325.84C1121.25,2324.61 1126.97,2324.6 1130.98,2319.39C1132.73,2317.12 1136.43,2317.95 1139.11,2318.51C1143.09,2319.34 1146.92,2320.88 1150.81,2322.11C1143.65,2328.21 1143.48,2330.25 1149.96,2337.11C1154.06,2341.44 1158.42,2345.54 1162.6,2349.81C1166.18,2353.47 1169.2,2357.8 1173.66,2350.16C1175.76,2346.56 1181.62,2349.4 1184.88,2346.46C1184.56,2354.35 1180.53,2360.74 1176.61,2367.2C1174.93,2369.98 1173.07,2370.53 1170.57,2368.29C1158.36,2357.33 1142.93,2350.48 1131.77,2338.2C1127.23,2333.21 1122.6,2328.66 1115.42,2327.97C1114.57,2327.89 1113.03,2327.1 1113.07,2326.88C1113.37,2325.31 1114.85,2326.06 1115.81,2325.84Z" style="fill:rgb(237,195,150);fill-rule:nonzero;"/>
                <path d="M1374.88,2261.4C1387.1,2258.37 1399.32,2255.38 1411.56,2252.42C1412.95,2252.08 1414.85,2251.19 1415.47,2253.23C1415.75,2254.12 1414.9,2255.69 1414.12,2256.52C1409.71,2261.21 1404.11,2264.17 1398.36,2266.78C1375.76,2277.05 1351.77,2279.64 1327.31,2279.57C1329.18,2276.36 1329.39,2272.82 1329.28,2269.23C1344.41,2266.19 1359.87,2265.11 1374.88,2261.4Z" style="fill:rgb(98,131,203);fill-rule:nonzero;"/>
                <path d="M1173.66,2350.16C1169.2,2357.8 1166.18,2353.47 1162.6,2349.81C1158.42,2345.54 1154.06,2341.44 1149.96,2337.11C1143.48,2330.25 1143.65,2328.21 1150.81,2322.11C1154.41,2321.21 1157.99,2320.21 1161.62,2319.43C1178.52,2315.81 1188.41,2324.91 1186.15,2341.98C1185.95,2343.5 1185.31,2344.97 1184.88,2346.46C1181.62,2349.4 1175.76,2346.56 1173.66,2350.16Z" style="fill:rgb(252,252,252);fill-rule:nonzero;"/>
                <path d="M1381.83,2277.03C1384.72,2276.15 1386.2,2279.07 1384.63,2282.03C1383.07,2284.97 1380.07,2286.26 1377.23,2287.57C1361.14,2294.94 1344.39,2294.27 1327.48,2291.59C1327.53,2288.97 1327.78,2286.39 1328.85,2283.96C1346.41,2280.95 1364.51,2282.28 1381.83,2277.03Z" style="fill:rgb(96,130,203);fill-rule:nonzero;"/>
                <path d="M1150.97,2315.97C1151.69,2316.49 1152.46,2316.97 1153.2,2317.46C1152.34,2317.62 1151.36,2318.13 1150.63,2317.89C1142.84,2315.27 1134.7,2314.94 1126.67,2313.74C1119.12,2312.61 1117.66,2308.48 1121.17,2301.46C1125.39,2293.03 1131.3,2286.42 1141.04,2284.34C1144.06,2288.19 1146.15,2292.37 1145.6,2297.46C1139.71,2306.82 1140.07,2308.08 1150.97,2315.97Z" style="fill:rgb(232,80,62);fill-rule:nonzero;"/>
                <path d="M1276.31,2353.56C1278.71,2353.65 1281.31,2354.36 1283.55,2352.68C1288.3,2353.01 1291.63,2358.93 1297.18,2356.16C1297.2,2356.14 1297.2,2356.12 1297.22,2356.09C1299.69,2353.32 1297.64,2349.82 1298.69,2346.81C1303.48,2346.45 1306.77,2349.71 1310.5,2351.82C1312.93,2353.19 1315.8,2354.89 1315.17,2358.1C1314.63,2360.9 1312.23,2362.85 1309.33,2363.65C1307.23,2364.22 1305.01,2365.09 1302.93,2364.9C1291.81,2363.84 1280.55,2363.29 1270.35,2357.87C1271.24,2354.91 1273,2353.43 1276.31,2353.56Z" style="fill:rgb(96,133,204);fill-rule:nonzero;"/>
                <path d="M1327.39,2295.78C1337.78,2295.3 1348.1,2297.71 1358.55,2296.23C1361.41,2295.83 1366.04,2293.09 1367.08,2298.47C1368.05,2303.52 1363.53,2304.42 1359.89,2305.5C1358.09,2306.04 1356.25,2306.68 1354.4,2306.75C1342.17,2307.22 1329.94,2307.56 1318.11,2303.52C1323.53,2303.73 1325.68,2300.01 1327.39,2295.78Z" style="fill:rgb(90,128,203);fill-rule:nonzero;"/>
                <path d="M1351.25,2310.79C1352.74,2310.71 1354.53,2310.65 1355.21,2312.55C1355.92,2314.55 1355.23,2316.22 1353.74,2317.62C1352.3,2318.96 1350.46,2319.34 1348.66,2319.93C1337.19,2323.68 1326.45,2321.12 1315.94,2316.34C1317.37,2313.72 1318.79,2311.11 1320.21,2308.49C1330.57,2309.13 1340.8,2311.4 1351.25,2310.79Z" style="fill:rgb(88,125,200);fill-rule:nonzero;"/>
                <path d="M1312.01,2320.08C1319.63,2321.9 1327.25,2323.74 1334.87,2325.55C1337.72,2326.22 1340.68,2326.94 1340.64,2330.61C1340.59,2334.38 1337.47,2334.77 1334.64,2335.33C1324.03,2337.4 1315.11,2332.93 1306.29,2328.06C1308.19,2325.4 1310.1,2322.74 1312.01,2320.08Z" style="fill:rgb(90,127,202);fill-rule:nonzero;"/>
                <path d="M1322.66,2338.51C1325.27,2339.46 1328.81,2339.53 1328.26,2343.47C1327.83,2346.57 1325.29,2348.2 1322.21,2348.6C1314.12,2349.65 1306.75,2348.09 1300.57,2342.4C1300.6,2338.35 1300.64,2334.29 1300.67,2330.24C1307.99,2333.01 1315.3,2335.83 1322.66,2338.51Z" style="fill:rgb(89,124,201);fill-rule:nonzero;"/>
                <path d="M1277.97,2033.61C1279.02,2028.84 1279.46,2033.36 1280.08,2034.12C1279.89,2035.33 1279.7,2036.53 1279.51,2037.73C1277.99,2038.71 1277.87,2040.11 1278.3,2041.69C1276.91,2046.78 1275.97,2052.06 1274.06,2056.95C1269.89,2067.58 1267.56,2079.16 1259.15,2087.75C1260.56,2078.22 1263.26,2069.18 1267.25,2060.29C1271.15,2051.59 1275.86,2043.15 1277.97,2033.61Z" style="fill:rgb(144,166,228);fill-rule:nonzero;"/>
                <path d="M1108.85,2316.17C1114.21,2311.06 1119.04,2313.37 1123.84,2316.91C1124.56,2317.44 1125.51,2318.24 1125.56,2318.97C1125.68,2320.44 1124.23,2320.95 1123.08,2321.16C1117.5,2322.2 1111.89,2323.11 1106.3,2324.06C1106.3,2324.03 1106.29,2324.01 1106.29,2323.99C1105.35,2324.14 1104.42,2324.29 1103.49,2324.46C1102,2324.74 1100.56,2325.55 1099,2324.78C1100.02,2323.62 1100.91,2322.3 1102.09,2321.32C1104.27,2319.51 1106.82,2318.11 1108.85,2316.17Z" style="fill:rgb(225,162,115);fill-rule:nonzero;"/>
                <path d="M1153.71,2299.91C1154.35,2299.54 1154.8,2299.07 1155.29,2299.02C1157.69,2298.77 1159.58,2300.03 1161.09,2301.61C1163.39,2304.02 1163.09,2306.72 1161.19,2309.26C1160.25,2310.54 1158.5,2312.22 1157.44,2311.58C1154.55,2309.83 1158.45,2308.46 1158.27,2306.55C1158.07,2304.51 1157.38,2302.96 1155.91,2301.68C1155.23,2301.08 1154.49,2300.54 1153.71,2299.91Z" style="fill:rgb(115,136,180);fill-rule:nonzero;"/>
                <path d="M1423.8,2534.1C1423.81,2534 1423.74,2533.94 1423.75,2533.85C1423.82,2533.88 1423.85,2533.95 1423.93,2533.98L1423.8,2534.1Z" style="fill:rgb(95,131,203);fill-rule:nonzero;"/>
                <path d="M1423.75,2533.85C1421.42,2532.95 1420.31,2531.04 1419.58,2528.81C1419.9,2528.52 1420.22,2528.23 1420.54,2527.93C1422.6,2529.38 1423.84,2531.26 1423.75,2533.85Z" style="fill:rgb(95,131,203);fill-rule:nonzero;"/>
                <path d="M1149.14,2301.04C1149.1,2301.05 1149.07,2301.07 1149.04,2301.08C1149.04,2301.03 1149.03,2300.98 1149.03,2300.93L1149.14,2301.04Z" style="fill:rgb(115,136,180);fill-rule:nonzero;"/>
                <path d="M1147.82,2305.62C1147.62,2305.74 1146.64,2305.18 1146.53,2304.8C1145.91,2302.61 1147.14,2301.59 1149.04,2301.08C1149.06,2302.72 1149.61,2304.51 1147.82,2305.62Z" style="fill:rgb(115,136,180);fill-rule:nonzero;"/>
                <path d="M1322.42,2269.97C1321.51,2269.17 1321.6,2267.85 1323.12,2267.28C1323.68,2269.39 1325.64,2268.8 1327.03,2269.31C1325.69,2270.89 1323.99,2271.33 1322.42,2269.97Z" style="fill:rgb(98,131,203);fill-rule:nonzero;"/>
                <path d="M1279.51,2037.73C1279.8,2039.27 1279.49,2040.61 1278.3,2041.69C1277.87,2040.11 1277.99,2038.71 1279.51,2037.73Z" style="fill:rgb(96,132,202);fill-rule:nonzero;"/>
                <path d="M1496,2469.76C1495.92,2469.75 1495.84,2469.74 1495.76,2469.73L1495.88,2469.59C1495.91,2469.67 1495.97,2469.69 1496,2469.76Z" style="fill:rgb(95,131,203);fill-rule:nonzero;"/>
                <path d="M1497.84,2470.96C1496.98,2470.97 1496.36,2470.54 1496,2469.76C1496.78,2469.87 1497.56,2469.97 1498.33,2470.08C1498.17,2470.39 1498,2470.96 1497.84,2470.96Z" style="fill:rgb(95,131,203);fill-rule:nonzero;"/>
                <path d="M1150.09,2300.25C1149.85,2300.4 1149.61,2300.56 1149.37,2300.71C1149.44,2300.59 1149.5,2300.47 1149.6,2300.37C1149.7,2300.27 1149.92,2300.29 1150.09,2300.25Z" style="fill:rgb(115,136,180);fill-rule:nonzero;"/>
                <path d="M1149.37,2300.71C1149.29,2300.83 1149.21,2300.93 1149.14,2301.04L1149.03,2300.93C1149.14,2300.85 1149.25,2300.78 1149.37,2300.71Z" style="fill:rgb(115,136,180);fill-rule:nonzero;"/>
                <path d="M1424.48,2535.34C1424.32,2534.95 1424.16,2534.56 1424,2534.16C1424.56,2534.33 1425.52,2534.29 1424.48,2535.34Z" style="fill:rgb(95,131,203);fill-rule:nonzero;"/>
                <path d="M1424,2534.16C1423.93,2534.14 1423.85,2534.13 1423.8,2534.1L1423.93,2533.98C1423.95,2534.04 1423.98,2534.1 1424,2534.16Z" style="fill:rgb(95,131,203);fill-rule:nonzero;"/>
                <path d="M1386.07,2429.96C1386.02,2429.93 1385.97,2429.9 1385.92,2429.88L1386.06,2429.76C1386.04,2429.85 1386.08,2429.88 1386.07,2429.96Z" style="fill:rgb(95,131,203);fill-rule:nonzero;"/>
                <path d="M1386.83,2430.81C1386.23,2430.89 1386.02,2430.56 1386.07,2429.96C1386.3,2430.05 1386.53,2430.13 1386.72,2430.28C1386.83,2430.37 1386.8,2430.63 1386.83,2430.81Z" style="fill:rgb(95,131,203);fill-rule:nonzero;"/>
                <path d="M1210.02,2249.07C1206.25,2247.58 1210.49,2244.68 1210.8,2242.31C1211.03,2240.52 1211.84,2238.77 1212.61,2237.11C1212.96,2236.37 1213.84,2235.88 1214.74,2235.02C1215.13,2236.11 1215.73,2236.93 1215.62,2237.63C1215.32,2239.43 1214.85,2241.24 1214.17,2242.93C1213.19,2245.37 1212.16,2249.93 1210.02,2249.07Z" style="fill:rgb(29,34,43);fill-rule:nonzero;"/>
                <path d="M1202.89,2237.09C1202.62,2236.23 1202.35,2235.38 1201.99,2234.23C1203.92,2231.75 1202.13,2227.28 1206.23,2225.92C1207.51,2225.5 1208.3,2227.4 1207.82,2228.53C1206.53,2231.56 1206.1,2235.15 1202.89,2237.09Z" style="fill:rgb(40,54,67);fill-rule:nonzero;"/>
                <path d="M1220.51,2255.21C1219.66,2255.25 1219.34,2254.02 1219.49,2252.59C1220.26,2251.5 1220.48,2249.48 1222.54,2248.93C1222.63,2248.91 1223.45,2250.47 1223.4,2251.27C1223.29,2253.12 1222.82,2255.09 1220.51,2255.21Z" style="fill:rgb(27,32,34);fill-rule:nonzero;"/>
                <path d="M1228.06,2266.68C1227.16,2266.56 1226.89,2265.52 1227.04,2264.57C1227.54,2263.48 1228.12,2262.16 1229.42,2262.19C1231.02,2262.22 1230.88,2263.6 1230.64,2264.76C1230.35,2266.13 1229.29,2266.83 1228.06,2266.68Z" style="fill:rgb(30,40,37);fill-rule:nonzero;"/>
                <path d="M1283.55,2352.68C1282.89,2352.45 1282.23,2352.22 1281.57,2352C1281.55,2351.05 1281.1,2350.61 1280.14,2350.76C1276,2347.99 1271.86,2345.24 1267.73,2342.46C1266.67,2341.74 1265.71,2340.63 1266.28,2339.46C1267,2337.97 1268.53,2338.56 1269.47,2339.33C1277.9,2346.2 1288.06,2350.2 1297.07,2356.1C1297.11,2356.12 1297.15,2356.14 1297.18,2356.16C1291.63,2358.93 1288.3,2353.01 1283.55,2352.68Z" style="fill:rgb(39,40,33);fill-rule:nonzero;"/>
                <path d="M1309.82,2265.81C1311.23,2265.62 1311.82,2266.49 1311.46,2267.35C1310.58,2269.45 1308.74,2270.54 1306.53,2270.83C1305.69,2270.94 1304.55,2270.59 1304.99,2269.39C1305.83,2267.14 1307.92,2266.42 1309.82,2265.81Z" style="fill:rgb(75,76,71);fill-rule:nonzero;"/>
                <path d="M1310.05,2254.58C1311.85,2253.09 1313.61,2251.44 1315.58,2250.09C1316.4,2249.53 1317.52,2250.32 1317.24,2251.31C1316.6,2253.56 1314.54,2254.56 1312.65,2255.59C1311.78,2256.07 1310.93,2255.76 1310.05,2254.58Z" style="fill:rgb(49,48,37);fill-rule:nonzero;"/>
                <path d="M1299.85,2280.4C1300.81,2280.34 1301.94,2280.46 1301.94,2281.44C1301.94,2283.15 1300.64,2284.07 1299.1,2284.58C1297.76,2285.02 1296.53,2284.87 1296.71,2283.16C1296.9,2281.45 1298.7,2281.16 1299.85,2280.4Z" style="fill:rgb(73,75,70);fill-rule:nonzero;"/>
                <path d="M1283.57,2308.52C1284.29,2308.71 1285.62,2308.82 1284.79,2310.2C1284.19,2311.21 1283.61,2312.46 1282.12,2312.15C1281.25,2311.97 1280.37,2311.5 1280.88,2310.27C1281.34,2309.02 1282.13,2308.14 1283.57,2308.52Z" style="fill:rgb(110,109,103);fill-rule:nonzero;"/>
                <path d="M1291.85,2295.19C1292.33,2295.2 1292.79,2295.77 1293.26,2296.08C1292.82,2296.45 1292.37,2296.83 1291.93,2297.19C1291.35,2296.98 1290.39,2296.87 1290.31,2296.55C1290.03,2295.4 1291.05,2295.16 1291.85,2295.19Z" style="fill:rgb(38,43,35);fill-rule:nonzero;"/>
                <path d="M1281.57,2352C1280.44,2352.34 1280.21,2351.65 1280.14,2350.76C1281.1,2350.61 1281.55,2351.05 1281.57,2352Z" style="fill:rgb(96,133,204);fill-rule:nonzero;"/>
            </g>
        </g>
    </g>
</svg>
