<?xml version="1.0" encoding="UTF-8" standalone="no"?>
<!DOCTYPE svg PUBLIC "-//W3C//DTD SVG 1.1//EN" "http://www.w3.org/Graphics/SVG/1.1/DTD/svg11.dtd">
<svg width="100%" height="100%" viewBox="0 0 534 534" version="1.1" xmlns="http://www.w3.org/2000/svg" xmlns:xlink="http://www.w3.org/1999/xlink" xml:space="preserve" xmlns:serif="http://www.serif.com/" style="fill-rule:evenodd;clip-rule:evenodd;stroke-linejoin:round;stroke-miterlimit:2;">
    <g transform="matrix(1,0,0,1,-1315.07,-1214.06)">
        <g id="bird09" transform="matrix(1,0,0,1,1315.07,1214.06)">
            <rect x="0" y="0" width="533.333" height="533.333" style="fill:none;"/>
            <clipPath id="_clip1">
                <rect x="0" y="0" width="533.333" height="533.333"/>
            </clipPath>
            <g clip-path="url(#_clip1)">
                <g transform="matrix(0.958679,0,0,0.958679,-1650.69,-1960.7)">
                    <path d="M2265,2196.45C2263.57,2198.52 2262.15,2196.34 2260.92,2195.54C2243.21,2184.03 2222.97,2178.41 2203.54,2170.92C2199.12,2169.21 2194.64,2167.85 2191.25,2164.37C2187.17,2160.17 2181.03,2156.43 2184.04,2149.37C2187.03,2142.32 2193.82,2140.42 2197.82,2139.85C2227.55,2139.31 2261,2166.1 2265.39,2191.54C2265.66,2193.14 2265.81,2195.27 2265,2196.45ZM2241.44,2195.65C2225.09,2188.4 2207.52,2184.78 2190.87,2178.43C2171.09,2175.18 2152.04,2168.76 2132.28,2165.26C2101.84,2159.88 2071.24,2156.36 2040.39,2155.32C2032.25,2155.04 2030.03,2152.61 2031.22,2144.73C2033.66,2128.61 2035.24,2112.37 2031.93,2096.15C2030.37,2088.52 2035.7,2088.95 2040.37,2088.68C2082.66,2086.29 2124.19,2089.67 2164.45,2104.14C2184.36,2111.29 2203,2120.61 2220.19,2132.87C2222.51,2134.53 2227.1,2136.36 2226.02,2138.81C2224.73,2141.75 2220.88,2138.91 2218.19,2138.28C2209.84,2136.32 2201.56,2134.18 2192.84,2136.08C2185.83,2137.6 2179.23,2139.85 2177.6,2147.78C2175.94,2155.85 2178.32,2162.98 2184.9,2168.33C2188.19,2171.01 2191.99,2172.72 2196.06,2173.83C2211.9,2178.83 2227.54,2184.36 2242.35,2191.96C2243.87,2192.74 2246.96,2193.27 2246.09,2195.69C2245.53,2197.26 2242.92,2196.31 2241.44,2195.65ZM2220.32,2200.51C2192.19,2197.96 2164.07,2195.27 2142.79,2195.76C2116.09,2195.79 2096.44,2195.51 2076.75,2194.3C2057.74,2193.14 2046.07,2180.62 2033.03,2169.77C2031.76,2168.72 2030.83,2167.03 2031.62,2165.21C2032.78,2162.54 2035.31,2163.46 2037.2,2163.61C2057.24,2165.14 2077.34,2166.24 2097.29,2168.59C2137.72,2173.36 2177.02,2183.58 2216.04,2194.88C2217.68,2195.35 2219.31,2195.9 2220.9,2196.53C2223.48,2197.54 2226.52,2197.82 2227.97,2200.75C2225.42,2200.68 2222.86,2200.74 2220.32,2200.51ZM2044.29,2284.58C2035.97,2300.02 2025.69,2302.85 2010.43,2294.11C2000.69,2288.53 1994.63,2279.78 1990.49,2269.76C1986.91,2261.1 1983.82,2252.19 1981.24,2243.18C1977.35,2229.57 1972.67,2216.44 1965.35,2204.18C1953.64,2184.59 1960.67,2166.35 1970.44,2148.51C1972.55,2144.65 1975,2145.92 1977.69,2147.6C1988.97,2154.65 2001.08,2159.89 2013.71,2163.99C2015.31,2164.51 2017.6,2165.1 2018.14,2166.3C2023.12,2177.41 2032.71,2183.85 2042,2190.65C2042.97,2191.36 2044.18,2192.53 2044.25,2193.56C2045.49,2211.5 2054.65,2228.02 2053.58,2246.37C2053.12,2259.72 2050.71,2272.67 2044.29,2284.58ZM2021.1,2316.3C2007.99,2342.28 1986.79,2360.44 1963.69,2376.98C1949.83,2386.91 1934.51,2394.76 1922.25,2407.02C1916.03,2413.24 1906.95,2415.37 1898.79,2416.57C1878.62,2419.53 1858.28,2421.66 1837.85,2422.25C1835.62,2429.11 1831.22,2433.25 1824.29,2436.04C1811.87,2441.04 1799.05,2443.81 1785.95,2445.69C1780.35,2446.5 1777.5,2446.33 1780.25,2438.52C1785.26,2424.29 1793.67,2414.84 1807.87,2409.29C1817.71,2405.44 1826.63,2399.22 1835.96,2394.07C1852.43,2384.24 1869.25,2374.95 1885.3,2364.48C1914.86,2345.2 1942.37,2323.7 1956.59,2289.69C1959.38,2283.01 1962.65,2276.43 1962.03,2268.85C1961.86,2266.72 1961.84,2264.36 1959.11,2263.86C1955.67,2263.22 1954.98,2265.56 1954.31,2268.3C1943.42,2313.14 1910.24,2338.54 1873.78,2361.48C1843.36,2380.61 1811.5,2397.08 1780.17,2414.56C1777.41,2416.1 1774.18,2419.23 1770.83,2416.57C1767.65,2414.06 1770.94,2410.92 1771.64,2408.38C1784.15,2363.37 1800.78,2320.18 1825.3,2280.05C1845.77,2246.55 1872.69,2219.63 1904.34,2197.2C1913.39,2190.79 1918,2182.72 1921.1,2172.53C1926.66,2154.28 1929.46,2134.99 1941.43,2119.06C1957.57,2097.58 1977.9,2084.61 2005.63,2085.64C2007.64,2085.71 2010.64,2084.71 2011.39,2086.75C2012.46,2089.67 2009.34,2091.11 2007.31,2092.45C2003.4,2095.03 1999.3,2097.32 1995.26,2099.72C1985.8,2105.34 1978.5,2112.99 1974.19,2123.17C1967.9,2138.05 1956.63,2150.44 1953.34,2166.92C1950.57,2180.79 1950.28,2194.22 1957.06,2206.79C1965.65,2222.68 1971.02,2239.57 1976.03,2256.84C1982.65,2279.66 1993.74,2299.71 2019.09,2306.82C2026.26,2308.83 2023.2,2312.15 2021.1,2316.3ZM1947.28,2442.85C1952,2448.33 1957.06,2451.66 1964.86,2451.49C1971.12,2451.35 1977.56,2452.98 1983.67,2454.7C1990.63,2456.67 1995.37,2461.51 1997.51,2468.39C1996.67,2471.98 1994.56,2471.31 1992.72,2470.04C1971.18,2455.12 1947.35,2457.78 1923.43,2460.87C1922.37,2461.01 1921.21,2460.43 1920.09,2460.19C1920.7,2459.11 1921.08,2457.8 1921.94,2457C1927.83,2451.51 1923.29,2447.89 1919.58,2444.41C1914.28,2439.43 1908.65,2434.8 1903.28,2429.9C1902.44,2429.14 1901.48,2427.17 1901.83,2426.7C1902.98,2425.14 1905.06,2425.33 1906.44,2426.3C1908.88,2428.02 1911.08,2430.1 1913.25,2432.16C1918.84,2437.47 1924.35,2442.88 1929.93,2448.21C1931.86,2450.05 1933.96,2451.79 1936.46,2449.14C1938.5,2446.98 1936.57,2445.3 1935.52,2443.53C1931.54,2436.78 1925.43,2431.91 1920.23,2426.24C1918.48,2424.33 1914.56,2422.5 1918.63,2419.19C1921.5,2416.85 1924.25,2417.49 1926.58,2420.02C1933.53,2427.58 1940.58,2435.07 1947.28,2442.85ZM1832.86,2450.98C1826.47,2473.43 1823.24,2496.61 1816.54,2519.03C1812.39,2532.91 1803.73,2539.38 1790.61,2541.99C1789.04,2542.31 1787.48,2543.83 1785.97,2542.17C1784.5,2540.55 1785.9,2539.07 1786.46,2537.55C1788.36,2532.36 1790.73,2527.25 1791.87,2521.89C1792.58,2518.51 1794.24,2513.06 1790,2511.63C1785.1,2509.98 1784.24,2515.75 1782.96,2518.97C1779.65,2527.23 1777.4,2535.9 1774.65,2544.37C1770.68,2556.6 1762.07,2560.79 1750.65,2561.72C1746.4,2562.06 1742.09,2561.69 1737.82,2561.84C1732.38,2562.04 1729.67,2559.83 1730.51,2554.97C1730.31,2551.12 1731.11,2548.37 1732.24,2545.5C1743.45,2516.88 1757.62,2489.6 1770.1,2461.56C1772.4,2456.39 1775.48,2453.47 1781.72,2453.64C1796.78,2454.04 1811.17,2450.43 1825.19,2445.08C1831.98,2442.49 1834.73,2444.39 1832.86,2450.98ZM2023.62,2104.6C2023.76,2105.87 2023.8,2107.16 2023.87,2108.45C2024.06,2111.87 2024.24,2115.29 2024.55,2121.03C2025.71,2129.62 2021.69,2139.91 2020.77,2150.55C2020.35,2155.34 2017.36,2156.03 2013.5,2154.76C2006.17,2152.34 1999.05,2149.46 1992.23,2145.81C1974.51,2136.33 1974,2133.71 1986.72,2117.68C1993.56,2109.07 2002.7,2103.56 2012.03,2098.25C2021.84,2092.68 2022.33,2092.93 2023.62,2104.6ZM2211.06,2116.03C2160.78,2087.24 2106.61,2076.34 2049.24,2079.59C2038.14,2080.22 2027.28,2081.49 2016.43,2077.16C2008.74,2074.08 2000.4,2075.06 1992.3,2076.59C1959.31,2082.82 1936.99,2102.18 1923.72,2132.55C1918.38,2144.77 1915.76,2157.83 1912.56,2170.71C1910.65,2178.37 1907.15,2184.53 1900.09,2189.27C1851.72,2221.75 1817.89,2266.36 1794.22,2318.98C1778.57,2353.76 1765.26,2389.42 1758.03,2427.06C1757.47,2429.96 1756.08,2433.16 1759.12,2435.33C1762.23,2437.55 1764.62,2435.02 1767.18,2433.5C1768.88,2432.49 1770.84,2429.66 1772.43,2431.08C1774.83,2433.23 1771.65,2435.57 1770.77,2437.55C1756.32,2469.98 1741.69,2502.34 1727.02,2534.67C1723.97,2541.39 1721.86,2548.28 1721.84,2555.7C1721.82,2561.73 1724.03,2566.67 1729.57,2569.45C1740.81,2575.09 1769.45,2568.93 1777.08,2558.55C1780.23,2554.26 1783.59,2552.52 1788.47,2551.78C1808.76,2548.73 1821.25,2537.99 1826.16,2517.14C1832.25,2491.3 1838.02,2465.4 1844.04,2439.55C1844.92,2435.81 1844.44,2431.16 1850.68,2430.25C1870.33,2427.37 1889.1,2424.58 1904.46,2442.8C1912.02,2451.76 1913.56,2450.41 1903.31,2457.8C1899.5,2460.54 1895.76,2463.41 1892.12,2466.39C1890.02,2468.1 1888.72,2470.48 1890.09,2473.17C1891.75,2476.44 1894.4,2476.66 1897.67,2475.21C1899.99,2474.18 1902.58,2473.74 1905.08,2473.14C1938.42,2465.09 1971.21,2461.31 2000.32,2485.62C2002.02,2487.03 2003.97,2488.2 2006.13,2486.92C2008.89,2485.28 2008.2,2482.68 2007.71,2480.09C2007.39,2478.41 2004.54,2475.85 2007.98,2475.02C2020.45,2472.05 2012.75,2466.39 2009.75,2461.81C2000.69,2447.93 1987.11,2443.14 1971.2,2443.16C1966.16,2443.17 1960.81,2444.01 1956.76,2439.61C1950.95,2433.3 1945.1,2427.04 1939.18,2420.84C1935.64,2417.11 1936.26,2413.74 1938.5,2409.32C1942.37,2401.66 1948.39,2396.6 1955.42,2392.28C1987.29,2372.69 2015.3,2349.33 2031.75,2314.55C2033.17,2311.55 2035.65,2308.88 2038.12,2306.59C2055.69,2290.29 2061.8,2269.48 2062.29,2246.38C2062.6,2232.04 2058.99,2218.39 2055.16,2204.75C2054.19,2201.3 2053.23,2197.73 2059.53,2199.62C2074.49,2204.12 2089.99,2204.09 2105.41,2204.14C2135.86,2204.25 2166.31,2204.37 2196.67,2206.94C2219.74,2208.89 2242.76,2211.64 2264.36,2220.71C2276.28,2225.72 2278.46,2224.61 2278.13,2208.89C2277.68,2196.53 2273.78,2182.3 2265.71,2169.18C2251.96,2146.82 2233.96,2129.14 2211.06,2116.03Z" style="fill:rgb(4,5,4);fill-rule:nonzero;"/>
                    <path d="M2019.09,2306.82C1993.74,2299.71 1982.65,2279.66 1976.03,2256.84C1971.02,2239.57 1965.65,2222.68 1957.06,2206.79C1950.28,2194.22 1950.57,2180.79 1953.34,2166.92C1956.63,2150.44 1967.9,2138.05 1974.19,2123.17C1978.5,2112.99 1985.8,2105.34 1995.26,2099.72C1999.3,2097.32 2003.4,2095.03 2007.31,2092.45C2009.34,2091.11 2012.46,2089.67 2011.39,2086.75C2010.64,2084.71 2007.64,2085.71 2005.63,2085.64C1977.9,2084.61 1957.57,2097.58 1941.43,2119.06C1929.46,2134.99 1926.66,2154.28 1921.1,2172.53C1918,2182.72 1913.39,2190.79 1904.34,2197.2C1872.69,2219.63 1845.77,2246.55 1825.3,2280.05C1800.78,2320.18 1784.15,2363.37 1771.64,2408.38C1770.94,2410.92 1767.65,2414.06 1770.83,2416.57C1774.18,2419.23 1777.41,2416.1 1780.17,2414.56C1811.5,2397.08 1843.36,2380.61 1873.78,2361.48C1910.24,2338.54 1943.42,2313.14 1954.31,2268.3C1954.98,2265.56 1955.67,2263.22 1959.11,2263.86C1961.84,2264.36 1961.86,2266.72 1962.03,2268.85C1962.65,2276.43 1959.38,2283.01 1956.59,2289.69C1942.37,2323.7 1914.86,2345.2 1885.3,2364.48C1869.25,2374.95 1852.43,2384.24 1835.96,2394.07C1841.98,2403.1 1837.87,2412.81 1837.85,2422.25C1858.28,2421.66 1878.62,2419.53 1898.79,2416.57C1906.95,2415.37 1916.03,2413.24 1922.25,2407.02C1934.51,2394.76 1949.83,2386.91 1963.69,2376.98C1986.79,2360.44 2007.99,2342.28 2021.1,2316.3C2023.2,2312.15 2026.26,2308.83 2019.09,2306.82Z" style="fill:rgb(44,48,52);fill-rule:nonzero;"/>
                    <path d="M2196.06,2173.83C2191.99,2172.72 2188.19,2171.01 2184.9,2168.33C2178.32,2162.98 2175.94,2155.85 2177.6,2147.78C2179.23,2139.85 2185.83,2137.6 2192.84,2136.08C2201.56,2134.18 2209.84,2136.32 2218.19,2138.28C2220.88,2138.91 2224.73,2141.75 2226.02,2138.81C2227.1,2136.36 2222.51,2134.53 2220.19,2132.87C2203,2120.61 2184.36,2111.29 2164.45,2104.14C2124.19,2089.67 2082.66,2086.29 2040.37,2088.68C2035.7,2088.95 2030.37,2088.52 2031.93,2096.15C2035.24,2112.37 2033.66,2128.61 2031.22,2144.73C2030.03,2152.61 2032.25,2155.04 2040.39,2155.32C2071.24,2156.36 2101.84,2159.88 2132.28,2165.26C2152.04,2168.76 2171.09,2175.18 2190.87,2178.43C2193.67,2178.1 2196.18,2177.44 2196.06,2173.83Z" style="fill:rgb(246,151,45);fill-rule:nonzero;"/>
                    <path d="M2042,2190.65C2032.71,2183.85 2023.12,2177.41 2018.14,2166.3C2017.6,2165.1 2015.31,2164.51 2013.71,2163.99C2001.08,2159.89 1988.97,2154.65 1977.69,2147.6C1975,2145.92 1972.55,2144.65 1970.44,2148.51C1960.67,2166.35 1953.64,2184.59 1965.35,2204.18C1972.67,2216.44 1977.35,2229.57 1981.24,2243.18C1983.82,2252.19 1986.91,2261.1 1990.49,2269.76C1994.63,2279.78 2000.69,2288.53 2010.43,2294.11C2025.69,2302.85 2035.97,2300.02 2044.29,2284.58C2050.71,2272.67 2053.12,2259.72 2053.58,2246.37C2054.65,2228.02 2045.49,2211.5 2044.25,2193.56C2044.18,2192.53 2042.97,2191.36 2042,2190.65Z" style="fill:rgb(250,224,74);fill-rule:nonzero;"/>
                    <path d="M1825.19,2445.08C1811.17,2450.43 1796.78,2454.04 1781.72,2453.64C1775.48,2453.47 1772.4,2456.39 1770.1,2461.56C1757.62,2489.6 1743.45,2516.88 1732.24,2545.5C1731.11,2548.37 1730.31,2551.12 1730.51,2554.97C1729.67,2559.83 1732.38,2562.04 1737.82,2561.84C1742.09,2561.69 1746.4,2562.06 1750.65,2561.72C1762.07,2560.79 1770.68,2556.6 1774.65,2544.37C1777.4,2535.9 1779.65,2527.23 1782.96,2518.97C1784.24,2515.75 1785.1,2509.98 1790,2511.63C1794.24,2513.06 1792.58,2518.51 1791.87,2521.89C1790.73,2527.25 1788.36,2532.36 1786.46,2537.55C1785.9,2539.07 1784.5,2540.55 1785.97,2542.17C1787.48,2543.83 1789.04,2542.31 1790.61,2541.99C1803.73,2539.38 1812.39,2532.91 1816.54,2519.03C1823.24,2496.61 1826.47,2473.43 1832.86,2450.98C1834.73,2444.39 1831.98,2442.49 1825.19,2445.08Z" style="fill:rgb(44,48,52);fill-rule:nonzero;"/>
                    <path d="M2220.9,2196.53C2219.31,2195.9 2217.68,2195.35 2216.04,2194.88C2177.02,2183.58 2137.72,2173.36 2097.29,2168.59C2077.34,2166.24 2057.24,2165.14 2037.2,2163.61C2035.31,2163.46 2032.78,2162.54 2031.62,2165.21C2030.83,2167.03 2031.76,2168.72 2033.03,2169.77C2046.07,2180.62 2057.74,2193.14 2076.75,2194.3C2096.44,2195.51 2116.09,2195.79 2142.79,2195.76C2164.07,2195.27 2192.19,2197.96 2220.32,2200.51C2222.86,2200.74 2225.42,2200.68 2227.97,2200.75C2226.52,2197.82 2223.48,2197.54 2220.9,2196.53Z" style="fill:rgb(240,146,47);fill-rule:nonzero;"/>
                    <path d="M2197.82,2139.85C2193.82,2140.42 2187.03,2142.32 2184.04,2149.37C2181.03,2156.43 2187.17,2160.17 2191.25,2164.37C2194.64,2167.85 2199.12,2169.21 2203.54,2170.92C2222.97,2178.41 2243.21,2184.03 2260.92,2195.54C2262.15,2196.34 2263.57,2198.52 2265,2196.45C2265.81,2195.27 2265.66,2193.14 2265.39,2191.54C2261,2166.1 2227.55,2139.31 2197.82,2139.85Z" style="fill:rgb(34,34,35);fill-rule:nonzero;"/>
                    <path d="M1835.96,2394.07C1826.63,2399.22 1817.71,2405.44 1807.87,2409.29C1793.67,2414.84 1785.26,2424.29 1780.25,2438.52C1777.5,2446.33 1780.35,2446.5 1785.95,2445.69C1799.05,2443.81 1811.87,2441.04 1824.29,2436.04C1831.22,2433.25 1835.62,2429.11 1837.85,2422.25C1832.78,2413.15 1835.02,2403.57 1835.96,2394.07Z" style="fill:rgb(206,40,67);fill-rule:nonzero;"/>
                    <path d="M1835.96,2394.07C1835.02,2403.57 1832.78,2413.15 1837.85,2422.25C1837.87,2412.81 1841.98,2403.1 1835.96,2394.07Z" style="fill:rgb(206,40,67);fill-rule:nonzero;"/>
                    <path d="M2006.72,2114.59C2012.87,2114.63 2015.65,2118.51 2016.24,2123.48C2016.32,2130.37 2011,2135.45 2004.69,2135.18C1999.18,2134.94 1996.1,2131.9 1995.65,2126.49C1995.2,2121.12 2001.17,2114.56 2006.72,2114.59ZM1986.72,2117.68C1974,2133.71 1974.51,2136.33 1992.23,2145.81C1999.05,2149.46 2006.17,2152.34 2013.5,2154.76C2017.36,2156.03 2020.35,2155.34 2020.77,2150.55C2021.69,2139.91 2025.71,2129.62 2024.55,2121.03C2024.24,2115.29 2024.06,2111.87 2023.87,2108.45C2023.8,2107.16 2023.76,2105.87 2023.62,2104.6C2022.33,2092.93 2021.84,2092.68 2012.03,2098.25C2002.7,2103.56 1993.56,2109.07 1986.72,2117.68Z" style="fill:rgb(240,129,51);fill-rule:nonzero;"/>
                    <path d="M1918.63,2419.19C1914.56,2422.5 1918.48,2424.33 1920.23,2426.24C1925.43,2431.91 1931.54,2436.78 1935.52,2443.53C1936.57,2445.3 1938.5,2446.98 1936.46,2449.14C1933.96,2451.79 1931.86,2450.05 1929.93,2448.21C1924.35,2442.88 1918.84,2437.47 1913.25,2432.16C1911.08,2430.1 1908.88,2428.02 1906.44,2426.3C1905.06,2425.33 1902.98,2425.14 1901.83,2426.7C1901.48,2427.17 1902.44,2429.14 1903.28,2429.9C1908.65,2434.8 1914.28,2439.43 1919.58,2444.41C1923.29,2447.89 1927.83,2451.51 1921.94,2457C1921.08,2457.8 1920.7,2459.11 1920.09,2460.19C1921.21,2460.43 1922.37,2461.01 1923.43,2460.87C1947.35,2457.78 1971.18,2455.12 1992.72,2470.04C1994.56,2471.31 1996.67,2471.98 1997.51,2468.39C1995.37,2461.51 1990.63,2456.67 1983.67,2454.7C1977.56,2452.98 1971.12,2451.35 1964.86,2451.49C1957.06,2451.66 1952,2448.33 1947.28,2442.85C1940.58,2435.07 1933.53,2427.58 1926.58,2420.02C1924.25,2417.49 1921.5,2416.85 1918.63,2419.19Z" style="fill:rgb(82,86,89);fill-rule:nonzero;"/>
                    <path d="M2242.35,2191.96C2227.54,2184.36 2211.9,2178.83 2196.06,2173.83C2198.47,2180.03 2195.38,2180.03 2190.87,2178.43C2207.52,2184.78 2225.09,2188.4 2241.44,2195.65C2242.92,2196.31 2245.53,2197.26 2246.09,2195.69C2246.96,2193.27 2243.87,2192.74 2242.35,2191.96Z" style="fill:rgb(208,126,51);fill-rule:nonzero;"/>
                    <path d="M2196.06,2173.83C2196.18,2177.44 2193.67,2178.1 2190.87,2178.43C2195.38,2180.03 2198.47,2180.03 2196.06,2173.83Z" style="fill:rgb(208,126,51);fill-rule:nonzero;"/>
                    <path d="M2004.69,2135.18C2011,2135.45 2016.32,2130.37 2016.24,2123.48C2015.65,2118.51 2012.87,2114.63 2006.72,2114.59C2001.17,2114.56 1995.2,2121.12 1995.65,2126.49C1996.1,2131.9 1999.18,2134.94 2004.69,2135.18Z" style="fill:rgb(19,28,36);fill-rule:nonzero;"/>
                </g>
            </g>
        </g>
    </g>
</svg>
