<?xml version="1.0" encoding="UTF-8" standalone="no"?>
<!DOCTYPE svg PUBLIC "-//W3C//DTD SVG 1.1//EN" "http://www.w3.org/Graphics/SVG/1.1/DTD/svg11.dtd">
<svg width="100%" height="100%" viewBox="0 0 534 534" version="1.1" xmlns="http://www.w3.org/2000/svg" xmlns:xlink="http://www.w3.org/1999/xlink" xml:space="preserve" xmlns:serif="http://www.serif.com/" style="fill-rule:evenodd;clip-rule:evenodd;stroke-linejoin:round;stroke-miterlimit:2;">
    <g transform="matrix(1,0,0,1,-618.158,-3218.43)">
        <g id="bird17" transform="matrix(1,0,0,1,618.158,3218.43)">
            <rect x="0" y="0" width="533.333" height="533.333" style="fill:none;"/>
            <clipPath id="_clip1">
                <rect x="0" y="0" width="533.333" height="533.333"/>
            </clipPath>
            <g clip-path="url(#_clip1)">
                <g transform="matrix(0.958689,0,0,0.958689,-2948.77,-1171.49)">
                    <path d="M3235.64,1583.95L3236.34,1584.77C3236.12,1584.48 3235.9,1584.2 3235.68,1583.91C3235.67,1583.92 3235.65,1583.94 3235.64,1583.95Z" style="fill:rgb(20,20,16);fill-rule:nonzero;"/>
                    <path d="M3406.16,1364.27C3406.24,1364.45 3406.25,1364.61 3406.31,1364.78C3406.43,1364.61 3406.56,1364.45 3406.69,1364.28C3406.5,1364.26 3406.34,1364.29 3406.16,1364.27Z" style="fill:rgb(20,20,16);fill-rule:nonzero;"/>
                    <path d="M3472.69,1589.26C3469.66,1591.66 3469.31,1587.63 3468.18,1585.97C3467.3,1584.69 3466.65,1583.25 3465.9,1581.88C3465.86,1581.9 3465.81,1581.94 3465.77,1581.95C3465.78,1581.9 3465.81,1581.85 3465.82,1581.81C3458.58,1580.26 3451.34,1578.71 3444.09,1577.19C3442.95,1576.95 3441.8,1576.77 3441.36,1575.45C3442.4,1575.16 3443.43,1574.61 3444.47,1574.6C3450.37,1574.55 3456.34,1575.22 3462.15,1574.54C3471.38,1573.47 3466.81,1578.35 3465.82,1581.81C3465.83,1581.81 3465.85,1581.81 3465.86,1581.82C3465.88,1581.84 3465.89,1581.86 3465.9,1581.88C3468.28,1581.06 3470.39,1578.08 3473.21,1580.86C3476.19,1583.79 3475.07,1587.38 3472.69,1589.26ZM3450.66,1584.02C3450.47,1584.71 3449.99,1585.66 3449.41,1585.86C3435.94,1590.67 3422.73,1597.41 3408.84,1599.44C3399.08,1600.87 3389.78,1592.78 3381.17,1587.12C3379.35,1585.92 3380.24,1584.38 3382.26,1584.14C3395.73,1582.57 3408.94,1579.65 3422.63,1576.04C3430.66,1579.63 3439.5,1581.45 3448.61,1582.06C3449.63,1582.12 3451.15,1582.27 3450.66,1584.02ZM3406.38,1614.56C3406.14,1615.71 3406.8,1618.44 3404.57,1618.62C3403.16,1618.73 3403.37,1616.09 3403.31,1614.56C3403.26,1613.38 3403.17,1612.19 3403.27,1611.02C3403.51,1608.34 3398.73,1605.68 3402.95,1603.48C3403.51,1603.2 3406.46,1608.21 3406.38,1611.6C3406.36,1612.39 3406.38,1613.18 3406.38,1614.56ZM3391.37,1604.22C3386.77,1600.43 3382.21,1596.58 3377.73,1592.65C3377.06,1592.06 3375.53,1591.26 3376.85,1590.01C3377.19,1589.69 3378.39,1589.86 3378.92,1590.21C3384.24,1593.7 3389.76,1596.94 3394.02,1601.81C3394.52,1602.39 3394.72,1603.23 3395.06,1603.97C3393.97,1605.97 3392.56,1605.2 3391.37,1604.22ZM3379.21,1611.05C3357.68,1620.26 3335.43,1627.39 3313.14,1634.46C3305.59,1636.86 3298.15,1639.59 3290.6,1642.02C3288.63,1642.65 3284.54,1643.55 3287.14,1639.57C3297.58,1623.57 3302.42,1603.81 3320.32,1592.74C3336.09,1583 3351.75,1584.61 3367.6,1590.79C3373.81,1593.21 3378.75,1598.3 3383.57,1603.05C3384.66,1604.13 3385.51,1605.44 3386.41,1606.57C3384.45,1609.31 3381.74,1609.97 3379.21,1611.05ZM3229.07,1738.51C3224.92,1746.23 3220.34,1753.77 3213.97,1759.92C3210.26,1763.5 3206.21,1767.77 3200.52,1763.73C3194.45,1759.42 3198.01,1754.7 3200.67,1750.22C3208.62,1736.88 3216.57,1723.55 3224.52,1710.21C3225.52,1708.52 3227.19,1706.19 3225.09,1705.03C3223.29,1704.05 3221.9,1706.61 3220.89,1708.25C3213.6,1720.13 3206.36,1732.03 3199.07,1743.91C3197.61,1746.28 3196.1,1748.63 3194.45,1750.88C3190.43,1756.41 3185.84,1761.29 3179.01,1763.37C3177.59,1756.54 3182.74,1752.08 3185.35,1746.88C3197.68,1722.32 3211.73,1698.7 3225.7,1675.05C3226.77,1673.24 3229.68,1670.8 3226.74,1669.05C3224.05,1667.46 3222.82,1670.92 3221.78,1672.77C3208.11,1697.06 3194.53,1721.4 3180.99,1745.76C3177.71,1751.67 3174.29,1757.55 3171.68,1763.75C3169.56,1768.79 3165.47,1770.82 3161.09,1772.64C3157.36,1774.2 3153.08,1775.21 3149.71,1772.45C3145.42,1768.94 3149.13,1764.97 3150.49,1761.65C3154.26,1752.47 3158.22,1743.33 3164.04,1735.17C3170.75,1718.5 3180.42,1703.4 3189.31,1687.91C3206.55,1657.86 3223.54,1627.69 3236.33,1595.4C3237.75,1591.83 3240.14,1589.5 3243.26,1587.53C3260.73,1576.43 3278.17,1565.27 3295.61,1554.12C3296.85,1553.33 3298.22,1551.63 3299.52,1552.62C3301.04,1553.79 3299.57,1555.48 3298.98,1556.89C3294.4,1567.86 3290.02,1578.93 3283.84,1589.16C3283.41,1590.67 3282.86,1592.17 3282.55,1593.71C3281.58,1598.49 3276.73,1603.51 3281.76,1608.05C3286.2,1612.06 3290.57,1607.31 3294.96,1606.3C3296.38,1605.97 3298.11,1604.25 3299.17,1605.9C3299.68,1606.69 3298.6,1608.74 3297.9,1610.04C3275,1652.88 3252.08,1695.72 3229.07,1738.51ZM3226.02,1590.92C3208.78,1605.15 3189.88,1617.07 3171.64,1629.9C3170.71,1630.55 3169.1,1631.54 3168.57,1631.2C3166.4,1629.8 3168.61,1628.43 3169.24,1627.43C3177.9,1613.55 3187.51,1600.35 3198.05,1587.83C3199.57,1586.02 3201.58,1583.13 3203.69,1584C3214.4,1588.44 3221.06,1580.33 3228.42,1575.92C3244.2,1566.46 3257.93,1554.23 3270.76,1541.06C3271.77,1540.02 3273.21,1537.7 3272.91,1537.37C3270.89,1535.13 3269.48,1537.35 3268.15,1538.59C3255.27,1550.52 3242.09,1562.07 3227.62,1572.07C3222.36,1575.7 3216.89,1579.01 3210.68,1580.73C3207.38,1581.64 3205.86,1579.64 3207.68,1576.9C3215.85,1564.63 3224.04,1552.37 3232.87,1540.59C3234.69,1538.16 3239.17,1537.5 3242.57,1536.53C3257.52,1532.24 3269.51,1523.07 3281.22,1513.4C3282.86,1512.05 3283.56,1510.29 3283.6,1508.21C3273.18,1513.9 3264.7,1522.64 3253.59,1527.23C3248.48,1529.34 3243.34,1531.4 3238.14,1533.27C3236.36,1533.91 3233.47,1535.27 3232.62,1533.63C3231.08,1530.66 3234.76,1530.3 3236.38,1529.24C3259.28,1514.23 3279.77,1496.15 3300.86,1478.84C3301.3,1477.76 3302.13,1476.66 3302.09,1475.59C3302.03,1473.8 3300.49,1474.17 3299.65,1474.83C3296.54,1477.28 3293.52,1479.86 3290.53,1482.46C3274,1496.79 3256.77,1510.21 3238.8,1522.67C3237.58,1523.51 3236.23,1525.07 3234.76,1523.92C3233.02,1522.57 3234.78,1521.03 3235.35,1519.73C3239.65,1509.92 3244.09,1500.19 3248.35,1490.37C3249.8,1487.02 3252.9,1486.25 3255.69,1484.84C3265.36,1479.93 3273.67,1473.21 3281.15,1465.43C3282.16,1464.39 3283.64,1462.71 3282.38,1461.36C3280.93,1459.82 3279.66,1461.72 3278.61,1462.65C3272.36,1468.16 3266.69,1474.4 3259.37,1478.58C3257.58,1479.6 3255.5,1482.23 3253.24,1480.01C3251.68,1478.49 3253.05,1476.28 3253.82,1474.5C3260.61,1458.89 3267.13,1443.15 3276.69,1428.94L3276.85,1428.56C3276.71,1427.18 3277.11,1426.07 3278.43,1425.44C3294.35,1389.92 3311.94,1355.58 3344.33,1331.65C3344.96,1331.18 3345.7,1330.85 3346.38,1330.46C3349.42,1327.17 3352.45,1323.89 3355.49,1320.6C3355.81,1319.86 3356.14,1319.11 3356.47,1318.37C3356.31,1317.12 3357.09,1316.55 3358.08,1316.14C3359.24,1313.62 3360.39,1311.11 3361.55,1308.6C3361.48,1307.68 3361.87,1307.05 3362.71,1306.69C3368.77,1288.81 3377.39,1272.21 3389.22,1257.53C3404.49,1238.58 3424.29,1227.88 3448.95,1226.97C3473.07,1223.52 3496.48,1235.81 3508.96,1258.49C3511.7,1260.54 3512.16,1263.87 3513.26,1266.74C3515.43,1272.4 3517.69,1278.07 3507.75,1278.92C3504.07,1279.23 3500.5,1281.89 3497.06,1283.8C3487.28,1289.24 3487.31,1289.31 3496.64,1297.04C3507.51,1291.92 3519.11,1291.78 3530.76,1292.1C3531.5,1292.12 3532.85,1292.52 3532.86,1292.76C3532.88,1294.1 3531.72,1294.12 3530.69,1294.31C3519.47,1296.42 3508.19,1297.84 3496.73,1297.06C3497.93,1298.57 3499.12,1300.09 3500.31,1301.6C3511.68,1299.3 3509.27,1307.36 3509.3,1313.57C3512.26,1323.72 3510.7,1334.56 3514.01,1344.66C3537.48,1375.32 3537.8,1410.21 3531.91,1445.95C3529.34,1461.59 3524.43,1476.68 3516.43,1490.55C3499.84,1525.92 3474.02,1551.55 3437.42,1566.06C3415.77,1574.65 3393.12,1578.59 3370.21,1581.52C3369.08,1581.67 3367.08,1582.91 3366.69,1580.61C3366.6,1580.1 3368.27,1579.2 3369.21,1578.61C3374.94,1575.04 3381.21,1572.25 3385.9,1567.22C3386.77,1566.28 3388.43,1564.64 3386.41,1563.29C3385.84,1562.91 3384.29,1563.59 3383.41,1564.14C3381.73,1565.19 3380.26,1566.57 3378.62,1567.69C3364.55,1577.19 3349.92,1584.7 3332.03,1582.14C3326.93,1581.42 3321.68,1581.58 3316.51,1581.78C3313.62,1581.9 3308.61,1580.1 3308.31,1583.71C3307.9,1588.51 3313.03,1585.38 3315.55,1586.31C3316.6,1586.71 3318.55,1586.58 3318.72,1587.12C3319.3,1589.02 3317.38,1589.71 3316.17,1590.53C3307.92,1596.15 3299.17,1600.76 3289.55,1603.6C3285.88,1604.68 3282.81,1605.3 3285.25,1599.61C3292.44,1582.84 3299.48,1566 3306.68,1549.24C3308.72,1544.49 3313.13,1542.41 3317.56,1540.5C3343.99,1520.68 3369.77,1500.04 3395.37,1479.17C3406.48,1470.11 3417.75,1461.24 3428.53,1451.82C3441.86,1440.17 3452.77,1426.52 3460.28,1410.33C3469.67,1390.12 3470.59,1370.48 3456.63,1351.74C3453.9,1349.95 3451.5,1347.42 3447.83,1347.63C3439.99,1352.05 3430.88,1348.23 3422.85,1351.48C3421.56,1352 3419.13,1351.5 3419.66,1353.84C3420.07,1355.6 3422.04,1355.53 3423.58,1355.12C3431.27,1353.07 3439.44,1356.4 3446.97,1353.05C3450.5,1351.47 3452.13,1353.96 3453.84,1356C3457.95,1360.9 3461.4,1366.18 3461.38,1372.95C3464.37,1378.61 3463.56,1384.61 3462.17,1390.32C3455.44,1418.07 3440.75,1440.28 3415.98,1455.27C3409.45,1460.73 3401.24,1464.21 3396.45,1471.74L3396.46,1471.74C3396.05,1473.01 3395.2,1473.72 3393.84,1473.74L3393.57,1473.92C3393.32,1475.03 3392.69,1475.72 3391.51,1475.8C3361.99,1501.23 3332.17,1526.26 3298.71,1546.52C3295.35,1550.71 3290.74,1553.12 3286.08,1555.47C3269.68,1565.55 3254.23,1577.24 3236.34,1584.77C3233.62,1588.03 3229.84,1589.5 3226.02,1590.92ZM3532.53,1287.64C3533.18,1287.93 3533.82,1288.22 3534.46,1288.51C3533.83,1288.77 3533.19,1289.04 3532.56,1289.3C3522.39,1289.9 3512.11,1288.72 3502.07,1291.35C3501.05,1291.62 3499.06,1291.44 3498.87,1290.95C3498.27,1289.38 3499.34,1288.24 3500.76,1287.33C3511.43,1280.48 3522.01,1279.97 3532.53,1287.64ZM3563.48,1541.91C3562.3,1539.51 3559.26,1542.01 3557.25,1543.03C3533.09,1555.29 3508.39,1566.29 3482.61,1574.77C3480.19,1574.78 3477.77,1574.79 3475.35,1574.81L3475.28,1574.76C3474.95,1573.56 3474.28,1572.76 3472.91,1572.84C3465.67,1569.6 3457.93,1571.46 3450.45,1570.6C3448.63,1570.39 3445.83,1571.2 3445.25,1569.29C3444.52,1566.88 3447.59,1566.53 3449.12,1565.78C3498.81,1541.25 3525.25,1499.26 3536.51,1446.9C3543.36,1415.05 3541.75,1383.15 3525.73,1353.77C3520.05,1343.36 3516.37,1333.11 3515.14,1321.3C3512.54,1296.26 3513.24,1301.66 3534.15,1297.15C3538.52,1296.2 3545.86,1298.86 3546.63,1293.76C3547.4,1288.67 3540.31,1286.49 3535.8,1284.07C3534.4,1283.32 3532.97,1282.55 3531.45,1282.11C3524.38,1280.05 3520.74,1275.66 3518.38,1268.35C3509.03,1239.42 3483.54,1221.48 3453.1,1221.98C3424.65,1222.45 3401.44,1233.91 3384.11,1256.69C3375.39,1268.16 3367.78,1280.39 3362.97,1294.01C3357.07,1310.66 3347.43,1324.15 3333.38,1335.03C3317.75,1347.14 3305.91,1362.75 3296.12,1379.86C3269.59,1426.26 3249,1475.46 3228.36,1524.62C3227.9,1525.72 3227.05,1526.84 3227.06,1527.94C3227.3,1547.59 3212.15,1559.48 3203.26,1574.41C3198.43,1582.54 3191.14,1589.18 3185.11,1596.61C3177.32,1606.22 3169.77,1616.05 3163.7,1626.84C3161.68,1630.44 3156.42,1634.84 3159.79,1638.31C3163.93,1642.56 3168.45,1636.98 3172.05,1634.61C3189.69,1623 3207.03,1610.94 3224.54,1599.14C3226.29,1597.96 3228.22,1594.83 3230.27,1596.71C3232.27,1598.54 3229.45,1601 3228.58,1603.02C3220.09,1622.81 3209.63,1641.61 3199.45,1660.56C3183.62,1690.04 3165.43,1718.21 3150.93,1748.42C3148.18,1754.16 3145.31,1759.89 3144.33,1766.28C3143.08,1774.47 3146.35,1778.1 3154.7,1778.28C3158.87,1778.37 3162.78,1777.21 3166.06,1775.07C3172.79,1770.67 3180.47,1768.26 3187.27,1764.16C3190.44,1762.25 3191.99,1762.11 3195.07,1765.02C3202.31,1771.86 3208.29,1771.5 3215.96,1764.73C3222.95,1758.56 3227.36,1750.43 3231.73,1742.36C3246.72,1714.69 3261.82,1687.08 3276.44,1659.22C3280.03,1652.39 3284.51,1648.46 3292.03,1646.05C3323.49,1635.97 3355.21,1626.57 3385.46,1613.02C3389.65,1611.15 3394.6,1607.69 3397.46,1614.62C3399.69,1620.04 3398.95,1624.94 3392.45,1627.06C3390.53,1627.69 3388.2,1627.88 3389.27,1630.65C3389.87,1632.21 3391.85,1632.14 3393.41,1632.31C3403.99,1633.47 3413.36,1623.83 3411.93,1611.16C3411.24,1605.04 3413.27,1603.81 3417.81,1602.17C3430.53,1597.57 3443.51,1593.6 3455.7,1587.63C3458.68,1586.17 3461.65,1584.52 3464.31,1587.69C3467.2,1591.12 3466.63,1594.74 3464.83,1598.76C3463.81,1601.04 3457.83,1600 3460.93,1604.05C3463.01,1606.75 3466.28,1604.24 3468.58,1603.14C3474.69,1600.24 3479.7,1595.2 3479.36,1588.51C3478.93,1580.19 3483.85,1578.52 3489.7,1576.71C3513.76,1569.26 3536.55,1558.84 3558.62,1546.82C3560.66,1545.71 3565.38,1545.76 3563.48,1541.91Z" style="fill:rgb(20,20,16);fill-rule:nonzero;"/>
                    <path d="M3497.76,1427.42C3500.4,1427.6 3499.15,1430.38 3499.68,1432.34C3497.31,1443.4 3493.49,1454.06 3485.82,1462.99C3484.63,1464.37 3483.29,1466.58 3481.13,1464.75C3479.56,1463.41 3481,1461.98 3481.98,1460.77C3488.83,1452.26 3492.46,1442.34 3494.68,1431.79C3495.09,1429.89 3495.43,1427.26 3497.76,1427.42ZM3501.98,1431.63C3502.11,1429.55 3503.49,1427.18 3505.49,1427.77C3507.33,1428.31 3506.76,1431.13 3506.66,1434.38C3505.9,1440.99 3503.28,1448.43 3500.38,1455.77C3499.93,1456.91 3499.32,1459.07 3497.33,1457.86C3496.7,1457.47 3496.49,1455.62 3496.76,1454.63C3498.86,1447.04 3501.5,1439.6 3501.98,1431.63ZM3511.63,1447.53C3512.02,1445.34 3512.1,1441.77 3515,1442.26C3517.84,1442.73 3516.18,1446.19 3516.59,1448.55C3515.46,1455.37 3514.72,1462.53 3510.85,1468.76C3510.33,1469.59 3508.82,1469.82 3507.77,1470.33C3507.47,1469.25 3506.62,1467.98 3506.93,1467.13C3509.27,1460.77 3510.44,1454.16 3511.63,1447.53ZM3527.65,1436.6C3530.35,1437.09 3529.51,1439.51 3529.22,1441.38C3528.16,1450.98 3524.41,1459.68 3520.27,1468.22C3519.74,1469.31 3518.5,1471.13 3516.8,1469.77C3516.23,1469.31 3516.22,1467.47 3516.63,1466.58C3520.45,1458.27 3523.05,1449.63 3524.52,1440.6C3524.79,1438.96 3524.87,1436.09 3527.65,1436.6ZM3482.17,1310.78C3473.02,1309.58 3466.95,1313.05 3463.93,1321.97C3461.98,1327.76 3458.03,1329.21 3452.93,1325.63C3449.7,1323.36 3446.18,1323.61 3442.67,1323.71C3428.89,1324.1 3417.32,1319.33 3407.5,1309.65C3402.49,1304.72 3396.75,1301.17 3389.73,1306.57C3391.2,1313.67 3397.1,1316.35 3402.63,1319.32C3412.68,1324.73 3422.87,1329.87 3432.8,1335.48C3436.36,1337.49 3441.15,1338.87 3441.17,1344.42C3443.39,1345.49 3445.61,1346.56 3447.83,1347.63C3451.5,1347.42 3453.9,1349.95 3456.63,1351.74C3466.25,1354.36 3471.9,1363.47 3473.11,1375.97C3475.1,1396.6 3466.91,1414.28 3456.92,1430.99C3444.78,1451.31 3427.97,1467.66 3408.51,1481.23C3393.5,1491.7 3380.68,1504.78 3367.11,1516.91C3354.59,1528.11 3340.52,1536.82 3326.73,1546.08C3330.45,1549.77 3334.51,1551.46 3339.39,1548.19C3342.37,1546.19 3345.19,1546.84 3348.38,1548.06C3352.15,1549.5 3356.54,1549.61 3360.14,1548.1C3365.85,1545.69 3370.75,1544.28 3376.75,1548.02C3380.65,1550.45 3385.25,1548.2 3388.9,1545.34C3396.23,1539.59 3403.81,1534.87 3413.89,1536.11C3417.92,1536.61 3421.31,1533.6 3424.81,1531.73C3430.65,1528.61 3436.06,1523.93 3443.46,1528.73C3445.87,1530.29 3448.79,1528.27 3450.98,1526.33C3458.52,1519.64 3467.46,1515.39 3476.61,1511.4C3482.82,1508.7 3488.47,1505.03 3493.38,1500.18C3499.71,1493.94 3507.83,1491.58 3516.43,1490.55C3524.43,1476.68 3529.34,1461.59 3531.91,1445.95C3537.8,1410.21 3537.48,1375.32 3514.01,1344.66C3496.13,1342.36 3493.26,1337.32 3498.93,1320.64C3500.87,1314.94 3503.99,1313.2 3509.3,1313.57C3509.27,1307.36 3511.68,1299.3 3500.31,1301.6C3496,1303.98 3491.68,1306.36 3487.37,1308.74C3486.1,1310.62 3484.16,1311.04 3482.17,1310.78Z" style="fill:rgb(250,165,120);fill-rule:nonzero;"/>
                    <path d="M3290.14,1443.98C3290.78,1443.04 3291.22,1441.61 3292.1,1441.24C3314.83,1431.75 3332.22,1414.22 3352.53,1401.09C3353.84,1400.24 3355.18,1398.8 3356.64,1400.27C3358.25,1401.9 3356.43,1403.3 3355.41,1404.04C3336.48,1417.77 3319.24,1433.99 3297.57,1443.72C3296.13,1444.36 3294.66,1444.93 3293.09,1445.59C3292.04,1445.02 3291.09,1444.5 3290.14,1443.98ZM3407.84,1433.52C3408.32,1432.98 3409.15,1432.76 3409.81,1432.38C3410.14,1433.05 3410.72,1433.69 3410.77,1434.38C3410.94,1436.87 3396.32,1453.12 3393.83,1453.31C3393.1,1453.72 3392.41,1453.44 3392.39,1452.46C3392.37,1451.77 3392.81,1450.94 3393.28,1450.38C3398.1,1444.73 3402.95,1439.11 3407.84,1433.52ZM3220.66,1590.89C3219.72,1591.3 3217.93,1591.54 3217.52,1591.04C3215.89,1589.05 3218.3,1588.33 3219.27,1587.81C3250.1,1571.25 3274.32,1546.42 3300.12,1523.55C3302.82,1521.16 3306.58,1515.57 3309.01,1518.16C3311.34,1520.66 3305.49,1524.06 3302.86,1526.59C3294.3,1534.84 3285.42,1542.76 3276.66,1550.81C3277.54,1551.63 3278.41,1552.45 3279.28,1553.28C3297.31,1540.19 3313.63,1525.13 3329.77,1509.85C3331.5,1508.22 3333.25,1503.89 3335.96,1506.67C3338.25,1509.03 3334.66,1511.56 3332.76,1513.3C3321.11,1524.04 3309.34,1534.65 3297.61,1545.3C3297.97,1545.71 3298.34,1546.11 3298.71,1546.52C3332.17,1526.26 3361.99,1501.23 3391.51,1475.8C3392.47,1475.47 3393.17,1474.86 3393.57,1473.92L3393.84,1473.74C3394.28,1472.55 3395.11,1471.86 3396.39,1471.76C3387,1471.84 3377.82,1473.93 3369.26,1477.22C3354.13,1483.05 3338.65,1484.14 3322.75,1483.8C3314.55,1483.63 3310.01,1480.41 3310.09,1471.86C3304.5,1468.99 3297.28,1469.86 3292.87,1464.4C3292.25,1463.62 3291.88,1462.15 3292.17,1461.25C3292.58,1459.95 3294.15,1459.84 3295.1,1460.6C3309.77,1472.38 3320.14,1461.39 3330.86,1453.63C3334.33,1451.11 3336.75,1447.18 3339.8,1444.03C3341.26,1442.53 3342.54,1439.08 3345.14,1441.31C3346.78,1442.72 3344.22,1444.74 3343.14,1446.19C3337.58,1453.62 3330.75,1459.65 3322.81,1464.47C3320.86,1465.66 3316.83,1466.8 3317.56,1468.35C3318.84,1471.08 3322.53,1469.32 3324.91,1468.81C3340.55,1465.46 3353.44,1457.07 3365.21,1446.54C3368.28,1443.79 3372.82,1436.98 3374.49,1439.31C3377.76,1443.85 3371.01,1446.7 3367.78,1449.56C3362.72,1454.04 3357.16,1457.96 3351.86,1462.17C3350.67,1463.12 3348.47,1464.01 3349.14,1465.68C3350.07,1468.03 3352.57,1466.86 3354.2,1466.46C3364.07,1464.03 3372.79,1459.5 3379.83,1451.96C3381.99,1449.63 3384.39,1447.48 3386.88,1445.51C3389.72,1443.26 3392.45,1437.38 3395.54,1440.06C3397.64,1441.88 3391.92,1446 3389.52,1448.94C3386.76,1452.32 3383.74,1455.49 3380.82,1458.75C3385.42,1457.99 3390.16,1457.71 3394.59,1456.38C3407.22,1452.59 3416.4,1443.53 3426.02,1435.13C3428.5,1432.97 3432.25,1427.95 3433.77,1429.82C3436.15,1432.76 3431.22,1435.53 3428.88,1437.84C3423.78,1442.85 3418.32,1447.5 3413.01,1452.3C3414,1453.29 3414.99,1454.28 3415.98,1455.27C3440.75,1440.28 3455.44,1418.07 3462.17,1390.32C3463.56,1384.61 3464.37,1378.61 3461.38,1372.95C3456.4,1376.8 3455.42,1382.98 3452.54,1388.05C3447.86,1396.27 3441.54,1400.07 3431.71,1403.07C3416.29,1407.77 3405.58,1405.53 3395.63,1393.77C3393.42,1391.16 3386.94,1394.37 3386.83,1388C3382.93,1389.93 3379.09,1392.02 3375.09,1393.72C3372.37,1394.88 3368.48,1398.61 3366.84,1395.62C3364.88,1392.07 3370.21,1391.36 3372.65,1390.06C3384.33,1383.83 3395.53,1377.02 3404.54,1367.13C3405.19,1366.41 3405.73,1365.58 3406.31,1364.78C3406.25,1364.61 3406.24,1364.45 3406.16,1364.27C3394.59,1363.1 3385.44,1366.45 3374.98,1373.27C3351.91,1388.29 3329.04,1403.8 3305.19,1417.68C3302.2,1419.42 3299.02,1418.8 3295.9,1419.04C3291.44,1425.39 3283.37,1426.76 3278.06,1431.93C3277.6,1430.93 3277.15,1429.94 3276.69,1428.94C3267.13,1443.15 3260.61,1458.89 3253.82,1474.5C3253.05,1476.28 3251.68,1478.49 3253.24,1480.01C3255.5,1482.23 3257.58,1479.6 3259.37,1478.58C3266.69,1474.4 3272.36,1468.16 3278.61,1462.65C3279.66,1461.72 3280.93,1459.82 3282.38,1461.36C3283.64,1462.71 3282.16,1464.39 3281.15,1465.43C3273.67,1473.21 3265.36,1479.93 3255.69,1484.84C3252.9,1486.25 3249.8,1487.02 3248.35,1490.37C3244.09,1500.19 3239.65,1509.92 3235.35,1519.73C3234.78,1521.03 3233.02,1522.57 3234.76,1523.92C3236.23,1525.07 3237.58,1523.51 3238.8,1522.67C3256.77,1510.21 3274,1496.79 3290.53,1482.46C3293.52,1479.86 3296.54,1477.28 3299.65,1474.83C3300.49,1474.17 3302.03,1473.8 3302.09,1475.59C3302.13,1476.66 3301.3,1477.76 3300.86,1478.84C3304.73,1483.78 3300.04,1486.66 3297.87,1489.75C3293.4,1496.11 3288.39,1502.08 3283.6,1508.21C3283.56,1510.29 3282.86,1512.05 3281.22,1513.4C3269.51,1523.07 3257.52,1532.24 3242.57,1536.53C3239.17,1537.5 3234.69,1538.16 3232.87,1540.59C3224.04,1552.37 3215.85,1564.63 3207.68,1576.9C3205.86,1579.64 3207.38,1581.64 3210.68,1580.73C3216.89,1579.01 3222.36,1575.7 3227.62,1572.07C3242.09,1562.07 3255.27,1550.52 3268.15,1538.59C3269.48,1537.35 3270.89,1535.13 3272.91,1537.37C3273.21,1537.7 3271.77,1540.02 3270.76,1541.06C3257.93,1554.23 3244.2,1566.46 3228.42,1575.92C3221.06,1580.33 3214.4,1588.44 3203.69,1584C3201.58,1583.13 3199.57,1586.02 3198.05,1587.83C3187.51,1600.35 3177.9,1613.55 3169.24,1627.43C3168.61,1628.43 3166.4,1629.8 3168.57,1631.2C3169.1,1631.54 3170.71,1630.55 3171.64,1629.9C3189.88,1617.07 3208.78,1605.15 3226.02,1590.92C3225.92,1590.39 3226,1589.89 3226.25,1589.41C3224.13,1588.98 3222.47,1590.11 3220.66,1590.89Z" style="fill:rgb(118,161,233);fill-rule:nonzero;"/>
                    <path d="M3161.09,1772.64C3165.47,1770.82 3169.56,1768.79 3171.68,1763.75C3174.29,1757.55 3177.71,1751.67 3180.99,1745.76C3194.53,1721.4 3208.11,1697.06 3221.78,1672.77C3222.82,1670.92 3224.05,1667.46 3226.74,1669.05C3229.68,1670.8 3226.77,1673.24 3225.7,1675.05C3211.73,1698.7 3197.68,1722.32 3185.35,1746.88C3182.74,1752.08 3177.59,1756.54 3179.01,1763.37C3185.84,1761.29 3190.43,1756.41 3194.45,1750.88C3196.1,1748.63 3197.61,1746.28 3199.07,1743.91C3206.36,1732.03 3213.6,1720.13 3220.89,1708.25C3221.9,1706.61 3223.29,1704.05 3225.09,1705.03C3227.19,1706.19 3225.52,1708.52 3224.52,1710.21C3216.57,1723.55 3208.62,1736.88 3200.67,1750.22C3198.01,1754.7 3194.45,1759.42 3200.52,1763.73C3206.21,1767.77 3210.26,1763.5 3213.97,1759.92C3220.34,1753.77 3224.92,1746.23 3229.07,1738.51C3252.08,1695.72 3275,1652.88 3297.9,1610.04C3298.6,1608.74 3299.68,1606.69 3299.17,1605.9C3298.11,1604.25 3296.38,1605.97 3294.96,1606.3C3290.57,1607.31 3286.2,1612.06 3281.76,1608.05C3276.73,1603.51 3281.58,1598.49 3282.55,1593.71C3282.86,1592.17 3283.41,1590.67 3283.84,1589.16C3281.06,1585.46 3277.49,1586 3274.38,1588.13C3262.65,1596.19 3250.15,1603.6 3243.51,1617C3231.7,1640.85 3215.22,1661.8 3201.82,1684.62C3192.61,1700.32 3183.36,1716 3174.26,1731.77C3171.52,1736.52 3168.89,1738.32 3164.04,1735.17C3158.22,1743.33 3154.26,1752.47 3150.49,1761.65C3149.13,1764.97 3145.42,1768.94 3149.71,1772.45C3153.08,1775.21 3157.36,1774.2 3161.09,1772.64Z" style="fill:rgb(119,164,236);fill-rule:nonzero;"/>
                    <path d="M3476.61,1511.4C3467.46,1515.39 3458.52,1519.64 3450.98,1526.33C3448.79,1528.27 3445.87,1530.29 3443.46,1528.73C3436.06,1523.93 3430.65,1528.61 3424.81,1531.73C3421.31,1533.6 3417.92,1536.61 3413.89,1536.11C3403.81,1534.87 3396.23,1539.59 3388.9,1545.34C3385.25,1548.2 3380.65,1550.45 3376.75,1548.02C3370.75,1544.28 3365.85,1545.69 3360.14,1548.1C3356.54,1549.61 3352.15,1549.5 3348.38,1548.06C3345.19,1546.84 3342.37,1546.19 3339.39,1548.19C3334.51,1551.46 3330.45,1549.77 3326.73,1546.08C3321.94,1547.07 3319.61,1544.01 3317.56,1540.5C3313.13,1542.41 3308.72,1544.49 3306.68,1549.24C3299.48,1566 3292.44,1582.84 3285.25,1599.61C3282.81,1605.3 3285.88,1604.68 3289.55,1603.6C3299.17,1600.76 3307.92,1596.15 3316.17,1590.53C3317.38,1589.71 3319.3,1589.02 3318.72,1587.12C3318.55,1586.58 3316.6,1586.71 3315.55,1586.31C3313.03,1585.38 3307.9,1588.51 3308.31,1583.71C3308.61,1580.1 3313.62,1581.9 3316.51,1581.78C3321.68,1581.58 3326.93,1581.42 3332.03,1582.14C3349.92,1584.7 3364.55,1577.19 3378.62,1567.69C3380.26,1566.57 3381.73,1565.19 3383.41,1564.14C3384.29,1563.59 3385.84,1562.91 3386.41,1563.29C3388.43,1564.64 3386.77,1566.28 3385.9,1567.22C3381.21,1572.25 3374.94,1575.04 3369.21,1578.61C3368.27,1579.2 3366.6,1580.1 3366.69,1580.61C3367.08,1582.91 3369.08,1581.67 3370.21,1581.52C3393.12,1578.59 3415.77,1574.65 3437.42,1566.06C3474.02,1551.55 3499.84,1525.92 3516.43,1490.55C3507.83,1491.58 3499.71,1493.94 3493.38,1500.18C3488.47,1505.03 3482.82,1508.7 3476.61,1511.4Z" style="fill:rgb(253,253,253);fill-rule:nonzero;"/>
                    <path d="M3439.31,1270.35C3439.25,1270.35 3439.22,1270.38 3439.17,1270.37C3439.21,1270.4 3439.26,1270.39 3439.31,1270.35Z" style="fill:rgb(133,175,236);fill-rule:nonzero;"/>
                    <path d="M3378.72,1282.88C3373.17,1289.1 3369.93,1297.59 3372.81,1306.74C3377.3,1303.71 3381.86,1302.04 3386.76,1305.91C3387.75,1306.13 3388.74,1306.35 3389.73,1306.57C3396.75,1301.17 3402.49,1304.72 3407.5,1309.65C3417.32,1319.33 3428.89,1324.1 3442.67,1323.71C3446.18,1323.61 3449.7,1323.36 3452.93,1325.63C3458.03,1329.21 3461.98,1327.76 3463.93,1321.97C3466.95,1313.05 3473.02,1309.58 3482.17,1310.78C3484.16,1311.04 3486.1,1310.62 3487.37,1308.74C3485.64,1304.61 3494.28,1302.04 3489.04,1297.34C3484.09,1292.9 3478.97,1294.04 3473.68,1296.56C3462.96,1301.65 3452.29,1305.31 3439.88,1301.91C3430.44,1299.32 3424.38,1294.73 3422.72,1284.95C3418.51,1281.14 3421.9,1279.78 3424.93,1278.78C3430.21,1277.05 3432.05,1279.64 3431.53,1284.65C3438.01,1287.14 3442.82,1295.94 3451.55,1289.95C3450.84,1289.66 3450.11,1289.54 3449.35,1289.59C3447.71,1289.57 3445.93,1290.03 3444.78,1288.3C3437.2,1286.56 3433.62,1281.97 3434.71,1274.08C3437.54,1263.63 3443.04,1260.63 3452.2,1264.98C3455.28,1266.44 3457.92,1268.85 3460.76,1270.82C3462.91,1266.63 3465.46,1264.32 3469.83,1268.51C3477.52,1275.89 3486.19,1274.35 3493.71,1269.26C3498.82,1265.8 3505.89,1264.84 3508.96,1258.49C3496.48,1235.81 3473.07,1223.52 3448.95,1226.97C3438.01,1236.93 3423.73,1241.62 3412.02,1250.47C3399.52,1259.91 3389.01,1271.36 3378.72,1282.88Z" style="fill:rgb(133,175,236);fill-rule:nonzero;"/>
                    <path d="M3427.93,1339.43C3403.9,1336.91 3379.8,1336.87 3355.69,1337.5L3355.56,1337.69C3355.73,1348.76 3346.2,1354.23 3340.18,1360.54C3323.1,1378.45 3308.13,1397.62 3295.9,1419.04C3299.02,1418.8 3302.2,1419.42 3305.19,1417.68C3329.04,1403.8 3351.91,1388.29 3374.98,1373.27C3385.44,1366.45 3394.59,1363.1 3406.16,1364.27C3406.34,1364.29 3406.5,1364.26 3406.69,1364.28C3408.55,1363.74 3411.17,1362.17 3412.12,1362.87C3414.11,1364.33 3412.35,1366.43 3410.98,1367.73C3406.17,1372.3 3401.21,1376.74 3396.31,1381.23C3395.41,1381.67 3394.67,1382.29 3394.07,1383.1L3393.99,1383.15C3393.45,1384.43 3392.5,1385.16 3391.1,1385.27C3390.26,1385.29 3389.59,1385.64 3389.09,1386.31C3388.15,1386.54 3387.45,1387.08 3386.98,1387.93L3386.83,1388C3386.94,1394.37 3393.42,1391.16 3395.63,1393.77C3405.58,1405.53 3416.29,1407.77 3431.71,1403.07C3441.54,1400.07 3447.86,1396.27 3452.54,1388.05C3455.42,1382.98 3456.4,1376.8 3461.38,1372.95C3461.4,1366.18 3457.95,1360.9 3453.84,1356C3452.13,1353.96 3450.5,1351.47 3446.97,1353.05C3439.44,1356.4 3431.27,1353.07 3423.58,1355.12C3422.04,1355.53 3420.07,1355.6 3419.66,1353.84C3419.13,1351.5 3421.56,1352 3422.85,1351.48C3430.88,1348.23 3439.99,1352.05 3447.83,1347.63C3445.61,1346.56 3443.39,1345.49 3441.17,1344.42C3436.45,1343.56 3432.88,1339.66 3427.93,1339.43Z" style="fill:rgb(129,174,240);fill-rule:nonzero;"/>
                    <path d="M3174.26,1731.77C3183.36,1716 3192.61,1700.32 3201.82,1684.62C3215.22,1661.8 3231.7,1640.85 3243.51,1617C3250.15,1603.6 3262.65,1596.19 3274.38,1588.13C3277.49,1586 3281.06,1585.46 3283.84,1589.16C3290.02,1578.93 3294.4,1567.86 3298.98,1556.89C3299.57,1555.48 3301.04,1553.79 3299.52,1552.62C3298.22,1551.63 3296.85,1553.33 3295.61,1554.12C3278.17,1565.27 3260.73,1576.43 3243.26,1587.53C3240.14,1589.5 3237.75,1591.83 3236.33,1595.4C3223.54,1627.69 3206.55,1657.86 3189.31,1687.91C3180.42,1703.4 3170.75,1718.5 3164.04,1735.17C3168.89,1738.32 3171.52,1736.52 3174.26,1731.77Z" style="fill:rgb(91,135,213);fill-rule:nonzero;"/>
                    <path d="M3326.73,1546.08C3340.52,1536.82 3354.59,1528.11 3367.11,1516.91C3380.68,1504.78 3393.5,1491.7 3408.51,1481.23C3427.97,1467.66 3444.78,1451.31 3456.92,1430.99C3466.91,1414.28 3475.1,1396.6 3473.11,1375.97C3471.9,1363.47 3466.25,1354.36 3456.63,1351.74C3470.59,1370.48 3469.67,1390.12 3460.28,1410.33C3452.77,1426.52 3441.86,1440.17 3428.53,1451.82C3417.75,1461.24 3406.48,1470.11 3395.37,1479.17C3369.77,1500.04 3343.99,1520.68 3317.56,1540.5C3319.61,1544.01 3321.94,1547.07 3326.73,1546.08Z" style="fill:rgb(247,140,82);fill-rule:nonzero;"/>
                    <path d="M3295.9,1419.04C3308.13,1397.62 3323.1,1378.45 3340.18,1360.54C3346.2,1354.23 3355.73,1348.76 3355.56,1337.69C3350.29,1338.09 3349.35,1332.98 3346.38,1330.46C3345.7,1330.85 3344.96,1331.18 3344.33,1331.65C3311.94,1355.58 3294.35,1389.92 3278.43,1425.44C3278.72,1426.89 3278.08,1427.87 3276.85,1428.56L3276.69,1428.94C3277.15,1429.94 3277.6,1430.93 3278.06,1431.93C3283.37,1426.76 3291.44,1425.39 3295.9,1419.04Z" style="fill:rgb(171,203,242);fill-rule:nonzero;"/>
                    <path d="M3493.71,1269.26C3486.19,1274.35 3477.52,1275.89 3469.83,1268.51C3465.46,1264.32 3462.91,1266.63 3460.76,1270.82C3465.16,1284.7 3465.01,1285.02 3451.55,1289.95C3442.82,1295.94 3438.01,1287.14 3431.53,1284.65C3428.59,1284.75 3425.65,1284.85 3422.72,1284.95C3424.38,1294.73 3430.44,1299.32 3439.88,1301.91C3452.29,1305.31 3462.96,1301.65 3473.68,1296.56C3478.97,1294.04 3484.09,1292.9 3489.04,1297.34C3494.28,1302.04 3485.64,1304.61 3487.37,1308.74C3491.68,1306.36 3496,1303.98 3500.31,1301.6C3499.12,1300.09 3497.93,1298.57 3496.73,1297.06L3496.64,1297.04C3487.31,1289.31 3487.28,1289.24 3497.06,1283.8C3500.5,1281.89 3504.07,1279.23 3507.75,1278.92C3517.69,1278.07 3515.43,1272.4 3513.26,1266.74C3512.16,1263.87 3511.7,1260.54 3508.96,1258.49C3505.89,1264.84 3498.82,1265.8 3493.71,1269.26Z" style="fill:rgb(107,152,221);fill-rule:nonzero;"/>
                    <path d="M3380.61,1462.91C3374.52,1462.93 3368.49,1466.48 3362.36,1468.16C3356.1,1469.87 3350.15,1474.05 3343.16,1468.89C3340.49,1466.92 3336.45,1469.82 3333.05,1470.72C3325.51,1472.71 3317.99,1476.51 3310.09,1471.86C3310.01,1480.41 3314.55,1483.63 3322.75,1483.8C3338.65,1484.14 3354.13,1483.05 3369.26,1477.22C3377.82,1473.93 3387,1471.84 3396.39,1471.76C3396.42,1471.76 3396.43,1471.74 3396.45,1471.74C3401.24,1464.21 3409.45,1460.73 3415.98,1455.27C3414.99,1454.28 3414,1453.29 3413.01,1452.3C3403,1458.22 3392.83,1462.88 3380.61,1462.91Z" style="fill:rgb(89,133,209);fill-rule:nonzero;"/>
                    <path d="M3365.96,1318.52C3367.5,1317.6 3367.78,1316.1 3367.82,1314.49C3367.93,1312.93 3368.64,1311.8 3370.15,1311.23C3371.91,1310.25 3372.47,1308.56 3372.81,1306.74C3369.93,1297.59 3373.17,1289.1 3378.72,1282.88C3389.01,1271.36 3399.52,1259.91 3412.02,1250.47C3423.73,1241.62 3438.01,1236.93 3448.95,1226.97C3424.29,1227.88 3404.49,1238.58 3389.22,1257.53C3377.39,1272.21 3368.77,1288.81 3362.71,1306.69C3361.87,1307.05 3361.48,1307.68 3361.55,1308.6C3360.39,1311.11 3359.24,1313.62 3358.08,1316.14C3358.06,1317.26 3357.54,1318.01 3356.47,1318.37C3356.14,1319.11 3355.81,1319.86 3355.49,1320.6C3359.81,1324.06 3362.27,1318.18 3365.96,1318.52Z" style="fill:rgb(177,203,242);fill-rule:nonzero;"/>
                    <path d="M3300.86,1478.84C3279.77,1496.15 3259.28,1514.23 3236.38,1529.24C3234.76,1530.3 3231.08,1530.66 3232.62,1533.63C3233.47,1535.27 3236.36,1533.91 3238.14,1533.27C3243.34,1531.4 3248.48,1529.34 3253.59,1527.23C3264.7,1522.64 3273.18,1513.9 3283.6,1508.21C3288.39,1502.08 3293.4,1496.11 3297.87,1489.75C3300.04,1486.66 3304.73,1483.78 3300.86,1478.84Z" style="fill:rgb(154,183,235);fill-rule:nonzero;"/>
                    <path d="M3498.93,1320.64C3493.26,1337.32 3496.13,1342.36 3514.01,1344.66C3510.7,1334.56 3512.26,1323.72 3509.3,1313.57C3503.99,1313.2 3500.87,1314.94 3498.93,1320.64Z" style="fill:rgb(247,138,78);fill-rule:nonzero;"/>
                    <path d="M3283.84,1555.54C3282.17,1555.1 3279.69,1556.27 3279.28,1553.28C3278.41,1552.45 3277.54,1551.63 3276.66,1550.81C3263,1561.84 3249.34,1572.88 3235.68,1583.91C3235.9,1584.2 3236.12,1584.48 3236.34,1584.77C3254.23,1577.24 3269.68,1565.55 3286.08,1555.47L3284.95,1555.31L3283.84,1555.54Z" style="fill:rgb(79,112,175);fill-rule:nonzero;"/>
                    <path d="M3498.87,1290.95C3499.06,1291.44 3501.05,1291.62 3502.07,1291.35C3512.11,1288.72 3522.39,1289.9 3532.56,1289.3C3532.6,1288.74 3532.6,1288.19 3532.53,1287.64C3522.01,1279.97 3511.43,1280.48 3500.76,1287.33C3499.34,1288.24 3498.27,1289.38 3498.87,1290.95Z" style="fill:rgb(145,138,141);fill-rule:nonzero;"/>
                    <path d="M3355.56,1337.69L3355.69,1337.5C3355.04,1335.84 3353.37,1334.33 3355.85,1332.57C3360.78,1329.06 3363.73,1324.03 3365.96,1318.52C3362.27,1318.18 3359.81,1324.06 3355.49,1320.6C3352.45,1323.89 3349.42,1327.17 3346.38,1330.46C3349.35,1332.98 3350.29,1338.09 3355.56,1337.69Z" style="fill:rgb(133,175,236);fill-rule:nonzero;"/>
                    <path d="M3441.36,1575.45C3441.8,1576.77 3442.95,1576.95 3444.09,1577.19C3451.34,1578.71 3458.58,1580.26 3465.82,1581.81C3466.81,1578.35 3471.38,1573.47 3462.15,1574.54C3456.34,1575.22 3450.37,1574.55 3444.47,1574.6C3443.43,1574.61 3442.4,1575.16 3441.36,1575.45Z" style="fill:rgb(253,253,253);fill-rule:nonzero;"/>
                    <path d="M3465.86,1581.82C3465.85,1581.81 3465.83,1581.81 3465.82,1581.81C3465.81,1581.85 3465.78,1581.9 3465.77,1581.95L3465.86,1581.82Z" style="fill:rgb(74,71,70);fill-rule:nonzero;"/>
                    <path d="M3530.69,1294.31C3531.72,1294.12 3532.88,1294.1 3532.86,1292.76C3532.85,1292.52 3531.5,1292.12 3530.76,1292.1C3519.11,1291.78 3507.51,1291.92 3496.64,1297.04L3496.73,1297.06C3508.19,1297.84 3519.47,1296.42 3530.69,1294.31Z" style="fill:rgb(80,78,72);fill-rule:nonzero;"/>
                    <path d="M3378.92,1590.21C3378.39,1589.86 3377.19,1589.69 3376.85,1590.01C3375.53,1591.26 3377.06,1592.06 3377.73,1592.65C3382.21,1596.58 3386.77,1600.43 3391.37,1604.22C3392.56,1605.2 3393.97,1605.97 3395.06,1603.97C3394.72,1603.23 3394.52,1602.39 3394.02,1601.81C3389.76,1596.94 3384.24,1593.7 3378.92,1590.21Z" style="fill:rgb(253,253,253);fill-rule:nonzero;"/>
                    <path d="M3472.69,1589.26C3475.07,1587.38 3476.19,1583.79 3473.21,1580.86C3470.39,1578.08 3468.28,1581.06 3465.9,1581.88C3466.65,1583.25 3467.3,1584.69 3468.18,1585.97C3469.31,1587.63 3469.66,1591.66 3472.69,1589.26Z" style="fill:rgb(253,253,253);fill-rule:nonzero;"/>
                    <path d="M3465.9,1581.88C3465.89,1581.86 3465.88,1581.84 3465.86,1581.82L3465.77,1581.95C3465.81,1581.94 3465.86,1581.9 3465.9,1581.88Z" style="fill:rgb(74,71,70);fill-rule:nonzero;"/>
                    <path d="M3402.95,1603.48C3398.73,1605.68 3403.51,1608.34 3403.27,1611.02C3403.17,1612.19 3403.26,1613.38 3403.31,1614.56C3403.37,1616.09 3403.16,1618.73 3404.57,1618.62C3406.8,1618.44 3406.14,1615.71 3406.38,1614.56C3406.38,1613.18 3406.36,1612.39 3406.38,1611.6C3406.46,1608.21 3403.51,1603.2 3402.95,1603.48Z" style="fill:rgb(253,253,253);fill-rule:nonzero;"/>
                    <path d="M3283.84,1555.54L3284.95,1555.31L3286.08,1555.47C3290.74,1553.12 3295.35,1550.71 3298.71,1546.52C3298.34,1546.11 3297.97,1545.71 3297.61,1545.3C3292.58,1548.12 3287.48,1550.85 3283.84,1555.54Z" style="fill:rgb(118,161,233);fill-rule:nonzero;"/>
                    <path d="M3235.64,1583.95C3231.91,1584.75 3228.35,1585.83 3226.25,1589.41C3226,1589.89 3225.92,1590.39 3226.02,1590.92C3229.84,1589.5 3233.62,1588.03 3236.34,1584.77L3235.64,1583.95Z" style="fill:rgb(79,112,175);fill-rule:nonzero;"/>
                    <path d="M3393.57,1473.92C3393.17,1474.86 3392.47,1475.47 3391.51,1475.8C3392.69,1475.72 3393.32,1475.03 3393.57,1473.92Z" style="fill:rgb(89,133,209);fill-rule:nonzero;"/>
                    <path d="M3396.39,1471.76C3395.11,1471.86 3394.28,1472.55 3393.84,1473.74C3395.2,1473.72 3396.05,1473.01 3396.46,1471.74L3396.45,1471.74C3396.43,1471.74 3396.42,1471.76 3396.39,1471.76Z" style="fill:rgb(89,133,209);fill-rule:nonzero;"/>
                    <path d="M3278.43,1425.44C3277.11,1426.07 3276.71,1427.18 3276.85,1428.56C3278.08,1427.87 3278.72,1426.89 3278.43,1425.44Z" style="fill:rgb(118,161,233);fill-rule:nonzero;"/>
                    <path d="M3358.08,1316.14C3357.09,1316.55 3356.31,1317.12 3356.47,1318.37C3357.54,1318.01 3358.06,1317.26 3358.08,1316.14Z" style="fill:rgb(133,175,236);fill-rule:nonzero;"/>
                    <path d="M3362.71,1306.69C3361.87,1307.05 3361.48,1307.68 3361.55,1308.6" style="fill:none;"/>
                    <path d="M3534.46,1288.51C3533.82,1288.22 3533.18,1287.93 3532.53,1287.64C3532.6,1288.19 3532.6,1288.74 3532.56,1289.3C3533.19,1289.04 3533.83,1288.77 3534.46,1288.51Z" style="fill:rgb(80,78,72);fill-rule:nonzero;"/>
                    <path d="M3397.21,1321.53C3407.3,1327.74 3418.74,1331.65 3427.93,1339.43C3432.88,1339.66 3436.45,1343.56 3441.17,1344.42C3441.15,1338.87 3436.36,1337.49 3432.8,1335.48C3422.87,1329.87 3412.68,1324.73 3402.63,1319.32C3397.1,1316.35 3391.2,1313.67 3389.73,1306.57C3388.74,1306.35 3387.75,1306.13 3386.76,1305.91C3385.56,1314.25 3391.37,1317.93 3397.21,1321.53Z" style="fill:rgb(37,30,28);fill-rule:nonzero;"/>
                    <path d="M3481.13,1464.75C3483.29,1466.58 3484.63,1464.37 3485.82,1462.99C3493.49,1454.06 3497.31,1443.4 3499.68,1432.34C3499.15,1430.38 3500.4,1427.6 3497.76,1427.42C3495.43,1427.26 3495.09,1429.89 3494.68,1431.79C3492.46,1442.34 3488.83,1452.26 3481.98,1460.77C3481,1461.98 3479.56,1463.41 3481.13,1464.75Z" style="fill:rgb(34,29,24);fill-rule:nonzero;"/>
                    <path d="M3516.8,1469.77C3518.5,1471.13 3519.74,1469.31 3520.27,1468.22C3524.41,1459.68 3528.16,1450.98 3529.22,1441.38C3529.51,1439.51 3530.35,1437.09 3527.65,1436.6C3524.87,1436.09 3524.79,1438.96 3524.52,1440.6C3523.05,1449.63 3520.45,1458.27 3516.63,1466.58C3516.22,1467.47 3516.23,1469.31 3516.8,1469.77Z" style="fill:rgb(53,41,31);fill-rule:nonzero;"/>
                    <path d="M3510.85,1468.76C3514.72,1462.53 3515.46,1455.37 3516.59,1448.55C3516.18,1446.19 3517.84,1442.73 3515,1442.26C3512.1,1441.77 3512.02,1445.34 3511.63,1447.53C3510.44,1454.16 3509.27,1460.77 3506.93,1467.13C3506.62,1467.98 3507.47,1469.25 3507.77,1470.33C3508.82,1469.82 3510.33,1469.59 3510.85,1468.76Z" style="fill:rgb(55,42,29);fill-rule:nonzero;"/>
                    <path d="M3497.33,1457.86C3499.32,1459.07 3499.93,1456.91 3500.38,1455.77C3503.28,1448.43 3505.9,1440.99 3506.66,1434.38C3506.76,1431.13 3507.33,1428.31 3505.49,1427.77C3503.49,1427.18 3502.11,1429.55 3501.98,1431.63C3501.5,1439.6 3498.86,1447.04 3496.76,1454.63C3496.49,1455.62 3496.7,1457.47 3497.33,1457.86Z" style="fill:rgb(42,38,29);fill-rule:nonzero;"/>
                    <path d="M3333.05,1470.72C3336.45,1469.82 3340.49,1466.92 3343.16,1468.89C3350.15,1474.05 3356.1,1469.87 3362.36,1468.16C3368.49,1466.48 3374.52,1462.93 3380.61,1462.91C3392.83,1462.88 3403,1458.22 3413.01,1452.3C3418.32,1447.5 3423.78,1442.85 3428.88,1437.84C3431.22,1435.53 3436.15,1432.76 3433.77,1429.82C3432.25,1427.95 3428.5,1432.97 3426.02,1435.13C3416.4,1443.53 3407.22,1452.59 3394.59,1456.38C3390.16,1457.71 3385.42,1457.99 3380.82,1458.75C3383.74,1455.49 3386.76,1452.32 3389.52,1448.94C3391.92,1446 3397.64,1441.88 3395.54,1440.06C3392.45,1437.38 3389.72,1443.26 3386.88,1445.51C3384.39,1447.48 3381.99,1449.63 3379.83,1451.96C3372.79,1459.5 3364.07,1464.03 3354.2,1466.46C3352.57,1466.86 3350.07,1468.03 3349.14,1465.68C3348.47,1464.01 3350.67,1463.12 3351.86,1462.17C3357.16,1457.96 3362.72,1454.04 3367.78,1449.56C3371.01,1446.7 3377.76,1443.85 3374.49,1439.31C3372.82,1436.98 3368.28,1443.79 3365.21,1446.54C3353.44,1457.07 3340.55,1465.46 3324.91,1468.81C3322.53,1469.32 3318.84,1471.08 3317.56,1468.35C3316.83,1466.8 3320.86,1465.66 3322.81,1464.47C3330.75,1459.65 3337.58,1453.62 3343.14,1446.19C3344.22,1444.74 3346.78,1442.72 3345.14,1441.31C3342.54,1439.08 3341.26,1442.53 3339.8,1444.03C3336.75,1447.18 3334.33,1451.11 3330.86,1453.63C3320.14,1461.39 3309.77,1472.38 3295.1,1460.6C3294.15,1459.84 3292.58,1459.95 3292.17,1461.25C3291.88,1462.15 3292.25,1463.62 3292.87,1464.4C3297.28,1469.86 3304.5,1468.99 3310.09,1471.86C3317.99,1476.51 3325.51,1472.71 3333.05,1470.72Z" style="fill:rgb(23,26,28);fill-rule:nonzero;"/>
                    <path d="M3276.66,1550.81C3285.42,1542.76 3294.3,1534.84 3302.86,1526.59C3305.49,1524.06 3311.34,1520.66 3309.01,1518.16C3306.58,1515.57 3302.82,1521.16 3300.12,1523.55C3274.32,1546.42 3250.1,1571.25 3219.27,1587.81C3218.3,1588.33 3215.89,1589.05 3217.52,1591.04C3217.93,1591.54 3219.72,1591.3 3220.66,1590.89C3222.47,1590.11 3224.13,1588.98 3226.25,1589.41C3228.35,1585.83 3231.91,1584.75 3235.64,1583.95C3235.65,1583.94 3235.67,1583.92 3235.68,1583.91C3249.34,1572.88 3263,1561.84 3276.66,1550.81Z" style="fill:rgb(25,25,19);fill-rule:nonzero;"/>
                    <path d="M3297.57,1443.72C3319.24,1433.99 3336.48,1417.77 3355.41,1404.04C3356.43,1403.3 3358.25,1401.9 3356.64,1400.27C3355.18,1398.8 3353.84,1400.24 3352.53,1401.09C3332.22,1414.22 3314.83,1431.75 3292.1,1441.24C3291.22,1441.61 3290.78,1443.04 3290.14,1443.98C3291.09,1444.5 3292.04,1445.02 3293.09,1445.59C3294.66,1444.93 3296.13,1444.36 3297.57,1443.72Z" style="fill:rgb(26,31,35);fill-rule:nonzero;"/>
                    <path d="M3283.84,1555.54C3287.48,1550.85 3292.58,1548.12 3297.61,1545.3C3309.34,1534.65 3321.11,1524.04 3332.76,1513.3C3334.66,1511.56 3338.25,1509.03 3335.96,1506.67C3333.25,1503.89 3331.5,1508.22 3329.77,1509.85C3313.63,1525.13 3297.31,1540.19 3279.28,1553.28C3279.69,1556.27 3282.17,1555.1 3283.84,1555.54Z" style="fill:rgb(26,26,24);fill-rule:nonzero;"/>
                    <path d="M3389.09,1386.31C3389.59,1385.64 3390.26,1385.29 3391.1,1385.27C3391.63,1383.97 3392.63,1383.32 3393.99,1383.15L3394.07,1383.1C3394.39,1381.96 3395.04,1381.23 3396.31,1381.23C3401.21,1376.74 3406.17,1372.3 3410.98,1367.73C3412.35,1366.43 3414.11,1364.33 3412.12,1362.87C3411.17,1362.17 3408.55,1363.74 3406.69,1364.28C3406.56,1364.45 3406.43,1364.61 3406.31,1364.78C3405.73,1365.58 3405.19,1366.41 3404.54,1367.13C3395.53,1377.02 3384.33,1383.83 3372.65,1390.06C3370.21,1391.36 3364.88,1392.07 3366.84,1395.62C3368.48,1398.61 3372.37,1394.88 3375.09,1393.72C3379.09,1392.02 3382.93,1389.93 3386.83,1388L3386.98,1387.93C3387.34,1386.94 3387.92,1386.24 3389.09,1386.31Z" style="fill:rgb(27,33,40);fill-rule:nonzero;"/>
                    <path d="M3392.39,1452.46C3392.41,1453.44 3393.1,1453.72 3393.83,1453.31C3396.32,1453.12 3410.94,1436.87 3410.77,1434.38C3410.72,1433.69 3410.14,1433.05 3409.81,1432.38C3409.15,1432.76 3408.32,1432.98 3407.84,1433.52C3402.95,1439.11 3398.1,1444.73 3393.28,1450.38C3392.81,1450.94 3392.37,1451.77 3392.39,1452.46Z" style="fill:rgb(31,33,30);fill-rule:nonzero;"/>
                    <path d="M3427.93,1339.43C3418.74,1331.65 3407.3,1327.74 3397.21,1321.53C3391.37,1317.93 3385.56,1314.25 3386.76,1305.91C3381.86,1302.04 3377.3,1303.71 3372.81,1306.74C3372.47,1308.56 3371.91,1310.25 3370.15,1311.23C3369.37,1312.32 3368.59,1313.41 3367.82,1314.49C3367.78,1316.1 3367.5,1317.6 3365.96,1318.52C3363.73,1324.03 3360.78,1329.06 3355.85,1332.57C3353.37,1334.33 3355.04,1335.84 3355.69,1337.5C3379.8,1336.87 3403.9,1336.91 3427.93,1339.43Z" style="fill:rgb(250,165,120);fill-rule:nonzero;"/>
                    <path d="M3455.5,1271.68C3451.67,1266.25 3445.98,1265.83 3439.53,1270.43L3439.53,1270.55C3440.22,1270.53 3440.91,1270.55 3441.59,1270.47C3443.88,1270.23 3446.86,1269.7 3447.79,1271.9C3448.65,1273.94 3445.76,1274.79 3444.11,1275.35C3439.13,1277.06 3439.61,1273.49 3439.53,1270.55C3439.45,1270.55 3439.37,1270.55 3439.3,1270.56L3439.53,1270.32C3439.44,1270.3 3439.4,1270.36 3439.31,1270.35C3439.26,1270.39 3439.21,1270.4 3439.17,1270.37C3436.66,1270.31 3436.45,1273.18 3434.71,1274.08C3433.62,1281.97 3437.2,1286.56 3444.78,1288.3C3446.11,1288.2 3447.44,1288.11 3448.76,1288.01C3458.31,1282.07 3459.97,1278.04 3455.5,1271.68Z" style="fill:rgb(21,22,21);fill-rule:nonzero;"/>
                    <path d="M3460.76,1270.82C3457.92,1268.85 3455.28,1266.44 3452.2,1264.98C3443.04,1260.63 3437.54,1263.63 3434.71,1274.08C3436.45,1273.18 3436.66,1270.31 3439.17,1270.37C3439.22,1270.38 3439.25,1270.35 3439.31,1270.35C3439.4,1270.36 3439.44,1270.3 3439.53,1270.32L3439.53,1270.43C3445.98,1265.83 3451.67,1266.25 3455.5,1271.68C3459.97,1278.04 3458.31,1282.07 3448.76,1288.01C3449.08,1288.49 3449.28,1289.02 3449.35,1289.59C3450.11,1289.54 3450.84,1289.66 3451.55,1289.95C3465.01,1285.02 3465.16,1284.7 3460.76,1270.82Z" style="fill:rgb(221,227,235);fill-rule:nonzero;"/>
                    <path d="M3431.53,1284.65C3432.05,1279.64 3430.21,1277.05 3424.93,1278.78C3421.9,1279.78 3418.51,1281.14 3422.72,1284.95C3425.65,1284.85 3428.59,1284.75 3431.53,1284.65Z" style="fill:rgb(58,73,94);fill-rule:nonzero;"/>
                    <path d="M3448.76,1288.01C3447.44,1288.11 3446.11,1288.2 3444.78,1288.3C3445.93,1290.03 3447.71,1289.57 3449.35,1289.59C3449.28,1289.02 3449.08,1288.49 3448.76,1288.01Z" style="fill:rgb(107,152,221);fill-rule:nonzero;"/>
                    <path d="M3386.98,1387.93C3387.45,1387.08 3388.15,1386.54 3389.09,1386.31C3387.92,1386.24 3387.34,1386.94 3386.98,1387.93Z" style="fill:rgb(118,161,233);fill-rule:nonzero;"/>
                    <path d="M3391.1,1385.27C3392.5,1385.16 3393.45,1384.43 3393.99,1383.15C3392.63,1383.32 3391.63,1383.97 3391.1,1385.27Z" style="fill:rgb(118,161,233);fill-rule:nonzero;"/>
                    <path d="M3394.07,1383.1C3394.67,1382.29 3395.41,1381.67 3396.31,1381.23C3395.04,1381.23 3394.39,1381.96 3394.07,1383.1Z" style="fill:rgb(118,161,233);fill-rule:nonzero;"/>
                    <path d="M3367.82,1314.49C3368.59,1313.41 3369.37,1312.32 3370.15,1311.23C3368.64,1311.8 3367.93,1312.93 3367.82,1314.49Z" style="fill:rgb(133,175,236);fill-rule:nonzero;"/>
                    <path d="M3439.53,1270.55L3439.53,1270.32L3439.3,1270.56C3439.37,1270.55 3439.45,1270.55 3439.53,1270.55Z" style="fill:rgb(184,184,184);fill-rule:nonzero;"/>
                    <path d="M3444.11,1275.35C3445.76,1274.79 3448.65,1273.94 3447.79,1271.9C3446.86,1269.7 3443.88,1270.23 3441.59,1270.47C3440.91,1270.55 3440.22,1270.53 3439.53,1270.55C3439.61,1273.49 3439.13,1277.06 3444.11,1275.35Z" style="fill:rgb(184,184,184);fill-rule:nonzero;"/>
                </g>
            </g>
        </g>
    </g>
</svg>
