<?xml version="1.0" encoding="UTF-8" standalone="no"?>
<!DOCTYPE svg PUBLIC "-//W3C//DTD SVG 1.1//EN" "http://www.w3.org/Graphics/SVG/1.1/DTD/svg11.dtd">
<svg width="100%" height="100%" viewBox="0 0 534 534" version="1.1" xmlns="http://www.w3.org/2000/svg" xmlns:xlink="http://www.w3.org/1999/xlink" xml:space="preserve" xmlns:serif="http://www.serif.com/" style="fill-rule:evenodd;clip-rule:evenodd;stroke-linejoin:round;stroke-miterlimit:2;">
    <g transform="matrix(1,0,0,1,-618.158,-1214.06)">
        <g id="bird08" transform="matrix(1,0,0,1,618.158,1214.06)">
            <rect x="0" y="0" width="533.333" height="533.333" style="fill:none;"/>
            <clipPath id="_clip1">
                <rect x="0" y="0" width="533.333" height="533.333"/>
            </clipPath>
            <g clip-path="url(#_clip1)">
                <g transform="matrix(0.958691,0,0,0.958691,-2299.75,-1970.79)">
                    <path d="M2416.83,2271.45C2424.68,2286.56 2434.94,2298.96 2452.5,2303.19C2453.82,2303.51 2455.23,2304.34 2456.07,2302.86C2456.3,2302.47 2455.1,2301.05 2454.33,2300.36C2442.63,2289.81 2429.99,2280.32 2419.06,2268.91C2418.01,2267.81 2416.75,2267.18 2416.16,2269.47C2416.37,2270.11 2416.51,2270.82 2416.83,2271.45ZM2420.79,2302.56C2433.54,2313.3 2446.98,2322.81 2463.92,2325.82C2467.81,2326.52 2471.67,2327.36 2475.54,2328.15C2477.49,2328.54 2478.96,2329.57 2478.66,2331.73C2478.37,2333.85 2476.6,2334.48 2474.69,2334.57C2468.47,2334.89 2462.74,2332.12 2456.64,2331.65C2454.88,2331.52 2452.82,2330.58 2452.2,2333.04C2451.81,2334.54 2453.37,2335.48 2454.5,2336.28C2466.18,2344.55 2479.39,2347.25 2493.36,2346.27C2498.3,2345.92 2503.39,2345.6 2508.17,2343.58C2510.74,2342.49 2514.29,2341.66 2515.21,2345.67C2516.06,2349.37 2512.68,2350.71 2509.98,2351.3C2504.03,2352.59 2498.08,2354.15 2491.87,2353.84C2489.01,2353.7 2486.04,2353.67 2483.28,2354.28C2480.33,2354.93 2478.08,2357.27 2477.69,2360.2C2477.27,2363.28 2480.26,2364 2482.56,2365.05C2496.26,2371.31 2509.18,2369.45 2521.44,2361.26C2525.32,2358.66 2529.05,2355.82 2532.85,2353.09C2534.81,2351.67 2536.89,2351.13 2538.43,2353.42C2539.54,2355.07 2538.89,2356.86 2537.52,2358.29C2533.75,2362.24 2529.23,2365.18 2524.49,2367.8C2521.03,2369.71 2517.48,2371.47 2514,2373.35C2511.83,2374.51 2508.81,2375.42 2509.44,2378.53C2509.99,2381.23 2512.86,2381.95 2515.25,2382.81C2525.52,2386.55 2537.83,2382.7 2546.31,2373.4C2548.69,2370.79 2550.66,2364.38 2554.96,2368.05C2559.36,2371.8 2553.91,2375.51 2551.42,2378.69C2550.32,2380.09 2548.68,2381.04 2547.47,2382.36C2544.64,2385.42 2542.76,2388.73 2544.89,2393.06C2546.67,2396.67 2549.61,2398.68 2553.46,2398.55C2557.54,2398.41 2561.28,2397.03 2562.77,2392.56C2563,2391.87 2563,2391.09 2563.33,2390.48C2565.07,2387.24 2565.29,2381.36 2570.52,2382.96C2574.43,2384.15 2570.62,2388.69 2571.41,2390.78C2570.97,2395.62 2570.65,2399.67 2572.02,2403.43C2573.6,2407.79 2576.92,2409.87 2581.4,2407.72C2585.66,2405.67 2587.22,2402.44 2583.48,2398.36C2575.77,2389.97 2578.13,2380.19 2580.22,2370.81C2581.27,2366.11 2580.52,2363.59 2576.44,2361.2C2568.06,2356.29 2559.94,2350.95 2551.67,2345.85C2549.43,2344.47 2546.76,2342.88 2548.36,2340.09C2549.9,2337.42 2552.81,2338.56 2555.09,2339.86C2562.58,2344.14 2570.33,2348.07 2577.44,2352.92C2583.17,2356.84 2586.2,2357.08 2589.28,2349.87C2592.67,2341.94 2593.3,2342.42 2585.36,2340.4C2548.77,2331.12 2511.58,2324.7 2474.72,2316.71C2457.11,2312.9 2440.5,2305.92 2424.02,2298.72C2421.87,2297.78 2419.21,2294.71 2417.46,2296.81C2416.04,2298.52 2419.03,2301.08 2420.79,2302.56ZM2588.4,2383.5C2592.23,2382.98 2595.92,2380.26 2596.89,2376.47C2597.69,2373.35 2594.17,2371.51 2591.45,2371.23C2586.02,2370.68 2586.82,2375.27 2586.22,2378.42C2586.44,2380.51 2585.82,2383.85 2588.4,2383.5ZM2595.23,2412.8C2598.05,2415.77 2600.4,2417.17 2604.08,2413.43C2607.7,2409.74 2610.44,2413.66 2613.2,2415.75C2616.9,2418.55 2621.99,2423.31 2625.3,2420.01C2628.7,2416.62 2623.1,2412.06 2620.67,2408.48C2616.57,2402.43 2610.78,2397.99 2604.5,2394.47C2597.58,2390.6 2589.38,2396 2589.54,2403.94C2590.07,2407.77 2592.75,2410.19 2595.23,2412.8ZM2649.17,2394.69C2644.23,2399.31 2639.92,2404.78 2632.95,2406.79C2631.44,2407.22 2627.89,2407.21 2630.1,2410.67C2638.97,2424.51 2647,2439.12 2662.46,2447.11C2662.47,2447.1 2662.49,2447.09 2662.5,2447.08C2676.55,2460.37 2694.16,2467.03 2711.84,2473.58C2714.69,2474.64 2715.89,2473.92 2715.55,2470.88C2715.44,2469.81 2715.04,2468.72 2715.14,2467.68C2715.42,2464.8 2712.71,2460.26 2716.61,2459.42C2721.02,2458.47 2722.1,2463.4 2722.71,2466.77C2723.54,2471.34 2723.81,2476.06 2723.76,2480.71C2723.69,2487.19 2726.81,2489.82 2732.97,2489.53C2733.33,2489.52 2733.69,2489.52 2734.05,2489.55C2750.87,2490.58 2750.65,2490.53 2754.21,2474.06C2754.99,2470.44 2752.99,2464.73 2759.4,2463.67C2764.47,2474.31 2759.21,2492.6 2749.13,2496.61C2744.88,2498.29 2744.71,2500.58 2744.86,2503.87C2745.53,2517.89 2746.22,2531.9 2746.95,2545.92C2747.02,2547.34 2747.21,2548.83 2747.72,2550.14C2748.63,2552.45 2749.55,2555.17 2752.85,2554.6C2755.66,2554.11 2757.21,2552.1 2757.23,2549.26C2757.28,2544.22 2757.14,2539.18 2757.09,2534.14C2757.05,2531.26 2756.94,2528.38 2757.07,2525.5C2757.14,2523.75 2757.33,2521.59 2759.65,2521.46C2762.24,2521.32 2763.48,2523.25 2763.68,2525.55C2763.97,2528.78 2763.82,2532.03 2764.02,2535.26C2764.42,2541.71 2764.11,2548.14 2765.47,2554.6C2766.89,2561.31 2770.92,2562.17 2776.56,2561.61C2780.94,2561.17 2781.9,2558.99 2780.95,2555.01C2779.28,2548.03 2777.81,2541 2776.34,2533.97C2775.9,2531.88 2775.52,2529.73 2775.53,2527.6C2775.54,2525.36 2776.41,2523.17 2779.02,2522.94C2781.77,2522.68 2782.85,2524.98 2783.07,2527.08C2783.86,2534.63 2785.65,2541.93 2787.71,2549.2C2788.8,2553.06 2790.24,2556.73 2792.65,2559.91C2794.1,2561.81 2795.7,2564.49 2798.66,2563C2801,2561.83 2800.15,2559.34 2799.86,2557.2C2798.72,2549.02 2797.7,2540.82 2795.44,2532.84C2794.67,2530.14 2793.17,2526.79 2796.65,2525.24C2800.56,2523.5 2801.23,2527.57 2802.58,2529.82C2807.98,2538.73 2812.24,2548.3 2818.56,2556.69C2823.23,2562.9 2829.13,2565.02 2836.54,2563.38C2840.66,2562.46 2843.35,2561.18 2839.65,2556.31C2830.5,2544.29 2821.7,2532.01 2812.76,2519.83C2811.48,2518.09 2810.17,2516.38 2808.93,2514.61C2807.81,2513.01 2807.27,2511.28 2809.22,2509.98C2810.88,2508.87 2812.67,2509.06 2814.08,2510.55C2815.57,2512.11 2816.89,2513.84 2818.37,2515.41C2831.02,2528.89 2845.84,2539.68 2861.24,2549.71C2866.67,2553.25 2872.57,2554.28 2878.8,2552.6C2883.02,2551.45 2883.96,2549.07 2880.73,2545.64C2878.22,2542.98 2875.05,2541.3 2871.95,2539.45C2856.49,2530.27 2840.76,2521.5 2826.51,2510.42C2824.54,2508.89 2822.37,2507.46 2820.84,2505.54C2819.7,2504.1 2820.21,2502.11 2821.69,2500.69C2822.92,2499.49 2824.26,2499.59 2825.56,2500.46C2827.65,2501.86 2829.74,2503.26 2831.72,2504.8C2843.98,2514.3 2857.2,2522.32 2870.42,2530.36C2877.12,2534.43 2884.05,2534.59 2891.19,2532.41C2893.44,2531.72 2896.8,2531.84 2897.42,2528.93C2898.1,2525.74 2894.74,2525.06 2892.76,2523.87C2882.27,2517.58 2871.83,2511.18 2861.1,2505.32C2838.02,2492.73 2816.51,2477.57 2793.8,2464.38C2788.18,2461.12 2784.72,2456.41 2782,2450.81C2776.35,2439.15 2769.96,2427.91 2762.87,2417.04C2749.17,2396.05 2730.95,2380.17 2708.93,2368.44C2707.98,2367.94 2707,2367.47 2706.08,2366.91C2704.02,2365.64 2701.03,2364.76 2702.81,2361.36C2704.4,2358.32 2706.89,2359.14 2709.3,2360.3C2719.05,2365.02 2728.18,2370.74 2736.79,2377.29C2748.64,2386.32 2758.61,2397.08 2766.74,2409.59C2770.27,2415.02 2774.07,2420.38 2779.32,2424.28C2782.69,2426.77 2786.79,2428.84 2787.27,2421.68C2787.58,2417.04 2790.01,2416.32 2793.85,2417.67C2794.86,2418.03 2795.89,2418.48 2796.94,2418.6C2801.48,2419.12 2808.09,2421.56 2809.85,2417.39C2811.78,2412.81 2804.54,2412.05 2801.34,2409.81C2787.2,2399.91 2772.59,2390.64 2762.16,2376.44C2759.67,2373.05 2758.82,2375.48 2758.21,2377.49C2757.43,2380.09 2756.6,2382.64 2753.31,2381.8C2749.89,2380.94 2751.26,2377.78 2751.02,2375.5C2750.33,2368.75 2752,2363.88 2760.19,2364.73C2764.99,2365.23 2765.37,2363.26 2764.32,2359.11C2762.02,2350.02 2762.24,2350 2771.7,2350.9C2773.83,2351.1 2776.01,2351.15 2778.13,2350.9C2782.43,2350.4 2785.12,2348.46 2782.71,2343.76C2779.51,2337.51 2781.99,2335.73 2788.21,2334.86C2795.08,2333.9 2796.54,2331.13 2792.46,2325.52C2788.13,2319.56 2790.33,2316.66 2795.16,2313.37C2799.69,2310.29 2806.9,2307.75 2798.03,2301.17C2795.7,2299.45 2797.56,2297.09 2799.36,2295.86C2804.35,2292.44 2806.58,2289.46 2798.85,2286.79C2796.35,2285.93 2795.34,2283.67 2796.92,2281.71C2799.63,2278.34 2801.82,2276.51 2796.03,2273.28C2791.04,2270.5 2801.1,2267.48 2797.63,2263.61C2795.46,2261.18 2789.49,2261.83 2790.69,2256.95C2791.59,2253.3 2794.62,2250.19 2796.68,2246.82C2797.41,2245.63 2798.54,2244.24 2797.55,2242.97C2796.51,2241.64 2794.94,2242.96 2793.64,2242.94C2783.47,2242.85 2776.02,2247.54 2770.18,2255.52C2768.71,2257.53 2766.66,2259.11 2764.92,2260.94C2763.34,2262.61 2761.43,2264.04 2759.3,2262.55C2757.04,2260.98 2758.01,2258.75 2759.25,2256.84C2760.82,2254.43 2762.63,2252.1 2762.24,2248.97C2762.03,2247.26 2762.44,2244.95 2760.57,2244.26C2758.24,2243.4 2757.68,2245.82 2757,2247.33C2753.76,2254.55 2750.53,2261.77 2747.49,2269.07C2734.39,2300.57 2710.29,2321.35 2681.13,2337.18C2676.47,2339.71 2671.62,2340.3 2666.79,2337.4C2649.98,2334.78 2633.19,2334.04 2616.55,2338.56C2607.21,2341.1 2599.58,2346.15 2594.46,2354.6C2591.42,2359.63 2591.2,2363.77 2597.35,2366.81C2600.19,2368.22 2602.66,2370.46 2605.11,2372.55C2606.74,2373.95 2608.62,2376.28 2606.94,2378.08C2600.52,2384.92 2606.84,2386.87 2611.02,2389.73C2613.68,2391.55 2616.4,2393.3 2619.06,2395.14C2628.27,2401.52 2632.22,2401.22 2640.4,2393.37C2641.7,2392.13 2642.81,2390.7 2644.04,2389.4C2645.93,2387.39 2647.88,2384.01 2650.88,2387.19C2653.33,2389.78 2651.31,2392.7 2649.17,2394.69ZM2691.45,2524.96C2690.97,2525.88 2690.75,2526.95 2690.46,2527.79C2690.74,2528.64 2690.96,2529.29 2691.18,2529.95C2691.99,2529.48 2692.98,2529.17 2693.6,2528.51C2698.44,2523.44 2704.36,2520.34 2711.06,2518.54C2712.74,2518.09 2714.82,2517.65 2713.77,2515.12C2713.04,2513.37 2711.19,2511.72 2709.62,2512.53C2703.08,2515.92 2695.29,2517.62 2691.45,2524.96ZM2713.43,2481.21C2712.07,2480.84 2710.76,2480.23 2709.38,2480.03C2706.01,2479.52 2703.14,2476.47 2699.5,2477.85C2698.67,2478.16 2699.28,2479.65 2699.84,2480.53C2702.76,2485.12 2706.62,2488.52 2711.6,2490.22C2714.46,2489.9 2715.32,2487.77 2716.08,2485.9C2717.05,2483.52 2715.93,2481.88 2713.43,2481.21ZM2722.08,2497.83C2721.93,2496.66 2720.69,2495.86 2719.85,2496.39C2715.83,2498.95 2713.26,2502.89 2710.78,2506.82C2710.15,2507.82 2710.53,2508.81 2712.04,2508.72C2713.88,2508.58 2722.31,2499.56 2722.08,2497.83ZM2822.41,2409.9C2827.22,2409.86 2831.51,2409.72 2833.07,2405.15C2834.76,2400.22 2830.94,2398.08 2827.38,2396.14C2817.53,2390.79 2808.62,2384.07 2800.03,2376.96C2797.2,2374.61 2790.68,2372.24 2794.4,2367.59C2797.61,2363.58 2801.27,2368.81 2804.21,2371.06C2812.19,2377.19 2819.92,2383.64 2828.72,2388.67C2834.9,2392.21 2841.39,2393.6 2848.4,2392.9C2852.02,2392.54 2856.2,2392.35 2856.87,2387.88C2857.63,2382.82 2855.58,2378.99 2850.23,2377.03C2838.75,2372.82 2827.55,2367.91 2816.92,2361.8C2812.87,2359.47 2808.81,2357.13 2805.02,2354.41C2802.83,2352.85 2799.66,2350.66 2802.14,2347.51C2804.2,2344.9 2806.8,2347.35 2808.81,2348.57C2820.51,2355.65 2832.56,2362 2845.17,2367.36C2853.33,2370.83 2861.65,2372.29 2870.41,2371.61C2873.26,2371.38 2876.67,2371.54 2878.14,2368.69C2879.8,2365.46 2876.56,2363.61 2874.84,2361.48C2870.89,2356.56 2866.08,2353.68 2859.48,2352.81C2840.41,2350.29 2822.52,2343.97 2805.84,2334.35C2804.96,2333.84 2804.09,2333.3 2803.22,2332.77C2800.43,2338.62 2791.06,2339.16 2790.7,2346.06C2790.25,2354.51 2786.28,2357.82 2778.76,2357.94C2774.52,2358.01 2772.83,2359.52 2773.32,2363.66C2773.4,2364.35 2773.4,2365.36 2772.99,2365.75C2763.49,2374.56 2772.86,2377.68 2777.9,2382.04C2786.89,2389.81 2796.05,2397.35 2806.15,2403.67C2811.39,2406.95 2816.88,2409.48 2822.41,2409.9ZM2896.37,2341.03C2899.54,2339.17 2904.47,2338.43 2903.78,2333.15C2903.22,2328.79 2895.3,2323.77 2890.45,2324.38C2887.61,2324.74 2884.82,2325.6 2881.97,2325.82C2862.08,2327.39 2842.44,2326.13 2823.3,2320C2820.43,2319.08 2815.6,2319.13 2816.86,2314.68C2818,2310.63 2822.53,2312.48 2825.33,2313.1C2841.87,2316.79 2858.46,2319.81 2875.51,2319.05C2886.36,2318.57 2896.93,2316.58 2907.06,2312.63C2910.39,2311.33 2913.57,2309.59 2916.27,2307.11C2921.76,2302.08 2921.3,2301.67 2915.55,2297.28C2907.26,2290.94 2898.97,2290.7 2889.32,2293.61C2870.67,2299.23 2851.53,2302.43 2831.93,2301.96C2829.42,2301.9 2826.87,2301.94 2824.42,2301.52C2822.97,2301.27 2822.15,2299.85 2822.2,2298.26C2822.24,2296.69 2822.98,2295.43 2824.62,2295.26C2829.27,2294.76 2833.93,2294.09 2838.58,2294.05C2867.45,2293.78 2894.64,2285.92 2921.37,2275.94C2922.04,2275.69 2922.74,2275.46 2923.34,2275.07C2926.25,2273.19 2931.89,2272.33 2931.19,2268.91C2930.41,2265.09 2925.09,2267.83 2921.88,2267.03C2921.53,2266.95 2921.13,2267.06 2920.81,2266.95C2916.89,2265.57 2910.93,2267.28 2909.35,2262.72C2907.55,2257.53 2913.61,2256.03 2916.7,2253.48C2924.18,2247.29 2932.05,2241.56 2939.52,2235.36C2941.49,2233.72 2945.32,2231.92 2943.88,2229.06C2942.94,2227.18 2939.24,2228.85 2936.86,2229.56C2928.27,2232.16 2919.7,2234.85 2911.11,2237.47C2907.48,2238.58 2903.07,2241.91 2900.29,2237.82C2897.07,2233.09 2902.4,2230.15 2905.04,2227.24C2913.73,2217.63 2922.87,2208.42 2930.66,2198.03C2932.6,2195.45 2934.35,2192.71 2936.06,2189.97C2936.97,2188.5 2938.5,2185.67 2938.26,2185.49C2935.98,2183.81 2934.66,2186.39 2933.03,2187.28C2918.86,2195.09 2905.24,2203.89 2890.59,2210.84C2887.57,2212.27 2885.48,2214.71 2883.32,2217.15C2866.36,2236.39 2845.26,2249.88 2822.39,2260.89C2821.74,2261.2 2821.05,2261.44 2820.39,2261.71C2817.72,2262.83 2814.26,2264.54 2812.69,2261.41C2810.83,2257.68 2815.11,2256.8 2817.44,2255.66C2834.33,2247.4 2850.08,2237.48 2864.5,2225.35C2872.34,2218.76 2878.68,2211.35 2883.53,2202.24C2889.61,2190.83 2896.81,2180.02 2903.47,2168.91C2907.37,2162.4 2909.89,2155.27 2912.32,2148.12C2912.78,2146.77 2913.74,2144.89 2912.49,2144.13C2911.24,2143.38 2910.33,2145.36 2909.48,2146.3C2900,2156.65 2890.7,2167.17 2881.07,2177.4C2873.92,2184.99 2866.42,2192.27 2858.96,2199.56C2856.67,2201.8 2853.89,2204.66 2850.5,2202.41C2846.3,2199.61 2850.2,2196.47 2851.43,2194.06C2859.47,2178.27 2865.76,2161.94 2868.94,2144.42C2870.5,2135.82 2870.13,2127.22 2870.04,2118.59C2870.02,2117.63 2869.78,2115.91 2869.37,2115.82C2867.45,2115.4 2867.17,2117.34 2866.69,2118.49C2861.92,2129.74 2857.4,2141.09 2852.56,2152.31C2845.85,2167.86 2838.39,2183.03 2828.57,2196.9C2826.84,2199.34 2825.34,2203.37 2821.23,2201.66C2816.92,2199.87 2819.15,2196.29 2819.88,2193.26C2822.91,2180.66 2825.73,2168.03 2824.91,2154.92C2824.66,2150.97 2824.71,2146.98 2823.27,2143.21C2822.77,2141.88 2822.19,2140.58 2821.65,2139.27C2819.7,2140.17 2820.24,2142.12 2819.89,2143.63C2813.96,2169.2 2808.29,2194.86 2795.51,2218.19C2792.92,2222.92 2790.2,2227.58 2787.65,2232.33C2786.99,2233.55 2786.05,2235.26 2786.46,2236.25C2787,2237.55 2788.83,2237.13 2790.3,2236.87C2807.34,2233.85 2808.25,2234.96 2802.26,2251.77C2801.48,2253.95 2800.41,2255.66 2803.54,2256.75C2810.6,2259.19 2809.56,2263.49 2806.3,2268.51C2805.38,2269.93 2805.1,2271.87 2804.87,2273.62C2804.27,2278.25 2805.02,2279.43 2810.45,2277.7C2838.41,2268.82 2864.32,2255.82 2889.01,2240.2C2889.92,2239.62 2890.87,2239.1 2891.86,2238.67C2893.15,2238.12 2894.56,2237.38 2895.68,2238.94C2896.59,2240.22 2896.61,2241.65 2895.7,2242.93C2893.34,2246.23 2890.02,2248.41 2886.56,2250.35C2863.09,2263.57 2840.05,2277.79 2812.89,2282.54C2810.71,2282.92 2809.45,2283.8 2810.46,2286.01C2812.47,2290.37 2809.82,2294.44 2809.9,2298.38C2810.07,2307.01 2807.64,2313.21 2801.03,2318.9C2797.72,2321.75 2800.34,2327.09 2804.2,2328.04C2820.22,2331.98 2834.31,2341.36 2850.91,2343.74C2858.06,2344.77 2865.14,2345.63 2872.32,2345.8C2880.7,2346.01 2888.95,2345.37 2896.37,2341.03ZM2411.03,2283.08C2411.36,2283.2 2411.61,2283.53 2411.93,2283.66C2413.09,2284.13 2414.27,2285.91 2415.44,2284.03C2415.72,2283.57 2414.79,2282.25 2414.27,2281.41C2409.11,2273.15 2404.35,2264.72 2402.56,2254.97C2402,2251.95 2399.62,2248.4 2403.82,2246.44C2407.1,2244.92 2409.06,2247.99 2411.02,2249.93C2419.23,2258.01 2427.31,2266.23 2435.5,2274.34C2437.14,2275.96 2439.04,2277.33 2440.81,2278.82C2440.35,2276.76 2439.91,2274.69 2439.43,2272.64C2438.53,2268.79 2437.43,2264.99 2436.77,2261.11C2436.24,2258.01 2435.1,2253.96 2438.86,2252.5C2443.07,2250.87 2444.16,2255.3 2445.56,2257.92C2452.71,2271.28 2460.41,2284.24 2470.49,2295.66C2479.58,2305.96 2490.38,2313.15 2504.23,2315.36C2533.74,2320.06 2562.7,2327.34 2591.74,2334.25C2598.53,2335.87 2604.66,2336.02 2611.32,2332.67C2618.36,2329.12 2626.45,2328.2 2634.43,2327.87C2647.07,2327.35 2659.62,2328.48 2672.17,2329.79C2675.71,2330.16 2679.07,2330.81 2682.54,2328.56C2707.36,2312.49 2729.71,2294.21 2740.97,2265.56C2744.78,2255.86 2748.84,2246.25 2754.02,2237.18C2755.69,2234.25 2756.82,2229.93 2761.43,2230.47C2765.28,2230.92 2766.3,2234.65 2767.09,2237.63C2768.99,2244.71 2771.3,2242.13 2774.14,2238.34C2785.88,2222.67 2794.93,2205.6 2800.95,2186.95C2807.14,2167.76 2811.58,2148.13 2815.27,2128.32C2815.8,2125.5 2816.03,2122.03 2819.39,2121.4C2823.48,2120.63 2824.96,2124.37 2826.08,2127.23C2830.73,2139.1 2832.65,2151.49 2832.14,2164.23C2831.98,2166.75 2831.7,2169.27 2831.71,2171.78C2831.72,2172.93 2830.45,2174.59 2832.33,2175.15C2832.83,2175.3 2834.02,2174.03 2834.51,2173.19C2835.78,2171.03 2836.88,2168.77 2837.99,2166.51C2847.54,2147.16 2855.15,2126.99 2863.07,2106.94C2864.76,2102.65 2865.01,2095.02 2871.34,2096.27C2876.62,2097.31 2875.95,2104.45 2876.56,2109.33C2879.32,2131.55 2876.67,2153.11 2868.5,2173.99C2867.93,2175.45 2866.74,2177.46 2868.73,2178.55C2869.28,2178.85 2871.12,2177.29 2872.07,2176.3C2884.31,2163.58 2896.12,2150.48 2907.44,2136.93C2909.51,2134.46 2911.61,2131.89 2914.13,2129.92C2918.78,2126.29 2921.4,2127.37 2921.99,2133.14C2922.47,2137.79 2921.87,2142.39 2920.57,2147C2915.82,2163.86 2906.8,2178.51 2897.53,2193.09C2896.19,2195.21 2893.28,2196.94 2894.72,2200.23C2896.94,2199.25 2899.21,2198.34 2901.37,2197.24C2902.97,2196.42 2904.39,2195.29 2905.96,2194.4C2917.53,2187.86 2929.06,2181.21 2940.77,2174.92C2943.03,2173.7 2946.02,2171.43 2948.73,2174.07C2951.55,2176.83 2950.23,2180.18 2948.74,2183.01C2946.42,2187.46 2943.9,2191.84 2941.05,2195.96C2934.5,2205.47 2926.7,2213.97 2919.11,2222.64C2917.72,2224.23 2916.65,2226.11 2915.44,2227.86C2917.65,2229.37 2919.48,2227.76 2921.46,2227.15C2928.67,2224.94 2935.84,2222.51 2943.16,2220.72C2946.79,2219.83 2951.58,2217.82 2954.14,2221.82C2956.83,2226.03 2953.61,2230 2951.1,2233.54C2946.01,2240.74 2938.93,2245.66 2931.88,2250.7C2928.8,2252.91 2923.45,2254.57 2923.96,2258.38C2924.24,2260.48 2930.44,2258.78 2933.91,2259.36C2937.45,2259.95 2941.47,2260.2 2942.65,2264.39C2943.61,2267.82 2941.46,2270.55 2939.24,2273.01C2934.77,2277.96 2928.89,2280.61 2922.99,2283.35C2920.46,2284.53 2916.17,2284.67 2915.91,2287.5C2915.67,2290.07 2919.91,2290.61 2922.09,2292.16C2930.31,2298.02 2930.78,2303.31 2923.58,2310.71C2919.77,2314.63 2915.29,2317.73 2910.11,2319.42C2905.25,2321 2905.03,2322.37 2908.39,2326.44C2914.9,2334.31 2913.99,2338.01 2905.64,2344.06C2899.42,2348.56 2892.51,2351.56 2884.99,2352.9C2880.08,2353.77 2880.36,2355.19 2882.99,2358.9C2891.15,2370.45 2888.95,2375.75 2875.19,2378.86C2873.1,2379.33 2870.93,2379.63 2868.79,2379.64C2865.7,2379.65 2864.94,2380.59 2864.67,2383.99C2863.66,2397.08 2862.33,2398.32 2849.23,2399.75C2844.54,2400.26 2841.23,2400.69 2840.98,2406.84C2840.78,2411.83 2836.89,2415.39 2831.85,2416.24C2825.4,2417.32 2818.31,2416.29 2815.55,2424.82C2815.1,2426.2 2811.11,2426.8 2808.67,2427.11C2802.1,2427.93 2794.17,2424.6 2790.43,2433.48C2779.34,2433.71 2784.93,2439.46 2786.83,2444.14C2789.65,2451.07 2794.47,2455.84 2800.82,2459.9C2831.72,2479.65 2863.22,2498.41 2895.09,2516.55C2897.9,2518.15 2900.85,2519.6 2903.38,2521.58C2908.94,2525.91 2908.68,2531.76 2902.6,2535.6C2899.62,2537.49 2896.14,2538.76 2892.73,2539.76C2889.67,2540.65 2888.85,2541.52 2889.93,2544.94C2892.87,2554.2 2891.69,2555.62 2883.22,2559.24C2871.23,2564.35 2861.6,2559.53 2852.15,2552.9C2850.54,2551.78 2848.61,2549.12 2846.8,2550.75C2844.58,2552.76 2847.82,2554.3 2848.74,2555.93C2853.18,2563.82 2852.79,2565.24 2844.4,2568.26C2831.95,2572.74 2820.32,2573.43 2811.97,2560.51C2811.19,2559.3 2810.24,2557.95 2808.59,2558.62C2808.2,2558.77 2808.5,2560.42 2808.33,2561.36C2806.69,2570.08 2801.01,2574.06 2793.25,2569.99C2787.29,2566.86 2782.47,2568.25 2776.9,2569.31C2770.78,2570.46 2764.38,2571.11 2761.23,2563.73C2759.74,2560.24 2757.51,2560.8 2754.37,2561.1C2743.72,2562.1 2741.51,2559.82 2740.1,2548.68C2738.56,2536.5 2738.59,2524.25 2737.94,2512.03C2737.69,2507.27 2740.6,2499.98 2735.33,2498.31C2729.87,2496.58 2727.23,2504.19 2723.29,2507.61C2720.01,2510.46 2720.96,2512.32 2724.77,2513.33C2730.61,2514.89 2733.88,2518.8 2735.07,2524.57C2735.54,2526.85 2734.85,2529.02 2732.96,2530.3C2730.7,2531.84 2728.81,2530.44 2727.54,2528.57C2725.65,2525.8 2723.72,2523.03 2719.91,2523.64C2709.99,2525.24 2700.98,2528.48 2696.33,2538.46C2693.4,2544.75 2693.31,2556.28 2681.78,2546.05C2681.65,2545.94 2681.13,2546.4 2680.81,2546.37C2669.74,2545.16 2667.7,2542.82 2668.12,2532.28C2668.36,2526.24 2670.66,2521.15 2674.63,2516.7C2677.33,2513.68 2680.89,2511.96 2684.31,2509.96C2691.17,2505.95 2698.86,2493.25 2696.41,2488.88C2691.27,2479.75 2687.66,2469.96 2675.92,2465.38C2660.72,2459.46 2648.06,2448.9 2638.4,2435.45C2634.5,2430.02 2630.37,2426.8 2623.26,2428.03C2619.34,2428.7 2615.69,2426.6 2612,2424.99C2603.34,2421.19 2592.43,2423.44 2585.35,2414.99C2584.87,2414.42 2582.09,2416 2580.33,2416.24C2575.4,2416.89 2570.15,2416.15 2568,2411.57C2565.01,2405.19 2560.4,2404.98 2554.82,2405.81C2546.45,2407.07 2540.57,2403.77 2538.25,2395.66C2536.86,2390.81 2534.67,2389.38 2529.88,2390.79C2527.53,2391.49 2524.84,2391.54 2522.38,2391.27C2513.17,2390.26 2503.16,2390.41 2500.48,2378.27C2499.8,2375.15 2497.1,2376.33 2495.21,2376.18C2488.3,2375.64 2481.48,2374.44 2475.75,2370.49C2471.46,2367.54 2466.16,2364.07 2469.81,2357.48C2472.33,2352.92 2470.01,2351.69 2466.38,2350.4C2463,2349.21 2459.66,2347.81 2456.49,2346.16C2450.36,2342.99 2443.04,2339.38 2442.61,2332.28C2442.22,2325.95 2438.59,2324.54 2434.82,2322.26C2421.67,2314.28 2410.49,2304.28 2403.03,2290.69C2401.2,2287.35 2396,2283.49 2400.87,2279.46C2405,2276.05 2407.6,2281.81 2411.03,2283.08Z" style="fill:rgb(6,7,6);fill-rule:nonzero;"/>
                    <path d="M2706.29,2383.56C2694.75,2375.01 2683.49,2366.2 2673.88,2355.47C2669.32,2350.37 2664.73,2345.16 2666.79,2337.4C2671.62,2340.3 2676.47,2339.71 2681.13,2337.18C2710.29,2321.35 2734.39,2300.57 2747.49,2269.07C2750.53,2261.77 2753.76,2254.55 2757,2247.33C2757.68,2245.82 2758.24,2243.4 2760.57,2244.26C2762.44,2244.95 2762.03,2247.26 2762.24,2248.97C2762.63,2252.1 2760.82,2254.43 2759.25,2256.84C2758.01,2258.75 2757.04,2260.98 2759.3,2262.55C2761.43,2264.04 2763.34,2262.61 2764.92,2260.94C2766.66,2259.11 2768.71,2257.53 2770.18,2255.52C2776.02,2247.54 2783.47,2242.85 2793.64,2242.94C2794.94,2242.96 2796.51,2241.64 2797.55,2242.97C2798.54,2244.24 2797.41,2245.63 2796.68,2246.82C2794.62,2250.19 2791.59,2253.3 2790.69,2256.95C2789.49,2261.83 2795.46,2261.18 2797.63,2263.61C2801.1,2267.48 2791.04,2270.5 2796.03,2273.28C2801.82,2276.51 2799.63,2278.34 2796.92,2281.71C2795.34,2283.67 2796.35,2285.93 2798.85,2286.79C2806.58,2289.46 2804.35,2292.44 2799.36,2295.86C2797.56,2297.09 2795.7,2299.45 2798.03,2301.17C2806.9,2307.75 2799.69,2310.29 2795.16,2313.37C2790.33,2316.66 2788.13,2319.56 2792.46,2325.52C2796.54,2331.13 2795.08,2333.9 2788.21,2334.86C2781.99,2335.73 2779.51,2337.51 2782.71,2343.76C2785.12,2348.46 2782.43,2350.4 2778.13,2350.9C2776.01,2351.15 2773.83,2351.1 2771.7,2350.9C2762.24,2350 2762.02,2350.02 2764.32,2359.11C2765.37,2363.26 2764.99,2365.23 2760.19,2364.73C2752,2363.88 2750.33,2368.75 2751.02,2375.5C2751.26,2377.78 2749.89,2380.94 2753.31,2381.8C2756.6,2382.64 2757.43,2380.09 2758.21,2377.49C2758.82,2375.48 2759.67,2373.05 2762.16,2376.44C2772.59,2390.64 2787.2,2399.91 2801.34,2409.81C2804.54,2412.05 2811.78,2412.81 2809.85,2417.39C2808.09,2421.56 2801.48,2419.12 2796.94,2418.6C2795.89,2418.48 2794.86,2418.03 2793.85,2417.67C2790.01,2416.32 2787.58,2417.04 2787.27,2421.68C2786.79,2428.84 2782.69,2426.77 2779.32,2424.28C2774.07,2420.38 2770.27,2415.02 2766.74,2409.59C2758.61,2397.08 2748.64,2386.32 2736.79,2377.29C2728.18,2370.74 2719.05,2365.02 2709.3,2360.3C2706.89,2359.14 2704.4,2358.32 2702.81,2361.36C2701.03,2364.76 2704.02,2365.64 2706.08,2366.91C2707,2367.47 2707.98,2367.94 2708.93,2368.44C2730.95,2380.17 2749.17,2396.05 2762.87,2417.04C2769.96,2427.91 2776.35,2439.15 2782,2450.81C2784.72,2456.41 2788.18,2461.12 2793.8,2464.38C2816.51,2477.57 2838.02,2492.73 2861.1,2505.32C2871.83,2511.18 2882.27,2517.58 2892.76,2523.87C2894.74,2525.06 2898.1,2525.74 2897.42,2528.93C2896.8,2531.84 2893.44,2531.72 2891.19,2532.41C2884.05,2534.59 2877.12,2534.43 2870.42,2530.36C2857.2,2522.32 2843.98,2514.3 2831.72,2504.8C2829.74,2503.26 2827.65,2501.86 2825.56,2500.46C2824.26,2499.59 2822.92,2499.49 2821.69,2500.69C2820.21,2502.11 2819.7,2504.1 2820.84,2505.54C2822.37,2507.46 2824.54,2508.89 2826.51,2510.42C2840.76,2521.5 2856.49,2530.27 2871.95,2539.45C2875.05,2541.3 2878.22,2542.98 2880.73,2545.64C2883.96,2549.07 2883.02,2551.45 2878.8,2552.6C2872.57,2554.28 2866.67,2553.25 2861.24,2549.71C2845.84,2539.68 2831.02,2528.89 2818.37,2515.41C2816.89,2513.84 2815.57,2512.11 2814.08,2510.55C2812.67,2509.06 2810.88,2508.87 2809.22,2509.98C2807.27,2511.28 2807.81,2513.01 2808.93,2514.61C2810.17,2516.38 2811.48,2518.09 2812.76,2519.83C2821.7,2532.01 2830.5,2544.29 2839.65,2556.31C2843.35,2561.18 2840.66,2562.46 2836.54,2563.38C2829.13,2565.02 2823.23,2562.9 2818.56,2556.69C2812.24,2548.3 2807.98,2538.73 2802.58,2529.82C2801.23,2527.57 2800.56,2523.5 2796.65,2525.24C2793.17,2526.79 2794.67,2530.14 2795.44,2532.84C2797.7,2540.82 2798.72,2549.02 2799.86,2557.2C2800.15,2559.34 2801,2561.83 2798.66,2563C2795.7,2564.49 2794.1,2561.81 2792.65,2559.91C2790.24,2556.73 2788.8,2553.06 2787.71,2549.2C2785.65,2541.93 2783.86,2534.63 2783.07,2527.08C2782.85,2524.98 2781.77,2522.68 2779.02,2522.94C2776.41,2523.17 2775.54,2525.36 2775.53,2527.6C2775.52,2529.73 2775.9,2531.88 2776.34,2533.97C2777.81,2541 2779.28,2548.03 2780.95,2555.01C2781.9,2558.99 2780.94,2561.17 2776.56,2561.61C2770.92,2562.17 2766.89,2561.31 2765.47,2554.6C2764.11,2548.14 2764.42,2541.71 2764.02,2535.26C2763.82,2532.03 2763.97,2528.78 2763.68,2525.55C2763.48,2523.25 2762.24,2521.32 2759.65,2521.46C2757.33,2521.59 2757.14,2523.75 2757.07,2525.5C2756.94,2528.38 2757.05,2531.26 2757.09,2534.14C2757.14,2539.18 2757.28,2544.22 2757.23,2549.26C2757.21,2552.1 2755.66,2554.11 2752.85,2554.6C2749.55,2555.17 2748.63,2552.45 2747.72,2550.14C2747.21,2548.83 2747.02,2547.34 2746.95,2545.92C2746.22,2531.9 2745.53,2517.89 2744.86,2503.87C2744.71,2500.58 2744.88,2498.29 2749.13,2496.61C2759.21,2492.6 2764.47,2474.31 2759.4,2463.67C2759.4,2450.96 2753.37,2440.28 2747.49,2429.68C2737.26,2411.24 2723.16,2396.07 2706.29,2383.56Z" style="fill:rgb(185,123,53);fill-rule:nonzero;"/>
                    <path d="M2850.91,2343.74C2834.31,2341.36 2820.22,2331.98 2804.2,2328.04C2800.34,2327.09 2797.72,2321.75 2801.03,2318.9C2807.64,2313.21 2810.07,2307.01 2809.9,2298.38C2809.82,2294.44 2812.47,2290.37 2810.46,2286.01C2809.45,2283.8 2810.71,2282.92 2812.89,2282.54C2840.05,2277.79 2863.09,2263.57 2886.56,2250.35C2890.02,2248.41 2893.34,2246.23 2895.7,2242.93C2896.61,2241.65 2896.59,2240.22 2895.68,2238.94C2894.56,2237.38 2893.15,2238.12 2891.86,2238.67C2890.87,2239.1 2889.92,2239.62 2889.01,2240.2C2864.32,2255.82 2838.41,2268.82 2810.45,2277.7C2805.02,2279.43 2804.27,2278.25 2804.87,2273.62C2805.1,2271.87 2805.38,2269.93 2806.3,2268.51C2809.56,2263.49 2810.6,2259.19 2803.54,2256.75C2800.41,2255.66 2801.48,2253.95 2802.26,2251.77C2808.25,2234.96 2807.34,2233.85 2790.3,2236.87C2788.83,2237.13 2787,2237.55 2786.46,2236.25C2786.05,2235.26 2786.99,2233.55 2787.65,2232.33C2790.2,2227.58 2792.92,2222.92 2795.51,2218.19C2808.29,2194.86 2813.96,2169.2 2819.89,2143.63C2820.24,2142.12 2819.7,2140.17 2821.65,2139.27C2822.19,2140.58 2822.77,2141.88 2823.27,2143.21C2824.71,2146.98 2824.66,2150.97 2824.91,2154.92C2825.73,2168.03 2822.91,2180.66 2819.88,2193.26C2819.15,2196.29 2816.92,2199.87 2821.23,2201.66C2825.34,2203.37 2826.84,2199.34 2828.57,2196.9C2838.39,2183.03 2845.85,2167.86 2852.56,2152.31C2857.4,2141.09 2861.92,2129.74 2866.69,2118.49C2867.17,2117.34 2867.45,2115.4 2869.37,2115.82C2869.78,2115.91 2870.02,2117.63 2870.04,2118.59C2870.13,2127.22 2870.5,2135.82 2868.94,2144.42C2865.76,2161.94 2859.47,2178.27 2851.43,2194.06C2850.2,2196.47 2846.3,2199.61 2850.5,2202.41C2853.89,2204.66 2856.67,2201.8 2858.96,2199.56C2866.42,2192.27 2873.92,2184.99 2881.07,2177.4C2890.7,2167.17 2900,2156.65 2909.48,2146.3C2910.33,2145.36 2911.24,2143.38 2912.49,2144.13C2913.74,2144.89 2912.78,2146.77 2912.32,2148.12C2909.89,2155.27 2907.37,2162.4 2903.47,2168.91C2896.81,2180.02 2889.61,2190.83 2883.53,2202.24C2878.68,2211.35 2872.34,2218.76 2864.5,2225.35C2850.08,2237.48 2834.33,2247.4 2817.44,2255.66C2815.11,2256.8 2810.83,2257.68 2812.69,2261.41C2814.26,2264.54 2817.72,2262.83 2820.39,2261.71C2821.05,2261.44 2821.74,2261.2 2822.39,2260.89C2845.26,2249.88 2866.36,2236.39 2883.32,2217.15C2885.48,2214.71 2887.57,2212.27 2890.59,2210.84C2905.24,2203.89 2918.86,2195.09 2933.03,2187.28C2934.66,2186.39 2935.98,2183.81 2938.26,2185.49C2938.5,2185.67 2936.97,2188.5 2936.06,2189.97C2934.35,2192.71 2932.6,2195.45 2930.66,2198.03C2922.87,2208.42 2913.73,2217.63 2905.04,2227.24C2902.4,2230.15 2897.07,2233.09 2900.29,2237.82C2903.07,2241.91 2907.48,2238.58 2911.11,2237.47C2919.7,2234.85 2928.27,2232.16 2936.86,2229.56C2939.24,2228.85 2942.94,2227.18 2943.88,2229.06C2945.32,2231.92 2941.49,2233.72 2939.52,2235.36C2932.05,2241.56 2924.18,2247.29 2916.7,2253.48C2913.61,2256.03 2907.55,2257.53 2909.35,2262.72C2910.93,2267.28 2916.89,2265.57 2920.81,2266.95C2921.13,2267.06 2921.53,2266.95 2921.88,2267.03C2925.09,2267.83 2930.41,2265.09 2931.19,2268.91C2931.89,2272.33 2926.25,2273.19 2923.34,2275.07C2922.74,2275.46 2922.04,2275.69 2921.37,2275.94C2894.64,2285.92 2867.45,2293.78 2838.58,2294.05C2833.93,2294.09 2829.27,2294.76 2824.62,2295.26C2822.98,2295.43 2822.24,2296.69 2822.2,2298.26C2822.15,2299.85 2822.97,2301.27 2824.42,2301.52C2826.87,2301.94 2829.42,2301.9 2831.93,2301.96C2851.53,2302.43 2870.67,2299.23 2889.32,2293.61C2898.97,2290.7 2907.26,2290.94 2915.55,2297.28C2921.3,2301.67 2921.76,2302.08 2916.27,2307.11C2913.57,2309.59 2910.39,2311.33 2907.06,2312.63C2896.93,2316.58 2886.36,2318.57 2875.51,2319.05C2858.46,2319.81 2841.87,2316.79 2825.33,2313.1C2822.53,2312.48 2818,2310.63 2816.86,2314.68C2815.6,2319.13 2820.43,2319.08 2823.3,2320C2842.44,2326.13 2862.08,2327.39 2881.97,2325.82C2884.82,2325.6 2887.61,2324.74 2890.45,2324.38C2895.3,2323.77 2903.22,2328.79 2903.78,2333.15C2904.47,2338.43 2899.54,2339.17 2896.37,2341.03C2888.95,2345.37 2880.7,2346.01 2872.32,2345.8C2865.14,2345.63 2858.06,2344.77 2850.91,2343.74Z" style="fill:rgb(184,124,56);fill-rule:nonzero;"/>
                    <path d="M2676.13,2433.75C2679.23,2433.58 2681.66,2431.93 2681.65,2428.72C2681.64,2426.36 2679.26,2425.64 2677.45,2425.31C2674.07,2425.8 2671.45,2427.1 2671.57,2430.41C2671.64,2432.64 2673.83,2433.88 2676.13,2433.75ZM2688.31,2417.9C2691.81,2417.66 2694.58,2415.64 2694.38,2411.89C2694.27,2409.68 2691.78,2408.21 2689.58,2408.69C2686.85,2409.28 2684,2410.41 2683.94,2414.1C2684.31,2416.63 2686.09,2418.05 2688.31,2417.9ZM2689.49,2453.72C2693.95,2453.17 2697.67,2450.97 2698.7,2446.3C2699.42,2443.01 2696.5,2442.12 2693.8,2442.33C2689.24,2442.69 2685.14,2444.25 2684.39,2449.41C2683.92,2452.6 2686.48,2453.57 2689.49,2453.72ZM2706.2,2425.17C2706.15,2422.75 2704.68,2421.37 2702,2421.21C2699.22,2422 2697,2423.62 2697.11,2426.92C2697.2,2429.32 2699.1,2430.89 2701.3,2430.81C2704.57,2430.68 2706.28,2428.41 2706.2,2425.17ZM2708.81,2449.35C2711.07,2449.79 2713.13,2449.13 2713.79,2446.71C2714.5,2444.15 2712.93,2442.72 2710.56,2442.42C2708.19,2442.11 2706.5,2443.19 2706.01,2445.39C2705.7,2447.82 2706.93,2448.98 2708.81,2449.35ZM2707.68,2403.46C2704.69,2403.87 2702.44,2405.27 2702.03,2408.53C2703.07,2411.11 2704.69,2412.9 2707.6,2412.24C2710.66,2411.54 2712.51,2409.45 2712.32,2406.24C2712.14,2403.4 2709.86,2403.16 2707.68,2403.46ZM2695.68,2391.9C2693.55,2392.17 2691.21,2392.97 2691.11,2395.6C2691,2398.37 2693.39,2398.76 2694.88,2399.35C2697.84,2398.66 2699.52,2397.32 2699.4,2394.83C2699.3,2392.78 2697.64,2391.64 2695.68,2391.9ZM2720.93,2457.86C2724.43,2457.98 2727.33,2456.42 2727.8,2452.78C2728.23,2449.5 2725.27,2449.18 2724.14,2448.92C2719.57,2448.49 2717.21,2449.76 2716.71,2453.09C2716.26,2456.04 2718.05,2457.77 2720.93,2457.86ZM2724.56,2416.79C2720.94,2416.21 2718.11,2417.67 2717.21,2421.21C2716.58,2423.69 2718.67,2424.98 2720.92,2425.34C2724.49,2425.91 2727.2,2424.79 2728.31,2420.55C2728.49,2418.27 2726.81,2417.16 2724.56,2416.79ZM2620.96,2351.79C2612.8,2351.92 2608.06,2355.18 2608.68,2360.59C2609.2,2365.13 2612.03,2367.55 2616.7,2367.44C2622.2,2367.31 2628.57,2361.61 2628.53,2356.84C2628.48,2351.52 2624.65,2351.72 2620.96,2351.79ZM2644.04,2389.4C2642.81,2390.7 2641.7,2392.13 2640.4,2393.37C2632.22,2401.22 2628.27,2401.52 2619.06,2395.14C2616.4,2393.3 2613.68,2391.55 2611.02,2389.73C2606.84,2386.87 2600.52,2384.92 2606.94,2378.08C2608.62,2376.28 2606.74,2373.95 2605.11,2372.55C2602.66,2370.46 2600.19,2368.22 2597.35,2366.81C2591.2,2363.77 2591.42,2359.63 2594.46,2354.6C2599.58,2346.15 2607.21,2341.1 2616.55,2338.56C2633.19,2334.04 2649.98,2334.78 2666.79,2337.4C2661.74,2344.79 2666.1,2350.55 2670.61,2355.66C2678.23,2364.3 2686.4,2372.44 2695.9,2379.11C2725.31,2399.73 2748.04,2425.41 2757.63,2460.99C2757.91,2462.02 2758.66,2462.88 2759.4,2463.67C2752.99,2464.73 2754.99,2470.44 2754.21,2474.06C2750.65,2490.53 2750.87,2490.58 2734.05,2489.55C2733.69,2489.52 2733.33,2489.52 2732.97,2489.53C2726.81,2489.82 2723.69,2487.19 2723.76,2480.71C2723.81,2476.06 2723.54,2471.34 2722.71,2466.77C2722.1,2463.4 2721.02,2458.47 2716.61,2459.42C2712.71,2460.26 2715.42,2464.8 2715.14,2467.68C2715.04,2468.72 2715.44,2469.81 2715.55,2470.88C2715.89,2473.92 2714.69,2474.64 2711.84,2473.58C2694.16,2467.03 2676.55,2460.37 2662.5,2447.08C2662.53,2447.04 2662.57,2447.02 2662.6,2446.99C2665.57,2447.37 2668.42,2449 2671.6,2447.17C2674.3,2445.61 2676.72,2443.99 2675.28,2440.61C2673.84,2437.21 2670.68,2437.66 2667.92,2438.69C2664.25,2440.06 2662.77,2443.09 2662.5,2446.81C2662.45,2446.86 2662.38,2446.88 2662.32,2446.94L2662.46,2447.11C2647,2439.12 2638.97,2424.51 2630.1,2410.67C2627.89,2407.21 2631.44,2407.22 2632.95,2406.79C2639.92,2404.78 2644.23,2399.31 2649.17,2394.69C2651.31,2392.7 2653.33,2389.78 2650.88,2387.19C2647.88,2384.01 2645.93,2387.39 2644.04,2389.4Z" style="fill:rgb(253,253,253);fill-rule:nonzero;"/>
                    <path d="M2662.48,2446.97C2662.52,2446.97 2662.56,2446.98 2662.6,2446.99C2662.57,2447.02 2662.53,2447.04 2662.5,2447.08C2662.49,2447.07 2662.48,2447.06 2662.47,2447.05C2662.47,2447.02 2662.48,2447 2662.48,2446.97Z" style="fill:rgb(253,253,253);fill-rule:nonzero;"/>
                    <path d="M2662.32,2446.94C2662.38,2446.88 2662.45,2446.86 2662.5,2446.81C2662.5,2446.86 2662.48,2446.91 2662.48,2446.97C2662.43,2446.96 2662.38,2446.94 2662.32,2446.94Z" style="fill:rgb(253,253,253);fill-rule:nonzero;"/>
                    <path d="M2662.5,2447.08C2662.49,2447.09 2662.47,2447.1 2662.46,2447.11C2662.46,2447.09 2662.47,2447.07 2662.47,2447.05C2662.48,2447.06 2662.49,2447.07 2662.5,2447.08Z" style="fill:rgb(253,253,253);fill-rule:nonzero;"/>
                    <path d="M2695.9,2379.11C2686.4,2372.44 2678.23,2364.3 2670.61,2355.66C2666.1,2350.55 2661.74,2344.79 2666.79,2337.4C2664.73,2345.16 2669.32,2350.37 2673.88,2355.47C2683.49,2366.2 2694.75,2375.01 2706.29,2383.56C2723.16,2396.07 2737.26,2411.24 2747.49,2429.68C2753.37,2440.28 2759.4,2450.96 2759.4,2463.67C2758.66,2462.88 2757.91,2462.02 2757.63,2460.99C2748.04,2425.41 2725.31,2399.73 2695.9,2379.11Z" style="fill:rgb(253,253,253);fill-rule:nonzero;"/>
                    <path d="M2424.02,2298.72C2440.5,2305.92 2457.11,2312.9 2474.72,2316.71C2511.58,2324.7 2548.77,2331.12 2585.36,2340.4C2593.3,2342.42 2592.67,2341.94 2589.28,2349.87C2586.2,2357.08 2583.17,2356.84 2577.44,2352.92C2570.33,2348.07 2562.58,2344.14 2555.09,2339.86C2552.81,2338.56 2549.9,2337.42 2548.36,2340.09C2546.76,2342.88 2549.43,2344.47 2551.67,2345.85C2559.94,2350.95 2568.06,2356.29 2576.44,2361.2C2580.52,2363.59 2581.27,2366.11 2580.22,2370.81C2578.13,2380.19 2575.77,2389.97 2583.48,2398.36C2587.22,2402.44 2585.66,2405.67 2581.4,2407.72C2576.92,2409.87 2573.6,2407.79 2572.02,2403.43C2570.65,2399.67 2570.97,2395.62 2571.41,2390.78C2570.62,2388.69 2574.43,2384.15 2570.52,2382.96C2565.29,2381.36 2565.07,2387.24 2563.33,2390.48C2563,2391.09 2563,2391.87 2562.77,2392.56C2561.28,2397.03 2557.54,2398.41 2553.46,2398.55C2549.61,2398.68 2546.67,2396.67 2544.89,2393.06C2542.76,2388.73 2544.64,2385.42 2547.47,2382.36C2548.68,2381.04 2550.32,2380.09 2551.42,2378.69C2553.91,2375.51 2559.36,2371.8 2554.96,2368.05C2550.66,2364.38 2548.69,2370.79 2546.31,2373.4C2537.83,2382.7 2525.52,2386.55 2515.25,2382.81C2512.86,2381.95 2509.99,2381.23 2509.44,2378.53C2508.81,2375.42 2511.83,2374.51 2514,2373.35C2517.48,2371.47 2521.03,2369.71 2524.49,2367.8C2529.23,2365.18 2533.75,2362.24 2537.52,2358.29C2538.89,2356.86 2539.54,2355.07 2538.43,2353.42C2536.89,2351.13 2534.81,2351.67 2532.85,2353.09C2529.05,2355.82 2525.32,2358.66 2521.44,2361.26C2509.18,2369.45 2496.26,2371.31 2482.56,2365.05C2480.26,2364 2477.27,2363.28 2477.69,2360.2C2478.08,2357.27 2480.33,2354.93 2483.28,2354.28C2486.04,2353.67 2489.01,2353.7 2491.87,2353.84C2498.08,2354.15 2504.03,2352.59 2509.98,2351.3C2512.68,2350.71 2516.06,2349.37 2515.21,2345.67C2514.29,2341.66 2510.74,2342.49 2508.17,2343.58C2503.39,2345.6 2498.3,2345.92 2493.36,2346.27C2479.39,2347.25 2466.18,2344.55 2454.5,2336.28C2453.37,2335.48 2451.81,2334.54 2452.2,2333.04C2452.82,2330.58 2454.88,2331.52 2456.64,2331.65C2462.74,2332.12 2468.47,2334.89 2474.69,2334.57C2476.6,2334.48 2478.37,2333.85 2478.66,2331.73C2478.96,2329.57 2477.49,2328.54 2475.54,2328.15C2471.67,2327.36 2467.81,2326.52 2463.92,2325.82C2446.98,2322.81 2433.54,2313.3 2420.79,2302.56C2419.03,2301.08 2416.04,2298.52 2417.46,2296.81C2419.21,2294.71 2421.87,2297.78 2424.02,2298.72Z" style="fill:rgb(182,121,55);fill-rule:nonzero;"/>
                    <path d="M2777.9,2382.04C2772.86,2377.68 2763.49,2374.56 2772.99,2365.75C2773.4,2365.36 2773.4,2364.35 2773.32,2363.66C2772.83,2359.52 2774.52,2358.01 2778.76,2357.94C2786.28,2357.82 2790.25,2354.51 2790.7,2346.06C2791.06,2339.16 2800.43,2338.62 2803.22,2332.77C2804.09,2333.3 2804.96,2333.84 2805.84,2334.35C2822.52,2343.97 2840.41,2350.29 2859.48,2352.81C2866.08,2353.68 2870.89,2356.56 2874.84,2361.48C2876.56,2363.61 2879.8,2365.46 2878.14,2368.69C2876.67,2371.54 2873.26,2371.38 2870.41,2371.61C2861.65,2372.29 2853.33,2370.83 2845.17,2367.36C2832.56,2362 2820.51,2355.65 2808.81,2348.57C2806.8,2347.35 2804.2,2344.9 2802.14,2347.51C2799.66,2350.66 2802.83,2352.85 2805.02,2354.41C2808.81,2357.13 2812.87,2359.47 2816.92,2361.8C2827.55,2367.91 2838.75,2372.82 2850.23,2377.03C2855.58,2378.99 2857.63,2382.82 2856.87,2387.88C2856.2,2392.35 2852.02,2392.54 2848.4,2392.9C2841.39,2393.6 2834.9,2392.21 2828.72,2388.67C2819.92,2383.64 2812.19,2377.19 2804.21,2371.06C2801.27,2368.81 2797.61,2363.58 2794.4,2367.59C2790.68,2372.24 2797.2,2374.61 2800.03,2376.96C2808.62,2384.07 2817.53,2390.79 2827.38,2396.14C2830.94,2398.08 2834.76,2400.22 2833.07,2405.15C2831.51,2409.72 2827.22,2409.86 2822.41,2409.9C2816.88,2409.48 2811.39,2406.95 2806.15,2403.67C2796.05,2397.35 2786.89,2389.81 2777.9,2382.04Z" style="fill:rgb(184,124,56);fill-rule:nonzero;"/>
                    <path d="M2604.5,2394.47C2610.78,2397.99 2616.57,2402.43 2620.67,2408.48C2623.1,2412.06 2628.7,2416.62 2625.3,2420.01C2621.99,2423.31 2616.9,2418.55 2613.2,2415.75C2610.44,2413.66 2607.7,2409.74 2604.08,2413.43C2600.4,2417.17 2598.05,2415.77 2595.23,2412.8C2592.75,2410.19 2590.07,2407.77 2589.54,2403.94C2589.38,2396 2597.58,2390.6 2604.5,2394.47Z" style="fill:rgb(183,124,59);fill-rule:nonzero;"/>
                    <path d="M2419.06,2268.91C2429.99,2280.32 2442.63,2289.81 2454.33,2300.36C2455.1,2301.05 2456.3,2302.47 2456.07,2302.86C2455.23,2304.34 2453.82,2303.51 2452.5,2303.19C2434.94,2298.96 2424.68,2286.56 2416.83,2271.45C2416.51,2270.82 2416.37,2270.11 2416.16,2269.47C2416.75,2267.18 2418.01,2267.81 2419.06,2268.91Z" style="fill:rgb(158,104,52);fill-rule:nonzero;"/>
                    <path d="M2713.77,2515.12C2714.82,2517.65 2712.74,2518.09 2711.06,2518.54C2704.36,2520.34 2698.44,2523.44 2693.6,2528.51C2692.98,2529.17 2691.99,2529.48 2691.18,2529.95C2690.96,2529.29 2690.74,2528.64 2690.46,2527.79C2690.75,2526.95 2690.97,2525.88 2691.45,2524.96C2695.29,2517.62 2703.08,2515.92 2709.62,2512.53C2711.19,2511.72 2713.04,2513.37 2713.77,2515.12Z" style="fill:rgb(194,122,37);fill-rule:nonzero;"/>
                    <path d="M2711.6,2490.22C2706.62,2488.52 2702.76,2485.12 2699.84,2480.53C2699.28,2479.65 2698.67,2478.16 2699.5,2477.85C2703.14,2476.47 2706.01,2479.52 2709.38,2480.03C2710.76,2480.23 2712.07,2480.84 2713.43,2481.21C2715.93,2481.88 2717.05,2483.52 2716.08,2485.9C2715.32,2487.77 2714.46,2489.9 2711.6,2490.22Z" style="fill:rgb(226,222,222);fill-rule:nonzero;"/>
                    <path d="M2591.45,2371.23C2594.17,2371.51 2597.69,2373.35 2596.89,2376.47C2595.92,2380.26 2592.23,2382.98 2588.4,2383.5C2585.82,2383.85 2586.44,2380.51 2586.22,2378.42C2586.82,2375.27 2586.02,2370.68 2591.45,2371.23Z" style="fill:rgb(213,162,56);fill-rule:nonzero;"/>
                    <path d="M2710.78,2506.82C2713.26,2502.89 2715.83,2498.95 2719.85,2496.39C2720.69,2495.86 2721.93,2496.66 2722.08,2497.83C2722.31,2499.56 2713.88,2508.58 2712.04,2508.72C2710.53,2508.81 2710.15,2507.82 2710.78,2506.82Z" style="fill:rgb(197,131,41);fill-rule:nonzero;"/>
                    <path d="M2616.7,2367.44C2612.03,2367.55 2609.2,2365.13 2608.68,2360.59C2608.06,2355.18 2612.8,2351.92 2620.96,2351.79C2624.65,2351.72 2628.48,2351.52 2628.53,2356.84C2628.57,2361.61 2622.2,2367.31 2616.7,2367.44Z" style="fill:rgb(23,23,22);fill-rule:nonzero;"/>
                    <path d="M2693.8,2442.33C2696.5,2442.12 2699.42,2443.01 2698.7,2446.3C2697.67,2450.97 2693.95,2453.17 2689.49,2453.72C2686.48,2453.57 2683.92,2452.6 2684.39,2449.41C2685.14,2444.25 2689.24,2442.69 2693.8,2442.33Z" style="fill:rgb(180,131,72);fill-rule:nonzero;"/>
                    <path d="M2669.78,2442.86C2670.41,2444.44 2667.5,2444.72 2665.92,2445.12C2665.17,2445.3 2664.48,2445.55 2663.83,2445.88C2664.37,2445.35 2664.83,2444.74 2665.5,2444.39C2666.95,2443.63 2669.26,2441.54 2669.78,2442.86Z" style="fill:rgb(191,145,91);fill-rule:nonzero;"/>
                    <path d="M2665.92,2445.12C2667.5,2444.72 2670.41,2444.44 2669.78,2442.86C2669.26,2441.54 2666.95,2443.63 2665.5,2444.39C2664.83,2444.74 2664.37,2445.35 2663.83,2445.88C2663.36,2446.12 2662.91,2446.43 2662.5,2446.81C2662.77,2443.09 2664.25,2440.06 2667.92,2438.69C2670.68,2437.66 2673.84,2437.21 2675.28,2440.61C2676.72,2443.99 2674.3,2445.61 2671.6,2447.17C2668.42,2449 2665.57,2447.37 2662.6,2446.99C2662.96,2446.57 2663.43,2446.27 2663.83,2445.88C2664.48,2445.55 2665.17,2445.3 2665.92,2445.12Z" style="fill:rgb(191,145,91);fill-rule:nonzero;"/>
                    <path d="M2662.5,2446.81C2662.91,2446.43 2663.36,2446.12 2663.83,2445.88C2663.43,2446.27 2662.96,2446.57 2662.6,2446.99C2662.56,2446.98 2662.52,2446.97 2662.48,2446.97C2662.48,2446.91 2662.5,2446.86 2662.5,2446.81Z" style="fill:rgb(191,145,91);fill-rule:nonzero;"/>
                    <path d="M2662.47,2447.05C2662.42,2447.01 2662.37,2446.98 2662.32,2446.94C2662.38,2446.94 2662.43,2446.96 2662.48,2446.97C2662.48,2447 2662.47,2447.02 2662.47,2447.05Z" style="fill:rgb(191,145,91);fill-rule:nonzero;"/>
                    <path d="M2662.47,2447.05C2662.47,2447.07 2662.46,2447.09 2662.46,2447.11L2662.32,2446.94C2662.37,2446.98 2662.42,2447.01 2662.47,2447.05Z" style="fill:rgb(191,145,91);fill-rule:nonzero;"/>
                    <path d="M2720.92,2425.34C2718.67,2424.98 2716.58,2423.69 2717.21,2421.21C2718.11,2417.67 2720.94,2416.21 2724.56,2416.79C2726.81,2417.16 2728.49,2418.27 2728.31,2420.55C2727.2,2424.79 2724.49,2425.91 2720.92,2425.34Z" style="fill:rgb(189,141,78);fill-rule:nonzero;"/>
                    <path d="M2689.58,2408.69C2691.78,2408.21 2694.27,2409.68 2694.38,2411.89C2694.58,2415.64 2691.81,2417.66 2688.31,2417.9C2686.09,2418.05 2684.31,2416.63 2683.94,2414.1C2684,2410.41 2686.85,2409.28 2689.58,2408.69Z" style="fill:rgb(191,145,88);fill-rule:nonzero;"/>
                    <path d="M2707.6,2412.24C2704.69,2412.9 2703.07,2411.11 2702.03,2408.53C2702.44,2405.27 2704.69,2403.87 2707.68,2403.46C2709.86,2403.16 2712.14,2403.4 2712.32,2406.24C2712.51,2409.45 2710.66,2411.54 2707.6,2412.24Z" style="fill:rgb(187,135,75);fill-rule:nonzero;"/>
                    <path d="M2697.11,2426.92C2697,2423.62 2699.22,2422 2702,2421.21C2704.68,2421.37 2706.15,2422.75 2706.2,2425.17C2706.28,2428.41 2704.57,2430.68 2701.3,2430.81C2699.1,2430.89 2697.2,2429.32 2697.11,2426.92Z" style="fill:rgb(196,151,93);fill-rule:nonzero;"/>
                    <path d="M2724.14,2448.92C2725.27,2449.18 2728.23,2449.5 2727.8,2452.78C2727.33,2456.42 2724.43,2457.98 2720.93,2457.86C2718.05,2457.77 2716.26,2456.04 2716.71,2453.09C2717.21,2449.76 2719.57,2448.49 2724.14,2448.92Z" style="fill:rgb(12,12,10);fill-rule:nonzero;"/>
                    <path d="M2677.45,2425.31C2679.26,2425.64 2681.64,2426.36 2681.65,2428.72C2681.66,2431.93 2679.23,2433.58 2676.13,2433.75C2673.83,2433.88 2671.64,2432.64 2671.57,2430.41C2671.45,2427.1 2674.07,2425.8 2677.45,2425.31Z" style="fill:rgb(188,140,83);fill-rule:nonzero;"/>
                    <path d="M2710.56,2442.42C2712.93,2442.72 2714.5,2444.15 2713.79,2446.71C2713.13,2449.13 2711.07,2449.79 2708.81,2449.35C2706.93,2448.98 2705.7,2447.82 2706.01,2445.39C2706.5,2443.19 2708.19,2442.11 2710.56,2442.42Z" style="fill:rgb(191,137,72);fill-rule:nonzero;"/>
                    <path d="M2694.88,2399.35C2693.39,2398.76 2691,2398.37 2691.11,2395.6C2691.21,2392.97 2693.55,2392.17 2695.68,2391.9C2697.64,2391.64 2699.3,2392.78 2699.4,2394.83C2699.52,2397.32 2697.84,2398.66 2694.88,2399.35Z" style="fill:rgb(183,129,65);fill-rule:nonzero;"/>
                </g>
            </g>
        </g>
    </g>
</svg>
